<svg viewBox="0 0 22 22" xmlns="http://www.w3.org/2000/svg"><path d="M11 1.83334C9.18705 1.83334 7.41477 2.37096 5.90732 3.37821C4.39987 4.38545 3.22495 5.81709 2.53115 7.49208C1.83735 9.16707 1.65582 11.0102 2.00951 12.7883C2.36321 14.5665 3.23625 16.1998 4.51823 17.4818C5.80021 18.7638 7.43356 19.6368 9.21172 19.9905C10.9899 20.3442 12.833 20.1627 14.508 19.4689C16.183 18.7751 17.6146 17.6002 18.6218 16.0927C19.6291 14.5853 20.1667 12.813 20.1667 11C20.1667 9.79623 19.9296 8.60423 19.4689 7.49208C19.0083 6.37993 18.3331 5.3694 17.4819 4.5182C16.6307 3.66699 15.6201 2.99178 14.508 2.53111C13.3958 2.07045 12.2038 1.83334 11 1.83334ZM11 18.3333C9.54965 18.3333 8.13182 17.9032 6.92586 17.0975C5.7199 16.2917 4.77997 15.1463 4.22493 13.8064C3.66989 12.4664 3.52466 10.9919 3.80762 9.56935C4.09058 8.14682 4.78901 6.84015 5.81459 5.81456C6.84018 4.78898 8.14686 4.09054 9.56938 3.80758C10.9919 3.52463 12.4664 3.66985 13.8064 4.22489C15.1464 4.77994 16.2917 5.71987 17.0975 6.92583C17.9033 8.13179 18.3334 9.54961 18.3334 11C18.3334 12.9449 17.5608 14.8102 16.1855 16.1855C14.8102 17.5607 12.945 18.3333 11 18.3333ZM14.6667 10.0833H11.9167V7.33334C11.9167 7.09023 11.8201 6.85707 11.6482 6.68516C11.4763 6.51325 11.2432 6.41668 11 6.41668C10.7569 6.41668 10.5238 6.51325 10.3519 6.68516C10.18 6.85707 10.0834 7.09023 10.0834 7.33334V10.0833H7.33338C7.09026 10.0833 6.85711 10.1799 6.6852 10.3518C6.51329 10.5237 6.41671 10.7569 6.41671 11C6.41671 11.2431 6.51329 11.4763 6.6852 11.6482C6.85711 11.8201 7.09026 11.9167 7.33338 11.9167H10.0834V14.6667C10.0834 14.9098 10.18 15.143 10.3519 15.3149C10.5238 15.4868 10.7569 15.5833 11 15.5833C11.2432 15.5833 11.4763 15.4868 11.6482 15.3149C11.8201 15.143 11.9167 14.9098 11.9167 14.6667V11.9167H14.6667C14.9098 11.9167 15.143 11.8201 15.3149 11.6482C15.4868 11.4763 15.5834 11.2431 15.5834 11C15.5834 10.7569 15.4868 10.5237 15.3149 10.3518C15.143 10.1799 14.9098 10.0833 14.6667 10.0833Z" fill="black"></path></svg>
