<svg width="24" height="24" viewBox="0 0 24 24" fill="none" xmlns="http://www.w3.org/2000/svg">
<path d="M14 9.45002H13V8.45002C13 8.1848 12.8946 7.93045 12.7071 7.74291C12.5196 7.55537 12.2652 7.45002 12 7.45002C11.7348 7.45002 11.4804 7.55537 11.2929 7.74291C11.1054 7.93045 11 8.1848 11 8.45002V9.45002H10C9.73478 9.45002 9.48043 9.55537 9.29289 9.74291C9.10536 9.93045 9 10.1848 9 10.45C9 10.7152 9.10536 10.9696 9.29289 11.1571C9.48043 11.3447 9.73478 11.45 10 11.45H11V12.45C11 12.7152 11.1054 12.9696 11.2929 13.1571C11.4804 13.3447 11.7348 13.45 12 13.45C12.2652 13.45 12.5196 13.3447 12.7071 13.1571C12.8946 12.9696 13 12.7152 13 12.45V11.45H14C14.2652 11.45 14.5196 11.3447 14.7071 11.1571C14.8946 10.9696 15 10.7152 15 10.45C15 10.1848 14.8946 9.93045 14.7071 9.74291C14.5196 9.55537 14.2652 9.45002 14 9.45002ZM20.46 9.63002C20.3304 8.27185 19.8757 6.96484 19.1344 5.81944C18.3931 4.67404 17.387 3.72391 16.2011 3.04934C15.0152 2.37477 13.6843 1.99557 12.321 1.9438C10.9576 1.89204 9.60183 2.16921 8.36818 2.75191C7.13453 3.33461 6.05927 4.20571 5.23327 5.2916C4.40727 6.37748 3.85479 7.64625 3.62253 8.99068C3.39027 10.3351 3.48505 11.7157 3.89886 13.0158C4.31267 14.3158 5.03335 15.4972 6 16.46L11.3 21.77C11.393 21.8637 11.5036 21.9381 11.6254 21.9889C11.7473 22.0397 11.878 22.0658 12.01 22.0658C12.142 22.0658 12.2727 22.0397 12.3946 21.9889C12.5164 21.9381 12.627 21.8637 12.72 21.77L18 16.46C18.8912 15.5755 19.5743 14.5036 19.9998 13.3223C20.4253 12.1409 20.5825 10.8797 20.46 9.63002ZM16.6 15.05L12 19.65L7.4 15.05C6.72209 14.3721 6.2028 13.5523 5.87947 12.6498C5.55613 11.7472 5.43679 10.7842 5.53 9.83002C5.62382 8.86112 5.93176 7.92518 6.43157 7.08986C6.93138 6.25454 7.61056 5.54072 8.42 5.00002C9.48095 4.29525 10.7263 3.91931 12 3.91931C13.2737 3.91931 14.5191 4.29525 15.58 5.00002C16.387 5.53863 17.0647 6.2493 17.5644 7.08095C18.064 7.91261 18.3733 8.84462 18.47 9.81002C18.5663 10.7674 18.4484 11.7343 18.125 12.6406C17.8016 13.5468 17.2807 14.3698 16.6 15.05Z" fill="black"/>
</svg>
