<svg width="24" height="24" viewBox="0 0 24 24" fill="none" xmlns="http://www.w3.org/2000/svg">
<path d="M12 2C10.4661 1.99993 8.95272 2.35274 7.57697 3.03113C6.20122 3.70952 4.99998 4.69531 4.06616 5.91222C3.13235 7.12914 2.491 8.54457 2.19174 10.049C1.89247 11.5535 1.94331 13.1066 2.34032 14.5882C2.73734 16.0699 3.46988 17.4403 4.48128 18.5936C5.49267 19.7468 6.75582 20.6519 8.17299 21.2389C9.59016 21.8259 11.1234 22.0789 12.654 21.9786C14.1846 21.8782 15.6716 21.427 17 20.66C17.1195 20.5975 17.2251 20.5114 17.3105 20.407C17.3959 20.3027 17.4593 20.1821 17.4969 20.0525C17.5345 19.923 17.5455 19.7872 17.5292 19.6533C17.5129 19.5194 17.4698 19.3902 17.4023 19.2735C17.3348 19.1567 17.2443 19.0548 17.1364 18.9739C17.0285 18.893 16.9054 18.8347 16.7744 18.8026C16.6434 18.7705 16.5073 18.7653 16.3742 18.7872C16.2411 18.8091 16.1138 18.8576 16 18.93C14.4749 19.8105 12.702 20.1632 10.956 19.9334C9.21009 19.7036 7.58876 18.9041 6.34348 17.659C5.09819 16.4138 4.29855 14.7926 4.06854 13.0467C3.83854 11.3008 4.19103 9.52774 5.07136 8.00257C5.95169 6.47741 7.31065 5.28532 8.93751 4.61119C10.5644 3.93706 12.3682 3.81855 14.0693 4.27404C15.7703 4.72953 17.2736 5.73358 18.3459 7.13046C19.4182 8.52734 19.9996 10.239 20 12V12.75C20 13.2141 19.8156 13.6592 19.4874 13.9874C19.1593 14.3156 18.7141 14.5 18.25 14.5C17.7859 14.5 17.3408 14.3156 17.0126 13.9874C16.6844 13.6592 16.5 13.2141 16.5 12.75V8.5C16.5 8.23478 16.3947 7.98043 16.2071 7.79289C16.0196 7.60536 15.7652 7.5 15.5 7.5C15.2675 7.49483 15.0404 7.57088 14.8579 7.71507C14.6753 7.85926 14.5488 8.06257 14.5 8.29C13.7649 7.78158 12.8938 7.5063 12 7.5C11.2472 7.491 10.5041 7.67102 9.83889 8.0236C9.17365 8.37617 8.60751 8.89001 8.19232 9.51807C7.77712 10.1461 7.52615 10.8683 7.46237 11.6185C7.3986 12.3687 7.52406 13.1229 7.82728 13.812C8.1305 14.5011 8.60177 15.1032 9.19794 15.563C9.79411 16.0228 10.4961 16.3257 11.2397 16.4439C11.9832 16.5621 12.7445 16.4918 13.4539 16.2396C14.1633 15.9873 14.798 15.5611 15.3 15C15.7752 15.6153 16.4302 16.0673 17.1741 16.293C17.9181 16.5188 18.7138 16.5071 19.4508 16.2596C20.1878 16.0121 20.8293 15.5411 21.2862 14.9121C21.7431 14.2831 21.9926 13.5274 22 12.75V12C22 10.6868 21.7414 9.38642 21.2388 8.17317C20.7363 6.95991 19.9997 5.85752 19.0711 4.92893C18.1425 4.00035 17.0401 3.26375 15.8268 2.7612C14.6136 2.25866 13.3132 2 12 2ZM12 14.5C11.5056 14.5 11.0222 14.3534 10.6111 14.0787C10.2 13.804 9.87953 13.4135 9.69031 12.9567C9.50109 12.4999 9.45159 11.9972 9.54805 11.5123C9.64451 11.0273 9.88261 10.5819 10.2322 10.2322C10.5819 9.8826 11.0273 9.6445 11.5123 9.54804C11.9972 9.45157 12.4999 9.50108 12.9567 9.6903C13.4135 9.87952 13.804 10.2 14.0787 10.6111C14.3534 11.0222 14.5 11.5055 14.5 12C14.5 12.663 14.2366 13.2989 13.7678 13.7678C13.2989 14.2366 12.6631 14.5 12 14.5Z" fill="black"/>
</svg>
