<svg width="24" height="24" viewBox="0 0 24 24" fill="none" xmlns="http://www.w3.org/2000/svg">
<path d="M20.83 7.31998C20.0191 5.80444 18.8351 4.52067 17.39 3.58998C16.0822 2.74866 14.5962 2.22392 13.0501 2.05746C11.5041 1.891 9.94044 2.0874 8.48354 2.63106C7.02664 3.17472 5.71661 4.05066 4.65752 5.18927C3.59843 6.32789 2.81948 7.69781 2.38254 9.19019C1.94561 10.6826 1.86274 12.2563 2.14051 13.7863C2.41829 15.3163 3.04906 16.7605 3.98271 18.004C4.91635 19.2476 6.12715 20.2563 7.51889 20.9499C8.91063 21.6436 10.445 22.0031 12 22H12.29C13.9891 21.9498 15.6473 21.4674 17.1081 20.5983C18.5689 19.7292 19.784 18.5021 20.6388 17.0328C21.4935 15.5635 21.9596 13.9006 21.9931 12.2012C22.0265 10.5017 21.6262 8.82175 20.83 7.31998ZM11 19.93C9.07814 19.6741 7.31462 18.7289 6.03735 17.2703C4.76007 15.8116 4.05598 13.9388 4.05598 12C4.05598 10.0612 4.76007 8.18831 6.03735 6.72968C7.31462 5.27105 9.07814 4.3259 11 4.06998V19.93ZM13 4.06998C13.8645 4.18057 14.7054 4.43047 15.49 4.80998L13 9.11998V4.06998ZM13 13.07L17.17 5.89998C17.7848 6.42793 18.3174 7.04473 18.75 7.72998L13 17.69V13.07ZM14.15 19.65L19.74 9.99998C19.909 10.6533 19.9964 11.3251 20 12C19.9988 13.746 19.4263 15.4436 18.3701 16.8339C17.3138 18.2242 15.8318 19.2307 14.15 19.7V19.65Z" fill="black"/>
</svg>
