<svg width="24" height="24" viewBox="0 0 24 24" fill="none" xmlns="http://www.w3.org/2000/svg">
<path d="M17 7.00002C16.5377 5.79578 15.7816 4.72619 14.8007 3.88849C13.8198 3.05079 12.645 2.47153 11.3833 2.20338C10.1215 1.93523 8.81271 1.98669 7.57589 2.35308C6.33907 2.71946 5.21343 3.38916 4.3013 4.3013C3.38916 5.21343 2.71946 6.33907 2.35308 7.57589C1.98669 8.81271 1.93523 10.1215 2.20338 11.3833C2.47153 12.645 3.05079 13.8198 3.88849 14.8007C4.72619 15.7816 5.79578 16.5377 7.00002 17C7.46238 18.2043 8.21839 19.2738 9.19932 20.1115C10.1802 20.9492 11.355 21.5285 12.6168 21.7966C13.8785 22.0648 15.1873 22.0133 16.4241 21.647C17.661 21.2806 18.7866 20.6109 19.6987 19.6987C20.6109 18.7866 21.2806 17.661 21.647 16.4241C22.0133 15.1873 22.0648 13.8785 21.7966 12.6168C21.5285 11.355 20.9492 10.1802 20.1115 9.19932C19.2738 8.21839 18.2043 7.46238 17 7.00002ZM15.4 8.60002C15.4722 8.97574 15.5091 9.35741 15.51 9.74002C15.5079 10.1913 15.4543 10.6409 15.35 11.08L12.91 8.66002C13.3491 8.55578 13.7987 8.5021 14.25 8.50002C14.6326 8.50097 15.0143 8.53779 15.39 8.61001L15.4 8.60002ZM14.46 13C14.0614 13.5674 13.5674 14.0614 13 14.46L9.54002 11C9.93866 10.4326 10.4326 9.93866 11 9.54002L14.46 13ZM6.46002 14.46C5.76721 13.9808 5.18817 13.3552 4.76385 12.6274C4.33953 11.8997 4.08029 11.0876 4.00448 10.2486C3.92867 9.40965 4.03812 8.56425 4.32511 7.77224C4.6121 6.98023 5.06961 6.26095 5.66528 5.66528C6.26095 5.06961 6.98023 4.6121 7.77224 4.32511C8.56425 4.03812 9.40965 3.92867 10.2486 4.00448C11.0876 4.08029 11.8997 4.33953 12.6274 4.76385C13.3552 5.18817 13.9808 5.76721 14.46 6.46002H14.21C12.1554 6.47324 10.1899 7.30076 8.74456 8.7611C7.29922 10.2214 6.49203 12.1954 6.50002 14.25C6.50002 14.33 6.51002 14.42 6.51002 14.5L6.46002 14.46ZM8.56002 15.35C8.48779 14.9743 8.45097 14.5926 8.45002 14.21C8.4521 13.7587 8.50578 13.3091 8.61001 12.87L11.04 15.3C10.6009 15.4043 10.1513 15.4579 9.70002 15.46C9.33532 15.4692 8.97054 15.4458 8.61001 15.39L8.56002 15.35ZM14.25 20C13.3141 19.9983 12.3926 19.7689 11.5651 19.3316C10.7375 18.8943 10.0288 18.2623 9.50002 17.49H9.75002C11.8029 17.4874 13.7711 16.6714 15.2236 15.2207C16.6762 13.77 17.4947 11.8029 17.5 9.75002C17.5 9.67002 17.5 9.58002 17.5 9.50002C18.5158 10.193 19.2827 11.1934 19.6882 12.3543C20.0936 13.5152 20.1161 14.7755 19.7526 15.9502C19.389 17.1249 18.6584 18.1521 17.668 18.881C16.6776 19.6099 15.4797 20.0021 14.25 20Z" fill="black"/>
</svg>
