<svg width="24" height="24" viewBox="0 0 24 24" fill="none" xmlns="http://www.w3.org/2000/svg">
<path d="M10.2471 2.40283C10.1557 2.26635 10.0322 2.1545 9.88729 2.07717C9.74242 1.99983 9.58072 1.95941 9.4165 1.95947H1.9917C1.86037 1.95944 1.73032 1.98528 1.60898 2.03552C1.48763 2.08577 1.37738 2.15942 1.28452 2.25229C1.19165 2.34516 1.11799 2.45541 1.06775 2.57675C1.01751 2.69809 0.991665 2.82814 0.991699 2.95947V21.0415C0.99173 21.2731 1.07216 21.4975 1.21925 21.6765C1.36635 21.8554 1.57099 21.9777 1.79824 22.0226C2.02549 22.0674 2.26126 22.032 2.46529 21.9223C2.66933 21.8127 2.82898 21.6356 2.91699 21.4214L10.3418 3.33936C10.4041 3.18747 10.428 3.02259 10.4115 2.85926C10.3949 2.69593 10.3385 2.53918 10.2471 2.40283ZM2.9917 15.9731V3.95947H7.9248L2.9917 15.9731ZM21.9917 1.95947H14.4741C14.3092 1.95954 14.1469 2.00037 14.0017 2.07833C13.8564 2.1563 13.7326 2.26897 13.6414 2.40633C13.5502 2.54369 13.4944 2.70146 13.4789 2.86561C13.4635 3.02976 13.4888 3.19519 13.5527 3.34717L21.0703 21.1968C21.1465 21.3782 21.2745 21.5331 21.4383 21.642C21.6021 21.7509 21.7945 21.809 21.9912 21.8091C22.0578 21.8089 22.1241 21.8023 22.1894 21.7896C22.4157 21.7437 22.6192 21.6211 22.7654 21.4424C22.9116 21.2637 22.9916 21.04 22.9917 20.8091V2.95947C22.9917 2.82814 22.9659 2.69809 22.9156 2.57675C22.8654 2.45541 22.7917 2.34516 22.6989 2.25229C22.606 2.15942 22.4958 2.08577 22.3744 2.03552C22.2531 1.98528 22.123 1.95944 21.9917 1.95947ZM20.9917 15.8579L15.9805 3.95947H20.9917V15.8579ZM12.9492 9.52005C12.878 9.33157 12.7515 9.16899 12.5863 9.05363C12.4211 8.93827 12.2249 8.87551 12.0234 8.87357H12.0137C11.8139 8.87355 11.6188 8.93336 11.4533 9.04528C11.2879 9.15719 11.1598 9.3161 11.0854 9.5015L8.02637 17.1323C7.96554 17.2841 7.94285 17.4484 7.96027 17.611C7.97769 17.7735 8.0347 17.9293 8.12631 18.0647C8.21791 18.2001 8.34132 18.311 8.48572 18.3877C8.63012 18.4643 8.79111 18.5044 8.95459 18.5044H11.209L12.7315 21.4946C12.815 21.6592 12.9425 21.7974 13.0998 21.894C13.2571 21.9905 13.438 22.0416 13.6226 22.0415H16.2354C16.3972 22.0415 16.5565 22.0022 16.6998 21.9271C16.8431 21.8519 16.966 21.7431 17.058 21.61C17.15 21.4769 17.2083 21.3235 17.228 21.1629C17.2477 21.0023 17.2281 20.8394 17.1709 20.688L12.9492 9.52005ZM14.2358 20.0415L12.7134 17.0513C12.6299 16.8867 12.5024 16.7485 12.3451 16.652C12.1878 16.5555 12.0068 16.5044 11.8223 16.5044H10.4326L11.9863 12.6294L14.7881 20.0415H14.2358Z" fill="black"/>
</svg>
