<svg width="24" height="24" viewBox="0 0 24 24" fill="none" xmlns="http://www.w3.org/2000/svg">
<path d="M1.04 17.52C1.10667 17.4133 1.21333 17.4066 1.36 17.5C4.66103 19.4247 8.41891 20.4263 12.24 20.4C14.8878 20.3935 17.5118 19.8986 19.98 18.94C20.0467 18.9133 20.1433 18.8733 20.27 18.82C20.3967 18.7666 20.4867 18.7266 20.54 18.7C20.619 18.6569 20.7114 18.6453 20.7986 18.6676C20.8858 18.6898 20.9613 18.7443 21.01 18.82C21.1233 18.98 21.0867 19.1266 20.9 19.26C20.66 19.4333 20.3533 19.6333 19.98 19.86C18.7795 20.5622 17.4871 21.094 16.14 21.44C14.79 21.8048 13.3984 21.993 12 22C9.98223 22.0115 7.98045 21.6417 6.1 20.91C4.26791 20.1964 2.58056 19.1562 1.12 17.84C1.08647 17.8176 1.05831 17.788 1.03757 17.7534C1.01682 17.7188 1.00399 17.6801 1 17.64C1.001 17.5968 1.01494 17.555 1.04 17.52ZM7.06 11.82C7.03602 10.9818 7.27369 10.1569 7.74 9.45996C8.20442 8.79768 8.85033 8.28373 9.6 7.97996C10.4524 7.63968 11.3474 7.41762 12.26 7.31996C12.62 7.27996 13.2067 7.22662 14.02 7.15996V6.81996C14.0705 6.23228 13.9743 5.64126 13.74 5.09996C13.5887 4.89647 13.3882 4.73469 13.1574 4.62976C12.9265 4.52483 12.6728 4.48017 12.42 4.49996H12.26C11.848 4.52956 11.4527 4.67517 11.12 4.91996C10.7967 5.16509 10.5758 5.52139 10.5 5.91996C10.4921 6.02959 10.4488 6.13371 10.3767 6.21666C10.3046 6.2996 10.2075 6.35691 10.1 6.37996L7.8 6.09996C7.57333 6.04662 7.46 5.92662 7.46 5.73996C7.461 5.69265 7.46772 5.64565 7.48 5.59996C7.55744 5.06734 7.74616 4.55699 8.03389 4.10214C8.32162 3.64728 8.70191 3.25811 9.15 2.95996C10.0841 2.37169 11.1569 2.04053 12.26 1.99996H12.76C14.0541 1.92218 15.3286 2.34462 16.32 3.17996C16.4538 3.3139 16.5775 3.45763 16.69 3.60996C16.7886 3.74078 16.8788 3.87772 16.96 4.01996C17.0426 4.18464 17.1031 4.35947 17.14 4.53996C17.1933 4.76662 17.2333 4.92329 17.26 5.00996C17.2984 5.19419 17.3185 5.38177 17.32 5.56996C17.3333 5.85662 17.34 6.02662 17.34 6.07996V10.92C17.3362 11.2428 17.3869 11.564 17.49 11.87C17.5575 12.0891 17.6551 12.2977 17.78 12.49C17.8733 12.6166 18.0267 12.82 18.24 13.1C18.3102 13.1927 18.3519 13.3039 18.36 13.42C18.3581 13.4761 18.3425 13.531 18.3146 13.5797C18.2867 13.6285 18.2474 13.6698 18.2 13.7C17.0933 14.66 16.4933 15.18 16.4 15.26C16.3164 15.3194 16.218 15.3546 16.1156 15.3616C16.0133 15.3687 15.911 15.3473 15.82 15.3C15.6333 15.14 15.47 14.9866 15.33 14.84C15.19 14.6933 15.09 14.5866 15.03 14.52C14.9263 14.3953 14.8295 14.2651 14.74 14.13C14.6067 13.9366 14.5133 13.8066 14.46 13.74C13.8814 14.4404 13.1198 14.9665 12.26 15.26C11.7122 15.4051 11.1466 15.4725 10.58 15.46C10.1164 15.4769 9.65405 15.4017 9.21974 15.2386C8.78544 15.0756 8.38784 14.8279 8.05 14.51C7.70721 14.1549 7.44214 13.7324 7.27169 13.2692C7.10124 12.8061 7.02915 12.3125 7.06 11.82ZM10.5 11.42C10.4773 11.8697 10.6156 12.3129 10.89 12.67C11.0169 12.824 11.1777 12.9465 11.3599 13.0281C11.542 13.1096 11.7406 13.1479 11.94 13.14C11.9971 13.1381 12.054 13.1314 12.11 13.12C12.1594 13.1096 12.2096 13.1029 12.26 13.1C12.5415 13.0237 12.8033 12.8878 13.0276 12.7015C13.2519 12.5151 13.4335 12.2827 13.56 12.02C13.7091 11.7605 13.8202 11.481 13.89 11.19C13.9536 10.9511 13.9938 10.7066 14.01 10.46C14.0167 10.2733 14.02 9.96662 14.02 9.53996V9.03996C13.429 9.02169 12.838 9.07542 12.26 9.19996C11.7468 9.29269 11.2851 9.56925 10.9611 9.97787C10.6372 10.3865 10.4732 10.8992 10.5 11.42ZM18.9 17.86C18.9312 17.8005 18.9717 17.7465 19.02 17.7C19.3115 17.4931 19.6361 17.3375 19.98 17.24C20.4633 17.1101 20.9599 17.0363 21.46 17.02C21.5869 17.0063 21.7152 17.013 21.84 17.04C22.44 17.0933 22.8 17.1933 22.92 17.34C22.9806 17.4498 23.0084 17.5748 23 17.7V17.84C22.9775 18.4089 22.8486 18.9685 22.62 19.49C22.3975 20.0792 22.0334 20.6046 21.56 21.02C21.5106 21.066 21.4473 21.0942 21.38 21.1C21.3521 21.0997 21.3247 21.0928 21.3 21.08C21.22 21.04 21.2 20.9666 21.24 20.86C21.6196 20.1001 21.8697 19.2822 21.98 18.44C21.9893 18.3274 21.9612 18.2149 21.9 18.12C21.7667 17.96 21.3933 17.88 20.78 17.88C20.5533 17.88 20.2867 17.8933 19.98 17.92C19.6467 17.96 19.34 18 19.06 18.04C19.0036 18.0467 18.9466 18.0325 18.9 18C18.888 17.991 18.8794 17.9781 18.8758 17.9635C18.8721 17.9489 18.8736 17.9336 18.88 17.92C18.8824 17.8988 18.8892 17.8783 18.9 17.86Z" fill="black"/>
</svg>
