<svg width="24" height="24" viewBox="0 0 24 24" fill="none" xmlns="http://www.w3.org/2000/svg">
<path d="M21.84 5.55999C21.7072 4.7084 21.3081 3.92075 20.7 3.30999C20.0892 2.70188 19.3016 2.3028 18.45 2.16999C16.2411 1.86555 13.9918 2.07643 11.878 2.7861C9.76421 3.49578 7.84332 4.685 6.26569 6.2607C4.68805 7.8364 3.49647 9.75582 2.78419 11.8687C2.07192 13.9817 1.85829 16.2308 2.16001 18.44C2.29282 19.2916 2.69189 20.0792 3.30001 20.69C3.91077 21.2981 4.69842 21.6972 5.55001 21.83C6.23773 21.9418 6.93326 21.9986 7.63001 22C11.4308 21.9729 15.066 20.4412 17.74 17.74C19.331 16.1737 20.5311 14.2551 21.2433 12.1392C21.9556 10.0233 22.16 7.7695 21.84 5.55999ZM4.21001 18.37C4.18074 18.2918 4.15735 18.2116 4.14001 18.13C3.86551 16.2317 4.04205 14.2955 4.65535 12.4783C5.26864 10.661 6.30142 9.01372 7.67001 7.66999C9.9719 5.34625 13.0993 4.027 16.37 3.99999C16.9596 3.99687 17.5483 4.04371 18.13 4.13999C18.2116 4.15733 18.2919 4.18073 18.37 4.20999L13.44 9.14999L12.71 8.41999C12.617 8.32626 12.5064 8.25186 12.3846 8.2011C12.2627 8.15033 12.132 8.12419 12 8.12419C11.868 8.12419 11.7373 8.15033 11.6154 8.2011C11.4936 8.25186 11.383 8.32626 11.29 8.41999C11.1038 8.60735 10.9992 8.8608 10.9992 9.12499C10.9992 9.38917 11.1038 9.64262 11.29 9.82999L12.02 10.56L10.56 12L9.83001 11.27C9.64264 11.0837 9.38919 10.9792 9.12501 10.9792C8.86082 10.9792 8.60737 11.0837 8.42001 11.27C8.32628 11.363 8.25188 11.4736 8.20111 11.5954C8.15035 11.7173 8.12421 11.848 8.12421 11.98C8.12421 12.112 8.15035 12.2427 8.20111 12.3646C8.25188 12.4864 8.32628 12.597 8.42001 12.69L9.15001 13.42L4.21001 18.37ZM16.33 16.37C14.9811 17.7295 13.332 18.7535 11.5153 19.3596C9.69858 19.9657 7.76499 20.1371 5.87001 19.86C5.78838 19.8426 5.70816 19.8193 5.63001 19.79L10.56 14.85L11.29 15.58C11.3826 15.6732 11.4926 15.7473 11.6138 15.798C11.7351 15.8487 11.8651 15.8751 11.9965 15.8755C12.1279 15.876 12.2581 15.8506 12.3796 15.8007C12.5012 15.7509 12.6118 15.6776 12.705 15.585C12.7982 15.4924 12.8723 15.3824 12.923 15.2611C12.9738 15.1399 13.0001 15.0099 13.0006 14.8785C13.001 14.7471 12.9756 14.6169 12.9258 14.4954C12.8759 14.3738 12.8026 14.2632 12.71 14.17L12 13.44L13.44 12L14.17 12.73C14.2634 12.8227 14.3743 12.896 14.4961 12.9458C14.6179 12.9955 14.7484 13.0207 14.88 13.02C15.0778 13.0192 15.2709 12.9597 15.4348 12.8491C15.5988 12.7386 15.7263 12.5819 15.8013 12.3988C15.8762 12.2158 15.8952 12.0147 15.8558 11.8209C15.8164 11.627 15.7204 11.4493 15.58 11.31L14.85 10.58L19.79 5.64999C19.8193 5.72814 19.8427 5.80836 19.86 5.88999C20.1312 7.78507 19.9531 9.71737 19.3399 11.5309C18.7267 13.3444 17.6956 14.9884 16.33 16.33V16.37Z" fill="black"/>
</svg>
