<svg width="24" height="24" viewBox="0 0 24 24" fill="none" xmlns="http://www.w3.org/2000/svg">
<path d="M14.94 5.19C15.318 4.75428 15.6063 4.24817 15.7882 3.70074C15.9701 3.1533 16.0421 2.57533 16 2C14.8393 2.09369 13.762 2.63956 13 3.52C12.6351 3.94198 12.3586 4.43288 12.1868 4.96364C12.015 5.49441 11.9515 6.05424 12 6.61C12.5661 6.61472 13.1258 6.4891 13.6356 6.24286C14.1454 5.99662 14.5917 5.63637 14.94 5.19ZM17.46 12.63C17.4667 11.8637 17.6685 11.1118 18.0464 10.4452C18.4244 9.77859 18.9659 9.21926 19.62 8.82C19.2072 8.22524 18.6615 7.73483 18.0262 7.38767C17.3909 7.04052 16.6835 6.84615 15.96 6.82C14.4 6.66 12.96 7.73 12.13 7.73C11.3 7.73 10.13 6.84 8.82997 6.86C7.9801 6.888 7.15199 7.13578 6.42642 7.57919C5.70085 8.02259 5.10258 8.64648 4.68997 9.39C2.92997 12.45 4.23997 17 5.99997 19.47C6.79997 20.68 7.79997 22.05 9.11997 22C10.44 21.95 10.87 21.18 12.4 21.18C13.93 21.18 14.4 22 15.7 21.97C17 21.94 17.92 20.73 18.76 19.52C19.355 18.6415 19.8198 17.6816 20.14 16.67C19.3475 16.332 18.6713 15.7693 18.195 15.0513C17.7187 14.3333 17.4632 13.4916 17.46 12.63Z" fill="black"/>
</svg>
