<svg width="24" height="24" viewBox="0 0 24 24" fill="none" xmlns="http://www.w3.org/2000/svg">
<path d="M13.29 7.13002C13.1963 7.22298 13.1219 7.33358 13.0711 7.45544C13.0203 7.5773 12.9942 7.708 12.9942 7.84002C12.9942 7.97203 13.0203 8.10273 13.0711 8.22459C13.1219 8.34645 13.1963 8.45705 13.29 8.55002L15.21 10.47C15.303 10.5637 15.4136 10.6381 15.5354 10.6889C15.6573 10.7397 15.788 10.7658 15.92 10.7658C16.052 10.7658 16.1827 10.7397 16.3046 10.6889C16.4264 10.6381 16.537 10.5637 16.63 10.47L20.71 6.39002C20.8194 6.30116 20.9087 6.1902 20.9722 6.06441C21.0356 5.93862 21.0718 5.80084 21.0783 5.66009C21.0848 5.51935 21.0615 5.37881 21.0099 5.24771C20.9583 5.1166 20.8796 4.99787 20.7789 4.89931C20.6782 4.80075 20.5578 4.72458 20.4256 4.6758C20.2935 4.62701 20.1525 4.6067 20.0119 4.61621C19.8713 4.62572 19.7343 4.66482 19.6099 4.73097C19.4855 4.79711 19.3765 4.8888 19.29 5.00002L15.92 8.35002L14.71 7.13002C14.617 7.03629 14.5064 6.96189 14.3846 6.91112C14.2627 6.86036 14.132 6.83422 14 6.83422C13.868 6.83422 13.7373 6.86036 13.6154 6.91112C13.4936 6.96189 13.383 7.03629 13.29 7.13002ZM19.91 10.64C19.6463 10.6629 19.4023 10.7895 19.2318 10.9919C19.0612 11.1944 18.9778 11.4562 19 11.72C19.005 11.8133 19.005 11.9067 19 12C19 13.8565 18.2625 15.637 16.9498 16.9498C15.637 18.2625 13.8565 19 12 19H6.41L7.05 18.37C7.23626 18.1827 7.3408 17.9292 7.3408 17.665C7.3408 17.4008 7.23626 17.1474 7.05 16.96C6.15566 16.0705 5.51828 14.9559 5.20526 13.734C4.89224 12.512 4.91521 11.2282 5.27174 10.0183C5.62827 8.80836 6.3051 7.71724 7.23069 6.8603C8.15628 6.00335 9.29623 5.41244 10.53 5.15002C11.4542 4.96522 12.4058 4.96522 13.33 5.15002C13.4613 5.17628 13.5965 5.17642 13.7279 5.15043C13.8593 5.12444 13.9843 5.07283 14.0957 4.99854C14.2071 4.92426 14.3028 4.82875 14.3773 4.71747C14.4519 4.6062 14.5037 4.48134 14.53 4.35002C14.5563 4.21869 14.5564 4.08348 14.5304 3.95211C14.5044 3.82073 14.4528 3.69576 14.3785 3.58433C14.3042 3.4729 14.2087 3.37719 14.0975 3.30267C13.9862 3.22815 13.8613 3.17628 13.73 3.15002C12.5386 2.91028 11.3114 2.91028 10.12 3.15002C8.10119 3.59068 6.29398 4.70894 4.99871 6.31892C3.70344 7.92891 2.99813 9.93367 3 12C3.0084 14.0462 3.71384 16.0285 5 17.62L3.29 19.29C3.15125 19.4306 3.05725 19.6092 3.01988 19.8032C2.9825 19.9972 3.00342 20.1979 3.08 20.38C3.15502 20.5626 3.28242 20.719 3.44614 20.8293C3.60986 20.9396 3.80258 20.999 4 21H12C14.387 21 16.6761 20.0518 18.364 18.364C20.0518 16.6761 21 14.387 21 12C21 11.85 21 11.71 21 11.56C20.99 11.4276 20.9536 11.2986 20.8932 11.1803C20.8327 11.0621 20.7493 10.9571 20.6479 10.8715C20.5464 10.7859 20.4289 10.7213 20.3022 10.6816C20.1755 10.6418 20.0422 10.6277 19.91 10.64Z" fill="black"/>
</svg>
