<svg width="24" height="24" viewBox="0 0 24 24" fill="none" xmlns="http://www.w3.org/2000/svg">
<path d="M6.77 9.14994L12.21 3.70994C12.3032 3.6167 12.3772 3.50601 12.4277 3.38419C12.4781 3.26237 12.5041 3.1318 12.5041 2.99994C12.5041 2.86808 12.4781 2.73751 12.4277 2.61569C12.3772 2.49387 12.3032 2.38318 12.21 2.28994C12.1168 2.1967 12.0061 2.12274 11.8843 2.07228C11.7624 2.02182 11.6319 1.99585 11.5 1.99585C11.2337 1.99585 10.9783 2.10164 10.79 2.28994L6.06 6.99994L4.21 5.16994C4.0217 4.98164 3.7663 4.87585 3.5 4.87585C3.2337 4.87585 2.97831 4.98164 2.79 5.16994C2.6017 5.35825 2.49591 5.61364 2.49591 5.87994C2.49591 6.14624 2.6017 6.40164 2.79 6.58994L5.35 9.14994C5.44297 9.24367 5.55357 9.31806 5.67543 9.36883C5.79729 9.4196 5.92799 9.44574 6.06 9.44574C6.19201 9.44574 6.32272 9.4196 6.44458 9.36883C6.56644 9.31806 6.67704 9.24367 6.77 9.14994ZM18.5 5.99994H13C12.7348 5.99994 12.4804 6.1053 12.2929 6.29283C12.1054 6.48037 12 6.73472 12 6.99994C12 7.26516 12.1054 7.51951 12.2929 7.70705C12.4804 7.89458 12.7348 7.99994 13 7.99994H18.5C18.7652 7.99994 19.0196 8.1053 19.2071 8.29283C19.3946 8.48037 19.5 8.73472 19.5 8.99994V18.7199L17.93 17.2699C17.7456 17.0973 17.5026 17.0008 17.25 16.9999H8.5C8.23479 16.9999 7.98043 16.8946 7.7929 16.707C7.60536 16.5195 7.5 16.2652 7.5 15.9999V12.4999C7.5 12.2347 7.39464 11.9804 7.20711 11.7928C7.01957 11.6053 6.76522 11.4999 6.5 11.4999C6.23479 11.4999 5.98043 11.6053 5.7929 11.7928C5.60536 11.9804 5.5 12.2347 5.5 12.4999V15.9999C5.5 16.7956 5.81607 17.5587 6.37868 18.1213C6.94129 18.6839 7.70435 18.9999 8.5 18.9999H16.86L19.86 21.7299C20.0444 21.9026 20.2874 21.9991 20.54 21.9999C20.6772 21.9984 20.8128 21.9713 20.94 21.9199C21.1189 21.8419 21.271 21.7132 21.3776 21.5497C21.4842 21.3862 21.5407 21.1951 21.54 20.9999V8.99994C21.54 8.60259 21.4611 8.20918 21.3079 7.84258C21.1546 7.47597 20.9301 7.14346 20.6472 6.86435C20.3644 6.58525 20.0289 6.36511 19.6603 6.21672C19.2917 6.06833 18.8973 5.99464 18.5 5.99994Z" fill="black"/>
</svg>
