<svg width="24" height="24" viewBox="0 0 24 24" fill="none" xmlns="http://www.w3.org/2000/svg">
<path d="M9.99999 13H14C14.2652 13 14.5196 12.8946 14.7071 12.7071C14.8946 12.5196 15 12.2652 15 12C15 11.7348 14.8946 11.4804 14.7071 11.2929C14.5196 11.1054 14.2652 11 14 11H9.99999C9.73477 11 9.48042 11.1054 9.29288 11.2929C9.10534 11.4804 8.99999 11.7348 8.99999 12C8.99999 12.2652 9.10534 12.5196 9.29288 12.7071C9.48042 12.8946 9.73477 13 9.99999 13ZM19 3H4.99999C4.29644 3.00546 3.6172 3.25801 3.08099 3.71352C2.54479 4.16902 2.18573 4.79849 2.06659 5.49189C1.94745 6.18529 2.0758 6.89851 2.42921 7.50687C2.78263 8.11523 3.33862 8.58002 3.99999 8.82V18C3.99999 18.7956 4.31606 19.5587 4.87867 20.1213C5.44127 20.6839 6.20434 21 6.99999 21H17C17.7956 21 18.5587 20.6839 19.1213 20.1213C19.6839 19.5587 20 18.7956 20 18V8.82C20.6614 8.58002 21.2173 8.11523 21.5708 7.50687C21.9242 6.89851 22.0525 6.18529 21.9334 5.49189C21.8142 4.79849 21.4552 4.16902 20.919 3.71352C20.3828 3.25801 19.7035 3.00546 19 3ZM18 18C18 18.2652 17.8946 18.5196 17.7071 18.7071C17.5196 18.8946 17.2652 19 17 19H6.99999C6.73477 19 6.48042 18.8946 6.29288 18.7071C6.10534 18.5196 5.99999 18.2652 5.99999 18V9H18V18ZM19 7H4.99999C4.73477 7 4.48042 6.89464 4.29288 6.70711C4.10534 6.51957 3.99999 6.26522 3.99999 6C3.99999 5.73478 4.10534 5.48043 4.29288 5.29289C4.48042 5.10536 4.73477 5 4.99999 5H19C19.2652 5 19.5196 5.10536 19.7071 5.29289C19.8946 5.48043 20 5.73478 20 6C20 6.26522 19.8946 6.51957 19.7071 6.70711C19.5196 6.89464 19.2652 7 19 7Z" fill="black"/>
</svg>
