<svg width="24" height="24" viewBox="0 0 24 24" fill="none" xmlns="http://www.w3.org/2000/svg">
<path d="M20.9199 6.61994C20.8723 6.49719 20.801 6.38505 20.7099 6.28994L17.7099 3.28994C17.6167 3.1967 17.506 3.12274 17.3842 3.07228C17.2624 3.02182 17.1318 2.99585 16.9999 2.99585C16.7336 2.99585 16.4782 3.10164 16.2899 3.28994C16.1016 3.47825 15.9958 3.73364 15.9958 3.99994C15.9958 4.26624 16.1016 4.52164 16.2899 4.70994L17.5899 5.99994H8.99994C8.20429 5.99994 7.44123 6.31601 6.87862 6.87862C6.31601 7.44123 5.99994 8.20429 5.99994 8.99994V17.5899L4.70994 16.2899C4.52164 16.1016 4.26624 15.9958 3.99994 15.9958C3.73364 15.9958 3.47825 16.1016 3.28994 16.2899C3.10164 16.4782 2.99585 16.7336 2.99585 16.9999C2.99585 17.2662 3.10164 17.5216 3.28994 17.7099L6.28994 20.7099C6.38505 20.801 6.49719 20.8723 6.61994 20.9199C6.73964 20.9728 6.86907 21.0002 6.99994 21.0002C7.13081 21.0002 7.26024 20.9728 7.37994 20.9199C7.50269 20.8723 7.61484 20.801 7.70994 20.7099L10.7099 17.7099C10.8982 17.5216 11.004 17.2662 11.004 16.9999C11.004 16.7336 10.8982 16.4782 10.7099 16.2899C10.5216 16.1016 10.2662 15.9958 9.99994 15.9958C9.73364 15.9958 9.47824 16.1016 9.28994 16.2899L7.99994 17.5899V8.99994C7.99994 8.73472 8.1053 8.48037 8.29283 8.29283C8.48037 8.1053 8.73472 7.99994 8.99994 7.99994H17.5899L16.2899 9.28994C16.1962 9.3829 16.1218 9.49351 16.071 9.61536C16.0203 9.73722 15.9941 9.86793 15.9941 9.99994C15.9941 10.132 16.0203 10.2627 16.071 10.3845C16.1218 10.5064 16.1962 10.617 16.2899 10.7099C16.3829 10.8037 16.4935 10.8781 16.6154 10.9288C16.7372 10.9796 16.8679 11.0057 16.9999 11.0057C17.132 11.0057 17.2627 10.9796 17.3845 10.9288C17.5064 10.8781 17.617 10.8037 17.7099 10.7099L20.7099 7.70994C20.801 7.61484 20.8723 7.50269 20.9199 7.37994C21.02 7.13648 21.02 6.8634 20.9199 6.61994Z" fill="black"/>
</svg>
