<svg width="24" height="24" viewBox="0 0 24 24" fill="none" xmlns="http://www.w3.org/2000/svg">
<path d="M20.9199 16.62C20.8723 16.4973 20.801 16.3851 20.7099 16.29L17.7099 13.29C17.5216 13.1017 17.2662 12.9959 16.9999 12.9959C16.7336 12.9959 16.4782 13.1017 16.2899 13.29C16.1016 13.4783 15.9958 13.7337 15.9958 14C15.9958 14.2663 16.1016 14.5217 16.2899 14.71L17.5899 16H8.99994C8.73472 16 8.48037 15.8947 8.29283 15.7071C8.1053 15.5196 7.99994 15.2652 7.99994 15V6.41002L9.28994 7.71002C9.3829 7.80375 9.49351 7.87814 9.61536 7.92891C9.73722 7.97968 9.86793 8.00582 9.99994 8.00582C10.132 8.00582 10.2627 7.97968 10.3845 7.92891C10.5064 7.87814 10.617 7.80375 10.7099 7.71002C10.8037 7.61706 10.8781 7.50645 10.9288 7.3846C10.9796 7.26274 11.0057 7.13203 11.0057 7.00002C11.0057 6.86801 10.9796 6.7373 10.9288 6.61544C10.8781 6.49358 10.8037 6.38298 10.7099 6.29002L7.70994 3.29002C7.61484 3.19898 7.50269 3.12761 7.37994 3.08002C7.13648 2.98 6.8634 2.98 6.61994 3.08002C6.49719 3.12761 6.38505 3.19898 6.28994 3.29002L3.28994 6.29002C3.10164 6.47832 2.99585 6.73372 2.99585 7.00002C2.99585 7.13188 3.02182 7.26245 3.07228 7.38427C3.12274 7.50609 3.1967 7.61678 3.28994 7.71002C3.38318 7.80326 3.49387 7.87722 3.61569 7.92768C3.73751 7.97814 3.86808 8.00411 3.99994 8.00411C4.26624 8.00411 4.52164 7.89832 4.70994 7.71002L5.99994 6.41002V15C5.99994 15.7957 6.31601 16.5587 6.87862 17.1213C7.44123 17.6839 8.20429 18 8.99994 18H17.5899L16.2899 19.29C16.1962 19.383 16.1218 19.4936 16.071 19.6154C16.0203 19.7373 15.9941 19.868 15.9941 20C15.9941 20.132 16.0203 20.2627 16.071 20.3846C16.1218 20.5065 16.1962 20.6171 16.2899 20.71C16.3829 20.8037 16.4935 20.8781 16.6154 20.9289C16.7372 20.9797 16.8679 21.0058 16.9999 21.0058C17.132 21.0058 17.2627 20.9797 17.3845 20.9289C17.5064 20.8781 17.617 20.8037 17.7099 20.71L20.7099 17.71C20.801 17.6149 20.8723 17.5028 20.9199 17.38C21.02 17.1366 21.02 16.8635 20.9199 16.62Z" fill="black"/>
</svg>
