<svg width="24" height="24" viewBox="0 0 24 24" fill="none" xmlns="http://www.w3.org/2000/svg">
<path d="M11.2899 9.70994C11.3829 9.80367 11.4935 9.87806 11.6154 9.92883C11.7372 9.9796 11.8679 10.0057 11.9999 10.0057C12.132 10.0057 12.2627 9.9796 12.3845 9.92883C12.5064 9.87806 12.617 9.80367 12.7099 9.70994L17.7099 4.70994C17.8982 4.52164 18.004 4.26624 18.004 3.99994C18.004 3.73364 17.8982 3.47825 17.7099 3.28994C17.5216 3.10164 17.2662 2.99585 16.9999 2.99585C16.7336 2.99585 16.4782 3.10164 16.2899 3.28994L11.9999 7.58994L7.70994 3.28994C7.52164 3.10164 7.26624 2.99585 6.99994 2.99585C6.73364 2.99585 6.47825 3.10164 6.28994 3.28994C6.10164 3.47825 5.99585 3.73364 5.99585 3.99994C5.99585 4.26624 6.10164 4.52164 6.28994 4.70994L11.2899 9.70994ZM12.7099 14.2899C12.617 14.1962 12.5064 14.1218 12.3845 14.0711C12.2627 14.0203 12.132 13.9941 11.9999 13.9941C11.8679 13.9941 11.7372 14.0203 11.6154 14.0711C11.4935 14.1218 11.3829 14.1962 11.2899 14.2899L6.28994 19.2899C6.10164 19.4782 5.99585 19.7336 5.99585 19.9999C5.99585 20.2662 6.10164 20.5216 6.28994 20.7099C6.47825 20.8982 6.73364 21.004 6.99994 21.004C7.26624 21.004 7.52164 20.8982 7.70994 20.7099L11.9999 16.4099L16.2899 20.7099C16.3829 20.8037 16.4935 20.8781 16.6154 20.9288C16.7372 20.9796 16.8679 21.0057 16.9999 21.0057C17.132 21.0057 17.2627 20.9796 17.3845 20.9288C17.5064 20.8781 17.617 20.8037 17.7099 20.7099C17.8037 20.617 17.8781 20.5064 17.9288 20.3845C17.9796 20.2627 18.0057 20.132 18.0057 19.9999C18.0057 19.8679 17.9796 19.7372 17.9288 19.6154C17.8781 19.4935 17.8037 19.3829 17.7099 19.2899L12.7099 14.2899Z" fill="black"/>
</svg>
