<svg width="24" height="24" viewBox="0 0 24 24" fill="none" xmlns="http://www.w3.org/2000/svg">
<path d="M16.2899 14.2899L11.9999 18.5899L7.70994 14.2899C7.52164 14.1016 7.26624 13.9958 6.99994 13.9958C6.73364 13.9958 6.47825 14.1016 6.28994 14.2899C6.10164 14.4782 5.99585 14.7336 5.99585 14.9999C5.99585 15.2662 6.10164 15.5216 6.28994 15.7099L11.2899 20.7099C11.3829 20.8037 11.4935 20.8781 11.6154 20.9288C11.7372 20.9796 11.8679 21.0057 11.9999 21.0057C12.132 21.0057 12.2627 20.9796 12.3845 20.9288C12.5064 20.8781 12.617 20.8037 12.7099 20.7099L17.7099 15.7099C17.8032 15.6167 17.8771 15.506 17.9276 15.3842C17.9781 15.2624 18.004 15.1318 18.004 14.9999C18.004 14.8681 17.9781 14.7375 17.9276 14.6157C17.8771 14.4939 17.8032 14.3832 17.7099 14.2899C17.6167 14.1967 17.506 14.1227 17.3842 14.0723C17.2624 14.0218 17.1318 13.9958 16.9999 13.9958C16.8681 13.9958 16.7375 14.0218 16.6157 14.0723C16.4939 14.1227 16.3832 14.1967 16.2899 14.2899ZM7.70994 9.70994L11.9999 5.40994L16.2899 9.70994C16.3829 9.80367 16.4935 9.87806 16.6154 9.92883C16.7372 9.9796 16.8679 10.0057 16.9999 10.0057C17.132 10.0057 17.2627 9.9796 17.3845 9.92883C17.5064 9.87806 17.617 9.80367 17.7099 9.70994C17.8037 9.61698 17.8781 9.50637 17.9288 9.38452C17.9796 9.26266 18.0057 9.13195 18.0057 8.99994C18.0057 8.86793 17.9796 8.73722 17.9288 8.61536C17.8781 8.4935 17.8037 8.3829 17.7099 8.28994L12.7099 3.28994C12.617 3.19621 12.5064 3.12182 12.3845 3.07105C12.2627 3.02028 12.132 2.99414 11.9999 2.99414C11.8679 2.99414 11.7372 3.02028 11.6154 3.07105C11.4935 3.12182 11.3829 3.19621 11.2899 3.28994L6.28994 8.28994C6.10164 8.47824 5.99585 8.73364 5.99585 8.99994C5.99585 9.26624 6.10164 9.52164 6.28994 9.70994C6.47825 9.89824 6.73364 10.004 6.99994 10.004C7.26624 10.004 7.52164 9.89824 7.70994 9.70994Z" fill="black"/>
</svg>
