<svg width="24" height="24" viewBox="0 0 24 24" fill="none" xmlns="http://www.w3.org/2000/svg">
<path d="M4.70994 6.28994C4.52164 6.10164 4.26624 5.99585 3.99994 5.99585C3.73364 5.99585 3.47824 6.10164 3.28994 6.28994C3.10164 6.47825 2.99585 6.73364 2.99585 6.99994C2.99585 7.26624 3.10164 7.52164 3.28994 7.70994L7.58994 11.9999L3.28994 16.2899C3.19621 16.3829 3.12182 16.4935 3.07105 16.6154C3.02028 16.7372 2.99414 16.8679 2.99414 16.9999C2.99414 17.132 3.02028 17.2627 3.07105 17.3845C3.12182 17.5064 3.19621 17.617 3.28994 17.7099C3.3829 17.8037 3.4935 17.8781 3.61536 17.9288C3.73722 17.9796 3.86793 18.0057 3.99994 18.0057C4.13195 18.0057 4.26266 17.9796 4.38452 17.9288C4.50638 17.8781 4.61698 17.8037 4.70994 17.7099L9.70994 12.7099C9.80367 12.617 9.87806 12.5064 9.92883 12.3845C9.9796 12.2627 10.0057 12.132 10.0057 11.9999C10.0057 11.8679 9.9796 11.7372 9.92883 11.6154C9.87806 11.4935 9.80367 11.3829 9.70994 11.2899L4.70994 6.28994ZM16.4099 11.9999L20.7099 7.70994C20.8982 7.52164 21.004 7.26624 21.004 6.99994C21.004 6.73364 20.8982 6.47825 20.7099 6.28994C20.5216 6.10164 20.2662 5.99585 19.9999 5.99585C19.7336 5.99585 19.4782 6.10164 19.2899 6.28994L14.2899 11.2899C14.1962 11.3829 14.1218 11.4935 14.071 11.6154C14.0203 11.7372 13.9941 11.8679 13.9941 11.9999C13.9941 12.132 14.0203 12.2627 14.071 12.3845C14.1218 12.5064 14.1962 12.617 14.2899 12.7099L19.2899 17.7099C19.3829 17.8037 19.4935 17.8781 19.6154 17.9288C19.7372 17.9796 19.8679 18.0057 19.9999 18.0057C20.132 18.0057 20.2627 17.9796 20.3845 17.9288C20.5064 17.8781 20.617 17.8037 20.7099 17.7099C20.8037 17.617 20.8781 17.5064 20.9288 17.3845C20.9796 17.2627 21.0057 17.132 21.0057 16.9999C21.0057 16.8679 20.9796 16.7372 20.9288 16.6154C20.8781 16.4935 20.8037 16.3829 20.7099 16.2899L16.4099 11.9999Z" fill="black"/>
</svg>
