<svg width="24" height="24" viewBox="0 0 24 24" fill="none" xmlns="http://www.w3.org/2000/svg">
<path d="M21.71 16.2899C21.6171 16.1962 21.5065 16.1218 21.3846 16.071C21.2627 16.0203 21.132 15.9941 21 15.9941C20.868 15.9941 20.7373 16.0203 20.6154 16.071C20.4936 16.1218 20.383 16.1962 20.29 16.2899L18 18.5899V8.99994C18 8.20429 17.6839 7.44123 17.1213 6.87862C16.5587 6.31601 15.7957 5.99994 15 5.99994H5.41002L7.71002 3.70994C7.80326 3.6167 7.87722 3.50601 7.92768 3.38419C7.97814 3.26237 8.00411 3.1318 8.00411 2.99994C8.00411 2.86808 7.97814 2.73751 7.92768 2.61569C7.87722 2.49387 7.80326 2.38318 7.71002 2.28994C7.61678 2.1967 7.50609 2.12274 7.38427 2.07228C7.26245 2.02182 7.13188 1.99585 7.00002 1.99585C6.86816 1.99585 6.73759 2.02182 6.61577 2.07228C6.49395 2.12274 6.38326 2.1967 6.29002 2.28994L2.29002 6.28994C2.19898 6.38505 2.12761 6.49719 2.08002 6.61994C1.98 6.8634 1.98 7.13648 2.08002 7.37994C2.12761 7.50269 2.19898 7.61484 2.29002 7.70994L6.29002 11.7099C6.38298 11.8037 6.49358 11.8781 6.61544 11.9288C6.7373 11.9796 6.86801 12.0057 7.00002 12.0057C7.13203 12.0057 7.26274 11.9796 7.3846 11.9288C7.50645 11.8781 7.61706 11.8037 7.71002 11.7099C7.80375 11.617 7.87814 11.5064 7.92891 11.3845C7.97968 11.2627 8.00582 11.132 8.00582 10.9999C8.00582 10.8679 7.97968 10.7372 7.92891 10.6154C7.87814 10.4935 7.80375 10.3829 7.71002 10.2899L5.41002 7.99994H15C15.2652 7.99994 15.5196 8.1053 15.7071 8.29283C15.8947 8.48037 16 8.73472 16 8.99994V18.5899L13.71 16.2899C13.6168 16.1967 13.5061 16.1227 13.3843 16.0723C13.2624 16.0218 13.1319 15.9958 13 15.9958C12.8682 15.9958 12.7376 16.0218 12.6158 16.0723C12.4939 16.1227 12.3833 16.1967 12.29 16.2899C12.1968 16.3832 12.1228 16.4939 12.0724 16.6157C12.0219 16.7375 11.9959 16.8681 11.9959 16.9999C11.9959 17.1318 12.0219 17.2624 12.0724 17.3842C12.1228 17.506 12.1968 17.6167 12.29 17.7099L16.29 21.7099C16.3851 21.801 16.4973 21.8723 16.62 21.9199C16.7397 21.9728 16.8691 22.0002 17 22.0002C17.1309 22.0002 17.2603 21.9728 17.38 21.9199C17.5028 21.8723 17.6149 21.801 17.71 21.7099L21.71 17.7099C21.8037 17.617 21.8781 17.5064 21.9289 17.3845C21.9797 17.2627 22.0058 17.132 22.0058 16.9999C22.0058 16.8679 21.9797 16.7372 21.9289 16.6154C21.8781 16.4935 21.8037 16.3829 21.71 16.2899Z" fill="black"/>
</svg>
