<svg width="24" height="24" viewBox="0 0 24 24" fill="none" xmlns="http://www.w3.org/2000/svg">
<path d="M17.87 8.59998C17.7955 8.42869 17.6745 8.2817 17.5208 8.17566C17.367 8.06961 17.1866 8.00875 17 7.99998H12.42L13.69 3.25998C13.7305 3.11165 13.7362 2.956 13.7067 2.80511C13.6772 2.65422 13.6133 2.51217 13.52 2.38998C13.4258 2.26762 13.3046 2.16873 13.1658 2.10107C13.027 2.03341 12.8744 1.99881 12.72 1.99998H5.72001C5.49425 1.99224 5.27252 2.06118 5.09094 2.19555C4.90935 2.32992 4.77862 2.52181 4.72001 2.73998L2.04002 12.74C1.99924 12.891 1.99448 13.0495 2.02612 13.2028C2.05776 13.356 2.12491 13.4997 2.22217 13.6222C2.31944 13.7448 2.44411 13.8428 2.58615 13.9084C2.72819 13.974 2.88365 14.0054 3.04002 14H6.89002L5.08001 20.74C5.02071 20.9573 5.03653 21.1883 5.12492 21.3955C5.2133 21.6028 5.36907 21.7741 5.56697 21.8817C5.76488 21.9893 5.99334 22.027 6.21532 21.9886C6.4373 21.9501 6.6398 21.8379 6.79002 21.67L17.69 9.66998C17.8198 9.52786 17.9058 9.35131 17.9378 9.16151C17.9697 8.97171 17.9462 8.77674 17.87 8.59998ZM8.08002 17.28L9.16002 13.28C9.20513 13.1295 9.21416 12.9705 9.18636 12.8159C9.15856 12.6612 9.09472 12.5153 9.00002 12.39C8.90481 12.2663 8.78197 12.1665 8.64131 12.0988C8.50066 12.0311 8.3461 11.9972 8.19001 12H4.35001L6.49002 3.99998H11.42L10.15 8.73998C10.1092 8.89103 10.1045 9.04955 10.1361 9.20278C10.1678 9.35601 10.2349 9.49968 10.3322 9.62223C10.4294 9.74479 10.5541 9.84281 10.6961 9.90841C10.8382 9.97402 10.9936 10.0054 11.15 9.99998H14.72L8.08002 17.28ZM19 13H18C17.2044 13 16.4413 13.316 15.8787 13.8787C15.3161 14.4413 15 15.2043 15 16V21C15 21.2652 15.1054 21.5195 15.2929 21.7071C15.4804 21.8946 15.7348 22 16 22C16.2652 22 16.5196 21.8946 16.7071 21.7071C16.8947 21.5195 17 21.2652 17 21V19H20V21C20 21.2652 20.1054 21.5195 20.2929 21.7071C20.4804 21.8946 20.7348 22 21 22C21.2652 22 21.5196 21.8946 21.7071 21.7071C21.8947 21.5195 22 21.2652 22 21V16C22 15.2043 21.6839 14.4413 21.1213 13.8787C20.5587 13.316 19.7957 13 19 13ZM20 17H17V16C17 15.7348 17.1054 15.4804 17.2929 15.2929C17.4804 15.1053 17.7348 15 18 15H19C19.2652 15 19.5196 15.1053 19.7071 15.2929C19.8947 15.4804 20 15.7348 20 16V17Z" fill="black"/>
</svg>
