<svg width="24" height="24" viewBox="0 0 24 24" fill="none" xmlns="http://www.w3.org/2000/svg">
<path d="M19.88 15.5H15.38C15.1148 15.5 14.8604 15.6054 14.6729 15.7929C14.4854 15.9805 14.38 16.2348 14.38 16.5C14.38 16.7652 14.4854 17.0196 14.6729 17.2071C14.8604 17.3947 15.1148 17.5 15.38 17.5H17.78C17.0358 18.2861 16.1399 18.913 15.1464 19.3427C14.1528 19.7724 13.0825 19.996 12 20C10.9285 19.999 9.86795 19.7848 8.88001 19.37L7.39001 20.86C8.81042 21.6111 10.3933 22.0025 12 22C14.5636 21.9927 17.0265 21.0011 18.88 19.23V21C18.88 21.2652 18.9854 21.5196 19.1729 21.7071C19.3604 21.8947 19.6148 22 19.88 22C20.1452 22 20.3996 21.8947 20.5871 21.7071C20.7747 21.5196 20.88 21.2652 20.88 21V16.5C20.88 16.2348 20.7747 15.9805 20.5871 15.7929C20.3996 15.6054 20.1452 15.5 19.88 15.5ZM18.31 7.10002L19.74 5.67002L21.74 3.67002C21.8333 3.57679 21.9072 3.4661 21.9577 3.34427C22.0081 3.22245 22.0341 3.09188 22.0341 2.96002C22.0341 2.82817 22.0081 2.6976 21.9577 2.57578C21.9072 2.45395 21.8333 2.34326 21.74 2.25002C21.6468 2.15679 21.5361 2.08282 21.4143 2.03236C21.2924 1.9819 21.1619 1.95593 21.03 1.95593C20.8982 1.95593 20.7676 1.9819 20.6458 2.03236C20.5239 2.08282 20.4132 2.15679 20.32 2.25002L18.32 4.25002C16.5398 2.78661 14.3045 1.9908 12 2.00002C9.4364 2.00734 6.9735 2.99894 5.12001 4.77002V3.00002C5.12001 2.73481 5.01465 2.48045 4.82712 2.29292C4.63958 2.10538 4.38523 2.00002 4.12001 2.00002C3.85479 2.00002 3.60044 2.10538 3.4129 2.29292C3.22537 2.48045 3.12001 2.73481 3.12001 3.00002V7.50002C3.12001 7.76524 3.22537 8.01959 3.4129 8.20713C3.60044 8.39467 3.85479 8.50002 4.12001 8.50002H8.62001C8.88523 8.50002 9.13958 8.39467 9.32712 8.20713C9.51465 8.01959 9.62001 7.76524 9.62001 7.50002C9.62001 7.23481 9.51465 6.98045 9.32712 6.79292C9.13958 6.60538 8.88523 6.50002 8.62001 6.50002H6.22001C7.57627 5.05718 9.42327 4.17397 11.3978 4.02407C13.3723 3.87418 15.3315 4.46845 16.89 5.69002L5.69001 16.89C4.59583 15.4948 4.00082 13.7731 4.00001 12C4.00001 11.7348 3.89465 11.4805 3.70712 11.2929C3.51958 11.1054 3.26523 11 3.00001 11C2.73479 11 2.48044 11.1054 2.2929 11.2929C2.10537 11.4805 2.00001 11.7348 2.00001 12C1.99642 14.307 2.7994 16.5426 4.27001 18.32L2.27001 20.32C2.17628 20.413 2.10189 20.5236 2.05112 20.6454C2.00035 20.7673 1.97421 20.898 1.97421 21.03C1.97421 21.162 2.00035 21.2927 2.05112 21.4146C2.10189 21.5365 2.17628 21.6471 2.27001 21.74C2.36297 21.8338 2.47358 21.9081 2.59543 21.9589C2.71729 22.0097 2.848 22.0358 2.98001 22.0358C3.11202 22.0358 3.24273 22.0097 3.36459 21.9589C3.48645 21.9081 3.59705 21.8338 3.69001 21.74L5.69001 19.74L7.12001 18.31L18.31 7.10002ZM19.37 8.88002C19.7848 9.86797 19.999 10.9285 20 12C20 12.2652 20.1054 12.5196 20.2929 12.7071C20.4804 12.8947 20.7348 13 21 13C21.2652 13 21.5196 12.8947 21.7071 12.7071C21.8947 12.5196 22 12.2652 22 12C22.0025 10.3933 21.6111 8.81043 20.86 7.39002L19.37 8.88002Z" fill="black"/>
</svg>
