<svg width="24" height="24" viewBox="0 0 24 24" fill="none" xmlns="http://www.w3.org/2000/svg">
<path d="M17.48 6.55L14.64 3.71C14.547 3.61627 14.4364 3.54188 14.3146 3.49111C14.1927 3.44034 14.062 3.4142 13.93 3.4142C13.798 3.4142 13.6673 3.44034 13.5454 3.49111C13.4236 3.54188 13.313 3.61627 13.22 3.71C13.0338 3.89736 12.9292 4.15082 12.9292 4.415C12.9292 4.67919 13.0338 4.93264 13.22 5.12L15.34 7.24L7.24 15.34L5.12 13.22C4.93264 13.0338 4.67919 12.9292 4.415 12.9292C4.15082 12.9292 3.89736 13.0338 3.71 13.22C3.61627 13.313 3.54188 13.4236 3.49111 13.5454C3.44034 13.6673 3.4142 13.798 3.4142 13.93C3.4142 14.062 3.44034 14.1927 3.49111 14.3146C3.54188 14.4364 3.61627 14.547 3.71 14.64L6.52 17.45L9.33 20.26C9.42262 20.3545 9.53306 20.4297 9.65494 20.4812C9.77681 20.5327 9.90769 20.5595 10.04 20.56C10.2386 20.5612 10.4331 20.5031 10.5986 20.3933C10.7641 20.2835 10.8932 20.1269 10.9694 19.9435C11.0455 19.76 11.0654 19.5581 11.0263 19.3633C10.9872 19.1686 10.891 18.9899 10.75 18.85L8.66 16.76L16.76 8.66L18.88 10.78C18.9732 10.8726 19.0838 10.9459 19.2054 10.9957C19.3269 11.0456 19.4571 11.071 19.5885 11.0706C19.7199 11.0701 19.8499 11.0438 19.9712 10.993C20.0924 10.9423 20.2024 10.8682 20.295 10.775C20.3876 10.6818 20.4609 10.5712 20.5107 10.4496C20.5606 10.3281 20.586 10.1979 20.5856 10.0665C20.5851 9.93507 20.5588 9.80505 20.508 9.68384C20.4573 9.56262 20.3832 9.45258 20.29 9.36L17.48 6.55ZM3.71 17.46C3.5217 17.2717 3.2663 17.1659 3 17.1659C2.7337 17.1659 2.47831 17.2717 2.29 17.46C2.1017 17.6483 1.99591 17.9037 1.99591 18.17C1.99591 18.4363 2.1017 18.6917 2.29 18.88L5.12 21.71C5.21344 21.8027 5.32426 21.876 5.4461 21.9258C5.56793 21.9755 5.6984 22.0008 5.83 22C5.96161 22.0008 6.09207 21.9755 6.21391 21.9258C6.33575 21.876 6.44656 21.8027 6.54 21.71C6.63373 21.617 6.70813 21.5064 6.75889 21.3846C6.80966 21.2627 6.8358 21.132 6.8358 21C6.8358 20.868 6.80966 20.7373 6.75889 20.6154C6.70813 20.4936 6.63373 20.383 6.54 20.29L3.71 17.46ZM21.71 5.12L18.88 2.29C18.7868 2.19676 18.6761 2.1228 18.5543 2.07234C18.4324 2.02188 18.3019 1.99591 18.17 1.99591C18.0381 1.99591 17.9076 2.02188 17.7858 2.07234C17.6639 2.1228 17.5532 2.19676 17.46 2.29C17.3668 2.38324 17.2928 2.49393 17.2423 2.61575C17.1919 2.73758 17.1659 2.86814 17.1659 3C17.1659 3.13186 17.1919 3.26243 17.2423 3.38425C17.2928 3.50607 17.3668 3.61676 17.46 3.71L20.29 6.54C20.383 6.63373 20.4936 6.70813 20.6154 6.75889C20.7373 6.80966 20.868 6.8358 21 6.8358C21.132 6.8358 21.2627 6.80966 21.3846 6.75889C21.5064 6.70813 21.617 6.63373 21.71 6.54C21.8037 6.44704 21.8781 6.33644 21.9289 6.21458C21.9797 6.09272 22.0058 5.96201 22.0058 5.83C22.0058 5.69799 21.9797 5.56729 21.9289 5.44543C21.8781 5.32357 21.8037 5.21297 21.71 5.12Z" fill="black"/>
</svg>
