<svg width="24" height="24" viewBox="0 0 24 24" fill="none" xmlns="http://www.w3.org/2000/svg">
<path d="M13.9219 6.44043C13.7825 6.21528 13.5594 6.05462 13.3017 5.99368C13.044 5.93274 12.7727 5.9765 12.5472 6.11536C12.3217 6.25422 12.1605 6.47685 12.0989 6.73441C12.0373 6.99197 12.0804 7.26343 12.2187 7.48926C12.3955 7.77539 12.584 8.05664 12.7842 8.33301C12.9401 8.54693 13.1746 8.69027 13.4361 8.7316C13.6975 8.77293 13.9647 8.70888 14.1791 8.5535C14.3934 8.39811 14.5374 8.16407 14.5794 7.90269C14.6215 7.64131 14.5581 7.37393 14.4033 7.15918C14.2324 6.92383 14.072 6.68425 13.9219 6.44043ZM11.1924 15.6621C11.1144 15.5564 11.0164 15.4672 10.9039 15.3994C10.7914 15.3316 10.6667 15.2866 10.5368 15.267C10.407 15.2474 10.2745 15.2536 10.1471 15.2852C10.0196 15.3168 9.89961 15.3732 9.79393 15.4512C9.68826 15.5291 9.59898 15.6272 9.53119 15.7396C9.4634 15.8521 9.41842 15.9768 9.39884 16.1067C9.37925 16.2366 9.38543 16.369 9.41703 16.4965C9.44863 16.6239 9.50502 16.7439 9.58299 16.8496C9.75291 17.0791 9.91014 17.3164 10.0586 17.5586C10.1273 17.6706 10.2174 17.7679 10.3238 17.845C10.4301 17.9221 10.5506 17.9776 10.6784 18.0081C10.8062 18.0387 10.9387 18.0438 11.0684 18.0231C11.1982 18.0025 11.3226 17.9565 11.4345 17.8877C11.5465 17.819 11.6438 17.7289 11.721 17.6225C11.7981 17.5162 11.8535 17.3957 11.8841 17.2679C11.9146 17.1401 11.9197 17.0076 11.8991 16.8778C11.8784 16.7481 11.8324 16.6237 11.7637 16.5117C11.5859 16.2227 11.3955 15.9385 11.1924 15.6621ZM7.48537 12.2334C7.37342 12.1648 7.24904 12.1189 7.11935 12.0984C6.98966 12.0778 6.85719 12.083 6.72951 12.1137C6.60183 12.1443 6.48144 12.1998 6.37521 12.277C6.26897 12.3542 6.17898 12.4515 6.11037 12.5635C6.04176 12.6754 5.99588 12.7998 5.97533 12.9295C5.95479 13.0592 5.95999 13.1917 5.99064 13.3193C6.02129 13.447 6.07679 13.5674 6.15397 13.6736C6.23115 13.7799 6.3285 13.8699 6.44045 13.9385C6.68265 14.0869 6.92028 14.2464 7.15334 14.417C7.2595 14.4948 7.37997 14.5509 7.50785 14.5821C7.63573 14.6133 7.76851 14.6189 7.89857 14.5986C8.02862 14.5784 8.15341 14.5327 8.26577 14.4641C8.37813 14.3956 8.47585 14.3055 8.55333 14.1991C8.63082 14.0927 8.68654 13.9721 8.71731 13.8441C8.74808 13.7161 8.75329 13.5833 8.73264 13.4533C8.71199 13.3233 8.66588 13.1987 8.59697 13.0865C8.52806 12.9744 8.43769 12.877 8.33104 12.7998C8.05468 12.5986 7.77278 12.4098 7.48534 12.2334H7.48537ZM17.5459 10.0664C17.3028 9.91698 17.0641 9.75715 16.8301 9.5869C16.6156 9.43152 16.3482 9.36755 16.0867 9.40901C15.8251 9.45048 15.5906 9.59401 15.4347 9.80811C15.2787 10.0222 15.2141 10.2894 15.2549 10.5511C15.2957 10.8128 15.4387 11.0476 15.6524 11.2041C15.9287 11.4053 16.211 11.5944 16.499 11.7715C16.611 11.8402 16.7354 11.8862 16.8651 11.9069C16.9949 11.9275 17.1274 11.9225 17.2552 11.8919C17.383 11.8613 17.5035 11.8059 17.6098 11.7288C17.7162 11.6517 17.8063 11.5543 17.875 11.4424C17.9438 11.3304 17.9898 11.206 18.0104 11.0763C18.0311 10.9465 18.026 10.814 17.9954 10.6862C17.9649 10.5585 17.9095 10.438 17.8323 10.3316C17.7552 10.2253 17.6579 10.1351 17.5459 10.0664ZM18.9922 5.001C17.6076 3.6162 15.8434 2.6731 13.9228 2.29096C12.0022 1.90883 10.0114 2.10482 8.20213 2.85415C6.39291 3.60349 4.84652 4.87251 3.75854 6.50073C2.67055 8.12895 2.08984 10.0432 2.08984 12.0015C2.08984 13.9598 2.67055 15.8741 3.75854 17.5023C4.84652 19.1305 6.39291 20.3995 8.20213 21.1489C10.0114 21.8982 12.0022 22.0942 13.9228 21.712C15.8434 21.3299 17.6076 20.3868 18.9922 19.002C20.8458 17.1437 21.8867 14.6262 21.8867 12.0015C21.8867 9.37682 20.8458 6.85927 18.9922 5.001ZM17.7187 17.7285C16.4976 18.9529 14.9139 19.7504 13.2031 20.0023C13.1169 19.8415 12.9871 19.7082 12.8286 19.6178C12.6701 19.5274 12.4893 19.4835 12.307 19.4912C12.1247 19.4988 11.9482 19.5577 11.7978 19.661C11.6475 19.7644 11.5293 19.908 11.4568 20.0755C9.49965 19.9514 7.65488 19.1181 6.26788 17.7318C4.88088 16.3454 4.04679 14.501 3.92178 12.544C4.08812 12.4703 4.23053 12.3515 4.33292 12.2012C4.4353 12.0508 4.49358 11.8748 4.50115 11.693C4.50873 11.5112 4.4653 11.331 4.37579 11.1726C4.28627 11.0142 4.15423 10.8841 3.9946 10.7968C4.24459 9.08557 5.03973 7.50056 6.26197 6.27707C7.48422 5.05357 9.06841 4.25681 10.7794 4.00507C10.8663 4.1555 10.9911 4.28058 11.1413 4.36791C11.2915 4.45524 11.462 4.50179 11.6357 4.50293C11.713 4.50279 11.7899 4.49394 11.8652 4.47656C12.0091 4.44122 12.1432 4.37376 12.2574 4.27923C12.3715 4.1847 12.4628 4.06556 12.5243 3.93073C14.4836 4.05287 16.3308 4.88636 17.7189 6.27456C19.1069 7.66277 19.9402 9.51011 20.062 11.4694C19.8965 11.5429 19.7548 11.6612 19.6529 11.811C19.5509 11.9607 19.4929 12.136 19.4852 12.3169C19.4775 12.4979 19.5205 12.6774 19.6094 12.8353C19.6983 12.9931 19.8295 13.123 19.9882 13.2103C19.7369 14.9211 18.9411 16.5054 17.7187 17.7285Z" fill="black"/>
</svg>
