<svg width="24" height="24" viewBox="0 0 24 24" fill="none" xmlns="http://www.w3.org/2000/svg">
<path d="M22.1084 15.0316C21.9811 14.9989 21.8486 14.9916 21.7185 15.0103C21.5884 15.0289 21.4632 15.0731 21.3503 15.1402C21.2373 15.2074 21.1387 15.2962 21.0601 15.4016C20.9816 15.507 20.9247 15.6268 20.8926 15.7543C20.7095 16.4606 20.2751 17.076 19.6709 17.485C19.0666 17.8941 18.3339 18.0687 17.6101 17.9762C16.8863 17.8838 16.221 17.5305 15.739 16.9827C15.257 16.4349 14.9913 15.7301 14.9917 15.0004V14.0004H21.9917C22.123 14.0004 22.2531 13.9746 22.3744 13.9243C22.4958 13.8741 22.606 13.8004 22.6989 13.7076C22.7917 13.6147 22.8654 13.5045 22.9156 13.3831C22.9659 13.2618 22.9917 13.1317 22.9917 13.0004C22.9917 12.3438 22.8624 11.6936 22.6111 11.087C22.3598 10.4803 21.9915 9.92915 21.5272 9.46485C21.0629 9.00056 20.5117 8.63227 19.9051 8.38099C19.2985 8.12972 18.6483 8.00039 17.9917 8.00039C17.3351 8.00039 16.6849 8.12972 16.0783 8.38099C15.4717 8.63227 14.9205 9.00056 14.4562 9.46485C13.9919 9.92915 13.6236 10.4803 13.3723 11.087C13.121 11.6936 12.9917 12.3438 12.9917 13.0004V15.0004C12.9913 16.2176 13.435 17.3931 14.2397 18.3063C15.0443 19.2196 16.1545 19.8079 17.3621 19.9608C18.5696 20.1137 19.7914 19.8208 20.7983 19.1369C21.8052 18.4531 22.528 17.4253 22.8311 16.2465C22.8634 16.1193 22.8704 15.9869 22.8516 15.857C22.8328 15.7271 22.7886 15.6021 22.7215 15.4893C22.6544 15.3765 22.5657 15.278 22.4605 15.1994C22.3553 15.1209 22.2357 15.0639 22.1084 15.0316ZM17.9917 10.0004C18.7851 10.0007 19.5463 10.3141 20.1099 10.8725C20.4228 11.1925 20.6614 11.5776 20.8085 12.0004H15.176C15.3814 11.4171 15.7624 10.9118 16.2665 10.5537C16.7707 10.1956 17.3733 10.0023 17.9917 10.0004ZM15.9917 7.00039H19.9917C20.2569 7.00039 20.5113 6.89503 20.6988 6.7075C20.8863 6.51996 20.9917 6.26561 20.9917 6.00039C20.9917 5.73517 20.8863 5.48082 20.6988 5.29328C20.5113 5.10575 20.2569 5.00039 19.9917 5.00039H15.9917C15.7265 5.00039 15.4721 5.10575 15.2846 5.29328C15.0971 5.48082 14.9917 5.73517 14.9917 6.00039C14.9917 6.26561 15.0971 6.51996 15.2846 6.7075C15.4721 6.89503 15.7265 7.00039 15.9917 7.00039ZM9.9097 11.7175C10.4434 11.1499 10.799 10.4383 10.9327 9.67067C11.0663 8.90307 10.9721 8.11314 10.6617 7.39851C10.3512 6.68388 9.83816 6.07589 9.18592 5.64968C8.53368 5.22348 7.77084 4.99775 6.9917 5.00039H1.9917C1.86037 5.00035 1.73032 5.02619 1.60897 5.07644C1.48763 5.12668 1.37738 5.20034 1.28451 5.2932C1.19165 5.38607 1.11799 5.49632 1.06775 5.61766C1.01751 5.73901 0.991664 5.86906 0.991699 6.00039V19.0004C0.991665 19.1317 1.01751 19.2618 1.06775 19.3831C1.11799 19.5045 1.19165 19.6147 1.28452 19.7076C1.37738 19.8004 1.48763 19.8741 1.60898 19.9243C1.73032 19.9746 1.86037 20.0004 1.9917 20.0004H7.4917C8.46484 20.0021 9.41222 19.6878 10.1913 19.1048C10.9704 18.5217 11.5391 17.7013 11.8118 16.7672C12.0845 15.8331 12.0465 14.8356 11.7035 13.9249C11.3604 13.0143 10.7309 12.2396 9.9097 11.7175ZM2.9917 7.00039H6.9917C7.52213 7.00039 8.03084 7.2111 8.40591 7.58618C8.78099 7.96125 8.9917 8.46996 8.9917 9.00039C8.9917 9.53082 8.78099 10.0395 8.40591 10.4146C8.03084 10.7897 7.52213 11.0004 6.9917 11.0004H2.9917V7.00039ZM7.4917 18.0004H2.9917V13.0004H7.4917C8.15474 13.0004 8.79063 13.2638 9.25947 13.7326C9.72831 14.2015 9.9917 14.8373 9.9917 15.5004C9.9917 16.1634 9.72831 16.7993 9.25947 17.2682C8.79063 17.737 8.15474 18.0004 7.4917 18.0004Z" fill="black"/>
</svg>
