<svg width="24" height="24" viewBox="0 0 24 24" fill="none" xmlns="http://www.w3.org/2000/svg">
<path d="M21 7.99999C20.9965 7.61675 20.8829 7.24259 20.6728 6.92204C20.4628 6.60149 20.165 6.34805 19.815 6.19188C19.465 6.03572 19.0775 5.9834 18.6987 6.04115C18.3198 6.09891 17.9655 6.26431 17.6779 6.51767C17.3904 6.77103 17.1816 7.10168 17.0766 7.47026C16.9716 7.83885 16.9747 8.22985 17.0855 8.59672C17.1964 8.9636 17.4103 9.2909 17.7018 9.53968C17.9934 9.78846 18.3502 9.94824 18.73 9.99999C18.9401 10.58 19.0284 11.197 18.9895 11.8127C18.9506 12.4283 18.7852 13.0293 18.5037 13.5782C18.2223 14.1271 17.8307 14.6121 17.3535 15.003C16.8762 15.3938 16.3236 15.6822 15.73 15.85C15.4663 15.243 15.0092 14.7402 14.43 14.42C15.2588 13.3917 15.7798 12.1499 15.9329 10.838C16.0859 9.52618 15.8646 8.1978 15.2947 7.00636C14.7247 5.81492 13.8293 4.80902 12.7119 4.10489C11.5945 3.40075 10.3007 3.0271 8.97998 3.0271C7.65924 3.0271 6.36543 3.40075 5.24804 4.10489C4.13065 4.80902 3.23526 5.81492 2.66531 7.00636C2.09536 8.1978 1.87411 9.52618 2.02712 10.838C2.18012 12.1499 2.70114 13.3917 3.52998 14.42C3.07098 14.678 2.68796 15.0522 2.41939 15.505C2.15082 15.9579 2.00618 16.4735 1.99998 17V18C1.99998 18.7956 2.31606 19.5587 2.87866 20.1213C3.44127 20.6839 4.20433 21 4.99998 21H13C13.7956 21 14.5587 20.6839 15.1213 20.1213C15.6839 19.5587 16 18.7956 16 18V17.81C16.8976 17.6004 17.74 17.2014 18.4709 16.6398C19.2017 16.0782 19.8042 15.3669 20.2378 14.5535C20.6715 13.7402 20.9263 12.8436 20.9853 11.9237C21.0444 11.0039 20.9062 10.0821 20.58 9.21999C20.8509 8.87089 20.9986 8.44189 21 7.99999ZM14 18C14 18.2652 13.8946 18.5196 13.7071 18.7071C13.5196 18.8946 13.2652 19 13 19H4.99998C4.73477 19 4.48041 18.8946 4.29288 18.7071C4.10534 18.5196 3.99998 18.2652 3.99998 18V17C3.99998 16.7348 4.10534 16.4804 4.29288 16.2929C4.48041 16.1053 4.73477 16 4.99998 16H5.40998C6.49303 16.6546 7.73446 17.0007 8.99998 17.0007C10.2655 17.0007 11.5069 16.6546 12.59 16H13C13.2652 16 13.5196 16.1053 13.7071 16.2929C13.8946 16.4804 14 16.7348 14 17V18ZM8.99998 15C8.01108 15 7.04438 14.7067 6.22213 14.1573C5.39989 13.6079 4.75903 12.827 4.38059 11.9134C4.00215 10.9998 3.90313 9.99444 4.09606 9.02454C4.28898 8.05464 4.76519 7.16372 5.46445 6.46446C6.16371 5.7652 7.05463 5.28899 8.02453 5.09607C8.99444 4.90314 9.99977 5.00216 10.9134 5.38059C11.827 5.75903 12.6079 6.39989 13.1573 7.22214C13.7067 8.04439 14 9.01109 14 9.99999C14 10.6566 13.8707 11.3068 13.6194 11.9134C13.3681 12.52 12.9998 13.0712 12.5355 13.5355C12.0712 13.9998 11.52 14.3681 10.9134 14.6194C10.3068 14.8707 9.65659 15 8.99998 15ZM8.99998 8.99999C8.8022 8.99999 8.60886 9.05864 8.44441 9.16852C8.27996 9.2784 8.15179 9.43458 8.07611 9.61731C8.00042 9.80003 7.98061 10.0011 8.0192 10.1951C8.05778 10.3891 8.15303 10.5672 8.29288 10.7071C8.43273 10.847 8.61091 10.9422 8.80489 10.9808C8.99888 11.0194 9.19994 10.9996 9.38267 10.9239C9.56539 10.8482 9.72157 10.72 9.83145 10.5556C9.94134 10.3911 9.99998 10.1978 9.99998 9.99999C9.99998 9.73478 9.89463 9.48042 9.70709 9.29288C9.51956 9.10535 9.2652 8.99999 8.99998 8.99999Z" fill="black"/>
</svg>
