<svg width="24" height="24" viewBox="0 0 24 24" fill="none" xmlns="http://www.w3.org/2000/svg">
<path d="M16.3043 11.2411C16.7114 10.6398 16.9471 9.93887 16.9859 9.21369C17.0248 8.48852 16.8654 7.76645 16.5249 7.12504C16.1843 6.48362 15.6755 5.94708 15.053 5.57303C14.4305 5.19898 13.7179 5.00156 12.9917 5.00195V4.00195C12.9917 3.73674 12.8863 3.48238 12.6988 3.29485C12.5113 3.10731 12.2569 3.00195 11.9917 3.00195C11.7265 3.00195 11.4721 3.10731 11.2846 3.29485C11.0971 3.48238 10.9917 3.73674 10.9917 4.00195V5.00195H8.9917V4.00195C8.9917 3.73674 8.88634 3.48238 8.69881 3.29485C8.51127 3.10731 8.25692 3.00195 7.9917 3.00195C7.72648 3.00195 7.47213 3.10731 7.28459 3.29485C7.09706 3.48238 6.9917 3.73674 6.9917 4.00195V5.00195H5.9917C5.72648 5.00195 5.47213 5.10731 5.28459 5.29485C5.09706 5.48238 4.9917 5.73674 4.9917 6.00195C4.9917 6.26717 5.09706 6.52152 5.28459 6.70906C5.47213 6.8966 5.72648 7.00195 5.9917 7.00195H6.9917V17.002H5.9917C5.72648 17.002 5.47213 17.1073 5.28459 17.2948C5.09706 17.4824 4.9917 17.7367 4.9917 18.002C4.9917 18.2672 5.09706 18.5215 5.28459 18.7091C5.47213 18.8966 5.72648 19.002 5.9917 19.002H6.9917V20.002C6.9917 20.2672 7.09706 20.5215 7.28459 20.7091C7.47213 20.8966 7.72648 21.002 7.9917 21.002C8.25692 21.002 8.51127 20.8966 8.69881 20.7091C8.88634 20.5215 8.9917 20.2672 8.9917 20.002V19.002H10.9917V20.002C10.9917 20.2672 11.0971 20.5215 11.2846 20.7091C11.4721 20.8966 11.7265 21.002 11.9917 21.002C12.2569 21.002 12.5113 20.8966 12.6988 20.7091C12.8863 20.5215 12.9917 20.2672 12.9917 20.002V19.002H14.9917C15.9362 19.0044 16.851 18.6716 17.5733 18.0629C18.2955 17.4542 18.7783 16.6089 18.9358 15.6776C19.0933 14.7463 18.9153 13.7893 18.4334 12.9769C17.9516 12.1645 17.1971 11.5495 16.3043 11.2412V11.2411ZM8.9917 7.00195H12.9917C13.5221 7.00195 14.0308 7.21267 14.4059 7.58774C14.781 7.96281 14.9917 8.47152 14.9917 9.00195C14.9917 9.53239 14.781 10.0411 14.4059 10.4162C14.0308 10.7912 13.5221 11.002 12.9917 11.002H8.9917V7.00195ZM14.9917 17.002H8.9917V13.002H14.9917C15.5221 13.002 16.0308 13.2127 16.4059 13.5877C16.781 13.9628 16.9917 14.4715 16.9917 15.002C16.9917 15.5324 16.781 16.0411 16.4059 16.4162C16.0308 16.7912 15.5221 17.002 14.9917 17.002Z" fill="black"/>
</svg>
