<svg width="24" height="24" viewBox="0 0 24 24" fill="none" xmlns="http://www.w3.org/2000/svg">
<path d="M21.71 20.29L3.71 2.29C3.5217 2.1017 3.2663 1.99591 3 1.99591C2.7337 1.99591 2.47831 2.1017 2.29 2.29C2.1017 2.47831 1.99591 2.7337 1.99591 3C1.99591 3.2663 2.1017 3.5217 2.29 3.71L3.29 4.71C3.0986 5.11308 2.99953 5.55379 3 6V14C3 14.7957 3.31607 15.5587 3.87868 16.1213C4.44129 16.6839 5.20435 17 6 17H9V19H6C5.73479 19 5.48043 19.1054 5.2929 19.2929C5.10536 19.4804 5 19.7348 5 20C5 20.2652 5.10536 20.5196 5.2929 20.7071C5.48043 20.8946 5.73479 21 6 21H18C18.2038 20.9979 18.4021 20.9335 18.5683 20.8156C18.7345 20.6976 18.8607 20.5317 18.93 20.34L20.29 21.71C20.383 21.8037 20.4936 21.8781 20.6154 21.9289C20.7373 21.9797 20.868 22.0058 21 22.0058C21.132 22.0058 21.2627 21.9797 21.3846 21.9289C21.5064 21.8781 21.617 21.8037 21.71 21.71C21.8037 21.617 21.8781 21.5064 21.9289 21.3846C21.9797 21.2627 22.0058 21.132 22.0058 21C22.0058 20.868 21.9797 20.7373 21.9289 20.6154C21.8781 20.4936 21.8037 20.383 21.71 20.29ZM5 6.41L9.59 11H5V6.41ZM13 19H11V17H13V19ZM6 15C5.73479 15 5.48043 14.8946 5.2929 14.7071C5.10536 14.5196 5 14.2652 5 14V13H11.59L13.59 15H6ZM15 19V17H15.59L17.59 19H15ZM9.66 5H18C18.2652 5 18.5196 5.10536 18.7071 5.2929C18.8946 5.48043 19 5.73479 19 6V11H17.66C17.3948 11 17.1404 11.1054 16.9529 11.2929C16.7654 11.4804 16.66 11.7348 16.66 12C16.66 12.2652 16.7654 12.5196 16.9529 12.7071C17.1404 12.8946 17.3948 13 17.66 13H19V14C19.0055 14.0365 19.0055 14.0735 19 14.11C18.9737 14.2387 18.973 14.3713 18.998 14.5003C19.023 14.6292 19.0731 14.752 19.1455 14.8616C19.218 14.9712 19.3113 15.0654 19.4202 15.1389C19.529 15.2124 19.6513 15.2638 19.78 15.29H19.98C20.2139 15.2947 20.4421 15.2172 20.6249 15.0711C20.8076 14.9249 20.9333 14.7193 20.98 14.49C21.0008 14.3276 21.0075 14.1636 21 14V6C21 5.20435 20.6839 4.44129 20.1213 3.87868C19.5587 3.31607 18.7957 3 18 3H9.66C9.39479 3 9.14043 3.10536 8.9529 3.2929C8.76536 3.48043 8.66 3.73479 8.66 4C8.66 4.26522 8.76536 4.51957 8.9529 4.70711C9.14043 4.89465 9.39479 5 9.66 5Z" fill="black"/>
</svg>
