<svg width="24" height="24" viewBox="0 0 24 24" fill="none" xmlns="http://www.w3.org/2000/svg">
<path d="M18.42 7.72002C17.809 6.31602 16.7545 5.15109 15.4181 4.40374C14.0817 3.65639 12.5371 3.36785 11.021 3.58233C9.50489 3.7968 8.10094 4.50247 7.02427 5.59119C5.9476 6.67991 5.2576 8.09163 5.06001 9.61002C4.22223 9.81407 3.47281 10.2834 2.92346 10.948C2.37411 11.6126 2.05423 12.437 2.01151 13.2982C1.96878 14.1594 2.2055 15.0114 2.68638 15.7271C3.16725 16.4429 3.86654 16.984 4.68001 17.27C4.78372 17.302 4.8915 17.3188 5.00001 17.32C5.26523 17.3625 5.53644 17.2978 5.75398 17.1403C5.97152 16.9827 6.11758 16.7452 6.16001 16.48C6.20245 16.2148 6.13778 15.9436 5.98025 15.726C5.82272 15.5085 5.58523 15.3625 5.32001 15.32C4.94292 15.1839 4.61544 14.9376 4.38007 14.6131C4.14469 14.2885 4.01228 13.9007 4.00001 13.5C4.00001 12.9696 4.21072 12.4609 4.5858 12.0858C4.96087 11.7107 5.46958 11.5 6.00001 11.5C6.26523 11.5 6.51958 11.3947 6.70712 11.2071C6.89465 11.0196 7.00001 10.7652 7.00001 10.5C7.00257 9.31729 7.4243 8.17377 8.19028 7.2726C8.95626 6.37143 10.0169 5.77097 11.1838 5.57789C12.3506 5.38481 13.5481 5.61162 14.5636 6.21803C15.579 6.82443 16.3466 7.77116 16.73 8.89002C16.7872 9.06186 16.8899 9.21495 17.0273 9.33295C17.1647 9.45095 17.3315 9.52943 17.51 9.56002C18.1113 9.66886 18.6651 9.95875 19.0972 10.3909C19.5293 10.8231 19.8191 11.3769 19.9278 11.9782C20.0366 12.5796 19.9591 13.1998 19.7057 13.7559C19.4523 14.312 19.0352 14.7775 18.51 15.09C18.2793 15.2226 18.1107 15.4415 18.0413 15.6984C17.9719 15.9553 18.0074 16.2293 18.14 16.46C18.2726 16.6908 18.4915 16.8594 18.7484 16.9288C19.0053 16.9981 19.2793 16.9626 19.51 16.83C20.2682 16.3899 20.8974 15.7582 21.3344 14.9982C21.7715 14.2382 22.001 13.3767 22 12.5C21.997 11.4241 21.647 10.378 21.002 9.51682C20.3571 8.65569 19.4516 8.02556 18.42 7.72002ZM9.17001 13.72C8.61105 14.2796 8.23052 14.9923 8.07654 15.7681C7.92256 16.5439 8.00204 17.348 8.30492 18.0786C8.6078 18.8093 9.12049 19.4337 9.77819 19.8731C10.4359 20.3124 11.2091 20.5469 12 20.5469C12.7909 20.5469 13.5641 20.3124 14.2218 19.8731C14.8795 19.4337 15.3922 18.8093 15.6951 18.0786C15.998 17.348 16.0775 16.5439 15.9235 15.7681C15.7695 14.9923 15.389 14.2796 14.83 13.72C14.0739 12.9858 13.064 12.5709 12.01 12.5616C10.9561 12.5523 9.93902 12.9492 9.17001 13.67V13.72ZM10 16.5C10 15.9696 10.2107 15.4609 10.5858 15.0858C10.9609 14.7107 11.4696 14.5 12 14.5C12.1722 14.5022 12.3435 14.5258 12.51 14.57L10.07 17C10.0266 16.8368 10.0031 16.6689 10 16.5ZM13.41 17.91C13.1621 18.1515 12.8558 18.3245 12.521 18.4121C12.1862 18.4998 11.8344 18.499 11.5 18.41L13.93 16C13.9743 16.1665 13.9978 16.3378 14 16.51C13.9951 17.0361 13.7832 17.5391 13.41 17.91Z" fill="black"/>
</svg>
