<svg width="24" height="24" viewBox="0 0 24 24" fill="none" xmlns="http://www.w3.org/2000/svg">
<path d="M10.26 5L12 4L19 8L15.85 9.83C15.6213 9.96192 15.454 10.1789 15.3847 10.4337C15.3154 10.6885 15.3496 10.9604 15.48 11.19C15.5453 11.3046 15.6327 11.4051 15.737 11.4858C15.8414 11.5665 15.9607 11.6257 16.088 11.6601C16.2153 11.6945 16.3482 11.7034 16.479 11.6862C16.6098 11.669 16.7359 11.6261 16.85 11.56L21.5 8.87C21.6539 8.78278 21.7819 8.6563 21.871 8.50346C21.96 8.35062 22.007 8.17689 22.007 8C22.007 7.8231 21.96 7.64937 21.871 7.49653C21.7819 7.34369 21.6539 7.21721 21.5 7.13L12.5 1.93C12.348 1.84223 12.1755 1.79602 12 1.79602C11.8245 1.79602 11.652 1.84223 11.5 1.93L9.26 3.23C9.14542 3.29533 9.04488 3.38268 8.9642 3.48703C8.88352 3.59137 8.82427 3.71065 8.78988 3.83799C8.75549 3.96533 8.74663 4.09822 8.76381 4.229C8.781 4.35977 8.82388 4.48586 8.89 4.6C8.95278 4.7171 9.03827 4.82053 9.14148 4.90422C9.24468 4.98791 9.36353 5.0502 9.49108 5.08744C9.61863 5.12468 9.75232 5.13613 9.88434 5.12111C10.0164 5.1061 10.1441 5.06493 10.26 5ZM3.71 2.29C3.61676 2.19676 3.50607 2.1228 3.38425 2.07234C3.26243 2.02188 3.13186 1.9959 3 1.9959C2.86814 1.9959 2.73758 2.02188 2.61575 2.07234C2.49393 2.1228 2.38324 2.19676 2.29 2.29C2.1017 2.4783 1.99591 2.73369 1.99591 3C1.99591 3.2663 2.1017 3.52169 2.29 3.71L4.54 6L2.54 7.17C2.3861 7.25721 2.2581 7.38369 2.16904 7.53653C2.07998 7.68937 2.03305 7.8631 2.03305 8.04C2.03305 8.21689 2.07998 8.39062 2.16904 8.54346C2.2581 8.6963 2.3861 8.82278 2.54 8.91L11.54 14.11C11.692 14.1978 11.8645 14.244 12.04 14.244C12.2155 14.244 12.388 14.1978 12.54 14.11L12.64 14.05L13.71 15.12L12.04 16.12L3.5 11.13C3.38575 11.0643 3.25969 11.0218 3.12901 11.0049C2.99833 10.9879 2.86559 10.9969 2.73837 11.0313C2.61116 11.0656 2.49195 11.1247 2.38757 11.2051C2.28318 11.2855 2.19566 11.3857 2.13 11.5C2.06434 11.6142 2.02183 11.7403 2.00489 11.871C1.98794 12.0017 1.99691 12.1344 2.03127 12.2616C2.06562 12.3888 2.1247 12.508 2.20513 12.6124C2.28555 12.7168 2.38575 12.8043 2.5 12.87L11.5 18.07C11.6524 18.1564 11.8248 18.2012 12 18.2C12.1752 18.2012 12.3476 18.1564 12.5 18.07L15.13 16.55L16.2 17.62L12 20L3.5 15.13C3.26926 14.9974 2.9953 14.9619 2.73837 15.0313C2.48145 15.1006 2.26261 15.2693 2.13 15.5C1.99739 15.7307 1.96188 16.0047 2.03127 16.2616C2.10065 16.5185 2.26926 16.7374 2.5 16.87L11.5 22.07C11.652 22.1578 11.8245 22.204 12 22.204C12.1755 22.204 12.348 22.1578 12.5 22.07L17.67 19.07L20.29 21.7C20.383 21.7937 20.4936 21.8681 20.6154 21.9189C20.7373 21.9697 20.868 21.9958 21 21.9958C21.132 21.9958 21.2627 21.9697 21.3846 21.9189C21.5064 21.8681 21.617 21.7937 21.71 21.7C21.8037 21.607 21.8781 21.4964 21.9289 21.3746C21.9797 21.2527 22.0058 21.122 22.0058 20.99C22.0058 20.858 21.9797 20.7273 21.9289 20.6054C21.8781 20.4836 21.8037 20.373 21.71 20.28L3.71 2.29ZM5 8L6 7.42L8.75 10.17L5 8ZM20.5 11.13L18.38 12.35C18.1493 12.4826 17.9807 12.7014 17.9113 12.9584C17.8419 13.2153 17.8774 13.4893 18.01 13.72C18.1426 13.9507 18.3614 14.1193 18.6184 14.1887C18.8753 14.2581 19.1493 14.2226 19.38 14.09L21.5 12.87C21.6143 12.8043 21.7145 12.7168 21.7949 12.6124C21.8753 12.508 21.9344 12.3888 21.9687 12.2616C22.0031 12.1344 22.0121 12.0017 21.9951 11.871C21.9782 11.7403 21.9357 11.6142 21.87 11.5C21.8043 11.3857 21.7168 11.2855 21.6124 11.2051C21.5081 11.1247 21.3888 11.0656 21.2616 11.0313C21.1344 10.9969 21.0017 10.9879 20.871 11.0049C20.7403 11.0218 20.6143 11.0643 20.5 11.13Z" fill="black"/>
</svg>
