<svg width="24" height="24" viewBox="0 0 24 24" fill="none" xmlns="http://www.w3.org/2000/svg">
<path d="M19 14C18.8726 13.967 18.74 13.9594 18.6096 13.9777C18.4793 13.996 18.3539 14.0399 18.2405 14.1067C18.1272 14.1736 18.0282 14.2622 17.9492 14.3675C17.8701 14.4727 17.8126 14.5925 17.78 14.72C17.3976 16.2286 16.5234 17.5667 15.2956 18.5229C14.0677 19.4791 12.5563 19.9988 11 20H5.41002L6.05002 19.37C6.23627 19.1827 6.34081 18.9292 6.34081 18.665C6.34081 18.4008 6.23627 18.1474 6.05002 17.96C5.17411 17.0876 4.54486 15.9988 4.22627 14.8043C3.90768 13.6098 3.91112 12.3523 4.23622 11.1595C4.56133 9.96678 5.19651 8.88142 6.07717 8.01381C6.95784 7.1462 8.05256 6.52729 9.25002 6.22003C9.3774 6.1872 9.49707 6.1296 9.60219 6.05052C9.70731 5.97144 9.79583 5.87243 9.86269 5.75914C9.92955 5.64586 9.97344 5.52051 9.99185 5.39026C10.0103 5.26001 10.0028 5.12741 9.97002 5.00003C9.90371 4.74277 9.73793 4.52238 9.50913 4.38736C9.39585 4.3205 9.2705 4.27661 9.14025 4.25819C9.01 4.23978 8.8774 4.2472 8.75002 4.28003C7.29702 4.65887 5.9619 5.39524 4.86628 6.42206C3.77066 7.44887 2.94937 8.7335 2.47721 10.1589C2.00506 11.5843 1.89705 13.1052 2.16302 14.5831C2.429 16.0609 3.06051 17.4487 4.00002 18.62L2.29002 20.29C2.15126 20.4307 2.05726 20.6092 2.01989 20.8032C1.98252 20.9972 2.00344 21.1979 2.08002 21.38C2.15504 21.5626 2.28244 21.719 2.44616 21.8293C2.60988 21.9396 2.80259 21.999 3.00002 22H11C12.9963 22.0013 14.9363 21.3389 16.5149 20.1169C18.0934 18.895 19.221 17.1829 19.72 15.25C19.7576 15.1207 19.7687 14.985 19.7526 14.8513C19.7365 14.7175 19.6936 14.5884 19.6263 14.4716C19.5591 14.3549 19.469 14.2529 19.3613 14.1719C19.2537 14.0908 19.1308 14.0324 19 14ZM20.54 3.46003C19.7232 2.64111 18.6477 2.13073 17.4967 2.01583C16.3458 1.90093 15.1906 2.18862 14.228 2.82988C13.2653 3.47115 12.5548 4.42633 12.2174 5.5327C11.8801 6.63906 11.9367 7.82818 12.3777 8.89747C12.8187 9.96676 13.6168 10.8501 14.636 11.397C15.6553 11.9438 16.8325 12.1204 17.9674 11.8966C19.1022 11.6729 20.1243 11.0626 20.8596 10.1697C21.5949 9.27686 21.998 8.15669 22 7.00003C22.0012 6.34298 21.8729 5.69214 21.6223 5.08472C21.3718 4.4773 21.004 3.92522 20.54 3.46003ZM14 7.00003C14 6.20438 14.3161 5.44132 14.8787 4.87871C15.4413 4.3161 16.2044 4.00003 17 4.00003C17.447 4.00268 17.8877 4.10517 18.29 4.30003L14.29 8.30003C14.0972 7.8939 13.9981 7.44962 14 7.00003ZM19.12 9.12003C18.6748 9.54328 18.1131 9.82371 17.5072 9.92528C16.9014 10.0269 16.279 9.94493 15.72 9.69003L19.72 5.69003C19.9109 6.10001 20.0066 6.54784 20 7.00003C19.9993 7.79541 19.6828 8.55796 19.12 9.12003Z" fill="black"/>
</svg>
