<svg width="24" height="24" viewBox="0 0 24 24" fill="none" xmlns="http://www.w3.org/2000/svg">
<path d="M17.5 13.26C18.6582 13.2696 19.7837 12.8768 20.6844 12.1487C21.5852 11.4206 22.2052 10.4024 22.4386 9.26793C22.6721 8.1335 22.5044 6.95321 21.9643 5.92864C21.4243 4.90407 20.5452 4.09878 19.4774 3.65028C18.4095 3.20179 17.2191 3.13792 16.1094 3.46958C14.9997 3.80124 14.0396 4.50786 13.393 5.46876C12.7464 6.42966 12.4534 7.58523 12.5641 8.73813C12.6748 9.89103 13.1824 10.9697 14 11.79C14.9281 12.7211 16.1855 13.2492 17.5 13.26ZM19.62 10.38C19.1818 10.8147 18.6201 11.1037 18.0117 11.2075C17.4032 11.3113 16.7775 11.2249 16.22 10.96L20.22 6.96002C20.4869 7.52193 20.5726 8.15292 20.4651 8.76565C20.3576 9.37838 20.0623 9.94253 19.62 10.38ZM15.38 6.14002C15.9421 5.57725 16.7046 5.26072 17.5 5.26002C17.9436 5.26416 18.3808 5.36662 18.78 5.56002L14.78 9.56002C14.5131 8.99812 14.4274 8.36713 14.5349 7.7544C14.6424 7.14167 14.9377 6.57752 15.38 6.14002ZM20.5 14.26C20.2348 14.26 19.9804 14.3654 19.7929 14.5529C19.6054 14.7405 19.5 14.9948 19.5 15.26V19.26C19.5 19.5252 19.3946 19.7796 19.2071 19.9671C19.0196 20.1547 18.7652 20.26 18.5 20.26H4.5C4.23478 20.26 3.98043 20.1547 3.79289 19.9671C3.60536 19.7796 3.5 19.5252 3.5 19.26V9.67002L9.38 15.55C9.93962 16.1104 10.6981 16.4267 11.49 16.43C11.8927 16.4311 12.2915 16.351 12.6625 16.1947C13.0336 16.0384 13.3695 15.8089 13.65 15.52C13.8302 15.3336 13.931 15.0844 13.931 14.825C13.931 14.5657 13.8302 14.3165 13.65 14.13C13.5569 14.0348 13.4456 13.9591 13.3229 13.9074C13.2001 13.8558 13.0682 13.8291 12.935 13.8291C12.8018 13.8291 12.6699 13.8558 12.5471 13.9074C12.4244 13.9591 12.3131 14.0348 12.22 14.13C12.0331 14.3133 11.7818 14.4159 11.52 14.4159C11.2582 14.4159 11.0069 14.3133 10.82 14.13L4.91 8.26002H9.5C9.76522 8.26002 10.0196 8.15467 10.2071 7.96713C10.3946 7.77959 10.5 7.52524 10.5 7.26002C10.5 6.99481 10.3946 6.74045 10.2071 6.55292C10.0196 6.36538 9.76522 6.26002 9.5 6.26002H4.5C3.70435 6.26002 2.94129 6.57609 2.37868 7.1387C1.81607 7.70131 1.5 8.46438 1.5 9.26002V19.26C1.5 20.0557 1.81607 20.8187 2.37868 21.3813C2.94129 21.944 3.70435 22.26 4.5 22.26H18.5C19.2956 22.26 20.0587 21.944 20.6213 21.3813C21.1839 20.8187 21.5 20.0557 21.5 19.26V15.26C21.5 14.9948 21.3946 14.7405 21.2071 14.5529C21.0196 14.3654 20.7652 14.26 20.5 14.26Z" fill="black"/>
</svg>
