<svg width="24" height="24" viewBox="0 0 24 24" fill="none" xmlns="http://www.w3.org/2000/svg">
<path d="M10.66 6H18C18.2652 6 18.5196 6.10536 18.7071 6.2929C18.8946 6.48043 19 6.73479 19 7V13C19.0012 13.1765 18.9527 13.3498 18.86 13.5C18.7897 13.611 18.742 13.7347 18.7195 13.8641C18.6971 13.9935 18.7004 14.1261 18.7291 14.2542C18.7579 14.3824 18.8117 14.5036 18.8873 14.611C18.963 14.7183 19.059 14.8098 19.17 14.88C19.3266 14.9853 19.5113 15.0411 19.7 15.04C19.8673 15.0397 20.0319 14.9975 20.1786 14.9171C20.3254 14.8367 20.4496 14.7208 20.54 14.58C20.8406 14.1079 21.0002 13.5597 21 13V7C21 6.20435 20.6839 5.44129 20.1213 4.87868C19.5587 4.31607 18.7957 4 18 4H10.66C10.3948 4 10.1404 4.10536 9.9529 4.2929C9.76536 4.48043 9.66 4.73479 9.66 5C9.66 5.26522 9.76536 5.51957 9.9529 5.70711C10.1404 5.89465 10.3948 6 10.66 6ZM21.71 20.29L5.86 4.45L3.71 2.29C3.61676 2.19676 3.50607 2.1228 3.38425 2.07234C3.26243 2.02188 3.13186 1.99591 3 1.99591C2.86814 1.99591 2.73758 2.02188 2.61575 2.07234C2.49393 2.1228 2.38324 2.19676 2.29 2.29C2.1017 2.47831 1.99591 2.7337 1.99591 3C1.99591 3.2663 2.1017 3.5217 2.29 3.71L3.69 5.1C3.24713 5.63445 3.00328 6.30592 3 7V13C3 13.7957 3.31607 14.5587 3.87868 15.1213C4.44129 15.6839 5.20435 16 6 16H11V18H7C6.73479 18 6.48043 18.1054 6.2929 18.2929C6.10536 18.4804 6 18.7348 6 19C6 19.2652 6.10536 19.5196 6.2929 19.7071C6.48043 19.8946 6.73479 20 7 20H17C17.2038 19.9979 17.4021 19.9335 17.5683 19.8156C17.7345 19.6976 17.8607 19.5317 17.93 19.34L20.29 21.71C20.383 21.8037 20.4936 21.8781 20.6154 21.9289C20.7373 21.9797 20.868 22.0058 21 22.0058C21.132 22.0058 21.2627 21.9797 21.3846 21.9289C21.5064 21.8781 21.617 21.8037 21.71 21.71C21.8037 21.617 21.8781 21.5064 21.9289 21.3846C21.9797 21.2627 22.0058 21.132 22.0058 21C22.0058 20.868 21.9797 20.7373 21.9289 20.6154C21.8781 20.4936 21.8037 20.383 21.71 20.29ZM6 14C5.73479 14 5.48043 13.8946 5.2929 13.7071C5.10536 13.5196 5 13.2652 5 13V7C5.00244 6.83925 5.04361 6.68146 5.12 6.54L12.59 14H6ZM13 18V16H14.59L16.59 18H13Z" fill="black"/>
</svg>
