<svg width="24" height="24" viewBox="0 0 24 24" fill="none" xmlns="http://www.w3.org/2000/svg">
<path d="M20.49 13.94L20.15 14.14C19.9219 14.2753 19.7569 14.4956 19.6913 14.7525C19.6257 15.0094 19.6648 15.2819 19.8 15.51C19.8885 15.6593 20.0143 15.783 20.1651 15.8689C20.3159 15.9548 20.4864 16 20.66 16C20.8395 15.9999 21.0156 15.9516 21.17 15.86L21.51 15.66C21.7102 15.5144 21.8493 15.2997 21.9003 15.0575C21.9514 14.8152 21.9108 14.5627 21.7863 14.3486C21.6619 14.1346 21.4625 13.9744 21.2267 13.8989C20.991 13.8234 20.7356 13.838 20.51 13.94H20.49ZM11.65 6.36L12 6.15L19 10.15L17.24 11.15C17.0473 11.2592 16.8964 11.4292 16.8108 11.6334C16.7252 11.8376 16.7097 12.0644 16.7669 12.2783C16.8241 12.4922 16.9507 12.6811 17.1268 12.8153C17.3029 12.9496 17.5186 13.0216 17.74 13.02C17.9152 13.0212 18.0876 12.9764 18.24 12.89L21.5 11C21.6539 10.9128 21.7819 10.7863 21.871 10.6335C21.96 10.4806 22.0069 10.3069 22.0069 10.13C22.0069 9.95311 21.96 9.77938 21.871 9.62654C21.7819 9.4737 21.6539 9.34722 21.5 9.26L12.5 4.07C12.348 3.98223 12.1755 3.93603 12 3.93603C11.8245 3.93603 11.652 3.98223 11.5 4.07L10.65 4.56C10.4193 4.69261 10.2506 4.91145 10.1813 5.16837C10.1119 5.4253 10.1474 5.69926 10.28 5.93C10.4126 6.16074 10.6314 6.32935 10.8884 6.39874C11.1453 6.46813 11.4193 6.43261 11.65 6.3V6.36ZM3.70999 2.29C3.61675 2.19676 3.50606 2.1228 3.38424 2.07234C3.26242 2.02188 3.13185 1.99591 2.99999 1.99591C2.86813 1.99591 2.73756 2.02188 2.61574 2.07234C2.49392 2.1228 2.38323 2.19676 2.28999 2.29C2.10169 2.47831 1.9959 2.7337 1.9959 3C1.9959 3.2663 2.10169 3.5217 2.28999 3.71L5.92999 7.34L2.49999 9.34C2.34609 9.42722 2.21808 9.5537 2.12902 9.70654C2.03997 9.85938 1.99304 10.0331 1.99304 10.21C1.99304 10.3869 2.03997 10.5606 2.12902 10.7135C2.21808 10.8663 2.34609 10.9928 2.49999 11.08L11.5 16.28C11.6538 16.3628 11.8253 16.4074 12 16.41C12.1745 16.4059 12.3456 16.3614 12.5 16.28L14 15.4L15.45 16.86L12.01 18.86L3.49999 13.93C3.26925 13.7974 2.99529 13.7619 2.73836 13.8313C2.48144 13.9007 2.2626 14.0693 2.12999 14.3C1.99738 14.5307 1.96187 14.8047 2.03125 15.0616C2.10064 15.3186 2.26925 15.5374 2.49999 15.67L11.5 20.87C11.652 20.9578 11.8245 21.004 12 21.004C12.1755 21.004 12.348 20.9578 12.5 20.87L16.91 18.32L20.29 21.71C20.383 21.8037 20.4936 21.8781 20.6154 21.9289C20.7373 21.9797 20.868 22.0058 21 22.0058C21.132 22.0058 21.2627 21.9797 21.3846 21.9289C21.5064 21.8781 21.617 21.8037 21.71 21.71C21.8037 21.617 21.8781 21.5064 21.9289 21.3846C21.9797 21.2627 22.0058 21.132 22.0058 21C22.0058 20.868 21.9797 20.7373 21.9289 20.6154C21.8781 20.4936 21.8037 20.383 21.71 20.29L3.70999 2.29ZM12 14.29L4.99999 10.19L7.39999 8.81L12.52 13.94L12 14.29Z" fill="black"/>
</svg>
