<svg width="24" height="24" viewBox="0 0 24 24" fill="none" xmlns="http://www.w3.org/2000/svg">
<path d="M13.9912 13.0005H9.99121C9.72599 13.0005 9.47164 13.1058 9.2841 13.2934C9.09657 13.4809 8.99121 13.7353 8.99121 14.0005C8.99121 14.2657 9.09657 14.5201 9.2841 14.7076C9.47164 14.8951 9.72599 15.0005 9.99121 15.0005H13.9912C14.2564 15.0005 14.5108 14.8951 14.6983 14.7076C14.8859 14.5201 14.9912 14.2657 14.9912 14.0005C14.9912 13.7353 14.8859 13.4809 14.6983 13.2934C14.5108 13.1058 14.2564 13.0005 13.9912 13.0005ZM9.99121 11.0005H10.9912C11.2564 11.0005 11.5108 10.8951 11.6983 10.7076C11.8859 10.5201 11.9912 10.2657 11.9912 10.0005C11.9912 9.73527 11.8859 9.48092 11.6983 9.29338C11.5108 9.10585 11.2564 9.00049 10.9912 9.00049H9.99121C9.72599 9.00049 9.47164 9.10585 9.2841 9.29338C9.09657 9.48092 8.99121 9.73527 8.99121 10.0005C8.99121 10.2657 9.09657 10.5201 9.2841 10.7076C9.47164 10.8951 9.72599 11.0005 9.99121 11.0005ZM15.9912 9.99949V9.00049C15.9902 7.93995 15.5684 6.92315 14.8185 6.17323C14.0686 5.42331 13.0518 5.00155 11.9912 5.00049H9.99121C8.66561 5.00205 7.39474 5.52933 6.4574 6.46668C5.52005 7.40402 4.99277 8.67488 4.99121 10.0005V14.0005C4.99277 15.3261 5.52005 16.597 6.4574 17.5343C7.39474 18.4716 8.66561 18.9989 9.99121 19.0005H13.9912C15.3168 18.9989 16.5877 18.4716 17.525 17.5343C18.4624 16.597 18.9897 15.3261 18.9912 14.0005V13.0005C18.9902 12.2051 18.6739 11.4425 18.1115 10.8799C17.5491 10.3174 16.7866 10.0008 15.9912 9.99951V9.99949ZM15.9912 10.0005V10.0015L14.9912 10.0005H15.9912ZM16.9912 14.0005C16.9903 14.7959 16.674 15.5584 16.1116 16.1209C15.5492 16.6833 14.7866 16.9996 13.9912 17.0005H9.99121C9.19583 16.9996 8.43327 16.6833 7.87085 16.1209C7.30843 15.5584 6.99208 14.7959 6.99121 14.0005V10.0005C6.99208 9.2051 7.30843 8.44255 7.87085 7.88013C8.43327 7.31771 9.19583 7.00136 9.99121 7.00049H11.9912C12.5214 7.00118 13.0297 7.21211 13.4047 7.58703C13.7796 7.96196 13.9905 8.47027 13.9912 9.00049V10.0005C13.9919 10.5307 14.2028 11.039 14.5778 11.4139C14.9527 11.7889 15.461 11.9998 15.9912 12.0005C16.2564 12.0007 16.5106 12.1061 16.6981 12.2936C16.8856 12.4811 16.991 12.7353 16.9912 13.0005V14.0005ZM19.9912 1.00049H3.99121C3.19583 1.00136 2.43327 1.31771 1.87085 1.88013C1.30843 2.44255 0.992079 3.20511 0.991211 4.00049V20.0005C0.992079 20.7959 1.30843 21.5584 1.87085 22.1208C2.43327 22.6833 3.19583 22.9996 3.99121 23.0005H19.9912C20.7866 22.9996 21.5492 22.6833 22.1116 22.1208C22.674 21.5584 22.9903 20.7959 22.9912 20.0005V4.00049C22.9903 3.20511 22.674 2.44255 22.1116 1.88013C21.5492 1.31771 20.7866 1.00136 19.9912 1.00049ZM20.9912 20.0005C20.991 20.2656 20.8856 20.5199 20.6981 20.7074C20.5106 20.8949 20.2564 21.0003 19.9912 21.0005H3.99121C3.72605 21.0003 3.4718 20.8949 3.2843 20.7074C3.0968 20.5199 2.99139 20.2656 2.99121 20.0005V4.00049C2.99139 3.73533 3.0968 3.48108 3.2843 3.29358C3.4718 3.10608 3.72605 3.00067 3.99121 3.00049H19.9912C20.2564 3.00067 20.5106 3.10608 20.6981 3.29358C20.8856 3.48108 20.991 3.73533 20.9912 4.00049V20.0005Z" fill="black"/>
</svg>
