<svg width="24" height="24" viewBox="0 0 24 24" fill="none" xmlns="http://www.w3.org/2000/svg">
<path d="M9.71008 10.4601H11.9489C12.1533 10.4601 12.3494 10.3789 12.494 10.2343C12.6385 10.0897 12.7197 9.89368 12.7197 9.68924C12.7197 9.4848 12.6385 9.28873 12.494 9.14417C12.3494 8.99961 12.1533 8.9184 11.9489 8.9184H9.71008C9.50564 8.9184 9.30957 8.99961 9.16501 9.14417C9.02045 9.28873 8.93924 9.4848 8.93924 9.68924C8.93924 9.89368 9.02045 10.0897 9.16501 10.2343C9.30957 10.3789 9.50564 10.4601 9.71008 10.4601ZM19.4283 2.00171H4.555C3.87593 2.0042 3.22538 2.27507 2.74521 2.75526C2.26504 3.23544 1.99418 3.88599 1.9917 4.56506V19.4383C1.99417 20.1174 2.26501 20.7679 2.74519 21.2481C3.22536 21.7283 3.87592 21.9992 4.555 22.0017H19.4282C20.1073 21.9993 20.7579 21.7285 21.2381 21.2483C21.7183 20.7681 21.9892 20.1175 21.9917 19.4384V4.56506C21.9892 3.88597 21.7184 3.2354 21.2382 2.75521C20.758 2.27502 20.1074 2.00416 19.4283 2.00171ZM18.3558 11.6795L18.3361 14.3549C18.3283 15.4221 17.8998 16.443 17.1436 17.196C16.3874 17.9491 15.3647 18.3733 14.2975 18.3767H9.65855C8.59011 18.3748 7.56574 17.9506 6.80866 17.1967C6.05158 16.4428 5.62315 15.4202 5.61674 14.3518V9.65747C5.62249 8.58831 6.05052 7.56475 6.80756 6.80976C7.56461 6.05478 8.58934 5.62955 9.65851 5.62671H12.4822C13.1327 5.73953 13.7501 5.99538 14.2897 6.37578C14.8293 6.75618 15.2777 7.25165 15.6025 7.82642C15.8251 8.24906 15.9488 8.7167 15.9644 9.19409C16.0317 9.69965 16.0672 10.0753 16.2944 10.2835C16.6138 10.573 17.8017 10.378 18.0366 10.5619L18.2155 10.7018L18.3243 10.9235L18.3603 11.101L18.3558 11.6795ZM14.2588 13.5434H9.71008C9.60966 13.5403 9.50965 13.5575 9.41597 13.5938C9.3223 13.6301 9.23687 13.6848 9.16475 13.7548C9.09263 13.8247 9.0353 13.9084 8.99614 14.001C8.95699 14.0935 8.93681 14.1929 8.93681 14.2934C8.93681 14.3939 8.95699 14.4933 8.99614 14.5858C9.0353 14.6784 9.09263 14.7621 9.16475 14.832C9.23687 14.902 9.3223 14.9567 9.41597 14.993C9.50965 15.0293 9.60966 15.0465 9.71008 15.0434H14.2588C14.3589 15.0459 14.4585 15.0284 14.5517 14.9919C14.6449 14.9553 14.7298 14.9005 14.8015 14.8306C14.8732 14.7607 14.9302 14.6771 14.9691 14.5849C15.008 14.4926 15.028 14.3935 15.028 14.2934C15.028 14.1933 15.008 14.0942 14.9691 14.0019C14.9302 13.9097 14.8732 13.8261 14.8015 13.7562C14.7298 13.6863 14.6449 13.6315 14.5517 13.5949C14.4585 13.5584 14.3589 13.5409 14.2588 13.5434H14.2588Z" fill="black"/>
</svg>
