<svg width="24" height="24" viewBox="0 0 24 24" fill="none" xmlns="http://www.w3.org/2000/svg">
<path d="M15 11H10C9.7348 11 9.48044 11.1054 9.29291 11.2929C9.10537 11.4804 9.00001 11.7348 9.00001 12V20C8.99974 20.1817 9.04896 20.36 9.14239 20.5158C9.23582 20.6716 9.36992 20.799 9.5303 20.8843C9.69069 20.9697 9.87128 21.0097 10.0527 21.0001C10.2341 20.9906 10.4095 20.9318 10.56 20.83L12.5 19.53L14.39 20.79C14.5646 20.9255 14.7791 20.9993 15 21C15.1524 21.0006 15.3029 20.9664 15.44 20.9C15.6083 20.8176 15.7501 20.6895 15.8491 20.5303C15.9481 20.3712 16.0004 20.1874 16 20V12C16 11.7348 15.8947 11.4804 15.7071 11.2929C15.5196 11.1054 15.2652 11 15 11ZM14 18.12L13.06 17.49C12.8946 17.3782 12.6996 17.3185 12.5 17.3185C12.3004 17.3185 12.1054 17.3782 11.94 17.49L11 18.13V13H14V18.12ZM18.42 7.22002C17.809 5.81602 16.7545 4.65109 15.4181 3.90374C14.0817 3.15639 12.5371 2.86785 11.021 3.08233C9.50489 3.2968 8.10094 4.00247 7.02427 5.09119C5.9476 6.17991 5.2576 7.59163 5.06001 9.11002C4.1066 9.33834 3.27023 9.90885 2.70975 10.7132C2.14927 11.5176 1.9037 12.4997 2.01968 13.4732C2.13566 14.4467 2.60511 15.3437 3.33888 15.9939C4.07265 16.644 5.01964 17.0021 6.00001 17C6.26523 17 6.51958 16.8947 6.70712 16.7071C6.89466 16.5196 7.00001 16.2652 7.00001 16C7.00001 15.7348 6.89466 15.4804 6.70712 15.2929C6.51958 15.1054 6.26523 15 6.00001 15C5.46958 15 4.96087 14.7893 4.5858 14.4142C4.21073 14.0392 4.00001 13.5304 4.00001 13C4.00001 12.4696 4.21073 11.9609 4.5858 11.5858C4.96087 11.2107 5.46958 11 6.00001 11C6.26523 11 6.51958 10.8947 6.70712 10.7071C6.89466 10.5196 7.00001 10.2652 7.00001 10C7.00257 8.81729 7.4243 7.67377 8.19028 6.7726C8.95627 5.87143 10.0169 5.27097 11.1838 5.07789C12.3506 4.88481 13.5481 5.11162 14.5636 5.71803C15.579 6.32443 16.3466 7.27116 16.73 8.39002C16.7872 8.56186 16.8899 8.71495 17.0273 8.83295C17.1647 8.95095 17.3315 9.02943 17.51 9.06002C18.1114 9.16886 18.6651 9.45875 19.0972 9.8909C19.5293 10.3231 19.8191 10.8769 19.9278 11.4782C20.0366 12.0796 19.9591 12.6998 19.7057 13.2559C19.4523 13.812 19.0352 14.2775 18.51 14.59C18.2793 14.7226 18.1107 14.9415 18.0413 15.1984C17.9719 15.4553 18.0074 15.7293 18.14 15.96C18.2726 16.1908 18.4915 16.3594 18.7484 16.4288C19.0053 16.4981 19.2793 16.4626 19.51 16.33C20.2682 15.8899 20.8974 15.2582 21.3344 14.4982C21.7715 13.7382 22.001 12.8767 22 12C21.997 10.9241 21.647 9.87795 21.002 9.01682C20.3571 8.15569 19.4516 7.52556 18.42 7.22002Z" fill="black"/>
</svg>
