<svg width="24" height="24" viewBox="0 0 24 24" fill="none" xmlns="http://www.w3.org/2000/svg">
<path d="M7.99171 8.00172C7.79392 8.00172 7.60058 8.06037 7.43613 8.17025C7.27169 8.28014 7.14351 8.43631 7.06783 8.61904C6.99214 8.80177 6.97233 9.00283 7.01092 9.19681C7.04951 9.3908 7.14475 9.56898 7.2846 9.70883C7.42445 9.84868 7.60263 9.94392 7.79662 9.98251C7.9906 10.0211 8.19166 10.0013 8.37439 9.9256C8.55711 9.84992 8.71329 9.72174 8.82317 9.55729C8.93306 9.39285 8.99171 9.19951 8.99171 9.00172C8.99171 8.73651 8.88635 8.48215 8.69881 8.29462C8.51128 8.10708 8.25692 8.00172 7.99171 8.00172ZM11.9912 2.00201C10.0134 2.00201 8.08 2.5885 6.43551 3.68732C4.79102 4.78613 3.5093 6.34792 2.75242 8.17518C1.99554 10.0024 1.79751 12.0131 2.18336 13.9529C2.56921 15.8927 3.52162 17.6746 4.92015 19.0731C6.31867 20.4716 8.1005 21.424 10.0403 21.8099C11.9801 22.1957 13.9908 21.9977 15.8181 21.2408C17.6453 20.4839 19.2071 19.2022 20.3059 17.5577C21.4047 15.9132 21.9912 13.9798 21.9912 12.002C21.9881 9.35081 20.9335 6.80908 19.0588 4.93439C17.1842 3.0597 14.6424 2.00513 11.9912 2.00201ZM11.9912 20.002C10.409 20.002 8.86225 19.5328 7.54665 18.6538C6.23106 17.7747 5.20568 16.5253 4.60018 15.0635C3.99468 13.6017 3.83625 11.9931 4.14493 10.4413C4.45362 8.88944 5.21554 7.46398 6.33436 6.34516C7.45318 5.22634 8.87865 4.46441 10.4305 4.15573C11.9823 3.84705 13.5909 4.00548 15.0527 4.61098C16.5145 5.21648 17.7639 6.24186 18.643 7.55745C19.522 8.87305 19.9912 10.4198 19.9912 12.002C19.9888 14.123 19.1452 16.1564 17.6454 17.6562C16.1456 19.156 14.1122 19.9996 11.9912 20.002ZM10.9917 10.0017C10.7939 10.0017 10.6006 10.0604 10.4361 10.1703C10.2717 10.2801 10.1435 10.4363 10.0678 10.619C9.99214 10.8018 9.97234 11.0028 10.0109 11.1968C10.0495 11.3908 10.1447 11.569 10.2846 11.7088C10.4245 11.8487 10.6026 11.9439 10.7966 11.9825C10.9906 12.0211 11.1917 12.0013 11.3744 11.9256C11.5571 11.8499 11.7133 11.7217 11.8232 11.5573C11.9331 11.3928 11.9917 11.1995 11.9917 11.0017C11.9917 10.7365 11.8863 10.4822 11.6988 10.2946C11.5113 10.1071 11.2569 10.0017 10.9917 10.0017ZM10.9917 6.00172C10.7939 6.00172 10.6006 6.06037 10.4361 6.17025C10.2717 6.28014 10.1435 6.43631 10.0678 6.61904C9.99214 6.80177 9.97234 7.00283 10.0109 7.19681C10.0495 7.3908 10.1447 7.56898 10.2846 7.70883C10.4245 7.84868 10.6026 7.94392 10.7966 7.98251C10.9906 8.02109 11.1917 8.00129 11.3744 7.9256C11.5571 7.84992 11.7133 7.72174 11.8232 7.55729C11.9331 7.39284 11.9917 7.19951 11.9917 7.00172C11.9917 6.73651 11.8863 6.48215 11.6988 6.29462C11.5113 6.10708 11.2569 6.00172 10.9917 6.00172Z" fill="black"/>
</svg>
