<svg width="24" height="24" viewBox="0 0 24 24" fill="none" xmlns="http://www.w3.org/2000/svg">
<path d="M20.47 7.36999C20.47 7.36999 20.47 7.36999 20.47 7.28999L20.41 7.13999C20.3891 7.10816 20.3657 7.07806 20.34 7.04999C20.3133 7.00765 20.2832 6.96753 20.25 6.92999L20.16 6.85999L20 6.77999L12.5 2.14999C12.3411 2.05066 12.1574 1.99799 11.97 1.99799C11.7826 1.99799 11.599 2.05066 11.44 2.14999L4.00002 6.77999L3.91002 6.85999L3.82002 6.92999C3.78687 6.96753 3.75678 7.00765 3.73002 7.04999C3.70431 7.07806 3.68091 7.10816 3.66002 7.13999L3.60002 7.28999C3.60002 7.28999 3.60002 7.28999 3.60002 7.36999C3.59019 7.45638 3.59019 7.5436 3.60002 7.62999V16.37C3.59968 16.5399 3.64266 16.7072 3.72489 16.8559C3.80713 17.0046 3.92591 17.1299 4.07002 17.22L11.57 21.85C11.6162 21.8785 11.6669 21.8988 11.72 21.91C11.72 21.91 11.77 21.91 11.8 21.91C11.9692 21.9636 12.1508 21.9636 12.32 21.91C12.32 21.91 12.37 21.91 12.4 21.91C12.4531 21.8988 12.5039 21.8785 12.55 21.85L20 17.22C20.1441 17.1299 20.2629 17.0046 20.3452 16.8559C20.4274 16.7072 20.4704 16.5399 20.47 16.37V7.62999C20.4799 7.5436 20.4799 7.45638 20.47 7.36999ZM11 19.21L5.50002 15.81V9.42999L11 12.82V19.21ZM12 11.09L6.40002 7.62999L12 4.17999L17.6 7.62999L12 11.09ZM18.5 15.81L13 19.21V12.82L18.5 9.42999V15.81Z" fill="black"/>
</svg>
