<svg width="24" height="24" viewBox="0 0 24 24" fill="none" xmlns="http://www.w3.org/2000/svg">
<path d="M22 11C22.0028 10.2952 21.8193 9.60209 21.4681 8.99098C21.1169 8.37987 20.6104 7.87241 20 7.51999C20.015 7.34699 20.015 7.173 20 6.99999C20 6.20434 19.6839 5.44128 19.1213 4.87867C18.5587 4.31606 17.7956 3.99999 17 3.99999H16.82C16.6535 3.53831 16.3762 3.12453 16.0125 2.79494C15.6488 2.46535 15.2099 2.23003 14.7341 2.1096C14.2583 1.98917 13.7602 1.98731 13.2835 2.10419C12.8068 2.22108 12.3661 2.45313 12 2.77999C11.6339 2.45313 11.1931 2.22108 10.7165 2.10419C10.2398 1.98731 9.7417 1.98917 9.2659 2.1096C8.7901 2.23003 8.35112 2.46535 7.98744 2.79494C7.62377 3.12453 7.34651 3.53831 7.17998 3.99999H6.99998C6.20433 3.99999 5.44127 4.31606 4.87866 4.87867C4.31605 5.44128 3.99998 6.20434 3.99998 6.99999C3.98493 7.173 3.98493 7.34699 3.99998 7.51999C3.43244 7.84079 2.95192 8.29544 2.60022 8.84437C2.24853 9.3933 2.03634 10.0199 1.98212 10.6695C1.9279 11.3192 2.03329 11.9723 2.28912 12.5719C2.54496 13.1715 2.94347 13.6996 3.44998 14.11C3.12226 14.7213 2.9591 15.4072 2.97653 16.1006C2.99396 16.794 3.19138 17.4709 3.54941 18.0649C3.90744 18.6589 4.41377 19.1496 5.01871 19.4889C5.62366 19.8282 6.30642 20.0043 6.99998 20H7.17998C7.34651 20.4617 7.62377 20.8755 7.98744 21.205C8.35112 21.5346 8.7901 21.77 9.2659 21.8904C9.7417 22.0108 10.2398 22.0127 10.7165 21.8958C11.1931 21.7789 11.6339 21.5469 12 21.22C12.3661 21.5469 12.8068 21.7789 13.2835 21.8958C13.7602 22.0127 14.2583 22.0108 14.7341 21.8904C15.2099 21.77 15.6488 21.5346 16.0125 21.205C16.3762 20.8755 16.6535 20.4617 16.82 20H17C17.6893 19.9956 18.3658 19.8132 18.9639 19.4704C19.5619 19.1276 20.0613 18.6361 20.4134 18.0434C20.7655 17.4508 20.9586 16.7773 20.9737 16.0881C20.9889 15.3989 20.8257 14.7175 20.5 14.11C20.9664 13.7366 21.3433 13.2634 21.6028 12.7252C21.8624 12.187 21.9981 11.5975 22 11ZM11 8.54999C10.7822 8.42542 10.5548 8.31842 10.32 8.22999C10.068 8.14512 9.79268 8.16382 9.55451 8.28197C9.31634 8.40012 9.13485 8.60804 9.04998 8.85999C8.96512 9.11195 8.98381 9.3873 9.10196 9.62547C9.22011 9.86364 9.42803 10.0451 9.67998 10.13C10.0649 10.2692 10.3979 10.5231 10.634 10.8575C10.87 11.1919 10.9978 11.5907 11 12V13.55C10.7822 13.4254 10.5548 13.3184 10.32 13.23C10.068 13.1451 9.79268 13.1638 9.55451 13.282C9.31634 13.4001 9.13485 13.608 9.04998 13.86C8.96512 14.1119 8.98381 14.3873 9.10196 14.6255C9.22011 14.8636 9.42803 15.0451 9.67998 15.13C10.0649 15.2692 10.3979 15.5231 10.634 15.8575C10.87 16.1919 10.9978 16.5907 11 17V19C11 19.2652 10.8946 19.5196 10.7071 19.7071C10.5196 19.8946 10.2652 20 9.99998 20C9.80652 19.9987 9.61757 19.9414 9.45605 19.8349C9.29453 19.7284 9.16737 19.5773 9.08998 19.4C9.25766 19.3016 9.41807 19.1913 9.56998 19.07C9.6711 18.9859 9.75468 18.8828 9.81593 18.7665C9.87719 18.6501 9.91493 18.5228 9.92701 18.3919C9.93908 18.261 9.92524 18.129 9.88629 18.0034C9.84734 17.8778 9.78403 17.7611 9.69998 17.66C9.61594 17.5589 9.5128 17.4753 9.39645 17.414C9.28011 17.3528 9.15284 17.315 9.02191 17.303C8.89098 17.2909 8.75895 17.3047 8.63337 17.3437C8.50778 17.3826 8.3911 17.4459 8.28998 17.53C7.92891 17.834 7.47197 18.0005 6.99998 18C6.46955 18 5.96084 17.7893 5.58577 17.4142C5.2107 17.0391 4.99998 16.5304 4.99998 16C5.00477 15.6236 5.11569 15.2562 5.31998 14.94C5.54441 14.9802 5.77198 15.0003 5.99998 15C6.2652 15 6.51955 14.8946 6.70709 14.7071C6.89463 14.5196 6.99998 14.2652 6.99998 14C6.99998 13.7348 6.89463 13.4804 6.70709 13.2929C6.51955 13.1054 6.2652 13 5.99998 13C5.76377 13.0014 5.52951 12.9572 5.30998 12.87C4.95033 12.7403 4.63539 12.5102 4.40247 12.207C4.16956 11.9038 4.02843 11.5402 3.99581 11.1593C3.96319 10.7783 4.04044 10.396 4.21841 10.0576C4.39639 9.71925 4.66762 9.43897 4.99998 9.24999C5.14208 9.38073 5.29609 9.49791 5.45998 9.59999C5.69072 9.7326 5.96469 9.76812 6.22161 9.69873C6.47854 9.62934 6.69738 9.46073 6.82998 9.22999C6.96259 8.99926 6.99811 8.72529 6.92872 8.46836C6.85933 8.21144 6.69072 7.9926 6.45998 7.85999C6.31921 7.78234 6.20181 7.66839 6.11998 7.52999C6.02753 7.36944 5.98571 7.18471 5.99998 6.99999C5.99998 6.73478 6.10534 6.48042 6.29288 6.29289C6.48041 6.10535 6.73477 5.99999 6.99998 5.99999C7.06965 5.99028 7.14032 5.99028 7.20998 5.99999C7.26292 6.16066 7.32639 6.31767 7.39998 6.46999C7.46531 6.58458 7.55267 6.68511 7.65702 6.7658C7.76136 6.84648 7.88064 6.90572 8.00798 6.94012C8.13532 6.97451 8.26821 6.98337 8.39899 6.96618C8.52976 6.949 8.65585 6.90611 8.76998 6.83999C8.99169 6.7066 9.15306 6.49247 9.22019 6.24259C9.28733 5.99271 9.25499 5.72653 9.12998 5.49999C9.04608 5.3466 9.00142 5.17483 8.99998 4.99999C8.99998 4.73478 9.10534 4.48042 9.29288 4.29289C9.48041 4.10535 9.73477 3.99999 9.99998 3.99999C10.2652 3.99999 10.5196 4.10535 10.7071 4.29289C10.8946 4.48042 11 4.73478 11 4.99999V8.54999ZM18.69 12.87C18.4705 12.9572 18.2362 13.0014 18 13C17.7348 13 17.4804 13.1054 17.2929 13.2929C17.1053 13.4804 17 13.7348 17 14C17 14.2652 17.1053 14.5196 17.2929 14.7071C17.4804 14.8946 17.7348 15 18 15C18.228 15.0003 18.4556 14.9802 18.68 14.94C18.8843 15.2562 18.9952 15.6236 19 16C19 16.5304 18.7893 17.0391 18.4142 17.4142C18.0391 17.7893 17.5304 18 17 18C16.528 18.0005 16.0711 17.834 15.71 17.53C15.5058 17.3603 15.2425 17.2786 14.9781 17.303C14.7136 17.3274 14.4697 17.4558 14.3 17.66C14.1302 17.8642 14.0486 18.1275 14.073 18.3919C14.0973 18.6563 14.2258 18.9003 14.43 19.07C14.5819 19.1913 14.7423 19.3016 14.91 19.4C14.8326 19.5773 14.7054 19.7284 14.5439 19.8349C14.3824 19.9414 14.1935 19.9987 14 20C13.7348 20 13.4804 19.8946 13.2929 19.7071C13.1053 19.5196 13 19.2652 13 19V17C13.0022 16.5907 13.13 16.1919 13.366 15.8575C13.6021 15.5231 13.935 15.2692 14.32 15.13C14.5719 15.0451 14.7799 14.8636 14.898 14.6255C15.0162 14.3873 15.0349 14.1119 14.95 13.86C14.8651 13.608 14.6836 13.4001 14.4455 13.282C14.2073 13.1638 13.9319 13.1451 13.68 13.23C13.4452 13.3184 13.2178 13.4254 13 13.55V12C13.0022 11.5907 13.13 11.1919 13.366 10.8575C13.6021 10.5231 13.935 10.2692 14.32 10.13C14.5719 10.0451 14.7799 9.86364 14.898 9.62547C15.0162 9.3873 15.0349 9.11195 14.95 8.85999C14.8651 8.60804 14.6836 8.40012 14.4455 8.28197C14.2073 8.16382 13.9319 8.14512 13.68 8.22999C13.4452 8.31842 13.2178 8.42542 13 8.54999V4.99999C13 4.73478 13.1053 4.48042 13.2929 4.29289C13.4804 4.10535 13.7348 3.99999 14 3.99999C14.2652 3.99999 14.5196 4.10535 14.7071 4.29289C14.8946 4.48042 15 4.73478 15 4.99999C14.9986 5.17483 14.9539 5.3466 14.87 5.49999C14.8035 5.61353 14.76 5.73908 14.7421 5.86945C14.7242 5.99982 14.7322 6.13245 14.7656 6.25972C14.799 6.387 14.8573 6.50642 14.937 6.61114C15.0167 6.71587 15.1162 6.80383 15.23 6.86999C15.3441 6.93611 15.4702 6.979 15.601 6.99618C15.7318 7.01337 15.8646 7.00451 15.992 6.97012C16.1193 6.93572 16.2386 6.87648 16.343 6.7958C16.4473 6.71511 16.5347 6.61458 16.6 6.49999C16.6748 6.33793 16.7383 6.17086 16.79 5.99999C16.8596 5.99028 16.9303 5.99028 17 5.99999C17.2652 5.99999 17.5196 6.10535 17.7071 6.29289C17.8946 6.48042 18 6.73478 18 6.99999C17.9985 7.19603 17.9393 7.38729 17.83 7.54999C17.7482 7.67976 17.6346 7.78647 17.5 7.85999C17.2692 7.9926 17.1006 8.21144 17.0312 8.46836C16.9619 8.72529 16.9974 8.99926 17.13 9.22999C17.2626 9.46073 17.4814 9.62934 17.7384 9.69873C17.9953 9.76812 18.2692 9.7326 18.5 9.59999C18.6795 9.5029 18.8473 9.38546 19 9.24999C19.3335 9.43563 19.6069 9.71282 19.7879 10.0488C19.969 10.3848 20.0501 10.7656 20.0217 11.1463C19.9933 11.5269 19.8566 11.8915 19.6277 12.1969C19.3988 12.5023 19.0873 12.7359 18.73 12.87H18.69Z" fill="black"/>
</svg>
