<svg width="24" height="24" viewBox="0 0 24 24" fill="none" xmlns="http://www.w3.org/2000/svg">
<path d="M21 2H19H18.91H18.7L18.54 2.07L18.37 2.18C18.3218 2.21819 18.2782 2.26181 18.24 2.31C18.2009 2.3595 18.1674 2.41316 18.14 2.47C18.1051 2.52599 18.0782 2.58657 18.06 2.65V2.74L17.38 6H16.24L13.12 2.89C12.5501 2.34243 11.7904 2.03663 11 2.03663C10.2097 2.03663 9.44995 2.34243 8.88001 2.89L5.76001 6H3.00001C2.8238 5.9993 2.65053 6.04517 2.49775 6.13298C2.34498 6.22078 2.21811 6.3474 2.13001 6.5C2.04224 6.65202 1.99603 6.82446 1.99603 7C1.99603 7.17554 2.04224 7.34798 2.13001 7.5L6.13001 14.5L5.36001 16C5.24021 15.9902 5.11981 15.9902 5.00001 16C4.40666 16 3.82664 16.1759 3.3333 16.5056C2.83995 16.8352 2.45543 17.3038 2.22837 17.8519C2.00131 18.4001 1.9419 19.0033 2.05765 19.5853C2.17341 20.1672 2.45913 20.7018 2.87869 21.1213C3.29824 21.5409 3.83279 21.8266 4.41474 21.9424C4.99668 22.0581 5.59988 21.9987 6.14806 21.7716C6.69624 21.5446 7.16477 21.1601 7.49442 20.6667C7.82406 20.1734 8.00001 19.5933 8.00001 19C7.99683 18.2227 7.6921 17.477 7.15001 16.92L8.15001 14.92L9.53001 14.78L13.47 20.69C13.7454 21.1056 14.1223 21.444 14.5651 21.6732C15.0078 21.9024 15.5017 22.0149 16 22C16.3863 21.9992 16.7692 21.9281 17.13 21.79C17.7741 21.5395 18.312 21.0743 18.6527 20.473C18.9934 19.8718 19.1161 19.1713 19 18.49L18 13L19.79 4H21C21.2652 4 21.5196 3.89464 21.7071 3.70711C21.8947 3.51957 22 3.26522 22 3C22 2.73478 21.8947 2.48043 21.7071 2.29289C21.5196 2.10536 21.2652 2 21 2ZM5.00001 20C4.80223 20 4.60889 19.9414 4.44444 19.8315C4.27999 19.7216 4.15182 19.5654 4.07613 19.3827C4.00044 19.2 3.98064 18.9989 4.01922 18.8049C4.05781 18.6109 4.15305 18.4327 4.2929 18.2929C4.43275 18.153 4.61094 18.0578 4.80492 18.0192C4.9989 17.9806 5.19996 18.0004 5.38269 18.0761C5.56542 18.1518 5.7216 18.28 5.83148 18.4444C5.94136 18.6089 6.00001 18.8022 6.00001 19C6.00001 19.2652 5.89465 19.5196 5.70711 19.7071C5.51958 19.8946 5.26522 20 5.00001 20ZM10.3 4.29C10.4869 4.10677 10.7383 4.00414 11 4.00414C11.2618 4.00414 11.5131 4.10677 11.7 4.29L13.41 6H8.59001L10.3 4.29ZM7.55001 12.94L4.72001 8H17L16.18 12.08L7.55001 12.94ZM16.36 19.94C16.1467 20.0237 15.9112 20.0317 15.6927 19.9625C15.4743 19.8933 15.2862 19.7512 15.16 19.56L11.82 14.56L16.19 14.13L17 18.82C17.0402 19.0507 16.9981 19.2881 16.8811 19.491C16.7642 19.6938 16.5798 19.8492 16.36 19.93V19.94Z" fill="black"/>
</svg>
