<svg width="24" height="24" viewBox="0 0 24 24" fill="none" xmlns="http://www.w3.org/2000/svg">
<path d="M12 10C11.7348 10 11.4804 10.1054 11.2929 10.2929C11.1053 10.4804 11 10.7348 11 11V15C11 15.2652 11.1053 15.5196 11.2929 15.7071C11.4804 15.8946 11.7348 16 12 16C12.2652 16 12.5196 15.8946 12.7071 15.7071C12.8946 15.5196 13 15.2652 13 15V11C13 10.7348 12.8946 10.4804 12.7071 10.2929C12.5196 10.1054 12.2652 10 12 10ZM7.99999 13C7.73477 13 7.48042 13.1054 7.29288 13.2929C7.10535 13.4804 6.99999 13.7348 6.99999 14V15C6.99999 15.2652 7.10535 15.5196 7.29288 15.7071C7.48042 15.8946 7.73477 16 7.99999 16C8.2652 16 8.51956 15.8946 8.70709 15.7071C8.89463 15.5196 8.99999 15.2652 8.99999 15V14C8.99999 13.7348 8.89463 13.4804 8.70709 13.2929C8.51956 13.1054 8.2652 13 7.99999 13ZM12 2C10.6868 2 9.38641 2.25866 8.17315 2.7612C6.9599 3.26375 5.85751 4.00035 4.92892 4.92893C3.05356 6.8043 1.99999 9.34784 1.99999 12C1.99125 14.3091 2.79078 16.5485 4.25999 18.33L2.25999 20.33C2.12123 20.4706 2.02723 20.6492 1.98986 20.8432C1.95249 21.0372 1.97341 21.2379 2.04999 21.42C2.13305 21.5999 2.26769 21.7511 2.43683 21.8544C2.60598 21.9577 2.80199 22.0083 2.99999 22H12C14.6522 22 17.1957 20.9464 19.0711 19.0711C20.9464 17.1957 22 14.6522 22 12C22 9.34784 20.9464 6.8043 19.0711 4.92893C17.1957 3.05357 14.6522 2 12 2ZM12 20H5.40999L6.33999 19.07C6.43448 18.9774 6.50965 18.8669 6.56114 18.7451C6.61264 18.6232 6.63944 18.4923 6.63999 18.36C6.63623 18.0962 6.5284 17.8446 6.33999 17.66C5.03057 16.352 4.21516 14.6305 4.03268 12.7888C3.8502 10.947 4.31193 9.09901 5.33922 7.55952C6.3665 6.02004 7.89578 4.88436 9.6665 4.34597C11.4372 3.80759 13.3398 3.8998 15.0502 4.60691C16.7606 5.31402 18.1728 6.59227 19.0464 8.22389C19.92 9.85551 20.2009 11.7395 19.8411 13.555C19.4814 15.3705 18.5033 17.005 17.0735 18.1802C15.6438 19.3554 13.8508 19.9985 12 20ZM16 8C15.7348 8 15.4804 8.10536 15.2929 8.29289C15.1053 8.48043 15 8.73478 15 9V15C15 15.2652 15.1053 15.5196 15.2929 15.7071C15.4804 15.8946 15.7348 16 16 16C16.2652 16 16.5196 15.8946 16.7071 15.7071C16.8946 15.5196 17 15.2652 17 15V9C17 8.73478 16.8946 8.48043 16.7071 8.29289C16.5196 8.10536 16.2652 8 16 8Z" fill="black"/>
</svg>
