<svg width="24" height="24" viewBox="0 0 24 24" fill="none" xmlns="http://www.w3.org/2000/svg">
<path d="M19.85 5.55998L21.64 3.76998C21.7447 3.68033 21.8297 3.57002 21.8897 3.44595C21.9497 3.32189 21.9835 3.18675 21.9888 3.04903C21.9941 2.91131 21.9709 2.77398 21.9206 2.64566C21.8703 2.51733 21.7941 2.40079 21.6966 2.30333C21.5992 2.20588 21.4826 2.12962 21.3543 2.07934C21.226 2.02907 21.0886 2.00586 20.9509 2.01118C20.8132 2.0165 20.6781 2.05023 20.554 2.11025C20.4299 2.17028 20.3196 2.2553 20.23 2.35998L18.44 4.14998L16.64 2.35998C16.4487 2.19615 16.2026 2.11055 15.9509 2.12027C15.6993 2.12999 15.4605 2.23432 15.2824 2.41242C15.1043 2.59051 15 2.82925 14.9903 3.08093C14.9805 3.3326 15.0662 3.57868 15.23 3.76998L17 5.55998L15.21 7.35998C15.0237 7.54734 14.9192 7.80079 14.9192 8.06498C14.9192 8.32917 15.0237 8.58262 15.21 8.76998C15.3973 8.95623 15.6508 9.06077 15.915 9.06077C16.1792 9.06077 16.4326 8.95623 16.62 8.76998L18.44 6.99998L20.23 8.78998C20.4173 8.97623 20.6708 9.08077 20.935 9.08077C21.1992 9.08077 21.4526 8.97623 21.64 8.78998C21.8262 8.60262 21.9308 8.34917 21.9308 8.08498C21.9308 7.82079 21.8262 7.56734 21.64 7.37998L19.85 5.55998ZM19.44 13C19.22 13 18.99 12.93 18.77 12.88C18.3245 12.7818 17.8866 12.6515 17.46 12.49C16.9961 12.3212 16.4861 12.33 16.0283 12.5146C15.5704 12.6992 15.1971 13.0466 14.98 13.49L14.76 13.94C13.786 13.3982 12.891 12.7252 12.1 11.94C11.3147 11.149 10.6418 10.254 10.1 9.27998L10.52 8.99998C10.9633 8.7829 11.3108 8.40951 11.4954 7.95167C11.68 7.49383 11.6888 6.98389 11.52 6.51998C11.3612 6.0924 11.2309 5.65478 11.13 5.20998C11.08 4.98998 11.04 4.75998 11.01 4.52998C10.8885 3.8256 10.5196 3.18772 9.9696 2.73122C9.4196 2.27472 8.72467 2.02959 8.00998 2.03998H5.00998C4.57901 2.03593 4.15223 2.12479 3.75869 2.30051C3.36515 2.47623 3.01409 2.73468 2.72941 3.05826C2.44473 3.38185 2.23311 3.76297 2.10897 4.17569C1.98482 4.58842 1.95106 5.02304 2.00998 5.44998C2.54272 9.63936 4.45601 13.5319 7.44763 16.5126C10.4393 19.4934 14.3387 21.3925 18.53 21.91H18.91C19.6474 21.9111 20.3594 21.6405 20.91 21.15C21.2263 20.867 21.4791 20.5202 21.6514 20.1323C21.8238 19.7444 21.9119 19.3244 21.91 18.9V15.9C21.8977 15.2054 21.6448 14.5365 21.1943 14.0076C20.7439 13.4788 20.1238 13.1226 19.44 13ZM19.94 19C19.9398 19.142 19.9094 19.2823 19.8508 19.4116C19.7921 19.5409 19.7066 19.6563 19.6 19.75C19.4882 19.8465 19.3576 19.9185 19.2164 19.9616C19.0752 20.0046 18.9265 20.0177 18.78 20C15.0349 19.5198 11.5562 17.8065 8.89269 15.1303C6.22917 12.4541 4.53239 8.96732 4.06998 5.21998C4.05406 5.0735 4.06801 4.92531 4.11098 4.78437C4.15395 4.64343 4.22505 4.51267 4.31998 4.39998C4.41369 4.29331 4.52904 4.20782 4.65836 4.1492C4.78767 4.09057 4.92799 4.06016 5.06998 4.05998H8.06998C8.30253 4.05481 8.5296 4.13086 8.71212 4.27505C8.89464 4.41924 9.02119 4.62255 9.06998 4.84998C9.10998 5.12331 9.15998 5.39331 9.21998 5.65998C9.3355 6.18712 9.48924 6.70516 9.67998 7.20998L8.27998 7.85998C8.16028 7.9149 8.0526 7.99293 7.96314 8.08958C7.87367 8.18623 7.80418 8.29959 7.75865 8.42318C7.71312 8.54676 7.69245 8.67811 7.69783 8.8097C7.7032 8.94129 7.73452 9.07053 7.78998 9.18998C9.22918 12.2727 11.7072 14.7508 14.79 16.19C15.0334 16.29 15.3065 16.29 15.55 16.19C15.6747 16.1454 15.7893 16.0764 15.8871 15.9872C15.985 15.8979 16.0641 15.7901 16.12 15.67L16.74 14.27C17.2569 14.4549 17.7846 14.6085 18.32 14.73C18.5866 14.79 18.8566 14.84 19.13 14.88C19.3574 14.9288 19.5607 15.0553 19.7049 15.2378C19.8491 15.4204 19.9252 15.6474 19.92 15.88L19.94 19Z" fill="black"/>
</svg>
