<svg width="24" height="24" viewBox="0 0 24 24" fill="none" xmlns="http://www.w3.org/2000/svg">
<path d="M19.41 13C19.1901 13 18.96 12.93 18.74 12.88C18.2949 12.7805 17.8572 12.6501 17.43 12.49C16.9661 12.3212 16.4562 12.33 15.9984 12.5146C15.5405 12.6992 15.1671 13.0466 14.95 13.49L14.73 13.95C13.7589 13.3992 12.8617 12.7271 12.0601 11.95C11.2829 11.1484 10.6108 10.2512 10.0601 9.28L10.5201 9.07C10.9634 8.85292 11.3108 8.47953 11.4954 8.02169C11.6801 7.56385 11.6888 7.05391 11.5201 6.59C11.3612 6.15903 11.231 5.71808 11.13 5.27C11.08 5.05 11.04 4.82 11.01 4.6C10.8886 3.89562 10.5197 3.25774 9.96967 2.80124C9.41967 2.34474 8.72475 2.09961 8.01005 2.11H5.00005C4.5773 2.10945 4.1592 2.19825 3.77317 2.37058C3.38714 2.54292 3.04189 2.7949 2.76005 3.11C2.47237 3.43365 2.25817 3.81575 2.13215 4.23004C2.00614 4.64432 1.97131 5.08098 2.03005 5.51C2.57364 9.67214 4.47526 13.5387 7.44005 16.51C10.4114 19.4748 14.2779 21.3764 18.4401 21.92C18.5699 21.9299 18.7002 21.9299 18.83 21.92C19.5675 21.9211 20.2794 21.6505 20.83 21.16C21.1452 20.8782 21.3971 20.5329 21.5695 20.1469C21.7418 19.7609 21.8306 19.3428 21.83 18.92V15.92C21.8247 15.229 21.5809 14.5611 21.14 14.0291C20.6991 13.4971 20.088 13.1336 19.41 13ZM19.9 19C19.8997 19.1395 19.8702 19.2775 19.8134 19.4049C19.7565 19.5324 19.6736 19.6465 19.57 19.74C19.4604 19.8399 19.33 19.9141 19.1882 19.9573C19.0464 20.0006 18.8967 20.0117 18.75 19.99C15.0183 19.5026 11.5503 17.802 8.88005 15.15C6.20752 12.4775 4.49208 8.99737 4.00005 5.25C3.97833 5.10333 3.98949 4.95367 4.03272 4.81185C4.07596 4.67003 4.1502 4.5396 4.25005 4.43C4.34467 4.32515 4.46043 4.24154 4.5897 4.18466C4.71897 4.12778 4.85882 4.09892 5.00005 4.1H8.00005C8.23121 4.09435 8.45719 4.16898 8.63951 4.3112C8.82184 4.45341 8.94925 4.65442 9.00005 4.88C9.00005 5.15 9.09005 5.43 9.15005 5.7C9.26563 6.22386 9.41937 6.73857 9.61005 7.24L8.21005 7.9C7.96941 8.01046 7.78241 8.21185 7.69005 8.46C7.59003 8.70346 7.59003 8.97654 7.69005 9.22C9.12925 12.3028 11.6073 14.7808 14.69 16.22C14.9335 16.32 15.2066 16.32 15.45 16.22C15.6982 16.1276 15.8996 15.9406 16.01 15.7L16.64 14.3C17.156 14.4881 17.6838 14.6418 18.22 14.76C18.48 14.82 18.76 14.87 19.0301 14.91C19.2556 14.9608 19.4566 15.0882 19.5989 15.2705C19.7411 15.4529 19.8157 15.6788 19.81 15.91L19.9 19ZM14 2C13.7701 2 13.53 2 13.3 2C13.0348 2.02254 12.7894 2.14952 12.6178 2.353C12.4462 2.55647 12.3625 2.81978 12.385 3.085C12.4076 3.35022 12.5346 3.59562 12.738 3.76721C12.9415 3.93881 13.2048 4.02254 13.47 4H14C15.5913 4 17.1175 4.63214 18.2427 5.75736C19.3679 6.88258 20 8.4087 20 10C20 10.18 20 10.35 20 10.53C19.9779 10.7938 20.0612 11.0556 20.2318 11.2581C20.4024 11.4606 20.6463 11.5871 20.91 11.61H20.99C21.2404 11.611 21.482 11.5181 21.6671 11.3496C21.8523 11.1811 21.9675 10.9493 21.99 10.7C21.99 10.47 21.99 10.23 21.99 10C21.9901 7.88 21.1486 5.84668 19.6504 4.34668C18.1523 2.84667 16.12 2.00265 14 2ZM16 10C16 10.2652 16.1054 10.5196 16.2929 10.7071C16.4805 10.8946 16.7348 11 17 11C17.2653 11 17.5196 10.8946 17.7072 10.7071C17.8947 10.5196 18 10.2652 18 10C18 8.93913 17.5786 7.92172 16.8285 7.17157C16.0783 6.42143 15.0609 6 14 6C13.7348 6 13.4805 6.10536 13.2929 6.29289C13.1054 6.48043 13 6.73478 13 7C13 7.26522 13.1054 7.51957 13.2929 7.70711C13.4805 7.89464 13.7348 8 14 8C14.5305 8 15.0392 8.21071 15.4143 8.58579C15.7893 8.96086 16 9.46957 16 10Z" fill="black"/>
</svg>
