<svg width="24" height="24" viewBox="0 0 24 24" fill="none" xmlns="http://www.w3.org/2000/svg">
<path d="M18.42 8.22002C17.809 6.81602 16.7545 5.65109 15.4181 4.90374C14.0817 4.15639 12.5371 3.86785 11.021 4.08233C9.50489 4.2968 8.10094 5.00247 7.02427 6.09119C5.9476 7.17991 5.2576 8.59163 5.06001 10.11C4.1066 10.3383 3.27023 10.9089 2.70975 11.7132C2.14927 12.5176 1.9037 13.4997 2.01968 14.4732C2.13566 15.4467 2.60511 16.3437 3.33888 16.9939C4.07265 17.644 5.01964 18.0021 6.00001 18C6.26523 18 6.51958 17.8947 6.70712 17.7071C6.89466 17.5196 7.00001 17.2652 7.00001 17C7.00001 16.7348 6.89466 16.4804 6.70712 16.2929C6.51958 16.1054 6.26523 16 6.00001 16C5.46958 16 4.96087 15.7893 4.5858 15.4142C4.21073 15.0392 4.00001 14.5304 4.00001 14C4.00001 13.4696 4.21073 12.9609 4.5858 12.5858C4.96087 12.2107 5.46958 12 6.00001 12C6.26523 12 6.51958 11.8947 6.70712 11.7071C6.89466 11.5196 7.00001 11.2652 7.00001 11C7.00257 9.8173 7.4243 8.67377 8.19028 7.7726C8.95627 6.87143 10.0169 6.27097 11.1838 6.07789C12.3506 5.88481 13.5481 6.11162 14.5636 6.71803C15.579 7.32443 16.3466 8.27116 16.73 9.39002C16.7872 9.56186 16.8899 9.71495 17.0273 9.83295C17.1647 9.95095 17.3315 10.0294 17.51 10.06C18.1761 10.1859 18.7799 10.5336 19.223 11.0466C19.6662 11.5595 19.9226 12.2074 19.9504 12.8847C19.9782 13.5619 19.7759 14.2287 19.3763 14.7762C18.9767 15.3238 18.4035 15.7199 17.75 15.9C17.4928 15.9663 17.2724 16.1321 17.1373 16.3609C17.0023 16.5897 16.9637 16.8628 17.03 17.12C17.0963 17.3773 17.2621 17.5977 17.4909 17.7327C17.7197 17.8677 17.9928 17.9063 18.25 17.84C19.3024 17.5619 20.2353 16.948 20.907 16.0915C21.5787 15.235 21.9526 14.1826 21.9718 13.0943C21.9911 12.0059 21.6546 10.9411 21.0136 10.0613C20.3725 9.18161 19.4619 8.53512 18.42 8.22002ZM14.71 14.29C14.617 14.1963 14.5064 14.1219 14.3846 14.0711C14.2627 14.0204 14.132 13.9942 14 13.9942C13.868 13.9942 13.7373 14.0204 13.6154 14.0711C13.4936 14.1219 13.383 14.1963 13.29 14.29L12 15.59L10.71 14.29C10.5217 14.1017 10.2663 13.9959 10 13.9959C9.73371 13.9959 9.47832 14.1017 9.29001 14.29C9.10171 14.4783 8.99592 14.7337 8.99592 15C8.99592 15.2663 9.10171 15.5217 9.29001 15.71L10.59 17L9.29001 18.29C9.19628 18.383 9.12189 18.4936 9.07112 18.6154C9.02035 18.7373 8.99421 18.868 8.99421 19C8.99421 19.132 9.02035 19.2627 9.07112 19.3846C9.12189 19.5065 9.19628 19.6171 9.29001 19.71C9.38298 19.8037 9.49358 19.8781 9.61544 19.9289C9.73729 19.9797 9.868 20.0058 10 20.0058C10.132 20.0058 10.2627 19.9797 10.3846 19.9289C10.5064 19.8781 10.617 19.8037 10.71 19.71L12 18.41L13.29 19.71C13.383 19.8037 13.4936 19.8781 13.6154 19.9289C13.7373 19.9797 13.868 20.0058 14 20.0058C14.132 20.0058 14.2627 19.9797 14.3846 19.9289C14.5064 19.8781 14.617 19.8037 14.71 19.71C14.8037 19.6171 14.8781 19.5065 14.9289 19.3846C14.9797 19.2627 15.0058 19.132 15.0058 19C15.0058 18.868 14.9797 18.7373 14.9289 18.6154C14.8781 18.4936 14.8037 18.383 14.71 18.29L13.41 17L14.71 15.71C14.8037 15.6171 14.8781 15.5065 14.9289 15.3846C14.9797 15.2627 15.0058 15.132 15.0058 15C15.0058 14.868 14.9797 14.7373 14.9289 14.6154C14.8781 14.4936 14.8037 14.383 14.71 14.29Z" fill="black"/>
</svg>
