<svg width="24" height="24" viewBox="0 0 24 24" fill="none" xmlns="http://www.w3.org/2000/svg">
<path d="M21.12 16.88C20.6818 16.4453 20.1202 16.1563 19.5117 16.0525C18.9032 15.9487 18.2776 16.0351 17.72 16.3L16.57 15.16C18.9261 12.6176 20.7036 9.59491 21.78 6.29999C21.9843 5.73076 22.0225 5.11518 21.8903 4.52503C21.7581 3.93489 21.4608 3.39449 21.0332 2.96685C20.6055 2.5392 20.0651 2.24193 19.475 2.1097C18.8848 1.97747 18.2693 2.01572 17.7 2.21999C14.4051 3.29646 11.3825 5.07388 8.84002 7.42999L7.70002 6.27999C7.93685 5.78309 8.0324 5.2306 7.97621 4.68301C7.92002 4.13542 7.71425 3.61385 7.38143 3.1754C7.04861 2.73695 6.60157 2.39852 6.08926 2.19717C5.57695 1.99581 5.01911 1.9393 4.47682 2.0338C3.93454 2.12831 3.4287 2.3702 3.01471 2.73298C2.60071 3.09577 2.29451 3.56547 2.12963 4.09066C1.96474 4.61584 1.94754 5.17627 2.07989 5.71058C2.21225 6.2449 2.48906 6.73249 2.88002 7.11999C3.44209 7.68276 4.20464 7.99929 5.00002 7.99999C5.44362 7.99586 5.88078 7.8934 6.28002 7.69999L7.43002 8.83999C5.07391 11.3824 3.29649 14.4051 2.22002 17.7C2.03253 18.2684 2.00616 18.8777 2.14384 19.4602C2.28152 20.0427 2.57787 20.5757 3.00002 21C3.28589 21.3048 3.62919 21.55 4.01018 21.7216C4.39117 21.8933 4.80233 21.9879 5.22002 22C5.5864 21.9965 5.95029 21.9393 6.30002 21.83C9.59494 20.7535 12.6176 18.9761 15.16 16.62L16.3 17.77C16.0632 18.2669 15.9676 18.8194 16.0238 19.367C16.08 19.9146 16.2858 20.4361 16.6186 20.8746C16.9514 21.313 17.3985 21.6515 17.9108 21.8528C18.4231 22.0542 18.9809 22.1107 19.5232 22.0162C20.0655 21.9217 20.5713 21.6798 20.9853 21.317C21.3993 20.9542 21.7055 20.4845 21.8704 19.9593C22.0353 19.4341 22.0525 18.8737 21.9201 18.3394C21.7878 17.8051 21.511 17.3175 21.12 16.93V16.88ZM5.71002 5.69999C5.52304 5.8883 5.26892 5.99461 5.00355 5.99555C4.73819 5.99649 4.48332 5.89197 4.29502 5.70499C4.10672 5.51802 4.0004 5.26389 3.99946 4.99853C3.99853 4.73317 4.10304 4.4783 4.29002 4.28999C4.477 4.10169 4.73112 3.99538 4.99648 3.99444C5.26185 3.9935 5.51672 4.09802 5.70502 4.28499C5.89332 4.47197 5.99964 4.72609 6.00058 4.99146C6.00151 5.25682 5.897 5.51169 5.71002 5.69999ZM18.31 4.12999C18.4618 4.08 18.6202 4.05304 18.78 4.04999C18.934 4.04874 19.0867 4.07815 19.2292 4.13653C19.3717 4.1949 19.5012 4.28107 19.61 4.38999C19.773 4.55922 19.8841 4.77159 19.9302 5.00197C19.9762 5.23235 19.9554 5.4711 19.87 5.68999C19.3417 7.31379 18.627 8.87085 17.74 10.33L13.67 6.25999C15.1292 5.37304 16.6862 4.65827 18.31 4.12999ZM5.69002 19.87C5.47195 19.9573 5.23305 19.9787 5.00295 19.9314C4.77284 19.8842 4.56165 19.7706 4.39556 19.6045C4.22946 19.4384 4.11576 19.2272 4.06856 18.9971C4.02136 18.767 4.04273 18.5281 4.13002 18.31C4.6583 16.6862 5.37307 15.1291 6.26002 13.67L10.33 17.74C8.87088 18.6269 7.31381 19.3417 5.69002 19.87ZM12 16.59L7.41002 12C7.85565 11.3952 8.33299 10.8144 8.84002 10.26L13.75 15.17C13.1922 15.6739 12.608 16.1479 12 16.59ZM15.15 13.75L10.25 8.83999C10.8076 8.33268 11.3918 7.85534 12 7.40999L16.6 12.01C16.1511 12.6151 15.6705 13.1959 15.16 13.75H15.15ZM19.7 19.75C19.6074 19.8432 19.4974 19.9173 19.3762 19.968C19.255 20.0187 19.125 20.0451 18.9936 20.0456C18.8622 20.046 18.732 20.0206 18.6104 19.9707C18.4888 19.9209 18.3783 19.8476 18.285 19.755C18.1918 19.6624 18.1177 19.5524 18.067 19.4312C18.0163 19.3099 17.9899 19.1799 17.9895 19.0485C17.989 18.9171 18.0144 18.7869 18.0643 18.6654C18.1141 18.5438 18.1874 18.4332 18.28 18.34C18.4674 18.1537 18.7208 18.0492 18.985 18.0492C19.2492 18.0492 19.5027 18.1537 19.69 18.34C19.8671 18.5229 19.9678 18.7665 19.9715 19.021C19.9752 19.2756 19.8817 19.522 19.71 19.71L19.7 19.75Z" fill="black"/>
</svg>
