<svg width="24" height="24" viewBox="0 0 24 24" fill="none" xmlns="http://www.w3.org/2000/svg">
<path d="M7.5 4C7.63161 4.00076 7.76207 3.97554 7.88391 3.92577C8.00574 3.87601 8.11656 3.80268 8.21 3.71L9.21 2.71C9.3983 2.5217 9.50409 2.2663 9.50409 2C9.50409 1.7337 9.3983 1.47831 9.21 1.29C9.0217 1.1017 8.7663 0.995911 8.5 0.995911C8.2337 0.995911 7.9783 1.1017 7.79 1.29L6.79 2.29C6.69627 2.38297 6.62188 2.49357 6.57111 2.61543C6.52034 2.73728 6.4942 2.86799 6.4942 3C6.4942 3.13201 6.52034 3.26272 6.57111 3.38458C6.62188 3.50644 6.69627 3.61704 6.79 3.71C6.88344 3.80268 6.99426 3.87601 7.11609 3.92577C7.23793 3.97554 7.36839 4.00076 7.5 4ZM11.5 4C11.6316 4.00076 11.7621 3.97554 11.8839 3.92577C12.0057 3.87601 12.1166 3.80268 12.21 3.71L13.21 2.71C13.3983 2.5217 13.5041 2.2663 13.5041 2C13.5041 1.7337 13.3983 1.47831 13.21 1.29C13.0217 1.1017 12.7663 0.995911 12.5 0.995911C12.2337 0.995911 11.9783 1.1017 11.79 1.29L10.79 2.29C10.6963 2.38297 10.6219 2.49357 10.5711 2.61543C10.5203 2.73728 10.4942 2.86799 10.4942 3C10.4942 3.13201 10.5203 3.26272 10.5711 3.38458C10.6219 3.50644 10.6963 3.61704 10.79 3.71C10.8834 3.80268 10.9943 3.87601 11.1161 3.92577C11.2379 3.97554 11.3684 4.00076 11.5 4ZM15.5 4C15.6316 4.00076 15.7621 3.97554 15.8839 3.92577C16.0057 3.87601 16.1166 3.80268 16.21 3.71L17.21 2.71C17.3032 2.61676 17.3772 2.50607 17.4277 2.38425C17.4781 2.26243 17.5041 2.13186 17.5041 2C17.5041 1.86814 17.4781 1.73758 17.4277 1.61575C17.3772 1.49393 17.3032 1.38324 17.21 1.29C17.1168 1.19676 17.0061 1.1228 16.8842 1.07234C16.7624 1.02188 16.6319 0.995911 16.5 0.995911C16.3681 0.995911 16.2376 1.02188 16.1158 1.07234C15.9939 1.1228 15.8832 1.19676 15.79 1.29L14.79 2.29C14.6963 2.38297 14.6219 2.49357 14.5711 2.61543C14.5203 2.73728 14.4942 2.86799 14.4942 3C14.4942 3.13201 14.5203 3.26272 14.5711 3.38458C14.6219 3.50644 14.6963 3.61704 14.79 3.71C14.8834 3.80268 14.9943 3.87601 15.1161 3.92577C15.2379 3.97554 15.3684 4.00076 15.5 4ZM17.92 15.62C17.8981 15.5563 17.8678 15.4957 17.83 15.44L17.71 15.29L17.56 15.17C17.5043 15.1322 17.4437 15.1019 17.38 15.08C17.3205 15.0496 17.2562 15.0293 17.19 15.02C17.0293 14.9878 16.8632 14.9956 16.7063 15.0427C16.5494 15.0898 16.4064 15.1747 16.29 15.29C16.247 15.3375 16.2069 15.3876 16.17 15.44C16.1322 15.4957 16.1019 15.5563 16.08 15.62C16.0512 15.6767 16.0309 15.7374 16.02 15.8C16.0151 15.8666 16.0151 15.9334 16.02 16C16.0211 16.2623 16.1253 16.5137 16.31 16.7C16.4025 16.7967 16.5152 16.8718 16.64 16.92C16.754 16.9688 16.8761 16.9959 17 17C17.2652 17 17.5196 16.8946 17.7071 16.7071C17.8946 16.5196 18 16.2652 18 16C18.0049 15.9334 18.0049 15.8666 18 15.8C17.9828 15.7362 17.9558 15.6755 17.92 15.62ZM19.76 11.11L18.4 7.05C18.1926 6.46323 17.8077 5.95551 17.2989 5.59716C16.7901 5.23882 16.1824 5.0476 15.56 5.05H8.44C7.81764 5.0476 7.20995 5.23882 6.7011 5.59716C6.19225 5.95551 5.80745 6.46323 5.6 7.05L4.24 11.11C3.60033 11.2775 3.03392 11.6517 2.62883 12.1743C2.22374 12.6969 2.00268 13.3388 2 14V18C2.00174 18.6189 2.19488 19.2222 2.55294 19.7271C2.911 20.2319 3.41645 20.6137 4 20.82V22C4 22.2652 4.10536 22.5196 4.29289 22.7071C4.48043 22.8946 4.73478 23 5 23C5.26522 23 5.51957 22.8946 5.70711 22.7071C5.89464 22.5196 6 22.2652 6 22V21H18V22C18 22.2652 18.1054 22.5196 18.2929 22.7071C18.4804 22.8946 18.7348 23 19 23C19.2652 23 19.5196 22.8946 19.7071 22.7071C19.8946 22.5196 20 22.2652 20 22V20.82C20.5835 20.6137 21.089 20.2319 21.4471 19.7271C21.8051 19.2222 21.9983 18.6189 22 18V14C21.9973 13.3388 21.7763 12.6969 21.3712 12.1743C20.9661 11.6517 20.3997 11.2775 19.76 11.11ZM7.49 7.68C7.55709 7.48138 7.6849 7.30887 7.85537 7.18684C8.02584 7.06482 8.23036 6.99946 8.44 7H15.56C15.7781 6.98862 15.9939 7.04893 16.1744 7.17172C16.355 7.2945 16.4904 7.47302 16.56 7.68L17.61 11H6.39L7.49 7.68ZM20 18C20 18.2652 19.8946 18.5196 19.7071 18.7071C19.5196 18.8946 19.2652 19 19 19H5C4.73478 19 4.48043 18.8946 4.29289 18.7071C4.10536 18.5196 4 18.2652 4 18V14C4 13.7348 4.10536 13.4804 4.29289 13.2929C4.48043 13.1054 4.73478 13 5 13H19C19.2652 13 19.5196 13.1054 19.7071 13.2929C19.8946 13.4804 20 13.7348 20 14V18ZM13 15H11C10.7348 15 10.4804 15.1054 10.2929 15.2929C10.1054 15.4804 10 15.7348 10 16C10 16.2652 10.1054 16.5196 10.2929 16.7071C10.4804 16.8946 10.7348 17 11 17H13C13.2652 17 13.5196 16.8946 13.7071 16.7071C13.8946 16.5196 14 16.2652 14 16C14 15.7348 13.8946 15.4804 13.7071 15.2929C13.5196 15.1054 13.2652 15 13 15ZM7.92 15.62C7.89811 15.5563 7.86785 15.4957 7.83 15.44L7.71 15.29C7.56938 15.1512 7.3908 15.0572 7.19681 15.0199C7.00282 14.9825 6.80211 15.0034 6.62 15.08C6.49725 15.1276 6.3851 15.199 6.29 15.29C6.24699 15.3375 6.20692 15.3876 6.17 15.44C6.13215 15.4957 6.10189 15.5563 6.08 15.62C6.0442 15.6755 6.01722 15.7362 6 15.8C5.99509 15.8666 5.99509 15.9334 6 16C6.00083 16.1978 6.06028 16.3909 6.17085 16.5548C6.28141 16.7188 6.43812 16.8463 6.62115 16.9213C6.80418 16.9962 7.00532 17.0152 7.19913 16.9758C7.39295 16.9364 7.57073 16.8404 7.71 16.7C7.89474 16.5137 7.9989 16.2623 8 16C8.00491 15.9334 8.00491 15.8666 8 15.8C7.98278 15.7362 7.9558 15.6755 7.92 15.62Z" fill="black"/>
</svg>
