<svg width="24" height="24" viewBox="0 0 24 24" fill="none" xmlns="http://www.w3.org/2000/svg">
<path d="M21.06 12.28C21.0529 10.7786 20.4526 9.34079 19.39 8.28001L14 2.81001C13.4694 2.27997 12.75 1.98224 12 1.98224C11.25 1.98224 10.5306 2.27997 10 2.81001L4.61001 8.23001C3.54739 9.29079 2.94711 10.7286 2.94001 12.23C2.93071 12.9861 3.07195 13.7365 3.3555 14.4375C3.63904 15.1384 4.05922 15.776 4.59157 16.313C5.12391 16.85 5.75778 17.2757 6.45626 17.5653C7.15474 17.855 7.90386 18.0027 8.66001 18C8.40871 18.8628 7.99084 19.6679 7.43001 20.37C7.309 20.5189 7.23341 20.6995 7.21224 20.8903C7.19107 21.081 7.22522 21.2738 7.31061 21.4456C7.396 21.6174 7.52904 21.7611 7.69383 21.8594C7.85863 21.9577 8.04823 22.0065 8.24001 22H15.76C15.9492 22.0007 16.1348 21.9476 16.2951 21.847C16.4553 21.7464 16.5838 21.6024 16.6655 21.4317C16.7471 21.261 16.7787 21.0706 16.7565 20.8827C16.7343 20.6947 16.6592 20.517 16.54 20.37C15.9783 19.6685 15.5603 18.8631 15.31 18C16.0639 18.008 16.812 17.866 17.5105 17.5824C18.2091 17.2987 18.8444 16.8791 19.3794 16.3478C19.9144 15.8165 20.3385 15.1842 20.627 14.4876C20.9155 13.791 21.0627 13.044 21.06 12.29V12.28ZM18 14.91C17.5271 15.3758 16.9398 15.7088 16.2973 15.8756C15.6548 16.0423 14.9798 16.037 14.34 15.86C14.2834 15.8552 14.2266 15.8552 14.17 15.86H13.97C13.8952 15.874 13.8216 15.8941 13.75 15.92H13.6C13.5523 15.9512 13.5086 15.9881 13.47 16.03C13.4068 16.0681 13.3495 16.1152 13.3 16.17C13.2839 16.2087 13.2638 16.2455 13.24 16.28C13.1961 16.3546 13.156 16.4313 13.12 16.51C13.1151 16.5699 13.1151 16.6301 13.12 16.69C13.12 16.75 13.12 16.81 13.12 16.87C13.1984 17.9549 13.4764 19.016 13.94 20H10.06C10.5337 19.062 10.832 18.0453 10.94 17C10.94 16.94 10.94 16.88 10.94 16.81C10.9449 16.7501 10.9449 16.6899 10.94 16.63C10.9066 16.545 10.863 16.4644 10.81 16.39C10.7937 16.3546 10.7736 16.321 10.75 16.29C10.7065 16.2332 10.6521 16.1856 10.59 16.15C10.5492 16.1105 10.5058 16.0737 10.46 16.04H10.32C10.2469 16.0063 10.1695 15.9827 10.09 15.97H9.9C9.84011 15.9651 9.7799 15.9651 9.72001 15.97C9.06177 16.1415 8.36964 16.1336 7.71548 15.9472C7.06132 15.7608 6.469 15.4027 6.00001 14.91C5.30509 14.2107 4.9135 13.2659 4.91001 12.28C4.90847 11.7913 5.00404 11.3071 5.19116 10.8557C5.37827 10.4042 5.65321 9.99437 6.00001 9.65001L11.4 4.23002C11.5512 4.0828 11.754 4.00042 11.965 4.00042C12.1761 4.00042 12.3788 4.0828 12.53 4.23002L18 9.65001C18.3468 9.99437 18.6217 10.4042 18.8089 10.8557C18.996 11.3071 19.0915 11.7913 19.09 12.28C19.0833 13.2652 18.6922 14.2089 18 14.91Z" fill="black"/>
</svg>
