<svg width="24" height="24" viewBox="0 0 24 24" fill="none" xmlns="http://www.w3.org/2000/svg">
<path d="M21 12.5C20.9957 11.393 20.6588 10.3129 20.0329 9.39986C19.4069 8.48683 18.521 7.78308 17.49 7.38C17.49 5.92131 16.9105 4.52237 15.8791 3.49092C14.8476 2.45947 13.4487 1.88 11.99 1.88C10.5313 1.88 9.13233 2.45947 8.10088 3.49092C7.06943 4.52237 6.48997 5.92131 6.48997 7.38C5.29708 7.84805 4.30505 8.71793 3.68518 9.83945C3.0653 10.961 2.85649 12.2637 3.09479 13.5228C3.33309 14.7819 4.00354 15.9182 4.99039 16.7357C5.97724 17.5531 7.21854 18.0003 8.49997 18H8.69997C8.44735 18.8703 8.02602 19.6824 7.45997 20.39C7.34666 20.5372 7.27657 20.713 7.25756 20.8978C7.23856 21.0825 7.27138 21.2689 7.35237 21.4361C7.43335 21.6032 7.55928 21.7445 7.71606 21.8441C7.87283 21.9437 8.05425 21.9977 8.23997 22H15.76C15.9492 22.0007 16.1347 21.9476 16.295 21.847C16.4553 21.7464 16.5837 21.6024 16.6654 21.4317C16.7471 21.261 16.7787 21.0706 16.7565 20.8827C16.7343 20.6947 16.6592 20.517 16.54 20.37C15.9762 19.6683 15.555 18.8632 15.3 18H15.5C16.9578 17.9974 18.3553 17.417 19.3861 16.3862C20.417 15.3553 20.9973 13.9579 21 12.5ZM10.06 20C10.458 19.1926 10.7311 18.3294 10.87 17.44C11.2737 17.2535 11.6532 17.0184 12 16.74C12.3468 17.0184 12.7262 17.2535 13.13 17.44C13.2688 18.3294 13.5419 19.1926 13.94 20H10.06ZM12.78 14.7L12.7 14.62L12.62 14.54H12.55L12.37 14.45L12.19 14.39H11.81L11.63 14.45C11.5685 14.47 11.511 14.5004 11.46 14.54H11.38L11.3 14.62L11.22 14.7C10.8683 15.1348 10.4175 15.4791 9.9054 15.7038C9.3933 15.9286 8.83479 16.0274 8.27665 15.9919C7.71852 15.9565 7.17701 15.7878 6.69749 15.5C6.21797 15.2122 5.8144 14.8136 5.52059 14.3378C5.22677 13.8619 5.05127 13.3226 5.00878 12.7649C4.96628 12.2073 5.05804 11.6476 5.27636 11.1327C5.49468 10.6178 5.83321 10.1627 6.26359 9.80558C6.69396 9.44844 7.20365 9.19964 7.74997 9.08C7.80537 9.05769 7.85888 9.03093 7.90997 9C7.97175 8.97754 8.03189 8.95081 8.08997 8.92C8.14149 8.8822 8.18846 8.83858 8.22997 8.79C8.33025 8.71078 8.40359 8.60251 8.43997 8.48C8.47176 8.4272 8.49536 8.36988 8.50997 8.31001C8.51968 8.24369 8.51968 8.17632 8.50997 8.11C8.5148 8.05344 8.5148 7.99657 8.50997 7.94C8.50003 7.79017 8.50003 7.63984 8.50997 7.49C8.50997 6.56175 8.87872 5.67151 9.5351 5.01513C10.1915 4.35875 11.0817 3.99001 12.01 3.99001C12.9382 3.99001 13.8285 4.35875 14.4848 5.01513C15.1412 5.67151 15.51 6.56175 15.51 7.49C15.5199 7.63984 15.5199 7.79017 15.51 7.94C15.5047 7.99321 15.5047 8.0468 15.51 8.10001C15.5 8.16965 15.5 8.24036 15.51 8.31001C15.5246 8.36988 15.5482 8.4272 15.58 8.48C15.6163 8.60251 15.6897 8.71078 15.79 8.79C15.8315 8.83858 15.8785 8.8822 15.93 8.92C15.988 8.95081 16.0482 8.97754 16.11 9C16.1614 9.0275 16.2149 9.05091 16.27 9.07C16.8163 9.18964 17.326 9.43844 17.7564 9.79558C18.1867 10.1527 18.5253 10.6078 18.7436 11.1227C18.9619 11.6376 19.0537 12.1973 19.0112 12.7549C18.9687 13.3126 18.7932 13.8519 18.4994 14.3278C18.2055 14.8036 17.802 15.2022 17.3224 15.49C16.8429 15.7778 16.3014 15.9465 15.7433 15.9819C15.1852 16.0174 14.6266 15.9186 14.1145 15.6938C13.6024 15.4691 13.1517 15.1248 12.8 14.69L12.78 14.7Z" fill="black"/>
</svg>
