<svg width="24" height="24" viewBox="0 0 24 24" fill="none" xmlns="http://www.w3.org/2000/svg">
<path d="M20 10.35L14.22 2.94C13.9297 2.6377 13.5803 2.39827 13.1936 2.23656C12.8069 2.07485 12.3911 1.99431 11.972 1.99994C11.5529 2.00557 11.1394 2.09724 10.7572 2.26927C10.3749 2.44129 10.0321 2.69002 9.75001 3L4.00001 10.35C3.68165 10.8416 3.51155 11.4144 3.51001 12C3.52671 12.5614 3.69612 13.1077 4.00001 13.58L4.06001 13.65L9.80001 21.06C10.0826 21.3592 10.4238 21.5971 10.8023 21.7588C11.1807 21.9205 11.5884 22.0026 12 22C12.4255 21.9996 12.8463 21.9105 13.2355 21.7383C13.6246 21.5661 13.9735 21.3147 14.26 21L20 13.65C20.3137 13.1543 20.4753 12.5775 20.4646 11.991C20.4539 11.4045 20.2716 10.8339 19.94 10.35H20ZM18.43 12.49L12.76 19.71C12.5689 19.886 12.3222 19.9894 12.0627 20.0022C11.8032 20.015 11.5475 19.9363 11.34 19.78L5.65001 12.47C5.56506 12.3274 5.51694 12.1659 5.51001 12C5.51149 11.8447 5.54555 11.6914 5.61001 11.55L11.28 4.33C11.4711 4.15401 11.7179 4.05062 11.9773 4.03783C12.2368 4.02503 12.4925 4.10366 12.7 4.26L18.33 11.54C18.434 11.701 18.4895 11.8884 18.49 12.08C18.4832 12.2218 18.4493 12.361 18.39 12.49H18.43Z" fill="black"/>
</svg>
