<svg width="24" height="24" viewBox="0 0 24 24" fill="none" xmlns="http://www.w3.org/2000/svg">
<path d="M17 9H6.99999C6.73477 9 6.48042 9.10536 6.29288 9.29289C6.10535 9.48043 5.99999 9.73478 5.99999 10C5.99999 10.2652 6.10535 10.5196 6.29288 10.7071C6.48042 10.8946 6.73477 11 6.99999 11H17C17.2652 11 17.5196 10.8946 17.7071 10.7071C17.8946 10.5196 18 10.2652 18 10C18 9.73478 17.8946 9.48043 17.7071 9.29289C17.5196 9.10536 17.2652 9 17 9ZM13 13H6.99999C6.73477 13 6.48042 13.1054 6.29288 13.2929C6.10535 13.4804 5.99999 13.7348 5.99999 14C5.99999 14.2652 6.10535 14.5196 6.29288 14.7071C6.48042 14.8946 6.73477 15 6.99999 15H13C13.2652 15 13.5196 14.8946 13.7071 14.7071C13.8946 14.5196 14 14.2652 14 14C14 13.7348 13.8946 13.4804 13.7071 13.2929C13.5196 13.1054 13.2652 13 13 13ZM12 2C10.6868 2 9.38641 2.25866 8.17315 2.7612C6.9599 3.26375 5.85751 4.00035 4.92892 4.92893C3.05356 6.8043 1.99999 9.34784 1.99999 12C1.99125 14.3091 2.79078 16.5485 4.25999 18.33L2.25999 20.33C2.12123 20.4706 2.02723 20.6492 1.98986 20.8432C1.95249 21.0372 1.97341 21.2379 2.04999 21.42C2.13305 21.5999 2.26769 21.7511 2.43683 21.8544C2.60598 21.9577 2.80199 22.0083 2.99999 22H12C14.6522 22 17.1957 20.9464 19.0711 19.0711C20.9464 17.1957 22 14.6522 22 12C22 9.34784 20.9464 6.8043 19.0711 4.92893C17.1957 3.05357 14.6522 2 12 2ZM12 20H5.40999L6.33999 19.07C6.52624 18.8826 6.63078 18.6292 6.63078 18.365C6.63078 18.1008 6.52624 17.8474 6.33999 17.66C5.03057 16.352 4.21516 14.6305 4.03268 12.7888C3.8502 10.947 4.31193 9.09901 5.33922 7.55952C6.3665 6.02004 7.89578 4.88436 9.6665 4.34597C11.4372 3.80759 13.3398 3.8998 15.0502 4.60691C16.7606 5.31402 18.1728 6.59227 19.0464 8.22389C19.92 9.85551 20.2009 11.7395 19.8411 13.555C19.4814 15.3705 18.5033 17.005 17.0735 18.1802C15.6438 19.3554 13.8508 19.9985 12 20Z" fill="black"/>
</svg>
