<svg width="24" height="24" viewBox="0 0 24 24" fill="none" xmlns="http://www.w3.org/2000/svg">
<path d="M11 11H17C17.2652 11 17.5196 10.8946 17.7071 10.7071C17.8946 10.5196 18 10.2652 18 10C18 9.73478 17.8946 9.48043 17.7071 9.29289C17.5196 9.10536 17.2652 9 17 9H11C10.7348 9 10.4804 9.10536 10.2929 9.29289C10.1053 9.48043 9.99999 9.73478 9.99999 10C9.99999 10.2652 10.1053 10.5196 10.2929 10.7071C10.4804 10.8946 10.7348 11 11 11ZM6.99999 9C6.80221 9 6.60887 9.05865 6.44442 9.16853C6.27997 9.27841 6.1518 9.43459 6.07611 9.61732C6.00042 9.80004 5.98062 10.0011 6.0192 10.1951C6.05779 10.3891 6.15303 10.5673 6.29288 10.7071C6.43273 10.847 6.61092 10.9422 6.8049 10.9808C6.99888 11.0194 7.19995 10.9996 7.38267 10.9239C7.5654 10.8482 7.72158 10.72 7.83146 10.5556C7.94134 10.3911 7.99999 10.1978 7.99999 10C7.99999 9.73478 7.89463 9.48043 7.70709 9.29289C7.51956 9.10536 7.2652 9 6.99999 9ZM6.99999 13C6.80221 13 6.60887 13.0586 6.44442 13.1685C6.27997 13.2784 6.1518 13.4346 6.07611 13.6173C6.00042 13.8 5.98062 14.0011 6.0192 14.1951C6.05779 14.3891 6.15303 14.5673 6.29288 14.7071C6.43273 14.847 6.61092 14.9422 6.8049 14.9808C6.99888 15.0194 7.19995 14.9996 7.38267 14.9239C7.5654 14.8482 7.72158 14.72 7.83146 14.5556C7.94134 14.3911 7.99999 14.1978 7.99999 14C7.99999 13.7348 7.89463 13.4804 7.70709 13.2929C7.51956 13.1054 7.2652 13 6.99999 13ZM12 2C10.6868 2 9.38641 2.25866 8.17315 2.7612C6.9599 3.26375 5.85751 4.00035 4.92892 4.92893C3.05356 6.8043 1.99999 9.34784 1.99999 12C1.99125 14.3091 2.79078 16.5485 4.25999 18.33L2.25999 20.33C2.12123 20.4706 2.02723 20.6492 1.98986 20.8432C1.95249 21.0372 1.97341 21.2379 2.04999 21.42C2.13305 21.5999 2.26769 21.7511 2.43683 21.8544C2.60598 21.9577 2.80199 22.0083 2.99999 22H12C14.6522 22 17.1957 20.9464 19.0711 19.0711C20.9464 17.1957 22 14.6522 22 12C22 9.34784 20.9464 6.8043 19.0711 4.92893C17.1957 3.05357 14.6522 2 12 2ZM12 20H5.40999L6.33999 19.07C6.43448 18.9774 6.50965 18.8669 6.56114 18.7451C6.61264 18.6232 6.63944 18.4923 6.63999 18.36C6.63623 18.0962 6.5284 17.8446 6.33999 17.66C5.03057 16.352 4.21516 14.6305 4.03268 12.7888C3.8502 10.947 4.31193 9.09901 5.33922 7.55952C6.3665 6.02004 7.89578 4.88436 9.6665 4.34597C11.4372 3.80759 13.3398 3.8998 15.0502 4.60691C16.7606 5.31402 18.1728 6.59227 19.0464 8.22389C19.92 9.85551 20.2009 11.7395 19.8411 13.555C19.4814 15.3705 18.5033 17.005 17.0735 18.1802C15.6438 19.3554 13.8508 19.9985 12 20ZM17 13H11C10.7348 13 10.4804 13.1054 10.2929 13.2929C10.1053 13.4804 9.99999 13.7348 9.99999 14C9.99999 14.2652 10.1053 14.5196 10.2929 14.7071C10.4804 14.8946 10.7348 15 11 15H17C17.2652 15 17.5196 14.8946 17.7071 14.7071C17.8946 14.5196 18 14.2652 18 14C18 13.7348 17.8946 13.4804 17.7071 13.2929C17.5196 13.1054 17.2652 13 17 13Z" fill="black"/>
</svg>
