<svg width="24" height="24" viewBox="0 0 24 24" fill="none" xmlns="http://www.w3.org/2000/svg">
<path d="M19.29 3.71002C19.383 3.80375 19.4936 3.87814 19.6154 3.92891C19.7373 3.97968 19.868 4.00582 20 4.00582C20.132 4.00582 20.2627 3.97968 20.3846 3.92891C20.5064 3.87814 20.617 3.80375 20.71 3.71002C20.7983 3.61282 20.8694 3.5012 20.92 3.38002C20.9712 3.2598 20.9984 3.13069 21 3.00002C21.0008 2.86841 20.9755 2.73795 20.9258 2.61611C20.876 2.49427 20.8027 2.38346 20.71 2.29002L20.56 2.17002C20.5043 2.13217 20.4437 2.10191 20.38 2.08002C20.1979 2.00344 19.9972 1.98252 19.8032 2.01989C19.6092 2.05726 19.4306 2.15126 19.29 2.29002C19.1973 2.38346 19.124 2.49427 19.0742 2.61611C19.0245 2.73795 18.9992 2.86841 19 3.00002C19.0016 3.13069 19.0288 3.2598 19.08 3.38002C19.1306 3.5012 19.2017 3.61282 19.29 3.71002ZM20 5.00002C19.7348 5.00002 19.4804 5.10537 19.2929 5.29291C19.1054 5.48045 19 5.7348 19 6.00002V10C19 10.2652 19.1054 10.5196 19.2929 10.7071C19.4804 10.8947 19.7348 11 20 11C20.2652 11 20.5196 10.8947 20.7071 10.7071C20.8946 10.5196 21 10.2652 21 10V6.00002C21 5.7348 20.8946 5.48045 20.7071 5.29291C20.5196 5.10537 20.2652 5.00002 20 5.00002ZM20.06 13C19.7976 12.9689 19.5335 13.043 19.3255 13.206C19.1175 13.369 18.9825 13.6078 18.95 13.87C18.7379 15.5634 17.9145 17.1209 16.6346 18.2498C15.3548 19.3786 13.7066 20.0011 12 20H6.41L7.05 19.37C7.23625 19.1827 7.3408 18.9292 7.3408 18.665C7.3408 18.4008 7.23625 18.1474 7.05 17.96C6.06749 16.9816 5.3977 15.7334 5.12559 14.3737C4.85347 13.0141 4.99128 11.6043 5.52155 10.3231C6.05181 9.04186 6.95064 7.947 8.10403 7.17735C9.25742 6.4077 10.6134 5.99793 12 6.00002C13.2261 5.99816 14.4307 6.3226 15.49 6.94002C15.7156 7.04197 15.971 7.05662 16.2068 6.98114C16.4425 6.90565 16.6419 6.7454 16.7663 6.53138C16.8908 6.31736 16.9314 6.0648 16.8803 5.82256C16.8293 5.58032 16.6902 5.36562 16.49 5.22002C15.1291 4.41971 13.5788 3.99845 12 4.00002C10.3075 4.00558 8.6508 4.4883 7.22019 5.39276C5.78957 6.29721 4.64299 7.58675 3.91207 9.11333C3.18115 10.6399 2.89551 12.3417 3.08795 14.0232C3.28038 15.7048 3.94309 17.298 5 18.62L3.29 20.29C3.15124 20.4306 3.05725 20.6092 3.01987 20.8032C2.9825 20.9972 3.00342 21.1979 3.08 21.38C3.15502 21.5626 3.28242 21.719 3.44614 21.8293C3.60986 21.9396 3.80258 21.999 4 22H12C14.193 22 16.3105 21.1993 17.9548 19.7483C19.5991 18.2974 20.6571 16.2959 20.93 14.12C20.9468 13.9893 20.9376 13.8565 20.9029 13.7294C20.8682 13.6022 20.8087 13.4832 20.7279 13.3791C20.647 13.275 20.5464 13.188 20.4318 13.1229C20.3172 13.0578 20.1908 13.0161 20.06 13Z" fill="black"/>
</svg>
