<svg width="24" height="24" viewBox="0 0 24 24" fill="none" xmlns="http://www.w3.org/2000/svg">
<path d="M4.99999 11C5.2652 11 5.51956 10.8947 5.70709 10.7071C5.89463 10.5196 5.99999 10.2652 5.99999 10V6.00002C5.99999 5.7348 5.89463 5.48045 5.70709 5.29291C5.51956 5.10537 5.2652 5.00002 4.99999 5.00002C4.73477 5.00002 4.48042 5.10537 4.29288 5.29291C4.10534 5.48045 3.99999 5.7348 3.99999 6.00002V10C3.99999 10.2652 4.10534 10.5196 4.29288 10.7071C4.48042 10.8947 4.73477 11 4.99999 11ZM4.28999 3.71002C4.43061 3.84878 4.60918 3.94277 4.80317 3.98015C4.99716 4.01752 5.19788 3.9966 5.37999 3.92002C5.50117 3.86938 5.61279 3.79835 5.70999 3.71002C5.79832 3.61282 5.86934 3.5012 5.91999 3.38002C5.97597 3.26134 6.00337 3.13119 5.99999 3.00002C6.00075 2.86841 5.97552 2.73795 5.92576 2.61611C5.87599 2.49427 5.80267 2.38346 5.70999 2.29002C5.56936 2.15126 5.39079 2.05726 5.1968 2.01989C5.00281 1.98252 4.8021 2.00344 4.61999 2.08002C4.49723 2.12761 4.38509 2.19898 4.28999 2.29002C4.1973 2.38346 4.12398 2.49427 4.07421 2.61611C4.02445 2.73795 3.99923 2.86841 3.99999 3.00002C4.00157 3.13069 4.02875 3.2598 4.07999 3.38002C4.13063 3.5012 4.20166 3.61282 4.28999 3.71002ZM17 6.00002H8.99999C8.73477 6.00002 8.48042 6.10537 8.29288 6.29291C8.10534 6.48045 7.99999 6.7348 7.99999 7.00002C7.99999 7.26523 8.10534 7.51959 8.29288 7.70712C8.48042 7.89466 8.73477 8.00002 8.99999 8.00002H17C17.2652 8.00002 17.5196 8.10537 17.7071 8.29291C17.8946 8.48045 18 8.7348 18 9.00002V18.72L16.43 17.27C16.2456 17.0974 16.0026 17.0009 15.75 17H6.99999C6.73477 17 6.48042 16.8947 6.29288 16.7071C6.10534 16.5196 5.99999 16.2652 5.99999 16V14C5.99999 13.7348 5.89463 13.4804 5.70709 13.2929C5.51956 13.1054 5.2652 13 4.99999 13C4.73477 13 4.48042 13.1054 4.29288 13.2929C4.10534 13.4804 3.99999 13.7348 3.99999 14V16C3.99999 16.7957 4.31606 17.5587 4.87867 18.1213C5.44128 18.6839 6.20434 19 6.99999 19H15.36L18.36 21.73C18.5342 21.8936 18.7612 21.9894 19 22C19.1371 21.9985 19.2728 21.9714 19.4 21.92C19.5789 21.8419 19.731 21.7132 19.8376 21.5498C19.9442 21.3863 20.0007 21.1952 20 21V9.00002C20 8.20437 19.6839 7.44131 19.1213 6.8787C18.5587 6.31609 17.7956 6.00002 17 6.00002Z" fill="black"/>
</svg>
