<svg width="24" height="24" viewBox="0 0 24 24" fill="none" xmlns="http://www.w3.org/2000/svg">
<path d="M15 1.99999C13.363 2.00131 11.7783 2.57631 10.5213 3.625C9.26434 4.67369 8.41466 6.12974 8.12 7.73999C7.25843 8.20481 6.52368 8.87338 5.97985 9.68739C5.43601 10.5014 5.09961 11.4361 5 12.41C4.25575 12.7374 3.60256 13.2413 3.09705 13.8781C2.59153 14.515 2.24895 15.2655 2.09899 16.0646C1.94903 16.8637 1.99622 17.6874 2.23646 18.4641C2.4767 19.2409 2.90275 19.9474 3.47768 20.5223C4.05261 21.0972 4.75908 21.5233 5.53585 21.7635C6.31262 22.0038 7.13627 22.051 7.93539 21.901C8.73452 21.751 9.48502 21.4085 10.1219 20.9029C10.7587 20.3974 11.2626 19.7442 11.59 19C12.561 18.9035 13.4938 18.5717 14.3076 18.0332C15.1214 17.4948 15.7915 16.766 16.26 15.91C18.0109 15.6291 19.59 14.6942 20.6782 13.294C21.7664 11.8939 22.2827 10.1329 22.1227 8.36686C21.9627 6.60079 21.1384 4.96125 19.8163 3.77945C18.4942 2.59765 16.7729 1.96167 15 1.99999ZM10 17.43C10 17.53 10 17.63 9.93 17.74C9.80083 18.2547 9.53745 18.7259 9.16673 19.1056C8.796 19.4853 8.3312 19.7598 7.81973 19.9013C7.30826 20.0427 6.76843 20.0459 6.25531 19.9106C5.74219 19.7753 5.27414 19.5063 4.89891 19.1311C4.52368 18.7558 4.25469 18.2878 4.11939 17.7747C3.98408 17.2616 3.9873 16.7217 4.12872 16.2103C4.27014 15.6988 4.5447 15.234 4.92439 14.8633C5.30407 14.4925 5.7753 14.2292 6.29 14.1L6.57 14C7.03958 13.9122 7.52347 13.9402 7.97979 14.0816C8.43611 14.2229 8.85113 14.4733 9.18892 14.8111C9.52671 15.1489 9.7771 15.5639 9.91842 16.0202C10.0597 16.4765 10.0877 16.9604 10 17.43ZM15 13.76C14.9868 13.8242 14.9701 13.8876 14.95 13.95C14.9071 14.134 14.8502 14.3145 14.78 14.49C14.5498 15.0738 14.1854 15.5952 13.7164 16.0121C13.2473 16.4291 12.6868 16.7298 12.08 16.89C12.08 16.71 12.08 16.54 12.02 16.36C11.96 16.18 12.02 16.09 12.02 15.96C12.02 15.83 11.9 15.58 11.84 15.39C11.78 15.2 11.77 15.15 11.72 15.03C11.6338 14.8395 11.5335 14.6556 11.42 14.48C11.42 14.39 11.33 14.29 11.27 14.2C11.0921 13.9393 10.8913 13.695 10.67 13.47L10.47 13.3C10.3024 13.1459 10.1254 13.0023 9.94 12.87C9.83105 12.7991 9.71746 12.7356 9.6 12.68C9.43995 12.5782 9.27286 12.488 9.1 12.41C8.97084 12.3547 8.83697 12.3112 8.7 12.28C8.53164 12.2117 8.35765 12.1581 8.18 12.12C8.04 12.12 7.89 12.12 7.74 12.06L7.13 12C7.28919 11.3943 7.58838 10.8344 8.0035 10.3654C8.41862 9.89644 8.93806 9.53151 9.52 9.29999C9.69151 9.22836 9.86882 9.17149 10.05 9.12999L10.25 9.07999C10.4967 9.02812 10.7479 9.00131 11 8.99999C12.0609 8.99999 13.0783 9.42142 13.8284 10.1716C14.5786 10.9217 15 11.9391 15 13C14.9987 13.2554 14.9719 13.5099 14.92 13.76H15ZM17 13.6C17 13.4 17 13.2 17 13C17 11.4087 16.3679 9.88257 15.2426 8.75735C14.1174 7.63213 12.5913 6.99999 11 6.99999C10.8 6.99999 10.6 6.99999 10.4 6.99999C10.7296 6.25854 11.2347 5.60845 11.8717 5.10584C12.5088 4.60323 13.2585 4.2632 14.0563 4.11511C14.8541 3.96702 15.6759 4.01531 16.4509 4.25582C17.2259 4.49634 17.9306 4.92184 18.5044 5.4956C19.0781 6.06936 19.5037 6.77413 19.7442 7.54909C19.9847 8.32404 20.033 9.14589 19.8849 9.94368C19.7368 10.7415 19.3968 11.4912 18.8942 12.1282C18.3915 12.7652 17.7415 13.2704 17 13.6Z" fill="black"/>
</svg>
