<svg width="24" height="24" viewBox="0 0 24 24" fill="none" xmlns="http://www.w3.org/2000/svg">
<path d="M12 2C10.0222 2 8.08879 2.58649 6.4443 3.6853C4.79981 4.78412 3.51809 6.3459 2.76121 8.17317C2.00433 10.0004 1.8063 12.0111 2.19215 13.9509C2.578 15.8907 3.53041 17.6725 4.92894 19.0711C6.32746 20.4696 8.10929 21.422 10.0491 21.8079C11.9889 22.1937 13.9996 21.9957 15.8268 21.2388C17.6541 20.4819 19.2159 19.2002 20.3147 17.5557C21.4135 15.9112 22 13.9778 22 12C22 10.6868 21.7413 9.38642 21.2388 8.17317C20.7363 6.95991 19.9997 5.85752 19.0711 4.92893C18.1425 4.00035 17.0401 3.26375 15.8268 2.7612C14.6136 2.25866 13.3132 2 12 2ZM12 20C10.4178 20 8.87104 19.5308 7.55544 18.6518C6.23985 17.7727 5.21447 16.5233 4.60897 15.0615C4.00347 13.5997 3.84504 11.9911 4.15372 10.4393C4.4624 8.88743 5.22433 7.46197 6.34315 6.34315C7.46197 5.22433 8.88743 4.4624 10.4393 4.15372C11.9911 3.84504 13.5997 4.00346 15.0615 4.60896C16.5233 5.21447 17.7727 6.23984 18.6518 7.55544C19.5308 8.87103 20 10.4177 20 12C20 14.1217 19.1572 16.1566 17.6569 17.6569C16.1566 19.1571 14.1217 20 12 20ZM12 6C11.7348 6 11.4804 6.10536 11.2929 6.29289C11.1054 6.48043 11 6.73478 11 7V10.27L9.9 9.63C9.66927 9.49739 9.3953 9.46187 9.13837 9.53126C8.88145 9.60065 8.66261 9.76926 8.53 10C8.3974 10.2307 8.36188 10.5047 8.43127 10.7616C8.50066 11.0186 8.66927 11.2374 8.9 11.37L11.5 12.87H11.57H11.66C11.7644 12.9338 11.8797 12.9778 12 13C12.1166 12.9967 12.2316 12.973 12.34 12.93H12.42C12.5243 12.8845 12.6192 12.8201 12.7 12.74C12.7548 12.6806 12.805 12.6171 12.85 12.55C12.85 12.55 12.85 12.55 12.85 12.49C12.8745 12.4316 12.8945 12.3714 12.91 12.31C12.9147 12.2434 12.9147 12.1766 12.91 12.11C12.91 12.11 12.91 12.11 12.91 12.05V7C12.911 6.74966 12.8181 6.50805 12.6496 6.3229C12.4811 6.13775 12.2493 6.02253 12 6Z" fill="black"/>
</svg>
