<svg width="24" height="24" viewBox="0 0 24 24" fill="none" xmlns="http://www.w3.org/2000/svg">
<path d="M12.71 18.79C12.6128 18.7017 12.5012 18.6307 12.38 18.58C12.1979 18.5035 11.9972 18.4825 11.8032 18.5199C11.6092 18.5573 11.4306 18.6513 11.29 18.79C11.1073 18.9817 11.0037 19.2353 11 19.5C10.9993 19.6316 11.0245 19.7621 11.0742 19.8839C11.124 20.0058 11.1973 20.1166 11.29 20.21C11.3872 20.2984 11.4988 20.3694 11.62 20.42C11.8017 20.4928 12.0008 20.5106 12.1926 20.4712C12.3843 20.4319 12.5603 20.3372 12.6987 20.1988C12.8371 20.0603 12.9319 19.8843 12.9712 19.6926C13.0106 19.5008 12.9928 19.3018 12.92 19.12C12.8724 18.9973 12.8011 18.8851 12.71 18.79ZM12 12.5C11.7348 12.5 11.4804 12.6054 11.2929 12.7929C11.1054 12.9805 11 13.2348 11 13.5V16.5C11 16.7653 11.1054 17.0196 11.2929 17.2071C11.4804 17.3947 11.7348 17.5 12 17.5C12.2652 17.5 12.5196 17.3947 12.7071 17.2071C12.8947 17.0196 13 16.7653 13 16.5V13.5C13 13.2348 12.8947 12.9805 12.7071 12.7929C12.5196 12.6054 12.2652 12.5 12 12.5ZM18.42 7.71003C17.8083 6.30584 16.753 5.14103 15.4157 4.39419C14.0785 3.64735 12.5333 3.3597 11.0169 3.57536C9.50051 3.79101 8.09671 4.49806 7.02073 5.58809C5.94475 6.67813 5.25597 8.09098 5.06001 9.61003C4.1066 9.83836 3.27023 10.4089 2.70975 11.2132C2.14927 12.0176 1.9037 12.9998 2.01968 13.9732C2.13566 14.9467 2.60511 15.8437 3.33888 16.4939C4.07265 17.1441 5.01964 17.5021 6.00001 17.5H8.00001C8.26523 17.5 8.51958 17.3947 8.70712 17.2071C8.89466 17.0196 9.00001 16.7653 9.00001 16.5C9.00001 16.2348 8.89466 15.9805 8.70712 15.7929C8.51958 15.6054 8.26523 15.5 8.00001 15.5H6.00001C5.46958 15.5 4.96087 15.2893 4.5858 14.9142C4.21073 14.5392 4.00001 14.0305 4.00001 13.5C4.00001 12.9696 4.21073 12.4609 4.5858 12.0858C4.96087 11.7107 5.46958 11.5 6.00001 11.5C6.26523 11.5 6.51958 11.3947 6.70712 11.2071C6.89466 11.0196 7.00001 10.7652 7.00001 10.5C7.00257 9.31731 7.4243 8.17379 8.19028 7.27262C8.95627 6.37145 10.0169 5.77098 11.1838 5.57791C12.3506 5.38483 13.5481 5.61164 14.5636 6.21804C15.579 6.82444 16.3466 7.77117 16.73 8.89003C16.7887 9.06001 16.8921 9.21102 17.0294 9.32717C17.1666 9.44332 17.3327 9.52031 17.51 9.55003C18.243 9.68529 18.8994 10.0886 19.3513 10.6813C19.8033 11.274 20.0183 12.0138 19.9547 12.7564C19.891 13.4991 19.5532 14.1914 19.007 14.6986C18.4608 15.2058 17.7453 15.4915 17 15.5H16C15.7348 15.5 15.4804 15.6054 15.2929 15.7929C15.1054 15.9805 15 16.2348 15 16.5C15 16.7653 15.1054 17.0196 15.2929 17.2071C15.4804 17.3947 15.7348 17.5 16 17.5H17C18.1994 17.4967 19.3576 17.0624 20.2634 16.2763C21.1692 15.4902 21.7623 14.4047 21.9345 13.2178C22.1066 12.0308 21.8464 10.8216 21.2012 9.81049C20.5561 8.79943 19.569 8.05396 18.42 7.71003Z" fill="black"/>
</svg>
