<svg width="24" height="24" viewBox="0 0 24 24" fill="none" xmlns="http://www.w3.org/2000/svg">
<path d="M20.52 3.87006C20.1075 3.0083 19.4568 2.28275 18.6448 1.77928C17.8329 1.27582 16.8937 1.01552 15.9384 1.0292C14.9831 1.04288 14.0517 1.32996 13.2545 1.85646C12.4573 2.38296 11.8276 3.12684 11.44 4.00006H6.99999C6.20434 4.00006 5.44128 4.31613 4.87867 4.87874C4.31606 5.44135 3.99999 6.20441 3.99999 7.00006V11.0001C3.99999 11.2653 4.10535 11.5196 4.29289 11.7072C4.48042 11.8947 4.73478 12.0001 4.99999 12.0001C5.26521 12.0001 5.51956 11.8947 5.7071 11.7072C5.89464 11.5196 5.99999 11.2653 5.99999 11.0001V7.00006C5.99999 6.73484 6.10535 6.48049 6.29289 6.29295C6.48042 6.10542 6.73478 6.00006 6.99999 6.00006H9.77999C9.2822 6.5477 9.0044 7.26 8.99999 8.00006C8.99999 8.79571 9.31606 9.55877 9.87867 10.1214C10.4413 10.684 11.2043 11.0001 12 11.0001H19.33C20.2007 11.0063 21.0452 10.702 21.7117 10.1416C22.3782 9.58121 22.8231 8.80157 22.9664 7.94268C23.1098 7.08379 22.9422 6.20193 22.4938 5.45548C22.0454 4.70903 21.3456 4.1469 20.52 3.87006ZM19.33 9.00006H12C11.7348 9.00006 11.4804 8.8947 11.2929 8.70717C11.1054 8.51963 11 8.26528 11 8.00006C11 7.73484 11.1054 7.48049 11.2929 7.29295C11.4804 7.10542 11.7348 7.00006 12 7.00006C12.2652 7.00006 12.5196 6.8947 12.7071 6.70717C12.8946 6.51963 13 6.26528 13 6.00006C12.9919 5.28642 13.2385 4.59327 13.6955 4.0451C14.1526 3.49692 14.79 3.12963 15.4935 3.00918C16.1969 2.88872 16.9203 3.023 17.5336 3.38789C18.147 3.75278 18.6102 4.32439 18.84 5.00006C18.8972 5.1719 18.9999 5.32499 19.1373 5.44299C19.2747 5.56099 19.4415 5.63948 19.62 5.67006C20.0111 5.73485 20.3657 5.93825 20.6191 6.24307C20.8725 6.54789 21.0077 6.93374 21 7.33006C21 7.54937 20.9568 7.76653 20.8729 7.96914C20.7889 8.17175 20.6659 8.35585 20.5109 8.51093C20.3558 8.666 20.1717 8.78901 19.9691 8.87294C19.7665 8.95686 19.5493 9.00006 19.33 9.00006ZM19 13.0001C18.7348 13.0001 18.4804 13.1054 18.2929 13.293C18.1054 13.4805 18 13.7348 18 14.0001V17.0001C18 17.2653 17.8946 17.5196 17.7071 17.7072C17.5196 17.8947 17.2652 18.0001 17 18.0001H14.74C14.5467 17.5052 14.248 17.0583 13.8647 16.6905C13.4813 16.3226 13.0225 16.0427 12.52 15.8701C12.0668 14.9084 11.3189 14.1162 10.3849 13.6084C9.4509 13.1007 8.37935 12.9039 7.32587 13.0466C6.27239 13.1893 5.2918 13.6641 4.5265 14.402C3.76119 15.1399 3.251 16.1025 3.06999 17.1501C2.39278 17.3726 1.81695 17.8291 1.44569 18.4376C1.07444 19.0462 0.932006 19.7671 1.04393 20.4711C1.15585 21.1751 1.5148 21.8162 2.05648 22.2797C2.59815 22.7431 3.28714 22.9985 3.99999 23.0001H11.33C12.1862 23.0001 13.0153 22.6999 13.6731 22.1517C14.3308 21.6036 14.7756 20.8422 14.93 20.0001H17C17.7956 20.0001 18.5587 19.684 19.1213 19.1214C19.6839 18.5588 20 17.7957 20 17.0001V14.0001C20 13.7348 19.8946 13.4805 19.7071 13.293C19.5196 13.1054 19.2652 13.0001 19 13.0001ZM11.33 21.0001H3.99999C3.73478 21.0001 3.48042 20.8947 3.29289 20.7072C3.10535 20.5196 2.99999 20.2653 2.99999 20.0001C2.99999 19.7348 3.10535 19.4805 3.29289 19.293C3.48042 19.1054 3.73478 19.0001 3.99999 19.0001C4.26521 19.0001 4.51956 18.8947 4.7071 18.7072C4.89464 18.5196 4.99999 18.2653 4.99999 18.0001C4.99192 17.2864 5.23854 16.5933 5.69555 16.0451C6.15256 15.4969 6.79002 15.1296 7.49347 15.0092C8.19692 14.8887 8.92027 15.023 9.53363 15.3879C10.147 15.7528 10.6102 16.3244 10.84 17.0001C10.8972 17.1719 10.9999 17.325 11.1373 17.443C11.2747 17.561 11.4415 17.6395 11.62 17.6701C12.0111 17.7348 12.3657 17.9383 12.6191 18.2431C12.8725 18.5479 13.0077 18.9337 13 19.3301C13 19.5494 12.9568 19.7665 12.8729 19.9691C12.7889 20.1718 12.6659 20.3559 12.5109 20.5109C12.3558 20.666 12.1717 20.789 11.9691 20.8729C11.7665 20.9569 11.5493 21.0001 11.33 21.0001Z" fill="black"/>
</svg>
