<svg width="24" height="24" viewBox="0 0 24 24" fill="none" xmlns="http://www.w3.org/2000/svg">
<path d="M19.47 10.54C18.9961 9.48575 18.2278 8.59082 17.2574 7.96282C16.287 7.33482 15.1559 7.00048 14 7C13.5312 7.00378 13.0644 7.06422 12.61 7.18C12.0408 6.37654 11.2471 5.75903 10.3283 5.40491C9.40955 5.0508 8.40668 4.97584 7.44548 5.18944C6.48428 5.40304 5.60754 5.89569 4.92522 6.6056C4.24291 7.31552 3.78539 8.21109 3.61005 9.18C2.95578 9.41554 2.40366 9.87104 2.04809 10.4686C1.69252 11.0662 1.55559 11.7688 1.6607 12.4561C1.76581 13.1435 2.10645 13.773 2.62436 14.2371C3.14227 14.7011 3.80529 14.9707 4.50005 15H5.50005C5.48962 15.1665 5.48962 15.3335 5.50005 15.5C5.50005 16.4283 5.8688 17.3185 6.52517 17.9749C7.18155 18.6312 8.07179 19 9.00005 19H18.17C19.2043 18.9998 20.2044 18.6294 20.9893 17.9558C21.7741 17.2822 22.292 16.3499 22.449 15.3276C22.6061 14.3054 22.3921 13.2606 21.8457 12.3824C21.2993 11.5043 20.4566 10.8507 19.47 10.54ZM4.50005 13C4.23483 13 3.98048 12.8946 3.79294 12.7071C3.6054 12.5196 3.50005 12.2652 3.50005 12C3.50005 11.7348 3.6054 11.4804 3.79294 11.2929C3.98048 11.1054 4.23483 11 4.50005 11C4.76526 11 5.01962 10.8946 5.20715 10.7071C5.39469 10.5196 5.50005 10.2652 5.50005 10C5.50005 9.20435 5.81612 8.44129 6.37873 7.87868C6.94134 7.31607 7.7044 7 8.50005 7C8.91943 7.00225 9.33368 7.09241 9.71606 7.26465C10.0984 7.4369 10.4405 7.6874 10.72 8C10.0104 8.46175 9.40646 9.06848 8.948 9.78029C8.48954 10.4921 8.18693 11.2929 8.06005 12.13C7.49482 12.2892 6.97889 12.5884 6.56005 13H4.50005ZM18.17 17H9.00005C8.60222 17 8.22069 16.842 7.93939 16.5607C7.65808 16.2794 7.50005 15.8978 7.50005 15.5C7.50005 15.1022 7.65808 14.7206 7.93939 14.4393C8.22069 14.158 8.60222 14 9.00005 14C9.26526 14 9.51962 13.8946 9.70715 13.7071C9.89469 13.5196 10 13.2652 10 13C10.0043 12.0557 10.3426 11.1434 10.9549 10.4245C11.5672 9.70558 12.4141 9.2265 13.3457 9.07204C14.2773 8.91757 15.2335 9.09767 16.0451 9.58047C16.8566 10.0633 17.4712 10.8176 17.78 11.71C17.8372 11.8818 17.94 12.0349 18.0773 12.1529C18.2147 12.2709 18.3816 12.3494 18.56 12.38C19.1276 12.4861 19.6356 12.7992 19.9855 13.2586C20.3353 13.718 20.5022 14.2909 20.4536 14.8663C20.405 15.4417 20.1445 15.9785 19.7226 16.3728C19.3007 16.767 18.7474 16.9905 18.17 17Z" fill="black"/>
</svg>
