<svg width="24" height="24" viewBox="0 0 24 24" fill="none" xmlns="http://www.w3.org/2000/svg">
<path d="M8.49999 5.94004C9.56735 5.33528 10.7732 5.01741 12 5.01741C13.2268 5.01741 14.4326 5.33528 15.5 5.94004C15.6141 6.00616 15.7402 6.04904 15.871 6.06622C16.0018 6.08341 16.1347 6.07455 16.262 6.04016C16.3893 6.00577 16.5086 5.94652 16.613 5.86584C16.7173 5.78515 16.8047 5.68462 16.87 5.57004C17.0004 5.34042 17.0346 5.06856 16.9653 4.81377C16.896 4.55899 16.7287 4.34196 16.5 4.21004C15.1273 3.43358 13.5771 3.02551 12 3.02551C10.4229 3.02551 8.87268 3.43358 7.49999 4.21004C7.27126 4.34196 7.10398 4.55899 7.03467 4.81377C6.96535 5.06856 6.99962 5.34042 7.12999 5.57004C7.19532 5.68462 7.28267 5.78515 7.38702 5.86584C7.49137 5.94652 7.61064 6.00577 7.73798 6.04016C7.86532 6.07455 7.99821 6.08341 8.12899 6.06622C8.25977 6.04904 8.38585 6.00616 8.49999 5.94004ZM18.42 11.21C18.3161 10.9655 18.1958 10.7283 18.06 10.5C17.9914 10.3874 17.9011 10.2895 17.7945 10.2119C17.6879 10.1343 17.5669 10.0786 17.4387 10.0479C17.3104 10.0172 17.1773 10.0122 17.0471 10.0332C16.9169 10.0541 16.7921 10.1007 16.68 10.17C16.4553 10.3086 16.2945 10.5304 16.2327 10.787C16.1709 11.0437 16.213 11.3144 16.35 11.54C16.5046 11.8065 16.6319 12.088 16.73 12.38C16.7871 12.5519 16.8899 12.705 17.0273 12.823C17.1647 12.941 17.3315 13.0195 17.51 13.05C18.2058 13.1701 18.837 13.5317 19.2925 14.0713C19.748 14.6109 19.9985 15.2939 20 16C20 16.7957 19.6839 17.5587 19.1213 18.1214C18.5587 18.684 17.7956 19 17 19H5.65999C5.252 18.9373 4.87344 18.7498 4.57624 18.4633C4.27903 18.1768 4.07774 17.8054 3.99999 17.4C3.93992 17.1061 3.94676 16.8024 4.01999 16.5114C4.09323 16.2205 4.23098 15.9497 4.42305 15.7193C4.61512 15.4888 4.85659 15.3045 5.12956 15.18C5.40254 15.0555 5.70002 14.994 5.99999 15C6.2652 15 6.51956 14.8947 6.70709 14.7071C6.89463 14.5196 6.99999 14.2653 6.99999 14C6.99798 13.1252 7.22926 12.2657 7.66999 11.51C7.73611 11.3959 7.77899 11.2698 7.79618 11.139C7.81336 11.0083 7.8045 10.8754 7.77011 10.748C7.73572 10.6207 7.67647 10.5014 7.59579 10.3971C7.51511 10.2927 7.41458 10.2054 7.29999 10.14C7.07037 10.0097 6.79851 9.9754 6.54372 10.0447C6.28894 10.114 6.07191 10.2813 5.93999 10.51C5.47168 11.3073 5.17215 12.1922 5.05999 13.11C4.22563 13.3132 3.47881 13.7796 2.92999 14.44C2.46319 14.9882 2.15301 15.6522 2.03216 16.362C1.9113 17.0717 1.98427 17.801 2.24334 18.4727C2.50242 19.1445 2.93801 19.7339 3.50415 20.1787C4.0703 20.6235 4.746 20.9073 5.45999 21H5.58999H17C18.1993 20.9967 19.3576 20.5624 20.2634 19.7763C21.1692 18.9902 21.7623 17.9047 21.9344 16.7178C22.1066 15.5308 21.8464 14.3216 21.2012 13.3105C20.5561 12.2994 19.569 11.554 18.42 11.21ZM14.87 9.00004C14.87 9.00004 14.87 9.00004 14.87 8.94004C14.9218 8.87929 14.9655 8.81206 15 8.74004C15.0947 8.49333 15.0879 8.21916 14.9811 7.97744C14.8743 7.73573 14.6762 7.54611 14.43 7.45004C13.8707 7.24238 13.2849 7.11446 12.69 7.07004C12.59 7.07004 12.49 7.07004 12.39 7.07004C12.1204 7.05002 11.8496 7.05002 11.58 7.07004C11.4767 7.06469 11.3733 7.06469 11.27 7.07004C10.675 7.11446 10.0893 7.24238 9.52999 7.45004C9.29105 7.55369 9.10198 7.74648 9.003 7.9874C8.90402 8.22831 8.90294 8.49834 8.99999 8.74004C9.03406 8.80693 9.07423 8.87053 9.11999 8.93004C9.11668 8.96663 9.11668 9.00344 9.11999 9.04004C9.18615 9.15379 9.27412 9.25337 9.37884 9.33305C9.48356 9.41274 9.60298 9.47098 9.73026 9.50443C9.85753 9.53787 9.99016 9.54586 10.1205 9.52795C10.2509 9.51004 10.3765 9.46657 10.49 9.40004C10.9486 9.14432 11.4649 9.01009 11.99 9.01009C12.5151 9.01009 13.0314 9.14432 13.49 9.40004C13.6063 9.46656 13.7349 9.50902 13.868 9.52488C14.0011 9.54074 14.136 9.52969 14.2647 9.49237C14.3935 9.45506 14.5134 9.39225 14.6174 9.30767C14.7213 9.22309 14.8072 9.11848 14.87 9.00004ZM11 12C11 12.1978 11.0586 12.3912 11.1685 12.5556C11.2784 12.7201 11.4346 12.8482 11.6173 12.9239C11.8 12.9996 12.0011 13.0194 12.1951 12.9808C12.3891 12.9422 12.5672 12.847 12.7071 12.7071C12.8469 12.5673 12.9422 12.3891 12.9808 12.1951C13.0194 12.0011 12.9996 11.8001 12.9239 11.6174C12.8482 11.4346 12.72 11.2784 12.5556 11.1686C12.3911 11.0587 12.1978 11 12 11C11.7348 11 11.4804 11.1054 11.2929 11.2929C11.1053 11.4805 11 11.7348 11 12Z" fill="black"/>
</svg>
