<svg width="24" height="24" viewBox="0 0 24 24" fill="none" xmlns="http://www.w3.org/2000/svg">
<path d="M7.50001 15C7.23479 15 6.98044 15.1054 6.7929 15.2929C6.60536 15.4804 6.50001 15.7348 6.50001 16V17C6.50001 17.2652 6.60536 17.5196 6.7929 17.7071C6.98044 17.8946 7.23479 18 7.50001 18C7.76522 18 8.01958 17.8946 8.20711 17.7071C8.39465 17.5196 8.50001 17.2652 8.50001 17V16C8.50001 15.7348 8.39465 15.4804 8.20711 15.2929C8.01958 15.1054 7.76522 15 7.50001 15ZM22 7H20.9C20.7667 6.37352 20.5193 5.77691 20.17 5.24L21 4.47C21.0932 4.37676 21.1672 4.26607 21.2177 4.14425C21.2681 4.02243 21.2941 3.89186 21.2941 3.76C21.2941 3.62814 21.2681 3.49757 21.2177 3.37575C21.1672 3.25393 21.0932 3.14324 21 3.05C20.9068 2.95676 20.7961 2.8828 20.6743 2.83234C20.5524 2.78188 20.4219 2.75591 20.29 2.75591C20.1581 2.75591 20.0276 2.78188 19.9058 2.83234C19.7839 2.8828 19.6732 2.95676 19.58 3.05L18.81 3.83C18.2605 3.47014 17.6454 3.22208 17 3.1V2C17 1.73478 16.8946 1.48043 16.7071 1.29289C16.5196 1.10536 16.2652 1 16 1C15.7348 1 15.4804 1.10536 15.2929 1.29289C15.1054 1.48043 15 1.73478 15 2V3.1C14.3735 3.23329 13.7769 3.48075 13.24 3.83L12.47 3.05C12.3768 2.95676 12.2661 2.8828 12.1443 2.83234C12.0224 2.78188 11.8919 2.75591 11.76 2.75591C11.6281 2.75591 11.4976 2.78188 11.3758 2.83234C11.2539 2.8828 11.1432 2.95676 11.05 3.05C10.8617 3.2383 10.7559 3.4937 10.7559 3.76C10.7559 4.0263 10.8617 4.2817 11.05 4.47L11.83 5.24C11.4335 5.84404 11.1709 6.526 11.06 7.24C10.5535 7.0888 10.0286 7.00804 9.50001 7C8.05886 6.99918 6.66557 7.5171 5.57488 8.45906C4.48419 9.40102 3.76897 10.7041 3.56001 12.13C2.86364 12.3239 2.2444 12.7287 1.78734 13.2887C1.33028 13.8487 1.05784 14.5365 1.00743 15.2576C0.957014 15.9787 1.13111 16.6978 1.5058 17.3159C1.88049 17.9341 2.43739 18.4211 3.10001 18.71C3.22744 18.7605 3.36295 18.7876 3.50001 18.79C3.7312 18.7919 3.95591 18.7136 4.13589 18.5685C4.31586 18.4233 4.43999 18.2203 4.48715 17.994C4.5343 17.7676 4.50157 17.532 4.39452 17.327C4.28747 17.1221 4.11272 16.9606 3.90001 16.87C3.6317 16.7557 3.40314 16.5647 3.24302 16.321C3.0829 16.0772 2.99836 15.7916 3.00001 15.5C3.00001 15.1022 3.15804 14.7206 3.43935 14.4393C3.72065 14.158 4.10218 14 4.50001 14C4.76522 14 5.01958 13.8946 5.20711 13.7071C5.39465 13.5196 5.50001 13.2652 5.50001 13C5.50429 12.0557 5.84253 11.1434 6.45484 10.4245C7.06716 9.70558 7.91406 9.22651 8.84566 9.07204C9.77725 8.91757 10.7335 9.09768 11.545 9.58047C12.3566 10.0633 12.9712 10.8176 13.28 11.71C13.3372 11.8818 13.4399 12.0349 13.5773 12.1529C13.7147 12.2709 13.8815 12.3494 14.06 12.38C14.5245 12.4488 14.9571 12.6569 15.3008 12.9768C15.6445 13.2967 15.883 13.7133 15.9849 14.1717C16.0867 14.63 16.0471 15.1085 15.8713 15.5439C15.6954 15.9792 15.3916 16.351 15 16.61C14.8897 16.6822 14.7947 16.7755 14.7204 16.8844C14.6461 16.9934 14.5941 17.1159 14.5671 17.2449C14.5402 17.374 14.539 17.5071 14.5635 17.6367C14.588 17.7662 14.6378 17.8897 14.71 18C14.8559 18.2228 15.0843 18.3785 15.3449 18.4329C15.474 18.4598 15.6071 18.4611 15.7367 18.4365C15.8662 18.412 15.9897 18.3622 16.1 18.29C16.6897 17.8891 17.1716 17.3491 17.503 16.7177C17.8343 16.0864 18.0051 15.383 18 14.67C17.9969 14.0042 17.843 13.3478 17.55 12.75C17.9768 12.6101 18.3836 12.4151 18.76 12.17L19.53 12.95C19.6201 13.0548 19.731 13.1397 19.8556 13.1995C19.9803 13.2592 20.1159 13.2925 20.254 13.2972C20.3922 13.3019 20.5298 13.2779 20.6582 13.2268C20.7866 13.1756 20.903 13.0984 21 13C21.0937 12.907 21.1681 12.7964 21.2189 12.6746C21.2697 12.5527 21.2958 12.422 21.2958 12.29C21.2958 12.158 21.2697 12.0273 21.2189 11.9054C21.1681 11.7836 21.0937 11.673 21 11.58L20.22 10.81C20.5623 10.2567 20.7933 9.64183 20.9 9H22C22.2652 9 22.5196 8.89464 22.7071 8.70711C22.8946 8.51957 23 8.26522 23 8C23 7.73478 22.8946 7.48043 22.7071 7.29289C22.5196 7.10536 22.2652 7 22 7ZM18.13 10.12C17.8505 10.3998 17.5184 10.6217 17.1529 10.7727C16.7873 10.9237 16.3955 11.001 16 11H15.94C15.6287 10.8026 15.2924 10.6479 14.94 10.54C14.4969 9.58293 13.8065 8.76136 12.94 8.16C12.94 8.1 12.94 8.06 12.94 8C12.9381 7.20605 13.2509 6.4437 13.81 5.88C14.3851 5.33857 15.1452 5.03707 15.935 5.03707C16.7249 5.03707 17.4849 5.33857 18.06 5.88C18.3397 6.15871 18.5616 6.48989 18.713 6.85454C18.8644 7.2192 18.9424 7.61016 18.9424 8.005C18.9424 8.39984 18.8644 8.7908 18.713 9.15546C18.5616 9.52011 18.3397 9.85129 18.06 10.13L18.13 10.12ZM7.50001 20C7.23479 20 6.98044 20.1054 6.7929 20.2929C6.60536 20.4804 6.50001 20.7348 6.50001 21V22C6.50001 22.2652 6.60536 22.5196 6.7929 22.7071C6.98044 22.8946 7.23479 23 7.50001 23C7.76522 23 8.01958 22.8946 8.20711 22.7071C8.39465 22.5196 8.50001 22.2652 8.50001 22V21C8.50001 20.7348 8.39465 20.4804 8.20711 20.2929C8.01958 20.1054 7.76522 20 7.50001 20ZM11.5 19C11.2348 19 10.9804 19.1054 10.7929 19.2929C10.6054 19.4804 10.5 19.7348 10.5 20V21C10.5 21.2652 10.6054 21.5196 10.7929 21.7071C10.9804 21.8946 11.2348 22 11.5 22C11.7652 22 12.0196 21.8946 12.2071 21.7071C12.3946 21.5196 12.5 21.2652 12.5 21V20C12.5 19.7348 12.3946 19.4804 12.2071 19.2929C12.0196 19.1054 11.7652 19 11.5 19ZM11.5 14C11.2348 14 10.9804 14.1054 10.7929 14.2929C10.6054 14.4804 10.5 14.7348 10.5 15V16C10.5 16.2652 10.6054 16.5196 10.7929 16.7071C10.9804 16.8946 11.2348 17 11.5 17C11.7652 17 12.0196 16.8946 12.2071 16.7071C12.3946 16.5196 12.5 16.2652 12.5 16V15C12.5 14.7348 12.3946 14.4804 12.2071 14.2929C12.0196 14.1054 11.7652 14 11.5 14Z" fill="black"/>
</svg>
