<svg width="24" height="24" viewBox="0 0 24 24" fill="none" xmlns="http://www.w3.org/2000/svg">
<path d="M21.7 8C21.5786 7.88002 21.4284 7.79314 21.2639 7.74763C21.0993 7.70212 20.9259 7.69949 20.76 7.74C20.5469 7.7903 20.329 7.81713 20.11 7.82C19.3144 7.82 18.5513 7.50393 17.9887 6.94132C17.4261 6.37871 17.11 5.61565 17.11 4.82C17.1126 4.59774 17.1394 4.37642 17.19 4.16C17.2305 3.99415 17.2279 3.8207 17.1824 3.65615C17.1369 3.49161 17.05 3.34146 16.93 3.22C16.8116 3.09815 16.664 3.0085 16.5013 2.95951C16.3386 2.91052 16.1661 2.9038 16 2.94C15.0078 3.16963 14.1094 3.69679 13.425 4.45093C12.7405 5.20507 12.3027 6.15024 12.17 7.16C11.6279 6.99986 11.0654 6.91902 10.5 6.92C9.0663 6.91738 7.67901 7.42826 6.5894 8.36012C5.49978 9.29197 4.77987 10.5832 4.56004 12C3.81737 12.2105 3.16448 12.6593 2.7019 13.2772C2.23933 13.8952 1.99271 14.6481 2.00004 15.42C2.00041 15.9629 2.12817 16.4982 2.37306 16.9828C2.61795 17.4673 2.97313 17.8877 3.41004 18.21C3.51495 18.2974 3.63665 18.3624 3.76765 18.401C3.89865 18.4396 4.03616 18.451 4.17172 18.4344C4.30727 18.4178 4.43799 18.3736 4.55582 18.3046C4.67364 18.2355 4.77608 18.1431 4.85681 18.0329C4.93754 17.9228 4.99485 17.7973 5.02522 17.6641C5.05558 17.531 5.05835 17.393 5.03335 17.2588C5.00836 17.1245 4.95613 16.9968 4.87988 16.8835C4.80364 16.7702 4.705 16.6737 4.59004 16.6C4.40598 16.4634 4.25665 16.2854 4.15415 16.0804C4.05165 15.8754 3.99886 15.6492 4.00004 15.42C4.00004 15.0222 4.15807 14.6406 4.43938 14.3593C4.72068 14.078 5.10221 13.92 5.50004 13.92C5.76525 13.92 6.01961 13.8146 6.20714 13.6271C6.39468 13.4396 6.50004 13.1852 6.50004 12.92C6.50187 12.2018 6.69703 11.4974 7.06502 10.8806C7.43301 10.2639 7.96025 9.75762 8.5914 9.41494C9.22255 9.07225 9.93432 8.90582 10.652 8.9331C11.3696 8.96038 12.0667 9.18038 12.67 9.57C13.4021 10.0426 13.9548 10.7467 14.24 11.57C14.2987 11.74 14.4021 11.891 14.5394 12.0071C14.6766 12.1233 14.8427 12.2003 15.02 12.23C15.5172 12.312 15.9744 12.5529 16.323 12.9167C16.6717 13.2805 16.893 13.7475 16.9539 14.2476C17.0147 14.7478 16.9117 15.2543 16.6604 15.691C16.4092 16.1277 16.023 16.4712 15.56 16.67C15.4389 16.7222 15.3294 16.7978 15.2376 16.8925C15.1459 16.9872 15.0737 17.0991 15.0254 17.2218C14.9771 17.3445 14.9535 17.4755 14.956 17.6074C14.9585 17.7392 14.9871 17.8692 15.04 17.99C15.1181 18.1689 15.2468 18.321 15.4103 18.4276C15.5738 18.5342 15.7649 18.5907 15.96 18.59C16.0982 18.5879 16.2344 18.5573 16.36 18.5C17.1375 18.1612 17.7984 17.6015 18.2606 16.8904C18.7228 16.1793 18.966 15.3481 18.96 14.5C18.9639 13.8031 18.7956 13.1161 18.47 12.5C19.325 12.2739 20.1036 11.8224 20.7245 11.1927C21.3455 10.5629 21.786 9.77807 22 8.92C22.032 8.75379 22.0212 8.5822 21.9687 8.42129C21.9163 8.26039 21.8238 8.11543 21.7 8ZM17.11 10.82C16.9702 10.8308 16.8298 10.8308 16.69 10.82C16.4593 10.6964 16.2184 10.5927 15.97 10.51C15.5634 9.60985 14.9377 8.82597 14.15 8.23C14.15 8.11 14.15 7.98 14.15 7.86C14.15 7.42668 14.2439 6.99849 14.4251 6.6049C14.6064 6.21131 14.8707 5.86166 15.2 5.58C15.3569 6.64504 15.8532 7.63102 16.6154 8.39134C17.3775 9.15166 18.3646 9.6457 19.43 9.8C19.1402 10.1272 18.7825 10.3871 18.3817 10.5616C17.981 10.736 17.547 10.8208 17.11 10.81V10.82ZM12.5 16.92H11.73L12.12 16.25C12.2526 16.0193 12.2882 15.7453 12.2188 15.4884C12.1494 15.2314 11.9808 15.0126 11.75 14.88C11.5193 14.7474 11.2453 14.7119 10.9884 14.7813C10.7315 14.8506 10.5126 15.0193 10.38 15.25L10 15.92L9.62004 15.25C9.48743 15.0193 9.26859 14.8506 9.01167 14.7813C8.75474 14.7119 8.48077 14.7474 8.25004 14.88C8.0193 15.0126 7.85069 15.2314 7.7813 15.4884C7.71191 15.7453 7.74743 16.0193 7.88004 16.25L8.27004 16.92H7.50004C7.23482 16.92 6.98047 17.0254 6.79293 17.2129C6.60539 17.4004 6.50004 17.6548 6.50004 17.92C6.50004 18.1852 6.60539 18.4396 6.79293 18.6271C6.98047 18.8146 7.23482 18.92 7.50004 18.92H8.27004L7.88004 19.58C7.74743 19.8107 7.71191 20.0847 7.7813 20.3416C7.85069 20.5986 8.0193 20.8174 8.25004 20.95C8.48077 21.0826 8.75474 21.1181 9.01167 21.0487C9.26859 20.9793 9.48743 20.8107 9.62004 20.58L10 19.92L10.38 20.58C10.4457 20.6942 10.5332 20.7944 10.6376 20.8749C10.742 20.9553 10.8612 21.0144 10.9884 21.0487C11.1156 21.0831 11.2484 21.0921 11.379 21.0751C11.5097 21.0582 11.6358 21.0157 11.75 20.95C11.8643 20.8843 11.9645 20.7968 12.0449 20.6924C12.1253 20.588 12.1844 20.4688 12.2188 20.3416C12.2531 20.2144 12.2621 20.0817 12.2452 19.951C12.2282 19.8203 12.1857 19.6942 12.12 19.58L11.73 18.92H12.5C12.7653 18.92 13.0196 18.8146 13.2071 18.6271C13.3947 18.4396 13.5 18.1852 13.5 17.92C13.5 17.6548 13.3947 17.4004 13.2071 17.2129C13.0196 17.0254 12.7653 16.92 12.5 16.92Z" fill="black"/>
</svg>
