<svg width="24" height="24" viewBox="0 0 24 24" fill="none" xmlns="http://www.w3.org/2000/svg">
<path d="M12.5 16.92H11.73L12.12 16.25C12.2526 16.0192 12.2882 15.7453 12.2188 15.4884C12.1494 15.2314 11.9808 15.0126 11.75 14.88C11.5193 14.7474 11.2453 14.7119 10.9884 14.7812C10.7315 14.8506 10.5126 15.0192 10.38 15.25L10 15.92L9.62004 15.25C9.48743 15.0192 9.26859 14.8506 9.01167 14.7812C8.75474 14.7119 8.48077 14.7474 8.25004 14.88C8.0193 15.0126 7.85069 15.2314 7.7813 15.4884C7.71191 15.7453 7.74743 16.0192 7.88004 16.25L8.27004 16.92H7.50004C7.23482 16.92 6.98047 17.0253 6.79293 17.2129C6.60539 17.4004 6.50004 17.6548 6.50004 17.92C6.50004 18.1852 6.60539 18.4396 6.79293 18.6271C6.98047 18.8146 7.23482 18.92 7.50004 18.92H8.27004L7.88004 19.58C7.74743 19.8107 7.71191 20.0847 7.7813 20.3416C7.85069 20.5985 8.0193 20.8174 8.25004 20.95C8.48077 21.0826 8.75474 21.1181 9.01167 21.0487C9.26859 20.9793 9.48743 20.8107 9.62004 20.58L10 19.92L10.38 20.58C10.4457 20.6942 10.5332 20.7944 10.6376 20.8749C10.742 20.9553 10.8612 21.0144 10.9884 21.0487C11.1156 21.0831 11.2484 21.092 11.379 21.0751C11.5097 21.0582 11.6358 21.0156 11.75 20.95C11.8643 20.8843 11.9645 20.7968 12.0449 20.6924C12.1253 20.588 12.1844 20.4688 12.2188 20.3416C12.2531 20.2144 12.2621 20.0817 12.2452 19.951C12.2282 19.8203 12.1857 19.6942 12.12 19.58L11.73 18.92H12.5C12.7653 18.92 13.0196 18.8146 13.2071 18.6271C13.3947 18.4396 13.5 18.1852 13.5 17.92C13.5 17.6548 13.3947 17.4004 13.2071 17.2129C13.0196 17.0253 12.7653 16.92 12.5 16.92ZM21 7.91998H20.2C20.0966 7.47128 19.921 7.04235 19.68 6.64998L20.24 6.08998C20.4039 5.89868 20.4895 5.65261 20.4797 5.40093C20.47 5.14925 20.3657 4.91051 20.1876 4.73242C20.0095 4.55432 19.7708 4.44999 19.5191 4.44027C19.2674 4.43055 19.0213 4.51616 18.83 4.67998L18.27 5.23998C17.8777 4.99899 17.4487 4.82337 17 4.71998V3.91998C17 3.65477 16.8947 3.40041 16.7071 3.21288C16.5196 3.02534 16.2653 2.91998 16 2.91998C15.7348 2.91998 15.4805 3.02534 15.2929 3.21288C15.1054 3.40041 15 3.65477 15 3.91998V4.71998C14.554 4.8218 14.1281 4.99756 13.74 5.23998L13.17 4.67998C12.9787 4.51616 12.7327 4.43055 12.481 4.44027C12.2293 4.44999 11.9906 4.55432 11.8125 4.73242C11.6344 4.91051 11.53 5.14925 11.5203 5.40093C11.5106 5.65261 11.5962 5.89868 11.76 6.08998L12.32 6.64998C12.23 6.80998 12.16 6.97998 12.08 7.13998C11.5659 6.99485 11.0343 6.92083 10.5 6.91998C9.0663 6.91737 7.67901 7.42824 6.5894 8.3601C5.49978 9.29196 4.77987 10.5832 4.56004 12C3.81737 12.2105 3.16448 12.6593 2.7019 13.2772C2.23933 13.8952 1.99271 14.6481 2.00004 15.42C2.00041 15.9629 2.12817 16.4982 2.37306 16.9828C2.61795 17.4673 2.97313 17.8877 3.41004 18.21C3.51495 18.2974 3.63665 18.3624 3.76765 18.401C3.89865 18.4396 4.03616 18.451 4.17172 18.4344C4.30727 18.4178 4.43799 18.3736 4.55582 18.3046C4.67364 18.2355 4.77608 18.1431 4.85681 18.0329C4.93754 17.9228 4.99485 17.7973 5.02522 17.6641C5.05558 17.531 5.05835 17.393 5.03335 17.2588C5.00836 17.1245 4.95613 16.9968 4.87988 16.8835C4.80364 16.7702 4.705 16.6737 4.59004 16.6C4.40598 16.4634 4.25665 16.2854 4.15415 16.0804C4.05165 15.8754 3.99886 15.6492 4.00004 15.42C4.00004 15.0222 4.15807 14.6406 4.43938 14.3593C4.72068 14.078 5.10221 13.92 5.50004 13.92C5.76525 13.92 6.01961 13.8146 6.20714 13.6271C6.39468 13.4396 6.50004 13.1852 6.50004 12.92C6.50432 11.9757 6.84256 11.0633 7.45487 10.3445C8.06719 9.62557 8.9141 9.14649 9.84569 8.99202C10.7773 8.83755 11.7335 9.01766 12.5451 9.50045C13.3566 9.98325 13.9712 10.7376 14.28 11.63C14.3387 11.8 14.4421 11.951 14.5794 12.0671C14.7166 12.1833 14.8827 12.2603 15.06 12.29C15.5572 12.372 16.0144 12.6129 16.363 12.9767C16.7117 13.3404 16.933 13.8074 16.9939 14.3076C17.0547 14.8078 16.9517 15.3142 16.7004 15.751C16.4492 16.1877 16.063 16.5312 15.6 16.73C15.4789 16.7822 15.3694 16.8578 15.2776 16.9525C15.1859 17.0472 15.1137 17.1591 15.0654 17.2818C15.0171 17.4045 14.9935 17.5355 14.996 17.6674C14.9985 17.7992 15.0271 17.9292 15.08 18.05C15.1581 18.2289 15.2868 18.381 15.4503 18.4876C15.6138 18.5942 15.8049 18.6507 16 18.65C16.1384 18.6501 16.2751 18.6194 16.4 18.56C17.1775 18.2211 17.8384 17.6614 18.3006 16.9504C18.7628 16.2393 19.006 15.4081 19 14.56C18.998 14.0258 18.8963 13.4968 18.7 13L18.83 13.13C19.0163 13.3147 19.2677 13.4189 19.53 13.42C19.6616 13.4207 19.7921 13.3955 19.9139 13.3458C20.0358 13.296 20.1466 13.2227 20.24 13.13C20.3338 13.037 20.4082 12.9264 20.4589 12.8046C20.5097 12.6827 20.5358 12.552 20.5358 12.42C20.5358 12.288 20.5097 12.1573 20.4589 12.0354C20.4082 11.9135 20.3338 11.8029 20.24 11.71L19.68 11.15C19.9208 10.7611 20.0965 10.3355 20.2 9.88998H21C21.2653 9.88998 21.5196 9.78463 21.7071 9.59709C21.8947 9.40955 22 9.1552 22 8.88998C22 8.62477 21.8947 8.37041 21.7071 8.18288C21.5196 7.99534 21.2653 7.88998 21 7.88998V7.91998ZM17.66 10.56C17.4884 10.7342 17.2847 10.8734 17.06 10.97C16.7327 10.7505 16.3758 10.5788 16 10.46C15.5329 9.4607 14.7994 8.60952 13.88 7.99998C13.9867 7.73911 14.1429 7.50139 14.34 7.29998C14.788 6.88244 15.3776 6.65027 15.99 6.65027C16.6024 6.65027 17.1921 6.88244 17.64 7.29998C18.073 7.73801 18.3158 8.32908 18.3158 8.94498C18.3158 9.56088 18.073 10.152 17.64 10.59L17.66 10.56Z" fill="black"/>
</svg>
