<svg width="24" height="24" viewBox="0 0 24 24" fill="none" xmlns="http://www.w3.org/2000/svg">
<path d="M14.5 15.92H13.73L14.12 15.25C14.2526 15.0193 14.2881 14.7453 14.2187 14.4884C14.1494 14.2314 13.9807 14.0126 13.75 13.88C13.5193 13.7474 13.2453 13.7119 12.9884 13.7813C12.7315 13.8506 12.5126 14.0193 12.38 14.25L12 14.92L11.62 14.25C11.4874 14.0193 11.2686 13.8506 11.0116 13.7813C10.7547 13.7119 10.4807 13.7474 10.25 13.88C10.0193 14.0126 9.85066 14.2314 9.78127 14.4884C9.71188 14.7453 9.7474 15.0193 9.88001 15.25L10.27 15.92H9.50001C9.23479 15.92 8.98044 16.0253 8.7929 16.2129C8.60536 16.4004 8.50001 16.6548 8.50001 16.92C8.50001 17.1852 8.60536 17.4396 8.7929 17.6271C8.98044 17.8146 9.23479 17.92 9.50001 17.92H10.27L9.88001 18.58C9.7474 18.8107 9.71188 19.0847 9.78127 19.3416C9.85066 19.5985 10.0193 19.8174 10.25 19.95C10.4807 20.0826 10.7547 20.1181 11.0116 20.0487C11.2686 19.9793 11.4874 19.8107 11.62 19.58L12 18.92L12.38 19.58C12.5126 19.8107 12.7315 19.9793 12.9884 20.0487C13.2453 20.1181 13.5193 20.0826 13.75 19.95C13.9807 19.8174 14.1494 19.5985 14.2187 19.3416C14.2881 19.0847 14.2526 18.8107 14.12 18.58L13.73 17.92H14.5C14.7652 17.92 15.0196 17.8146 15.2071 17.6271C15.3946 17.4396 15.5 17.1852 15.5 16.92C15.5 16.6548 15.3946 16.4004 15.2071 16.2129C15.0196 16.0253 14.7652 15.92 14.5 15.92ZM18.42 8.12999C17.8104 6.72637 16.7576 5.5612 15.4227 4.81282C14.0879 4.06445 12.5447 3.7741 11.0291 3.98623C9.51361 4.19836 8.10936 4.90127 7.03131 5.98737C5.95327 7.07348 5.26084 8.48293 5.06001 9.99999C4.1824 10.2121 3.40238 10.715 2.84681 11.4267C2.29123 12.1384 1.99279 13.0171 2.00001 13.92C2.00359 14.8638 2.34081 15.776 2.95203 16.4952C3.56325 17.2144 4.4091 17.6943 5.34001 17.85H5.50001C5.76522 17.8712 6.028 17.7862 6.23054 17.6137C6.43308 17.4411 6.55879 17.1952 6.58001 16.93C6.60122 16.6648 6.51621 16.402 6.34368 16.1995C6.17115 15.9969 5.92522 15.8712 5.66001 15.85C5.19042 15.769 4.76517 15.5231 4.46083 15.1564C4.1565 14.7897 3.99308 14.3265 4.00001 13.85C4.00001 13.3196 4.21072 12.8108 4.58579 12.4358C4.96087 12.0607 5.46957 11.85 6.00001 11.85C6.26522 11.85 6.51958 11.7446 6.70711 11.5571C6.89465 11.3696 7.00001 11.1152 7.00001 10.85C7.00256 9.66727 7.42429 8.52374 8.19028 7.62257C8.95626 6.7214 10.0169 6.12094 11.1838 5.92786C12.3506 5.73479 13.5481 5.9616 14.5636 6.568C15.579 7.1744 16.3466 8.12113 16.73 9.23999C16.7887 9.40997 16.8921 9.56098 17.0293 9.67713C17.1666 9.79328 17.3327 9.87027 17.51 9.89999C18.1467 10.0156 18.729 10.3341 19.1699 10.8078C19.6108 11.2815 19.8867 11.885 19.9564 12.5284C20.0262 13.1718 19.886 13.8205 19.5568 14.3776C19.2277 14.9348 18.7272 15.3706 18.13 15.62C17.9973 15.6601 17.8745 15.7274 17.7692 15.8176C17.6639 15.9078 17.5786 16.0189 17.5185 16.1438C17.4584 16.2687 17.425 16.4047 17.4203 16.5433C17.4156 16.6818 17.4398 16.8198 17.4913 16.9485C17.5427 17.0772 17.6204 17.1938 17.7193 17.2909C17.8183 17.3879 17.9363 17.4634 18.066 17.5124C18.1956 17.5615 18.334 17.583 18.4724 17.5757C18.6109 17.5684 18.7462 17.5324 18.87 17.47C19.8247 17.0778 20.6346 16.3997 21.1886 15.5289C21.7426 14.6581 22.0135 13.6372 21.9642 12.6063C21.9149 11.5753 21.5478 10.5849 20.9132 9.77096C20.2787 8.95698 19.4077 8.35932 18.42 8.05999V8.12999Z" fill="black"/>
</svg>
