<svg width="24" height="24" viewBox="0 0 24 24" fill="none" xmlns="http://www.w3.org/2000/svg">
<path d="M7.41999 15.54C7.23374 15.7274 7.1292 15.9808 7.1292 16.245C7.1292 16.5092 7.23374 16.7627 7.41999 16.95C7.51295 17.0437 7.62355 17.1181 7.74541 17.1689C7.86727 17.2197 7.99798 17.2458 8.12999 17.2458C8.262 17.2458 8.39271 17.2197 8.51457 17.1689C8.63643 17.1181 8.74703 17.0437 8.83999 16.95C9.02624 16.7627 9.13078 16.5092 9.13078 16.245C9.13078 15.9808 9.02624 15.7274 8.83999 15.54C8.74703 15.4463 8.63643 15.3719 8.51457 15.3211C8.39271 15.2704 8.262 15.2442 8.12999 15.2442C7.99798 15.2442 7.86727 15.2704 7.74541 15.3211C7.62355 15.3719 7.51295 15.4463 7.41999 15.54ZM7.41999 7.05002C7.23374 7.23738 7.1292 7.49083 7.1292 7.75502C7.1292 8.0192 7.23374 8.27265 7.41999 8.46002C7.51295 8.55375 7.62355 8.62814 7.74541 8.67891C7.86727 8.72968 7.99798 8.75582 8.12999 8.75582C8.262 8.75582 8.39271 8.72968 8.51457 8.67891C8.63643 8.62814 8.74703 8.55375 8.83999 8.46002C9.02624 8.27265 9.13078 8.0192 9.13078 7.75502C9.13078 7.49083 9.02624 7.23738 8.83999 7.05002C8.74703 6.95629 8.63643 6.88189 8.51457 6.83113C8.39271 6.78036 8.262 6.75422 8.12999 6.75422C7.99798 6.75422 7.86727 6.78036 7.74541 6.83113C7.62355 6.88189 7.51295 6.95629 7.41999 7.05002ZM12.37 17.05C12.1722 17.05 11.9789 17.1087 11.8144 17.2185C11.65 17.3284 11.5218 17.4846 11.4461 17.6673C11.3704 17.8501 11.3506 18.0511 11.3892 18.2451C11.4278 18.4391 11.523 18.6173 11.6629 18.7571C11.8027 18.897 11.9809 18.9922 12.1749 19.0308C12.3689 19.0694 12.5699 19.0496 12.7527 18.9739C12.9354 18.8982 13.0916 18.77 13.2015 18.6056C13.3113 18.4411 13.37 18.2478 13.37 18.05C13.3768 17.9145 13.3559 17.7791 13.3087 17.652C13.2615 17.5248 13.1889 17.4086 13.0954 17.3104C13.0018 17.2121 12.8893 17.134 12.7646 17.0806C12.6399 17.0273 12.5056 16.9998 12.37 17V17.05ZM6.36999 11.05C6.17221 11.05 5.97887 11.1087 5.81442 11.2185C5.64997 11.3284 5.5218 11.4846 5.44611 11.6673C5.37042 11.8501 5.35062 12.0511 5.3892 12.2451C5.42779 12.4391 5.52303 12.6173 5.66288 12.7571C5.80274 12.897 5.98092 12.9922 6.1749 13.0308C6.36888 13.0694 6.56995 13.0496 6.75267 12.9739C6.9354 12.8982 7.09158 12.77 7.20146 12.6056C7.31134 12.4411 7.36999 12.2478 7.36999 12.05C7.37677 11.9145 7.35592 11.7791 7.30871 11.652C7.26151 11.5248 7.18892 11.4086 7.09538 11.3104C7.00184 11.2121 6.88929 11.134 6.76459 11.0806C6.63988 11.0273 6.50563 10.9998 6.36999 11V11.05ZM12.37 5.05002C12.1722 5.05002 11.9789 5.10867 11.8144 5.21855C11.65 5.32843 11.5218 5.48461 11.4461 5.66733C11.3704 5.85006 11.3506 6.05113 11.3892 6.24511C11.4278 6.43909 11.523 6.61727 11.6629 6.75712C11.8027 6.89698 11.9809 6.99222 12.1749 7.0308C12.3689 7.06939 12.5699 7.04958 12.7527 6.9739C12.9354 6.89821 13.0916 6.77004 13.2015 6.60559C13.3113 6.44114 13.37 6.2478 13.37 6.05002C13.3768 5.91455 13.3559 5.77912 13.3087 5.65196C13.2615 5.5248 13.1889 5.40858 13.0954 5.31036C13.0018 5.21214 12.8893 5.13398 12.7646 5.08062C12.6399 5.02727 12.5056 4.99985 12.37 5.00002V5.05002ZM15.91 7.10002C15.7695 7.23963 15.6737 7.4178 15.6346 7.61195C15.5956 7.80609 15.615 8.00746 15.6905 8.19053C15.7661 8.37361 15.8942 8.53014 16.0588 8.64028C16.2234 8.75042 16.417 8.80922 16.615 8.80922C16.813 8.80922 17.0066 8.75042 17.1712 8.64028C17.3358 8.53014 17.4639 8.37361 17.5394 8.19053C17.615 8.00746 17.6344 7.80609 17.5953 7.61195C17.5563 7.4178 17.4604 7.23963 17.32 7.10002C17.1393 6.90697 16.8895 6.79334 16.6253 6.78397C16.3611 6.7746 16.1039 6.87025 15.91 7.05002V7.10002ZM22.21 7.10002C21.2957 5.27231 19.8904 3.73544 18.1516 2.66172C16.4128 1.588 14.4092 1.0199 12.3656 1.02112C10.322 1.02234 8.31911 1.59284 6.58157 2.66863C4.84404 3.74443 3.44054 5.28298 2.52847 7.11178C1.6164 8.94057 1.23181 10.9873 1.41783 13.0224C1.60386 15.0576 2.35314 17.0006 3.58166 18.6338C4.81017 20.2669 6.46935 21.5255 8.37313 22.2684C10.2769 23.0114 12.35 23.2093 14.36 22.84C14.8654 22.7449 15.3468 22.55 15.7761 22.2667C16.2054 21.9834 16.5738 21.6174 16.86 21.19C17.1683 20.7254 17.3811 20.2041 17.4858 19.6564C17.5905 19.1087 17.5852 18.5456 17.47 18C17.407 17.6703 17.3736 17.3357 17.37 17C17.3744 16.031 17.6602 15.0841 18.1929 14.2745C18.7255 13.465 19.4818 12.8276 20.37 12.44C20.8489 12.2256 21.2787 11.9153 21.633 11.5284C21.9873 11.1414 22.2586 10.6859 22.43 10.19C22.6034 9.6833 22.6733 9.14693 22.6355 8.6127C22.5977 8.07847 22.453 7.55728 22.21 7.08002V7.10002ZM20.51 9.54002C20.4247 9.77933 20.2922 9.99911 20.1204 10.1863C19.9487 10.3736 19.7411 10.5244 19.51 10.63C18.28 11.1806 17.235 12.0746 16.5006 13.2045C15.7663 14.3345 15.3737 15.6524 15.37 17C15.3715 17.4701 15.4184 17.9389 15.51 18.4C15.5711 18.6818 15.5751 18.973 15.5219 19.2564C15.4686 19.5397 15.3592 19.8096 15.2 20.05C15.0653 20.2604 14.8881 20.4403 14.6797 20.5781C14.4713 20.7159 14.2363 20.8085 13.99 20.85C13.4558 20.9504 12.9135 21.0006 12.37 21C11.1642 21.0006 9.9705 20.7589 8.85991 20.2892C7.74932 19.8195 6.74444 19.1314 5.90495 18.2658C5.06546 17.4002 4.40847 16.3747 3.97301 15.2502C3.53754 14.1258 3.33247 12.9253 3.36999 11.72C3.4476 9.47281 4.359 7.33497 5.92662 5.72298C7.49424 4.11099 9.60582 3.1403 11.85 3.00002H12.36C14.0357 3.00044 15.6781 3.4687 17.1021 4.35208C18.5261 5.23546 19.6752 6.49887 20.42 8.00002C20.6492 8.475 20.6816 9.0213 20.51 9.52002V9.54002ZM12.37 11C12.1722 11 11.9789 11.0587 11.8144 11.1685C11.65 11.2784 11.5218 11.4346 11.4461 11.6173C11.3704 11.8001 11.3506 12.0011 11.3892 12.1951C11.4278 12.3891 11.523 12.5673 11.6629 12.7071C11.8027 12.847 11.9809 12.9422 12.1749 12.9808C12.3689 13.0194 12.5699 12.9996 12.7527 12.9239C12.9354 12.8482 13.0916 12.72 13.2015 12.5556C13.3113 12.3911 13.37 12.1978 13.37 12C13.37 11.7348 13.2646 11.4804 13.0771 11.2929C12.8896 11.1054 12.6352 11 12.37 11Z" fill="black"/>
</svg>
