<svg width="24" height="24" viewBox="0 0 24 24" fill="none" xmlns="http://www.w3.org/2000/svg">
<path d="M10.3799 13.0799C10.2597 13.0287 10.1306 13.0015 9.99994 12.9999H5.99994C5.73472 12.9999 5.48037 13.1053 5.29283 13.2928C5.1053 13.4804 4.99994 13.7347 4.99994 13.9999C4.99994 14.2652 5.1053 14.5195 5.29283 14.707C5.48037 14.8946 5.73472 14.9999 5.99994 14.9999H7.58994L2.28994 20.2899C2.19621 20.3829 2.12182 20.4935 2.07105 20.6154C2.02028 20.7372 1.99414 20.8679 1.99414 20.9999C1.99414 21.132 2.02028 21.2627 2.07105 21.3845C2.12182 21.5064 2.19621 21.617 2.28994 21.7099C2.3829 21.8037 2.4935 21.8781 2.61536 21.9288C2.73722 21.9796 2.86793 22.0057 2.99994 22.0057C3.13195 22.0057 3.26266 21.9796 3.38452 21.9288C3.50637 21.8781 3.61698 21.8037 3.70994 21.7099L8.99994 16.4099V17.9999C8.99994 18.2652 9.1053 18.5195 9.29283 18.707C9.48037 18.8946 9.73472 18.9999 9.99994 18.9999C10.2652 18.9999 10.5195 18.8946 10.707 18.707C10.8946 18.5195 10.9999 18.2652 10.9999 17.9999V13.9999C10.9984 13.8693 10.9712 13.7402 10.9199 13.6199C10.8185 13.3756 10.6243 13.1814 10.3799 13.0799ZM9.99994 4.99994C9.73472 4.99994 9.48037 5.1053 9.29283 5.29283C9.1053 5.48037 8.99994 5.73472 8.99994 5.99994V7.58994L3.70994 2.28994C3.6167 2.1967 3.50601 2.12274 3.38419 2.07228C3.26237 2.02182 3.1318 1.99585 2.99994 1.99585C2.86808 1.99585 2.73751 2.02182 2.61569 2.07228C2.49387 2.12274 2.38318 2.1967 2.28994 2.28994C2.10164 2.47824 1.99585 2.73364 1.99585 2.99994C1.99585 3.26624 2.10164 3.52164 2.28994 3.70994L7.58994 8.99994H5.99994C5.73472 8.99994 5.48037 9.1053 5.29283 9.29283C5.1053 9.48037 4.99994 9.73472 4.99994 9.99994C4.99994 10.2652 5.1053 10.5195 5.29283 10.707C5.48037 10.8946 5.73472 10.9999 5.99994 10.9999H9.99994C10.1306 10.9984 10.2597 10.9712 10.3799 10.9199C10.6243 10.8185 10.8185 10.6243 10.9199 10.3799C10.9712 10.2597 10.9984 10.1306 10.9999 9.99994V5.99994C10.9999 5.73472 10.8946 5.48037 10.707 5.29283C10.5195 5.1053 10.2652 4.99994 9.99994 4.99994ZM13.6199 10.9199C13.7402 10.9712 13.8693 10.9984 13.9999 10.9999H17.9999C18.2652 10.9999 18.5195 10.8946 18.707 10.707C18.8946 10.5195 18.9999 10.2652 18.9999 9.99994C18.9999 9.73472 18.8946 9.48037 18.707 9.29283C18.5195 9.1053 18.2652 8.99994 17.9999 8.99994H16.4099L21.7099 3.70994C21.8982 3.52164 22.004 3.26624 22.004 2.99994C22.004 2.73364 21.8982 2.47824 21.7099 2.28994C21.5216 2.10164 21.2662 1.99585 20.9999 1.99585C20.7336 1.99585 20.4782 2.10164 20.2899 2.28994L14.9999 7.58994V5.99994C14.9999 5.73472 14.8946 5.48037 14.707 5.29283C14.5195 5.1053 14.2652 4.99994 13.9999 4.99994C13.7347 4.99994 13.4804 5.1053 13.2928 5.29283C13.1053 5.48037 12.9999 5.73472 12.9999 5.99994V9.99994C13.0015 10.1306 13.0287 10.2597 13.0799 10.3799C13.1814 10.6243 13.3756 10.8185 13.6199 10.9199ZM16.4099 14.9999H17.9999C18.2652 14.9999 18.5195 14.8946 18.707 14.707C18.8946 14.5195 18.9999 14.2652 18.9999 13.9999C18.9999 13.7347 18.8946 13.4804 18.707 13.2928C18.5195 13.1053 18.2652 12.9999 17.9999 12.9999H13.9999C13.8693 13.0015 13.7402 13.0287 13.6199 13.0799C13.3756 13.1814 13.1814 13.3756 13.0799 13.6199C13.0287 13.7402 13.0015 13.8693 12.9999 13.9999V17.9999C12.9999 18.2652 13.1053 18.5195 13.2928 18.707C13.4804 18.8946 13.7347 18.9999 13.9999 18.9999C14.2652 18.9999 14.5195 18.8946 14.707 18.707C14.8946 18.5195 14.9999 18.2652 14.9999 17.9999V16.4099L20.2899 21.7099C20.3829 21.8037 20.4935 21.8781 20.6154 21.9288C20.7372 21.9796 20.8679 22.0057 20.9999 22.0057C21.132 22.0057 21.2627 21.9796 21.3845 21.9288C21.5064 21.8781 21.617 21.8037 21.7099 21.7099C21.8037 21.617 21.8781 21.5064 21.9288 21.3845C21.9796 21.2627 22.0057 21.132 22.0057 20.9999C22.0057 20.8679 21.9796 20.7372 21.9288 20.6154C21.8781 20.4935 21.8037 20.3829 21.7099 20.2899L16.4099 14.9999Z" fill="black"/>
</svg>
