<svg width="24" height="24" viewBox="0 0 24 24" fill="none" xmlns="http://www.w3.org/2000/svg">
<path d="M20.11 17.49L15 8.73V4H16C16.2652 4 16.5196 3.89464 16.7071 3.70711C16.8947 3.51957 17 3.26522 17 3C17 2.73478 16.8947 2.48043 16.7071 2.29289C16.5196 2.10536 16.2652 2 16 2H8.00002C7.73481 2 7.48045 2.10536 7.29292 2.29289C7.10538 2.48043 7.00002 2.73478 7.00002 3C7.00002 3.26522 7.10538 3.51957 7.29292 3.70711C7.48045 3.89464 7.73481 4 8.00002 4H9.00002V8.73L3.89002 17.49C3.62457 17.9457 3.48394 18.4634 3.48231 18.9908C3.48069 19.5182 3.61813 20.0367 3.88077 20.494C4.14342 20.9514 4.52199 21.3314 4.97832 21.5958C5.43465 21.8602 5.95263 21.9996 6.48002 22H17.48C18.0074 21.9996 18.5254 21.8602 18.9817 21.5958C19.4381 21.3314 19.8166 20.9514 20.0793 20.494C20.3419 20.0367 20.4794 19.5182 20.4777 18.9908C20.4761 18.4634 20.3355 17.9457 20.07 17.49H20.11ZM10.86 9.49C10.9482 9.3415 10.9965 9.17268 11 9V4H13V9C13.0019 9.17609 13.0501 9.34857 13.14 9.5L14 11H10L10.86 9.49ZM18.38 19.49C18.2928 19.6411 18.1675 19.7668 18.0166 19.8545C17.8657 19.9422 17.6945 19.9889 17.52 19.99H6.52002C6.34551 19.9889 6.17431 19.9422 6.02344 19.8545C5.87257 19.7668 5.74728 19.6411 5.66002 19.49C5.57225 19.338 5.52605 19.1655 5.52605 18.99C5.52605 18.8145 5.57225 18.642 5.66002 18.49L8.83002 13H15.18L18.38 18.5C18.4678 18.652 18.514 18.8245 18.514 19C18.514 19.1755 18.4678 19.348 18.38 19.5V19.49ZM10 15C9.80224 15 9.6089 15.0586 9.44445 15.1685C9.28 15.2784 9.15183 15.4346 9.07614 15.6173C9.00046 15.8 8.98065 16.0011 9.01924 16.1951C9.05782 16.3891 9.15306 16.5673 9.29292 16.7071C9.43277 16.847 9.61095 16.9422 9.80493 16.9808C9.99891 17.0194 10.2 16.9996 10.3827 16.9239C10.5654 16.8482 10.7216 16.72 10.8315 16.5556C10.9414 16.3911 11 16.1978 11 16C11 15.7348 10.8947 15.4804 10.7071 15.2929C10.5196 15.1054 10.2652 15 10 15ZM14 16C13.8022 16 13.6089 16.0586 13.4445 16.1685C13.28 16.2784 13.1518 16.4346 13.0761 16.6173C13.0005 16.8 12.9807 17.0011 13.0192 17.1951C13.0578 17.3891 13.1531 17.5673 13.2929 17.7071C13.4328 17.847 13.611 17.9422 13.8049 17.9808C13.9989 18.0194 14.2 17.9996 14.3827 17.9239C14.5654 17.8482 14.7216 17.72 14.8315 17.5556C14.9414 17.3911 15 17.1978 15 17C15 16.7348 14.8947 16.4804 14.7071 16.2929C14.5196 16.1054 14.2652 16 14 16Z" fill="black"/>
</svg>
