<svg width="24" height="24" viewBox="0 0 24 24" fill="none" xmlns="http://www.w3.org/2000/svg">
<path d="M20 13.17V13C20.001 11.93 19.7873 10.8707 19.3717 9.88478C18.956 8.89884 18.3468 8.00631 17.58 7.26C16.6849 6.38898 15.5946 5.74442 14.4 5.38H14.35C13.5125 5.11613 12.6381 4.98784 11.76 5C9.66841 5.1148 7.6998 6.02476 6.25718 7.5436C4.81457 9.06243 4.00708 11.0753 4.00002 13.17C3.33169 13.4051 2.76813 13.8691 2.40915 14.4799C2.05018 15.0908 1.91896 15.8089 2.03873 16.5072C2.15851 17.2055 2.52154 17.8388 3.06355 18.2951C3.60555 18.7513 4.29154 19.0011 5.00002 19H19C19.7085 19.0011 20.3945 18.7513 20.9365 18.2951C21.4785 17.8388 21.8415 17.2055 21.9613 16.5072C22.0811 15.8089 21.9499 15.0908 21.5909 14.4799C21.2319 13.8691 20.6684 13.4051 20 13.17ZM19 17H5.00002C4.7348 17 4.48045 16.8946 4.29291 16.7071C4.10538 16.5196 4.00002 16.2652 4.00002 16C4.00002 15.7348 4.10538 15.4804 4.29291 15.2929C4.48045 15.1054 4.7348 15 5.00002 15H7.00002C7.26524 15 7.51959 14.8946 7.70713 14.7071C7.89466 14.5196 8.00002 14.2652 8.00002 14C8.00002 13.7348 7.89466 13.4804 7.70713 13.2929C7.51959 13.1054 7.26524 13 7.00002 13H6.00002C6.04563 11.9628 6.34248 10.9522 6.86506 10.0551C7.38764 9.15803 8.12029 8.40129 9.00002 7.85V11C9.00002 11.2652 9.10538 11.5196 9.29291 11.7071C9.48045 11.8946 9.7348 12 10 12C10.2652 12 10.5196 11.8946 10.7071 11.7071C10.8947 11.5196 11 11.2652 11 11V7.09C11.2715 7.04465 11.5452 7.0146 11.82 7H12C12.3357 7.00307 12.6704 7.03654 13 7.1V11C13 11.2652 13.1054 11.5196 13.2929 11.7071C13.4804 11.8946 13.7348 12 14 12C14.2652 12 14.5196 11.8946 14.7071 11.7071C14.8947 11.5196 15 11.2652 15 11V7.82C15.4242 8.06562 15.82 8.35739 16.18 8.69C16.7566 9.24989 17.2148 9.91992 17.5274 10.6603C17.8401 11.4007 18.0008 12.1963 18 13H17C16.7348 13 16.4804 13.1054 16.2929 13.2929C16.1054 13.4804 16 13.7348 16 14C16 14.2652 16.1054 14.5196 16.2929 14.7071C16.4804 14.8946 16.7348 15 17 15H19C19.2652 15 19.5196 15.1054 19.7071 15.2929C19.8947 15.4804 20 15.7348 20 16C20 16.2652 19.8947 16.5196 19.7071 16.7071C19.5196 16.8946 19.2652 17 19 17Z" fill="black"/>
</svg>
