<svg width="24" height="24" viewBox="0 0 24 24" fill="none" xmlns="http://www.w3.org/2000/svg">
<path d="M21.12 2.88002C20.5477 2.33702 19.7889 2.0343 19 2.0343C18.2111 2.0343 17.4523 2.33702 16.88 2.88002L14.46 5.29002C14.0248 5.73018 13.7364 6.29416 13.6344 6.90466C13.5323 7.51515 13.6216 8.14227 13.89 8.70002L11.74 10.85L9.74 8.85002C9.37921 8.48053 8.92914 8.21042 8.43335 8.06585C7.93757 7.92129 7.41286 7.90715 6.91001 8.02482C6.40716 8.14248 5.94321 8.38797 5.56304 8.73751C5.18288 9.08704 4.89939 9.5288 4.74 10.02L2.08 18.02C1.90323 18.5481 1.87695 19.115 2.00412 19.6572C2.13128 20.1995 2.40686 20.6956 2.8 21.09C3.0852 21.3838 3.42751 21.6161 3.80587 21.7726C4.18422 21.9291 4.59061 22.0065 5 22C5.34018 22.0064 5.67879 21.9522 6 21.84L14 19.18C14.4912 19.0206 14.933 18.7371 15.2825 18.357C15.6321 17.9768 15.8775 17.5129 15.9952 17.01C16.1129 16.5072 16.0987 15.9825 15.9542 15.4867C15.8096 14.9909 15.5395 14.5408 15.17 14.18L13.17 12.18L15.32 10.03C15.8778 10.2984 16.5049 10.3877 17.1154 10.2856C17.7259 10.1836 18.2898 9.8952 18.73 9.46002L21.14 7.04002C21.6751 6.47852 21.9719 5.73161 21.9682 4.95599C21.9644 4.18038 21.6605 3.43635 21.12 2.88002ZM13.7 15.63C13.819 15.7513 13.9052 15.9008 13.9503 16.0646C13.9955 16.2284 13.9982 16.401 13.9582 16.5661C13.9181 16.7312 13.8367 16.8834 13.7216 17.0083C13.6064 17.1332 13.4613 17.2267 13.3 17.28L5.32 20C5.14633 20.0531 4.96148 20.0578 4.78531 20.0138C4.60913 19.9698 4.44828 19.8786 4.32 19.75C4.19146 19.6217 4.10027 19.4609 4.05623 19.2847C4.01218 19.1085 4.01695 18.9237 4.07 18.75L6.74 10.75C6.77806 10.5734 6.86324 10.4105 6.98649 10.2784C7.10974 10.1464 7.26646 10.0502 7.44 10C7.51645 9.99176 7.59356 9.99176 7.67 10C7.93234 10.0011 8.18374 10.1053 8.37 10.29L10.37 12.29L9.5 13.15C9.40627 13.243 9.33188 13.3536 9.28111 13.4754C9.23034 13.5973 9.2042 13.728 9.2042 13.86C9.2042 13.992 9.23034 14.1227 9.28111 14.2446C9.33188 14.3665 9.40627 14.4771 9.5 14.57C9.59296 14.6638 9.70357 14.7381 9.82542 14.7889C9.94728 14.8397 10.078 14.8658 10.21 14.8658C10.342 14.8658 10.4727 14.8397 10.5946 14.7889C10.7164 14.7381 10.827 14.6638 10.92 14.57L11.78 13.7L13.7 15.63ZM19.7 5.71002L17.29 8.12002C17.1496 8.25763 16.9718 8.35081 16.7787 8.38791C16.5857 8.42502 16.386 8.4044 16.2046 8.32864C16.0232 8.25289 15.8682 8.12534 15.7589 7.96196C15.6495 7.79858 15.5908 7.6066 15.59 7.41002C15.5911 7.14768 15.6953 6.89628 15.88 6.71002L18.29 4.29002C18.383 4.19629 18.4936 4.1219 18.6154 4.07113C18.7373 4.02036 18.868 3.99423 19 3.99423C19.132 3.99423 19.2627 4.02036 19.3846 4.07113C19.5064 4.1219 19.617 4.19629 19.71 4.29002C19.8037 4.38299 19.8781 4.49359 19.9289 4.61545C19.9797 4.73731 20.0058 4.86801 20.0058 5.00002C20.0058 5.13204 19.9797 5.26274 19.9289 5.3846C19.8781 5.50646 19.8037 5.61706 19.71 5.71002H19.7Z" fill="black"/>
</svg>
