<svg width="24" height="24" viewBox="0 0 24 24" fill="none" xmlns="http://www.w3.org/2000/svg">
<path d="M20.49 7.52002C20.4843 7.49366 20.4843 7.46638 20.49 7.44002C20.4852 7.41694 20.4852 7.3931 20.49 7.37002V7.28002L20.43 7.13002C20.4056 7.08909 20.3753 7.05202 20.34 7.02002L20.25 6.94002H20.2L16.26 4.45002L12.54 2.15002C12.4539 2.08175 12.3555 2.03081 12.25 2.00002H12.17C12.0806 1.9851 11.9894 1.9851 11.9 2.00002H11.8C11.6838 2.02571 11.5725 2.06959 11.47 2.13002L4.00001 6.78002L3.91001 6.85002L3.82001 6.93002L3.72001 7.00002L3.67001 7.06002L3.61001 7.21002V7.30002V7.36002C3.60029 7.42633 3.60029 7.49371 3.61001 7.56002V16.29C3.60967 16.46 3.65264 16.6272 3.73488 16.7759C3.81711 16.9246 3.93589 17.0499 4.08001 17.14L11.58 21.78L11.73 21.84H11.81C11.9792 21.8937 12.1608 21.8937 12.33 21.84H12.41L12.56 21.78L20 17.21C20.1441 17.1199 20.2629 16.9946 20.3451 16.8459C20.4274 16.6972 20.4703 16.53 20.47 16.36V7.63002C20.47 7.63002 20.49 7.56002 20.49 7.52002ZM12 4.17002L13.78 5.27002L8.19001 8.73002L6.40001 7.63002L12 4.17002ZM11 19.17L5.50001 15.81V9.42002L11 12.82V19.17ZM12 11.06L10.09 9.91002L15.68 6.44002L17.6 7.63002L12 11.06ZM18.5 15.78L13 19.2V12.82L18.5 9.42002V15.78Z" fill="black"/>
</svg>
