<svg width="24" height="24" viewBox="0 0 24 24" fill="none" xmlns="http://www.w3.org/2000/svg">
<path d="M15.29 10.29L12.51 13.07C12.3435 13.0257 12.1722 13.0022 12 13C11.4696 13 10.9609 13.2107 10.5858 13.5858C10.2107 13.9609 10 14.4696 10 15C10.0022 15.1722 10.0257 15.3435 10.07 15.51L9.29 16.29C9.19627 16.383 9.12188 16.4936 9.07111 16.6154C9.02034 16.7373 8.9942 16.868 8.9942 17C8.9942 17.132 9.02034 17.2627 9.07111 17.3846C9.12188 17.5064 9.19627 17.617 9.29 17.71C9.38296 17.8037 9.49356 17.8781 9.61542 17.9289C9.73728 17.9797 9.86799 18.0058 10 18.0058C10.132 18.0058 10.2627 17.9797 10.3846 17.9289C10.5064 17.8781 10.617 17.8037 10.71 17.71L11.49 16.93C11.6565 16.9743 11.8278 16.9978 12 17C12.5304 17 13.0391 16.7893 13.4142 16.4142C13.7893 16.0391 14 15.5304 14 15C13.9978 14.8278 13.9743 14.6565 13.93 14.49L16.71 11.71C16.8983 11.5217 17.0041 11.2663 17.0041 11C17.0041 10.7337 16.8983 10.4783 16.71 10.29C16.5217 10.1017 16.2663 9.99591 16 9.99591C15.7337 9.99591 15.4783 10.1017 15.29 10.29ZM12 4C10.6868 4 9.38642 4.25866 8.17317 4.7612C6.95991 5.26375 5.85752 6.00035 4.92893 6.92893C3.05357 8.8043 2 11.3478 2 14C1.99508 15.9806 2.58372 17.9172 3.69 19.56C3.83852 19.7801 4.06841 19.9322 4.32908 19.9829C4.58976 20.0335 4.85987 19.9785 5.08 19.83C5.30013 19.6815 5.45224 19.4516 5.50288 19.1909C5.55351 18.9302 5.49852 18.6601 5.35 18.44C4.54452 17.2355 4.08128 15.8349 4.00975 14.3877C3.93823 12.9405 4.2611 11.501 4.94389 10.223C5.62667 8.94501 6.64375 7.87643 7.8865 7.13139C9.12925 6.38634 10.551 5.99281 12 5.99281C13.449 5.99281 14.8707 6.38634 16.1135 7.13139C17.3563 7.87643 18.3733 8.94501 19.0561 10.223C19.7389 11.501 20.0618 12.9405 19.9902 14.3877C19.9187 15.8349 19.4555 17.2355 18.65 18.44C18.5763 18.5489 18.5248 18.6714 18.4985 18.8002C18.4722 18.9291 18.4715 19.0619 18.4966 19.191C18.5217 19.3201 18.572 19.443 18.6447 19.5527C18.7173 19.6623 18.8109 19.7566 18.92 19.83C19.0855 19.9412 19.2806 20.0004 19.48 20C19.6438 20.0002 19.8052 19.9603 19.9499 19.8835C20.0946 19.8068 20.2183 19.6957 20.31 19.56C21.4163 17.9172 22.0049 15.9806 22 14C22 11.3478 20.9464 8.8043 19.0711 6.92893C17.1957 5.05357 14.6522 4 12 4Z" fill="black"/>
</svg>
