<svg width="24" height="24" viewBox="0 0 24 24" fill="none" xmlns="http://www.w3.org/2000/svg">
<path d="M19.088 4.95453C19.0807 4.94672 19.0785 4.93634 19.0708 4.92871C19.0632 4.92108 19.0526 4.91876 19.0448 4.91138C17.1743 3.04693 14.641 2 12 2C9.35905 2 6.82576 3.04693 4.95529 4.91138C4.94742 4.91876 4.93692 4.92102 4.92923 4.92871C4.92154 4.9364 4.9194 4.94671 4.91208 4.95453C3.51834 6.35495 2.57068 8.13686 2.1887 10.0754C1.80672 12.0139 2.00754 14.0221 2.76582 15.8465C3.5241 17.671 4.80585 19.23 6.4493 20.3267C8.09276 21.4234 10.0243 22.0087 12 22.0087C13.9758 22.0087 15.9073 21.4234 17.5508 20.3267C19.1942 19.23 20.476 17.671 21.2342 15.8465C21.9925 14.0221 22.1933 12.0139 21.8114 10.0754C21.4294 8.13686 20.4817 6.35495 19.088 4.95453ZM12 20C10.8022 19.9996 9.61995 19.7298 8.54065 19.2104C7.46135 18.6911 6.51271 17.9357 5.76498 17H9.78025C10.0583 17.3144 10.4 17.5661 10.7827 17.7385C11.1654 17.9109 11.5803 18 12 18C12.4197 18 12.8346 17.9109 13.2173 17.7385C13.5999 17.5661 13.9416 17.3144 14.2197 17H18.235C17.4873 17.9357 16.5387 18.6911 15.4593 19.2105C14.38 19.7298 13.1977 19.9996 12 20ZM11 15C11 14.8022 11.0586 14.6089 11.1685 14.4444C11.2784 14.28 11.4346 14.1518 11.6173 14.0761C11.8 14.0004 12.0011 13.9806 12.1951 14.0192C12.3891 14.0578 12.5672 14.153 12.7071 14.2929C12.8469 14.4327 12.9422 14.6109 12.9808 14.8049C13.0194 14.9989 12.9996 15.2 12.9239 15.3827C12.8482 15.5654 12.72 15.7216 12.5556 15.8315C12.3911 15.9413 12.1978 16 12 16C11.7348 15.9997 11.4806 15.8943 11.2932 15.7068C11.1057 15.5193 11.0002 15.2651 11 15ZM19.4102 15.0021L19.3999 15H15C14.9981 14.3816 14.8048 13.779 14.4467 13.2748C14.0886 12.7707 13.5832 12.3897 13 12.1843V9C13 8.73478 12.8946 8.48043 12.7071 8.29289C12.5196 8.10536 12.2652 8 12 8C11.7348 8 11.4804 8.10536 11.2929 8.29289C11.1053 8.48043 11 8.73478 11 9V12.1843C10.4167 12.3897 9.91135 12.7707 9.55325 13.2748C9.19515 13.779 9.00189 14.3816 8.99999 15H4.60009L4.58976 15.0021C4.32966 14.3603 4.15473 13.6872 4.06944 13H4.99998C5.2652 13 5.51956 12.8946 5.70709 12.7071C5.89463 12.5196 5.99998 12.2652 5.99998 12C5.99998 11.7348 5.89463 11.4804 5.70709 11.2929C5.51956 11.1054 5.2652 11 4.99998 11H4.06944C4.24813 9.57857 4.80754 8.23182 5.68852 7.10211L6.34325 7.75684C6.43609 7.84969 6.54632 7.92334 6.66764 7.97359C6.78895 8.02384 6.91897 8.0497 7.05028 8.0497C7.18159 8.0497 7.31161 8.02384 7.43292 7.97359C7.55423 7.92334 7.66446 7.84968 7.75731 7.75683C7.85016 7.66398 7.92381 7.55376 7.97406 7.43244C8.02431 7.31113 8.05017 7.18111 8.05017 7.0498C8.05017 6.91849 8.02431 6.78847 7.97406 6.66716C7.92381 6.54585 7.85015 6.43562 7.75731 6.34277L7.10265 5.68811C8.23228 4.80741 9.5788 4.24817 11 4.06946V5C11 5.26522 11.1053 5.51957 11.2929 5.70711C11.4804 5.89464 11.7348 6 12 6C12.2652 6 12.5196 5.89464 12.7071 5.70711C12.8946 5.51957 13 5.26522 13 5V4.06946C14.4212 4.24817 15.7677 4.80741 16.8973 5.68811L16.2427 6.34277C16.0551 6.53029 15.9498 6.78461 15.9498 7.0498C15.9498 7.31499 16.0551 7.56932 16.2427 7.75683C16.4302 7.94435 16.6845 8.0497 16.9497 8.0497C17.2149 8.0497 17.4692 7.94436 17.6567 7.75684L18.3114 7.10211C19.1924 8.23182 19.7518 9.57857 19.9305 11H19C18.7348 11 18.4804 11.1054 18.2929 11.2929C18.1053 11.4804 18 11.7348 18 12C18 12.2652 18.1053 12.5196 18.2929 12.7071C18.4804 12.8946 18.7348 13 19 13H19.9305C19.8452 13.6872 19.6703 14.3603 19.4102 15.0021Z" fill="black"/>
</svg>
