<svg width="24" height="24" viewBox="0 0 24 24" fill="none" xmlns="http://www.w3.org/2000/svg">
<path d="M16 5H13V3C13 2.73478 12.8946 2.48043 12.7071 2.29289C12.5196 2.10536 12.2652 2 12 2C11.7348 2 11.4804 2.10536 11.2929 2.29289C11.1054 2.48043 11 2.73478 11 3V5H6.00001C5.8498 5.00069 5.70168 5.03521 5.56665 5.101C5.43161 5.16679 5.31313 5.26215 5.22001 5.38L3.22001 7.88C3.0805 8.05655 3.00461 8.27499 3.00461 8.5C3.00461 8.72501 3.0805 8.94345 3.22001 9.12L5.22001 11.62C5.31313 11.7379 5.43161 11.8332 5.56665 11.899C5.70168 11.9648 5.8498 11.9993 6.00001 12H11V20H9.00001C8.73479 20 8.48044 20.1054 8.2929 20.2929C8.10536 20.4804 8.00001 20.7348 8.00001 21C8.00001 21.2652 8.10536 21.5196 8.2929 21.7071C8.48044 21.8946 8.73479 22 9.00001 22H15C15.2652 22 15.5196 21.8946 15.7071 21.7071C15.8946 21.5196 16 21.2652 16 21C16 20.7348 15.8946 20.4804 15.7071 20.2929C15.5196 20.1054 15.2652 20 15 20H13V12H16C16.2652 12 16.5196 11.8946 16.7071 11.7071C16.8947 11.5196 17 11.2652 17 11V6C17 5.73478 16.8947 5.48043 16.7071 5.29289C16.5196 5.10536 16.2652 5 16 5ZM15 10H6.48001L5.28001 8.5L6.48001 7H15V10Z" fill="black"/>
</svg>
