<svg width="24" height="24" viewBox="0 0 24 24" fill="none" xmlns="http://www.w3.org/2000/svg">
<path d="M19 14C18.8726 13.9669 18.74 13.9593 18.6096 13.9777C18.4793 13.996 18.3539 14.0398 18.2405 14.1067C18.1272 14.1736 18.0282 14.2622 17.9491 14.3675C17.8701 14.4727 17.8126 14.5925 17.78 14.72C17.3976 16.2285 16.5234 17.5666 15.2956 18.5228C14.0677 19.479 12.5563 19.9988 11 20H5.41L6.05 19.37C6.23625 19.1826 6.3408 18.9292 6.3408 18.665C6.3408 18.4008 6.23625 18.1474 6.05 17.96C5.06749 16.9816 4.3977 15.7334 4.12559 14.3737C3.85347 13.0141 3.99128 11.6043 4.52155 10.3231C5.05181 9.04185 5.95064 7.94699 7.10403 7.17733C8.25742 6.40768 9.6134 5.99791 11 6C11.2931 5.98479 11.5869 5.98479 11.88 6C12.1452 6.03183 12.4122 5.95699 12.6223 5.79196C12.8323 5.62693 12.9682 5.38522 13 5.12C13.0318 4.85478 12.957 4.58779 12.792 4.37775C12.6269 4.16771 12.3852 4.03183 12.12 4C11.7471 3.97484 11.3729 3.97484 11 4C9.30747 4.00556 7.6508 4.48828 6.22019 5.39274C4.78957 6.2972 3.64299 7.58673 2.91207 9.11332C2.18115 10.6399 1.89551 12.3417 2.08795 14.0232C2.28038 15.7048 2.94309 17.298 4 18.62L2.29 20.29C2.15124 20.4306 2.05725 20.6092 2.01987 20.8032C1.9825 20.9972 2.00342 21.1979 2.08 21.38C2.15502 21.5626 2.28242 21.7189 2.44614 21.8293C2.60986 21.9396 2.80258 21.999 3 22H11C12.9963 22.0013 14.9363 21.3388 16.5149 20.1169C18.0934 18.895 19.2209 17.1829 19.72 15.25C19.7576 15.1206 19.7687 14.985 19.7526 14.8512C19.7365 14.7175 19.6936 14.5883 19.6263 14.4716C19.5591 14.3549 19.4689 14.2529 19.3613 14.1719C19.2537 14.0908 19.1308 14.0324 19 14ZM21.71 7.26C21.617 7.16627 21.5064 7.09188 21.3846 7.04111C21.2627 6.99034 21.132 6.9642 21 6.9642C20.868 6.9642 20.7373 6.99034 20.6154 7.04111C20.4936 7.09188 20.383 7.16627 20.29 7.26L19 8.59V3C19 2.73478 18.8946 2.48043 18.7071 2.29289C18.5196 2.10536 18.2652 2 18 2C17.7348 2 17.4804 2.10536 17.2929 2.29289C17.1054 2.48043 17 2.73478 17 3V8.59L15.71 7.29C15.6168 7.19676 15.5061 7.1228 15.3843 7.07234C15.2624 7.02188 15.1319 6.99591 15 6.99591C14.8681 6.99591 14.7376 7.02188 14.6158 7.07234C14.4939 7.1228 14.3832 7.19676 14.29 7.29C14.1968 7.38324 14.1228 7.49393 14.0723 7.61575C14.0219 7.73757 13.9959 7.86814 13.9959 8C13.9959 8.13186 14.0219 8.26243 14.0723 8.38425C14.1228 8.50607 14.1968 8.61676 14.29 8.71L17.29 11.71C17.3851 11.801 17.4973 11.8724 17.62 11.92C17.7397 11.9729 17.8691 12.0002 18 12.0002C18.1309 12.0002 18.2603 11.9729 18.38 11.92C18.5028 11.8724 18.6149 11.801 18.71 11.71L21.71 8.71C21.8037 8.61704 21.8781 8.50644 21.9289 8.38458C21.9797 8.26272 22.0058 8.13201 22.0058 8C22.0058 7.86799 21.9797 7.73728 21.9289 7.61542C21.8781 7.49356 21.8037 7.38296 21.71 7.29V7.26Z" fill="black"/>
</svg>
