<svg width="24" height="24" viewBox="0 0 24 24" fill="none" xmlns="http://www.w3.org/2000/svg">
<path d="M20.9999 10.9999C20.7347 10.9999 20.4804 11.1053 20.2928 11.2928C20.1053 11.4804 19.9999 11.7347 19.9999 11.9999V14.5899L13.7099 8.28994C13.617 8.19621 13.5064 8.12182 13.3845 8.07105C13.2627 8.02028 13.132 7.99414 12.9999 7.99414C12.8679 7.99414 12.7372 8.02028 12.6154 8.07105C12.4935 8.12182 12.3829 8.19621 12.2899 8.28994L8.99994 11.5899L3.70994 6.28994C3.52164 6.10164 3.26624 5.99585 2.99994 5.99585C2.73364 5.99585 2.47824 6.10164 2.28994 6.28994C2.10164 6.47825 1.99585 6.73364 1.99585 6.99994C1.99585 7.26624 2.10164 7.52164 2.28994 7.70994L8.28994 13.7099C8.3829 13.8037 8.49351 13.8781 8.61536 13.9288C8.73722 13.9796 8.86793 14.0057 8.99994 14.0057C9.13195 14.0057 9.26266 13.9796 9.38452 13.9288C9.50638 13.8781 9.61698 13.8037 9.70994 13.7099L12.9999 10.4099L18.5899 15.9999H15.9999C15.7347 15.9999 15.4804 16.1053 15.2928 16.2928C15.1053 16.4804 14.9999 16.7347 14.9999 16.9999C14.9999 17.2652 15.1053 17.5195 15.2928 17.707C15.4804 17.8946 15.7347 17.9999 15.9999 17.9999H20.9999C21.1306 17.9984 21.2597 17.9712 21.3799 17.9199C21.6243 17.8185 21.8185 17.6243 21.9199 17.3799C21.9712 17.2597 21.9984 17.1306 21.9999 16.9999V11.9999C21.9999 11.7347 21.8946 11.4804 21.707 11.2928C21.5195 11.1053 21.2652 10.9999 20.9999 10.9999Z" fill="black"/>
</svg>
