<svg width="24" height="24" viewBox="0 0 24 24" fill="none" xmlns="http://www.w3.org/2000/svg">
<path d="M6.12 11.92C6.2397 11.9729 6.36913 12.0002 6.5 12.0002C6.63087 12.0002 6.7603 11.9729 6.88 11.92C7.00275 11.8724 7.1149 11.801 7.21 11.71L10.21 8.71C10.3983 8.5217 10.5041 8.2663 10.5041 8C10.5041 7.7337 10.3983 7.4783 10.21 7.29C10.0217 7.1017 9.7663 6.99591 9.5 6.99591C9.2337 6.99591 8.97831 7.1017 8.79 7.29L7.5 8.59V3C7.5 2.73478 7.39465 2.48043 7.20711 2.29289C7.01957 2.10536 6.76522 2 6.5 2C6.23479 2 5.98043 2.10536 5.7929 2.29289C5.60536 2.48043 5.5 2.73478 5.5 3V8.59L4.21 7.29C4.11676 7.19676 4.00607 7.1228 3.88425 7.07234C3.76243 7.02188 3.63186 6.99591 3.5 6.99591C3.36814 6.99591 3.23758 7.02188 3.11575 7.07234C2.99393 7.1228 2.88324 7.19676 2.79 7.29C2.69676 7.38324 2.6228 7.49393 2.57234 7.61575C2.52188 7.73757 2.49591 7.86814 2.49591 8C2.49591 8.13186 2.52188 8.26243 2.57234 8.38425C2.6228 8.50607 2.69676 8.61676 2.79 8.71L5.79 11.71C5.88511 11.801 5.99725 11.8724 6.12 11.92ZM18.5 6H13.5C13.2348 6 12.9804 6.10536 12.7929 6.29289C12.6054 6.48043 12.5 6.73478 12.5 7C12.5 7.26522 12.6054 7.51957 12.7929 7.70711C12.9804 7.89464 13.2348 8 13.5 8H18.5C18.7652 8 19.0196 8.10536 19.2071 8.29289C19.3946 8.48043 19.5 8.73478 19.5 9V18.72L17.93 17.27C17.7456 17.0973 17.5026 17.0009 17.25 17H8.5C8.23479 17 7.98043 16.8946 7.7929 16.7071C7.60536 16.5196 7.5 16.2652 7.5 16V15C7.5 14.7348 7.39465 14.4804 7.20711 14.2929C7.01957 14.1054 6.76522 14 6.5 14C6.23479 14 5.98043 14.1054 5.7929 14.2929C5.60536 14.4804 5.5 14.7348 5.5 15V16C5.5 16.7956 5.81607 17.5587 6.37868 18.1213C6.94129 18.6839 7.70435 19 8.5 19H16.86L19.86 21.73C20.0444 21.9027 20.2874 21.9991 20.54 22C20.6772 21.9985 20.8128 21.9714 20.94 21.92C21.1189 21.8419 21.271 21.7132 21.3776 21.5497C21.4842 21.3863 21.5407 21.1952 21.54 21V9C21.54 8.60265 21.4611 8.20924 21.3079 7.84263C21.1546 7.47603 20.9301 7.14352 20.6472 6.86441C20.3644 6.58531 20.0289 6.36517 19.6603 6.21678C19.2917 6.06839 18.8973 5.9947 18.5 6Z" fill="black"/>
</svg>
