<svg width="24" height="24" viewBox="0 0 24 24" fill="none" xmlns="http://www.w3.org/2000/svg">
<path d="M11.9999 2C11.28 2.00274 10.5626 2.0832 9.85994 2.24H9.73994C7.55647 2.75585 5.60991 3.99098 4.21322 5.74679C2.81653 7.50261 2.05086 9.6771 2.03932 11.9206C2.02778 14.1642 2.77103 16.3464 4.14959 18.1165C5.52814 19.8866 7.46189 21.1417 9.63994 21.68H9.77994C10.5048 21.8733 11.25 21.9807 11.9999 22C14.6521 22 17.1956 20.9464 19.071 19.0711C20.9464 17.1957 21.9999 14.6522 21.9999 12C21.9999 9.34784 20.9464 6.8043 19.071 4.92893C17.1956 3.05357 14.6521 2 11.9999 2ZM9.99994 19.74C8.28795 19.2925 6.77261 18.2901 5.69109 16.8896C4.60957 15.4891 4.02291 13.7695 4.02291 12C4.02291 10.2305 4.60957 8.51093 5.69109 7.11041C6.77261 5.70989 8.28795 4.70746 9.99994 4.26C11.7119 4.70746 13.2273 5.70989 14.3088 7.11041C15.3903 8.51093 15.977 10.2305 15.977 12C15.977 13.7695 15.3903 15.4891 14.3088 16.8896C13.2273 18.2901 11.7119 19.2925 9.99994 19.74ZM14.5299 19.58C15.6209 18.6412 16.4964 17.478 17.0965 16.1698C17.6967 14.8616 18.0074 13.4393 18.0074 12C18.0074 10.5607 17.6967 9.13839 17.0965 7.83019C16.4964 6.522 15.6209 5.35878 14.5299 4.42C16.116 4.95526 17.4943 5.97458 18.4705 7.3344C19.4468 8.69422 19.9719 10.326 19.9719 12C19.9719 13.674 19.4468 15.3058 18.4705 16.6656C17.4943 18.0254 16.116 19.0447 14.5299 19.58Z" fill="black"/>
</svg>
