<svg width="24" height="24" viewBox="0 0 24 24" fill="none" xmlns="http://www.w3.org/2000/svg">
<path d="M21.71 4.72006L19.28 2.29006C19.0926 2.10381 18.8392 1.99927 18.575 1.99927C18.3108 1.99927 18.0574 2.10381 17.87 2.29006L12.29 7.87006C12.1973 7.9635 12.124 8.07432 12.0742 8.19615C12.0245 8.31799 11.9992 8.44845 12 8.58006V11.0001C12 11.2653 12.1053 11.5196 12.2929 11.7072C12.4804 11.8947 12.7348 12.0001 13 12.0001H15.42C15.5516 12.0008 15.6821 11.9756 15.8039 11.9258C15.9257 11.8761 16.0365 11.8027 16.13 11.7101L21.71 6.13006C21.8962 5.9427 22.0008 5.68925 22.0008 5.42506C22.0008 5.16087 21.8962 4.90742 21.71 4.72006ZM15 10.0001H14V9.00006L18.58 4.42006L19.58 5.42006L15 10.0001ZM19 12.0001C18.7348 12.0001 18.4804 12.1054 18.2929 12.293C18.1053 12.4805 18 12.7348 18 13.0001C18 14.8566 17.2625 16.6371 15.9497 17.9498C14.637 19.2626 12.8565 20.0001 11 20.0001H5.40999L6.04999 19.3701C6.14372 19.2771 6.21811 19.1665 6.26888 19.0446C6.31965 18.9228 6.34579 18.7921 6.34579 18.6601C6.34579 18.528 6.31965 18.3973 6.26888 18.2755C6.21811 18.1536 6.14372 18.043 6.04999 17.9501C5.07092 16.9711 4.40415 15.7238 4.13401 14.3658C3.86387 13.0079 4.0025 11.6004 4.53235 10.3212C5.06221 9.04206 5.95949 7.94878 7.11073 7.17961C8.26197 6.41045 9.61544 5.99996 11 6.00006C11.2652 6.00006 11.5196 5.8947 11.7071 5.70717C11.8946 5.51963 12 5.26528 12 5.00006C12 4.73484 11.8946 4.48049 11.7071 4.29295C11.5196 4.10542 11.2652 4.00006 11 4.00006C9.30745 4.00562 7.65079 4.48834 6.22017 5.3928C4.78956 6.29726 3.64298 7.58679 2.91206 9.11338C2.18113 10.64 1.8955 12.3417 2.08793 14.0233C2.28037 15.7048 2.94308 17.2981 3.99999 18.6201L2.28999 20.2901C2.15123 20.4307 2.05723 20.6093 2.01986 20.8032C1.98248 20.9972 2.00341 21.1979 2.07999 21.3801C2.15501 21.5627 2.2824 21.719 2.44613 21.8293C2.60985 21.9397 2.80256 21.9991 2.99999 22.0001H11C12.1819 22.0001 13.3522 21.7673 14.4441 21.315C15.5361 20.8627 16.5282 20.1997 17.3639 19.364C18.1997 18.5283 18.8626 17.5361 19.3149 16.4442C19.7672 15.3523 20 14.182 20 13.0001C20 12.7348 19.8946 12.4805 19.7071 12.293C19.5196 12.1054 19.2652 12.0001 19 12.0001Z" fill="black"/>
</svg>
