<svg width="24" height="24" viewBox="0 0 24 24" fill="none" xmlns="http://www.w3.org/2000/svg">
<path d="M18.5 5.50006H14.5C14.2348 5.50006 13.9804 5.60542 13.7929 5.79295C13.6054 5.98049 13.5 6.23484 13.5 6.50006C13.5 6.76528 13.6054 7.01963 13.7929 7.20717C13.9804 7.3947 14.2348 7.50006 14.5 7.50006H18.5C18.7652 7.50006 19.0196 7.60542 19.2071 7.79295C19.3946 7.98049 19.5 8.23484 19.5 8.50006V18.2201L17.93 16.7701C17.7456 16.5974 17.5026 16.5009 17.25 16.5001H8.5C8.23478 16.5001 7.98043 16.3947 7.79289 16.2072C7.60536 16.0196 7.5 15.7653 7.5 15.5001V14.5001C7.5 14.2348 7.39464 13.9805 7.20711 13.793C7.01957 13.6054 6.76522 13.5001 6.5 13.5001C6.23478 13.5001 5.98043 13.6054 5.79289 13.793C5.60536 13.9805 5.5 14.2348 5.5 14.5001V15.5001C5.5 16.2957 5.81607 17.0588 6.37868 17.6214C6.94129 18.184 7.70435 18.5001 8.5 18.5001H16.86L19.86 21.2301C20.0444 21.4027 20.2874 21.4992 20.54 21.5001C20.6772 21.4986 20.8128 21.4714 20.94 21.4201C21.1189 21.342 21.271 21.2133 21.3776 21.0498C21.4842 20.8863 21.5407 20.6952 21.54 20.5001V8.50006C21.54 8.10271 21.4611 7.7093 21.3079 7.3427C21.1546 6.97609 20.9301 6.64358 20.6472 6.36447C20.3644 6.08537 20.0289 5.86523 19.6603 5.71684C19.2917 5.56845 18.8973 5.49476 18.5 5.50006ZM9.08 12.5001H11.5C11.7652 12.5001 12.0196 12.3947 12.2071 12.2072C12.3946 12.0196 12.5 11.7653 12.5 11.5001V9.08006C12.5008 8.94845 12.4755 8.81799 12.4258 8.69615C12.376 8.57432 12.3027 8.4635 12.21 8.37006L6.63 2.79006C6.44264 2.60381 6.18919 2.49927 5.925 2.49927C5.66081 2.49927 5.40736 2.60381 5.22 2.79006L2.79 5.22006C2.60375 5.40742 2.49921 5.66087 2.49921 5.92506C2.49921 6.18925 2.60375 6.4427 2.79 6.63006L8.37 12.2101C8.46344 12.3027 8.57425 12.3761 8.69609 12.4258C8.81793 12.4756 8.94839 12.5008 9.08 12.5001ZM5.92 4.91006L10.5 9.49006V10.4901H9.5L4.91 5.92006L5.92 4.91006Z" fill="black"/>
</svg>
