<svg width="24" height="24" viewBox="0 0 24 24" fill="none" xmlns="http://www.w3.org/2000/svg">
<path d="M19 6C18.7348 6 18.4804 6.10536 18.2929 6.29289C18.1054 6.48043 18 6.73478 18 7V11C18 11.2652 17.8947 11.5196 17.7071 11.7071C17.5196 11.8946 17.2652 12 17 12H7.41002L8.71002 10.71C8.89832 10.5217 9.00411 10.2663 9.00411 10C9.00411 9.7337 8.89832 9.4783 8.71002 9.29C8.52172 9.1017 8.26632 8.99591 8.00002 8.99591C7.73372 8.99591 7.47832 9.1017 7.29002 9.29L4.29002 12.29C4.19898 12.3851 4.12761 12.4972 4.08002 12.62C3.98 12.8635 3.98 13.1365 4.08002 13.38C4.12761 13.5028 4.19898 13.6149 4.29002 13.71L7.29002 16.71C7.38298 16.8037 7.49358 16.8781 7.61544 16.9289C7.7373 16.9797 7.86801 17.0058 8.00002 17.0058C8.13203 17.0058 8.26274 16.9797 8.3846 16.9289C8.50645 16.8781 8.61706 16.8037 8.71002 16.71C8.80375 16.617 8.87814 16.5064 8.92891 16.3846C8.97968 16.2627 9.00582 16.132 9.00582 16C9.00582 15.868 8.97968 15.7373 8.92891 15.6154C8.87814 15.4936 8.80375 15.383 8.71002 15.29L7.41002 14H17C17.7957 14 18.5587 13.6839 19.1213 13.1213C19.6839 12.5587 20 11.7956 20 11V7C20 6.73478 19.8947 6.48043 19.7071 6.29289C19.5196 6.10536 19.2652 6 19 6Z" fill="black"/>
</svg>
