<svg width="24" height="24" viewBox="0 0 24 24" fill="none" xmlns="http://www.w3.org/2000/svg">
<path d="M5.71 6.29C5.6149 6.19896 5.50275 6.12759 5.38 6.08C5.13654 5.97998 4.86346 5.97998 4.62 6.08C4.49725 6.12759 4.38511 6.19896 4.29 6.29L2.29 8.29C2.1017 8.4783 1.99591 8.7337 1.99591 9C1.99591 9.2663 2.1017 9.5217 2.29 9.71C2.47831 9.8983 2.7337 10.0041 3 10.0041C3.2663 10.0041 3.5217 9.8983 3.71 9.71L4 9.41V17C4 17.2652 4.10536 17.5196 4.2929 17.7071C4.48043 17.8946 4.73479 18 5 18C5.26522 18 5.51957 17.8946 5.70711 17.7071C5.89465 17.5196 6 17.2652 6 17V9.41L6.29 9.71C6.38297 9.80373 6.49357 9.87812 6.61543 9.92889C6.73728 9.97966 6.86799 10.0058 7 10.0058C7.13201 10.0058 7.26272 9.97966 7.38458 9.92889C7.50644 9.87812 7.61704 9.80373 7.71 9.71C7.80373 9.61704 7.87812 9.50644 7.92889 9.38458C7.97966 9.26272 8.0058 9.13201 8.0058 9C8.0058 8.86799 7.97966 8.73728 7.92889 8.61542C7.87812 8.49356 7.80373 8.38296 7.71 8.29L5.71 6.29ZM11 8H21C21.2652 8 21.5196 7.89464 21.7071 7.70711C21.8946 7.51957 22 7.26522 22 7C22 6.73478 21.8946 6.48043 21.7071 6.29289C21.5196 6.10536 21.2652 6 21 6H11C10.7348 6 10.4804 6.10536 10.2929 6.29289C10.1054 6.48043 10 6.73478 10 7C10 7.26522 10.1054 7.51957 10.2929 7.70711C10.4804 7.89464 10.7348 8 11 8ZM21 16H11C10.7348 16 10.4804 16.1054 10.2929 16.2929C10.1054 16.4804 10 16.7348 10 17C10 17.2652 10.1054 17.5196 10.2929 17.7071C10.4804 17.8946 10.7348 18 11 18H21C21.2652 18 21.5196 17.8946 21.7071 17.7071C21.8946 17.5196 22 17.2652 22 17C22 16.7348 21.8946 16.4804 21.7071 16.2929C21.5196 16.1054 21.2652 16 21 16ZM21 11H11C10.7348 11 10.4804 11.1054 10.2929 11.2929C10.1054 11.4804 10 11.7348 10 12C10 12.2652 10.1054 12.5196 10.2929 12.7071C10.4804 12.8946 10.7348 13 11 13H21C21.2652 13 21.5196 12.8946 21.7071 12.7071C21.8946 12.5196 22 12.2652 22 12C22 11.7348 21.8946 11.4804 21.7071 11.2929C21.5196 11.1054 21.2652 11 21 11Z" fill="black"/>
</svg>
