<svg width="24" height="24" viewBox="0 0 24 24" fill="none" xmlns="http://www.w3.org/2000/svg">
<path d="M21.7099 20.2899L15.4099 13.9999H16.9999C17.2652 13.9999 17.5195 13.8946 17.707 13.707C17.8946 13.5195 17.9999 13.2652 17.9999 12.9999C17.9999 12.7347 17.8946 12.4804 17.707 12.2928C17.5195 12.1053 17.2652 11.9999 16.9999 11.9999H13.4099L19.0699 6.33994C19.1746 6.25029 19.2596 6.13998 19.3197 6.01591C19.3797 5.89185 19.4134 5.75671 19.4187 5.61899C19.4241 5.48128 19.4009 5.34394 19.3506 5.21562C19.3003 5.08729 19.224 4.97075 19.1266 4.87329C19.0291 4.77584 18.9126 4.69958 18.7843 4.6493C18.6559 4.59903 18.5186 4.57582 18.3809 4.58114C18.2432 4.58646 18.108 4.62019 17.984 4.68022C17.8599 4.74024 17.7496 4.82526 17.6599 4.92994L11.9999 10.5899V6.99994C11.9999 6.73472 11.8946 6.48037 11.707 6.29283C11.5195 6.1053 11.2652 5.99994 10.9999 5.99994C10.7347 5.99994 10.4804 6.1053 10.2928 6.29283C10.1053 6.48037 9.99994 6.73472 9.99994 6.99994V8.58994L3.70994 2.28994C3.6167 2.1967 3.50601 2.12274 3.38419 2.07228C3.26237 2.02182 3.1318 1.99585 2.99994 1.99585C2.86808 1.99585 2.73751 2.02182 2.61569 2.07228C2.49387 2.12274 2.38318 2.1967 2.28994 2.28994C2.10164 2.47824 1.99585 2.73364 1.99585 2.99994C1.99585 3.26624 2.10164 3.52164 2.28994 3.70994L8.58994 9.99994H6.99994C6.73472 9.99994 6.48037 10.1053 6.29283 10.2928C6.1053 10.4804 5.99994 10.7347 5.99994 10.9999C5.99994 11.2652 6.1053 11.5195 6.29283 11.707C6.48037 11.8946 6.73472 11.9999 6.99994 11.9999H10.5899L4.92994 17.6599C4.74369 17.8473 4.63915 18.1008 4.63915 18.3649C4.63915 18.6291 4.74369 18.8826 4.92994 19.0699C5.1173 19.2562 5.37076 19.3607 5.63494 19.3607C5.89913 19.3607 6.15258 19.2562 6.33994 19.0699L11.9999 13.4099V16.9999C11.9999 17.2652 12.1053 17.5195 12.2928 17.707C12.4804 17.8946 12.7347 17.9999 12.9999 17.9999C13.2652 17.9999 13.5195 17.8946 13.707 17.707C13.8946 17.5195 13.9999 17.2652 13.9999 16.9999V15.4099L20.2899 21.7099C20.3829 21.8037 20.4935 21.8781 20.6154 21.9288C20.7372 21.9796 20.8679 22.0057 20.9999 22.0057C21.132 22.0057 21.2627 21.9796 21.3845 21.9288C21.5064 21.8781 21.617 21.8037 21.7099 21.7099C21.8037 21.617 21.8781 21.5064 21.9288 21.3845C21.9796 21.2627 22.0057 21.132 22.0057 20.9999C22.0057 20.8679 21.9796 20.7372 21.9288 20.6154C21.8781 20.4935 21.8037 20.3829 21.7099 20.2899Z" fill="black"/>
</svg>
