<svg width="24" height="24" viewBox="0 0 24 24" fill="none" xmlns="http://www.w3.org/2000/svg">
<path d="M21.71 2.28994C21.617 2.19621 21.5064 2.12182 21.3846 2.07105C21.2627 2.02028 21.132 1.99414 21 1.99414C20.868 1.99414 20.7373 2.02028 20.6154 2.07105C20.4936 2.12182 20.383 2.19621 20.29 2.28994L14.12 8.45994C14.0263 8.5529 13.9519 8.6635 13.9011 8.78536C13.8503 8.90722 13.8242 9.03793 13.8242 9.16994C13.8242 9.30195 13.8503 9.43266 13.9011 9.55452C13.9519 9.67637 14.0263 9.78698 14.12 9.87994C14.2134 9.97262 14.3243 10.0459 14.4461 10.0957C14.5679 10.1455 14.6984 10.1707 14.83 10.1699C14.9616 10.1707 15.0921 10.1455 15.2139 10.0957C15.3357 10.0459 15.4466 9.97262 15.54 9.87994L21.71 3.70994C21.8037 3.61698 21.8781 3.50637 21.9289 3.38452C21.9797 3.26266 22.0058 3.13195 22.0058 2.99994C22.0058 2.86793 21.9797 2.73722 21.9289 2.61536C21.8781 2.4935 21.8037 2.3829 21.71 2.28994ZM9.88 8.45994C9.6917 8.27164 9.4363 8.16585 9.17 8.16585C8.9037 8.16585 8.6483 8.27164 8.46 8.45994C8.2717 8.64824 8.16591 8.90364 8.16591 9.16994C8.16591 9.43624 8.2717 9.69164 8.46 9.87994L14.12 15.5399C14.2134 15.6326 14.3243 15.7059 14.4461 15.7557C14.5679 15.8055 14.6984 15.8307 14.83 15.8299C14.9616 15.8307 15.0921 15.8055 15.2139 15.7557C15.3357 15.7059 15.4466 15.6326 15.54 15.5399C15.6337 15.447 15.7081 15.3364 15.7589 15.2145C15.8097 15.0927 15.8358 14.962 15.8358 14.8299C15.8358 14.6979 15.8097 14.5672 15.7589 14.4454C15.7081 14.3235 15.6337 14.2129 15.54 14.1199L9.88 8.45994ZM8.46 14.1199L4 18.5899V16.9999C4 16.7347 3.89464 16.4804 3.70711 16.2928C3.51957 16.1053 3.26522 15.9999 3 15.9999C2.73478 15.9999 2.48043 16.1053 2.29289 16.2928C2.10536 16.4804 2 16.7347 2 16.9999V20.9999C2.00158 21.1306 2.02876 21.2597 2.08 21.3799C2.18147 21.6243 2.37565 21.8185 2.62 21.9199C2.74022 21.9712 2.86932 21.9984 3 21.9999H7C7.26522 21.9999 7.51957 21.8946 7.70711 21.707C7.89464 21.5195 8 21.2652 8 20.9999C8 20.7347 7.89464 20.4804 7.70711 20.2928C7.51957 20.1053 7.26522 19.9999 7 19.9999H5.41L9.88 15.5399C10.0683 15.3516 10.1741 15.0962 10.1741 14.8299C10.1741 14.5636 10.0683 14.3082 9.88 14.1199C9.6917 13.9316 9.4363 13.8258 9.17 13.8258C8.9037 13.8258 8.6483 13.9316 8.46 14.1199Z" fill="black"/>
<path d="M21 8C20.7348 8 20.4804 7.89464 20.2929 7.70711C20.1054 7.51957 20 7.26522 20 7V4H17C16.7348 4 16.4804 3.89464 16.2929 3.70711C16.1054 3.51957 16 3.26522 16 3C16 2.73478 16.1054 2.48043 16.2929 2.29289C16.4804 2.10536 16.7348 2 17 2H21C21.2652 2 21.5196 2.10536 21.7071 2.29289C21.8946 2.48043 22 2.73478 22 3V7C22 7.26522 21.8946 7.51957 21.7071 7.70711C21.5196 7.89464 21.2652 8 21 8Z" fill="black"/>
</svg>
