<svg width="24" height="24" viewBox="0 0 24 24" fill="none" xmlns="http://www.w3.org/2000/svg">
<path d="M12 2.00001C10.6994 1.95278 9.40265 2.16913 8.18781 2.63605C6.97297 3.10297 5.86513 3.8108 4.93095 4.71696C3.99676 5.62313 3.25552 6.7089 2.75183 7.90895C2.24814 9.10901 1.9924 10.3986 2 11.7C1.98324 13.0512 2.25462 14.3904 2.79605 15.6285C3.33749 16.8665 4.13655 17.975 5.14 18.88C5.21967 18.951 5.28453 19.037 5.33086 19.1331C5.3772 19.2292 5.40409 19.3335 5.41 19.44V21.22C5.41548 21.3512 5.45278 21.4791 5.5187 21.5927C5.58461 21.7063 5.67716 21.8022 5.78836 21.8721C5.89956 21.9419 6.02608 21.9837 6.15703 21.9938C6.28797 22.0039 6.4194 21.982 6.54 21.93L8.54 21.06C8.71078 20.9955 8.89922 20.9955 9.07 21.06C10.0154 21.3152 10.9907 21.443 11.97 21.44C14.5479 21.444 17.0218 20.4237 18.8475 18.6037C20.6731 16.7837 21.701 14.3129 21.705 11.735C21.709 9.1571 20.6887 6.6832 18.8687 4.85754C17.0486 3.03187 14.5779 2.00399 12 2.00001ZM18 9.46001L15.07 14.12C14.9595 14.2955 14.8138 14.4461 14.6422 14.5624C14.4705 14.6787 14.2766 14.7582 14.0727 14.7957C13.8688 14.8333 13.6593 14.8282 13.4574 14.7808C13.2556 14.7333 13.0658 14.6445 12.9 14.52L10.56 12.77C10.4561 12.6921 10.3298 12.65 10.2 12.65C10.0702 12.65 9.94386 12.6921 9.84 12.77L6.68 15.17C6.59199 15.2379 6.48278 15.2724 6.37176 15.2674C6.26073 15.2623 6.15507 15.2181 6.07355 15.1426C5.99202 15.0671 5.9399 14.9651 5.92643 14.8548C5.91297 14.7445 5.93903 14.6329 6 14.54L8.93 9.88001C9.0405 9.70456 9.18618 9.55393 9.35784 9.43763C9.52949 9.32132 9.7234 9.24187 9.92731 9.20428C10.1312 9.16669 10.3407 9.17179 10.5425 9.21925C10.7444 9.2667 10.9342 9.35549 11.1 9.48001L13.44 11.23C13.5439 11.3079 13.6702 11.35 13.8 11.35C13.9298 11.35 14.0561 11.3079 14.16 11.23L17.32 8.83001C17.408 8.76214 17.5172 8.72765 17.6282 8.73266C17.7393 8.73768 17.8449 8.78188 17.9264 8.85741C18.008 8.93294 18.0601 9.03492 18.0736 9.14524C18.087 9.25556 18.061 9.36708 18 9.46001Z" fill="black"/>
</svg>
