<svg width="24" height="24" viewBox="0 0 24 24" fill="none" xmlns="http://www.w3.org/2000/svg">
<path d="M11.9912 1.00043C10.5579 0.948281 9.12898 1.18713 7.79059 1.70256C6.4522 2.21799 5.23215 2.99931 4.20409 3.99934C3.17604 4.99937 2.36132 6.19737 1.80911 7.52101C1.2569 8.84465 0.978666 10.2665 0.991202 11.7006C0.97241 13.1784 1.26695 14.6434 1.85541 15.9991C2.44388 17.3548 3.31291 18.5704 4.40526 19.5659L4.45699 21.2563C4.47165 21.7236 4.6676 22.1668 5.00335 22.4922C5.3391 22.8176 5.78829 22.9995 6.25582 22.9995C6.5059 22.9991 6.75323 22.9473 6.98238 22.8471L8.90328 22.0004C9.91059 22.2686 10.9488 22.4032 11.9912 22.4008C13.4245 22.453 14.8535 22.2142 16.192 21.6988C17.5304 21.1833 18.7505 20.402 19.7787 19.402C20.8068 18.402 21.6216 17.204 22.1739 15.8803C22.7263 14.5567 23.0046 13.1348 22.9922 11.7006C23.0046 10.2664 22.7263 8.84457 22.1739 7.52091C21.6216 6.19726 20.8068 4.99926 19.7787 3.99924C18.7506 2.99922 17.5304 2.21792 16.192 1.7025C14.8535 1.18709 13.4245 0.948264 11.9912 1.00043ZM11.9912 20.4008C11.1012 20.4034 10.2149 20.2855 9.35644 20.0502C8.95893 19.943 8.53665 19.9754 8.16015 20.142L6.44628 20.8979L6.40136 19.4047C6.39142 19.1629 6.33306 18.9255 6.22973 18.7066C6.1264 18.4877 5.9802 18.2917 5.79979 18.1303C4.90035 17.3207 4.18441 16.3282 3.70001 15.2193C3.21561 14.1103 2.97393 12.9106 2.9912 11.7006C2.9848 10.5308 3.21549 9.37179 3.66936 8.29358C4.12323 7.21537 4.79086 6.24029 5.63196 5.42721C6.47306 4.61413 7.47018 3.97991 8.56315 3.56282C9.65611 3.14573 10.8223 2.95441 11.9912 3.00043C13.1586 2.96075 14.3221 3.15642 15.4123 3.57578C16.5025 3.99514 17.4971 4.62962 18.337 5.44142C19.1769 6.25323 19.8448 7.22576 20.3009 8.30109C20.7571 9.37641 20.9922 10.5325 20.9922 11.7006C20.9922 12.8687 20.7571 14.0248 20.3009 15.1002C19.8448 16.1755 19.1769 17.148 18.337 17.9598C17.4971 18.7716 16.5025 19.4061 15.4123 19.8255C14.3221 20.2448 13.1586 20.4405 11.9912 20.4008ZM15.7256 8.58539L13.4131 11.3403L10.0664 9.28363C9.86215 9.15792 9.61947 9.10995 9.38275 9.14852C9.14603 9.18708 8.93112 9.30959 8.77733 9.49363L5.72558 13.1303C5.64072 13.2308 5.57652 13.347 5.53667 13.4724C5.49682 13.5977 5.48209 13.7297 5.49334 13.8607C5.50458 13.9918 5.54158 14.1193 5.60221 14.236C5.66283 14.3527 5.7459 14.4563 5.84664 14.5409C5.94738 14.6254 6.06382 14.6893 6.18928 14.7287C6.31475 14.7682 6.44676 14.7825 6.57777 14.7709C6.70877 14.7592 6.83619 14.7218 6.95272 14.6608C7.06925 14.5999 7.17259 14.5165 7.25683 14.4155L9.75483 11.4399L13.1015 13.4956C13.3057 13.6214 13.5483 13.6695 13.785 13.6311C14.0217 13.5927 14.2366 13.4704 14.3906 13.2866L17.2568 9.87055C17.3422 9.77014 17.4068 9.65384 17.4471 9.52834C17.4873 9.40284 17.5023 9.27061 17.4913 9.13928C17.4802 9.00795 17.4433 8.8801 17.3827 8.76309C17.322 8.64609 17.2388 8.54223 17.1379 8.4575C17.0369 8.37277 16.9202 8.30884 16.7944 8.26939C16.6687 8.22995 16.5364 8.21576 16.4051 8.22764C16.2739 8.23953 16.1462 8.27726 16.0296 8.33866C15.913 8.40005 15.8097 8.48391 15.7256 8.58539Z" fill="black"/>
</svg>
