<svg width="24" height="24" viewBox="0 0 24 24" fill="none" xmlns="http://www.w3.org/2000/svg">
<path d="M15.69 9C15.5653 8.33119 15.2117 7.72661 14.69 7.29C14.1365 6.80672 13.4248 6.5434 12.69 6.55H4.79999C4.36563 6.54335 3.93501 6.63112 3.5379 6.80723C3.14078 6.98334 2.78666 7.2436 2.49999 7.57V7.63C2.22873 7.95595 2.02964 8.33571 1.91588 8.74423C1.80211 9.15275 1.77625 9.58075 1.83999 10L2.71999 15C2.84356 15.7025 3.21341 16.3381 3.7632 16.7926C4.313 17.2471 5.00675 17.4908 5.71999 17.48H13.66C14.0966 17.479 14.5277 17.3828 14.9232 17.198C15.3187 17.0131 15.6691 16.7442 15.95 16.41C16.2198 16.076 16.4147 15.6881 16.5217 15.2723C16.6286 14.8566 16.6451 14.4227 16.57 14L15.69 9ZM12.28 8.5L9.93999 11.14C9.76858 11.3328 9.52928 11.4519 9.27211 11.4724C9.01493 11.4929 8.75979 11.4132 8.55999 11.25L5.16999 8.5H12.28ZM14.38 15.14C14.2871 15.2516 14.1709 15.3416 14.0397 15.4038C13.9084 15.4659 13.7652 15.4988 13.62 15.5H5.67999C5.44176 15.5035 5.21012 15.4218 5.02679 15.2696C4.84345 15.1174 4.72047 14.9048 4.67999 14.67L3.86999 10L7.29999 12.8C7.90061 13.2884 8.6668 13.5258 9.43836 13.4624C10.2099 13.3991 10.9271 13.0399 11.44 12.46L13.8 9.8L14.6 14.33C14.6242 14.4729 14.6171 14.6193 14.5791 14.7592C14.5411 14.8991 14.4732 15.029 14.38 15.14ZM21.21 10.5H19.21C18.9448 10.5 18.6904 10.6054 18.5029 10.7929C18.3154 10.9804 18.21 11.2348 18.21 11.5C18.21 11.7652 18.3154 12.0196 18.5029 12.2071C18.6904 12.3946 18.9448 12.5 19.21 12.5H21.21C21.4752 12.5 21.7296 12.3946 21.9171 12.2071C22.1046 12.0196 22.21 11.7652 22.21 11.5C22.21 11.2348 22.1046 10.9804 21.9171 10.7929C21.7296 10.6054 21.4752 10.5 21.21 10.5ZM21.21 8.5C21.4752 8.5 21.7296 8.39464 21.9171 8.20711C22.1046 8.01957 22.21 7.76522 22.21 7.5C22.21 7.23478 22.1046 6.98043 21.9171 6.79289C21.7296 6.60536 21.4752 6.5 21.21 6.5H18.21C17.9448 6.5 17.6904 6.60536 17.5029 6.79289C17.3154 6.98043 17.21 7.23478 17.21 7.5C17.21 7.76522 17.3154 8.01957 17.5029 8.20711C17.6904 8.39464 17.9448 8.5 18.21 8.5H21.21Z" fill="black"/>
</svg>
