<svg width="24" height="24" viewBox="0 0 24 24" fill="none" xmlns="http://www.w3.org/2000/svg">
<path d="M12 9.83999C11.3814 9.51013 10.6649 9.41381 9.98116 9.56862C9.29745 9.72343 8.69226 10.119 8.27613 10.6832C7.86 11.2473 7.66071 11.9423 7.71466 12.6413C7.76862 13.3402 8.07222 13.9964 8.57 14.49L11.29 17.21C11.383 17.3037 11.4936 17.3781 11.6154 17.4289C11.7373 17.4797 11.868 17.5058 12 17.5058C12.132 17.5058 12.2627 17.4797 12.3846 17.4289C12.5064 17.3781 12.617 17.3037 12.71 17.21L15.43 14.49C15.9278 13.9964 16.2314 13.3402 16.2853 12.6413C16.3393 11.9423 16.14 11.2473 15.7239 10.6832C15.3077 10.119 14.7025 9.72343 14.0188 9.56862C13.3351 9.41381 12.6186 9.51013 12 9.83999ZM14 13.07L12 15.07L10 13.07C9.8278 12.8975 9.73108 12.6637 9.73108 12.42C9.73108 12.1763 9.8278 11.9425 10 11.77C10.1725 11.5978 10.4063 11.5011 10.65 11.5011C10.8937 11.5011 11.1275 11.5978 11.3 11.77C11.393 11.8637 11.5036 11.9381 11.6254 11.9889C11.7473 12.0397 11.878 12.0658 12.01 12.0658C12.142 12.0658 12.2727 12.0397 12.3946 11.9889C12.5164 11.9381 12.627 11.8637 12.72 11.77C12.8946 11.609 13.1248 11.5218 13.3623 11.5266C13.5997 11.5315 13.8261 11.628 13.9941 11.7959C14.162 11.9639 14.2585 12.1903 14.2634 12.4277C14.2682 12.6652 14.181 12.8953 14.02 13.07H14ZM19 5.49999H12.72L12.4 4.49999C12.1926 3.91322 11.8077 3.4055 11.2989 3.04715C10.7901 2.68881 10.1824 2.49759 9.56 2.49999H5C4.20435 2.49999 3.44129 2.81606 2.87868 3.37867C2.31607 3.94128 2 4.70434 2 5.49999V18.5C2 19.2956 2.31607 20.0587 2.87868 20.6213C3.44129 21.1839 4.20435 21.5 5 21.5H19C19.7956 21.5 20.5587 21.1839 21.1213 20.6213C21.6839 20.0587 22 19.2956 22 18.5V8.49999C22 7.70434 21.6839 6.94128 21.1213 6.37867C20.5587 5.81606 19.7956 5.49999 19 5.49999ZM20 18.5C20 18.7652 19.8946 19.0196 19.7071 19.2071C19.5196 19.3946 19.2652 19.5 19 19.5H5C4.73478 19.5 4.48043 19.3946 4.29289 19.2071C4.10536 19.0196 4 18.7652 4 18.5V5.49999C4 5.23478 4.10536 4.98042 4.29289 4.79289C4.48043 4.60535 4.73478 4.49999 5 4.49999H9.56C9.76964 4.49945 9.97416 4.56481 10.1446 4.68683C10.3151 4.80886 10.4429 4.98137 10.51 5.17999L11.05 6.81999C11.1171 7.01861 11.2449 7.19113 11.4154 7.31315C11.5858 7.43517 11.7904 7.50053 12 7.49999H19C19.2652 7.49999 19.5196 7.60535 19.7071 7.79289C19.8946 7.98042 20 8.23478 20 8.49999V18.5Z" fill="black"/>
</svg>
