<svg width="24" height="24" viewBox="0 0 24 24" fill="none" xmlns="http://www.w3.org/2000/svg">
<path d="M19 9C19.0016 7.65788 18.6173 6.34361 17.8929 5.21375C17.1685 4.0839 16.1346 3.1861 14.9144 2.62733C13.6941 2.06855 12.3389 1.87236 11.0103 2.06211C9.68166 2.25187 8.43559 2.81958 7.42053 3.69761C6.40547 4.57563 5.66422 5.72696 5.28509 7.01441C4.90597 8.30187 4.90495 9.67117 5.28216 10.9592C5.65937 12.2472 6.39891 13.3996 7.41266 14.2792C8.42641 15.1587 9.67164 15.7283 11 15.92V18H10C9.73478 18 9.48042 18.1054 9.29289 18.2929C9.10535 18.4804 8.99999 18.7348 8.99999 19C8.99999 19.2652 9.10535 19.5196 9.29289 19.7071C9.48042 19.8946 9.73478 20 10 20H11V21C11 21.2652 11.1054 21.5196 11.2929 21.7071C11.4804 21.8946 11.7348 22 12 22C12.2652 22 12.5196 21.8946 12.7071 21.7071C12.8946 21.5196 13 21.2652 13 21V20H14C14.2652 20 14.5196 19.8946 14.7071 19.7071C14.8946 19.5196 15 19.2652 15 19C15 18.7348 14.8946 18.4804 14.7071 18.2929C14.5196 18.1054 14.2652 18 14 18H13V15.92C14.6646 15.6797 16.187 14.8482 17.2888 13.5775C18.3906 12.3068 18.998 10.6818 19 9ZM12 14C11.0111 14 10.0444 13.7068 9.22214 13.1573C8.3999 12.6079 7.75904 11.827 7.3806 10.9134C7.00216 9.99978 6.90314 8.99445 7.09607 8.02455C7.28899 7.05464 7.7652 6.16373 8.46446 5.46446C9.16372 4.7652 10.0546 4.289 11.0245 4.09607C11.9944 3.90314 12.9998 4.00216 13.9134 4.3806C14.827 4.75904 15.6079 5.3999 16.1573 6.22215C16.7068 7.04439 17 8.01109 17 9C17 9.65661 16.8707 10.3068 16.6194 10.9134C16.3681 11.52 15.9998 12.0712 15.5355 12.5355C15.0712 12.9998 14.52 13.3681 13.9134 13.6194C13.3068 13.8707 12.6566 14 12 14Z" fill="black"/>
</svg>
