<svg width="24" height="24" viewBox="0 0 24 24" fill="none" xmlns="http://www.w3.org/2000/svg">
<path d="M22 5.08002C22.0008 4.47024 21.8207 3.87393 21.4823 3.36665C21.1439 2.85937 20.6626 2.46394 20.0992 2.23048C19.5359 1.99701 18.916 1.93601 18.318 2.0552C17.7199 2.1744 17.1708 2.46842 16.74 2.90002L13.93 5.71002L7.44 3.55002C7.26721 3.49571 7.08291 3.48935 6.90678 3.53162C6.73066 3.57389 6.56932 3.6632 6.44 3.79002L4.06 6.15002C3.94723 6.2641 3.86356 6.40363 3.81604 6.55684C3.76853 6.71005 3.75857 6.87244 3.78701 7.03031C3.81544 7.18818 3.88144 7.33689 3.97943 7.46389C4.07741 7.59089 4.20451 7.69246 4.35 7.76002L9.53 10.11L6.93 12.71L5.22 11.85C5.03537 11.7501 4.82398 11.7108 4.61578 11.7377C4.40758 11.7647 4.21314 11.8564 4.06 12L2.29 13.81C2.10375 13.9974 1.99921 14.2508 1.99921 14.515C1.99921 14.7792 2.10375 15.0327 2.29 15.22L8.78 21.71C8.96736 21.8963 9.22081 22.0008 9.485 22.0008C9.74918 22.0008 10.0026 21.8963 10.19 21.71L12 19.94C12.1501 19.7915 12.2493 19.5993 12.2834 19.3909C12.3176 19.1825 12.2849 18.9687 12.19 18.78L11.33 17.07L13.93 14.47L16.28 19.65C16.3476 19.7955 16.4491 19.9226 16.5761 20.0206C16.7031 20.1186 16.8518 20.1846 17.0097 20.213C17.1676 20.2414 17.33 20.2315 17.4832 20.184C17.6364 20.1365 17.7759 20.0528 17.89 19.94L20.25 17.58C20.3768 17.4507 20.4661 17.2894 20.5084 17.1132C20.5507 16.9371 20.5443 16.7528 20.49 16.58L18.33 10.09L21.1 7.26002C21.3872 6.97458 21.6147 6.63481 21.7692 6.26053C21.9238 5.88625 22.0022 5.48494 22 5.08002ZM19.68 5.85002L16.44 9.09002C16.3132 9.21934 16.2239 9.38068 16.1816 9.5568C16.1393 9.73293 16.1457 9.91722 16.2 10.09L18.36 16.57L17.46 17.47L15.11 12.3C15.0433 12.1532 14.9421 12.0247 14.815 11.9254C14.6879 11.8262 14.5386 11.7591 14.38 11.73C14.2201 11.7008 14.0554 11.7111 13.9003 11.7599C13.7453 11.8087 13.6044 11.8945 13.49 12.01L9.37 16.17C9.22208 16.3178 9.12421 16.5082 9.09012 16.7145C9.05604 16.9208 9.08748 17.1325 9.18 17.32L10 19L9.44 19.56L4.41 14.52L5 14L6.71 14.86C6.89749 14.9525 7.10926 14.984 7.31554 14.9499C7.52182 14.9158 7.71223 14.8179 7.86 14.67L12 10.51C12.1149 10.396 12.2004 10.2558 12.2492 10.1015C12.298 9.94714 12.3085 9.78326 12.28 9.62393C12.2515 9.4646 12.1847 9.31458 12.0854 9.18674C11.9862 9.0589 11.8573 8.95708 11.71 8.89002L6.5 6.54002L7.4 5.64002L13.88 7.80002C14.0528 7.85433 14.2371 7.86069 14.4132 7.81842C14.5893 7.77615 14.7507 7.68683 14.88 7.56002L18.12 4.32002C18.2197 4.21812 18.3387 4.13716 18.47 4.08188C18.6014 4.02661 18.7425 3.99813 18.885 3.99813C19.0275 3.99813 19.1686 4.02661 19.3 4.08188C19.4313 4.13716 19.5504 4.21812 19.65 4.32002C19.7543 4.41666 19.8368 4.53444 19.892 4.6655C19.9472 4.79655 19.9738 4.93787 19.97 5.08002C19.9754 5.22121 19.9526 5.36207 19.9028 5.4943C19.853 5.62654 19.7772 5.74748 19.68 5.85002Z" fill="black"/>
</svg>
