<svg width="24" height="24" viewBox="0 0 24 24" fill="none" xmlns="http://www.w3.org/2000/svg">
<path d="M23 9.31998C23.0626 9.06305 23.027 8.79197 22.9 8.55998C22.5759 7.99763 22.144 7.5048 21.6289 7.10978C21.1139 6.71476 20.526 6.42533 19.8988 6.25809C19.2717 6.09085 18.6177 6.0491 17.9744 6.13523C17.331 6.22136 16.7111 6.43367 16.15 6.75998L14 7.99998L8.99999 5.64998C8.85784 5.57634 8.70008 5.5379 8.53999 5.5379C8.37989 5.5379 8.22214 5.57634 8.07999 5.64998L5.07999 7.37998C4.93173 7.4655 4.8079 7.58765 4.72035 7.73472C4.63281 7.8818 4.58448 8.04888 4.57999 8.21998C4.57515 8.39235 4.61496 8.56305 4.69556 8.71549C4.77616 8.86793 4.89481 8.99694 5.03999 9.08998L8.33999 11.17L6.59999 12.17L1.81999 12.75C1.62783 12.7738 1.44671 12.8528 1.29861 12.9775C1.15051 13.1022 1.0418 13.2673 0.985679 13.4526C0.929557 13.6379 0.928438 13.8355 0.982457 14.0214C1.03648 14.2073 1.14331 14.3736 1.28999 14.5L4.82999 17.56C5.29604 18.0048 5.89289 18.2877 6.53223 18.367C7.17158 18.4462 7.81945 18.3175 8.37999 18L22.5 9.92998C22.6203 9.86752 22.7267 9.78123 22.8127 9.67636C22.8986 9.5715 22.9624 9.45025 23 9.31998ZM7.46999 16.32C7.2779 16.4257 7.05639 16.4653 6.83957 16.4328C6.62274 16.4003 6.42261 16.2974 6.26999 16.14L4.36999 14.51L7.09999 14.18C7.23414 14.1628 7.36342 14.1186 7.47999 14.05L10.84 12.12C10.9897 12.0336 11.1144 11.9099 11.2021 11.7609C11.2897 11.6119 11.3372 11.4428 11.34 11.27C11.342 11.0984 11.2999 10.9291 11.2176 10.7785C11.1352 10.6278 11.0155 10.5009 10.87 10.41L7.56999 8.31998L8.66999 7.68998L13.67 10.01C13.8121 10.0836 13.9699 10.1221 14.13 10.1221C14.2901 10.1221 14.4478 10.0836 14.59 10.01L17.15 8.52998C17.6746 8.23599 18.2755 8.10644 18.8746 8.15815C19.4737 8.20986 20.0435 8.44045 20.51 8.81998L7.46999 16.32Z" fill="black"/>
</svg>
