<svg width="24" height="24" viewBox="0 0 24 24" fill="none" xmlns="http://www.w3.org/2000/svg">
<path d="M12 13.5C11.7348 13.5 11.4804 13.6053 11.2929 13.7929C11.1054 13.9804 11 14.2348 11 14.5V16.5C11 16.7652 11.1054 17.0196 11.2929 17.2071C11.4804 17.3946 11.7348 17.5 12 17.5C12.2652 17.5 12.5196 17.3946 12.7071 17.2071C12.8946 17.0196 13 16.7652 13 16.5V14.5C13 14.2348 12.8946 13.9804 12.7071 13.7929C12.5196 13.6053 12.2652 13.5 12 13.5ZM19 5.49999H12.72L12.4 4.49999C12.1926 3.91322 11.8077 3.4055 11.2989 3.04715C10.7901 2.68881 10.1824 2.49759 9.56 2.49999H5C4.20435 2.49999 3.44129 2.81606 2.87868 3.37867C2.31607 3.94128 2 4.70434 2 5.49999V18.5C2 19.2956 2.31607 20.0587 2.87868 20.6213C3.44129 21.1839 4.20435 21.5 5 21.5H19C19.7956 21.5 20.5587 21.1839 21.1213 20.6213C21.6839 20.0587 22 19.2956 22 18.5V8.49999C22 7.70434 21.6839 6.94128 21.1213 6.37867C20.5587 5.81606 19.7956 5.49999 19 5.49999ZM20 18.5C20 18.7652 19.8946 19.0196 19.7071 19.2071C19.5196 19.3946 19.2652 19.5 19 19.5H5C4.73478 19.5 4.48043 19.3946 4.29289 19.2071C4.10536 19.0196 4 18.7652 4 18.5V5.49999C4 5.23478 4.10536 4.98042 4.29289 4.79289C4.48043 4.60535 4.73478 4.49999 5 4.49999H9.56C9.76964 4.49945 9.97416 4.56481 10.1446 4.68683C10.3151 4.80886 10.4429 4.98137 10.51 5.17999L11.05 6.81999C11.1171 7.01861 11.2449 7.19113 11.4154 7.31315C11.5858 7.43517 11.7904 7.50053 12 7.49999H19C19.2652 7.49999 19.5196 7.60535 19.7071 7.79289C19.8946 7.98042 20 8.23478 20 8.49999V18.5ZM12.71 10.79C12.5694 10.6512 12.3908 10.5572 12.1968 10.5199C12.0028 10.4825 11.8021 10.5034 11.62 10.58C11.4964 10.6258 11.3839 10.6974 11.29 10.79C11.1073 10.9816 11.0037 11.2352 11 11.5C11.0011 11.7623 11.1053 12.0137 11.29 12.2C11.383 12.2937 11.4936 12.3681 11.6154 12.4189C11.7373 12.4697 11.868 12.4958 12 12.4958C12.132 12.4958 12.2627 12.4697 12.3846 12.4189C12.5064 12.3681 12.617 12.2937 12.71 12.2C12.8947 12.0137 12.9989 11.7623 13 11.5C12.9984 11.3693 12.9712 11.2402 12.92 11.12C12.8742 10.9963 12.8026 10.8839 12.71 10.79Z" fill="black"/>
</svg>
