<svg width="24" height="24" viewBox="0 0 24 24" fill="none" xmlns="http://www.w3.org/2000/svg">
<path d="M16.84 11.63C17.2405 11.6349 17.638 11.5596 18.009 11.4085C18.38 11.2573 18.7169 11.0334 19 10.75L21.83 7.91997C22.0162 7.73261 22.1208 7.47916 22.1208 7.21497C22.1208 6.95079 22.0162 6.69734 21.83 6.50997C21.737 6.41624 21.6264 6.34185 21.5046 6.29108C21.3827 6.24031 21.252 6.21417 21.12 6.21417C20.988 6.21417 20.8573 6.24031 20.7354 6.29108C20.6136 6.34185 20.5029 6.41624 20.41 6.50997L17.55 9.32997C17.457 9.4237 17.3464 9.4981 17.2246 9.54886C17.1027 9.59963 16.972 9.62577 16.84 9.62577C16.708 9.62577 16.5773 9.59963 16.4554 9.54886C16.3336 9.4981 16.2229 9.4237 16.13 9.32997L19.67 5.79997C19.7632 5.70673 19.8372 5.59604 19.8876 5.47422C19.9381 5.3524 19.9641 5.22183 19.9641 5.08997C19.9641 4.95811 19.9381 4.82755 19.8876 4.70572C19.8372 4.5839 19.7632 4.47321 19.67 4.37997C19.5767 4.28673 19.4661 4.21277 19.3442 4.16231C19.2224 4.11185 19.0918 4.08588 18.96 4.08588C18.8281 4.08588 18.6976 4.11185 18.5757 4.16231C18.4539 4.21277 18.3432 4.28673 18.25 4.37997L14.72 7.91997C14.5337 7.73261 14.4292 7.47916 14.4292 7.21497C14.4292 6.95079 14.5337 6.69734 14.72 6.50997L17.55 3.67997C17.6432 3.58673 17.7172 3.47604 17.7676 3.35422C17.8181 3.2324 17.8441 3.10183 17.8441 2.96997C17.8441 2.83811 17.8181 2.70755 17.7676 2.58572C17.7172 2.4639 17.6432 2.35321 17.55 2.25997C17.4567 2.16673 17.3461 2.09277 17.2242 2.04231C17.1024 1.99185 16.9718 1.96588 16.84 1.96588C16.7081 1.96588 16.5776 1.99185 16.4557 2.04231C16.3339 2.09277 16.2232 2.16673 16.13 2.25997L13.3 5.08997C12.7382 5.65247 12.4226 6.41497 12.4226 7.20997C12.4226 8.00498 12.7382 8.76747 13.3 9.32997L12 10.62L3.72999 2.31997L3.62999 2.25997C3.57887 2.21537 3.52162 2.17833 3.45999 2.14997L3.27999 2.07997L3.15999 1.99997H3.08999H2.88999C2.83037 1.99044 2.76961 1.99044 2.70999 1.99997C2.64945 2.02201 2.59224 2.05229 2.53999 2.08997L2.37999 2.18997H2.30999L2.24999 2.28997C2.20766 2.34277 2.17081 2.39973 2.13999 2.45997C2.1107 2.52095 2.08726 2.58457 2.06999 2.64997C2.06999 2.64997 2.06999 2.71997 2.06999 2.75997C1.82732 4.45138 1.98204 6.17607 2.52186 7.79729C3.06169 9.4185 3.97179 10.8917 5.17999 12.1L7.81999 14.73L2.40999 20.13C2.31626 20.2229 2.24186 20.3335 2.1911 20.4554C2.14033 20.5773 2.11419 20.708 2.11419 20.84C2.11419 20.972 2.14033 21.1027 2.1911 21.2246C2.24186 21.3464 2.31626 21.457 2.40999 21.55C2.50343 21.6427 2.61424 21.716 2.73608 21.7657C2.85792 21.8155 2.98838 21.8407 3.11999 21.84C3.25159 21.8407 3.38206 21.8155 3.50389 21.7657C3.62573 21.716 3.73655 21.6427 3.82999 21.55L9.89999 15.57L12.73 12.74L14.73 10.74C15.288 11.304 16.0466 11.624 16.84 11.63ZM9.18999 13.45L6.55999 10.81C5.11844 9.34871 4.21583 7.44124 3.99999 5.39997L10.61 12L9.18999 13.45ZM15.43 14.02C15.2417 13.8303 14.9858 13.7233 14.7185 13.7223C14.4513 13.7214 14.1946 13.8267 14.005 14.015C13.8154 14.2033 13.7083 14.4592 13.7074 14.7264C13.7064 14.9937 13.8117 15.2503 14 15.44L20.3 21.74C20.491 21.9138 20.7418 22.0069 21 22C21.1316 22.0007 21.2621 21.9755 21.3839 21.9257C21.5057 21.876 21.6165 21.8027 21.71 21.71C21.8037 21.617 21.8781 21.5064 21.9289 21.3846C21.9796 21.2627 22.0058 21.132 22.0058 21C22.0058 20.868 21.9796 20.7373 21.9289 20.6154C21.8781 20.4935 21.8037 20.3829 21.71 20.29L15.43 14.02Z" fill="black"/>
</svg>
