<svg width="24" height="24" viewBox="0 0 24 24" fill="none" xmlns="http://www.w3.org/2000/svg">
<path d="M20.5 17H5.91L7.21 15.71C7.3983 15.5217 7.50409 15.2663 7.50409 15C7.50409 14.7337 7.3983 14.4783 7.21 14.29C7.0217 14.1017 6.7663 13.9959 6.5 13.9959C6.2337 13.9959 5.9783 14.1017 5.79 14.29L2.79 17.29C2.69896 17.3851 2.62759 17.4972 2.58 17.62C2.47998 17.8635 2.47998 18.1365 2.58 18.38C2.62759 18.5028 2.69896 18.6149 2.79 18.71L5.79 21.71C5.88296 21.8037 5.99356 21.8781 6.11542 21.9289C6.23728 21.9797 6.36799 22.0058 6.5 22.0058C6.63201 22.0058 6.76272 21.9797 6.88458 21.9289C7.00644 21.8781 7.11704 21.8037 7.21 21.71C7.30373 21.617 7.37812 21.5064 7.42889 21.3846C7.47966 21.2627 7.5058 21.132 7.5058 21C7.5058 20.868 7.47966 20.7373 7.42889 20.6154C7.37812 20.4936 7.30373 20.383 7.21 20.29L5.91 19H20.5C20.7652 19 21.0196 18.8946 21.2071 18.7071C21.3946 18.5196 21.5 18.2652 21.5 18C21.5 17.7348 21.3946 17.4804 21.2071 17.2929C21.0196 17.1054 20.7652 17 20.5 17ZM11.5 10V14C11.5 14.2652 11.6054 14.5196 11.7929 14.7071C11.9804 14.8946 12.2348 15 12.5 15C12.7652 15 13.0196 14.8946 13.2071 14.7071C13.3946 14.5196 13.5 14.2652 13.5 14V4H15.5V14C15.5 14.2652 15.6054 14.5196 15.7929 14.7071C15.9804 14.8946 16.2348 15 16.5 15C16.7652 15 17.0196 14.8946 17.2071 14.7071C17.3946 14.5196 17.5 14.2652 17.5 14V4H18.5C18.7652 4 19.0196 3.89464 19.2071 3.70711C19.3946 3.51957 19.5 3.26522 19.5 3C19.5 2.73478 19.3946 2.48043 19.2071 2.29289C19.0196 2.10536 18.7652 2 18.5 2H11.5C10.4391 2 9.42172 2.42143 8.67157 3.17157C7.92143 3.92172 7.5 4.93913 7.5 6C7.5 7.06087 7.92143 8.07828 8.67157 8.82843C9.42172 9.57857 10.4391 10 11.5 10ZM11.5 4V8C10.9696 8 10.4609 7.78929 10.0858 7.41421C9.71071 7.03914 9.5 6.53043 9.5 6C9.5 5.46957 9.71071 4.96086 10.0858 4.58579C10.4609 4.21071 10.9696 4 11.5 4Z" fill="black"/>
</svg>
