<svg width="24" height="24" viewBox="0 0 24 24" fill="none" xmlns="http://www.w3.org/2000/svg">
<path d="M16 16H10.41L13.71 12.71C13.8037 12.617 13.8781 12.5064 13.9289 12.3846C13.9797 12.2627 14.0058 12.132 14.0058 12C14.0058 11.868 13.9797 11.7373 13.9289 11.6154C13.8781 11.4936 13.8037 11.383 13.71 11.29L10.41 8H16C16.2652 8 16.5196 7.89464 16.7071 7.70711C16.8946 7.51957 17 7.26522 17 7C17 6.73478 16.8946 6.48043 16.7071 6.29289C16.5196 6.10536 16.2652 6 16 6H8C7.80258 6.00099 7.60986 6.06039 7.44614 6.17072C7.28242 6.28105 7.15502 6.43738 7.08 6.62C7.00342 6.80211 6.9825 7.00282 7.01987 7.19681C7.05725 7.3908 7.15124 7.56938 7.29 7.71L11.59 12L7.29 16.29C7.15124 16.4306 7.05725 16.6092 7.01987 16.8032C6.9825 16.9972 7.00342 17.1979 7.08 17.38C7.15502 17.5626 7.28242 17.7189 7.44614 17.8293C7.60986 17.9396 7.80258 17.999 8 18H16C16.2652 18 16.5196 17.8946 16.7071 17.7071C16.8946 17.5196 17 17.2652 17 17C17 16.7348 16.8946 16.4804 16.7071 16.2929C16.5196 16.1054 16.2652 16 16 16Z" fill="black"/>
</svg>
