<svg width="24" height="24" viewBox="0 0 24 24" fill="none" xmlns="http://www.w3.org/2000/svg">
<path d="M18 7.00001H17.65C17.8782 6.53277 17.9979 6.01999 18 5.50001C18.003 4.80333 17.7975 4.1217 17.4098 3.54284C17.0221 2.96398 16.4701 2.51439 15.8247 2.25195C15.1794 1.9895 14.4703 1.92621 13.7886 2.07022C13.107 2.21423 12.4841 2.55895 12 3.06001C11.5159 2.55895 10.893 2.21423 10.2114 2.07022C9.52975 1.92621 8.82061 1.9895 8.17525 2.25195C7.5299 2.51439 6.97786 2.96398 6.59019 3.54284C6.20252 4.1217 5.99697 4.80333 6 5.50001C6.00213 6.01999 6.12178 6.53277 6.35 7.00001H6C5.20435 7.00001 4.44129 7.31608 3.87868 7.87869C3.31607 8.4413 3 9.20436 3 10V12C3 12.2652 3.10536 12.5196 3.29289 12.7071C3.48043 12.8946 3.73478 13 4 13H5V19C5 19.7957 5.31607 20.5587 5.87868 21.1213C6.44129 21.6839 7.20435 22 8 22H16C16.7956 22 17.5587 21.6839 18.1213 21.1213C18.6839 20.5587 19 19.7957 19 19V13H20C20.2652 13 20.5196 12.8946 20.7071 12.7071C20.8946 12.5196 21 12.2652 21 12V10C21 9.20436 20.6839 8.4413 20.1213 7.87869C19.5587 7.31608 18.7956 7.00001 18 7.00001ZM11 20H8C7.73478 20 7.48043 19.8947 7.29289 19.7071C7.10536 19.5196 7 19.2652 7 19V13H11V20ZM11 11H5V10C5 9.73479 5.10536 9.48044 5.29289 9.2929C5.48043 9.10536 5.73478 9.00001 6 9.00001H11V11ZM11 7.00001H9.5C9.20333 7.00001 8.91332 6.91203 8.66665 6.74721C8.41997 6.58239 8.22771 6.34812 8.11418 6.07403C8.00065 5.79994 7.97094 5.49834 8.02882 5.20737C8.0867 4.9164 8.22956 4.64913 8.43934 4.43935C8.64912 4.22957 8.91639 4.08671 9.20736 4.02883C9.49834 3.97095 9.79994 4.00066 10.074 4.11419C10.3481 4.22772 10.5824 4.41998 10.7472 4.66665C10.912 4.91333 11 5.20333 11 5.50001V7.00001ZM13 5.50001C13 5.20333 13.088 4.91333 13.2528 4.66665C13.4176 4.41998 13.6519 4.22772 13.926 4.11419C14.2001 4.00066 14.5017 3.97095 14.7926 4.02883C15.0836 4.08671 15.3509 4.22957 15.5607 4.43935C15.7704 4.64913 15.9133 4.9164 15.9712 5.20737C16.0291 5.49834 15.9994 5.79994 15.8858 6.07403C15.7723 6.34812 15.58 6.58239 15.3334 6.74721C15.0867 6.91203 14.7967 7.00001 14.5 7.00001H13V5.50001ZM17 19C17 19.2652 16.8946 19.5196 16.7071 19.7071C16.5196 19.8947 16.2652 20 16 20H13V13H17V19ZM19 11H13V9.00001H18C18.2652 9.00001 18.5196 9.10536 18.7071 9.2929C18.8946 9.48044 19 9.73479 19 10V11Z" fill="black"/>
</svg>
