<svg width="24" height="24" viewBox="0 0 24 24" fill="none" xmlns="http://www.w3.org/2000/svg">
<path d="M22.6023 10.004C22.5606 9.77333 22.4393 9.56467 22.2594 9.41438C22.0796 9.2641 21.8527 9.18174 21.6184 9.18168H12.2C12.0686 9.18165 11.9386 9.20749 11.8172 9.25774C11.6959 9.30798 11.5857 9.38164 11.4928 9.4745C11.3999 9.56737 11.3263 9.67762 11.276 9.79896C11.2258 9.9203 11.1999 10.0504 11.2 10.1817V14.0498C11.1999 14.1812 11.2258 14.3112 11.276 14.4326C11.3263 14.5539 11.3999 14.6642 11.4928 14.757C11.5857 14.8499 11.6959 14.9236 11.8172 14.9738C11.9386 15.024 12.0686 15.0499 12.2 15.0498H16.1624C15.88 15.5264 15.493 15.9325 15.0305 16.2373C14.1854 16.7732 13.2004 17.0464 12.2 17.0225C11.1624 17.0106 10.1551 16.6721 9.32096 16.0549C8.48686 15.4378 7.86849 14.5734 7.55373 13.5847L7.55344 13.583C7.20317 12.5564 7.20317 11.4427 7.55344 10.416L7.55368 10.4144C7.86866 9.4259 8.48712 8.56179 9.3212 7.94483C10.1553 7.32787 11.1626 6.98943 12.2 6.97758C12.7764 6.96435 13.3497 7.06512 13.8871 7.2741C14.4245 7.48309 14.9152 7.79616 15.3313 8.19535C15.5202 8.37591 15.7723 8.47537 16.0337 8.47245C16.295 8.46953 16.5448 8.36447 16.7297 8.17974L19.5979 5.31156C19.6929 5.21667 19.7678 5.10359 19.8182 4.97908C19.8685 4.85458 19.8932 4.72121 19.8908 4.58693C19.8885 4.45266 19.8591 4.32024 19.8044 4.19759C19.7497 4.07494 19.6708 3.96458 19.5725 3.87309C17.5766 2.0018 14.9357 0.972656 12.2 1.00004C10.1599 0.994009 8.15873 1.55806 6.4221 2.62858C4.68547 3.69911 3.28247 5.23353 2.37131 7.05883L2.36984 7.0606C1.59737 8.59235 1.19659 10.2845 1.19997 12C1.20241 13.7149 1.60289 15.4057 2.36989 16.9395L2.37136 16.9413C3.28252 18.7665 4.68551 20.301 6.42213 21.3715C8.15875 22.442 10.1599 23.0061 12.2 23C14.8853 23.068 17.4951 22.1067 19.4947 20.313L19.4954 20.3126L19.4962 20.3117L19.4964 20.3116L19.4964 20.3115C20.5803 19.2688 21.434 18.011 22.003 16.6188C22.5719 15.2267 22.8434 13.7309 22.8001 12.2276C22.8005 11.482 22.7343 10.7378 22.6023 10.004ZM12.2 3.00004C14.071 2.98183 15.8979 3.56859 17.4085 4.67289L15.9548 6.12604C14.8526 5.3631 13.5404 4.96175 12.2 4.97758C10.9762 4.98388 9.7762 5.31617 8.7235 5.94027C7.6708 6.56437 6.80343 7.45771 6.21066 8.52837L5.14145 7.69963L4.55645 7.24595C5.36122 5.9438 6.48644 4.86975 7.82461 4.1264C9.16278 3.38306 10.6692 2.99526 12.2 3.00004ZM3.67941 14.9034C3.04009 13.0206 3.04009 10.9795 3.67941 9.09672L5.46164 10.4786C5.23377 11.4798 5.23377 12.5194 5.46164 13.5206L3.67941 14.9034ZM12.2 21C10.6692 21.0048 9.16274 20.617 7.82455 19.8736C6.48637 19.1302 5.36114 18.0561 4.55637 16.754L4.93478 16.4604L6.21066 15.4707C6.80317 16.5417 7.67046 17.4353 8.7232 18.0596C9.77593 18.6839 10.9761 19.0163 12.2 19.0225C13.3456 19.036 14.4783 18.7787 15.5057 18.2717L17.1974 19.585C15.7096 20.5437 13.9695 21.0364 12.2 21ZM18.7259 18.2393L18.5429 18.0973L17.1655 17.028C17.8877 16.2478 18.3731 15.2782 18.5652 14.2325C18.592 14.0882 18.5867 13.9397 18.5497 13.7976C18.5127 13.6555 18.4448 13.5233 18.351 13.4105C18.2571 13.2976 18.1395 13.2067 18.0066 13.1444C17.8736 13.0821 17.7286 13.0498 17.5818 13.0499H13.2V11.1817H20.7488C20.783 11.5274 20.8001 11.877 20.8001 12.2276C20.8585 14.4164 20.1216 16.5522 18.7258 18.2393H18.7259Z" fill="black"/>
</svg>
