<svg width="24" height="24" viewBox="0 0 24 24" fill="none" xmlns="http://www.w3.org/2000/svg">
<path d="M20.4441 9.05505C20.1556 7.43016 19.4006 5.92429 18.2712 4.72105C17.7898 4.20204 17.2448 3.74594 16.649 3.36357C15.5525 2.65275 14.3066 2.2047 13.0085 2.0543C12.8473 2.04556 12.6867 2.02743 12.5276 2H11.3932C11.3809 2.02863 11.3546 2.01819 11.3337 2.02014C11.0416 2.0459 10.7509 2.07914 10.4626 2.13379C8.41382 2.49637 6.57075 3.60177 5.28612 5.2384C4.20175 6.58045 3.55926 8.22518 3.44682 9.9469C3.38298 10.7943 3.44524 11.6465 3.63158 12.4756C3.76931 13.0945 3.97881 13.6952 4.25584 14.2656C4.28032 14.3143 4.30443 14.363 4.32933 14.4116C4.77936 15.3084 5.38284 16.1196 6.11247 16.8083C7.67171 18.2831 9.72955 19.116 11.8756 19.1408C11.9758 19.1422 12.003 19.1669 12.0024 19.2693C11.9979 20.1428 11.9998 21.0165 12.0001 21.8901C12.0001 21.9241 12.0027 21.9579 12.0047 22C12.0329 21.9885 12.0506 21.982 12.0677 21.9739C13.7047 21.216 15.2184 20.2162 16.558 19.008C16.825 18.7649 17.0813 18.5107 17.3269 18.2455C17.4322 18.1322 17.5366 18.0168 17.6421 17.9036C17.8051 17.7293 17.9462 17.5345 18.0999 17.351C18.2774 17.1393 18.4367 16.9143 18.5939 16.6877C18.943 16.1892 19.2502 15.6626 19.5124 15.1133C19.6444 14.8345 19.77 14.5534 19.8812 14.2657C19.8854 14.2608 19.8891 14.2554 19.8922 14.2496C20.1914 13.4642 20.3931 12.6451 20.4928 11.8106C20.5289 11.5194 20.5523 11.2263 20.567 10.9334C20.5988 10.3046 20.5576 9.6743 20.4441 9.05505ZM11.2541 11.8744C11.255 12.2289 11.1805 12.5796 11.0357 12.9032C10.8909 13.2269 10.679 13.5161 10.4141 13.7517C10.3857 13.7781 10.3581 13.8056 10.3304 13.8326C10.0538 14.0527 9.73649 14.2161 9.39662 14.3132C9.24926 14.3505 9.0998 14.3788 8.94905 14.3981C8.89806 14.4059 8.846 14.3947 8.80271 14.3666C8.75942 14.3386 8.72791 14.2957 8.71413 14.246L8.71529 13.2778C8.72096 13.1828 8.68269 13.081 8.75881 12.9972C8.79497 12.9555 8.84327 12.926 8.89697 12.9129C9.06909 12.8814 9.2356 12.8247 9.39111 12.7444C9.52647 12.6663 9.64417 12.5609 9.73678 12.435C9.82939 12.309 9.8949 12.1653 9.92919 12.0128C9.94134 11.9627 9.953 11.9122 9.96459 11.8619C9.28404 11.8606 8.60358 11.8595 7.9232 11.8585C7.86455 11.8604 7.80592 11.8543 7.74889 11.8405C7.6632 11.8177 7.58713 11.7679 7.53193 11.6985C7.47673 11.6291 7.44533 11.5438 7.44237 11.4552C7.44109 10.4263 7.4416 9.39727 7.44389 8.3682C7.42764 8.28976 7.43184 8.20846 7.45607 8.13211C7.4803 8.05576 7.52376 7.98692 7.58226 7.9322C7.65226 7.86786 7.74349 7.83153 7.83855 7.83015C8.8391 7.82997 9.83969 7.82979 10.8403 7.8296C10.9043 7.82985 10.9674 7.84488 11.0247 7.8735C11.082 7.90213 11.1319 7.94358 11.1705 7.99463C11.2092 8.04569 11.2355 8.10497 11.2475 8.16786C11.2595 8.23076 11.2568 8.29557 11.2396 8.35725C11.2553 8.40663 11.261 8.45865 11.2562 8.51025C11.2565 9.63147 11.2627 10.7532 11.2541 11.8744ZM16.5572 11.8794C16.5523 12.3768 16.4025 12.8619 16.126 13.2754C15.8495 13.6888 15.4585 14.0127 15.0007 14.2073C14.9773 14.2173 14.9551 14.2302 14.9322 14.2417L14.8941 14.2524L14.8725 14.2647C14.6793 14.3206 14.4826 14.3638 14.2837 14.394C14.2512 14.4023 14.2171 14.403 14.1843 14.3959C14.1515 14.3888 14.1207 14.3741 14.0946 14.3531C14.0684 14.332 14.0475 14.3051 14.0336 14.2746C14.0197 14.244 14.013 14.2106 14.0143 14.1771C14.0127 14.0697 14.012 13.9621 14.0111 13.8546L14.0167 13.2773C14.0158 13.2348 14.0143 13.1926 14.0144 13.1503C14.0146 13.0025 14.0714 12.9401 14.2552 12.8982C14.4893 12.8581 14.7082 12.7555 14.8888 12.6013C15.0944 12.4043 15.2274 12.1437 15.2663 11.8616L13.3805 11.858C13.3122 11.8579 13.2438 11.8589 13.1753 11.8577C13.1173 11.8597 13.0596 11.8496 13.0058 11.828C12.952 11.8065 12.9032 11.7741 12.8625 11.7327C12.8219 11.6914 12.7903 11.6421 12.7697 11.5879C12.7491 11.5337 12.7399 11.4758 12.7428 11.4179C12.7432 10.4016 12.7439 9.38536 12.7452 8.36915L12.7435 8.33979C12.7274 8.2527 12.7383 8.16277 12.7747 8.08204C12.8112 8.00132 12.8714 7.93366 12.9474 7.88813C13.0112 7.8487 13.085 7.82852 13.16 7.83C14.1539 7.82945 15.1479 7.82917 16.1418 7.82914C16.2059 7.82943 16.2689 7.84448 16.3262 7.87312C16.3834 7.90176 16.4333 7.94322 16.4719 7.99427C16.5106 8.04533 16.5369 8.1046 16.5489 8.16749C16.5608 8.23037 16.5582 8.29517 16.541 8.35685C16.5566 8.40622 16.5622 8.45818 16.5576 8.50974C16.5575 9.63295 16.5574 10.7562 16.5572 11.8794Z" fill="black"/>
</svg>
