<svg width="24" height="24" viewBox="0 0 24 24" fill="none" xmlns="http://www.w3.org/2000/svg">
<path d="M8.99169 7.69045C8.46126 7.69045 7.95255 7.90116 7.57748 8.27624C7.2024 8.65131 6.99169 9.16002 6.99169 9.69045C6.99169 10.2209 7.2024 10.7296 7.57748 11.1047C7.95255 11.4797 8.46126 11.6904 8.99169 11.6904L9.00683 11.6889V12.1904C9.00657 12.3229 8.9538 12.4499 8.86009 12.5437C8.76638 12.6374 8.63936 12.6901 8.50683 12.6904C8.24161 12.6904 7.98726 12.7957 7.79972 12.9833C7.61219 13.1708 7.50683 13.4252 7.50683 13.6904C7.50683 13.9556 7.61219 14.21 7.79972 14.3975C7.98726 14.585 8.24161 14.6904 8.50683 14.6904C9.16968 14.6898 9.80521 14.4262 10.2739 13.9575C10.7426 13.4888 11.0062 12.8532 11.0068 12.1904V9.69039C11.0008 9.6395 10.9907 9.58919 10.9765 9.53996C10.9401 9.03811 10.7153 8.56857 10.3472 8.22554C9.97907 7.88251 9.49486 7.69137 8.99169 7.69045ZM11.9912 1.00191C9.48214 1.00196 7.06893 1.9656 5.24996 3.69382C3.43099 5.42204 2.34521 7.78282 2.21686 10.2886C2.08852 12.7944 2.92741 15.2537 4.56028 17.1588C6.19315 19.0638 8.49528 20.2689 10.9912 20.5254V22.002C10.9911 22.1537 11.0255 22.3034 11.0918 22.4399C11.1582 22.5763 11.2548 22.6958 11.3742 22.7894C11.4937 22.8829 11.6328 22.9481 11.7812 22.9798C11.9295 23.0116 12.0832 23.0091 12.2305 22.9727C14.7507 22.349 17.0151 20.9582 18.7108 18.9923C20.4066 17.0264 21.4501 14.5824 21.6973 11.998C21.8774 10.6202 21.7605 9.21991 21.3545 7.89112C20.9484 6.56232 20.2626 5.33586 19.3431 4.29416C18.4237 3.25247 17.2918 2.4197 16.0237 1.85182C14.7556 1.28395 13.3806 0.994131 11.9912 1.00186V1.00191ZM19.709 11.7822C19.5255 13.7381 18.7993 15.604 17.6124 17.1694C16.4255 18.7349 14.825 19.9378 12.9912 20.6425V19.5761C12.9913 19.4448 12.9655 19.3147 12.9153 19.1934C12.865 19.072 12.7914 18.9617 12.6985 18.8689C12.6056 18.776 12.4954 18.7023 12.374 18.6521C12.2526 18.6019 12.1226 18.5761 11.9912 18.5761C10.4511 18.5759 8.94566 18.1191 7.6652 17.2633C6.38475 16.4075 5.38681 15.1913 4.79757 13.7683C4.20833 12.3454 4.05426 10.7797 4.35484 9.26923C4.65542 7.75874 5.39714 6.3713 6.48623 5.28235C7.57531 4.19341 8.96285 3.45185 10.4734 3.15147C11.9839 2.85108 13.5496 3.00535 14.9724 3.59476C16.3953 4.18418 17.6114 5.18227 18.467 6.46283C19.3226 7.7434 19.7793 9.24892 19.7793 10.789C19.7767 11.1212 19.7532 11.4529 19.709 11.7822ZM14.9917 7.69045C14.4613 7.69045 13.9525 7.90116 13.5775 8.27624C13.2024 8.65131 12.9917 9.16002 12.9917 9.69045C12.9917 10.2209 13.2024 10.7296 13.5775 11.1047C13.9525 11.4797 14.4613 11.6904 14.9917 11.6904L15.0068 11.6889V12.1904C15.0066 12.3229 14.9538 12.4499 14.8601 12.5437C14.7664 12.6374 14.6394 12.6901 14.5068 12.6904C14.2416 12.6904 13.9873 12.7957 13.7997 12.9833C13.6122 13.1708 13.5068 13.4252 13.5068 13.6904C13.5068 13.9556 13.6122 14.21 13.7997 14.3975C13.9873 14.585 14.2416 14.6904 14.5068 14.6904C15.1697 14.6898 15.8052 14.4262 16.2739 13.9575C16.7426 13.4888 17.0062 12.8532 17.0068 12.1904V9.69039C17.0008 9.6395 16.9907 9.58919 16.9765 9.53996C16.9401 9.03811 16.7153 8.56857 16.3472 8.22554C15.9791 7.88251 15.4949 7.69137 14.9917 7.69045Z" fill="black"/>
</svg>
