<svg width="24" height="24" viewBox="0 0 24 24" fill="none" xmlns="http://www.w3.org/2000/svg">
<g clip-path="url(#clip0_47_517)">
<path d="M22.71 21.29L21.71 20.29L15.71 14.29L9.71 8.29L3.71 2.29L2.71 1.29C2.5217 1.1017 2.2663 0.995911 2 0.995911C1.7337 0.995911 1.47831 1.1017 1.29 1.29C1.1017 1.47831 0.995911 1.7337 0.995911 2C0.995911 2.2663 1.1017 2.5217 1.29 2.71L2 3.41V21C2 21.2652 2.10536 21.5196 2.2929 21.7071C2.48043 21.8946 2.73479 22 3 22H20.59L21.29 22.71C21.383 22.8037 21.4936 22.8781 21.6154 22.9289C21.7373 22.9797 21.868 23.0058 22 23.0058C22.132 23.0058 22.2627 22.9797 22.3846 22.9289C22.5064 22.8781 22.617 22.8037 22.71 22.71C22.8037 22.617 22.8781 22.5064 22.9289 22.3846C22.9797 22.2627 23.0058 22.132 23.0058 22C23.0058 21.868 22.9797 21.7373 22.9289 21.6154C22.8781 21.4936 22.8037 21.383 22.71 21.29ZM4 5.41L6.59 8H4V5.41ZM8 20H4V16H8V20ZM8 14H4V10H8V14ZM10 11.41L12.59 14H10V11.41ZM14 20H10V16H14V20ZM16 20V17.41L18.59 20H16ZM8.67 4H14V9C14 9.26522 14.1054 9.51957 14.2929 9.70711C14.4804 9.89464 14.7348 10 15 10H20V15.33C20 15.5952 20.1054 15.8496 20.2929 16.0371C20.4804 16.2246 20.7348 16.33 21 16.33C21.2652 16.33 21.5196 16.2246 21.7071 16.0371C21.8946 15.8496 22 15.5952 22 15.33V3C22 2.73479 21.8946 2.48043 21.7071 2.2929C21.5196 2.10536 21.2652 2 21 2H8.67C8.40479 2 8.15043 2.10536 7.9629 2.2929C7.77536 2.48043 7.67 2.73479 7.67 3C7.67 3.26522 7.77536 3.51957 7.9629 3.70711C8.15043 3.89465 8.40479 4 8.67 4ZM16 4H20V8H16V4Z" fill="black"/>
</g>
<defs>
<clipPath id="clip0_47_517">
<rect width="24" height="24" fill="white"/>
</clipPath>
</defs>
</svg>
