<svg width="24" height="24" viewBox="0 0 24 24" fill="none" xmlns="http://www.w3.org/2000/svg">
<path d="M9.21001 16.29C9.1149 16.199 9.00276 16.1276 8.88001 16.08C8.6979 16.0034 8.49718 15.9825 8.30319 16.0199C8.1092 16.0572 7.93063 16.1512 7.79001 16.29C7.70167 16.3872 7.63065 16.4988 7.58001 16.62C7.52402 16.7387 7.49663 16.8688 7.50001 17C7.50082 17.1638 7.54185 17.3248 7.6195 17.4691C7.69714 17.6133 7.80902 17.7362 7.94529 17.8271C8.08157 17.9179 8.23808 17.9739 8.40106 17.9901C8.56404 18.0063 8.72851 17.9822 8.88001 17.92C9.00119 17.8693 9.1128 17.7983 9.21001 17.71C9.34876 17.5694 9.44276 17.3908 9.48013 17.1968C9.51751 17.0028 9.49659 16.8021 9.42001 16.62C9.36936 16.4988 9.29834 16.3872 9.21001 16.29ZM9.21001 20.29C9.1128 20.2017 9.00119 20.1306 8.88001 20.08C8.6979 20.0034 8.49718 19.9825 8.30319 20.0199C8.1092 20.0572 7.93063 20.1512 7.79001 20.29C7.70167 20.3872 7.63065 20.4988 7.58001 20.62C7.51522 20.7721 7.48915 20.9378 7.50411 21.1024C7.51908 21.2671 7.57462 21.4254 7.66576 21.5633C7.75691 21.7012 7.88082 21.8144 8.0264 21.8926C8.17199 21.9709 8.33471 22.0119 8.50001 22.0119C8.6653 22.0119 8.82803 21.9709 8.97361 21.8926C9.11919 21.8144 9.2431 21.7012 9.33425 21.5633C9.42539 21.4254 9.48093 21.2671 9.4959 21.1024C9.51086 20.9378 9.48479 20.7721 9.42001 20.62C9.36936 20.4988 9.29834 20.3872 9.21001 20.29ZM13.06 14.17L12.88 14.08L12.7 14C12.505 13.9619 12.3031 13.9828 12.12 14.06C11.9964 14.1058 11.8839 14.1774 11.79 14.27C11.6973 14.3634 11.624 14.4742 11.5742 14.5961C11.5245 14.7179 11.4992 14.8484 11.5 14.98C11.4992 15.1116 11.5245 15.2421 11.5742 15.3639C11.624 15.4857 11.6973 15.5966 11.79 15.69C11.8872 15.7783 11.9988 15.8493 12.12 15.9C12.2397 15.9529 12.3691 15.9802 12.5 15.9802C12.6309 15.9802 12.7603 15.9529 12.88 15.9C13.0012 15.8493 13.1128 15.7783 13.21 15.69C13.3923 15.5062 13.4963 15.2589 13.5 15C13.4963 14.7352 13.3927 14.4816 13.21 14.29L13.06 14.17ZM13.21 18.29C13.0694 18.1512 12.8908 18.0572 12.6968 18.0199C12.5028 17.9825 12.3021 18.0034 12.12 18.08C11.9959 18.1249 11.8832 18.1966 11.7899 18.2899C11.6966 18.3832 11.6249 18.4959 11.58 18.62C11.5034 18.8021 11.4825 19.0028 11.5199 19.1968C11.5573 19.3908 11.6512 19.5694 11.79 19.71C11.8872 19.7983 11.9988 19.8694 12.12 19.92C12.2397 19.9729 12.3691 20.0002 12.5 20.0002C12.6309 20.0002 12.7603 19.9729 12.88 19.92C13.0012 19.8694 13.1128 19.7983 13.21 19.71C13.3488 19.5694 13.4428 19.3908 13.4801 19.1968C13.5175 19.0028 13.4966 18.8021 13.42 18.62C13.3694 18.4988 13.2983 18.3872 13.21 18.29ZM21.7 7.06999C21.5785 6.95002 21.4284 6.86314 21.2639 6.81763C21.0993 6.77211 20.9259 6.76949 20.76 6.80999C20.5469 6.8603 20.3289 6.88713 20.11 6.88999C19.3144 6.88999 18.5513 6.57392 17.9887 6.01131C17.4261 5.4487 17.11 4.68564 17.11 3.88999C17.1129 3.67106 17.1397 3.45309 17.19 3.23999C17.2361 3.07294 17.2379 2.89678 17.1954 2.72879C17.1529 2.5608 17.0675 2.40674 16.9475 2.28171C16.8275 2.15668 16.6771 2.06498 16.511 2.01559C16.3449 1.96621 16.1688 1.96083 16 1.99999C15.0047 2.21973 14.102 2.74255 13.4161 3.49649C12.7302 4.25043 12.2949 5.19842 12.17 6.20999C11.6254 6.06489 11.0636 5.99425 10.5 5.99999C9.05886 5.99917 7.66557 6.51709 6.57488 7.45905C5.48419 8.40101 4.76897 9.70408 4.56001 11.13C3.86364 11.3239 3.2444 11.7287 2.78734 12.2887C2.33028 12.8487 2.05784 13.5365 2.00743 14.2576C1.95701 14.9787 2.13111 15.6977 2.5058 16.3159C2.88049 16.9341 3.43739 17.4211 4.10001 17.71C4.22744 17.7605 4.36295 17.7876 4.50001 17.79C4.7312 17.7919 4.95591 17.7136 5.13589 17.5685C5.31586 17.4233 5.43999 17.2203 5.48715 16.994C5.5343 16.7676 5.50157 16.5319 5.39452 16.327C5.28747 16.1221 5.11272 15.9606 4.90001 15.87C4.6317 15.7557 4.40314 15.5647 4.24302 15.321C4.0829 15.0772 3.99836 14.7916 4.00001 14.5C4.00001 14.1022 4.15804 13.7206 4.43935 13.4393C4.72065 13.158 5.10218 13 5.50001 13C5.76522 13 6.01958 12.8946 6.20711 12.7071C6.39465 12.5196 6.50001 12.2652 6.50001 12C6.50001 10.9391 6.92143 9.92171 7.67158 9.17156C8.42172 8.42142 9.43914 7.99999 10.5 7.99999C11.2782 8.00557 12.0383 8.23466 12.69 8.65999C13.4207 9.13654 13.9755 9.83887 14.27 10.66C14.3272 10.8318 14.4299 10.9849 14.5673 11.1029C14.7047 11.2209 14.8715 11.2994 15.05 11.33C15.529 11.3854 15.9789 11.5887 16.337 11.9117C16.6951 12.2346 16.9437 12.6611 17.0482 13.1319C17.1527 13.6027 17.1079 14.0943 16.92 14.5384C16.7322 14.9825 16.4106 15.3571 16 15.61C15.8897 15.6822 15.7947 15.7755 15.7204 15.8844C15.6461 15.9934 15.5941 16.1159 15.5671 16.2449C15.5402 16.374 15.539 16.5071 15.5635 16.6367C15.588 16.7662 15.6378 16.8897 15.71 17C15.7822 17.1103 15.8755 17.2053 15.9844 17.2796C16.0934 17.3539 16.2159 17.4059 16.3449 17.4329C16.474 17.4598 16.6071 17.461 16.7367 17.4365C16.8662 17.412 16.9897 17.3622 17.1 17.29C17.6897 16.8891 18.1716 16.3491 18.503 15.7177C18.8343 15.0863 19.0051 14.383 19 13.67C19.0039 12.9731 18.8356 12.2861 18.51 11.67C19.3688 11.4302 20.1467 10.9624 20.7611 10.3163C21.3755 9.67012 21.8036 8.86974 22 7.99999C22.0337 7.83226 22.0239 7.65868 21.9713 7.49585C21.9188 7.33302 21.8254 7.1864 21.7 7.06999ZM17.11 9.88999C16.9702 9.90082 16.8298 9.90082 16.69 9.88999C16.4702 9.75416 16.2394 9.63707 16 9.53999C15.5881 8.64313 14.9633 7.86045 14.18 7.25999C14.18 7.13999 14.18 7.00999 14.18 6.88999C14.18 6.45667 14.2738 6.02848 14.4551 5.63489C14.6363 5.2413 14.9007 4.89165 15.23 4.60999C15.3848 5.67685 15.8803 6.66509 16.6426 7.42737C17.4049 8.18965 18.3932 8.68515 19.46 8.83999C19.1707 9.17841 18.8098 9.44821 18.4033 9.62982C17.9969 9.81144 17.5551 9.90031 17.11 9.88999Z" fill="black"/>
</svg>
