<svg width="24" height="24" viewBox="0 0 24 24" fill="none" xmlns="http://www.w3.org/2000/svg">
<path d="M17 8.60999L16 2.83999C15.9617 2.60337 15.8396 2.38838 15.6561 2.2342C15.4725 2.08002 15.2397 1.99691 15 1.99999H9C8.76031 1.99691 8.52749 2.08002 8.34394 2.2342C8.16039 2.38838 8.03833 2.60337 8 2.83999L7 8.60999C6.31637 9.60832 5.95055 10.79 5.95055 12C5.95055 13.21 6.31637 14.3917 7 15.39L8 21.16C8.03833 21.3966 8.16039 21.6116 8.34394 21.7658C8.52749 21.92 8.76031 22.0031 9 22H15C15.2397 22.0031 15.4725 21.92 15.6561 21.7658C15.8396 21.6116 15.9617 21.3966 16 21.16L17 15.39C17.6836 14.3917 18.0495 13.21 18.0495 12C18.0495 10.79 17.6836 9.60832 17 8.60999ZM9.85 3.99999H14.15L14.59 6.58999C13.7814 6.20304 12.8964 6.00219 12 6.00219C11.1036 6.00219 10.2186 6.20304 9.41 6.58999L9.85 3.99999ZM14.15 20H9.85L9.41 17.41C10.2186 17.7969 11.1036 17.9978 12 17.9978C12.8964 17.9978 13.7814 17.7969 14.59 17.41L14.15 20ZM12 16C11.2089 16 10.4355 15.7654 9.77772 15.3259C9.11992 14.8863 8.60723 14.2616 8.30448 13.5307C8.00173 12.7998 7.92252 11.9956 8.07686 11.2196C8.2312 10.4437 8.61216 9.73097 9.17157 9.17156C9.73098 8.61215 10.4437 8.23119 11.2196 8.07685C11.9956 7.92251 12.7998 8.00172 13.5307 8.30447C14.2616 8.60722 14.8864 9.11991 15.3259 9.77771C15.7654 10.4355 16 11.2089 16 12C16 13.0609 15.5786 14.0783 14.8284 14.8284C14.0783 15.5786 13.0609 16 12 16Z" fill="black"/>
</svg>
