<svg width="24" height="24" viewBox="0 0 24 24" fill="none" xmlns="http://www.w3.org/2000/svg">
<path d="M17.1111 6.66294C16.7822 6.8827 16.3956 7 16 7C15.4696 7 14.9609 6.78929 14.5858 6.41421C14.2107 6.03914 14 5.53043 14 5C14 4.60444 14.1173 4.21776 14.3371 3.88886C14.5568 3.55996 14.8692 3.30362 15.2346 3.15224C15.6001 3.00087 16.0022 2.96126 16.3902 3.03843C16.7781 3.1156 17.1345 3.30608 17.4142 3.58579C17.6939 3.86549 17.8844 4.22186 17.9616 4.60982C18.0387 4.99778 17.9991 5.39992 17.8478 5.76537C17.6964 6.13082 17.44 6.44318 17.1111 6.66294Z" fill="black"/>
<path d="M11.1733 19.615C11.7747 19.3422 12.2992 18.9248 12.7 18.4C12.8591 18.1878 13.096 18.0476 13.3586 18.0101C13.6211 17.9725 13.8878 18.0409 14.1 18.2C14.3122 18.3591 14.4524 18.596 14.4899 18.8586C14.5274 19.1211 14.4591 19.3878 14.3 19.6C13.7411 20.3452 13.0164 20.95 12.1833 21.3666C11.3501 21.7831 10.4315 22 9.49999 22C7.90869 22.0888 6.34728 21.5419 5.15923 20.4795C3.97119 19.4171 3.25384 17.9263 3.16499 16.335C3.07615 14.7437 3.62308 13.1823 4.68547 11.9942C5.74787 10.8062 7.23869 10.0888 8.82999 10C9.09521 9.97083 9.36115 10.0482 9.56932 10.2151C9.77748 10.382 9.91082 10.6248 9.93999 10.89C9.96917 11.1552 9.89179 11.4212 9.72488 11.6293C9.55797 11.8375 9.31521 11.9708 9.04999 12C8.39422 12.0778 7.76791 12.3167 7.22695 12.6954C6.68599 13.0742 6.24721 13.5809 5.94977 14.1705C5.65234 14.7601 5.5055 15.4142 5.52236 16.0743C5.53923 16.7345 5.71927 17.3802 6.04642 17.9538C6.37357 18.5274 6.83765 19.0111 7.39724 19.3618C7.95683 19.7124 8.59453 19.919 9.25341 19.9632C9.9123 20.0074 10.5719 19.8878 11.1733 19.615Z" fill="black"/>
</svg>
