<svg width="24" height="24" viewBox="0 0 24 24" fill="none" xmlns="http://www.w3.org/2000/svg">
<path d="M14 11H13V9.99997C13 9.73475 12.8946 9.4804 12.7071 9.29286C12.5195 9.10533 12.2652 8.99997 12 8.99997C11.7348 8.99997 11.4804 9.10533 11.2929 9.29286C11.1053 9.4804 11 9.73475 11 9.99997V11H9.99997C9.73475 11 9.4804 11.1053 9.29286 11.2929C9.10533 11.4804 8.99997 11.7348 8.99997 12C8.99997 12.2652 9.10533 12.5195 9.29286 12.7071C9.4804 12.8946 9.73475 13 9.99997 13H11V14C11 14.2652 11.1053 14.5195 11.2929 14.7071C11.4804 14.8946 11.7348 15 12 15C12.2652 15 12.5195 14.8946 12.7071 14.7071C12.8946 14.5195 13 14.2652 13 14V13H14C14.2652 13 14.5195 12.8946 14.7071 12.7071C14.8946 12.5195 15 12.2652 15 12C15 11.7348 14.8946 11.4804 14.7071 11.2929C14.5195 11.1053 14.2652 11 14 11ZM20.16 4.99997C19.0937 3.94467 17.6853 3.30524 16.189 3.19705C14.6927 3.08886 13.207 3.51904 12 4.40997C10.7276 3.46361 9.14396 3.03448 7.56789 3.20901C5.99182 3.38353 4.54041 4.14875 3.50594 5.35055C2.47148 6.55236 1.93079 8.10149 1.99277 9.68598C2.05475 11.2705 2.71479 12.7726 3.83997 13.89L9.83997 19.94C10.4025 20.5018 11.165 20.8173 11.96 20.8173C12.755 20.8173 13.5175 20.5018 14.08 19.94L20.08 13.89C20.6709 13.3126 21.1419 12.6242 21.4659 11.8642C21.7899 11.1042 21.9606 10.2877 21.968 9.4616C21.9754 8.63548 21.8195 7.81603 21.5092 7.05035C21.199 6.28467 20.7404 5.58786 20.16 4.99997ZM18.75 12.46L12.75 18.46C12.657 18.5537 12.5464 18.6281 12.4245 18.6789C12.3027 18.7296 12.172 18.7558 12.04 18.7558C11.908 18.7558 11.7773 18.7296 11.6554 18.6789C11.5335 18.6281 11.4229 18.5537 11.33 18.46L5.32997 12.46C4.54573 11.6583 4.10658 10.5814 4.10658 9.45997C4.10658 8.3385 4.54573 7.26162 5.32997 6.45997C6.12913 5.67096 7.20694 5.22854 8.32997 5.22854C9.453 5.22854 10.5308 5.67096 11.33 6.45997C11.4229 6.5537 11.5335 6.62809 11.6554 6.67886C11.7773 6.72963 11.908 6.75577 12.04 6.75577C12.172 6.75577 12.3027 6.72963 12.4245 6.67886C12.5464 6.62809 12.657 6.5537 12.75 6.45997C13.5491 5.67096 14.6269 5.22854 15.75 5.22854C16.873 5.22854 17.9508 5.67096 18.75 6.45997C19.5402 7.26252 19.9832 8.34365 19.9832 9.46997C19.9832 10.5963 19.5402 11.6774 18.75 12.48V12.46Z" fill="black"/>
</svg>
