<svg width="24" height="24" viewBox="0 0 24 24" fill="none" xmlns="http://www.w3.org/2000/svg">
<path d="M12.44 13.11L12.27 13C12.0869 12.9247 11.8856 12.9054 11.6916 12.9445C11.4976 12.9837 11.3195 13.0796 11.18 13.22C11.0835 13.3088 11.0083 13.4181 10.96 13.54C10.9075 13.6633 10.8803 13.796 10.88 13.93C10.8816 14.0607 10.9088 14.1898 10.96 14.31C11.0675 14.5503 11.2597 14.7426 11.5 14.85C11.6202 14.9013 11.7493 14.9284 11.88 14.93C12.0138 14.9275 12.146 14.9004 12.27 14.85C12.39 14.7983 12.4987 14.7236 12.59 14.63C12.7763 14.4427 12.8808 14.1892 12.8808 13.925C12.8808 13.6608 12.7763 13.4074 12.59 13.22L12.44 13.11ZM11.88 6.00002C11.4029 5.99465 10.9325 6.11353 10.5153 6.34496C10.098 6.5764 9.7481 6.91243 9.5 7.32002C9.42765 7.43384 9.37907 7.56112 9.35718 7.6942C9.33529 7.82728 9.34055 7.96341 9.37263 8.09441C9.40472 8.2254 9.46297 8.34856 9.54389 8.45646C9.6248 8.56435 9.72671 8.65477 9.84347 8.72227C9.96024 8.78976 10.0895 8.83294 10.2233 8.8492C10.3572 8.86546 10.493 8.85448 10.6225 8.8169C10.7521 8.77932 10.8727 8.71593 10.9771 8.63054C11.0814 8.54515 11.1675 8.43953 11.23 8.32002C11.3038 8.21745 11.4017 8.1346 11.515 8.0788C11.6284 8.02299 11.7537 7.99594 11.88 8.00002C12.0789 8.00002 12.2697 8.07904 12.4103 8.21969C12.551 8.36034 12.63 8.55111 12.63 8.75002C12.63 8.94893 12.551 9.1397 12.4103 9.28035C12.2697 9.421 12.0789 9.50002 11.88 9.50002C11.6148 9.50002 11.3604 9.60538 11.1729 9.79291C10.9854 9.98045 10.88 10.2348 10.88 10.5C10.88 10.7652 10.9854 11.0196 11.1729 11.2071C11.3604 11.3947 11.6148 11.5 11.88 11.5C12.6093 11.5 13.3088 11.2103 13.8245 10.6946C14.3403 10.1788 14.63 9.47937 14.63 8.75002C14.63 8.02068 14.3403 7.3212 13.8245 6.80548C13.3088 6.28975 12.6093 6.00002 11.88 6.00002ZM20.46 9.68002C20.3274 8.21463 19.8167 6.80875 18.9778 5.59993C18.139 4.39111 17.0007 3.42074 15.6743 2.78377C14.348 2.14679 12.879 1.86503 11.4111 1.96604C9.94316 2.06705 8.52661 2.54737 7.3 3.36002C6.2492 4.06267 5.36706 4.98932 4.71695 6.07341C4.06684 7.1575 3.6649 8.37213 3.54 9.63002C3.41749 10.8797 3.57468 12.1409 4.00017 13.3223C4.42567 14.5037 5.1088 15.5755 6 16.46L11.3 21.77C11.393 21.8638 11.5036 21.9381 11.6254 21.9889C11.7473 22.0397 11.878 22.0658 12.01 22.0658C12.142 22.0658 12.2727 22.0397 12.3946 21.9889C12.5164 21.9381 12.627 21.8638 12.72 21.77L18 16.46C18.8912 15.5755 19.5743 14.5037 19.9998 13.3223C20.4253 12.1409 20.5825 10.8797 20.46 9.63002V9.68002ZM16.6 15.05L12 19.65L7.4 15.05C6.72209 14.3721 6.20281 13.5524 5.87947 12.6498C5.55614 11.7472 5.43679 10.7842 5.53 9.83002C5.62382 8.86112 5.93177 7.92518 6.43157 7.08986C6.93138 6.25455 7.61056 5.54073 8.42 5.00002C9.48095 4.29526 10.7263 3.91932 12 3.91932C13.2737 3.91932 14.5191 4.29526 15.58 5.00002C16.387 5.53864 17.0647 6.2493 17.5644 7.08096C18.064 7.91262 18.3733 8.84462 18.47 9.81002C18.5663 10.7674 18.4484 11.7343 18.125 12.6406C17.8016 13.5468 17.2807 14.3699 16.6 15.05Z" fill="black"/>
</svg>
