<svg width="24" height="24" viewBox="0 0 24 24" fill="none" xmlns="http://www.w3.org/2000/svg">
<path d="M12.57 16.3C12.5271 16.2491 12.4765 16.2053 12.42 16.17L12.25 16.08L12.06 16C11.8985 15.9691 11.7319 15.9785 11.5749 16.0273C11.418 16.0761 11.2754 16.1629 11.16 16.28C11.0665 16.3713 10.9917 16.48 10.94 16.6C10.8909 16.724 10.8671 16.8566 10.87 16.99C10.8711 17.2523 10.9753 17.5037 11.16 17.69C11.2513 17.7835 11.36 17.8583 11.48 17.91C11.604 17.9591 11.7366 17.9829 11.87 17.98C12 17.9816 12.1291 17.9578 12.25 17.91C12.37 17.8583 12.4787 17.7835 12.57 17.69C12.7584 17.5054 12.8662 17.2538 12.87 16.99C12.8697 16.8559 12.8425 16.7233 12.79 16.6C12.7392 16.4853 12.6641 16.383 12.57 16.3ZM11.87 8.99999C11.3431 8.99965 10.8253 9.13811 10.3689 9.40143C9.91248 9.66476 9.53347 10.0437 9.27 10.5C9.19765 10.6138 9.14906 10.7411 9.12717 10.8742C9.10529 11.0072 9.11054 11.1434 9.14263 11.2744C9.17472 11.4054 9.23297 11.5285 9.31388 11.6364C9.3948 11.7443 9.49671 11.8347 9.61347 11.9022C9.73024 11.9697 9.85945 12.0129 9.99333 12.0292C10.1272 12.0454 10.263 12.0344 10.3925 11.9969C10.5221 11.9593 10.6427 11.8959 10.747 11.8105C10.8514 11.7251 10.9375 11.6195 11 11.5C11.1092 11.3073 11.2792 11.1564 11.4834 11.0708C11.6876 10.9852 11.9144 10.9697 12.1283 11.0269C12.3422 11.0841 12.5311 11.2107 12.6653 11.3868C12.7996 11.5629 12.8715 11.7786 12.87 12C12.87 12.2652 12.7646 12.5196 12.5771 12.7071C12.3896 12.8946 12.1352 13 11.87 13C11.6048 13 11.3504 13.1053 11.1629 13.2929C10.9754 13.4804 10.87 13.7348 10.87 14C10.87 14.2652 10.9754 14.5196 11.1629 14.7071C11.3504 14.8946 11.6048 15 11.87 15C12.6656 15 13.4287 14.6839 13.9913 14.1213C14.5539 13.5587 14.87 12.7956 14.87 12C14.87 11.2043 14.5539 10.4413 13.9913 9.87867C13.4287 9.31606 12.6656 8.99999 11.87 8.99999ZM19 5.49999H12.72L12.4 4.49999C12.1926 3.91322 11.8077 3.4055 11.2989 3.04715C10.7901 2.68881 10.1824 2.49759 9.56 2.49999H5C4.20435 2.49999 3.44129 2.81606 2.87868 3.37867C2.31607 3.94128 2 4.70434 2 5.49999V18.5C2 19.2956 2.31607 20.0587 2.87868 20.6213C3.44129 21.1839 4.20435 21.5 5 21.5H19C19.7956 21.5 20.5587 21.1839 21.1213 20.6213C21.6839 20.0587 22 19.2956 22 18.5V8.49999C22 7.70434 21.6839 6.94128 21.1213 6.37867C20.5587 5.81606 19.7956 5.49999 19 5.49999ZM20 18.5C20 18.7652 19.8946 19.0196 19.7071 19.2071C19.5196 19.3946 19.2652 19.5 19 19.5H5C4.73478 19.5 4.48043 19.3946 4.29289 19.2071C4.10536 19.0196 4 18.7652 4 18.5V5.49999C4 5.23478 4.10536 4.98042 4.29289 4.79289C4.48043 4.60535 4.73478 4.49999 5 4.49999H9.56C9.76964 4.49945 9.97416 4.56481 10.1446 4.68683C10.3151 4.80886 10.4429 4.98137 10.51 5.17999L11.05 6.81999C11.1171 7.01861 11.2449 7.19113 11.4154 7.31315C11.5858 7.43517 11.7904 7.50053 12 7.49999H19C19.2652 7.49999 19.5196 7.60535 19.7071 7.79289C19.8946 7.98042 20 8.23478 20 8.49999V18.5Z" fill="black"/>
</svg>
