<svg width="24" height="24" viewBox="0 0 24 24" fill="none" xmlns="http://www.w3.org/2000/svg">
<path d="M10 6C9.7348 6 9.48045 6.10536 9.29291 6.29289C9.10538 6.48043 9.00002 6.73478 9.00002 7V11H5.41002L6.21002 10.21C6.39832 10.0217 6.50411 9.7663 6.50411 9.5C6.50411 9.2337 6.39832 8.9783 6.21002 8.79C6.02172 8.6017 5.76632 8.49591 5.50002 8.49591C5.23372 8.49591 4.97832 8.6017 4.79002 8.79L2.29002 11.29C2.19898 11.3851 2.12761 11.4972 2.08002 11.62C1.98 11.8635 1.98 12.1365 2.08002 12.38C2.12761 12.5028 2.19898 12.6149 2.29002 12.71L4.79002 15.21C4.88298 15.3037 4.99358 15.3781 5.11544 15.4289C5.2373 15.4797 5.36801 15.5058 5.50002 15.5058C5.63203 15.5058 5.76274 15.4797 5.8846 15.4289C6.00645 15.3781 6.11706 15.3037 6.21002 15.21C6.30375 15.117 6.37814 15.0064 6.42891 14.8846C6.47968 14.7627 6.50582 14.632 6.50582 14.5C6.50582 14.368 6.47968 14.2373 6.42891 14.1154C6.37814 13.9936 6.30375 13.883 6.21002 13.79L5.41002 13H9.00002V17C9.00002 17.2652 9.10538 17.5196 9.29291 17.7071C9.48045 17.8946 9.7348 18 10 18C10.2652 18 10.5196 17.8946 10.7071 17.7071C10.8947 17.5196 11 17.2652 11 17V7C11 6.73478 10.8947 6.48043 10.7071 6.29289C10.5196 6.10536 10.2652 6 10 6ZM21.92 11.62C21.8724 11.4972 21.8011 11.3851 21.71 11.29L19.21 8.79C19.1168 8.69676 19.0061 8.6228 18.8843 8.57234C18.7624 8.52188 18.6319 8.49591 18.5 8.49591C18.2337 8.49591 17.9783 8.6017 17.79 8.79C17.6968 8.88324 17.6228 8.99393 17.5724 9.11575C17.5219 9.23757 17.4959 9.36814 17.4959 9.5C17.4959 9.7663 17.6017 10.0217 17.79 10.21L18.59 11H15V7C15 6.73478 14.8947 6.48043 14.7071 6.29289C14.5196 6.10536 14.2652 6 14 6C13.7348 6 13.4804 6.10536 13.2929 6.29289C13.1054 6.48043 13 6.73478 13 7V17C13 17.2652 13.1054 17.5196 13.2929 17.7071C13.4804 17.8946 13.7348 18 14 18C14.2652 18 14.5196 17.8946 14.7071 17.7071C14.8947 17.5196 15 17.2652 15 17V13H18.59L17.79 13.79C17.6963 13.883 17.6219 13.9936 17.5711 14.1154C17.5204 14.2373 17.4942 14.368 17.4942 14.5C17.4942 14.632 17.5204 14.7627 17.5711 14.8846C17.6219 15.0064 17.6963 15.117 17.79 15.21C17.883 15.3037 17.9936 15.3781 18.1154 15.4289C18.2373 15.4797 18.368 15.5058 18.5 15.5058C18.632 15.5058 18.7627 15.4797 18.8846 15.4289C19.0065 15.3781 19.1171 15.3037 19.21 15.21L21.71 12.71C21.8011 12.6149 21.8724 12.5028 21.92 12.38C22.02 12.1365 22.02 11.8635 21.92 11.62Z" fill="black"/>
</svg>
