<svg width="24" height="24" viewBox="0 0 24 24" fill="none" xmlns="http://www.w3.org/2000/svg">
<path d="M21.92 11.6199C21.8724 11.4972 21.8011 11.385 21.71 11.2899L17.71 7.28994C17.6168 7.1967 17.5061 7.12274 17.3843 7.07228C17.2624 7.02182 17.1319 6.99585 17 6.99585C16.7337 6.99585 16.4783 7.10164 16.29 7.28994C16.1017 7.47825 15.9959 7.73364 15.9959 7.99994C15.9959 8.26624 16.1017 8.52164 16.29 8.70994L18.59 10.9999H5.41002L7.71002 8.70994C7.80326 8.6167 7.87722 8.50601 7.92768 8.38419C7.97814 8.26237 8.00411 8.1318 8.00411 7.99994C8.00411 7.86808 7.97814 7.73751 7.92768 7.61569C7.87722 7.49387 7.80326 7.38318 7.71002 7.28994C7.61678 7.1967 7.50609 7.12274 7.38427 7.07228C7.26245 7.02182 7.13188 6.99585 7.00002 6.99585C6.86816 6.99585 6.73759 7.02182 6.61577 7.07228C6.49395 7.12274 6.38326 7.1967 6.29002 7.28994L2.29002 11.2899C2.19898 11.385 2.12761 11.4972 2.08002 11.6199C1.98 11.8634 1.98 12.1365 2.08002 12.3799C2.12761 12.5027 2.19898 12.6148 2.29002 12.7099L6.29002 16.7099C6.38298 16.8037 6.49358 16.8781 6.61544 16.9288C6.7373 16.9796 6.86801 17.0057 7.00002 17.0057C7.13203 17.0057 7.26274 16.9796 7.3846 16.9288C7.50645 16.8781 7.61706 16.8037 7.71002 16.7099C7.80375 16.617 7.87814 16.5064 7.92891 16.3845C7.97968 16.2627 8.00582 16.132 8.00582 15.9999C8.00582 15.8679 7.97968 15.7372 7.92891 15.6154C7.87814 15.4935 7.80375 15.3829 7.71002 15.2899L5.41002 12.9999H18.59L16.29 15.2899C16.1963 15.3829 16.1219 15.4935 16.0711 15.6154C16.0204 15.7372 15.9942 15.8679 15.9942 15.9999C15.9942 16.132 16.0204 16.2627 16.0711 16.3845C16.1219 16.5064 16.1963 16.617 16.29 16.7099C16.383 16.8037 16.4936 16.8781 16.6154 16.9288C16.7373 16.9796 16.868 17.0057 17 17.0057C17.132 17.0057 17.2627 16.9796 17.3846 16.9288C17.5065 16.8781 17.6171 16.8037 17.71 16.7099L21.71 12.7099C21.8011 12.6148 21.8724 12.5027 21.92 12.3799C22.02 12.1365 22.02 11.8634 21.92 11.6199Z" fill="black"/>
</svg>
