<svg width="24" height="24" viewBox="0 0 24 24" fill="none" xmlns="http://www.w3.org/2000/svg">
<path d="M13.21 5.70003C13.2897 5.70966 13.3703 5.70966 13.45 5.70003L15.39 5.21003C15.6472 5.1462 15.8685 4.98292 16.0053 4.75606C16.1422 4.52919 16.1834 4.25728 16.12 4.00003C16.0562 3.74287 15.8929 3.52156 15.666 3.38469C15.4392 3.24782 15.1672 3.20658 14.91 3.27003L13 3.73003C12.7348 3.76185 12.4931 3.89773 12.328 4.10777C12.163 4.31781 12.0882 4.58481 12.12 4.85003C12.1518 5.11524 12.2877 5.35696 12.4977 5.52199C12.7078 5.68702 12.9748 5.76185 13.24 5.73003L13.21 5.70003ZM9.51 9.00003H7.51C7.24478 9.00003 6.99043 9.10538 6.80289 9.29292C6.61535 9.48046 6.51 9.73481 6.51 10C6.51 10.2652 6.61535 10.5196 6.80289 10.7071C6.99043 10.8947 7.24478 11 7.51 11H9.51C9.77521 11 10.0296 10.8947 10.2171 10.7071C10.4046 10.5196 10.51 10.2652 10.51 10C10.51 9.73481 10.4046 9.48046 10.2171 9.29292C10.0296 9.10538 9.77521 9.00003 9.51 9.00003ZM13.51 9.00003C13.2448 9.00003 12.9904 9.10538 12.8029 9.29292C12.6154 9.48046 12.51 9.73481 12.51 10C12.51 10.2652 12.6154 10.5196 12.8029 10.7071C12.9904 10.8947 13.2448 11 13.51 11H15.51C15.7752 11 16.0296 10.8947 16.2171 10.7071C16.4046 10.5196 16.51 10.2652 16.51 10C16.51 9.73481 16.4046 9.48046 16.2171 9.29292C16.0296 9.10538 15.7752 9.00003 15.51 9.00003H13.51ZM7.39 7.15003H7.63L9.57 6.67003C9.83123 6.60638 10.0565 6.44155 10.1962 6.21182C10.3359 5.98209 10.3786 5.70627 10.315 5.44503C10.2513 5.18379 10.0865 4.95854 9.85679 4.81882C9.62706 4.67911 9.35124 4.63638 9.09 4.70003L7.15 5.18003C6.88478 5.21185 6.64307 5.34773 6.47804 5.55777C6.31301 5.76781 6.23817 6.03481 6.27 6.30003C6.30182 6.56524 6.4377 6.80696 6.64774 6.97199C6.85778 7.13702 7.12478 7.21185 7.39 7.18003V7.15003ZM4 10.51C4.26521 10.51 4.51957 10.4047 4.7071 10.2171C4.89464 10.0296 5 9.77524 5 9.51003V7.51003C5 7.24481 4.89464 6.99046 4.7071 6.80292C4.51957 6.61538 4.26521 6.51003 4 6.51003C3.73478 6.51003 3.48043 6.61538 3.29289 6.80292C3.10535 6.99046 3 7.24481 3 7.51003V9.51003C3 9.77524 3.10535 10.0296 3.29289 10.2171C3.48043 10.4047 3.73478 10.51 4 10.51ZM20.62 2.21003C20.5024 2.11136 20.3636 2.0411 20.2145 2.00468C20.0654 1.96826 19.9098 1.96667 19.76 2.00003L18.76 2.24003C18.5028 2.30386 18.2815 2.46713 18.1447 2.694C18.0078 2.92087 17.9666 3.19278 18.03 3.45003C18.0847 3.6719 18.2138 3.86833 18.3958 4.00661C18.5777 4.14489 18.8016 4.21668 19.03 4.21003C19.0882 4.4444 19.2293 4.64977 19.4272 4.78822C19.6251 4.92667 19.8663 4.98883 20.1065 4.96323C20.3466 4.93764 20.5694 4.826 20.7336 4.64896C20.8979 4.47191 20.9925 4.24141 21 4.00003V3.00003C21.0008 2.84813 20.967 2.69805 20.9012 2.56117C20.8353 2.42429 20.7392 2.3042 20.62 2.21003ZM20 7.00003C19.7348 7.00003 19.4804 7.10538 19.2929 7.29292C19.1054 7.48046 19 7.73481 19 8.00003V9.14003C18.8116 9.25183 18.6651 9.42241 18.5831 9.62556C18.501 9.8287 18.488 10.0532 18.5459 10.2645C18.6038 10.4758 18.7295 10.6622 18.9037 10.7951C19.0779 10.928 19.2909 11 19.51 11H20C20.2652 11 20.5196 10.8947 20.7071 10.7071C20.8946 10.5196 21 10.2652 21 10V8.00003C21 7.73481 20.8946 7.48046 20.7071 7.29292C20.5196 7.10538 20.2652 7.00003 20 7.00003ZM20 13H4C3.73478 13 3.48043 13.1054 3.29289 13.2929C3.10535 13.4805 3 13.7348 3 14V17C2.99334 17.2285 3.06513 17.4523 3.20341 17.6342C3.34169 17.8162 3.53812 17.9453 3.76 18L19.76 22C19.8397 22.0097 19.9203 22.0097 20 22C20.2652 22 20.5196 21.8947 20.7071 21.7071C20.8946 21.5196 21 21.2652 21 21V14C21 13.7348 20.8946 13.4805 20.7071 13.2929C20.5196 13.1054 20.2652 13 20 13ZM19 19.72L5 16.22V15H19V19.72Z" fill="black"/>
</svg>
