<svg width="24" height="24" viewBox="0 0 24 24" fill="none" xmlns="http://www.w3.org/2000/svg">
<path d="M21.92 11.6199C21.8724 11.4972 21.8011 11.385 21.71 11.2899L19.21 8.78994C19.0217 8.60164 18.7663 8.49585 18.5 8.49585C18.2337 8.49585 17.9783 8.60164 17.79 8.78994C17.6017 8.97824 17.4959 9.23364 17.4959 9.49994C17.4959 9.76624 17.6017 10.0216 17.79 10.2099L18.59 10.9999H14C13.7348 10.9999 13.4804 11.1053 13.2929 11.2928C13.1054 11.4804 13 11.7347 13 11.9999C13 12.2652 13.1054 12.5195 13.2929 12.707C13.4804 12.8946 13.7348 12.9999 14 12.9999H18.59L17.79 13.7899C17.6963 13.8829 17.6219 13.9935 17.5711 14.1154C17.5204 14.2372 17.4942 14.3679 17.4942 14.4999C17.4942 14.632 17.5204 14.7627 17.5711 14.8845C17.6219 15.0064 17.6963 15.117 17.79 15.2099C17.883 15.3037 17.9936 15.3781 18.1154 15.4288C18.2373 15.4796 18.368 15.5057 18.5 15.5057C18.632 15.5057 18.7627 15.4796 18.8846 15.4288C19.0065 15.3781 19.1171 15.3037 19.21 15.2099L21.71 12.7099C21.8011 12.6148 21.8724 12.5027 21.92 12.3799C22.02 12.1365 22.02 11.8634 21.92 11.6199ZM10 10.9999H5.41002L6.21002 10.2099C6.39832 10.0216 6.50411 9.76624 6.50411 9.49994C6.50411 9.23364 6.39832 8.97824 6.21002 8.78994C6.02172 8.60164 5.76632 8.49585 5.50002 8.49585C5.23372 8.49585 4.97832 8.60164 4.79002 8.78994L2.29002 11.2899C2.19898 11.385 2.12761 11.4972 2.08002 11.6199C1.98 11.8634 1.98 12.1365 2.08002 12.3799C2.12761 12.5027 2.19898 12.6148 2.29002 12.7099L4.79002 15.2099C4.88298 15.3037 4.99358 15.3781 5.11544 15.4288C5.2373 15.4796 5.36801 15.5057 5.50002 15.5057C5.63203 15.5057 5.76274 15.4796 5.8846 15.4288C6.00645 15.3781 6.11706 15.3037 6.21002 15.2099C6.30375 15.117 6.37814 15.0064 6.42891 14.8845C6.47968 14.7627 6.50582 14.632 6.50582 14.4999C6.50582 14.3679 6.47968 14.2372 6.42891 14.1154C6.37814 13.9935 6.30375 13.8829 6.21002 13.7899L5.41002 12.9999H10C10.2652 12.9999 10.5196 12.8946 10.7071 12.707C10.8947 12.5195 11 12.2652 11 11.9999C11 11.7347 10.8947 11.4804 10.7071 11.2928C10.5196 11.1053 10.2652 10.9999 10 10.9999Z" fill="black"/>
</svg>
