<svg width="24" height="24" viewBox="0 0 24 24" fill="none" xmlns="http://www.w3.org/2000/svg">
<path d="M21.66 10.25L12.66 2.25002C12.4775 2.0897 12.2429 2.00128 12 2.00128C11.7571 2.00128 11.5225 2.0897 11.34 2.25002L2.34 10.25C2.18703 10.3853 2.07916 10.5642 2.0309 10.7627C1.98263 10.9611 1.99627 11.1696 2.07 11.36C2.14252 11.548 2.2701 11.7096 2.43605 11.8238C2.60199 11.938 2.79856 11.9994 3 12H4V21C4 21.2652 4.10535 21.5196 4.29289 21.7071C4.48043 21.8947 4.73478 22 5 22H19C19.2652 22 19.5196 21.8947 19.7071 21.7071C19.8946 21.5196 20 21.2652 20 21V12H21C21.2014 11.9994 21.398 11.938 21.5639 11.8238C21.7299 11.7096 21.8575 11.548 21.93 11.36C22.0037 11.1696 22.0174 10.9611 21.9691 10.7627C21.9208 10.5642 21.813 10.3853 21.66 10.25ZM13 20H11V17C11 16.7348 11.1054 16.4804 11.2929 16.2929C11.4804 16.1054 11.7348 16 12 16C12.2652 16 12.5196 16.1054 12.7071 16.2929C12.8946 16.4804 13 16.7348 13 17V20ZM18 20H15V17C15 16.2044 14.6839 15.4413 14.1213 14.8787C13.5587 14.3161 12.7956 14 12 14C11.2043 14 10.4413 14.3161 9.87868 14.8787C9.31607 15.4413 9 16.2044 9 17V20H6V12H18V20ZM5.63 10L12 4.34002L18.37 10H5.63Z" fill="black"/>
</svg>
