<svg width="24" height="24" viewBox="0 0 24 24" fill="none" xmlns="http://www.w3.org/2000/svg">
<path d="M7.95218 8.00049H14.9385L14.7613 10.0005H9.99124C9.72602 10.0005 9.47167 10.1058 9.28413 10.2934C9.09659 10.4809 8.99124 10.7353 8.99124 11.0005C8.99124 11.2657 9.09659 11.5201 9.28413 11.7076C9.47167 11.8951 9.72602 12.0005 9.99124 12.0005H14.5841L14.3203 14.977L11.9912 15.5054L9.66312 14.976L9.56741 13.9116C9.55574 13.7808 9.51842 13.6536 9.45757 13.5372C9.39673 13.4208 9.31357 13.3175 9.21282 13.2333C9.11207 13.149 8.99572 13.0855 8.8704 13.0462C8.74508 13.0069 8.61326 12.9927 8.48245 13.0044C8.35164 13.016 8.22441 13.0534 8.10802 13.1142C7.99164 13.1751 7.88838 13.2582 7.80413 13.359C7.71989 13.4597 7.65632 13.5761 7.61704 13.7014C7.57776 13.8267 7.56356 13.9585 7.57523 14.0893L7.73538 15.8793C7.75429 16.09 7.83941 16.2892 7.97852 16.4485C8.11764 16.6078 8.30362 16.719 8.5098 16.7661L11.7696 17.5063C11.9156 17.5388 12.0669 17.5388 12.2129 17.5063L15.4737 16.7661C15.68 16.7189 15.8661 16.6076 16.0052 16.4481C16.1443 16.2886 16.2294 16.0892 16.2481 15.8784L16.6797 11.0104L16.6817 11.0004L16.6809 10.9965L17.0274 7.08834C17.0394 6.95018 17.0226 6.81103 16.978 6.6797C16.9334 6.54838 16.8621 6.42775 16.7684 6.32547C16.6748 6.22319 16.5609 6.14148 16.434 6.08553C16.3071 6.02958 16.1699 6.00061 16.0313 6.00045H7.95218C7.68696 6.00045 7.43261 6.10581 7.24507 6.29334C7.05753 6.48088 6.95218 6.73523 6.95218 7.00045C6.95218 7.26567 7.05753 7.52002 7.24507 7.70756C7.43261 7.89509 7.68696 8.00045 7.95218 8.00045V8.00049ZM20.6543 2.32568C20.5605 2.22327 20.4465 2.14148 20.3194 2.0855C20.1923 2.02952 20.0549 2.00057 19.916 2.00049H4.06644C3.9276 2.00042 3.79028 2.02928 3.66321 2.08522C3.53614 2.14116 3.42212 2.22295 3.32841 2.32539C3.2347 2.42783 3.16335 2.54866 3.11892 2.6802C3.07449 2.81173 3.05794 2.95108 3.07034 3.08936L4.5137 19.2837C4.5317 19.4861 4.61098 19.6782 4.74097 19.8343C4.87096 19.9905 5.04548 20.1033 5.24124 20.1577L11.7139 21.9633C11.8895 22.0128 12.0754 22.0128 12.251 21.9633L18.7412 20.1508C18.937 20.0964 19.1115 19.9836 19.2415 19.8275C19.3715 19.6713 19.4508 19.4792 19.4688 19.2768L20.9121 3.08935C20.9244 2.95114 20.9078 2.8119 20.8634 2.68044C20.8191 2.54898 20.7478 2.42817 20.6543 2.32568ZM17.5381 18.4107L11.9824 19.9624L6.44437 18.4175L5.15921 4.00049H18.8233L17.5381 18.4107Z" fill="black"/>
</svg>
