<svg width="24" height="24" viewBox="0 0 24 24" fill="none" xmlns="http://www.w3.org/2000/svg">
<path d="M12 2C10.4385 2.00113 8.89888 2.36793 7.50459 3.07104C6.1103 3.77414 4.90005 4.79399 3.97076 6.04891C3.04148 7.30383 2.419 8.75894 2.15318 10.2977C1.88736 11.8364 1.98558 13.416 2.43999 14.91C2.4342 14.9431 2.4342 14.9769 2.43999 15.01C2.81676 16.2218 3.42461 17.3493 4.22999 18.33L2.22999 20.33C2.09123 20.4706 1.99724 20.6492 1.95986 20.8432C1.92249 21.0372 1.94341 21.2379 2.01999 21.42C2.10493 21.6049 2.24426 21.7595 2.41937 21.8631C2.59447 21.9668 2.79703 22.0145 2.99999 22H12C14.0871 21.9985 16.1215 21.3439 17.818 20.128C19.5144 18.9122 20.7879 17.196 21.46 15.22V15.14C21.8085 14.1294 21.9909 13.069 22 12C22 10.6868 21.7413 9.38642 21.2388 8.17317C20.7362 6.95991 19.9996 5.85752 19.0711 4.92893C18.1425 4.00035 17.0401 3.26375 15.8268 2.7612C14.6136 2.25866 13.3132 2 12 2ZM12 20H5.40999L5.70999 19.71L14.12 11.29C14.3069 11.1068 14.5582 11.0041 14.82 11.0041C15.0817 11.0041 15.3331 11.1068 15.52 11.29L19.14 14.89L19.37 15.11C18.7584 16.5594 17.7331 17.7964 16.4222 18.6661C15.1114 19.5359 13.5732 19.9999 12 20ZM4.53999 14.87L6.11999 13.29C6.30735 13.1037 6.5608 12.9992 6.82499 12.9992C7.08918 12.9992 7.34263 13.1037 7.52999 13.29L8.39999 14.16L5.67999 16.9C5.1989 16.2853 4.81448 15.6007 4.53999 14.87ZM19.95 12.87L16.95 9.87C16.3875 9.3082 15.625 8.99264 14.83 8.99264C14.035 8.99264 13.2725 9.3082 12.71 9.87L9.81999 12.76L8.93999 11.89C8.3779 11.3312 7.61755 11.0176 6.82499 11.0176C6.03243 11.0176 5.27208 11.3312 4.70999 11.89L3.99999 12.56C3.99003 12.3735 3.99003 12.1865 3.99999 12C3.99999 9.87827 4.84284 7.84344 6.34314 6.34315C7.84343 4.84285 9.87826 4 12 4C14.1217 4 16.1566 4.84285 17.6568 6.34315C19.1571 7.84344 20 9.87827 20 12C20.0149 12.2865 20.0149 12.5735 20 12.86L19.95 12.87Z" fill="black"/>
</svg>
