<svg width="24" height="24" viewBox="0 0 24 24" fill="none" xmlns="http://www.w3.org/2000/svg">
<path d="M20 4C20.1966 3.99919 20.3886 3.94045 20.5519 3.83114C20.7153 3.72183 20.8429 3.56679 20.9186 3.38539C20.9944 3.204 21.015 3.0043 20.9779 2.81125C20.9408 2.61821 20.8476 2.44038 20.71 2.3C20.617 2.20627 20.5064 2.13188 20.3846 2.08111C20.2627 2.03034 20.132 2.0042 20 2.0042C19.868 2.0042 19.7373 2.03034 19.6154 2.08111C19.4936 2.13188 19.383 2.20627 19.29 2.3C19.2001 2.39215 19.1287 2.50081 19.08 2.62C19.024 2.73868 18.9966 2.86882 19 3C19 3.26521 19.1054 3.51957 19.2929 3.70711C19.4804 3.89464 19.7348 4 20 4ZM20 13C19.7348 13 19.4804 13.1054 19.2929 13.2929C19.1054 13.4804 19 13.7348 19 14V14.39L17.52 12.91C17.2626 12.6509 16.9564 12.4452 16.6192 12.3049C16.2819 12.1646 15.9203 12.0923 15.555 12.0923C15.1897 12.0923 14.8281 12.1646 14.4908 12.3049C14.1536 12.4452 13.8474 12.6509 13.59 12.91L12.89 13.61L10.41 11.12C9.87897 10.6179 9.17585 10.3381 8.445 10.3381C7.71415 10.3381 7.01103 10.6179 6.48 11.12L5 12.6V7C5 6.73478 5.10536 6.48043 5.29289 6.29289C5.48043 6.10536 5.73478 6 6 6H16C16.2652 6 16.5196 5.89464 16.7071 5.7071C16.8946 5.51957 17 5.26521 17 5C17 4.73478 16.8946 4.48043 16.7071 4.29289C16.5196 4.10536 16.2652 4 16 4H6C5.20435 4 4.44129 4.31607 3.87868 4.87868C3.31607 5.44129 3 6.20435 3 7V19C3 19.7956 3.31607 20.5587 3.87868 21.1213C4.44129 21.6839 5.20435 22 6 22H18C18.7956 22 19.5587 21.6839 20.1213 21.1213C20.6839 20.5587 21 19.7956 21 19V14C21 13.7348 20.8946 13.4804 20.7071 13.2929C20.5196 13.1054 20.2652 13 20 13ZM6 20C5.73478 20 5.48043 19.8946 5.29289 19.7071C5.10536 19.5196 5 19.2652 5 19V15.43L7.9 12.53C8.04691 12.39 8.24206 12.3119 8.445 12.3119C8.64794 12.3119 8.84309 12.39 8.99 12.53L12.16 15.7L16.45 20H6ZM19 19C18.9917 19.1902 18.9292 19.3741 18.82 19.53L14.31 15L15.01 14.3C15.1562 14.1547 15.3539 14.0731 15.56 14.0731C15.7661 14.0731 15.9638 14.1547 16.11 14.3L19 17.22V19ZM20 5C19.7348 5 19.4804 5.10536 19.2929 5.29289C19.1054 5.48043 19 5.73478 19 6V10C19 10.2652 19.1054 10.5196 19.2929 10.7071C19.4804 10.8946 19.7348 11 20 11C20.2652 11 20.5196 10.8946 20.7071 10.7071C20.8946 10.5196 21 10.2652 21 10V6C21 5.73478 20.8946 5.48043 20.7071 5.29289C20.5196 5.10536 20.2652 5 20 5Z" fill="black"/>
</svg>
