<svg width="24" height="24" viewBox="0 0 24 24" fill="none" xmlns="http://www.w3.org/2000/svg">
<path d="M13 11H1.99999C1.73477 11 1.48042 11.1054 1.29288 11.2929C1.10535 11.4805 0.999989 11.7348 0.999989 12V21C0.999989 21.2652 1.10535 21.5196 1.29288 21.7071C1.48042 21.8947 1.73477 22 1.99999 22H12.86C12.91 22 12.95 22 13 22C13.2652 22 13.5196 21.8947 13.7071 21.7071C13.8946 21.5196 14 21.2652 14 21V12C14 11.7348 13.8946 11.4805 13.7071 11.2929C13.5196 11.1054 13.2652 11 13 11ZM7.43999 20L9.36999 18.07C9.39735 18.0288 9.4345 17.9949 9.47812 17.9715C9.52175 17.9481 9.57048 17.9359 9.61999 17.9359C9.66949 17.9359 9.71823 17.9481 9.76185 17.9715C9.80547 17.9949 9.84262 18.0288 9.86999 18.07L11.79 20H7.43999ZM12 17.38L11.28 16.67C10.8316 16.2415 10.2352 16.0024 9.61499 16.0024C8.99476 16.0024 8.3984 16.2415 7.94999 16.67L4.60999 20H2.99999V13H12V17.38ZM1.99999 4.11003C2.17353 4.11 2.34408 4.06481 2.49487 3.97889C2.64565 3.89298 2.77148 3.76931 2.85999 3.62003C2.98715 3.43859 3.05366 3.22157 3.04999 3.00003C3.05016 2.86439 3.02273 2.73014 2.96938 2.60544C2.91603 2.48073 2.83787 2.36818 2.73964 2.27464C2.64142 2.1811 2.5252 2.10851 2.39804 2.06131C2.27089 2.0141 2.13546 1.99325 1.99999 2.00003C1.73477 2.00003 1.48042 2.10539 1.29288 2.29292C1.10535 2.48046 0.999989 2.73481 0.999989 3.00003V3.10003C0.998667 3.23219 1.02356 3.3633 1.07322 3.48579C1.12288 3.60827 1.19633 3.71969 1.28932 3.81361C1.38231 3.90753 1.493 3.98209 1.61498 4.03296C1.73696 4.08384 1.86782 4.11004 1.99999 4.11003ZM9.90999 4.00003H10.1C10.3652 4.00003 10.6196 3.89467 10.8071 3.70714C10.9946 3.5196 11.1 3.26525 11.1 3.00003C11.1 2.73481 10.9946 2.48046 10.8071 2.29292C10.6196 2.10539 10.3652 2.00003 10.1 2.00003H9.90999C9.64477 2.00003 9.39042 2.10539 9.20288 2.29292C9.01535 2.48046 8.90999 2.73481 8.90999 3.00003C8.90999 3.26525 9.01535 3.5196 9.20288 3.70714C9.39042 3.89467 9.64477 4.00003 9.90999 4.00003ZM1.99999 8.78003C2.26521 8.78003 2.51956 8.67467 2.7071 8.48714C2.89463 8.2996 2.99999 8.04525 2.99999 7.78003V7.56003C2.99999 7.29481 2.89463 7.04046 2.7071 6.85292C2.51956 6.66539 2.26521 6.56003 1.99999 6.56003C1.73477 6.56003 1.48042 6.66539 1.29288 6.85292C1.10535 7.04046 0.999989 7.29481 0.999989 7.56003V7.78003C0.999989 8.04525 1.10535 8.2996 1.29288 8.48714C1.48042 8.67467 1.73477 8.78003 1.99999 8.78003ZM14.09 2.00003H13.9C13.6348 2.00003 13.3804 2.10539 13.1929 2.29292C13.0053 2.48046 12.9 2.73481 12.9 3.00003C12.9 3.26525 13.0053 3.5196 13.1929 3.70714C13.3804 3.89467 13.6348 4.00003 13.9 4.00003H14.09C14.3552 4.00003 14.6096 3.89467 14.7971 3.70714C14.9846 3.5196 15.09 3.26525 15.09 3.00003C15.09 2.73481 14.9846 2.48046 14.7971 2.29292C14.6096 2.10539 14.3552 2.00003 14.09 2.00003ZM5.90999 4.00003H6.09999C6.36521 4.00003 6.61956 3.89467 6.8071 3.70714C6.99463 3.5196 7.09999 3.26525 7.09999 3.00003C7.09999 2.73481 6.99463 2.48046 6.8071 2.29292C6.61956 2.10539 6.36521 2.00003 6.09999 2.00003H5.90999C5.64477 2.00003 5.39042 2.10539 5.20288 2.29292C5.01535 2.48046 4.90999 2.73481 4.90999 3.00003C4.90999 3.26525 5.01535 3.5196 5.20288 3.70714C5.39042 3.89467 5.64477 4.00003 5.90999 4.00003ZM22 6.40003C21.7348 6.40003 21.4804 6.50539 21.2929 6.69292C21.1053 6.88046 21 7.13481 21 7.40003V7.61003C21 7.87525 21.1053 8.1296 21.2929 8.31714C21.4804 8.50467 21.7348 8.61003 22 8.61003C22.2652 8.61003 22.5196 8.50467 22.7071 8.31714C22.8946 8.1296 23 7.87525 23 7.61003V7.40003C23 7.13481 22.8946 6.88046 22.7071 6.69292C22.5196 6.50539 22.2652 6.40003 22 6.40003ZM17.12 20H16.88C16.6148 20 16.3604 20.1054 16.1729 20.2929C15.9853 20.4805 15.88 20.7348 15.88 21C15.88 21.2652 15.9853 21.5196 16.1729 21.7071C16.3604 21.8947 16.6148 22 16.88 22H17.12C17.3852 22 17.6396 21.8947 17.8271 21.7071C18.0146 21.5196 18.12 21.2652 18.12 21C18.12 20.7348 18.0146 20.4805 17.8271 20.2929C17.6396 20.1054 17.3852 20 17.12 20ZM21.9 2.00003C21.6525 2.0249 21.4231 2.14114 21.2567 2.32605C21.0903 2.51096 20.9987 2.75126 21 3.00003C21.0023 3.14564 21.0365 3.28898 21.1 3.42003C21.1921 3.61758 21.3462 3.77963 21.5389 3.88152C21.7316 3.98341 21.9523 4.01955 22.1674 3.98445C22.3825 3.94936 22.5802 3.84494 22.7305 3.68709C22.8808 3.52924 22.9755 3.32661 23 3.11003V3.00003C22.9772 2.72508 22.8511 2.46899 22.6469 2.28341C22.4428 2.09783 22.1759 1.99656 21.9 2.00003ZM22 10.9C21.7348 10.9 21.4804 11.0054 21.2929 11.1929C21.1053 11.3805 21 11.6348 21 11.9V12.12C21 12.3852 21.1053 12.6396 21.2929 12.8271C21.4804 13.0147 21.7348 13.12 22 13.12C22.2652 13.12 22.5196 13.0147 22.7071 12.8271C22.8946 12.6396 23 12.3852 23 12.12V11.9C23 11.6348 22.8946 11.3805 22.7071 11.1929C22.5196 11.0054 22.2652 10.9 22 10.9ZM18.09 2.00003H17.9C17.6348 2.00003 17.3804 2.10539 17.1929 2.29292C17.0053 2.48046 16.9 2.73481 16.9 3.00003C16.9 3.26525 17.0053 3.5196 17.1929 3.70714C17.3804 3.89467 17.6348 4.00003 17.9 4.00003H18.09C18.3552 4.00003 18.6096 3.89467 18.7971 3.70714C18.9846 3.5196 19.09 3.26525 19.09 3.00003C19.09 2.73481 18.9846 2.48046 18.7971 2.29292C18.6096 2.10539 18.3552 2.00003 18.09 2.00003ZM22 20C21.8465 19.9998 21.6953 20.0376 21.56 20.11C21.3932 20.1917 21.2525 20.3183 21.1536 20.4755C21.0547 20.6327 21.0015 20.8143 21 21C21 21.2652 21.1053 21.5196 21.2929 21.7071C21.4804 21.8947 21.7348 22 22 22C22.2749 21.9773 22.531 21.8511 22.7166 21.647C22.9022 21.4428 23.0035 21.1759 23 20.9C22.9751 20.6525 22.8589 20.4231 22.674 20.2567C22.4891 20.0903 22.2488 19.9988 22 20ZM22 15.44C21.7348 15.44 21.4804 15.5454 21.2929 15.7329C21.1053 15.9205 21 16.1748 21 16.44V16.66C21 16.9252 21.1053 17.1796 21.2929 17.3671C21.4804 17.5547 21.7348 17.66 22 17.66C22.2652 17.66 22.5196 17.5547 22.7071 17.3671C22.8946 17.1796 23 16.9252 23 16.66V16.4C23 16.1348 22.8946 15.8805 22.7071 15.6929C22.5196 15.5054 22.2652 15.4 22 15.4V15.44Z" fill="black"/>
</svg>
