<svg width="24" height="24" viewBox="0 0 24 24" fill="none" xmlns="http://www.w3.org/2000/svg">
<path d="M2.99999 8.10003C3.26521 8.10003 3.51957 7.99467 3.7071 7.80714C3.89464 7.6196 3.99999 7.36524 3.99999 7.10003V6.91003C3.99999 6.64481 3.89464 6.39046 3.7071 6.20292C3.51957 6.01539 3.26521 5.91003 2.99999 5.91003C2.73478 5.91003 2.48042 6.01539 2.29289 6.20292C2.10535 6.39046 1.99999 6.64481 1.99999 6.91003V7.10003C1.99999 7.36524 2.10535 7.6196 2.29289 7.80714C2.48042 7.99467 2.73478 8.10003 2.99999 8.10003ZM2.99999 4.10003C3.14561 4.09767 3.28895 4.06355 3.41999 4.00003C3.68521 3.95759 3.92271 3.81154 4.08024 3.594C4.23777 3.37646 4.30243 3.10524 4.25999 2.84003C4.21756 2.57481 4.07151 2.33731 3.85396 2.17978C3.63642 2.02225 3.36521 1.95759 3.09999 2.00003H2.99999C2.72505 2.02279 2.46896 2.14896 2.28337 2.3531C2.09779 2.55724 1.99652 2.82416 1.99999 3.10003C2.01283 3.35648 2.12383 3.59817 2.30999 3.77503C2.49616 3.95188 2.74322 4.05035 2.99999 4.05003V4.10003ZM20.39 3.91003C20.5458 4.03241 20.7345 4.10575 20.9321 4.12072C21.1296 4.1357 21.3272 4.09165 21.4997 3.99415C21.6722 3.89665 21.8119 3.75011 21.9009 3.57311C21.99 3.39612 22.0245 3.19665 22 3.00003C22 2.73481 21.8946 2.48046 21.7071 2.29292C21.5196 2.10538 21.2652 2.00003 21 2.00003H20.9C20.6809 2.00009 20.4679 2.0721 20.2937 2.205C20.1195 2.33789 19.9938 2.52431 19.9359 2.73559C19.878 2.94688 19.891 3.17135 19.973 3.3745C20.0551 3.57765 20.2016 3.74823 20.39 3.86003V3.91003ZM11.89 4.00003H12.11C12.3752 4.00003 12.6296 3.89467 12.8171 3.70713C13.0046 3.5196 13.11 3.26524 13.11 3.00003C13.11 2.73481 13.0046 2.48046 12.8171 2.29292C12.6296 2.10538 12.3752 2.00003 12.11 2.00003H11.89C11.6248 2.00003 11.3704 2.10538 11.1829 2.29292C10.9954 2.48046 10.89 2.73481 10.89 3.00003C10.89 3.26524 10.9954 3.5196 11.1829 3.70713C11.3704 3.89467 11.6248 4.00003 11.89 4.00003ZM7.38999 4.00003H7.59999C7.86521 4.00003 8.11957 3.89467 8.3071 3.70713C8.49464 3.5196 8.6 3.26524 8.6 3.00003C8.6 2.73481 8.49464 2.48046 8.3071 2.29292C8.11957 2.10538 7.86521 2.00003 7.59999 2.00003H7.38999C7.12478 2.00003 6.87042 2.10538 6.68289 2.29292C6.49535 2.48046 6.38999 2.73481 6.38999 3.00003C6.38999 3.26524 6.49535 3.5196 6.68289 3.70713C6.87042 3.89467 7.12478 4.00003 7.38999 4.00003ZM21 20C20.8544 20.0024 20.711 20.0365 20.58 20.1C20.3822 20.1928 20.2202 20.3477 20.1187 20.5412C20.0173 20.7347 19.982 20.9561 20.0183 21.1716C20.0546 21.387 20.1604 21.5847 20.3197 21.7343C20.4789 21.8839 20.6827 21.9772 20.9 22H21C21.2749 21.9773 21.531 21.8511 21.7166 21.647C21.9022 21.4428 22.0035 21.1759 22 20.9C21.9751 20.6525 21.8589 20.4231 21.674 20.2567C21.4891 20.0903 21.2488 19.9988 21 20ZM14 11C14 10.7348 13.8946 10.4805 13.7071 10.2929C13.5196 10.1054 13.2652 10 13 10H3.26999C3.18035 9.98873 3.08964 9.98873 2.99999 10C2.73478 10 2.48042 10.1054 2.29289 10.2929C2.10535 10.4805 1.99999 10.7348 1.99999 11V21C1.99999 21.2652 2.10535 21.5196 2.29289 21.7071C2.48042 21.8947 2.73478 22 2.99999 22H13.1C13.2673 21.9988 13.4315 21.9556 13.5778 21.8744C13.724 21.7932 13.8476 21.6767 13.9371 21.5354C14.0267 21.3941 14.0793 21.2326 14.0903 21.0657C14.1013 20.8988 14.0703 20.7318 14 20.58V11ZM12 20H5.51999L9.43 16.1C9.4607 16.0689 9.49728 16.0442 9.53762 16.0273C9.57797 16.0104 9.62126 16.0017 9.66499 16.0017C9.70873 16.0017 9.75202 16.0104 9.79236 16.0273C9.83271 16.0442 9.86929 16.0689 9.89999 16.1L12 18.19V20ZM12 15.37L11.32 14.68C10.8798 14.2434 10.285 13.9984 9.66499 13.9984C9.04501 13.9984 8.45015 14.2434 8.00999 14.68L4.00999 18.68V12H12.01L12 15.37ZM21 15.37C20.7348 15.37 20.4804 15.4754 20.2929 15.6629C20.1054 15.8505 20 16.1048 20 16.37V16.58C20 16.8452 20.1054 17.0996 20.2929 17.2871C20.4804 17.4747 20.7348 17.58 21 17.58C21.2652 17.58 21.5196 17.4747 21.7071 17.2871C21.8946 17.0996 22 16.8452 22 16.58V16.4C22 16.1348 21.8946 15.8805 21.7071 15.6929C21.5196 15.5054 21.2652 15.4 21 15.4V15.37ZM21 6.37003C20.7348 6.37003 20.4804 6.47539 20.2929 6.66292C20.1054 6.85046 20 7.10481 20 7.37003V7.60003C20 7.86524 20.1054 8.1196 20.2929 8.30714C20.4804 8.49467 20.7348 8.60003 21 8.60003C21.2652 8.60003 21.5196 8.49467 21.7071 8.30714C21.8946 8.1196 22 7.86524 22 7.60003V7.39003C22 7.12481 21.8946 6.87046 21.7071 6.68292C21.5196 6.49539 21.2652 6.39003 21 6.39003V6.37003ZM21 10.87C20.7348 10.87 20.4804 10.9754 20.2929 11.1629C20.1054 11.3505 20 11.6048 20 11.87V12.09C20 12.3552 20.1054 12.6096 20.2929 12.7971C20.4804 12.9847 20.7348 13.09 21 13.09C21.2652 13.09 21.5196 12.9847 21.7071 12.7971C21.8946 12.6096 22 12.3552 22 12.09V11.87C21.9948 11.6083 21.8871 11.359 21.7001 11.1758C21.5132 10.9926 21.2618 10.89 21 10.89V10.87ZM17.1 20H16.9C16.6348 20 16.3804 20.1054 16.1929 20.2929C16.0054 20.4805 15.9 20.7348 15.9 21C15.9 21.2652 16.0054 21.5196 16.1929 21.7071C16.3804 21.8947 16.6348 22 16.9 22H17.1C17.3652 22 17.6196 21.8947 17.8071 21.7071C17.9946 21.5196 18.1 21.2652 18.1 21C18.1 20.7348 17.9946 20.4805 17.8071 20.2929C17.6196 20.1054 17.3652 20 17.1 20ZM16.61 4.00003C16.8752 4.00003 17.1296 3.89467 17.3171 3.70713C17.5046 3.5196 17.61 3.26524 17.61 3.00003C17.61 2.73481 17.5046 2.48046 17.3171 2.29292C17.1296 2.10538 16.8752 2.00003 16.61 2.00003H16.4C16.1348 2.00003 15.8804 2.10538 15.6929 2.29292C15.5054 2.48046 15.4 2.73481 15.4 3.00003C15.4 3.26524 15.5054 3.5196 15.6929 3.70713C15.8804 3.89467 16.1348 4.00003 16.4 4.00003H16.61Z" fill="black"/>
</svg>
