<svg width="24" height="24" viewBox="0 0 24 24" fill="none" xmlns="http://www.w3.org/2000/svg">
<path d="M21.5 1.5C21.2348 1.5 20.9804 1.60536 20.7929 1.79289C20.6054 1.98043 20.5 2.23478 20.5 2.5C19.7442 1.93202 18.8429 1.58995 17.9006 1.51347C16.9583 1.43699 16.0136 1.62924 15.1761 2.06791C14.3386 2.50659 13.6427 3.17371 13.169 3.99189C12.6953 4.81007 12.4633 5.74578 12.4999 6.69049C12.5364 7.63519 12.8401 8.55017 13.3756 9.32929C13.9111 10.1084 14.6566 10.7197 15.5254 11.0923C16.3943 11.465 17.351 11.5836 18.2846 11.4345C19.2182 11.2854 20.0904 10.8747 20.8 10.25C21.0002 10.075 21.1227 9.82754 21.1406 9.56217C21.1584 9.29681 21.07 9.03524 20.895 8.835C20.72 8.63476 20.4725 8.51226 20.2072 8.49444C19.9418 8.47663 19.6802 8.56496 19.48 8.74C19.0358 9.13207 18.4855 9.38384 17.8984 9.46357C17.3114 9.5433 16.7138 9.44743 16.1812 9.18803C15.6485 8.92863 15.2046 8.51732 14.9054 8.00597C14.6062 7.49463 14.4651 6.90613 14.4999 6.3147C14.5347 5.72326 14.7438 5.15537 15.1009 4.68263C15.458 4.20989 15.9471 3.85346 16.5065 3.6583C17.0659 3.46314 17.6705 3.43798 18.2442 3.58599C18.8179 3.734 19.3349 4.04856 19.73 4.49H18.5C18.2348 4.49 17.9804 4.59536 17.7929 4.78289C17.6054 4.97043 17.5 5.22478 17.5 5.49C17.5 5.75521 17.6054 6.00957 17.7929 6.19711C17.9804 6.38464 18.2348 6.49 18.5 6.49H21.5C21.7652 6.49 22.0196 6.38464 22.2071 6.19711C22.3946 6.00957 22.5 5.75521 22.5 5.49V2.49C22.4974 2.22652 22.3908 1.97473 22.2036 1.78935C22.0163 1.60397 21.7635 1.49999 21.5 1.5ZM18.5 13.5C18.2348 13.5 17.9804 13.6054 17.7929 13.7929C17.6054 13.9804 17.5 14.2348 17.5 14.5V14.89L16 13.41C15.7426 13.1509 15.4364 12.9452 15.0992 12.8049C14.7619 12.6646 14.4003 12.5923 14.035 12.5923C13.6697 12.5923 13.3081 12.6646 12.9708 12.8049C12.6336 12.9452 12.3274 13.1509 12.07 13.41L11.37 14.11L8.91 11.62C8.38742 11.1015 7.68113 10.8106 6.945 10.8106C6.20887 10.8106 5.50258 11.1015 4.98 11.62L3.5 13.1V7.5C3.5 7.23478 3.60536 6.98043 3.79289 6.79289C3.98043 6.60536 4.23478 6.5 4.5 6.5H9.5C9.76522 6.5 10.0196 6.39464 10.2071 6.20711C10.3946 6.01957 10.5 5.76521 10.5 5.5C10.5 5.23478 10.3946 4.98043 10.2071 4.79289C10.0196 4.60536 9.76522 4.5 9.5 4.5H4.5C3.70435 4.5 2.94129 4.81607 2.37868 5.37868C1.81607 5.94129 1.5 6.70435 1.5 7.5V19.5C1.5 20.2956 1.81607 21.0587 2.37868 21.6213C2.94129 22.1839 3.70435 22.5 4.5 22.5H16.5C17.2956 22.5 18.0587 22.1839 18.6213 21.6213C19.1839 21.0587 19.5 20.2956 19.5 19.5V14.5C19.5 14.2348 19.3946 13.9804 19.2071 13.7929C19.0196 13.6054 18.7652 13.5 18.5 13.5ZM4.5 20.5C4.23478 20.5 3.98043 20.3946 3.79289 20.2071C3.60536 20.0196 3.5 19.7652 3.5 19.5V15.93L6.4 13C6.54691 12.86 6.74206 12.7819 6.945 12.7819C7.14794 12.7819 7.34309 12.86 7.49 13L10.66 16.17L15 20.5H4.5ZM17.5 19.5C17.4917 19.6902 17.4292 19.8741 17.32 20.03L12.81 15.52L13.51 14.82C13.6562 14.6747 13.8539 14.5931 14.06 14.5931C14.2661 14.5931 14.4638 14.6747 14.61 14.82L17.5 17.72V19.5Z" fill="black"/>
</svg>
