<svg width="24" height="24" viewBox="0 0 24 24" fill="none" xmlns="http://www.w3.org/2000/svg">
<path d="M10.46 6.00002L11 5.41002V9.00002C11 9.26523 11.1054 9.51959 11.2929 9.70713C11.4804 9.89466 11.7348 10 12 10C12.2652 10 12.5196 9.89466 12.7071 9.70713C12.8946 9.51959 13 9.26523 13 9.00002V5.41002L13.54 5.96002C13.6308 6.06254 13.7416 6.14533 13.8657 6.20325C13.9898 6.26117 14.1244 6.29299 14.2613 6.29675C14.3982 6.3005 14.5344 6.27609 14.6615 6.22505C14.7885 6.17401 14.9038 6.09742 15 6.00002C15.0937 5.90706 15.1681 5.79645 15.2189 5.6746C15.2697 5.55274 15.2958 5.42203 15.2958 5.29002C15.2958 5.15801 15.2697 5.0273 15.2189 4.90544C15.1681 4.78358 15.0937 4.67298 15 4.58002L12.71 2.29002C12.6149 2.19898 12.5028 2.12761 12.38 2.08002C12.1365 1.98 11.8635 1.98 11.62 2.08002C11.4972 2.12761 11.3851 2.19898 11.29 2.29002L9 4.54002C8.80639 4.73363 8.69762 4.99622 8.69762 5.27002C8.69762 5.54382 8.80639 5.80641 9 6.00002C9.19361 6.19363 9.4562 6.30239 9.73 6.30239C10.0038 6.30239 10.2664 6.19363 10.46 6.00002ZM12 12C11.4067 12 10.8266 12.176 10.3333 12.5056C9.83994 12.8353 9.45542 13.3038 9.22836 13.852C9.0013 14.4001 8.94189 15.0033 9.05764 15.5853C9.1734 16.1672 9.45912 16.7018 9.87868 17.1213C10.2982 17.5409 10.8328 17.8266 11.4147 17.9424C11.9967 18.0581 12.5999 17.9987 13.1481 17.7717C13.6962 17.5446 14.1648 17.1601 14.4944 16.6667C14.8241 16.1734 15 15.5934 15 15C15 14.2044 14.6839 13.4413 14.1213 12.8787C13.5587 12.3161 12.7956 12 12 12ZM12 16C11.8022 16 11.6089 15.9414 11.4444 15.8315C11.28 15.7216 11.1518 15.5654 11.0761 15.3827C11.0004 15.2 10.9806 14.9989 11.0192 14.8049C11.0578 14.6109 11.153 14.4328 11.2929 14.2929C11.4327 14.1531 11.6109 14.0578 11.8049 14.0192C11.9989 13.9806 12.2 14.0005 12.3827 14.0761C12.5654 14.1518 12.7216 14.28 12.8315 14.4444C12.9414 14.6089 13 14.8022 13 15C13 15.2652 12.8946 15.5196 12.7071 15.7071C12.5196 15.8947 12.2652 16 12 16ZM5 15C5 15.1978 5.05865 15.3911 5.16853 15.5556C5.27841 15.72 5.43459 15.8482 5.61732 15.9239C5.80004 15.9996 6.00111 16.0194 6.19509 15.9808C6.38907 15.9422 6.56725 15.847 6.70711 15.7071C6.84696 15.5673 6.9422 15.3891 6.98079 15.1951C7.01937 15.0011 6.99957 14.8001 6.92388 14.6173C6.84819 14.4346 6.72002 14.2784 6.55557 14.1685C6.39112 14.0587 6.19778 14 6 14C5.73478 14 5.48043 14.1054 5.29289 14.2929C5.10536 14.4804 5 14.7348 5 15ZM19 15C19 14.8022 18.9414 14.6089 18.8315 14.4444C18.7216 14.28 18.5654 14.1518 18.3827 14.0761C18.2 14.0005 17.9989 13.9806 17.8049 14.0192C17.6109 14.0578 17.4327 14.1531 17.2929 14.2929C17.153 14.4328 17.0578 14.6109 17.0192 14.8049C16.9806 14.9989 17.0004 15.2 17.0761 15.3827C17.1518 15.5654 17.28 15.7216 17.4444 15.8315C17.6089 15.9414 17.8022 16 18 16C18.2652 16 18.5196 15.8947 18.7071 15.7071C18.8946 15.5196 19 15.2652 19 15ZM20 8.00002H16C15.7348 8.00002 15.4804 8.10538 15.2929 8.29291C15.1054 8.48045 15 8.7348 15 9.00002C15 9.26523 15.1054 9.51959 15.2929 9.70713C15.4804 9.89466 15.7348 10 16 10H20C20.2652 10 20.5196 10.1054 20.7071 10.2929C20.8946 10.4804 21 10.7348 21 11V19C21 19.2652 20.8946 19.5196 20.7071 19.7071C20.5196 19.8947 20.2652 20 20 20H4C3.73478 20 3.48043 19.8947 3.29289 19.7071C3.10536 19.5196 3 19.2652 3 19V11C3 10.7348 3.10536 10.4804 3.29289 10.2929C3.48043 10.1054 3.73478 10 4 10H8C8.26522 10 8.51957 9.89466 8.70711 9.70713C8.89464 9.51959 9 9.26523 9 9.00002C9 8.7348 8.89464 8.48045 8.70711 8.29291C8.51957 8.10538 8.26522 8.00002 8 8.00002H4C3.20435 8.00002 2.44129 8.31609 1.87868 8.8787C1.31607 9.44131 1 10.2044 1 11V19C1 19.7957 1.31607 20.5587 1.87868 21.1213C2.44129 21.6839 3.20435 22 4 22H20C20.7956 22 21.5587 21.6839 22.1213 21.1213C22.6839 20.5587 23 19.7957 23 19V11C23 10.2044 22.6839 9.44131 22.1213 8.8787C21.5587 8.31609 20.7956 8.00002 20 8.00002Z" fill="black"/>
</svg>
