<svg width="24" height="24" viewBox="0 0 24 24" fill="none" xmlns="http://www.w3.org/2000/svg">
<path d="M11.29 12.29C11.149 12.4299 11.0528 12.6086 11.0137 12.8033C10.9747 12.9981 10.9945 13.2001 11.0706 13.3835C11.1468 13.5669 11.2759 13.7235 11.4414 13.8333C11.6069 13.9432 11.8014 14.0012 12 14H12.19C12.2562 13.9907 12.3205 13.9705 12.38 13.94C12.4414 13.92 12.499 13.8896 12.55 13.85L12.7 13.73C12.7937 13.6371 12.8681 13.5265 12.9189 13.4046C12.9697 13.2827 12.9958 13.152 12.9958 13.02C12.9958 12.888 12.9697 12.7573 12.9189 12.6354C12.8681 12.5136 12.7937 12.403 12.7 12.31C12.5153 12.1211 12.2633 12.0129 11.9991 12.0092C11.7349 12.0054 11.48 12.1064 11.29 12.29ZM12 15C11.7348 15 11.4804 15.1054 11.2929 15.2929C11.1054 15.4804 11 15.7348 11 16V19C11 19.2652 11.1054 19.5196 11.2929 19.7071C11.4804 19.8947 11.7348 20 12 20C12.2652 20 12.5196 19.8947 12.7071 19.7071C12.8947 19.5196 13 19.2652 13 19V16C13 15.7348 12.8947 15.4804 12.7071 15.2929C12.5196 15.1054 12.2652 15 12 15ZM18.42 8.22002C17.809 6.81602 16.7545 5.65109 15.4181 4.90374C14.0817 4.15639 12.5371 3.86785 11.021 4.08233C9.50489 4.2968 8.10094 5.00247 7.02427 6.09119C5.9476 7.17991 5.2576 8.59163 5.06001 10.11C4.1066 10.3383 3.27023 10.9089 2.70975 11.7132C2.14927 12.5176 1.9037 13.4997 2.01968 14.4732C2.13566 15.4467 2.60511 16.3437 3.33888 16.9939C4.07265 17.644 5.01964 18.0021 6.00001 18H8.00001C8.26523 18 8.51958 17.8947 8.70712 17.7071C8.89466 17.5196 9.00001 17.2652 9.00001 17C9.00001 16.7348 8.89466 16.4804 8.70712 16.2929C8.51958 16.1054 8.26523 16 8.00001 16H6.00001C5.46958 16 4.96087 15.7893 4.5858 15.4142C4.21073 15.0392 4.00001 14.5304 4.00001 14C4.00001 13.4696 4.21073 12.9609 4.5858 12.5858C4.96087 12.2107 5.46958 12 6.00001 12C6.26523 12 6.51958 11.8947 6.70712 11.7071C6.89466 11.5196 7.00001 11.2652 7.00001 11C7.00257 9.8173 7.4243 8.67377 8.19028 7.7726C8.95627 6.87143 10.0169 6.27097 11.1838 6.07789C12.3506 5.88481 13.5481 6.11162 14.5636 6.71803C15.579 7.32443 16.3466 8.27116 16.73 9.39002C16.7872 9.56186 16.8899 9.71495 17.0273 9.83295C17.1647 9.95095 17.3315 10.0294 17.51 10.06C18.2042 10.1798 18.8341 10.5399 19.2893 11.0775C19.7446 11.615 19.9962 12.2956 20 13C20 13.7957 19.6839 14.5587 19.1213 15.1213C18.5587 15.6839 17.7957 16 17 16H16C15.7348 16 15.4804 16.1054 15.2929 16.2929C15.1054 16.4804 15 16.7348 15 17C15 17.2652 15.1054 17.5196 15.2929 17.7071C15.4804 17.8947 15.7348 18 16 18H17C18.1936 17.989 19.3439 17.5513 20.243 16.7661C21.142 15.9809 21.7305 14.8999 21.902 13.7187C22.0735 12.5374 21.8168 11.3337 21.1781 10.3252C20.5395 9.31677 19.5612 8.57003 18.42 8.22002Z" fill="black"/>
</svg>
