<svg width="24" height="24" viewBox="0 0 24 24" fill="none" xmlns="http://www.w3.org/2000/svg">
<path d="M9.99121 15.0005C10.1226 15.0006 10.2526 14.9748 10.374 14.9245C10.4953 14.8743 10.6056 14.8006 10.6985 14.7078C10.7914 14.6149 10.865 14.5046 10.9152 14.3833C10.9655 14.2619 10.9913 14.1318 10.9912 14.0005V6.00049C10.9912 5.73527 10.8859 5.48092 10.6983 5.29338C10.5108 5.10584 10.2564 5.00049 9.99121 5.00049C9.72599 5.00049 9.47164 5.10584 9.2841 5.29338C9.09657 5.48092 8.99121 5.73527 8.99121 6.00049V14.0005C8.99114 14.1318 9.01695 14.2619 9.06718 14.3833C9.11741 14.5046 9.19106 14.6149 9.28394 14.7078C9.37681 14.8006 9.48708 14.8743 9.60844 14.9245C9.7298 14.9747 9.85987 15.0006 9.99121 15.0005ZM13.9912 15.0005C14.1226 15.0006 14.2526 14.9748 14.374 14.9245C14.4953 14.8743 14.6056 14.8006 14.6985 14.7078C14.7914 14.6149 14.865 14.5046 14.9152 14.3833C14.9655 14.2619 14.9913 14.1318 14.9912 14.0005V6.00049C14.9912 5.73527 14.8859 5.48092 14.6983 5.29338C14.5108 5.10584 14.2564 5.00049 13.9912 5.00049C13.726 5.00049 13.4716 5.10584 13.2841 5.29338C13.0966 5.48092 12.9912 5.73527 12.9912 6.00049V14.0005C12.9911 14.1318 13.017 14.2619 13.0672 14.3833C13.1174 14.5046 13.1911 14.6149 13.2839 14.7078C13.3768 14.8006 13.4871 14.8743 13.6084 14.9245C13.7298 14.9747 13.8599 15.0006 13.9912 15.0005ZM5.99121 13.0005C6.12255 13.0006 6.25262 12.9748 6.37398 12.9245C6.49534 12.8743 6.60561 12.8006 6.69849 12.7078C6.79136 12.6149 6.86502 12.5046 6.91525 12.3833C6.96547 12.2619 6.99129 12.1318 6.99121 12.0005V8.00049C6.99121 7.73527 6.88585 7.48092 6.69832 7.29338C6.51078 7.10584 6.25643 7.00049 5.99121 7.00049C5.72599 7.00049 5.47164 7.10584 5.2841 7.29338C5.09657 7.48092 4.99121 7.73527 4.99121 8.00049V12.0005C4.99114 12.1318 5.01695 12.2619 5.06718 12.3833C5.11741 12.5046 5.19106 12.6149 5.28394 12.7078C5.37681 12.8006 5.48708 12.8743 5.60844 12.9245C5.7298 12.9747 5.85987 13.0006 5.99121 13.0005ZM19.9912 1.00049H3.99121C3.19583 1.00136 2.43327 1.31771 1.87085 1.88013C1.30843 2.44255 0.992079 3.20511 0.991211 4.00049V20.0005C0.992079 20.7959 1.30843 21.5584 1.87085 22.1208C2.43327 22.6833 3.19583 22.9996 3.99121 23.0005H19.9912C20.7866 22.9996 21.5492 22.6833 22.1116 22.1208C22.674 21.5584 22.9903 20.7959 22.9912 20.0005V4.00049C22.9903 3.20511 22.674 2.44255 22.1116 1.88013C21.5492 1.31771 20.7866 1.00136 19.9912 1.00049ZM20.9912 20.0005C20.991 20.2656 20.8856 20.5199 20.6981 20.7074C20.5106 20.8949 20.2564 21.0003 19.9912 21.0005H3.99121C3.72605 21.0003 3.4718 20.8949 3.2843 20.7074C3.0968 20.5199 2.99139 20.2656 2.99121 20.0005V4.00049C2.99139 3.73533 3.0968 3.48108 3.2843 3.29358C3.4718 3.10608 3.72605 3.00067 3.99121 3.00049H19.9912C20.2564 3.00067 20.5106 3.10608 20.6981 3.29358C20.8856 3.48108 20.991 3.73533 20.9912 4.00049V20.0005ZM17.3477 15.4087C15.7819 16.5058 13.902 17.0644 11.9912 17.0005C10.0819 17.0526 8.20574 16.495 6.63477 15.4087C6.53423 15.3242 6.41802 15.2603 6.29279 15.2207C6.16756 15.1811 6.03575 15.1665 5.9049 15.1779C5.77404 15.1892 5.6467 15.2262 5.53015 15.2868C5.41359 15.3473 5.3101 15.4302 5.22559 15.5308C5.14108 15.6313 5.0772 15.7475 5.03759 15.8727C4.99799 15.998 4.98344 16.1298 4.99478 16.2606C5.00611 16.3915 5.04311 16.5188 5.10366 16.6354C5.16421 16.7519 5.24712 16.8554 5.34766 16.9399C7.27434 18.3407 9.61005 19.0651 11.9912 19.0005C14.3724 19.0651 16.7081 18.3406 18.6348 16.9399C18.8378 16.7693 18.9648 16.5249 18.9877 16.2606C19.0105 15.9964 18.9275 15.7338 18.7568 15.5308C18.5862 15.3277 18.3418 15.2008 18.0775 15.1779C17.8133 15.155 17.5507 15.238 17.3477 15.4087ZM17.9912 7.00049C17.8599 7.00041 17.7298 7.02623 17.6084 7.07645C17.4871 7.12668 17.3768 7.20034 17.2839 7.29321C17.1911 7.38609 17.1174 7.49635 17.0672 7.61771C17.0169 7.73907 16.9911 7.86914 16.9912 8.00049V12.0005C16.9912 12.2657 17.0966 12.5201 17.2841 12.7076C17.4716 12.8951 17.726 13.0005 17.9912 13.0005C18.2564 13.0005 18.5108 12.8951 18.6983 12.7076C18.8859 12.5201 18.9912 12.2657 18.9912 12.0005V8.00049C18.9913 7.86914 18.9655 7.73907 18.9152 7.61771C18.865 7.49635 18.7914 7.38609 18.6985 7.29321C18.6056 7.20034 18.4953 7.12668 18.374 7.07645C18.2526 7.02623 18.1226 7.00041 17.9912 7.00049Z" fill="black"/>
</svg>
