<svg width="24" height="24" viewBox="0 0 24 24" fill="none" xmlns="http://www.w3.org/2000/svg">
<path d="M9.50001 10.4999H12C12.2652 10.4999 12.5196 10.3946 12.7071 10.2071C12.8947 10.0195 13 9.76516 13 9.49995C13 9.23473 12.8947 8.98038 12.7071 8.79284C12.5196 8.6053 12.2652 8.49995 12 8.49995H11V7.99995C11 7.73473 10.8947 7.48038 10.7071 7.29284C10.5196 7.1053 10.2652 6.99995 10 6.99995C9.73479 6.99995 9.48044 7.1053 9.2929 7.29284C9.10537 7.48038 9.00001 7.73473 9.00001 7.99995V8.54995C8.39243 8.67332 7.85237 9.01805 7.48466 9.51721C7.11696 10.0164 6.94785 10.6344 7.01015 11.2512C7.07246 11.868 7.36174 12.4397 7.82184 12.8553C8.28194 13.2708 8.88003 13.5006 9.50001 13.4999H10.5C10.6326 13.4999 10.7598 13.5526 10.8536 13.6464C10.9473 13.7402 11 13.8673 11 13.9999C11 14.1326 10.9473 14.2597 10.8536 14.3535C10.7598 14.4473 10.6326 14.4999 10.5 14.4999H8.00001C7.73479 14.4999 7.48044 14.6053 7.2929 14.7928C7.10537 14.9804 7.00001 15.2347 7.00001 15.4999C7.00001 15.7652 7.10537 16.0195 7.2929 16.2071C7.48044 16.3946 7.73479 16.4999 8.00001 16.4999H9.00001V16.9999C9.00001 17.2652 9.10537 17.5195 9.2929 17.7071C9.48044 17.8946 9.73479 17.9999 10 17.9999C10.2652 17.9999 10.5196 17.8946 10.7071 17.7071C10.8947 17.5195 11 17.2652 11 16.9999V16.4499C11.6076 16.3266 12.1476 15.9818 12.5154 15.4827C12.8831 14.9835 13.0522 14.3655 12.9899 13.7487C12.9276 13.1319 12.6383 12.5602 12.1782 12.1446C11.7181 11.7291 11.12 11.4993 10.5 11.4999H9.50001C9.3674 11.4999 9.24022 11.4473 9.14645 11.3535C9.05269 11.2597 9.00001 11.1326 9.00001 10.9999C9.00001 10.8673 9.05269 10.7402 9.14645 10.6464C9.24022 10.5526 9.3674 10.4999 9.50001 10.4999ZM21 11.9999H18V2.99995C18.0007 2.82374 17.9548 2.65047 17.867 2.49769C17.7792 2.34491 17.6526 2.21805 17.5 2.12995C17.348 2.04218 17.1755 1.99597 17 1.99597C16.8245 1.99597 16.652 2.04218 16.5 2.12995L13.5 3.84995L10.5 2.12995C10.348 2.04218 10.1755 1.99597 10 1.99597C9.82447 1.99597 9.65203 2.04218 9.50001 2.12995L6.50001 3.84995L3.50001 2.12995C3.34799 2.04218 3.17554 1.99597 3.00001 1.99597C2.82447 1.99597 2.65203 2.04218 2.50001 2.12995C2.3474 2.21805 2.22079 2.34491 2.13299 2.49769C2.04518 2.65047 1.99931 2.82374 2.00001 2.99995V18.9999C2.00001 19.7956 2.31608 20.5587 2.87869 21.1213C3.4413 21.6839 4.20436 21.9999 5.00001 21.9999H19C19.7957 21.9999 20.5587 21.6839 21.1213 21.1213C21.6839 20.5587 22 19.7956 22 18.9999V12.9999C22 12.7347 21.8947 12.4804 21.7071 12.2928C21.5196 12.1053 21.2652 11.9999 21 11.9999ZM5.00001 19.9999C4.73479 19.9999 4.48044 19.8946 4.2929 19.7071C4.10536 19.5195 4.00001 19.2652 4.00001 18.9999V4.72995L6.00001 5.86995C6.15435 5.95056 6.32589 5.99266 6.50001 5.99266C6.67413 5.99266 6.84567 5.95056 7.00001 5.86995L10 4.14995L13 5.86995C13.1543 5.95056 13.3259 5.99266 13.5 5.99266C13.6741 5.99266 13.8457 5.95056 14 5.86995L16 4.72995V18.9999C16.0027 19.3411 16.0636 19.6793 16.18 19.9999H5.00001ZM20 18.9999C20 19.2652 19.8947 19.5195 19.7071 19.7071C19.5196 19.8946 19.2652 19.9999 19 19.9999C18.7348 19.9999 18.4804 19.8946 18.2929 19.7071C18.1054 19.5195 18 19.2652 18 18.9999V13.9999H20V18.9999Z" fill="black"/>
</svg>
