<svg width="24" height="24" viewBox="0 0 24 24" fill="none" xmlns="http://www.w3.org/2000/svg">
<path d="M21.12 16.23C20.7754 14.9676 19.9497 13.8905 18.82 13.23L16.71 12L16.23 6.53003C16.2168 6.37026 16.1654 6.216 16.0801 6.08025C15.9949 5.9445 15.8782 5.83124 15.74 5.75003L12.74 4.03003C12.588 3.94226 12.4155 3.89605 12.24 3.89605C12.0644 3.89605 11.892 3.94226 11.74 4.03003C11.588 4.11303 11.4602 4.23408 11.369 4.38133C11.2779 4.52858 11.2265 4.69697 11.22 4.87003L11.07 8.77003L9.31998 7.77003L6.45999 3.92003C6.34369 3.76572 6.18517 3.64841 6.00362 3.58229C5.82206 3.51617 5.62524 3.50406 5.43694 3.54743C5.24865 3.5908 5.07695 3.68779 4.94262 3.82668C4.80828 3.96556 4.71706 4.14039 4.67999 4.33003L3.80999 8.94003C3.65847 9.56497 3.71178 10.2221 3.96205 10.8144C4.21231 11.4068 4.64629 11.903 5.19999 12.23L19.26 20.34C19.486 20.473 19.7552 20.5118 20.0095 20.4482C20.2639 20.3846 20.4831 20.2237 20.62 20C20.9498 19.4365 21.164 18.8127 21.2498 18.1654C21.3357 17.5181 21.2915 16.8601 21.12 16.23ZM19.24 18L6.19999 10.5C6.01299 10.3859 5.86865 10.2135 5.78916 10.0093C5.70967 9.80518 5.69942 9.58057 5.75999 9.37003L6.21999 6.93003L7.87999 9.13003C7.96059 9.23948 8.06267 9.33135 8.17999 9.40003L11.53 11.34C11.6794 11.4264 11.8486 11.4727 12.0212 11.4743C12.1937 11.476 12.3638 11.4329 12.5148 11.3493C12.6658 11.2658 12.7926 11.1446 12.8829 10.9975C12.9731 10.8504 13.0238 10.6825 13.03 10.51L13.19 6.61003L14.28 7.24003L14.76 12.71C14.7742 12.8707 14.8271 13.0256 14.9142 13.1614C15.0013 13.2972 15.1199 13.41 15.26 13.49L17.82 15C18.153 15.1922 18.4447 15.4484 18.6781 15.7539C18.9116 16.0594 19.0821 16.4082 19.18 16.78C19.2915 17.177 19.312 17.594 19.24 18Z" fill="black"/>
</svg>
