<svg width="24" height="24" viewBox="0 0 24 24" fill="none" xmlns="http://www.w3.org/2000/svg">
<path d="M11.2899 11.9999L14.8299 8.45995C15.0162 8.27259 15.1207 8.01913 15.1207 7.75495C15.1207 7.49076 15.0162 7.23731 14.8299 7.04995C14.737 6.95622 14.6264 6.88183 14.5045 6.83106C14.3827 6.78029 14.252 6.75415 14.1199 6.75415C13.9879 6.75415 13.8572 6.78029 13.7354 6.83106C13.6135 6.88183 13.5029 6.95622 13.4099 7.04995L9.16994 11.2899C9.07622 11.3829 9.00182 11.4935 8.95105 11.6154C8.90028 11.7372 8.87415 11.8679 8.87415 11.9999C8.87415 12.132 8.90028 12.2627 8.95105 12.3845C9.00182 12.5064 9.07622 12.617 9.16994 12.7099L13.4099 16.9999C13.5034 17.0926 13.6142 17.166 13.736 17.2157C13.8579 17.2655 13.9883 17.2907 14.1199 17.2899C14.2516 17.2907 14.382 17.2655 14.5038 17.2157C14.6257 17.166 14.7365 17.0926 14.8299 16.9999C15.0162 16.8126 15.1207 16.5591 15.1207 16.2949C15.1207 16.0308 15.0162 15.7773 14.8299 15.5899L11.2899 11.9999Z" fill="black"/>
</svg>
