<svg width="24" height="24" viewBox="0 0 24 24" fill="none" xmlns="http://www.w3.org/2000/svg">
<path d="M17.45 12.46C18.6175 11.0225 19.1678 9.18087 18.9804 7.33845C18.793 5.49604 17.8831 3.80297 16.45 2.63001C15.629 1.97199 14.6717 1.50497 13.6478 1.26282C12.6238 1.02067 11.5588 1.00946 10.53 1.23001C9.37486 1.4855 8.30331 2.0296 7.41545 2.81149C6.52759 3.59337 5.85238 4.58753 5.45289 5.70111C5.0534 6.81468 4.94267 8.01134 5.13103 9.17932C5.31939 10.3473 5.8007 11.4485 6.53 12.38C7.19468 13.1887 7.57427 14.1939 7.61 15.24V15.53C7.2295 15.8976 7.01016 16.401 7 16.93V18.93C7 19.4604 7.21072 19.9691 7.58579 20.3442C7.96086 20.7193 8.46957 20.93 9 20.93V21.93C9 22.1952 9.10536 22.4496 9.2929 22.6371C9.48043 22.8246 9.73479 22.93 10 22.93C10.2652 22.93 10.5196 22.8246 10.7071 22.6371C10.8946 22.4496 11 22.1952 11 21.93V20.93H13V21.93C13 22.1952 13.1054 22.4496 13.2929 22.6371C13.4804 22.8246 13.7348 22.93 14 22.93C14.2652 22.93 14.5196 22.8246 14.7071 22.6371C14.8946 22.4496 15 22.1952 15 21.93V20.93C15.5304 20.93 16.0391 20.7193 16.4142 20.3442C16.7893 19.9691 17 19.4604 17 18.93V16.93C17.0005 16.4067 16.7958 15.9041 16.43 15.53V15.1C16.4592 14.1295 16.8191 13.198 17.45 12.46ZM9 18.93V16.93H15V18.93H9ZM15.89 11.21C15.0048 12.2541 14.4913 13.5625 14.43 14.93H9.56001C9.46568 13.5446 8.9413 12.2231 8.06001 11.15C7.53062 10.4856 7.17922 9.69734 7.03899 8.8595C6.89875 8.02167 6.97429 7.16191 7.25849 6.36137C7.54268 5.56082 8.02615 4.84588 8.66329 4.28401C9.30042 3.72214 10.0702 3.33186 10.9 3.15001C11.6352 2.98417 12.3984 2.98668 13.1325 3.15736C13.8666 3.32803 14.5526 3.66245 15.1392 4.1356C15.7258 4.60875 16.1979 5.2084 16.5201 5.88971C16.8424 6.57102 17.0064 7.31636 17 8.07C17.0063 9.21388 16.6138 10.3242 15.89 11.21Z" fill="black"/>
</svg>
