<svg width="24" height="24" viewBox="0 0 24 24" fill="none" xmlns="http://www.w3.org/2000/svg">
<path d="M18.42 7.72002C17.809 6.31602 16.7545 5.15109 15.4181 4.40374C14.0817 3.65639 12.5371 3.36785 11.021 3.58233C9.50489 3.7968 8.10094 4.50247 7.02427 5.59119C5.9476 6.67991 5.2576 8.09163 5.06001 9.61002C4.22223 9.81407 3.47281 10.2834 2.92346 10.948C2.37411 11.6126 2.05423 12.437 2.01151 13.2982C1.96878 14.1594 2.2055 15.0114 2.68638 15.7271C3.16725 16.4429 3.86654 16.984 4.68001 17.27C4.78372 17.302 4.8915 17.3188 5.00001 17.32C5.26523 17.3625 5.53644 17.2978 5.75398 17.1403C5.97152 16.9827 6.11758 16.7452 6.16001 16.48C6.20245 16.2148 6.13778 15.9436 5.98025 15.726C5.82272 15.5085 5.58523 15.3625 5.32001 15.32C4.94292 15.1839 4.61544 14.9376 4.38007 14.6131C4.14469 14.2885 4.01228 13.9007 4.00001 13.5C4.00001 12.9696 4.21072 12.4609 4.5858 12.0858C4.96087 11.7107 5.46958 11.5 6.00001 11.5C6.26523 11.5 6.51958 11.3947 6.70712 11.2071C6.89465 11.0196 7.00001 10.7652 7.00001 10.5C7.00257 9.31729 7.4243 8.17377 8.19028 7.2726C8.95626 6.37143 10.0169 5.77097 11.1838 5.57789C12.3506 5.38481 13.5481 5.61162 14.5636 6.21803C15.579 6.82443 16.3466 7.77116 16.73 8.89002C16.7872 9.06186 16.8899 9.21495 17.0273 9.33295C17.1647 9.45095 17.3315 9.52943 17.51 9.56002C18.1113 9.66886 18.6651 9.95875 19.0972 10.3909C19.5293 10.8231 19.8191 11.3769 19.9278 11.9782C20.0366 12.5796 19.9591 13.1998 19.7057 13.7559C19.4523 14.312 19.0352 14.7775 18.51 15.09C18.2793 15.2226 18.1107 15.4415 18.0413 15.6984C17.9719 15.9553 18.0074 16.2293 18.14 16.46C18.2726 16.6908 18.4915 16.8594 18.7484 16.9288C19.0053 16.9981 19.2793 16.9626 19.51 16.83C20.2682 16.3899 20.8974 15.7582 21.3344 14.9982C21.7715 14.2382 22.001 13.3767 22 12.5C21.997 11.4241 21.647 10.378 21.002 9.51682C20.3571 8.65569 19.4516 8.02556 18.42 7.72002ZM12 12.83C11.446 12.543 10.8151 12.4396 10.1985 12.5349C9.58184 12.6302 9.01152 12.9191 8.57001 13.36C8.02469 13.9089 7.71863 14.6513 7.71863 15.425C7.71863 16.1988 8.02469 16.9411 8.57001 17.49L11.29 20.21C11.383 20.3037 11.4936 20.3781 11.6154 20.4289C11.7373 20.4797 11.868 20.5058 12 20.5058C12.132 20.5058 12.2627 20.4797 12.3846 20.4289C12.5064 20.3781 12.617 20.3037 12.71 20.21L15.43 17.49C15.9753 16.9411 16.2814 16.1988 16.2814 15.425C16.2814 14.6513 15.9753 13.9089 15.43 13.36C14.9885 12.9191 14.4182 12.6302 13.8016 12.5349C13.1849 12.4396 12.554 12.543 12 12.83ZM14 16.07L12 18.07L10 16.07C9.9127 15.9861 9.84366 15.885 9.7972 15.7732C9.75074 15.6613 9.72786 15.5411 9.73001 15.42C9.72846 15.299 9.7516 15.179 9.79803 15.0672C9.84445 14.9554 9.91318 14.8543 10 14.77C10.1725 14.5978 10.4063 14.5011 10.65 14.5011C10.8937 14.5011 11.1275 14.5978 11.3 14.77C11.393 14.8637 11.5036 14.9381 11.6254 14.9889C11.7473 15.0397 11.878 15.0658 12.01 15.0658C12.142 15.0658 12.2727 15.0397 12.3946 14.9889C12.5164 14.9381 12.627 14.8637 12.72 14.77C12.895 14.6025 13.1278 14.5091 13.37 14.5091C13.6122 14.5091 13.8451 14.6025 14.02 14.77C14.1068 14.8543 14.1756 14.9554 14.222 15.0672C14.2684 15.179 14.2916 15.299 14.29 15.42C14.2896 15.5426 14.2636 15.6637 14.2137 15.7756C14.1637 15.8876 14.091 15.9878 14 16.07Z" fill="black"/>
</svg>
