<svg width="24" height="24" viewBox="0 0 24 24" fill="none" xmlns="http://www.w3.org/2000/svg">
<path d="M19.68 6.88C18.661 6.34445 17.4727 6.22957 16.37 6.56C16.3163 5.43847 15.833 4.38064 15.0203 3.60591C14.2076 2.83117 13.1278 2.39899 12.005 2.39899C10.8822 2.39899 9.80246 2.83117 8.98975 3.60591C8.17704 4.38064 7.69371 5.43847 7.64001 6.56C6.5403 6.22881 5.35539 6.33263 4.33001 6.85C3.57491 7.24689 2.95248 7.8561 2.53947 8.60251C2.12647 9.34892 1.94096 10.1999 2.00581 11.0505C2.07067 11.9011 2.38306 12.7141 2.90446 13.3892C3.42586 14.0644 4.13346 14.5722 4.94001 14.85C4.4252 15.5825 4.14611 16.4547 4.14001 17.35C4.14446 17.6014 4.16786 17.8521 4.21001 18.1C4.37842 19.1155 4.90232 20.0382 5.68816 20.7031C6.474 21.368 7.4706 21.732 8.50001 21.73C8.7131 21.7446 8.92693 21.7446 9.14001 21.73C10.283 21.5499 11.3099 20.9288 12 20C12.6973 20.9138 13.7232 21.52 14.86 21.69C15.0731 21.7046 15.2869 21.7046 15.5 21.69C16.2982 21.6891 17.0807 21.4691 17.7625 21.054C18.4442 20.6389 18.9989 20.0447 19.3661 19.336C19.7333 18.6273 19.899 17.8315 19.845 17.0352C19.791 16.2388 19.5195 15.4726 19.06 14.82C19.8705 14.547 20.5828 14.0417 21.1083 13.3669C21.6337 12.6921 21.9491 11.8777 22.0152 11.025C22.0813 10.1723 21.8951 9.31904 21.4799 8.57136C21.0647 7.82368 20.4388 7.21462 19.68 6.82V6.88ZM10.34 4.94C10.7868 4.51216 11.3814 4.27332 12 4.27332C12.6186 4.27332 13.2133 4.51216 13.66 4.94C14.0011 5.28159 14.2327 5.71702 14.3253 6.19077C14.4179 6.66452 14.3673 7.15512 14.18 7.6L13.92 8.19L13.26 8.77C12.8542 8.63072 12.429 8.55647 12 8.55C11.4456 8.55053 10.8973 8.66631 10.39 8.89L9.83001 7.6C9.63594 7.15708 9.58079 6.66571 9.67185 6.19079C9.7629 5.71586 9.99588 5.27973 10.34 4.94ZM4.24001 11.78C4.01677 11.2888 3.96784 10.7361 4.1013 10.2132C4.23477 9.69043 4.54264 9.22881 4.97402 8.90469C5.40541 8.58056 5.93448 8.41335 6.47378 8.43068C7.01308 8.44801 7.53033 8.64885 7.94001 9L8.43001 9.43L8.78001 10.23C8.27906 10.9003 8.00573 11.7132 8.00001 12.55C7.98815 12.6998 7.98815 12.8502 8.00001 13H7.45001L6.61001 13.08C6.12956 13.1307 5.64509 13.0334 5.2215 12.801C4.79792 12.5687 4.45546 12.2124 4.24001 11.78ZM10.84 17.86C10.7196 18.3938 10.419 18.8699 9.98863 19.208C9.55831 19.546 9.02462 19.7255 8.47746 19.7161C7.9303 19.7067 7.40309 19.509 6.98463 19.1564C6.56616 18.8037 6.282 18.3177 6.18001 17.78C6.17043 17.6402 6.17043 17.4998 6.18001 17.36C6.18364 16.9535 6.29353 16.5551 6.49878 16.2043C6.70402 15.8534 6.99748 15.5623 7.35001 15.36L7.86001 15L8.77001 14.9C9.34357 15.6979 10.1908 16.2568 11.15 16.47L10.84 17.86ZM12 14.55C11.6045 14.55 11.2178 14.4327 10.8889 14.2129C10.56 13.9932 10.3036 13.6808 10.1523 13.3154C10.0009 12.9499 9.96127 12.5478 10.0384 12.1598C10.1156 11.7719 10.3061 11.4155 10.5858 11.1358C10.8655 10.8561 11.2219 10.6656 11.6098 10.5884C11.9978 10.5113 12.3999 10.5509 12.7654 10.7022C13.1308 10.8536 13.4432 11.11 13.663 11.4389C13.8827 11.7678 14 12.1544 14 12.55C14 13.0804 13.7893 13.5891 13.4142 13.9642C13.0392 14.3393 12.5304 14.55 12 14.55ZM17.82 17.77C17.7168 18.3802 17.3782 18.9254 16.8769 19.2883C16.3756 19.6511 15.7519 19.8026 15.14 19.71C14.6579 19.6421 14.208 19.4285 13.8506 19.0979C13.4932 18.7673 13.2453 18.3354 13.14 17.86L13 17.26L13.21 16.34C14.1325 16.0396 14.9144 15.4141 15.41 14.58L15.91 14.88H16L16.66 15.27C17.0888 15.5149 17.4309 15.8871 17.6387 16.335C17.8465 16.7829 17.9099 17.2844 17.82 17.77ZM19.76 11.77C19.5633 12.1675 19.2599 12.5024 18.8838 12.7373C18.5076 12.9722 18.0735 13.0978 17.63 13.1H17.39L16.75 13L16 12.59C15.9986 11.6177 15.6431 10.6792 15 9.95L15.43 9.58L16.06 9C16.4709 8.63474 16.9959 8.42367 17.5453 8.40293C18.0946 8.38219 18.6341 8.55307 19.0713 8.8863C19.5085 9.21954 19.8163 9.69441 19.942 10.2296C20.0676 10.7648 20.0033 11.327 19.76 11.82V11.77Z" fill="black"/>
</svg>
