<svg width="24" height="24" viewBox="0 0 24 24" fill="none" xmlns="http://www.w3.org/2000/svg">
<path d="M21.71 3.29C21.617 3.19627 21.5064 3.12188 21.3846 3.07111C21.2627 3.02034 21.132 2.9942 21 2.9942C20.868 2.9942 20.7373 3.02034 20.6154 3.07111C20.4936 3.12188 20.383 3.19627 20.29 3.29L2.29 21.29C2.19627 21.383 2.12188 21.4936 2.07111 21.6154C2.02034 21.7373 1.9942 21.868 1.9942 22C1.9942 22.132 2.02034 22.2627 2.07111 22.3846C2.12188 22.5064 2.19627 22.617 2.29 22.71C2.38296 22.8037 2.49356 22.8781 2.61542 22.9289C2.73728 22.9797 2.86799 23.0058 3 23.0058C3.13201 23.0058 3.26272 22.9797 3.38458 22.9289C3.50644 22.8781 3.61704 22.8037 3.71 22.71L21.71 4.71C21.8037 4.61704 21.8781 4.50644 21.9289 4.38458C21.9797 4.26272 22.0058 4.13201 22.0058 4C22.0058 3.86799 21.9797 3.73728 21.9289 3.61542C21.8781 3.49356 21.8037 3.38296 21.71 3.29Z" fill="black"/>
</svg>
