<svg width="24" height="24" viewBox="0 0 24 24" fill="none" xmlns="http://www.w3.org/2000/svg">
<path d="M12 9.99999C11.7348 9.99999 11.4804 10.1053 11.2929 10.2929C11.1054 10.4804 11 10.7348 11 11V13C11 13.2652 11.1054 13.5196 11.2929 13.7071C11.4804 13.8946 11.7348 14 12 14C12.2652 14 12.5196 13.8946 12.7071 13.7071C12.8946 13.5196 13 13.2652 13 13V11C13 10.7348 12.8946 10.4804 12.7071 10.2929C12.5196 10.1053 12.2652 9.99999 12 9.99999ZM20.46 9.67999C20.3274 8.2146 19.8167 6.80872 18.9778 5.5999C18.139 4.39107 17.0007 3.42071 15.6743 2.78374C14.348 2.14676 12.879 1.865 11.4111 1.96601C9.94316 2.06702 8.52661 2.54734 7.3 3.35999C6.2492 4.06264 5.36706 4.98929 4.71695 6.07338C4.06684 7.15747 3.6649 8.3721 3.54 9.62999C3.41749 10.8796 3.57468 12.1409 4.00017 13.3223C4.42567 14.5036 5.1088 15.5754 6 16.46L11.3 21.77C11.393 21.8637 11.5036 21.9381 11.6254 21.9889C11.7473 22.0396 11.878 22.0658 12.01 22.0658C12.142 22.0658 12.2727 22.0396 12.3946 21.9889C12.5164 21.9381 12.627 21.8637 12.72 21.77L18 16.46C18.8912 15.5754 19.5743 14.5036 19.9998 13.3223C20.4253 12.1409 20.5825 10.8796 20.46 9.62999V9.67999ZM16.6 15.05L12 19.65L7.4 15.05C6.72209 14.372 6.20281 13.5523 5.87947 12.6497C5.55614 11.7472 5.43679 10.7842 5.53 9.82999C5.62382 8.86109 5.93177 7.92515 6.43157 7.08983C6.93138 6.25452 7.61056 5.5407 8.42 4.99999C9.48095 4.29523 10.7263 3.91929 12 3.91929C13.2737 3.91929 14.5191 4.29523 15.58 4.99999C16.387 5.53861 17.0647 6.24927 17.5644 7.08093C18.064 7.91259 18.3733 8.84459 18.47 9.80999C18.5663 10.7674 18.4484 11.7343 18.125 12.6405C17.8016 13.5468 17.2807 14.3698 16.6 15.05ZM12.92 7.56999C12.9 7.50856 12.8696 7.45104 12.83 7.39999L12.71 7.24999C12.5906 7.13663 12.4451 7.0545 12.2863 7.01089C12.1276 6.96728 11.9605 6.96354 11.8 6.99999H11.62L11.44 7.08999L11.29 7.21999L11.17 7.36999C11.1304 7.42104 11.1 7.47856 11.08 7.53999C11.0496 7.59954 11.0293 7.66376 11.02 7.72999C11.0034 7.81898 10.9967 7.90953 11 7.99999C10.9965 8.1344 11.0239 8.26781 11.08 8.38999C11.1309 8.50801 11.202 8.61629 11.29 8.70999C11.3852 8.80343 11.4971 8.87807 11.62 8.92999C11.8648 9.02299 12.1352 9.02299 12.38 8.92999C12.5015 8.87563 12.6131 8.80127 12.71 8.70999C12.798 8.61629 12.8691 8.50801 12.92 8.38999C12.9725 8.26667 12.9997 8.13404 13 7.99999C13.0049 7.93675 13.0049 7.87323 13 7.80999C12.9907 7.72521 12.9634 7.6434 12.92 7.56999Z" fill="black"/>
</svg>
