<svg width="24" height="24" viewBox="0 0 24 24" fill="none" xmlns="http://www.w3.org/2000/svg">
<path d="M17 9H9V7C8.99854 6.40618 9.17334 5.8253 9.50226 5.3309C9.83118 4.8365 10.2994 4.45084 10.8477 4.22276C11.3959 3.99467 11.9996 3.93442 12.5821 4.04964C13.1646 4.16486 13.6999 4.45037 14.12 4.87C14.4959 5.25406 14.7649 5.72982 14.9 6.25C14.9328 6.37738 14.9904 6.49705 15.0695 6.60217C15.1486 6.70729 15.2476 6.79581 15.3609 6.86267C15.4742 6.92952 15.5995 6.97341 15.7298 6.99183C15.86 7.01025 15.9926 7.00283 16.12 6.97C16.2474 6.93717 16.3671 6.87957 16.4722 6.80049C16.5773 6.72141 16.6658 6.6224 16.7327 6.50911C16.7995 6.39583 16.8434 6.27048 16.8618 6.14023C16.8802 6.00998 16.8728 5.87738 16.84 5.75C16.6122 4.8848 16.1603 4.09493 15.53 3.46C14.8302 2.76236 13.9393 2.28773 12.97 2.09604C12.0006 1.90435 10.9961 2.00419 10.0835 2.38295C9.17078 2.76172 8.3908 3.40242 7.84201 4.22417C7.29321 5.04591 7.00021 6.01185 7 7V9C6.20435 9 5.44129 9.31607 4.87868 9.87868C4.31607 10.4413 4 11.2043 4 12V19C4 19.7956 4.31607 20.5587 4.87868 21.1213C5.44129 21.6839 6.20435 22 7 22H17C17.7956 22 18.5587 21.6839 19.1213 21.1213C19.6839 20.5587 20 19.7956 20 19V12C20 11.2043 19.6839 10.4413 19.1213 9.87868C18.5587 9.31607 17.7956 9 17 9ZM18 19C18 19.2652 17.8946 19.5196 17.7071 19.7071C17.5196 19.8946 17.2652 20 17 20H7C6.73478 20 6.48043 19.8946 6.29289 19.7071C6.10536 19.5196 6 19.2652 6 19V12C6 11.7348 6.10536 11.4804 6.29289 11.2929C6.48043 11.1054 6.73478 11 7 11H17C17.2652 11 17.5196 11.1054 17.7071 11.2929C17.8946 11.4804 18 11.7348 18 12V19Z" fill="black"/>
</svg>
