<svg width="24" height="24" viewBox="0 0 24 24" fill="none" xmlns="http://www.w3.org/2000/svg">
<path d="M4 3.99999H8.56C8.76964 3.99945 8.97416 4.06481 9.14463 4.18683C9.3151 4.30886 9.44291 4.48137 9.51 4.67999L10.05 6.31999C10.1171 6.51861 10.2449 6.69113 10.4154 6.81315C10.5858 6.93517 10.7904 7.00053 11 6.99999H18C18.2652 6.99999 18.5196 7.10535 18.7071 7.29289C18.8946 7.48042 19 7.73478 19 7.99999C19 8.26521 19.1054 8.51956 19.2929 8.7071C19.4804 8.89463 19.7348 8.99999 20 8.99999C20.2652 8.99999 20.5196 8.89463 20.7071 8.7071C20.8946 8.51956 21 8.26521 21 7.99999C21 7.20434 20.6839 6.44128 20.1213 5.87867C19.5587 5.31606 18.7956 4.99999 18 4.99999H11.72L11.4 3.99999C11.1926 3.41322 10.8077 2.9055 10.2989 2.54715C9.79005 2.18881 9.18236 1.99759 8.56 1.99999H4C3.20435 1.99999 2.44129 2.31606 1.87868 2.87867C1.31607 3.44128 1 4.20434 1 4.99999V18C1 18.7956 1.31607 19.5587 1.87868 20.1213C2.44129 20.6839 3.20435 21 4 21H10C10.2652 21 10.5196 20.8946 10.7071 20.7071C10.8946 20.5196 11 20.2652 11 20C11 19.7348 10.8946 19.4804 10.7071 19.2929C10.5196 19.1053 10.2652 19 10 19H4C3.73478 19 3.48043 18.8946 3.29289 18.7071C3.10536 18.5196 3 18.2652 3 18V4.99999C3 4.73478 3.10536 4.48042 3.29289 4.29289C3.48043 4.10535 3.73478 3.99999 4 3.99999ZM21 15.18V14C21 13.2043 20.6839 12.4413 20.1213 11.8787C19.5587 11.3161 18.7956 11 18 11C17.2044 11 16.4413 11.3161 15.8787 11.8787C15.3161 12.4413 15 13.2043 15 14V15.18C14.4165 15.3863 13.911 15.7681 13.5529 16.2729C13.1949 16.7778 13.0017 17.381 13 18V20C13 20.7956 13.3161 21.5587 13.8787 22.1213C14.4413 22.6839 15.2044 23 16 23H20C20.7956 23 21.5587 22.6839 22.1213 22.1213C22.6839 21.5587 23 20.7956 23 20V18C22.9983 17.381 22.8051 16.7778 22.4471 16.2729C22.089 15.7681 21.5835 15.3863 21 15.18ZM17 14C17 13.7348 17.1054 13.4804 17.2929 13.2929C17.4804 13.1053 17.7348 13 18 13C18.2652 13 18.5196 13.1053 18.7071 13.2929C18.8946 13.4804 19 13.7348 19 14V15H17V14ZM21 20C21 20.2652 20.8946 20.5196 20.7071 20.7071C20.5196 20.8946 20.2652 21 20 21H16C15.7348 21 15.4804 20.8946 15.2929 20.7071C15.1054 20.5196 15 20.2652 15 20V18C15 17.7348 15.1054 17.4804 15.2929 17.2929C15.4804 17.1053 15.7348 17 16 17H20C20.2652 17 20.5196 17.1053 20.7071 17.2929C20.8946 17.4804 21 17.7348 21 18V20Z" fill="black"/>
</svg>
