<svg width="24" height="24" viewBox="0 0 24 24" fill="none" xmlns="http://www.w3.org/2000/svg">
<path d="M18.92 16.13C18.8059 16.0639 18.6798 16.021 18.549 16.0038C18.4182 15.9866 18.2853 15.9955 18.158 16.0299C18.0307 16.0643 17.9114 16.1235 17.807 16.2042C17.7027 16.2849 17.6153 16.3854 17.55 16.5C16.9367 17.5623 16.0549 18.4449 14.9931 19.0591C13.9313 19.6734 12.7267 19.9979 11.5 20H5.91L6.55 19.37C6.73625 19.1826 6.84079 18.9292 6.84079 18.665C6.84079 18.4008 6.73625 18.1474 6.55 17.96C5.61943 17.0347 4.96771 15.8664 4.66921 14.5885C4.37071 13.3106 4.43744 11.9745 4.86181 10.7327C5.28617 9.49086 6.05107 8.39335 7.06922 7.56537C8.08736 6.7374 9.31776 6.2123 10.62 6.05C10.7513 6.03424 10.8783 5.99277 10.9936 5.92796C11.1088 5.86314 11.2102 5.77626 11.292 5.67225C11.3737 5.56825 11.4341 5.44917 11.4698 5.32182C11.5055 5.19446 11.5158 5.06132 11.5 4.93C11.4842 4.79868 11.4428 4.67175 11.378 4.55645C11.3131 4.44116 11.2263 4.33976 11.1223 4.25804C11.0183 4.17632 10.8992 4.11589 10.7718 4.0802C10.6445 4.0445 10.5113 4.03424 10.38 4.05C8.78918 4.24683 7.27979 4.86495 6.00786 5.84049C4.73593 6.81602 3.74763 8.11355 3.1451 9.59895C2.54258 11.0844 2.34771 12.7037 2.58063 14.2897C2.81356 15.8756 3.46582 17.3706 4.47 18.62L2.79 20.29C2.65124 20.4306 2.55725 20.6092 2.51987 20.8032C2.4825 20.9972 2.50342 21.1979 2.58 21.38C2.65502 21.5626 2.78242 21.7189 2.94614 21.8293C3.10986 21.9396 3.30258 21.999 3.5 22H11.5C13.0791 21.9993 14.6302 21.583 15.9976 20.7932C17.365 20.0033 18.5004 18.8676 19.29 17.5C19.3561 17.3859 19.399 17.2598 19.4162 17.129C19.4334 16.9982 19.4245 16.8653 19.3901 16.738C19.3557 16.6107 19.2965 16.4914 19.2158 16.387C19.1351 16.2827 19.0346 16.1953 18.92 16.13ZM19.5 6.18V5C19.5 4.20435 19.1839 3.44129 18.6213 2.87868C18.0587 2.31607 17.2957 2 16.5 2C15.7044 2 14.9413 2.31607 14.3787 2.87868C13.8161 3.44129 13.5 4.20435 13.5 5V6.18C12.9165 6.38631 12.411 6.76807 12.0529 7.27293C11.6949 7.7778 11.5017 8.38106 11.5 9V11C11.5 11.7956 11.8161 12.5587 12.3787 13.1213C12.9413 13.6839 13.7044 14 14.5 14H18.5C19.2956 14 20.0587 13.6839 20.6213 13.1213C21.1839 12.5587 21.5 11.7956 21.5 11V9C21.4983 8.38106 21.3051 7.7778 20.9471 7.27293C20.589 6.76807 20.0835 6.38631 19.5 6.18ZM15.5 5C15.5 4.73478 15.6054 4.48043 15.7929 4.29289C15.9804 4.10536 16.2348 4 16.5 4C16.7652 4 17.0196 4.10536 17.2071 4.29289C17.3946 4.48043 17.5 4.73478 17.5 5V6H15.5V5ZM19.5 11C19.5 11.2652 19.3946 11.5196 19.2071 11.7071C19.0196 11.8946 18.7652 12 18.5 12H14.5C14.2348 12 13.9804 11.8946 13.7929 11.7071C13.6054 11.5196 13.5 11.2652 13.5 11V9C13.5 8.73478 13.6054 8.48043 13.7929 8.29289C13.9804 8.10536 14.2348 8 14.5 8H18.5C18.7652 8 19.0196 8.10536 19.2071 8.29289C19.3946 8.48043 19.5 8.73478 19.5 9V11Z" fill="black"/>
</svg>
