<svg width="24" height="24" viewBox="0 0 24 24" fill="none" xmlns="http://www.w3.org/2000/svg">
<path d="M18.42 6.72002C17.809 5.31602 16.7545 4.15109 15.4181 3.40374C14.0817 2.65639 12.5371 2.36785 11.021 2.58233C9.50489 2.7968 8.10094 3.50247 7.02427 4.59119C5.9476 5.67991 5.2576 7.09163 5.06001 8.61002C4.22223 8.81407 3.47281 9.28339 2.92346 9.94801C2.37411 10.6126 2.05423 11.437 2.01151 12.2982C1.96878 13.1594 2.2055 14.0114 2.68638 14.7271C3.16725 15.4429 3.86654 15.984 4.68001 16.27C4.78372 16.302 4.8915 16.3188 5.00001 16.32C5.26523 16.3625 5.53644 16.2978 5.75398 16.1403C5.97152 15.9827 6.11758 15.7452 6.16001 15.48C6.20245 15.2148 6.13778 14.9436 5.98025 14.726C5.82272 14.5085 5.58523 14.3625 5.32001 14.32C4.94292 14.1839 4.61544 13.9376 4.38007 13.6131C4.14469 13.2885 4.01228 12.9007 4.00001 12.5C4.00001 11.9696 4.21072 11.4609 4.5858 11.0858C4.96087 10.7107 5.46958 10.5 6.00001 10.5C6.26523 10.5 6.51958 10.3947 6.70712 10.2071C6.89465 10.0196 7.00001 9.76523 7.00001 9.50002C7.00257 8.31729 7.4243 7.17377 8.19028 6.2726C8.95626 5.37143 10.0169 4.77097 11.1838 4.57789C12.3506 4.38481 13.5481 4.61162 14.5636 5.21803C15.579 5.82443 16.3466 6.77116 16.73 7.89002C16.7872 8.06186 16.8899 8.21495 17.0273 8.33295C17.1647 8.45095 17.3315 8.52943 17.51 8.56002C18.1113 8.66886 18.6651 8.95875 19.0972 9.3909C19.5293 9.82305 19.8191 10.3769 19.9278 10.9782C20.0366 11.5796 19.9591 12.1998 19.7057 12.7559C19.4523 13.312 19.0352 13.7775 18.51 14.09C18.2793 14.2226 18.1107 14.4415 18.0413 14.6984C17.9719 14.9553 18.0074 15.2293 18.14 15.46C18.2726 15.6908 18.4915 15.8594 18.7484 15.9288C19.0053 15.9981 19.2793 15.9626 19.51 15.83C20.2682 15.3899 20.8974 14.7582 21.3344 13.9982C21.7715 13.2382 22.001 12.3767 22 11.5C21.997 10.4241 21.647 9.37795 21.002 8.51682C20.3571 7.65569 19.4516 7.02556 18.42 6.72002ZM15 15.72V14.5C15 13.7044 14.6839 12.9413 14.1213 12.3787C13.5587 11.8161 12.7957 11.5 12 11.5C11.2044 11.5 10.4413 11.8161 9.87869 12.3787C9.31608 12.9413 9.00001 13.7044 9.00001 14.5V15.68C8.33864 15.92 7.78265 16.3848 7.42924 16.9931C7.07583 17.6015 6.94747 18.3147 7.06661 19.0081C7.18575 19.7015 7.54481 20.331 8.08102 20.7865C8.61723 21.242 9.29647 21.4946 10 21.5H14C14.7036 21.4946 15.3828 21.242 15.919 20.7865C16.4552 20.331 16.8143 19.7015 16.9334 19.0081C17.0526 18.3147 16.9242 17.6015 16.5708 16.9931C16.2174 16.3848 15.6614 15.92 15 15.68V15.72ZM11 14.5C11 14.2348 11.1054 13.9804 11.2929 13.7929C11.4804 13.6054 11.7348 13.5 12 13.5C12.2652 13.5 12.5196 13.6054 12.7071 13.7929C12.8947 13.9804 13 14.2348 13 14.5V15.5H11V14.5ZM14 19.5H10C9.73479 19.5 9.48044 19.3947 9.2929 19.2071C9.10537 19.0196 9.00001 18.7652 9.00001 18.5C9.00001 18.2348 9.10537 17.9804 9.2929 17.7929C9.48044 17.6054 9.73479 17.5 10 17.5H14C14.2652 17.5 14.5196 17.6054 14.7071 17.7929C14.8947 17.9804 15 18.2348 15 18.5C15 18.7652 14.8947 19.0196 14.7071 19.2071C14.5196 19.3947 14.2652 19.5 14 19.5Z" fill="black"/>
</svg>
