<svg width="24" height="24" viewBox="0 0 24 24" fill="none" xmlns="http://www.w3.org/2000/svg">
<path d="M12 8.35C11.4286 8.05705 10.7798 7.95062 10.1448 8.04569C9.50974 8.14077 8.92051 8.43256 8.45999 8.88C7.89819 9.4425 7.58263 10.205 7.58263 11C7.58263 11.795 7.89819 12.5575 8.45999 13.12L11.29 16C11.383 16.0937 11.4936 16.1681 11.6154 16.2189C11.7373 16.2697 11.868 16.2958 12 16.2958C12.132 16.2958 12.2627 16.2697 12.3846 16.2189C12.5064 16.1681 12.617 16.0937 12.71 16L15.54 13.17C16.1018 12.6075 16.4173 11.845 16.4173 11.05C16.4173 10.255 16.1018 9.4925 15.54 8.93C15.0852 8.47439 14.4988 8.17326 13.8635 8.06918C13.2283 7.9651 12.5764 8.06333 12 8.35ZM14.12 11.71L12 13.83L9.87999 11.71C9.78626 11.617 9.71187 11.5064 9.6611 11.3846C9.61033 11.2627 9.58419 11.132 9.58419 11C9.58419 10.868 9.61033 10.7373 9.6611 10.6154C9.71187 10.4936 9.78626 10.383 9.87999 10.29C10.0674 10.1037 10.3208 9.99921 10.585 9.99921C10.8492 9.99921 11.1026 10.1037 11.29 10.29C11.383 10.3837 11.4936 10.4581 11.6154 10.5089C11.7373 10.5597 11.868 10.5858 12 10.5858C12.132 10.5858 12.2627 10.5597 12.3846 10.5089C12.5064 10.4581 12.617 10.3837 12.71 10.29C12.8974 10.1037 13.1508 9.99921 13.415 9.99921C13.6792 9.99921 13.9326 10.1037 14.12 10.29C14.2137 10.383 14.2881 10.4936 14.3389 10.6154C14.3896 10.7373 14.4158 10.868 14.4158 11C14.4158 11.132 14.3896 11.2627 14.3389 11.3846C14.2881 11.5064 14.2137 11.617 14.12 11.71ZM12 2C10.6868 2 9.38641 2.25866 8.17315 2.7612C6.9599 3.26375 5.85751 4.00035 4.92892 4.92893C3.05356 6.8043 1.99999 9.34784 1.99999 12C1.99125 14.3091 2.79078 16.5485 4.25999 18.33L2.25999 20.33C2.12123 20.4706 2.02723 20.6492 1.98986 20.8432C1.95249 21.0372 1.97341 21.2379 2.04999 21.42C2.13305 21.5999 2.26769 21.7511 2.43683 21.8544C2.60598 21.9577 2.80199 22.0083 2.99999 22H12C14.6522 22 17.1957 20.9464 19.0711 19.0711C20.9464 17.1957 22 14.6522 22 12C22 9.34784 20.9464 6.8043 19.0711 4.92893C17.1957 3.05357 14.6522 2 12 2ZM12 20H5.40999L6.33999 19.07C6.52624 18.8826 6.63078 18.6292 6.63078 18.365C6.63078 18.1008 6.52624 17.8474 6.33999 17.66C5.03057 16.352 4.21516 14.6305 4.03268 12.7888C3.8502 10.947 4.31193 9.09901 5.33922 7.55952C6.3665 6.02004 7.89578 4.88436 9.6665 4.34597C11.4372 3.80759 13.3398 3.8998 15.0502 4.60691C16.7606 5.31402 18.1728 6.59227 19.0464 8.22389C19.92 9.85551 20.2009 11.7395 19.8411 13.555C19.4814 15.3705 18.5033 17.005 17.0735 18.1802C15.6438 19.3554 13.8508 19.9985 12 20Z" fill="black"/>
</svg>
