<svg width="24" height="24" viewBox="0 0 24 24" fill="none" xmlns="http://www.w3.org/2000/svg">
<path d="M21.71 11.29L19.36 9V5.64C19.36 5.37478 19.2546 5.12043 19.0671 4.93289C18.8796 4.74536 18.6252 4.64 18.36 4.64H15.05L12.71 2.29C12.617 2.19627 12.5064 2.12188 12.3846 2.07111C12.2627 2.02034 12.132 1.9942 12 1.9942C11.868 1.9942 11.7373 2.02034 11.6154 2.07111C11.4936 2.12188 11.383 2.19627 11.29 2.29L9 4.64H5.64C5.37478 4.64 5.12043 4.74536 4.93289 4.93289C4.74536 5.12043 4.64 5.37478 4.64 5.64V9L2.29 11.29C2.19627 11.383 2.12188 11.4936 2.07111 11.6154C2.02034 11.7373 1.9942 11.868 1.9942 12C1.9942 12.132 2.02034 12.2627 2.07111 12.3846C2.12188 12.5064 2.19627 12.617 2.29 12.71L4.64 15.05V18.36C4.64 18.6252 4.74536 18.8796 4.93289 19.0671C5.12043 19.2546 5.37478 19.36 5.64 19.36H9L11.34 21.71C11.433 21.8037 11.5436 21.8781 11.6654 21.9289C11.7873 21.9797 11.918 22.0058 12.05 22.0058C12.182 22.0058 12.3127 21.9797 12.4346 21.9289C12.5564 21.8781 12.667 21.8037 12.76 21.71L15.1 19.36H18.41C18.6752 19.36 18.9296 19.2546 19.1171 19.0671C19.3046 18.8796 19.41 18.6252 19.41 18.36V15.05L21.76 12.71C21.8505 12.6138 21.9211 12.5006 21.9676 12.3769C22.0141 12.2533 22.0357 12.1216 22.0311 11.9896C22.0264 11.8575 21.9956 11.7277 21.9405 11.6077C21.8854 11.4876 21.8071 11.3796 21.71 11.29ZM17.66 13.93C17.5655 14.0226 17.4903 14.1331 17.4388 14.2549C17.3873 14.3768 17.3605 14.5077 17.36 14.64V17.36H14.64C14.5077 17.3605 14.3768 17.3873 14.2549 17.4388C14.1331 17.4903 14.0226 17.5655 13.93 17.66L12 19.59L10.07 17.66C9.97739 17.5655 9.86694 17.4903 9.74507 17.4388C9.62319 17.3873 9.49231 17.3605 9.36 17.36H6.64V14.64C6.63945 14.5077 6.61265 14.3768 6.56115 14.2549C6.50966 14.1331 6.43449 14.0226 6.34 13.93L4.41 12L6.34 10.07C6.43449 9.97739 6.50966 9.86694 6.56115 9.74507C6.61265 9.62319 6.63945 9.49231 6.64 9.36V6.64H9.36C9.49231 6.63945 9.62319 6.61265 9.74507 6.56115C9.86694 6.50966 9.97739 6.43449 10.07 6.34L12 4.41L13.93 6.34C14.0226 6.43449 14.1331 6.50966 14.2549 6.56115C14.3768 6.61265 14.5077 6.63945 14.64 6.64H17.36V9.36C17.3605 9.49231 17.3873 9.62319 17.4388 9.74507C17.4903 9.86694 17.5655 9.97739 17.66 10.07L19.59 12L17.66 13.93Z" fill="black"/>
</svg>
