<svg width="24" height="24" viewBox="0 0 24 24" fill="none" xmlns="http://www.w3.org/2000/svg">
<path d="M16.9999 5.99994C16.7347 5.99994 16.4804 6.1053 16.2928 6.29283C16.1053 6.48037 15.9999 6.73472 15.9999 6.99994V14.5899L7.70994 6.28994C7.52164 6.10164 7.26624 5.99585 6.99994 5.99585C6.73364 5.99585 6.47825 6.10164 6.28994 6.28994C6.10164 6.47825 5.99585 6.73364 5.99585 6.99994C5.99585 7.26624 6.10164 7.52164 6.28994 7.70994L14.5899 15.9999H6.99994C6.73472 15.9999 6.48037 16.1053 6.29283 16.2928C6.1053 16.4804 5.99994 16.7347 5.99994 16.9999C5.99994 17.2652 6.1053 17.5195 6.29283 17.707C6.48037 17.8946 6.73472 17.9999 6.99994 17.9999H16.9999C17.1306 17.9984 17.2597 17.9712 17.3799 17.9199C17.6243 17.8185 17.8185 17.6243 17.9199 17.3799C17.9712 17.2597 17.9984 17.1306 17.9999 16.9999V6.99994C17.9999 6.73472 17.8946 6.48037 17.707 6.29283C17.5195 6.1053 17.2652 5.99994 16.9999 5.99994Z" fill="black"/>
</svg>
