<svg width="24" height="24" viewBox="0 0 24 24" fill="none" xmlns="http://www.w3.org/2000/svg">
<path d="M17 15.9999H9.41L17.71 7.70994C17.8983 7.52164 18.0041 7.26624 18.0041 6.99994C18.0041 6.73364 17.8983 6.47825 17.71 6.28994C17.5217 6.10164 17.2663 5.99585 17 5.99585C16.7337 5.99585 16.4783 6.10164 16.29 6.28994L8 14.5899V6.99994C8 6.73472 7.89464 6.48037 7.70711 6.29283C7.51957 6.1053 7.26522 5.99994 7 5.99994C6.73478 5.99994 6.48043 6.1053 6.29289 6.29283C6.10536 6.48037 6 6.73472 6 6.99994V16.9999C6.00158 17.1306 6.02876 17.2597 6.08 17.3799C6.18147 17.6243 6.37565 17.8185 6.62 17.9199C6.74022 17.9712 6.86932 17.9984 7 17.9999H17C17.2652 17.9999 17.5196 17.8946 17.7071 17.707C17.8946 17.5195 18 17.2652 18 16.9999C18 16.7347 17.8946 16.4804 17.7071 16.2928C17.5196 16.1053 17.2652 15.9999 17 15.9999Z" fill="black"/>
</svg>
