<svg width="24" height="24" viewBox="0 0 24 24" fill="none" xmlns="http://www.w3.org/2000/svg">
<path d="M20.42 4.12C20.3185 3.87565 20.1244 3.68147 19.88 3.58C19.7598 3.52876 19.6307 3.50158 19.5 3.5H15.5C15.2348 3.5 14.9804 3.60536 14.7929 3.79289C14.6054 3.98043 14.5 4.23478 14.5 4.5C14.5 4.76522 14.6054 5.01957 14.7929 5.20711C14.9804 5.39464 15.2348 5.5 15.5 5.5H17.09L14.69 7.9C13.2729 6.83945 11.5067 6.3551 9.74685 6.54446C7.98701 6.73382 6.36424 7.58282 5.20521 8.92057C4.04619 10.2583 3.43697 11.9855 3.5002 13.7543C3.56343 15.5232 4.29441 17.2025 5.54598 18.454C6.79756 19.7056 8.47681 20.4366 10.2457 20.4998C12.0145 20.563 13.7417 19.9538 15.0794 18.7948C16.4172 17.6358 17.2662 16.013 17.4556 14.2532C17.6449 12.4933 17.1606 10.7271 16.1 9.31L18.5 6.91V8.5C18.5 8.76522 18.6054 9.01957 18.7929 9.20711C18.9804 9.39464 19.2348 9.5 19.5 9.5C19.7652 9.5 20.0196 9.39464 20.2071 9.20711C20.3947 9.01957 20.5 8.76522 20.5 8.5V4.5C20.4984 4.36932 20.4713 4.24022 20.42 4.12ZM14 17C13.3048 17.7093 12.4141 18.1954 11.4415 18.3965C10.4689 18.5975 9.45846 18.5044 8.53901 18.1289C7.61955 17.7534 6.83275 17.1126 6.27891 16.2882C5.72507 15.4638 5.4293 14.4932 5.4293 13.5C5.4293 12.5068 5.72507 11.5362 6.27891 10.7118C6.83275 9.88736 7.61955 9.24657 8.53901 8.87109C9.45846 8.49562 10.4689 8.40247 11.4415 8.60353C12.4141 8.80459 13.3048 9.29074 14 10C14.9161 10.9346 15.4293 12.1912 15.4293 13.5C15.4293 14.8088 14.9161 16.0654 14 17Z" fill="black"/>
</svg>
