<svg width="24" height="24" viewBox="0 0 24 24" fill="none" xmlns="http://www.w3.org/2000/svg">
<path d="M15.2647 5.27441C14.1184 5.27396 12.9913 5.56841 11.9917 6.12946C10.9678 5.55717 9.81207 5.26254 8.63915 5.27479C7.46622 5.28704 6.31688 5.60576 5.30515 6.19931C4.29343 6.79286 3.45447 7.64063 2.87152 8.6585C2.28856 9.67637 1.98187 10.829 1.98187 12.002C1.98187 13.175 2.28856 14.3276 2.87152 15.3454C3.45447 16.3633 4.29343 17.2111 5.30515 17.8046C6.31688 18.3982 7.46622 18.7169 8.63915 18.7291C9.81207 18.7414 10.9678 18.4468 11.9917 17.8745C12.8891 18.3747 13.8892 18.6627 14.9152 18.7163C15.9412 18.7699 16.9658 18.5878 17.9105 18.1839C18.8552 17.7799 19.6947 17.165 20.3648 16.3861C21.0348 15.6073 21.5175 14.6853 21.7758 13.6909C22.0341 12.6965 22.0611 11.6561 21.8549 10.6496C21.6486 9.64315 21.2144 8.69731 20.5858 7.8847C19.9571 7.07209 19.1507 6.4143 18.2283 5.96183C17.3059 5.50935 16.2921 5.27422 15.2647 5.27446V5.27441ZM10.2371 16.457C9.74964 16.6314 9.23651 16.7235 8.71877 16.7295C7.46495 16.7295 6.26248 16.2314 5.37589 15.3449C4.48931 14.4583 3.99123 13.2558 3.99123 12.002C3.99123 10.7482 4.48931 9.54569 5.37589 8.65911C6.26248 7.77252 7.46495 7.27444 8.71877 7.27444C9.23651 7.28043 9.74964 7.37253 10.2371 7.54697C9.14231 8.77264 8.53714 10.3585 8.53714 12.002C8.53714 13.6454 9.14231 15.2313 10.2371 16.457V16.457ZM11.9917 15.3996C11.532 14.9611 11.1661 14.4339 10.9161 13.8499C10.666 13.2659 10.5371 12.6372 10.5371 12.002C10.5371 11.3667 10.666 10.738 10.9161 10.154C11.1661 9.56999 11.532 9.04279 11.9917 8.60431C12.4514 9.04279 12.8173 9.56999 13.0674 10.154C13.3174 10.738 13.4463 11.3667 13.4463 12.002C13.4463 12.6372 13.3174 13.2659 13.0674 13.8499C12.8173 14.4339 12.4514 14.9611 11.9917 15.3996ZM15.2647 16.7295C14.7469 16.7235 14.2338 16.6314 13.7463 16.457C14.8411 15.2313 15.4463 13.6454 15.4463 12.002C15.4463 10.3585 14.8411 8.77264 13.7463 7.54697C14.2338 7.37253 14.7469 7.28043 15.2647 7.27444C16.5185 7.27444 17.721 7.77252 18.6075 8.65911C19.4941 9.54569 19.9922 10.7482 19.9922 12.002C19.9922 13.2558 19.4941 14.4583 18.6075 15.3449C17.721 16.2314 16.5185 16.7295 15.2647 16.7295V16.7295Z" fill="black"/>
</svg>
