<svg width="24" height="24" viewBox="0 0 24 24" fill="none" xmlns="http://www.w3.org/2000/svg">
<path d="M12 2C10.6868 2 9.38642 2.25866 8.17317 2.7612C6.95991 3.26375 5.85752 4.00035 4.92894 4.92893C3.05357 6.8043 2 9.34784 2 12C1.99126 14.3091 2.7908 16.5485 4.26 18.33L2.26 20.33C2.12125 20.4706 2.02725 20.6492 1.98988 20.8432C1.9525 21.0372 1.97342 21.2379 2.05 21.42C2.13306 21.5999 2.26771 21.7511 2.43685 21.8544C2.60599 21.9577 2.802 22.0083 3 22H12C14.6522 22 17.1957 20.9464 19.0711 19.0711C20.9464 17.1957 22 14.6522 22 12C22 9.34784 20.9464 6.8043 19.0711 4.92893C17.1957 3.05357 14.6522 2 12 2ZM12 20H5.41L6.34 19.07C6.52625 18.8826 6.6308 18.6292 6.6308 18.365C6.6308 18.1008 6.52625 17.8474 6.34 17.66C5.03059 16.352 4.21518 14.6305 4.03269 12.7888C3.85021 10.947 4.31195 9.09901 5.33923 7.55952C6.36652 6.02004 7.89579 4.88436 9.66652 4.34597C11.4372 3.80759 13.3399 3.8998 15.0502 4.60691C16.7606 5.31402 18.1729 6.59227 19.0464 8.22389C19.92 9.85551 20.2009 11.7395 19.8411 13.555C19.4814 15.3705 18.5033 17.005 17.0735 18.1802C15.6438 19.3554 13.8508 19.9985 12 20ZM14 11H13V10C13 9.73478 12.8946 9.48043 12.7071 9.29289C12.5196 9.10536 12.2652 9 12 9C11.7348 9 11.4804 9.10536 11.2929 9.29289C11.1054 9.48043 11 9.73478 11 10V11H10C9.73479 11 9.48043 11.1054 9.2929 11.2929C9.10536 11.4804 9 11.7348 9 12C9 12.2652 9.10536 12.5196 9.2929 12.7071C9.48043 12.8946 9.73479 13 10 13H11V14C11 14.2652 11.1054 14.5196 11.2929 14.7071C11.4804 14.8946 11.7348 15 12 15C12.2652 15 12.5196 14.8946 12.7071 14.7071C12.8946 14.5196 13 14.2652 13 14V13H14C14.2652 13 14.5196 12.8946 14.7071 12.7071C14.8946 12.5196 15 12.2652 15 12C15 11.7348 14.8946 11.4804 14.7071 11.2929C14.5196 11.1054 14.2652 11 14 11Z" fill="black"/>
</svg>
