<svg width="24" height="24" viewBox="0 0 24 24" fill="none" xmlns="http://www.w3.org/2000/svg">
<path d="M20.54 3.46C19.8403 2.762 18.9493 2.28706 17.9798 2.09515C17.0102 1.90325 16.0055 2.00301 15.0926 2.38181C14.1797 2.76062 13.3996 3.40149 12.8507 4.22346C12.3019 5.04544 12.009 6.01163 12.009 7C12.009 7.98837 12.3019 8.95457 12.8507 9.77654C13.3996 10.5985 14.1797 11.2394 15.0926 11.6182C16.0055 11.997 17.0102 12.0968 17.9798 11.9049C18.9493 11.7129 19.8403 11.238 20.54 10.54C21.0057 10.0755 21.3751 9.52379 21.6272 8.91634C21.8792 8.30889 22.009 7.65768 22.009 7C22.009 6.34233 21.8792 5.69112 21.6272 5.08367C21.3751 4.47621 21.0057 3.92446 20.54 3.46ZM14.88 4.88C15.4421 4.31723 16.2046 4.0007 17 4C17.4436 4.00413 17.8808 4.10659 18.28 4.3L14.28 8.3C14.0131 7.73809 13.9275 7.1071 14.035 6.49438C14.1425 5.88165 14.4378 5.31749 14.88 4.88ZM19.12 9.12C18.6818 9.55471 18.1202 9.84367 17.5117 9.94747C16.9032 10.0513 16.2776 9.96485 15.72 9.7L19.72 5.7C19.9869 6.26191 20.0726 6.8929 19.9651 7.50563C19.8576 8.11835 19.5623 8.68251 19.12 9.12ZM8.00003 10C7.21893 9.99688 6.44492 10.1481 5.72244 10.445C4.99996 10.7419 4.34325 11.1786 3.79003 11.73C2.94346 12.5657 2.3644 13.6342 2.12642 14.7997C1.88844 15.9652 2.00229 17.1751 2.45349 18.2758C2.90468 19.3765 3.67288 20.3182 4.66047 20.9813C5.64806 21.6444 6.81047 21.999 8.00003 22C9.54207 21.9992 11.0246 21.4048 12.14 20.34L12.26 20.26C12.2811 20.2219 12.3044 20.1852 12.33 20.15C13.143 19.3011 13.6887 18.2322 13.8995 17.0759C14.1102 15.9195 13.9767 14.7268 13.5155 13.6457C13.0543 12.5646 12.2858 11.6427 11.3052 10.9946C10.3247 10.3465 9.1754 10.0006 8.00003 10ZM5.17003 18.83C4.55112 18.2042 4.1559 17.3917 4.04561 16.5185C3.93533 15.6453 4.11614 14.76 4.56003 14L10 19.44C9.23999 19.8839 8.35477 20.0647 7.48154 19.9544C6.60831 19.8441 5.79584 19.4489 5.17003 18.83ZM11.44 18L6.00003 12.56C6.60576 12.2005 7.29568 12.0073 8.00003 12C8.70013 12.0042 9.38686 12.1921 9.99159 12.5449C10.5963 12.8977 11.0979 13.403 11.4461 14.0104C11.7943 14.6178 11.977 15.3059 11.976 16.006C11.9749 16.7061 11.7901 17.3937 11.44 18Z" fill="black"/>
</svg>
