<svg width="24" height="24" viewBox="0 0 24 24" fill="none" xmlns="http://www.w3.org/2000/svg">
<path d="M21.209 6.41663H22V4.08325H14.5198L12.0339 13.2499H11.9659L9.50269 4.08325H2V6.41657H2.76837C2.946 6.44548 3.1108 6.52723 3.2413 6.65115C3.3718 6.77507 3.46195 6.93543 3.5 7.11133V16.9417C3.4596 17.1112 3.36749 17.2641 3.23642 17.379C3.10534 17.494 2.94178 17.5653 2.76837 17.5833H2V19.9166H8V17.5833H6.5V7.24994H6.58752L10.0451 19.9166H12.7571L16.2599 7.24994H16.3334V17.5833H14.8334V19.9166H22V17.5833H21.209C21.0396 17.5612 20.8809 17.488 20.7542 17.3733C20.6275 17.2587 20.5388 17.1081 20.5 16.9417V7.11139C20.5367 6.93868 20.6236 6.78065 20.7497 6.65707C20.8759 6.53349 21.0356 6.44986 21.209 6.41663Z" fill="black"/>
</svg>
