<svg width="24" height="24" viewBox="0 0 24 24" fill="none" xmlns="http://www.w3.org/2000/svg">
<path d="M21.78 3.62C21.8961 3.47365 21.9688 3.29773 21.99 3.11215C22.0112 2.92657 21.9801 2.73876 21.9 2.57C21.819 2.39983 21.6915 2.25603 21.5322 2.15518C21.373 2.05433 21.1885 2.00053 21 2H3C2.81151 2.00053 2.62702 2.05433 2.46778 2.15518C2.30854 2.25603 2.18105 2.39983 2.1 2.57C2.01994 2.73876 1.98875 2.92657 2.00996 3.11215C2.03117 3.29773 2.10393 3.47365 2.22 3.62L11 14.6V20H5.25C4.98478 20 4.73043 20.1054 4.54289 20.2929C4.35536 20.4804 4.25 20.7348 4.25 21C4.25 21.2652 4.35536 21.5196 4.54289 21.7071C4.73043 21.8946 4.98478 22 5.25 22H18.75C19.0152 22 19.2696 21.8946 19.4571 21.7071C19.6446 21.5196 19.75 21.2652 19.75 21C19.75 20.7348 19.6446 20.4804 19.4571 20.2929C19.2696 20.1054 19.0152 20 18.75 20H13V14.6L21.78 3.62ZM5.08 4H18.92L16.52 7H7.52L5.08 4ZM12 12.65L9.08 9H14.92L12 12.65Z" fill="black"/>
</svg>
