<svg width="24" height="24" viewBox="0 0 24 24" fill="none" xmlns="http://www.w3.org/2000/svg">
<path d="M8 11H16C16.1477 10.999 16.2934 10.9653 16.4265 10.9013C16.5596 10.8373 16.6769 10.7447 16.77 10.63C16.8678 10.5175 16.9391 10.3846 16.9789 10.241C17.0187 10.0974 17.0259 9.9467 17 9.79996L16 4.79996C15.9532 4.57068 15.8276 4.36506 15.6449 4.21889C15.4621 4.07271 15.2339 3.99524 15 3.99996H9C8.76605 3.99524 8.53786 4.07271 8.35514 4.21889C8.17242 4.36506 8.04675 4.57068 8 4.79996L7 9.79996C6.97138 9.94523 6.97537 10.095 7.01168 10.2386C7.048 10.3821 7.11574 10.5158 7.21 10.63C7.30517 10.7473 7.4257 10.8416 7.56253 10.9056C7.69935 10.9697 7.84892 11.002 8 11ZM9.82 5.99996H14.18L14.78 8.99996H9.22L9.82 5.99996ZM22 13.8C21.9532 13.5707 21.8276 13.3651 21.6449 13.2189C21.4621 13.0727 21.2339 12.9952 21 13H15C14.7661 12.9952 14.5379 13.0727 14.3551 13.2189C14.1724 13.3651 14.0468 13.5707 14 13.8L13 18.8C12.9714 18.9452 12.9754 19.095 13.0117 19.2386C13.048 19.3821 13.1157 19.5158 13.21 19.63C13.3052 19.7473 13.4257 19.8416 13.5625 19.9056C13.6994 19.9697 13.8489 20.002 14 20H22C22.1477 19.999 22.2934 19.9653 22.4265 19.9013C22.5596 19.8373 22.6769 19.7447 22.77 19.63C22.8678 19.5175 22.9391 19.3846 22.9789 19.241C23.0187 19.0974 23.0259 18.9467 23 18.8L22 13.8ZM15.22 18L15.82 15H20.18L20.78 18H15.22ZM9 13H3C2.76605 12.9952 2.53786 13.0727 2.35514 13.2189C2.17242 13.3651 2.04675 13.5707 2 13.8L1 18.8C0.971376 18.9452 0.975367 19.095 1.01168 19.2386C1.048 19.3821 1.11574 19.5158 1.21 19.63C1.30517 19.7473 1.4257 19.8416 1.56253 19.9056C1.69935 19.9697 1.84892 20.002 2 20H10C10.1477 19.999 10.2934 19.9653 10.4265 19.9013C10.5596 19.8373 10.6769 19.7447 10.77 19.63C10.8678 19.5175 10.9391 19.3846 10.9789 19.241C11.0187 19.0974 11.0259 18.9467 11 18.8L10 13.8C9.95325 13.5707 9.82758 13.3651 9.64486 13.2189C9.46214 13.0727 9.23395 12.9952 9 13ZM3.22 18L3.82 15H8.18L8.78 18H3.22Z" fill="black"/>
</svg>
