<svg width="24" height="24" viewBox="0 0 24 24" fill="none" xmlns="http://www.w3.org/2000/svg">
<path d="M21.49 10.19L20.49 9.63999L11.49 4.63999H11.38C11.3187 4.61407 11.2551 4.59398 11.19 4.57999H11H10.82C10.7517 4.59399 10.6847 4.61407 10.62 4.63999H10.51L1.51 9.63999C1.3561 9.7272 1.22809 9.85368 1.13903 10.0065C1.04997 10.1594 1.00305 10.3331 1.00305 10.51C1.00305 10.6869 1.04997 10.8606 1.13903 11.0134C1.22809 11.1663 1.3561 11.2928 1.51 11.38L4 12.76V17.5C4 18.2956 4.31607 19.0587 4.87868 19.6213C5.44129 20.1839 6.20435 20.5 7 20.5H15C15.7956 20.5 16.5587 20.1839 17.1213 19.6213C17.6839 19.0587 18 18.2956 18 17.5V12.76L20 11.64V14.5C20 14.7652 20.1054 15.0196 20.2929 15.2071C20.4804 15.3946 20.7348 15.5 21 15.5C21.2652 15.5 21.5196 15.3946 21.7071 15.2071C21.8946 15.0196 22 14.7652 22 14.5V11.06C21.9997 10.8828 21.9523 10.7089 21.8627 10.556C21.7731 10.4031 21.6445 10.2768 21.49 10.19ZM16 17.5C16 17.7652 15.8946 18.0196 15.7071 18.2071C15.5196 18.3946 15.2652 18.5 15 18.5H7C6.73478 18.5 6.48043 18.3946 6.29289 18.2071C6.10536 18.0196 6 17.7652 6 17.5V13.87L10.51 16.37L10.66 16.43H10.75C10.833 16.4404 10.917 16.4404 11 16.43C11.083 16.4404 11.167 16.4404 11.25 16.43H11.34C11.3931 16.4188 11.4438 16.3985 11.49 16.37L16 13.87V17.5ZM11 14.36L4.06 10.5L11 6.63999L17.94 10.5L11 14.36Z" fill="black"/>
</svg>
