<svg width="24" height="24" viewBox="0 0 24 24" fill="none" xmlns="http://www.w3.org/2000/svg">
<path d="M21.65 2.24C21.541 2.14646 21.4131 2.07749 21.2751 2.0378C21.137 1.99811 20.992 1.98863 20.85 2.01L7.85 4.01C7.61326 4.04592 7.39727 4.16559 7.24129 4.34726C7.0853 4.52894 6.99969 4.76055 7 5V15.35C6.53277 15.1218 6.01999 15.0021 5.5 15C4.80777 15 4.13108 15.2053 3.55551 15.5899C2.97993 15.9744 2.53133 16.5211 2.26642 17.1606C2.00152 17.8001 1.9322 18.5039 2.06725 19.1828C2.2023 19.8617 2.53564 20.4854 3.02513 20.9749C3.51461 21.4644 4.13825 21.7977 4.81719 21.9327C5.49612 22.0678 6.19985 21.9985 6.83939 21.7336C7.47894 21.4687 8.02556 21.0201 8.41015 20.4445C8.79473 19.8689 9 19.1922 9 18.5V10.86L20 9.17V13.35C19.5328 13.1218 19.02 13.0021 18.5 13C17.8078 13 17.1311 13.2053 16.5555 13.5899C15.9799 13.9744 15.5313 14.5211 15.2664 15.1606C15.0015 15.8001 14.9322 16.5039 15.0673 17.1828C15.2023 17.8617 15.5356 18.4854 16.0251 18.9749C16.5146 19.4644 17.1383 19.7977 17.8172 19.9327C18.4961 20.0678 19.1999 19.9985 19.8394 19.7336C20.4789 19.4687 21.0256 19.0201 21.4101 18.4445C21.7947 17.8689 22 17.1922 22 16.5V3C22 2.85556 21.9687 2.71283 21.9083 2.58163C21.8479 2.45044 21.7598 2.33389 21.65 2.24ZM5.5 20C5.20333 20 4.91332 19.912 4.66665 19.7472C4.41997 19.5824 4.22771 19.3481 4.11418 19.074C4.00065 18.7999 3.97095 18.4983 4.02882 18.2074C4.0867 17.9164 4.22956 17.6491 4.43934 17.4393C4.64912 17.2296 4.91639 17.0867 5.20737 17.0288C5.49834 16.9709 5.79994 17.0007 6.07403 17.1142C6.34812 17.2277 6.58238 17.42 6.74721 17.6666C6.91203 17.9133 7 18.2033 7 18.5C7 18.8978 6.84197 19.2794 6.56066 19.5607C6.27936 19.842 5.89783 20 5.5 20ZM18.5 18C18.2033 18 17.9133 17.912 17.6666 17.7472C17.42 17.5824 17.2277 17.3481 17.1142 17.074C17.0007 16.7999 16.9709 16.4983 17.0288 16.2074C17.0867 15.9164 17.2296 15.6491 17.4393 15.4393C17.6491 15.2296 17.9164 15.0867 18.2074 15.0288C18.4983 14.9709 18.7999 15.0006 19.074 15.1142C19.3481 15.2277 19.5824 15.42 19.7472 15.6666C19.912 15.9133 20 16.2033 20 16.5C20 16.8978 19.842 17.2794 19.5607 17.5607C19.2794 17.842 18.8978 18 18.5 18ZM20 7.14L9 8.83V5.83L20 4.17V7.14Z" fill="black"/>
</svg>
