<svg width="24" height="24" viewBox="0 0 24 24" fill="none" xmlns="http://www.w3.org/2000/svg">
<path d="M12.43 4.09997C12.2676 4.02971 12.0895 4.0038 11.9138 4.02488C11.7381 4.04597 11.5712 4.11329 11.43 4.21997L6.65 7.99997H3C2.73478 7.99997 2.48043 8.10533 2.29289 8.29286C2.10536 8.4804 2 8.73475 2 8.99997V15C2 15.2652 2.10536 15.5195 2.29289 15.7071C2.48043 15.8946 2.73478 16 3 16H6.65L11.38 19.78C11.5559 19.9211 11.7744 19.9987 12 20C12.1494 20.0024 12.297 19.9681 12.43 19.9C12.6002 19.8189 12.744 19.6914 12.8448 19.5322C12.9457 19.373 12.9995 19.1885 13 19V4.99997C12.9995 4.81148 12.9457 4.62699 12.8448 4.46775C12.744 4.30851 12.6002 4.18102 12.43 4.09997ZM11 16.92L7.62 14.22C7.44406 14.0788 7.22556 14.0013 7 14H4V9.99997H7C7.22556 9.99866 7.44406 9.92113 7.62 9.77997L11 7.07997V16.92ZM19.91 12L21.71 10.21C21.8032 10.1167 21.8772 10.006 21.9277 9.88422C21.9781 9.7624 22.0041 9.63183 22.0041 9.49997C22.0041 9.36811 21.9781 9.23754 21.9277 9.11572C21.8772 8.9939 21.8032 8.88321 21.71 8.78997C21.6168 8.69673 21.5061 8.62277 21.3842 8.57231C21.2624 8.52185 21.1319 8.49588 21 8.49588C20.8681 8.49588 20.7376 8.52185 20.6158 8.57231C20.4939 8.62277 20.3832 8.69673 20.29 8.78997L18.5 10.59L16.71 8.78997C16.5217 8.60167 16.2663 8.49588 16 8.49588C15.7337 8.49588 15.4783 8.60167 15.29 8.78997C15.1017 8.97827 14.9959 9.23367 14.9959 9.49997C14.9959 9.76627 15.1017 10.0217 15.29 10.21L17.09 12L15.29 13.79C15.1963 13.8829 15.1219 13.9935 15.0711 14.1154C15.0203 14.2373 14.9942 14.368 14.9942 14.5C14.9942 14.632 15.0203 14.7627 15.0711 14.8845C15.1219 15.0064 15.1963 15.117 15.29 15.21C15.383 15.3037 15.4936 15.3781 15.6154 15.4289C15.7373 15.4796 15.868 15.5058 16 15.5058C16.132 15.5058 16.2627 15.4796 16.3846 15.4289C16.5064 15.3781 16.617 15.3037 16.71 15.21L18.5 13.41L20.29 15.21C20.383 15.3037 20.4936 15.3781 20.6154 15.4289C20.7373 15.4796 20.868 15.5058 21 15.5058C21.132 15.5058 21.2627 15.4796 21.3846 15.4289C21.5064 15.3781 21.617 15.3037 21.71 15.21C21.8037 15.117 21.8781 15.0064 21.9289 14.8845C21.9797 14.7627 22.0058 14.632 22.0058 14.5C22.0058 14.368 21.9797 14.2373 21.9289 14.1154C21.8781 13.9935 21.8037 13.8829 21.71 13.79L19.91 12Z" fill="black"/>
</svg>
