<svg width="24" height="24" viewBox="0 0 24 24" fill="none" xmlns="http://www.w3.org/2000/svg">
<path d="M8.70994 7.29C8.6167 7.19676 8.50601 7.1228 8.38419 7.07234C8.26237 7.02188 8.1318 6.99591 7.99994 6.99591C7.86808 6.99591 7.73751 7.02188 7.61569 7.07234C7.49387 7.1228 7.38318 7.19676 7.28994 7.29C7.1967 7.38324 7.12274 7.49393 7.07228 7.61575C7.02182 7.73757 6.99585 7.86814 6.99585 8C6.99585 8.13186 7.02182 8.26243 7.07228 8.38425C7.12274 8.50607 7.1967 8.61676 7.28994 8.71L10.5899 12L7.28994 15.29C7.19621 15.383 7.12182 15.4936 7.07105 15.6154C7.02028 15.7373 6.99414 15.868 6.99414 16C6.99414 16.132 7.02028 16.2627 7.07105 16.3846C7.12182 16.5064 7.19621 16.617 7.28994 16.71C7.3829 16.8037 7.4935 16.8781 7.61536 16.9289C7.73722 16.9797 7.86793 17.0058 7.99994 17.0058C8.13195 17.0058 8.26266 16.9797 8.38452 16.9289C8.50638 16.8781 8.61698 16.8037 8.70994 16.71L12.7099 12.71C12.8037 12.617 12.8781 12.5064 12.9288 12.3846C12.9796 12.2627 13.0057 12.132 13.0057 12C13.0057 11.868 12.9796 11.7373 12.9288 11.6154C12.8781 11.4936 12.8037 11.383 12.7099 11.29L8.70994 7.29ZM15.9999 7C15.7347 7 15.4804 7.10536 15.2928 7.29289C15.1053 7.48043 14.9999 7.73478 14.9999 8V16C14.9999 16.2652 15.1053 16.5196 15.2928 16.7071C15.4804 16.8946 15.7347 17 15.9999 17C16.2652 17 16.5195 16.8946 16.707 16.7071C16.8946 16.5196 16.9999 16.2652 16.9999 16V8C16.9999 7.73478 16.8946 7.48043 16.707 7.29289C16.5195 7.10536 16.2652 7 15.9999 7Z" fill="black"/>
</svg>
