<svg width="24" height="24" viewBox="0 0 24 24" fill="none" xmlns="http://www.w3.org/2000/svg">
<path d="M21.7 9.06997C21.5795 8.95164 21.4311 8.86574 21.2684 8.82027C21.1058 8.77481 20.9343 8.77127 20.77 8.80997C20.5535 8.85999 20.3322 8.88681 20.11 8.88997C19.3143 8.88997 18.5513 8.5739 17.9887 8.01129C17.4261 7.44868 17.11 6.68562 17.11 5.88997C17.1131 5.66775 17.14 5.44651 17.19 5.22997C17.2287 5.06561 17.2251 4.89413 17.1797 4.73151C17.1342 4.56889 17.0483 4.42043 16.93 4.29997C16.8136 4.17459 16.667 4.08116 16.5041 4.02864C16.3413 3.97611 16.1677 3.96624 16 3.99997C15.0047 4.21971 14.102 4.74253 13.4161 5.49647C12.7302 6.25041 12.2949 7.1984 12.17 8.20997C11.6254 8.06487 11.0636 7.99423 10.5 7.99997C9.05884 7.99915 7.66555 8.51707 6.57486 9.45903C5.48417 10.401 4.76895 11.7041 4.55999 13.13C3.74618 13.3582 3.04244 13.8732 2.57875 14.5798C2.11506 15.2865 1.92274 16.137 2.03732 16.9744C2.1519 17.8118 2.56563 18.5795 3.2021 19.1356C3.83858 19.6917 4.65479 19.9988 5.49999 20H14.67C15.8184 20 16.9197 19.5438 17.7318 18.7317C18.5438 17.9197 19 16.8184 19 15.67C19.0039 14.9731 18.8356 14.2861 18.51 13.67C19.3688 13.4301 20.1466 12.9624 20.7611 12.3162C21.3755 11.6701 21.8036 10.8697 22 9.99997C22.0337 9.83224 22.0238 9.65866 21.9713 9.49583C21.9188 9.333 21.8254 9.18638 21.7 9.06997ZM14.7 18H5.49999C5.10216 18 4.72063 17.8419 4.43933 17.5606C4.15802 17.2793 3.99999 16.8978 3.99999 16.5C3.99999 16.1021 4.15802 15.7206 4.43933 15.4393C4.72063 15.158 5.10216 15 5.49999 15C5.7652 15 6.01956 14.8946 6.20709 14.7071C6.39463 14.5195 6.49999 14.2652 6.49999 14C6.50245 13.2811 6.69862 12.5761 7.06784 11.9593C7.43706 11.3425 7.96569 10.8365 8.59813 10.4947C9.23057 10.1529 9.94344 9.9879 10.6617 10.017C11.38 10.046 12.0772 10.2682 12.68 10.66C13.41 11.1348 13.9621 11.8381 14.25 12.66C14.3071 12.8318 14.4099 12.9849 14.5473 13.1029C14.6846 13.2209 14.8515 13.2994 15.03 13.33C15.3366 13.3536 15.6356 13.4374 15.9099 13.5766C16.1841 13.7158 16.4283 13.9076 16.6284 14.1412C16.8285 14.3747 16.9806 14.6454 17.0761 14.9377C17.1716 15.23 17.2086 15.5383 17.185 15.845C17.1613 16.1516 17.0775 16.4506 16.9384 16.7248C16.7992 16.9991 16.6073 17.2432 16.3738 17.4433C16.1403 17.6435 15.8696 17.7956 15.5773 17.8911C15.2849 17.9866 14.9766 18.0236 14.67 18H14.7ZM17.14 11.89C17.0002 11.9013 16.8598 11.9013 16.72 11.89C16.4892 11.7663 16.2484 11.6626 16 11.58C15.588 10.6831 14.9633 9.90043 14.18 9.29997C14.18 9.17997 14.18 9.04997 14.18 8.92997C14.18 8.49665 14.2738 8.06846 14.4551 7.67487C14.6363 7.28128 14.9007 6.93163 15.23 6.64997C15.3848 7.71683 15.8803 8.70506 16.6426 9.46735C17.4049 10.2296 18.3931 10.7251 19.46 10.88C19.1669 11.2111 18.8043 11.4734 18.398 11.648C17.9918 11.8226 17.5519 11.9052 17.11 11.89H17.14Z" fill="black"/>
</svg>
