<svg width="24" height="24" viewBox="0 0 24 24" fill="none" xmlns="http://www.w3.org/2000/svg">
<path d="M10.66 6H17C17.2652 6 17.5196 6.10536 17.7071 6.2929C17.8946 6.48043 18 6.73479 18 7V13.34C18 13.6052 18.1054 13.8596 18.2929 14.0471C18.4804 14.2346 18.7348 14.34 19 14.34C19.2652 14.34 19.5196 14.2346 19.7071 14.0471C19.8946 13.8596 20 13.6052 20 13.34V7C20 6.20435 19.6839 5.44129 19.1213 4.87868C18.5587 4.31607 17.7957 4 17 4H10.66C10.3948 4 10.1404 4.10536 9.9529 4.2929C9.76536 4.48043 9.66 4.73479 9.66 5C9.66 5.26522 9.76536 5.51957 9.9529 5.70711C10.1404 5.89465 10.3948 6 10.66 6ZM21.71 20.29L3.71 2.29C3.5217 2.1017 3.2663 1.99591 3 1.99591C2.7337 1.99591 2.47831 2.1017 2.29 2.29C2.1017 2.47831 1.99591 2.7337 1.99591 3C1.99591 3.2663 2.1017 3.5217 2.29 3.71L4.29 5.71C4.0986 6.11308 3.99953 6.55379 4 7V19C4.00099 19.1974 4.06039 19.3901 4.17072 19.5539C4.28106 19.7176 4.43738 19.845 4.62 19.92C4.73868 19.976 4.86883 20.0034 5 20C5.13161 20.0008 5.26207 19.9755 5.38391 19.9258C5.50575 19.876 5.61656 19.8027 5.71 19.71L8.41 17H15.59L20.29 21.71C20.383 21.8037 20.4936 21.8781 20.6154 21.9289C20.7373 21.9797 20.868 22.0058 21 22.0058C21.132 22.0058 21.2627 21.9797 21.3846 21.9289C21.5064 21.8781 21.617 21.8037 21.71 21.71C21.8037 21.617 21.8781 21.5064 21.9289 21.3846C21.9797 21.2627 22.0058 21.132 22.0058 21C22.0058 20.868 21.9797 20.7373 21.9289 20.6154C21.8781 20.4936 21.8037 20.383 21.71 20.29ZM8 15C7.8684 14.9992 7.73793 15.0245 7.6161 15.0742C7.49426 15.124 7.38344 15.1973 7.29 15.29L6 16.59V7.41L13.59 15H8Z" fill="black"/>
</svg>
