<svg width="24" height="24" viewBox="0 0 24 24" fill="none" xmlns="http://www.w3.org/2000/svg">
<path d="M7 13C6.80222 13 6.60888 13.0587 6.44443 13.1685C6.27998 13.2784 6.15181 13.4346 6.07612 13.6173C6.00043 13.8001 5.98063 14.0011 6.01921 14.1951C6.0578 14.3891 6.15304 14.5673 6.29289 14.7071C6.43275 14.847 6.61093 14.9422 6.80491 14.9808C6.99889 15.0194 7.19996 14.9996 7.38268 14.9239C7.56541 14.8482 7.72159 14.72 7.83147 14.5556C7.94135 14.3911 8 14.1978 8 14C8 13.7348 7.89464 13.4804 7.70711 13.2929C7.51957 13.1054 7.26522 13 7 13ZM19.76 9.11001L18.41 5.05001C18.202 4.46162 17.8157 3.95275 17.3048 3.59426C16.794 3.23578 16.1841 3.04553 15.56 3.05001H9.66C9.39478 3.05001 9.14043 3.15537 8.95289 3.3429C8.76536 3.53044 8.66 3.78479 8.66 4.05001C8.66 4.31523 8.76536 4.56958 8.95289 4.75712C9.14043 4.94465 9.39478 5.05001 9.66 5.05001H15.56C15.7793 5.03928 15.9961 5.10103 16.1768 5.22574C16.3575 5.35044 16.4922 5.53116 16.56 5.74001L17.61 9.00001H15.66C15.3948 9.00001 15.1404 9.10537 14.9529 9.2929C14.7654 9.48044 14.66 9.73479 14.66 10C14.66 10.2652 14.7654 10.5196 14.9529 10.7071C15.1404 10.8947 15.3948 11 15.66 11H19C19.2652 11 19.5196 11.1054 19.7071 11.2929C19.8946 11.4804 20 11.7348 20 12V15.34C20 15.6052 20.1054 15.8596 20.2929 16.0471C20.4804 16.2347 20.7348 16.34 21 16.34C21.2652 16.34 21.5196 16.2347 21.7071 16.0471C21.8946 15.8596 22 15.6052 22 15.34V12C21.9973 11.3388 21.7763 10.6969 21.3712 10.1743C20.9661 9.65168 20.3997 9.27752 19.76 9.11001ZM3.76 2.29001C3.5717 2.09508 3.31367 1.98293 3.04268 1.97824C2.77169 1.97355 2.50993 2.07671 2.315 2.26501C2.12007 2.45331 2.00792 2.71134 2.00323 2.98233C1.99854 3.25332 2.1017 3.51508 2.29 3.71001L5.11 6.52001L4.24 9.11001C3.60033 9.27752 3.03392 9.65168 2.62883 10.1743C2.22374 10.6969 2.00268 11.3388 2 12V16C2.00174 16.619 2.19488 17.2222 2.55294 17.7271C2.911 18.2319 3.41645 18.6137 4 18.82V20C4 20.2652 4.10536 20.5196 4.29289 20.7071C4.48043 20.8947 4.73478 21 5 21C5.26522 21 5.51957 20.8947 5.70711 20.7071C5.89464 20.5196 6 20.2652 6 20V19H17.59L18 19.41V20C18 20.2652 18.1054 20.5196 18.2929 20.7071C18.4804 20.8947 18.7348 21 19 21C19.1622 20.9984 19.321 20.9536 19.46 20.87L20.29 21.71C20.383 21.8037 20.4936 21.8781 20.6154 21.9289C20.7373 21.9797 20.868 22.0058 21 22.0058C21.132 22.0058 21.2627 21.9797 21.3846 21.9289C21.5064 21.8781 21.617 21.8037 21.71 21.71C21.8037 21.617 21.8781 21.5064 21.9289 21.3846C21.9797 21.2627 22.0058 21.132 22.0058 21C22.0058 20.868 21.9797 20.7373 21.9289 20.6154C21.8781 20.4936 21.8037 20.383 21.71 20.29L3.76 2.29001ZM6.76 8.10001L7.66 9.00001H6.39L6.76 8.10001ZM5 17C4.73478 17 4.48043 16.8947 4.29289 16.7071C4.10536 16.5196 4 16.2652 4 16V12C4 11.7348 4.10536 11.4804 4.29289 11.2929C4.48043 11.1054 4.73478 11 5 11H9.59L11.59 13H11C10.7348 13 10.4804 13.1054 10.2929 13.2929C10.1054 13.4804 10 13.7348 10 14C10 14.2652 10.1054 14.5196 10.2929 14.7071C10.4804 14.8947 10.7348 15 11 15H13C13.1622 14.9984 13.321 14.9536 13.46 14.87L15.59 17H5Z" fill="black"/>
</svg>
