<svg width="24" height="24" viewBox="0 0 24 24" fill="none" xmlns="http://www.w3.org/2000/svg">
<path d="M3.71 2.29C3.61676 2.19676 3.50607 2.1228 3.38425 2.07234C3.26243 2.02188 3.13186 1.99591 3 1.99591C2.86814 1.99591 2.73758 2.02188 2.61575 2.07234C2.49393 2.1228 2.38324 2.19676 2.29 2.29C2.1017 2.47831 1.99591 2.7337 1.99591 3C1.99591 3.2663 2.1017 3.5217 2.29 3.71L5.09 6.5H5C4.20435 6.5 3.44129 6.81607 2.87868 7.37868C2.31607 7.94129 2 8.70435 2 9.5V17.5C2 18.2957 2.31607 19.0587 2.87868 19.6213C3.44129 20.1839 4.20435 20.5 5 20.5H19.08L20.29 21.72C20.383 21.8137 20.4936 21.8881 20.6154 21.9389C20.7373 21.9897 20.868 22.0158 21 22.0158C21.132 22.0158 21.2627 21.9897 21.3846 21.9389C21.5064 21.8881 21.617 21.8137 21.71 21.72C21.8037 21.627 21.8781 21.5164 21.9289 21.3946C21.9797 21.2727 22.0058 21.142 22.0058 21.01C22.0058 20.878 21.9797 20.7473 21.9289 20.6254C21.8781 20.5036 21.8037 20.393 21.71 20.3L3.71 2.29ZM10.2 11.62L12.88 14.3C12.6057 14.4328 12.3047 14.5012 12 14.5C11.4696 14.5 10.9609 14.2893 10.5858 13.9142C10.2107 13.5391 10 13.0304 10 12.5C9.99875 12.1953 10.0672 11.8943 10.2 11.62ZM5 18.5C4.73479 18.5 4.48043 18.3946 4.2929 18.2071C4.10536 18.0196 4 17.7652 4 17.5V9.5C4 9.23479 4.10536 8.98043 4.2929 8.7929C4.48043 8.60536 4.73479 8.5 5 8.5H7.07L8.77 10.19C8.27463 10.8587 8.00495 11.6678 8 12.5C8 13.5609 8.42143 14.5783 9.17158 15.3284C9.92172 16.0786 10.9391 16.5 12 16.5C12.8356 16.4972 13.6485 16.2274 14.32 15.73L17.09 18.5H5ZM19 6.5H17.72L17.41 5.5C17.202 4.91161 16.8157 4.40274 16.3048 4.04425C15.794 3.68577 15.1841 3.49552 14.56 3.5H10.16C9.89479 3.5 9.64043 3.60536 9.4529 3.7929C9.26536 3.98043 9.16 4.23479 9.16 4.5C9.16 4.76522 9.26536 5.01957 9.4529 5.20711C9.64043 5.39465 9.89479 5.5 10.16 5.5H14.56C14.7696 5.49946 14.9742 5.56482 15.1446 5.68684C15.3151 5.80887 15.4429 5.98138 15.51 6.18L16.05 7.81C16.1154 8.01049 16.2425 8.18518 16.4131 8.30911C16.5837 8.43303 16.7891 8.49985 17 8.5H19C19.2652 8.5 19.5196 8.60536 19.7071 8.7929C19.8946 8.98043 20 9.23479 20 9.5V15.34C20 15.6052 20.1054 15.8596 20.2929 16.0471C20.4804 16.2346 20.7348 16.34 21 16.34C21.2652 16.34 21.5196 16.2346 21.7071 16.0471C21.8946 15.8596 22 15.6052 22 15.34V9.5C22 8.70435 21.6839 7.94129 21.1213 7.37868C20.5587 6.81607 19.7957 6.5 19 6.5Z" fill="black"/>
</svg>
