<svg width="24" height="24" viewBox="0 0 24 24" fill="none" xmlns="http://www.w3.org/2000/svg">
<path d="M22 10.94C21.9896 10.8481 21.9695 10.7576 21.94 10.67V10.58C21.8919 10.4772 21.8278 10.3827 21.75 10.3L15.75 4.3C15.6673 4.22222 15.5728 4.15808 15.47 4.11H15.38C15.2784 4.05174 15.1662 4.01435 15.05 4H10.66C10.3948 4 10.1404 4.10536 9.9529 4.2929C9.76536 4.48043 9.66 4.73479 9.66 5C9.66 5.26522 9.76536 5.51957 9.9529 5.70711C10.1404 5.89465 10.3948 6 10.66 6H14V9C14 9.79565 14.3161 10.5587 14.8787 11.1213C15.4413 11.6839 16.2044 12 17 12H20V15.34C20 15.6052 20.1054 15.8596 20.2929 16.0471C20.4804 16.2346 20.7348 16.34 21 16.34C21.2652 16.34 21.5196 16.2346 21.7071 16.0471C21.8946 15.8596 22 15.6052 22 15.34V11C22 11 22 11 22 10.94ZM17 10C16.7348 10 16.4804 9.89465 16.2929 9.70711C16.1054 9.51957 16 9.26522 16 9V7.41L18.59 10H17ZM3.71 2.29C3.61676 2.19676 3.50607 2.1228 3.38425 2.07234C3.26243 2.02188 3.13186 1.99591 3 1.99591C2.86814 1.99591 2.73758 2.02188 2.61575 2.07234C2.49393 2.1228 2.38324 2.19676 2.29 2.29C2.1017 2.47831 1.99591 2.7337 1.99591 3C1.99591 3.2663 2.1017 3.5217 2.29 3.71L3.2 4.61C2.82876 4.88843 2.52717 5.24918 2.31895 5.66389C2.11073 6.0786 2.00155 6.53596 2 7V17C2 17.7957 2.31607 18.5587 2.87868 19.1213C3.44129 19.6839 4.20435 20 5 20H18.59L20.29 21.71C20.383 21.8037 20.4936 21.8781 20.6154 21.9289C20.7373 21.9797 20.868 22.0058 21 22.0058C21.132 22.0058 21.2627 21.9797 21.3846 21.9289C21.5064 21.8781 21.617 21.8037 21.71 21.71C21.8037 21.617 21.8781 21.5064 21.9289 21.3846C21.9797 21.2627 22.0058 21.132 22.0058 21C22.0058 20.868 21.9797 20.7373 21.9289 20.6154C21.8781 20.4936 21.8037 20.383 21.71 20.29L3.71 2.29ZM5 18C4.73479 18 4.48043 17.8946 4.2929 17.7071C4.10536 17.5196 4 17.2652 4 17V7C4.00213 6.7962 4.06648 6.59791 4.18444 6.4317C4.3024 6.26549 4.46833 6.13929 4.66 6.07L16.59 18H5Z" fill="black"/>
</svg>
