<svg width="24" height="24" viewBox="0 0 24 24" fill="none" xmlns="http://www.w3.org/2000/svg">
<path d="M19.71 16.29L5.71 2.29C5.5217 2.1017 5.2663 1.99591 5 1.99591C4.7337 1.99591 4.47831 2.1017 4.29 2.29C4.1017 2.47831 3.99591 2.7337 3.99591 3C3.99591 3.2663 4.1017 3.5217 4.29 3.71L6.59 6H5C4.81152 6.00054 4.62702 6.05433 4.46778 6.15518C4.30854 6.25603 4.18105 6.39983 4.1 6.57C4.02974 6.7324 4.00383 6.91053 4.02492 7.08621C4.046 7.2619 4.11332 7.42884 4.22 7.57L11 16.1V20H6.75C6.48479 20 6.23043 20.1054 6.0429 20.2929C5.85536 20.4804 5.75 20.7348 5.75 21C5.75 21.2652 5.85536 21.5196 6.0429 21.7071C6.23043 21.8946 6.48479 22 6.75 22H17.25C17.5152 22 17.7696 21.8946 17.9571 21.7071C18.1446 21.5196 18.25 21.2652 18.25 21C18.25 20.7348 18.1446 20.4804 17.9571 20.2929C17.7696 20.1054 17.5152 20 17.25 20H13V16.1L14.64 14.1L18.29 17.75C18.383 17.8437 18.4936 17.9181 18.6154 17.9689C18.7373 18.0197 18.868 18.0458 19 18.0458C19.132 18.0458 19.2627 18.0197 19.3846 17.9689C19.5064 17.9181 19.617 17.8437 19.71 17.75C19.8099 17.6565 19.8896 17.5434 19.944 17.4178C19.9985 17.2923 20.0266 17.1569 20.0266 17.02C20.0266 16.8831 19.9985 16.7477 19.944 16.6222C19.8896 16.4966 19.8099 16.3835 19.71 16.29ZM7.08 8H8.59L10.48 9.89H8.59L7.08 8ZM12 14.15L10.19 11.89H12.48L13.22 12.63L12 14.15ZM14.66 8H16.92L16.29 8.79C16.1254 8.99599 16.0488 9.25868 16.0768 9.52088C16.1049 9.78308 16.2355 10.0236 16.44 10.19C16.6186 10.3333 16.841 10.411 17.07 10.41C17.2194 10.4105 17.367 10.3775 17.502 10.3135C17.637 10.2495 17.7559 10.156 17.85 10.04L19.78 7.62C19.8867 7.47884 19.954 7.3119 19.9751 7.13621C19.9962 6.96053 19.9703 6.7824 19.9 6.62C19.8263 6.44048 19.702 6.28627 19.5422 6.17618C19.3824 6.06609 19.194 6.00488 19 6H14.66C14.3948 6 14.1404 6.10536 13.9529 6.2929C13.7654 6.48043 13.66 6.73479 13.66 7C13.66 7.26522 13.7654 7.51957 13.9529 7.70711C14.1404 7.89465 14.3948 8 14.66 8Z" fill="black"/>
</svg>
