<svg width="24" height="24" viewBox="0 0 24 24" fill="none" xmlns="http://www.w3.org/2000/svg">
<path d="M21.71 20.29L3.71 2.29C3.5217 2.1017 3.2663 1.99591 3 1.99591C2.7337 1.99591 2.47831 2.1017 2.29 2.29C2.1017 2.47831 1.99591 2.7337 1.99591 3C1.99591 3.2663 2.1017 3.5217 2.29 3.71L4 5.41V19C4 19.7957 4.31607 20.5587 4.87868 21.1213C5.44129 21.6839 6.20435 22 7 22H17C17.464 21.9985 17.9214 21.8893 18.3361 21.6811C18.7508 21.4728 19.1116 21.1712 19.39 20.8L20.29 21.71C20.383 21.8037 20.4936 21.8781 20.6154 21.9289C20.7373 21.9797 20.868 22.0058 21 22.0058C21.132 22.0058 21.2627 21.9797 21.3846 21.9289C21.5064 21.8781 21.617 21.8037 21.71 21.71C21.8037 21.617 21.8781 21.5064 21.9289 21.3846C21.9797 21.2627 22.0058 21.132 22.0058 21C22.0058 20.868 21.9797 20.7373 21.9289 20.6154C21.8781 20.4936 21.8037 20.383 21.71 20.29ZM17 20H7C6.73479 20 6.48043 19.8946 6.2929 19.7071C6.10536 19.5196 6 19.2652 6 19V7.41L17.93 19.34C17.8607 19.5317 17.7345 19.6976 17.5683 19.8156C17.4021 19.9335 17.2038 19.9979 17 20ZM8.66 4H12V7C12 7.79565 12.3161 8.55871 12.8787 9.12132C13.4413 9.68393 14.2044 10 15 10H18V13.34C18 13.6052 18.1054 13.8596 18.2929 14.0471C18.4804 14.2346 18.7348 14.34 19 14.34C19.2652 14.34 19.5196 14.2346 19.7071 14.0471C19.8946 13.8596 20 13.6052 20 13.34V9C20 9 20 9 20 8.94C19.9896 8.84814 19.9695 8.75763 19.94 8.67V8.58C19.8919 8.47718 19.8278 8.38267 19.75 8.3L13.75 2.3C13.6673 2.22222 13.5728 2.15808 13.47 2.11H13.38L13.06 2H8.66C8.39479 2 8.14043 2.10536 7.9529 2.2929C7.76536 2.48043 7.66 2.73479 7.66 3C7.66 3.26522 7.76536 3.51957 7.9529 3.70711C8.14043 3.89465 8.39479 4 8.66 4ZM14 5.41L16.59 8H15C14.7348 8 14.4804 7.89465 14.2929 7.70711C14.1054 7.51957 14 7.26522 14 7V5.41Z" fill="black"/>
</svg>
