<svg width="24" height="24" viewBox="0 0 24 24" fill="none" xmlns="http://www.w3.org/2000/svg">
<path d="M8.67002 4.23C8.8319 4.27256 9.00187 4.2738 9.16436 4.23362C9.32684 4.19343 9.47664 4.11311 9.60002 4H14.7L13.43 8.74C13.3896 8.88832 13.3839 9.04398 13.4134 9.19487C13.4428 9.34575 13.5067 9.48781 13.6 9.61C13.6932 9.73101 13.8128 9.82908 13.9498 9.89669C14.0867 9.96429 14.2373 9.99963 14.39 10H18L16.87 11.24C16.6928 11.4365 16.6006 11.6952 16.6137 11.9595C16.6268 12.2237 16.7442 12.4721 16.94 12.65C17.1234 12.8167 17.3622 12.9094 17.61 12.91C17.7496 12.9097 17.8875 12.8801 18.0149 12.8233C18.1424 12.7665 18.2565 12.6836 18.35 12.58L21 9.67C21.1313 9.52468 21.2171 9.344 21.2466 9.15038C21.2761 8.95677 21.2481 8.75875 21.1661 8.58089C21.0841 8.40304 20.9517 8.25318 20.7853 8.14991C20.6189 8.04664 20.4258 7.99452 20.23 8H15.69L17 3.26C17.0391 3.11092 17.0432 2.95483 17.0119 2.80391C16.9807 2.653 16.915 2.51134 16.82 2.39C16.7238 2.2649 16.5994 2.16435 16.4568 2.09656C16.3143 2.02878 16.1578 1.99569 16 2H9.00002C8.77426 1.99227 8.55253 2.0612 8.37095 2.19557C8.18936 2.32994 8.05862 2.52184 8.00002 2.74V3C7.92838 3.25192 7.95843 3.52189 8.08372 3.75189C8.209 3.98189 8.41952 4.15356 8.67002 4.23ZM21.67 20.29L3.67002 2.29C3.47541 2.14812 3.23613 2.08125 2.99616 2.10167C2.75619 2.12208 2.53165 2.22842 2.3638 2.40113C2.19595 2.57385 2.09607 2.80133 2.08252 3.04179C2.06896 3.28225 2.14265 3.51952 2.29002 3.71L6.61002 8L5.35002 12.74C5.31096 12.8891 5.30688 13.0452 5.3381 13.1961C5.36933 13.347 5.43501 13.4887 5.53002 13.61C5.62318 13.731 5.74282 13.8291 5.87976 13.8967C6.0167 13.9643 6.16731 13.9996 6.32002 14H10.16L8.35002 20.74C8.2914 20.9574 8.30789 21.1883 8.39682 21.3952C8.48575 21.6021 8.64192 21.7729 8.84002 21.88C8.98745 21.9596 9.1525 22.0008 9.32002 22C9.45957 21.9997 9.5975 21.9701 9.72494 21.9133C9.85239 21.8565 9.96653 21.7736 10.06 21.67L14.91 16.33L20.29 21.71C20.383 21.8037 20.4936 21.8781 20.6154 21.9289C20.7373 21.9797 20.868 22.0058 21 22.0058C21.132 22.0058 21.2627 21.9797 21.3846 21.9289C21.5065 21.8781 21.6171 21.8037 21.71 21.71C21.8038 21.617 21.8781 21.5064 21.9289 21.3846C21.9797 21.2627 22.0058 21.132 22.0058 21C22.0058 20.868 21.9797 20.7373 21.9289 20.6154C21.8781 20.4936 21.8038 20.383 21.71 20.29H21.67ZM7.62002 12L8.25002 9.66L10.59 12H7.62002ZM11.35 17.28L12.35 13.72L13.55 14.91L11.35 17.28Z" fill="black"/>
</svg>
