<svg width="24" height="24" viewBox="0 0 24 24" fill="none" xmlns="http://www.w3.org/2000/svg">
<path d="M21.71 20.29L20.11 18.69L3.71 2.29C3.61676 2.19676 3.50607 2.1228 3.38425 2.07234C3.26243 2.02188 3.13186 1.99591 3 1.99591C2.86814 1.99591 2.73758 2.02188 2.61575 2.07234C2.49393 2.1228 2.38324 2.19676 2.29 2.29C2.1017 2.47831 1.99591 2.7337 1.99591 3C1.99591 3.2663 2.1017 3.5217 2.29 3.71L3.69 5.1C3.24713 5.63445 3.00328 6.30592 3 7V18C3 18.7957 3.31607 19.5587 3.87868 20.1213C4.44129 20.6839 5.20435 21 6 21H18C18.447 20.9974 18.8877 20.8949 19.29 20.7L20.29 21.7C20.383 21.7937 20.4936 21.8681 20.6154 21.9189C20.7373 21.9697 20.868 21.9958 21 21.9958C21.132 21.9958 21.2627 21.9697 21.3846 21.9189C21.5064 21.8681 21.617 21.7937 21.71 21.7C21.8963 21.5126 22.0008 21.2592 22.0008 20.995C22.0008 20.7308 21.8963 20.4774 21.71 20.29ZM6 19C5.73479 19 5.48043 18.8946 5.2929 18.7071C5.10536 18.5196 5 18.2652 5 18V7C5.00244 6.83925 5.04361 6.68146 5.12 6.54L17.59 19H6ZM10.62 6C10.8181 6.01081 11.0085 6.08029 11.1669 6.19959C11.3254 6.3189 11.4448 6.48264 11.51 6.67L12.05 8.31C12.1154 8.51049 12.2425 8.68518 12.4131 8.80911C12.5837 8.93303 12.7891 8.99985 13 9H18C18.2652 9 18.5196 9.10536 18.7071 9.2929C18.8946 9.48043 19 9.73479 19 10V14.34C19 14.6052 19.1054 14.8596 19.2929 15.0471C19.4804 15.2346 19.7348 15.34 20 15.34C20.2652 15.34 20.5196 15.2346 20.7071 15.0471C20.8946 14.8596 21 14.6052 21 14.34V10C21 9.20435 20.6839 8.44129 20.1213 7.87868C19.5587 7.31607 18.7957 7 18 7H13.72L13.4 6C13.2022 5.43828 12.8418 4.94813 12.3645 4.59196C11.8872 4.2358 11.3148 4.02973 10.72 4C10.5887 3.99344 10.4574 4.0128 10.3335 4.05699C10.2097 4.10118 10.0958 4.16932 9.99825 4.25754C9.90075 4.34576 9.82158 4.45231 9.76526 4.57113C9.70894 4.68994 9.67657 4.81868 9.67 4.95C9.66344 5.08132 9.6828 5.21265 9.72699 5.33649C9.77118 5.46033 9.83932 5.57425 9.92754 5.67175C10.0158 5.76926 10.1223 5.84843 10.2411 5.90475C10.3599 5.96107 10.4887 5.99344 10.62 6Z" fill="black"/>
</svg>
