<svg width="24" height="24" viewBox="0 0 24 24" fill="none" xmlns="http://www.w3.org/2000/svg">
<path d="M19.22 6H12.66C12.3948 6 12.1404 6.10536 11.9529 6.2929C11.7654 6.48043 11.66 6.73479 11.66 7C11.66 7.26522 11.7654 7.51957 11.9529 7.70711C12.1404 7.89465 12.3948 8 12.66 8H19.22C19.4269 8 19.6253 8.08218 19.7715 8.22846C19.9178 8.37474 20 8.57313 20 8.78V9.56H16.22C15.9548 9.56 15.7004 9.66536 15.5129 9.8529C15.3254 10.0404 15.22 10.2948 15.22 10.56C15.22 10.8252 15.3254 11.0796 15.5129 11.2671C15.7004 11.4546 15.9548 11.56 16.22 11.56H18.59L17.89 12.25C17.7963 12.343 17.7219 12.4536 17.6711 12.5754C17.6203 12.6973 17.5942 12.828 17.5942 12.96C17.5942 13.092 17.6203 13.2227 17.6711 13.3446C17.7219 13.4664 17.7963 13.577 17.89 13.67C17.983 13.7637 18.0936 13.8381 18.2154 13.8889C18.3373 13.9397 18.468 13.9658 18.6 13.9658C18.732 13.9658 18.8627 13.9397 18.9846 13.8889C19.1064 13.8381 19.217 13.7637 19.31 13.67L21.19 11.79C21.4201 11.5608 21.6035 11.2891 21.73 10.99V10.89C21.8958 10.5569 21.9879 10.1919 22 9.82V8.82C22.004 8.45194 21.9351 8.08673 21.7972 7.74541C21.6594 7.4041 21.4554 7.09343 21.197 6.8313C20.9386 6.56917 20.6309 6.36077 20.2916 6.21809C19.9523 6.07542 19.5881 6.0013 19.22 6ZM3.71 2.29C3.61676 2.19676 3.50607 2.1228 3.38425 2.07234C3.26243 2.02188 3.13186 1.99591 3 1.99591C2.86814 1.99591 2.73758 2.02188 2.61575 2.07234C2.49393 2.1228 2.38324 2.19676 2.29 2.29C2.1017 2.47831 1.99591 2.7337 1.99591 3C1.99591 3.2663 2.1017 3.5217 2.29 3.71L5.14 6.55C4.78582 6.80376 4.49752 7.13861 4.29919 7.52656C4.10087 7.91451 3.99828 8.3443 4 8.78V9.78C4.00029 10.1596 4.08214 10.5348 4.24 10.88V10.94C4.36761 11.2415 4.5508 11.5163 4.78 11.75L10.19 17.15V21C10.1897 21.1699 10.2326 21.3372 10.3149 21.4859C10.3971 21.6346 10.5159 21.7599 10.66 21.85C10.8191 21.9486 11.0028 22.0006 11.19 22C11.3465 21.9991 11.5007 21.9614 11.64 21.89L15.2 20.11C15.3649 20.0269 15.5036 19.8998 15.6007 19.7427C15.6978 19.5856 15.7494 19.4047 15.75 19.22V17.22L20.26 21.74C20.353 21.8337 20.4636 21.9081 20.5854 21.9589C20.7073 22.0097 20.838 22.0358 20.97 22.0358C21.102 22.0358 21.2327 22.0097 21.3546 21.9589C21.4764 21.9081 21.587 21.8337 21.68 21.74C21.7737 21.647 21.8481 21.5364 21.8989 21.4146C21.9497 21.2927 21.9758 21.162 21.9758 21.03C21.9758 20.898 21.9497 20.7673 21.8989 20.6454C21.8481 20.5236 21.7737 20.413 21.68 20.32L3.71 2.29ZM6 8.78C5.99879 8.62305 6.04621 8.46957 6.13574 8.34065C6.22527 8.21173 6.35251 8.11369 6.5 8.06L6.59 8L8.15 9.56H6V8.78ZM14.07 16.07C13.9773 16.1634 13.904 16.2743 13.8542 16.3961C13.8045 16.5179 13.7792 16.6484 13.78 16.78V18.6L12.22 19.38V16.78C12.2208 16.6484 12.1955 16.5179 12.1458 16.3961C12.096 16.2743 12.0227 16.1634 11.93 16.07L7.41 11.56H10.15L14.37 15.78L14.07 16.07Z" fill="black"/>
</svg>
