<svg width="24" height="24" viewBox="0 0 24 24" fill="none" xmlns="http://www.w3.org/2000/svg">
<path d="M19 6H16V5C16 4.46957 15.7893 3.96086 15.4142 3.58579C15.0391 3.21072 14.5304 3 14 3H10C9.79251 2.99908 9.58634 3.03288 9.39 3.1C9.26416 3.14073 9.14765 3.20601 9.04721 3.29208C8.94677 3.37814 8.86441 3.48328 8.80488 3.6014C8.74536 3.71952 8.70986 3.84827 8.70044 3.9802C8.69102 4.11213 8.70786 4.24463 8.75 4.37C8.83448 4.61769 9.0127 4.82239 9.24639 4.94018C9.48009 5.05796 9.75065 5.07944 10 5H14V6H12.66C12.3948 6 12.1404 6.10536 11.9529 6.2929C11.7654 6.48043 11.66 6.73479 11.66 7C11.66 7.26522 11.7654 7.51957 11.9529 7.70711C12.1404 7.89465 12.3948 8 12.66 8H19C19.2652 8 19.5196 8.10536 19.7071 8.2929C19.8946 8.48043 20 8.73479 20 9V10.28L17.43 11.14C17.3051 11.1817 17.1896 11.2478 17.0902 11.3343C16.9909 11.4208 16.9096 11.5261 16.8511 11.6441C16.7925 11.7621 16.7579 11.8905 16.7491 12.0219C16.7403 12.1534 16.7576 12.2853 16.8 12.41C16.8671 12.6086 16.9949 12.7811 17.1654 12.9032C17.3358 13.0252 17.5404 13.0905 17.75 13.09C17.8584 13.088 17.9661 13.0712 18.07 13.04L20 12.39V15.34C20 15.6052 20.1054 15.8596 20.2929 16.0471C20.4804 16.2346 20.7348 16.34 21 16.34C21.2652 16.34 21.5196 16.2346 21.7071 16.0471C21.8946 15.8596 22 15.6052 22 15.34V9C22 8.20435 21.6839 7.44129 21.1213 6.87868C20.5587 6.31607 19.7957 6 19 6ZM3.71 2.29C3.61676 2.19676 3.50607 2.1228 3.38425 2.07234C3.26243 2.02188 3.13186 1.99591 3 1.99591C2.86814 1.99591 2.73758 2.02188 2.61575 2.07234C2.49393 2.1228 2.38324 2.19676 2.29 2.29C2.1017 2.47831 1.99591 2.7337 1.99591 3C1.99591 3.2663 2.1017 3.5217 2.29 3.71L4.62 6C3.8919 6.09295 3.22314 6.44961 2.74031 7.00247C2.25748 7.55533 1.99409 8.26601 2 9V18C2 18.7957 2.31607 19.5587 2.87868 20.1213C3.44129 20.6839 4.20435 21 5 21H19C19.1781 20.9954 19.3554 20.9753 19.53 20.94L20.29 21.71C20.383 21.8037 20.4936 21.8781 20.6154 21.9289C20.7373 21.9797 20.868 22.0058 21 22.0058C21.132 22.0058 21.2627 21.9797 21.3846 21.9289C21.5064 21.8781 21.617 21.8037 21.71 21.71C21.8037 21.617 21.8781 21.5064 21.9289 21.3846C21.9797 21.2627 22.0058 21.132 22.0058 21C22.0058 20.868 21.9797 20.7373 21.9289 20.6154C21.8781 20.4936 21.8037 20.383 21.71 20.29L3.71 2.29ZM4 9C4 8.73479 4.10536 8.48043 4.2929 8.2929C4.48043 8.10536 4.73479 8 5 8H6.59L10.59 12H9.16L4 10.28V9ZM5 19C4.73479 19 4.48043 18.8946 4.2929 18.7071C4.10536 18.5196 4 18.2652 4 18V12.39L8.68 14C8.78618 14.0144 8.89382 14.0144 9 14H12.59L17.59 19H5Z" fill="black"/>
</svg>
