<svg width="24" height="24" viewBox="0 0 24 24" fill="none" xmlns="http://www.w3.org/2000/svg">
<path d="M21.71 20.29L20.78 19.36L20.69 19.26L20.63 19.19L20.13 18.69L20 18.62L14.82 13.42L14.73 13.34L11.53 10.13L11.43 10L3.71 2.29C3.61676 2.19676 3.50607 2.1228 3.38425 2.07234C3.26243 2.02188 3.13186 1.99591 3 1.99591C2.86814 1.99591 2.73758 2.02188 2.61575 2.07234C2.49393 2.1228 2.38324 2.19676 2.29 2.29C2.1017 2.47831 1.99591 2.7337 1.99591 3C1.99591 3.2663 2.1017 3.5217 2.29 3.71L3.29 4.71C3.0986 5.11308 2.99953 5.55379 3 6V18C3 18.7957 3.31607 19.5587 3.87868 20.1213C4.44129 20.6839 5.20435 21 6 21H18C18.4414 20.9947 18.8758 20.8886 19.27 20.69C19.27 20.69 19.27 20.69 19.32 20.69L20.27 21.69C20.363 21.7837 20.4736 21.8581 20.5954 21.9089C20.7173 21.9597 20.848 21.9858 20.98 21.9858C21.112 21.9858 21.2427 21.9597 21.3646 21.9089C21.4864 21.8581 21.597 21.7837 21.69 21.69C21.8759 21.5057 21.9822 21.2558 21.9859 20.9941C21.9896 20.7323 21.8906 20.4795 21.71 20.29ZM5 6.41L8.24 9.65C7.99452 9.77657 7.76881 9.93827 7.57 10.13L5 12.71V6.41ZM6 19C5.73479 19 5.48043 18.8946 5.2929 18.7071C5.10536 18.5196 5 18.2652 5 18V15.54L9 11.54C9.14969 11.4015 9.3461 11.3246 9.55 11.3246C9.75391 11.3246 9.95031 11.4015 10.1 11.54L17.59 19H6ZM9.66 5H18C18.2652 5 18.5196 5.10536 18.7071 5.2929C18.8946 5.48043 19 5.73479 19 6V11.94C18.9068 11.8468 18.7961 11.7728 18.6743 11.7223C18.5524 11.6719 18.4219 11.6459 18.29 11.6459C18.1581 11.6459 18.0276 11.6719 17.9058 11.7223C17.7839 11.7728 17.6732 11.8468 17.58 11.94C17.4868 12.0332 17.4128 12.1439 17.3623 12.2658C17.3119 12.3876 17.2859 12.5181 17.2859 12.65C17.2859 12.7819 17.3119 12.9124 17.3623 13.0343C17.4128 13.1561 17.4868 13.2668 17.58 13.36L19.32 15.1C19.413 15.1937 19.5236 15.2681 19.6454 15.3189C19.7673 15.3697 19.898 15.3958 20.03 15.3958C20.162 15.3958 20.2927 15.3697 20.4146 15.3189C20.5364 15.2681 20.647 15.1937 20.74 15.1C20.8339 15.0054 20.9079 14.8929 20.9577 14.7693C21.0075 14.6456 21.0321 14.5133 21.03 14.38V6C21.03 5.20435 20.7139 4.44129 20.1513 3.87868C19.5887 3.31607 18.8257 3 18.03 3H9.66C9.39479 3 9.14043 3.10536 8.9529 3.2929C8.76536 3.48043 8.66 3.73479 8.66 4C8.66 4.26522 8.76536 4.51957 8.9529 4.70711C9.14043 4.89465 9.39479 5 9.66 5Z" fill="black"/>
</svg>
