<svg width="24" height="24" viewBox="0 0 24 24" fill="none" xmlns="http://www.w3.org/2000/svg">
<path d="M10.63 5.49003C11.623 5.25793 12.6588 5.28276 13.6396 5.56218C14.6203 5.8416 15.5137 6.36638 16.2353 7.08698C16.9569 7.80757 17.4829 8.7002 17.7637 9.68057C18.0444 10.6609 18.0707 11.6967 17.84 12.69C17.8087 12.8181 17.8031 12.9511 17.8234 13.0813C17.8437 13.2115 17.8896 13.3365 17.9584 13.4489C18.0271 13.5614 18.1175 13.6591 18.2241 13.7365C18.3308 13.814 18.4518 13.8695 18.58 13.9C18.6564 13.9099 18.7336 13.9099 18.81 13.9C19.0384 13.9067 19.2623 13.8349 19.4442 13.6966C19.6262 13.5583 19.7552 13.3619 19.81 13.14C20.1215 11.8145 20.0896 10.4315 19.7172 9.12179C19.3448 7.8121 18.6443 6.61913 17.682 5.65583C16.7197 4.69253 15.5274 3.99079 14.2181 3.61703C12.9088 3.24328 11.5258 3.20989 10.2 3.52003C9.93478 3.58103 9.70466 3.74489 9.56026 3.97556C9.41585 4.20623 9.369 4.48481 9.43 4.75003C9.491 5.01525 9.65486 5.24537 9.88553 5.38977C10.1162 5.53417 10.3948 5.58103 10.66 5.52003L10.63 5.49003ZM21.71 20.07L17.44 15.8L3.71 2.07003C3.61704 1.9763 3.50644 1.90191 3.38458 1.85114C3.26272 1.80037 3.13201 1.77423 3 1.77423C2.86799 1.77423 2.73728 1.80037 2.61542 1.85114C2.49356 1.90191 2.38296 1.9763 2.29 2.07003C2.10375 2.25739 1.99921 2.51084 1.99921 2.77503C1.99921 3.03922 2.10375 3.29267 2.29 3.48003L5.5 6.69003C4.39677 8.22981 3.87569 10.1111 4.02951 11.9991C4.18333 13.887 5.00207 15.6591 6.34 17L11.29 21.95C11.383 22.0438 11.4936 22.1182 11.6154 22.1689C11.7373 22.2197 11.868 22.2458 12 22.2458C12.132 22.2458 12.2627 22.2197 12.3846 22.1689C12.5064 22.1182 12.617 22.0438 12.71 21.95L16.71 17.95L20.27 21.51C20.457 21.6983 20.7111 21.8046 20.9765 21.8056C21.2418 21.8065 21.4967 21.702 21.685 21.515C21.8733 21.3281 21.9796 21.0739 21.9806 20.8086C21.9815 20.5432 21.877 20.2883 21.69 20.1L21.71 20.07ZM12.12 13.31C11.8392 13.328 11.5578 13.2865 11.2942 13.1883C11.0305 13.09 10.7906 12.9373 10.59 12.74C10.3891 12.5412 10.2327 12.302 10.131 12.0383C10.0293 11.7746 9.98464 11.4923 10 11.21L12.12 13.31ZM12 19.81L7.76 15.57C6.80038 14.6064 6.19659 13.3453 6.04761 11.9936C5.89862 10.6418 6.21328 9.27953 6.94 8.13003L8.41 9.60003C8.0514 10.3441 7.93195 11.1809 8.06802 11.9956C8.2041 12.8103 8.58905 13.5629 9.17 14.15C9.54093 14.5232 9.98183 14.8195 10.4674 15.022C10.9531 15.2244 11.4739 15.3291 12 15.33C12.6004 15.3273 13.1922 15.1871 13.73 14.92L15.31 16.5L12 19.81Z" fill="black"/>
</svg>
