<svg width="24" height="24" viewBox="0 0 24 24" fill="none" xmlns="http://www.w3.org/2000/svg">
<path d="M10.84 5.38C11.2243 5.1062 11.6931 4.97711 12.1634 5.01554C12.6337 5.05397 13.0752 5.25745 13.41 5.59C13.7856 5.96335 13.9978 6.47043 14 7V10C14 10.2652 14.1054 10.5196 14.2929 10.7071C14.4804 10.8946 14.7348 11 15 11H16C16.2652 11 16.5196 11.1054 16.7071 11.2929C16.8946 11.4804 17 11.7348 17 12V12.34C17 12.6052 17.1054 12.8596 17.2929 13.0471C17.4804 13.2346 17.7348 13.34 18 13.34C18.2652 13.34 18.5196 13.2346 18.7071 13.0471C18.8946 12.8596 19 12.6052 19 12.34V12C19 11.2044 18.6839 10.4413 18.1213 9.87868C17.5587 9.31607 16.7957 9 16 9V7C16.0004 6.47456 15.8973 5.95418 15.6965 5.4686C15.4958 4.98302 15.2013 4.54175 14.83 4.17C14.1476 3.50732 13.2542 3.10527 12.3057 3.03399C11.3572 2.96271 10.4137 3.22674 9.64 3.78C9.53495 3.8588 9.44644 3.95751 9.37953 4.07051C9.31262 4.18351 9.26862 4.30858 9.25005 4.43858C9.23148 4.56858 9.2387 4.70097 9.27129 4.82818C9.30388 4.9554 9.36121 5.07494 9.44 5.18C9.5188 5.28506 9.61751 5.37357 9.73051 5.44048C9.84351 5.50738 9.96858 5.55138 10.0986 5.56995C10.2286 5.58852 10.361 5.58131 10.4882 5.54872C10.6154 5.51612 10.7349 5.4588 10.84 5.38ZM21.71 20.29L3.71 2.29C3.5217 2.1017 3.2663 1.99591 3 1.99591C2.7337 1.99591 2.47831 2.1017 2.29 2.29C2.1017 2.47831 1.99591 2.7337 1.99591 3C1.99591 3.2663 2.1017 3.5217 2.29 3.71L7.62 9C6.8919 9.09295 6.22314 9.44961 5.74031 10.0025C5.25748 10.5553 4.99409 11.266 5 12V18C5 18.7957 5.31607 19.5587 5.87868 20.1213C6.44129 20.6839 7.20435 21 8 21H16C16.464 20.9985 16.9214 20.8893 17.3361 20.6811C17.7508 20.4728 18.1116 20.1712 18.39 19.8L20.29 21.71C20.383 21.8037 20.4936 21.8781 20.6154 21.9289C20.7373 21.9797 20.868 22.0058 21 22.0058C21.132 22.0058 21.2627 21.9797 21.3846 21.9289C21.5064 21.8781 21.617 21.8037 21.71 21.71C21.8037 21.617 21.8781 21.5064 21.9289 21.3846C21.9797 21.2627 22.0058 21.132 22.0058 21C22.0058 20.868 21.9797 20.7373 21.9289 20.6154C21.8781 20.4936 21.8037 20.383 21.71 20.29ZM16 19H8C7.73479 19 7.48043 18.8946 7.2929 18.7071C7.10536 18.5196 7 18.2652 7 18V12C7 11.7348 7.10536 11.4804 7.2929 11.2929C7.48043 11.1054 7.73479 11 8 11H9.59L11.66 13.07C11.4683 13.1393 11.3024 13.2655 11.1844 13.4317C11.0665 13.5979 11.0021 13.7962 11 14V16C11 16.2652 11.1054 16.5196 11.2929 16.7071C11.4804 16.8946 11.7348 17 12 17C12.2652 17 12.5196 16.8946 12.7071 16.7071C12.8946 16.5196 13 16.2652 13 16V14.41L16.93 18.34C16.8607 18.5317 16.7345 18.6976 16.5683 18.8156C16.4021 18.9335 16.2038 18.9979 16 19Z" fill="black"/>
</svg>
