<svg width="24" height="24" viewBox="0 0 24 24" fill="none" xmlns="http://www.w3.org/2000/svg">
<path d="M11.29 17.71C11.383 17.8037 11.4936 17.8781 11.6154 17.9289C11.7373 17.9797 11.868 18.0058 12 18.0058C12.132 18.0058 12.2627 17.9797 12.3846 17.9289C12.5064 17.8781 12.617 17.8037 12.71 17.71C12.7983 17.6128 12.8694 17.5012 12.92 17.38C12.9729 17.2603 13.0002 17.1309 13.0002 17C13.0002 16.8691 12.9729 16.7397 12.92 16.62C12.8694 16.4988 12.7983 16.3872 12.71 16.29C12.617 16.1963 12.5064 16.1219 12.3846 16.0711C12.2627 16.0203 12.132 15.9942 12 15.9942C11.868 15.9942 11.7373 16.0203 11.6154 16.0711C11.4936 16.1219 11.383 16.1963 11.29 16.29C11.2017 16.3872 11.1306 16.4988 11.08 16.62C11.0271 16.7397 10.9998 16.8691 10.9998 17C10.9998 17.1309 11.0271 17.2603 11.08 17.38C11.1306 17.5012 11.2017 17.6128 11.29 17.71ZM8.66 4H16C16.2652 4 16.5196 4.10536 16.7071 4.2929C16.8946 4.48043 17 4.73479 17 5V12.34C17 12.6052 17.1054 12.8596 17.2929 13.0471C17.4804 13.2346 17.7348 13.34 18 13.34C18.2652 13.34 18.5196 13.2346 18.7071 13.0471C18.8946 12.8596 19 12.6052 19 12.34V5C19 4.20435 18.6839 3.44129 18.1213 2.87868C17.5587 2.31607 16.7957 2 16 2H8.66C8.39479 2 8.14043 2.10536 7.9529 2.2929C7.76536 2.48043 7.66 2.73479 7.66 3C7.66 3.26522 7.76536 3.51957 7.9529 3.70711C8.14043 3.89465 8.39479 4 8.66 4ZM21.71 20.29L3.71 2.29C3.5217 2.1017 3.2663 1.99591 3 1.99591C2.7337 1.99591 2.47831 2.1017 2.29 2.29C2.1017 2.47831 1.99591 2.7337 1.99591 3C1.99591 3.2663 2.1017 3.5217 2.29 3.71L5 6.41V19C5 19.7957 5.31607 20.5587 5.87868 21.1213C6.44129 21.6839 7.20435 22 8 22H16C16.5889 21.9995 17.1646 21.8257 17.6554 21.5003C18.1462 21.1749 18.5303 20.7122 18.76 20.17L20.29 21.71C20.383 21.8037 20.4936 21.8781 20.6154 21.9289C20.7373 21.9797 20.868 22.0058 21 22.0058C21.132 22.0058 21.2627 21.9797 21.3846 21.9289C21.5064 21.8781 21.617 21.8037 21.71 21.71C21.8037 21.617 21.8781 21.5064 21.9289 21.3846C21.9797 21.2627 22.0058 21.132 22.0058 21C22.0058 20.868 21.9797 20.7373 21.9289 20.6154C21.8781 20.4936 21.8037 20.383 21.71 20.29ZM17 19C17 19.2652 16.8946 19.5196 16.7071 19.7071C16.5196 19.8946 16.2652 20 16 20H8C7.73479 20 7.48043 19.8946 7.2929 19.7071C7.10536 19.5196 7 19.2652 7 19V8.41L17 18.41V19Z" fill="black"/>
</svg>
