<svg width="24" height="24" viewBox="0 0 24 24" fill="none" xmlns="http://www.w3.org/2000/svg">
<path d="M6 11C5.80222 11 5.60888 11.0587 5.44443 11.1685C5.27998 11.2784 5.15181 11.4346 5.07612 11.6173C5.00043 11.8 4.98063 12.0011 5.01921 12.1951C5.0578 12.3891 5.15304 12.5673 5.29289 12.7071C5.43275 12.847 5.61093 12.9422 5.80491 12.9808C5.99889 13.0194 6.19996 12.9996 6.38268 12.9239C6.56541 12.8482 6.72159 12.72 6.83147 12.5556C6.94135 12.3911 7 12.1978 7 12C7 11.7348 6.89464 11.4804 6.70711 11.2929C6.51957 11.1054 6.26522 11 6 11ZM11.86 9.45L4.71 2.29C4.61676 2.19676 4.50607 2.1228 4.38425 2.07234C4.26243 2.02188 4.13186 1.99591 4 1.99591C3.86814 1.99591 3.73757 2.02188 3.61575 2.07234C3.49393 2.1228 3.38324 2.19676 3.29 2.29C3.1017 2.47831 2.99591 2.7337 2.99591 3C2.99591 3.2663 3.1017 3.5217 3.29 3.71L4.59 5H4C3.20435 5 2.44129 5.31607 1.87868 5.87868C1.31607 6.44129 1 7.20435 1 8V16C1 16.7957 1.31607 17.5587 1.87868 18.1213C2.44129 18.6839 3.20435 19 4 19H18.59L21.29 21.71C21.383 21.8037 21.4936 21.8781 21.6154 21.9289C21.7373 21.9797 21.868 22.0058 22 22.0058C22.132 22.0058 22.2627 21.9797 22.3846 21.9289C22.5064 21.8781 22.617 21.8037 22.71 21.71C22.8037 21.617 22.8781 21.5064 22.9289 21.3846C22.9797 21.2627 23.0058 21.132 23.0058 21C23.0058 20.868 22.9797 20.7373 22.9289 20.6154C22.8781 20.4936 22.8037 20.383 22.71 20.29L11.86 9.45ZM11.12 11.54L12.46 12.88C12.3185 12.9564 12.1608 12.9976 12 13C11.7348 13 11.4804 12.8946 11.2929 12.7071C11.1054 12.5196 11 12.2652 11 12C11.0024 11.8393 11.0436 11.6815 11.12 11.54ZM4 17C3.73478 17 3.48043 16.8946 3.29289 16.7071C3.10536 16.5196 3 16.2652 3 16V8C3 7.73479 3.10536 7.48043 3.29289 7.2929C3.48043 7.10536 3.73478 7 4 7H6.59L9.69 10.1C9.24713 10.6344 9.00328 11.3059 9 12C9 12.7957 9.31607 13.5587 9.87868 14.1213C10.4413 14.6839 11.2044 15 12 15C12.6941 14.9967 13.3656 14.7529 13.9 14.31L16.59 17H4ZM20 5H12.66C12.3948 5 12.1404 5.10536 11.9529 5.2929C11.7654 5.48043 11.66 5.73479 11.66 6C11.66 6.26522 11.7654 6.51957 11.9529 6.70711C12.1404 6.89465 12.3948 7 12.66 7H20C20.2652 7 20.5196 7.10536 20.7071 7.2929C20.8946 7.48043 21 7.73479 21 8V15.34C21 15.6052 21.1054 15.8596 21.2929 16.0471C21.4804 16.2346 21.7348 16.34 22 16.34C22.2652 16.34 22.5196 16.2346 22.7071 16.0471C22.8946 15.8596 23 15.6052 23 15.34V8C23 7.20435 22.6839 6.44129 22.1213 5.87868C21.5587 5.31607 20.7956 5 20 5ZM19 12C19 11.8022 18.9414 11.6089 18.8315 11.4444C18.7216 11.28 18.5654 11.1518 18.3827 11.0761C18.2 11.0004 17.9989 10.9806 17.8049 11.0192C17.6109 11.0578 17.4327 11.153 17.2929 11.2929C17.153 11.4327 17.0578 11.6109 17.0192 11.8049C16.9806 11.9989 17.0004 12.2 17.0761 12.3827C17.1518 12.5654 17.28 12.7216 17.4444 12.8315C17.6089 12.9414 17.8022 13 18 13C18.2652 13 18.5196 12.8946 18.7071 12.7071C18.8946 12.5196 19 12.2652 19 12Z" fill="black"/>
</svg>
