<svg width="24" height="24" viewBox="0 0 24 24" fill="none" xmlns="http://www.w3.org/2000/svg">
<path d="M10.19 5.23C10.781 5.07603 11.3893 4.99873 12 5C13.8565 5 15.637 5.7375 16.9497 7.05025C18.2625 8.36301 19 10.1435 19 12C19.0013 12.6107 18.924 13.219 18.77 13.81C18.7351 13.9367 18.7255 14.0691 18.7418 14.1995C18.7581 14.33 18.8 14.4559 18.865 14.5701C18.93 14.6844 19.0169 14.7847 19.1207 14.8653C19.2245 14.9459 19.3432 15.0053 19.47 15.04C19.5564 15.0498 19.6436 15.0498 19.73 15.04C19.9558 15.0477 20.1775 14.9788 20.3591 14.8444C20.5407 14.7101 20.6714 14.5182 20.73 14.3C20.9197 13.5483 21.0104 12.7751 21 12C21 9.61305 20.0518 7.32387 18.364 5.63604C16.6761 3.94821 14.387 3 12 3C11.2135 2.99673 10.43 3.0976 9.67 3.3C9.4195 3.37644 9.20898 3.54811 9.08369 3.77811C8.95841 4.00811 8.92836 4.27808 9 4.53C9.07035 4.77728 9.23323 4.98796 9.45482 5.11831C9.67641 5.24866 9.93969 5.28866 10.19 5.23ZM21.71 20.29L3.71 2.29C3.5217 2.1017 3.2663 1.99591 3 1.99591C2.7337 1.99591 2.47831 2.1017 2.29 2.29C2.1017 2.47831 1.99591 2.7337 1.99591 3C1.99591 3.2663 2.1017 3.5217 2.29 3.71L5 6.38C3.72448 7.97546 3.02963 9.95735 3.02963 12C3.02963 14.0427 3.72448 16.0245 5 17.62L3.29 19.29C3.15124 19.4306 3.05725 19.6092 3.01987 19.8032C2.9825 19.9972 3.00342 20.1979 3.08 20.38C3.15502 20.5626 3.28242 20.7189 3.44614 20.8293C3.60986 20.9396 3.80258 20.999 4 21H12C14.0462 20.9916 16.0285 20.2862 17.62 19L20.29 21.68C20.383 21.7737 20.4936 21.8481 20.6154 21.8989C20.7373 21.9497 20.868 21.9758 21 21.9758C21.132 21.9758 21.2627 21.9497 21.3846 21.8989C21.5064 21.8481 21.617 21.7737 21.71 21.68C21.8902 21.4935 21.991 21.2443 21.991 20.985C21.991 20.7257 21.8902 20.4765 21.71 20.29ZM12 19H6.41L7.05 18.37C7.23625 18.1826 7.3408 17.9292 7.3408 17.665C7.3408 17.4008 7.23625 17.1474 7.05 16.96C5.85849 15.7685 5.13678 14.1871 5.01738 12.5063C4.89798 10.8255 5.3889 9.158 6.4 7.81L16.19 17.6C14.9811 18.5067 13.5112 18.9978 12 19Z" fill="black"/>
</svg>
