<svg width="24" height="24" viewBox="0 0 24 24" fill="none" xmlns="http://www.w3.org/2000/svg">
<path d="M6.99994 10C6.80216 10 6.60882 10.0587 6.44437 10.1685C6.27992 10.2784 6.15175 10.4346 6.07606 10.6173C6.00037 10.8 5.98057 11.0011 6.01916 11.1951C6.05774 11.3891 6.15298 11.5673 6.29283 11.7071C6.43269 11.847 6.61087 11.9422 6.80485 11.9808C6.99883 12.0194 7.1999 11.9996 7.38262 11.9239C7.56535 11.8482 7.72153 11.72 7.83141 11.5556C7.94129 11.3911 7.99994 11.1978 7.99994 11C7.99994 10.7348 7.89458 10.4804 7.70705 10.2929C7.51951 10.1054 7.26516 10 6.99994 10ZM3.70994 2.29C3.6167 2.19676 3.50601 2.1228 3.38419 2.07234C3.26237 2.02188 3.1318 1.99591 2.99994 1.99591C2.86808 1.99591 2.73751 2.02188 2.61569 2.07234C2.49387 2.1228 2.38318 2.19676 2.28994 2.29C2.10164 2.47831 1.99585 2.7337 1.99585 3C1.99585 3.2663 2.10164 3.5217 2.28994 3.71L4.61994 6C3.89184 6.09295 3.22308 6.44961 2.74025 7.00247C2.25742 7.55533 1.99403 8.26601 1.99994 9V15C1.99994 15.7957 2.31601 16.5587 2.87862 17.1213C3.44123 17.6839 4.20429 18 4.99994 18H5.99994V21C5.99994 21.2652 6.1053 21.5196 6.29283 21.7071C6.48037 21.8946 6.73472 22 6.99994 22H16.9999C17.2652 22 17.5195 21.8946 17.707 21.7071C17.8946 21.5196 17.9999 21.2652 17.9999 21V19.41L20.2899 21.71C20.3829 21.8037 20.4935 21.8781 20.6154 21.9289C20.7372 21.9797 20.8679 22.0058 20.9999 22.0058C21.132 22.0058 21.2627 21.9797 21.3845 21.9289C21.5064 21.8781 21.617 21.8037 21.7099 21.71C21.8037 21.617 21.8781 21.5064 21.9288 21.3846C21.9796 21.2627 22.0057 21.132 22.0057 21C22.0057 20.868 21.9796 20.7373 21.9288 20.6154C21.8781 20.4936 21.8037 20.383 21.7099 20.29L3.70994 2.29ZM5.99994 15V16H4.99994C4.73472 16 4.48037 15.8946 4.29283 15.7071C4.1053 15.5196 3.99994 15.2652 3.99994 15V9C3.99994 8.73479 4.1053 8.48043 4.29283 8.2929C4.48037 8.10536 4.73472 8 4.99994 8H6.58994L12.5899 14H6.99994C6.73472 14 6.48037 14.1054 6.29283 14.2929C6.1053 14.4804 5.99994 14.7348 5.99994 15ZM15.9999 20H7.99994V16H14.5899L15.9999 17.41V20ZM18.9999 6H17.9999V3C17.9999 2.73479 17.8946 2.48043 17.707 2.2929C17.5195 2.10536 17.2652 2 16.9999 2H8.65994C8.39472 2 8.14037 2.10536 7.95283 2.2929C7.7653 2.48043 7.65994 2.73479 7.65994 3C7.65994 3.26522 7.7653 3.51957 7.95283 3.70711C8.14037 3.89465 8.39472 4 8.65994 4H15.9999V6H12.6599C12.3947 6 12.1404 6.10536 11.9528 6.2929C11.7653 6.48043 11.6599 6.73479 11.6599 7C11.6599 7.26522 11.7653 7.51957 11.9528 7.70711C12.1404 7.89465 12.3947 8 12.6599 8H18.9999C19.2652 8 19.5195 8.10536 19.707 8.2929C19.8946 8.48043 19.9999 8.73479 19.9999 9V15C20.0054 15.0365 20.0054 15.0735 19.9999 15.11C19.9736 15.2387 19.973 15.3713 19.9979 15.5003C20.0229 15.6292 20.0731 15.752 20.1455 15.8616C20.2179 15.9712 20.3112 16.0654 20.4201 16.1389C20.529 16.2124 20.6512 16.2638 20.7799 16.29H20.9799C21.2139 16.2947 21.4421 16.2172 21.6248 16.0711C21.8075 15.9249 21.9332 15.7193 21.9799 15.49C22.0007 15.3276 22.0074 15.1636 21.9999 15V9C21.9999 8.20435 21.6839 7.44129 21.1213 6.87868C20.5587 6.31607 19.7956 6 18.9999 6Z" fill="black"/>
</svg>
