<svg width="24" height="24" viewBox="0 0 24 24" fill="none" xmlns="http://www.w3.org/2000/svg">
<path d="M19.5 4H10C9.73479 4 9.48043 4.10536 9.2929 4.2929C9.10536 4.48043 9 4.73479 9 5C9 5.26522 9.10536 5.51957 9.2929 5.70711C9.48043 5.89465 9.73479 6 10 6H19.5C19.7652 6 20.0196 6.10536 20.2071 6.2929C20.3946 6.48043 20.5 6.73479 20.5 7V13.76L18.62 11.88C18.2985 11.5602 17.9088 11.3175 17.48 11.17C17.3552 11.128 17.2234 11.1109 17.0921 11.1199C16.9608 11.1288 16.8325 11.1635 16.7145 11.222C16.5966 11.2805 16.4913 11.3616 16.4048 11.4608C16.3182 11.56 16.252 11.6752 16.21 11.8C16.168 11.9248 16.1509 12.0566 16.1599 12.1879C16.1688 12.3193 16.2035 12.4475 16.262 12.5655C16.3205 12.6834 16.4016 12.7887 16.5008 12.8752C16.6 12.9618 16.7152 13.028 16.84 13.07C16.9782 13.1135 17.1024 13.1929 17.2 13.3L20.51 16.59C20.5043 16.6398 20.5043 16.6902 20.51 16.74C20.5055 16.7899 20.5055 16.8401 20.51 16.89C20.5476 16.954 20.5911 17.0142 20.64 17.07C20.6644 17.1109 20.6947 17.148 20.73 17.18C20.79 17.2355 20.8573 17.2826 20.93 17.32C20.9645 17.3438 21.0013 17.3639 21.04 17.38C21.1564 17.4323 21.2824 17.4596 21.41 17.46C21.6752 17.46 21.9296 17.3546 22.1171 17.1671C22.3046 16.9796 22.41 16.7252 22.41 16.46V7C22.4104 6.2197 22.1067 5.46997 21.5634 4.90988C21.0201 4.34979 20.2799 4.02341 19.5 4ZM3.21 2.29C3.0217 2.1017 2.7663 1.99591 2.5 1.99591C2.2337 1.99591 1.97831 2.1017 1.79 2.29C1.6017 2.47831 1.49591 2.7337 1.49591 3C1.49591 3.2663 1.6017 3.5217 1.79 3.71L3.18 5.1C2.74073 5.63581 2.50046 6.30715 2.5 7V17C2.5 17.7957 2.81607 18.5587 3.37868 19.1213C3.94129 19.6839 4.70435 20 5.5 20H18.09L19.79 21.71C19.883 21.8037 19.9936 21.8781 20.1154 21.9289C20.2373 21.9797 20.368 22.0058 20.5 22.0058C20.632 22.0058 20.7627 21.9797 20.8846 21.9289C21.0064 21.8781 21.117 21.8037 21.21 21.71C21.3037 21.617 21.3781 21.5064 21.4289 21.3846C21.4797 21.2627 21.5058 21.132 21.5058 21C21.5058 20.868 21.4797 20.7373 21.4289 20.6154C21.3781 20.4936 21.3037 20.383 21.21 20.29L3.21 2.29ZM4.5 7C4.50244 6.83925 4.54361 6.68146 4.62 6.54L7.34 9.25C6.96819 9.39161 6.62826 9.60577 6.34 9.88L4.5 11.76V7ZM5.5 18C5.23479 18 4.98043 17.8946 4.7929 17.7071C4.60536 17.5196 4.5 17.2652 4.5 17V14.58L7.8 11.29C7.98693 11.1068 8.23825 11.0041 8.5 11.0041C8.76175 11.0041 9.01307 11.1068 9.2 11.29L15.91 18H5.5Z" fill="black"/>
</svg>
