<svg width="24" height="24" viewBox="0 0 24 24" fill="none" xmlns="http://www.w3.org/2000/svg">
<path d="M11.6599 7H14.9999V8C14.9999 8.26522 15.1053 8.51957 15.2928 8.70711C15.4804 8.89465 15.7347 9 15.9999 9C16.2652 9 16.5195 8.89465 16.707 8.70711C16.8946 8.51957 16.9999 8.26522 16.9999 8V7H17.9999C18.2652 7 18.5195 7.10536 18.707 7.2929C18.8946 7.48043 18.9999 7.73479 18.9999 8V11H17.6599C17.3947 11 17.1404 11.1054 16.9528 11.2929C16.7653 11.4804 16.6599 11.7348 16.6599 12C16.6599 12.2652 16.7653 12.5196 16.9528 12.7071C17.1404 12.8946 17.3947 13 17.6599 13H18.9999V14.34C18.9999 14.6052 19.1053 14.8596 19.2928 15.0471C19.4804 15.2346 19.7347 15.34 19.9999 15.34C20.2652 15.34 20.5195 15.2346 20.707 15.0471C20.8946 14.8596 20.9999 14.6052 20.9999 14.34V8C20.9999 7.20435 20.6839 6.44129 20.1213 5.87868C19.5587 5.31607 18.7956 5 17.9999 5H16.9999V4C16.9999 3.73479 16.8946 3.48043 16.707 3.2929C16.5195 3.10536 16.2652 3 15.9999 3C15.7347 3 15.4804 3.10536 15.2928 3.2929C15.1053 3.48043 14.9999 3.73479 14.9999 4V5H11.6599C11.3947 5 11.1404 5.10536 10.9528 5.2929C10.7653 5.48043 10.6599 5.73479 10.6599 6C10.6599 6.26522 10.7653 6.51957 10.9528 6.70711C11.1404 6.89465 11.3947 7 11.6599 7ZM21.7099 20.29L20.1099 18.69L3.70994 2.29C3.6167 2.19676 3.50601 2.1228 3.38419 2.07234C3.26237 2.02188 3.1318 1.99591 2.99994 1.99591C2.86808 1.99591 2.73751 2.02188 2.61569 2.07234C2.49387 2.1228 2.38318 2.19676 2.28994 2.29C2.10164 2.47831 1.99585 2.7337 1.99585 3C1.99585 3.2663 2.10164 3.5217 2.28994 3.71L4.19994 5.61C3.8287 5.88843 3.52711 6.24918 3.31889 6.66389C3.11067 7.0786 3.00149 7.53596 2.99994 8V18C2.99994 18.7957 3.31601 19.5587 3.87862 20.1213C4.44123 20.6839 5.20429 21 5.99994 21H17.9999C18.4469 20.9974 18.8877 20.8949 19.2899 20.7L20.2899 21.7C20.3829 21.7937 20.4935 21.8681 20.6154 21.9189C20.7372 21.9697 20.8679 21.9958 20.9999 21.9958C21.132 21.9958 21.2627 21.9697 21.3845 21.9189C21.5064 21.8681 21.617 21.7937 21.7099 21.7C21.8962 21.5126 22.0007 21.2592 22.0007 20.995C22.0007 20.7308 21.8962 20.4774 21.7099 20.29ZM4.99994 8C5.00207 7.7962 5.06642 7.59791 5.18438 7.4317C5.30234 7.26549 5.46827 7.13929 5.65994 7.07L9.58994 11H4.99994V8ZM5.99994 19C5.73472 19 5.48037 18.8946 5.29283 18.7071C5.1053 18.5196 4.99994 18.2652 4.99994 18V13H11.5899L17.5899 19H5.99994Z" fill="black"/>
</svg>
