<svg width="24" height="24" viewBox="0 0 24 24" fill="none" xmlns="http://www.w3.org/2000/svg">
<path d="M11.6199 7.92C11.7402 7.97124 11.8693 7.99842 11.9999 8H17.9999C18.2652 8 18.5195 8.10536 18.707 8.2929C18.8946 8.48043 18.9999 8.73479 18.9999 9V14.34C18.9999 14.6052 19.1053 14.8596 19.2928 15.0471C19.4804 15.2346 19.7347 15.34 19.9999 15.34C20.2652 15.34 20.5195 15.2346 20.707 15.0471C20.8946 14.8596 20.9999 14.6052 20.9999 14.34V9C20.9999 8.20435 20.6839 7.44129 20.1213 6.87868C19.5587 6.31607 18.7956 6 17.9999 6H14.4099L16.7099 3.71C16.8032 3.61676 16.8771 3.50607 16.9276 3.38425C16.9781 3.26243 17.004 3.13186 17.004 3C17.004 2.86814 16.9781 2.73758 16.9276 2.61575C16.8771 2.49393 16.8032 2.38324 16.7099 2.29C16.6167 2.19676 16.506 2.1228 16.3842 2.07234C16.2624 2.02188 16.1318 1.99591 15.9999 1.99591C15.7336 1.99591 15.4782 2.1017 15.2899 2.29L11.2899 6.29C11.1989 6.38511 11.1275 6.49725 11.0799 6.62C10.9799 6.86346 10.9799 7.13654 11.0799 7.38C11.1814 7.62435 11.3756 7.81853 11.6199 7.92ZM21.7099 20.29L3.70994 2.29C3.52164 2.1017 3.26624 1.99591 2.99994 1.99591C2.73364 1.99591 2.47824 2.1017 2.28994 2.29C2.10164 2.47831 1.99585 2.7337 1.99585 3C1.99585 3.2663 2.10164 3.5217 2.28994 3.71L4.82994 6.24C4.2877 6.46966 3.82503 6.85383 3.49962 7.34462C3.1742 7.83542 3.00042 8.41113 2.99994 9V17C2.99994 17.7957 3.31601 18.5587 3.87862 19.1213C4.44123 19.6839 5.20429 20 5.99994 20V21C5.99994 21.2652 6.1053 21.5196 6.29283 21.7071C6.48037 21.8946 6.73472 22 6.99994 22C7.26516 22 7.51951 21.8946 7.70705 21.7071C7.89458 21.5196 7.99994 21.2652 7.99994 21V20H15.9999V21C15.9999 21.2652 16.1053 21.5196 16.2928 21.7071C16.4804 21.8946 16.7347 22 16.9999 22C17.2652 22 17.5195 21.8946 17.707 21.7071C17.8946 21.5196 17.9999 21.2652 17.9999 21V20C18.178 19.9954 18.3554 19.9753 18.5299 19.94L20.2899 21.71C20.3829 21.8037 20.4935 21.8781 20.6154 21.9289C20.7372 21.9797 20.8679 22.0058 20.9999 22.0058C21.132 22.0058 21.2627 21.9797 21.3845 21.9289C21.5064 21.8781 21.617 21.8037 21.7099 21.71C21.8037 21.617 21.8781 21.5064 21.9288 21.3846C21.9796 21.2627 22.0057 21.132 22.0057 21C22.0057 20.868 21.9796 20.7373 21.9288 20.6154C21.8781 20.4936 21.8037 20.383 21.7099 20.29ZM5.99994 18C5.73472 18 5.48037 17.8946 5.29283 17.7071C5.1053 17.5196 4.99994 17.2652 4.99994 17V9C4.99994 8.73479 5.1053 8.48043 5.29283 8.2929C5.48037 8.10536 5.73472 8 5.99994 8H6.58994L16.5899 18H5.99994Z" fill="black"/>
</svg>
