<svg width="24" height="24" viewBox="0 0 24 24" fill="none" xmlns="http://www.w3.org/2000/svg">
<path d="M21.71 20.29L3.71 2.29C3.5217 2.1017 3.2663 1.99591 3 1.99591C2.7337 1.99591 2.47831 2.1017 2.29 2.29C2.1017 2.47831 1.99591 2.7337 1.99591 3C1.99591 3.2663 2.1017 3.5217 2.29 3.71L6.29 7.71C5.02104 9.66941 4.32805 11.9459 4.29 14.28C4.30049 16.3225 5.11584 18.2785 6.5592 19.7238C8.00255 21.169 9.95751 21.9869 12 22C13.1171 22.0049 14.2216 21.7648 15.2358 21.2965C16.25 20.8283 17.1492 20.1434 17.87 19.29L20.29 21.71C20.383 21.8037 20.4936 21.8781 20.6154 21.9289C20.7373 21.9797 20.868 22.0058 21 22.0058C21.132 22.0058 21.2627 21.9797 21.3846 21.9289C21.5064 21.8781 21.617 21.8037 21.71 21.71C21.8037 21.617 21.8781 21.5064 21.9289 21.3846C21.9797 21.2627 22.0058 21.132 22.0058 21C22.0058 20.868 21.9797 20.7373 21.9289 20.6154C21.8781 20.4936 21.8037 20.383 21.71 20.29ZM12 20C10.4758 19.9974 9.01482 19.3907 7.93706 18.3129C6.8593 17.2352 6.25265 15.7742 6.25 14.25C6.28432 12.4474 6.79121 10.6853 7.72 9.14L16.46 17.87C15.9256 18.5387 15.2467 19.0777 14.4743 19.4465C13.7019 19.8154 12.856 20.0047 12 20ZM10.85 5.24C11.3 4.82 11.7 4.49 12 4.24C13.43 5.36 17.13 8.67 17.68 13.12C17.7095 13.3639 17.8277 13.5884 18.0122 13.7507C18.1966 13.913 18.4343 14.0018 18.68 14H18.8C19.0623 13.9675 19.301 13.8325 19.464 13.6245C19.627 13.4165 19.7011 13.1524 19.67 12.89C18.89 6.46 12.82 2.34 12.57 2.17C12.4046 2.05823 12.2096 1.99849 12.01 1.99849C11.8104 1.99849 11.6154 2.05823 11.45 2.17C10.761 2.66176 10.1062 3.19966 9.49 3.78C9.3169 3.96499 9.22046 4.20878 9.22017 4.46213C9.21988 4.71548 9.31576 4.9595 9.48844 5.14488C9.66113 5.33026 9.89774 5.44319 10.1505 5.46084C10.4032 5.4785 10.6532 5.39957 10.85 5.24Z" fill="black"/>
</svg>
