<svg width="24" height="24" viewBox="0 0 24 24" fill="none" xmlns="http://www.w3.org/2000/svg">
<path d="M21.71 20.29L5.71 4.29L3.71 2.29C3.52169 2.1017 3.2663 1.99591 3 1.99591C2.7337 1.99591 2.4783 2.1017 2.29 2.29C2.10169 2.47831 1.99591 2.7337 1.99591 3C1.99591 3.2663 2.10169 3.5217 2.29 3.71L4 5.41V11.88C4.0007 13.3121 4.34313 14.7233 4.99882 15.9964C5.65452 17.2695 6.60455 18.3678 7.77 19.2L11.42 21.81C11.5894 21.9306 11.7921 21.9954 12 21.9954C12.2079 21.9954 12.4106 21.9306 12.58 21.81L16.23 19.2C16.5321 18.9863 16.8194 18.7524 17.09 18.5L20.29 21.71C20.383 21.8037 20.4936 21.8781 20.6154 21.9289C20.7373 21.9797 20.868 22.0058 21 22.0058C21.132 22.0058 21.2627 21.9797 21.3846 21.9289C21.5064 21.8781 21.617 21.8037 21.71 21.71C21.8037 21.617 21.8781 21.5064 21.9289 21.3846C21.9797 21.2627 22.0058 21.132 22.0058 21C22.0058 20.868 21.9797 20.7373 21.9289 20.6154C21.8781 20.4936 21.8037 20.383 21.71 20.29ZM15.07 17.58L12 19.77L8.93 17.58C8.02304 16.9319 7.28398 16.0765 6.77435 15.085C6.26471 14.0936 5.99923 12.9948 6 11.88V7.41L15.67 17.09C15.48 17.26 15.28 17.42 15.07 17.58ZM10.07 5.07C10.7423 4.84488 11.3892 4.54994 12 4.19C13.7992 5.28475 15.9027 5.77206 18 5.58V11.88C18.0006 12.2755 17.9672 12.6703 17.9 13.06C17.8786 13.1901 17.8831 13.3231 17.9133 13.4514C17.9435 13.5797 17.9987 13.7007 18.0759 13.8076C18.153 13.9145 18.2505 14.005 18.3628 14.0741C18.475 14.1432 18.5998 14.1893 18.73 14.21H18.89C19.1297 14.2131 19.3625 14.13 19.5461 13.9758C19.7296 13.8216 19.8517 13.6066 19.89 13.37C19.9685 12.8738 20.0086 12.3723 20.01 11.87V4.43C20.009 4.2823 19.9753 4.13664 19.9114 4.0035C19.8474 3.87037 19.7547 3.75306 19.64 3.66C19.5258 3.56574 19.3921 3.498 19.2486 3.46169C19.1051 3.42537 18.9553 3.42138 18.81 3.45C17.7403 3.68205 16.634 3.68897 15.5614 3.47033C14.4889 3.25169 13.4735 2.81227 12.58 2.18C12.4126 2.06387 12.2137 2.00165 12.01 2.00165C11.8063 2.00165 11.6074 2.06387 11.44 2.18C10.8234 2.60532 10.1502 2.94194 9.44 3.18C9.31524 3.22203 9.19999 3.28821 9.10081 3.37478C9.00163 3.46134 8.92047 3.56659 8.86197 3.68452C8.80347 3.80246 8.76877 3.93075 8.75985 4.06209C8.75094 4.19344 8.76798 4.32525 8.81 4.45C8.85202 4.57476 8.91821 4.69002 9.00477 4.78919C9.09134 4.88837 9.19659 4.96953 9.31452 5.02803C9.55269 5.14618 9.82804 5.16487 10.08 5.08L10.07 5.07Z" fill="black"/>
</svg>
