<svg width="24" height="24" viewBox="0 0 24 24" fill="none" xmlns="http://www.w3.org/2000/svg">
<path d="M12 7.33C12.2652 7.33 12.5195 7.22464 12.7071 7.03711C12.8946 6.84957 13 6.59522 13 6.33V5.78L19 4.28V7.22L14.7 8.3C14.4347 8.33183 14.193 8.46771 14.028 8.67775C13.863 8.88779 13.7881 9.15478 13.82 9.42C13.8518 9.68522 13.9877 9.92693 14.1977 10.092C14.4077 10.257 14.6747 10.3318 14.94 10.3H15.18L20.24 9H20.31L20.5 8.91L20.65 8.81C20.6985 8.76478 20.7421 8.71449 20.78 8.66C20.819 8.61403 20.8525 8.5637 20.88 8.51C20.9102 8.45393 20.9305 8.39302 20.94 8.33C20.9493 8.26701 20.9493 8.20299 20.94 8.14C20.9746 8.10109 20.9957 8.05194 21 8V3C21.0045 2.84581 20.9733 2.69265 20.9088 2.55253C20.8443 2.4124 20.7482 2.28909 20.6281 2.19225C20.5081 2.09542 20.3672 2.02767 20.2166 1.99432C20.066 1.96097 19.9097 1.96291 19.76 2L11.76 4C11.5381 4.05475 11.3417 4.18385 11.2034 4.36579C11.0651 4.54774 10.9933 4.77157 11 5V6.33C11 6.59522 11.1053 6.84957 11.2929 7.03711C11.4804 7.22464 11.7347 7.33 12 7.33ZM21.71 20.33L12.71 11.33L3.70996 2.33C3.51948 2.18262 3.2822 2.10894 3.04175 2.1225C2.80129 2.13605 2.5738 2.23593 2.40109 2.40378C2.22838 2.57162 2.12204 2.79617 2.10162 3.03614C2.08121 3.27611 2.14808 3.51539 2.28996 3.71L11 12.41V15.35C10.5327 15.1218 10.0199 15.0021 9.49996 15C8.80772 15 8.13103 15.2053 7.55546 15.5899C6.97989 15.9744 6.53129 16.5211 6.26638 17.1606C6.00147 17.8002 5.93216 18.5039 6.06721 19.1828C6.20226 19.8617 6.5356 20.4854 7.02508 20.9749C7.51457 21.4644 8.13821 21.7977 8.81714 21.9327C9.49607 22.0678 10.1998 21.9985 10.8393 21.7336C11.4789 21.4687 12.0255 21.0201 12.4101 20.4445C12.7947 19.8689 13 19.1922 13 18.5V14.41L20.29 21.71C20.3829 21.8037 20.4935 21.8781 20.6154 21.9289C20.7372 21.9797 20.8679 22.0058 21 22.0058C21.132 22.0058 21.2627 21.9797 21.3845 21.9289C21.5064 21.8781 21.617 21.8037 21.71 21.71C21.8037 21.617 21.8781 21.5064 21.9288 21.3846C21.9796 21.2627 22.0058 21.132 22.0058 21C22.0058 20.868 21.9796 20.7373 21.9288 20.6154C21.8781 20.4936 21.8037 20.383 21.71 20.29V20.33ZM9.49996 20C9.20328 20 8.91328 19.912 8.6666 19.7472C8.41993 19.5824 8.22767 19.3481 8.11414 19.074C8.00061 18.7999 7.9709 18.4983 8.02878 18.2074C8.08666 17.9164 8.22952 17.6491 8.4393 17.4393C8.64908 17.2296 8.91635 17.0867 9.20732 17.0288C9.49829 16.9709 9.79989 17.0007 10.074 17.1142C10.3481 17.2277 10.5823 17.42 10.7472 17.6666C10.912 17.9133 11 18.2033 11 18.5C11 18.8978 10.8419 19.2794 10.5606 19.5607C10.2793 19.842 9.89778 20 9.49996 20Z" fill="black"/>
</svg>
