<svg width="24" height="24" viewBox="0 0 24 24" fill="none" xmlns="http://www.w3.org/2000/svg">
<path d="M20.54 2.46C19.7231 1.64108 18.6476 1.1307 17.4967 1.0158C16.3458 0.900901 15.1906 1.18859 14.228 1.82986C13.2653 2.47112 12.5548 3.4263 12.2174 4.53267C11.8801 5.63904 11.9367 6.82815 12.3777 7.89745C12.8187 8.96674 13.6168 9.85006 14.636 10.3969C15.6552 10.9438 16.8325 11.1204 17.9673 10.8966C19.1022 10.6728 20.1243 10.0625 20.8596 9.16968C21.5949 8.27683 21.9979 7.15666 22 6C22.0012 5.34295 21.8728 4.69211 21.6223 4.08469C21.3718 3.47728 21.004 2.92519 20.54 2.46ZM14 6C14 5.20435 14.3161 4.44129 14.8787 3.87868C15.4413 3.31607 16.2044 3 17 3C17.447 3.00265 17.8877 3.10515 18.29 3.3L14.29 7.3C14.0971 6.89387 13.998 6.44959 14 6ZM19.12 8.12C18.6747 8.54325 18.1131 8.82368 17.5072 8.92526C16.9013 9.02683 16.2789 8.9449 15.72 8.69L19.72 4.69C19.9109 5.09998 20.0066 5.54781 20 6C19.9993 6.79538 19.6828 7.55793 19.12 8.12ZM19 13C18.7348 13 18.4804 13.1054 18.2929 13.2929C18.1054 13.4804 18 13.7348 18 14V14.39L16.52 12.9C15.9878 12.4001 15.2851 12.1218 14.555 12.1218C13.8249 12.1218 13.1222 12.4001 12.59 12.9L11.89 13.61L9.41 11.12C8.87783 10.6201 8.17514 10.3418 7.445 10.3418C6.71486 10.3418 6.01217 10.6201 5.48 11.12L4 12.61V7C4 6.73478 4.10536 6.48043 4.29289 6.29289C4.48043 6.10536 4.73478 6 5 6H9C9.26522 6 9.51957 5.89464 9.70711 5.70711C9.89464 5.51957 10 5.26522 10 5C10 4.73478 9.89464 4.48043 9.70711 4.29289C9.51957 4.10536 9.26522 4 9 4H5C4.20435 4 3.44129 4.31607 2.87868 4.87868C2.31607 5.44129 2 6.20435 2 7V19C2 19.7956 2.31607 20.5587 2.87868 21.1213C3.44129 21.6839 4.20435 22 5 22H17C17.3238 21.995 17.6446 21.9376 17.95 21.83H18.04C18.5528 21.647 19.0062 21.3279 19.3515 20.9068C19.6968 20.4858 19.921 19.9787 20 19.44C20.0056 19.3668 20.0056 19.2932 20 19.22V14C20 13.7348 19.8946 13.4804 19.7071 13.2929C19.5196 13.1054 19.2652 13 19 13ZM5 20C4.73478 20 4.48043 19.8946 4.29289 19.7071C4.10536 19.5196 4 19.2652 4 19V15.43L6.9 12.54C7.04691 12.4 7.24206 12.3219 7.445 12.3219C7.64794 12.3219 7.84309 12.4 7.99 12.54L11.18 15.72L15.46 20H5ZM18 19C17.9936 19.1936 17.931 19.3812 17.82 19.54L13.3 15L14.01 14.3C14.1569 14.16 14.3521 14.0819 14.555 14.0819C14.7579 14.0819 14.9531 14.16 15.1 14.3L18 17.21V19Z" fill="black"/>
</svg>
