<svg width="24" height="24" viewBox="0 0 24 24" fill="none" xmlns="http://www.w3.org/2000/svg">
<path d="M10.6 5.63C10.3348 5.67774 10.0994 5.82888 9.94561 6.05017C9.79183 6.27147 9.73226 6.54478 9.78 6.81C9.82774 7.07522 9.97888 7.31061 10.2002 7.46439C10.4215 7.61817 10.6948 7.67774 10.96 7.63C11.2903 7.57293 11.6248 7.54283 11.96 7.54C13.5513 7.54 15.0774 8.17214 16.2026 9.29736C17.3279 10.4226 17.96 11.9487 17.96 13.54C17.9572 13.8752 17.9271 14.2097 17.87 14.54C17.8232 14.7998 17.8811 15.0675 18.031 15.2848C18.1808 15.5021 18.4105 15.6514 18.67 15.7H18.85C19.0868 15.7039 19.3173 15.6236 19.5004 15.4734C19.6835 15.3232 19.8074 15.113 19.85 14.88C19.9428 14.4257 19.9931 13.9637 20 13.5C19.9954 11.7198 19.3972 9.99193 18.3 8.59L19.21 7.69C19.3983 7.5017 19.5041 7.2463 19.5041 6.98C19.5041 6.7137 19.3983 6.4583 19.21 6.27C19.0217 6.0817 18.7663 5.97591 18.5 5.97591C18.2337 5.97591 17.9783 6.0817 17.79 6.27L16.89 7.18C15.4909 6.09417 13.771 5.50329 12 5.5C11.5303 5.4991 11.0615 5.54263 10.6 5.63ZM10 4.5H14C14.2652 4.5 14.5196 4.39464 14.7071 4.20711C14.8946 4.01957 15 3.76522 15 3.5C15 3.23478 14.8946 2.98043 14.7071 2.79289C14.5196 2.60536 14.2652 2.5 14 2.5H10C9.73478 2.5 9.48043 2.60536 9.29289 2.79289C9.10536 2.98043 9 3.23478 9 3.5C9 3.76522 9.10536 4.01957 9.29289 4.20711C9.48043 4.39464 9.73478 4.5 10 4.5ZM13.49 13.58C13.49 13.58 13.49 13.53 13.49 13.5C13.49 13.47 13.49 13.45 13.49 13.42L14.83 12.09C14.9232 11.9968 14.9972 11.8861 15.0477 11.7642C15.0981 11.6424 15.1241 11.5119 15.1241 11.38C15.1241 11.2481 15.0981 11.1176 15.0477 10.9958C14.9972 10.8739 14.9232 10.7632 14.83 10.67C14.7368 10.5768 14.6261 10.5028 14.5042 10.4523C14.3824 10.4019 14.2519 10.3759 14.12 10.3759C13.9881 10.3759 13.8576 10.4019 13.7357 10.4523C13.6139 10.5028 13.5032 10.5768 13.41 10.67L12.08 12H11.92L5.71 5.79C5.52169 5.6017 5.2663 5.49591 5 5.49591C4.7337 5.49591 4.4783 5.6017 4.29 5.79C4.10169 5.9783 3.99591 6.2337 3.99591 6.5C3.99591 6.7663 4.10169 7.0217 4.29 7.21L4.77 7.69L5.68 8.6C4.49347 10.1396 3.90806 12.0585 4.03315 13.9983C4.15824 15.938 4.98526 17.7658 6.35971 19.1403C7.73416 20.5147 9.562 21.3418 11.5017 21.4669C13.4415 21.5919 15.3604 21.0065 16.9 19.82L18.29 21.21C18.383 21.3037 18.4936 21.3781 18.6154 21.4289C18.7373 21.4797 18.868 21.5058 19 21.5058C19.132 21.5058 19.2627 21.4797 19.3846 21.4289C19.5064 21.3781 19.617 21.3037 19.71 21.21C19.8037 21.117 19.8781 21.0064 19.9289 20.8846C19.9797 20.7627 20.0058 20.632 20.0058 20.5C20.0058 20.368 19.9797 20.2373 19.9289 20.1154C19.8781 19.9936 19.8037 19.883 19.71 19.79L13.49 13.58ZM12 19.5C10.8949 19.5031 9.81033 19.2008 8.86605 18.6266C7.92177 18.0525 7.15442 17.2286 6.64863 16.246C6.14284 15.2634 5.91827 14.1602 5.99968 13.058C6.08109 11.9559 6.46532 10.8976 7.11 10L10.51 13.39C10.51 13.39 10.51 13.44 10.51 13.47C10.506 13.6687 10.5415 13.8661 10.6145 14.0509C10.6875 14.2357 10.7965 14.4042 10.9351 14.5466C11.0737 14.6889 11.2392 14.8023 11.422 14.8801C11.6049 14.958 11.8013 14.9987 12 15H12.08L15.47 18.4C14.4552 19.1172 13.2427 19.5015 12 19.5Z" fill="black"/>
</svg>
