<svg width="24" height="24" viewBox="0 0 24 24" fill="none" xmlns="http://www.w3.org/2000/svg">
<path d="M11.9707 5.00049C8.32717 5.00049 8.32717 10.1226 8.32717 11.8579C8.32717 13.811 8.32717 19.0005 11.9873 19.0005C15.6416 19.0005 15.6416 13.8384 15.6416 11.895C15.6416 7.31982 14.4063 5.00049 11.9707 5.00049ZM11.9873 17.0005C10.8858 17.0005 10.3272 15.27 10.3272 11.8052C10.3272 9.61377 10.6123 7.00049 11.9707 7.00049C13.4248 7.00049 13.6416 10.0669 13.6416 11.895C13.6416 15.2827 13.085 17.0005 11.9873 17.0005ZM11.9883 1.00049C5.93654 1.00049 1.71002 5.48193 1.71002 11.8989C1.71002 17.3559 5.5567 23.0005 11.9952 23.0005C18.4288 23.0005 22.2735 17.356 22.2735 11.8989C22.2735 5.48193 18.044 1.00049 11.9883 1.00049H11.9883ZM11.9952 21.0005C6.80863 21.0005 3.71 16.3726 3.71 11.8989C3.71 6.57666 7.03715 3.00049 11.9883 3.00049C16.9444 3.00049 20.2735 6.57666 20.2735 11.8989C20.2735 16.3726 17.1768 21.0005 11.9951 21.0005H11.9952Z" fill="black"/>
</svg>
