<svg width="24" height="24" viewBox="0 0 24 24" fill="none" xmlns="http://www.w3.org/2000/svg">
<path d="M2.50001 10.56L11.5 15.76C11.652 15.8478 11.8245 15.894 12 15.894C12.1755 15.894 12.348 15.8478 12.5 15.76L21.5 10.56C21.6516 10.4721 21.7773 10.3459 21.8648 10.1941C21.9522 10.0423 21.9982 9.8702 21.9982 9.69501C21.9982 9.51982 21.9522 9.3477 21.8648 9.19589C21.7773 9.04409 21.6516 8.91791 21.5 8.83001L12.5 3.63001C12.348 3.54224 12.1755 3.49603 12 3.49603C11.8245 3.49603 11.652 3.54224 11.5 3.63001L2.50001 8.83001C2.34847 8.91791 2.22269 9.04409 2.13525 9.19589C2.04781 9.3477 2.00178 9.51982 2.00178 9.69501C2.00178 9.8702 2.04781 10.0423 2.13525 10.1941C2.22269 10.3459 2.34847 10.4721 2.50001 10.56ZM12 5.65001L19 9.65001L12 13.7L5.00001 9.69001L12 5.65001ZM20.5 13.44L12 18.35L3.50001 13.44C3.38647 13.3735 3.26092 13.33 3.13055 13.3121C3.00018 13.2942 2.86756 13.3022 2.74028 13.3356C2.61301 13.3691 2.49358 13.4273 2.38886 13.507C2.28414 13.5867 2.19617 13.6863 2.13001 13.8C2.06389 13.9141 2.02101 14.0402 2.00382 14.171C1.98664 14.3018 1.9955 14.4347 2.02989 14.562C2.06428 14.6894 2.12352 14.8086 2.20421 14.913C2.28489 15.0173 2.38542 15.1047 2.50001 15.17L11.5 20.37C11.652 20.4578 11.8245 20.504 12 20.504C12.1755 20.504 12.348 20.4578 12.5 20.37L21.5 15.17C21.6146 15.1047 21.7151 15.0173 21.7958 14.913C21.8765 14.8086 21.9357 14.6894 21.9701 14.562C22.0045 14.4347 22.0134 14.3018 21.9962 14.171C21.979 14.0402 21.9361 13.9141 21.87 13.8C21.8038 13.6863 21.7159 13.5867 21.6112 13.507C21.5064 13.4273 21.387 13.3691 21.2597 13.3356C21.1325 13.3022 20.9998 13.2942 20.8695 13.3121C20.7391 13.33 20.6135 13.3735 20.5 13.44Z" fill="black"/>
</svg>
