<svg width="24" height="24" viewBox="0 0 24 24" fill="none" xmlns="http://www.w3.org/2000/svg">
<path d="M21.54 5.16001C21.3942 5.06137 21.225 5.00295 21.0494 4.99066C20.8738 4.97837 20.6981 5.01264 20.54 5.09001C17.8367 6.21897 14.9292 6.77731 12 6.73001C9.05735 6.78284 6.13575 6.2244 3.42001 5.09001C3.26191 5.01264 3.08619 4.97837 2.91061 4.99066C2.73502 5.00295 2.56579 5.06137 2.42001 5.16001C2.28658 5.25494 2.1785 5.38118 2.10527 5.52764C2.03204 5.67411 1.99589 5.83631 2.00001 6.00001V18C2.00029 18.1673 2.04255 18.3319 2.12291 18.4787C2.20328 18.6254 2.31918 18.7497 2.46001 18.84C2.60579 18.9387 2.77502 18.9971 2.95061 19.0094C3.12619 19.0217 3.30191 18.9874 3.46001 18.91C6.16336 17.7811 9.07078 17.2227 12 17.27C14.9427 17.2172 17.8643 17.7756 20.58 18.91C20.7124 18.9684 20.8553 18.999 21 19C21.1916 18.9995 21.3791 18.944 21.54 18.84C21.6808 18.7497 21.7967 18.6254 21.8771 18.4787C21.9575 18.3319 21.9997 18.1673 22 18V6.00001C21.9997 5.8327 21.9575 5.66812 21.8771 5.52137C21.7967 5.37461 21.6808 5.25037 21.54 5.16001ZM20 16.52C17.42 15.6674 14.7172 15.2451 12 15.27C9.28283 15.2451 6.58006 15.6674 4.00001 16.52V7.52001C6.58006 8.37266 9.28283 8.79497 12 8.77002C14.7172 8.79497 17.42 8.37266 20 7.52001V16.52Z" fill="black"/>
</svg>
