<svg width="24" height="24" viewBox="0 0 24 24" fill="none" xmlns="http://www.w3.org/2000/svg">
<path d="M21.46 5.83C21.4313 5.63136 21.3434 5.44597 21.2079 5.29794C21.0723 5.14991 20.8954 5.0461 20.7 5H20.59C14.9406 3.67017 9.05948 3.67017 3.41001 5H3.30001C3.10882 5.04408 2.93482 5.14343 2.79968 5.28568C2.66455 5.42793 2.57424 5.6068 2.54001 5.8C1.82004 9.88182 1.82004 14.0582 2.54001 18.14C2.57424 18.3332 2.66455 18.5121 2.79968 18.6543C2.93482 18.7966 3.10882 18.8959 3.30001 18.94H3.41001C6.22303 19.6226 9.10544 19.9783 12 20C14.8923 19.998 17.7746 19.6624 20.59 19H20.7C20.8912 18.9559 21.0652 18.8566 21.2003 18.7143C21.3355 18.5721 21.4258 18.3932 21.46 18.2C22.1835 14.1084 22.1835 9.92159 21.46 5.83ZM19.6 17.17C14.593 18.2699 9.40698 18.2699 4.40001 17.17C3.86 13.7445 3.86 10.2555 4.40001 6.82999C9.40698 5.73004 14.593 5.73004 19.6 6.82999C20.14 10.2555 20.14 13.7445 19.6 17.17Z" fill="black"/>
</svg>
