<svg width="24" height="24" viewBox="0 0 24 24" fill="none" xmlns="http://www.w3.org/2000/svg">
<path d="M20.437 7.10449C20.2644 6.91091 20.0725 6.7354 19.8642 6.58069C19.9497 5.91079 19.8906 5.23035 19.6909 4.58522C19.4912 3.9401 19.1556 3.34527 18.7066 2.84082C17.6226 1.61914 15.7749 1 13.2144 1H7.00053C6.55161 1.0012 6.11774 1.16195 5.77641 1.45354C5.43509 1.74514 5.20854 2.14858 5.13725 2.5918L2.5474 18.9981C2.51076 19.218 2.52252 19.4432 2.58185 19.6581C2.64119 19.873 2.74668 20.0724 2.89096 20.2423C3.03525 20.4123 3.21486 20.5487 3.41728 20.6421C3.61971 20.7355 3.84006 20.7837 4.063 20.7832H6.72709L6.64509 21.3037C6.61193 21.5131 6.62455 21.7272 6.68207 21.9312C6.73959 22.1352 6.84065 22.3244 6.9783 22.4856C7.11594 22.6468 7.28689 22.7763 7.47938 22.8651C7.67187 22.9539 7.88131 22.9999 8.0933 23H11.3277C11.7467 23.0033 12.1531 22.8572 12.474 22.5878C12.795 22.3185 13.0093 21.9435 13.0787 21.5303L13.7193 17.499L13.73 17.4443H14.0289C18.0611 17.4443 20.5797 15.4512 21.314 11.6816C21.5381 10.9035 21.5754 10.0835 21.423 9.28817C21.2707 8.49287 20.9328 7.74472 20.437 7.10449ZM7.84233 13.7041L7.12785 18.2394L7.04154 18.7832H4.606L7.09721 3H13.2144C15.1499 3 16.5318 3.4043 17.2066 4.16406C17.5251 4.53441 17.7472 4.97767 17.8533 5.4545C17.9593 5.93133 17.946 6.42696 17.8145 6.8974L17.7959 7.00964C17.7837 7.08612 17.7727 7.16083 17.7525 7.25586C17.5596 8.68478 16.8455 9.99202 15.7474 10.9264C14.5145 11.7837 13.0287 12.2005 11.5298 12.1094H9.70658C9.25636 12.1079 8.82055 12.268 8.47843 12.5607C8.1363 12.8533 7.91059 13.2591 7.84233 13.7041ZM19.3511 11.2988C18.8003 14.127 17.1089 15.4443 14.0288 15.4443H13.5454C13.126 15.4411 12.7192 15.5876 12.3982 15.8576C12.0772 16.1276 11.8631 16.5032 11.7944 16.917L11.145 20.9912L8.71733 21L9.19548 17.9661L9.80662 14.1133H11.5259C11.6827 14.1133 11.8213 14.0897 11.974 14.0843C12.3329 14.072 12.6906 14.0582 13.0267 14.0165C13.232 13.9909 13.4203 13.9443 13.617 13.9078C13.8896 13.8574 14.1623 13.8076 14.4181 13.7365C14.6085 13.6835 14.7861 13.6153 14.9672 13.5509C15.2065 13.466 15.442 13.3769 15.6648 13.2722C15.8328 13.1931 15.9928 13.1052 16.1513 13.0149C16.3623 12.8954 16.5668 12.7647 16.7637 12.6232C16.906 12.5206 17.0456 12.4153 17.1787 12.3022C17.3674 12.1396 17.5467 11.9663 17.7156 11.7833C17.8286 11.6628 17.9443 11.5458 18.0489 11.4161C18.2225 11.1949 18.3828 10.9636 18.5289 10.7234C18.6054 10.6012 18.6902 10.4882 18.7606 10.3596C18.9631 9.98894 19.1372 9.6034 19.2813 9.20634C19.29 9.18248 19.3024 9.16234 19.3109 9.13834C19.3149 9.12711 19.3208 9.11777 19.3247 9.10648C19.5229 9.8227 19.532 10.5781 19.3511 11.2988Z" fill="black"/>
</svg>
