<svg width="24" height="24" viewBox="0 0 24 24" fill="none" xmlns="http://www.w3.org/2000/svg">
<path d="M7.75781 10.7578C8.35115 10.7578 8.93117 10.5818 9.42452 10.2522C9.91787 9.92255 10.3024 9.45401 10.5294 8.90583C10.7565 8.35766 10.8159 7.75446 10.7002 7.17251C10.5844 6.59057 10.2987 6.05602 9.87913 5.63646C9.45957 5.21691 8.92502 4.93118 8.34308 4.81543C7.76114 4.69967 7.15794 4.75908 6.60976 4.98615C6.06158 5.21321 5.59305 5.59773 5.2634 6.09107C4.93376 6.58442 4.75781 7.16444 4.75781 7.75778C4.75868 8.55317 5.07503 9.31572 5.63745 9.87814C6.19987 10.4406 6.96243 10.7569 7.75781 10.7578ZM7.75781 6.75778C7.95559 6.75778 8.14893 6.81643 8.31338 6.92631C8.47783 7.0362 8.606 7.19237 8.68169 7.3751C8.75738 7.55783 8.77718 7.75889 8.7386 7.95287C8.70001 8.14686 8.60477 8.32504 8.46492 8.46489C8.32507 8.60474 8.14688 8.69998 7.9529 8.73857C7.75892 8.77715 7.55785 8.75735 7.37513 8.68166C7.1924 8.60598 7.03622 8.4778 6.92634 8.31335C6.81646 8.1489 6.75781 7.95557 6.75781 7.75778C6.75799 7.49262 6.8634 7.23837 7.0509 7.05087C7.2384 6.86337 7.49265 6.75796 7.75781 6.75778ZM16.2422 13.2422C15.6488 13.2422 15.0688 13.4181 14.5755 13.7478C14.0821 14.0774 13.6976 14.5459 13.4706 15.0941C13.2435 15.6423 13.1841 16.2455 13.2998 16.8274C13.4156 17.4094 13.7013 17.9439 14.1209 18.3635C14.5404 18.783 15.075 19.0688 15.6569 19.1845C16.2389 19.3003 16.8421 19.2409 17.3902 19.0138C17.9384 18.7867 18.407 18.4022 18.7366 17.9089C19.0662 17.4155 19.2422 16.8355 19.2422 16.2422C19.2413 15.4468 18.925 14.6842 18.3626 14.1218C17.8001 13.5594 17.0376 13.243 16.2422 13.2422ZM16.2422 17.2422C16.0444 17.2422 15.8511 17.1835 15.6866 17.0736C15.5222 16.9638 15.394 16.8076 15.3183 16.6248C15.2426 16.4421 15.2228 16.2411 15.2614 16.0471C15.3 15.8531 15.3952 15.6749 15.5351 15.5351C15.6749 15.3952 15.8531 15.3 16.0471 15.2614C16.2411 15.2228 16.4421 15.2426 16.6249 15.3183C16.8076 15.394 16.9638 15.5221 17.0737 15.6866C17.1835 15.851 17.2422 16.0444 17.2422 16.2422C17.242 16.5073 17.1366 16.7616 16.9491 16.9491C16.7616 17.1366 16.5074 17.242 16.2422 17.2422ZM19.707 4.29297C19.6142 4.20009 19.5039 4.12641 19.3826 4.07614C19.2613 4.02587 19.1313 4 19 4C18.8687 4 18.7386 4.02587 18.6173 4.07614C18.496 4.12641 18.3858 4.20009 18.2929 4.29297L4.29294 18.293C4.19913 18.3856 4.12458 18.4959 4.07355 18.6174C4.02253 18.739 3.99605 18.8695 3.99564 19.0013C3.99522 19.1331 4.02089 19.2638 4.07115 19.3856C4.12141 19.5075 4.19528 19.6182 4.28851 19.7115C4.38173 19.8047 4.49247 19.8786 4.61435 19.9288C4.73623 19.9791 4.86685 20.0047 4.99869 20.0043C5.13052 20.0039 5.26098 19.9774 5.38254 19.9264C5.5041 19.8753 5.61437 19.8008 5.707 19.707L19.707 5.70697C19.7999 5.61414 19.8735 5.50393 19.9238 5.38262C19.9741 5.26131 19.9999 5.13128 19.9999 4.99997C19.9999 4.86866 19.9741 4.73864 19.9238 4.61733C19.8735 4.49602 19.7999 4.3858 19.707 4.29297Z" fill="black"/>
</svg>
