<svg width="24" height="24" viewBox="0 0 24 24" fill="none" xmlns="http://www.w3.org/2000/svg">
<path d="M19 11.48C18.7348 11.48 18.4804 11.5854 18.2929 11.7729C18.1054 11.9604 18 12.2148 18 12.48V14.87L16.5 13.39C15.973 12.884 15.2706 12.6014 14.54 12.6014C13.8094 12.6014 13.107 12.884 12.58 13.39L11.88 14.09L9.39 11.6C8.86912 11.0822 8.16448 10.7915 7.43 10.7915C6.69551 10.7915 5.99088 11.0822 5.47 11.6L4 13.09V7.48C4 7.21478 4.10536 6.96043 4.29289 6.77289C4.48043 6.58536 4.73478 6.48 5 6.48H11C11.2652 6.48 11.5196 6.37464 11.7071 6.18711C11.8946 5.99957 12 5.74522 12 5.48C12 5.21478 11.8946 4.96043 11.7071 4.77289C11.5196 4.58536 11.2652 4.48 11 4.48H5C4.20435 4.48 3.44129 4.79607 2.87868 5.35868C2.31607 5.92129 2 6.68435 2 7.48V19.48C2 20.2756 2.31607 21.0387 2.87868 21.6013C3.44129 22.1639 4.20435 22.48 5 22.48H17C17.7956 22.48 18.5587 22.1639 19.1213 21.6013C19.6839 21.0387 20 20.2756 20 19.48V12.48C20 12.2148 19.8946 11.9604 19.7071 11.7729C19.5196 11.5854 19.2652 11.48 19 11.48ZM5 20.48C4.73478 20.48 4.48043 20.3746 4.29289 20.1871C4.10536 19.9996 4 19.7452 4 19.48V15.92L6.88 13C6.95271 12.925 7.03975 12.8654 7.13595 12.8247C7.23214 12.7839 7.33554 12.763 7.44 12.763C7.54446 12.763 7.64786 12.7839 7.74405 12.8247C7.84025 12.8654 7.92729 12.925 8 13L11.17 16.17L15.43 20.43L5 20.48ZM18 19.48C17.9965 19.6726 17.9375 19.8601 17.83 20.02L13.29 15.5L13.99 14.81C14.1362 14.6647 14.3339 14.5831 14.54 14.5831C14.7461 14.5831 14.9438 14.6647 15.09 14.81L18 17.7V19.48ZM21.72 4.23L19.3 1.81C19.1126 1.62375 18.8592 1.51921 18.595 1.51921C18.3308 1.51921 18.0774 1.62375 17.89 1.81L13.31 6.39C13.2137 6.48178 13.1367 6.59185 13.0835 6.71376C13.0302 6.83567 13.0018 6.96698 13 7.1V9.52C13 9.78522 13.1054 10.0396 13.2929 10.2271C13.4804 10.4146 13.7348 10.52 14 10.52H16.42C16.6823 10.5189 16.9337 10.4147 17.12 10.23L21.7 5.65C21.795 5.55836 21.871 5.44881 21.9235 5.32767C21.976 5.20652 22.004 5.07618 22.0058 4.94417C22.0077 4.81215 21.9834 4.68107 21.9343 4.5585C21.8853 4.43592 21.8124 4.32428 21.72 4.23ZM16 8.52H15V7.52L18.6 3.93L19.6 4.93L16 8.52Z" fill="black"/>
</svg>
