<svg width="24" height="24" viewBox="0 0 24 24" fill="none" xmlns="http://www.w3.org/2000/svg">
<path d="M20.71 16.1L19.07 14.46C18.9264 14.3268 18.8281 14.1521 18.7886 13.9602C18.7492 13.7684 18.7706 13.5691 18.85 13.39C19.1987 12.6411 19.3829 11.8261 19.39 11C19.3947 10.9668 19.3947 10.9332 19.39 10.9C19.3934 9.70341 19.0228 8.53564 18.33 7.56001C16.9911 5.68878 15.2166 4.17174 13.16 3.14001C11.8554 2.50138 10.3845 2.28438 8.95107 2.5191C7.51766 2.75383 6.19275 3.42864 5.16 4.45001L4.49 5.12001C3.45788 6.15668 2.77648 7.49065 2.54151 8.93452C2.30655 10.3784 2.52983 11.8596 3.18 13.17L3.28 13.34C2.74634 13.8936 2.44564 14.6311 2.44 15.4C2.44397 15.9306 2.58861 16.4507 2.85916 16.9072C3.12971 17.3636 3.5165 17.7402 3.98006 17.9984C4.44363 18.2566 4.96739 18.3873 5.49792 18.377C6.02845 18.3667 6.54677 18.216 7 17.94C7.18 18.08 7.34 18.23 7.52 18.36C7.89851 18.6232 8.30833 18.8382 8.74 19H8.83C9.01 19.07 9.2 19.13 9.4 19.19H9.55C9.86121 19.2699 10.1793 19.3202 10.5 19.34H10.78H10.9H11.12C11.33 19.34 11.53 19.34 11.74 19.28H11.91C12.4017 19.1956 12.8794 19.0442 13.33 18.83C13.5095 18.7577 13.7062 18.7391 13.8961 18.7763C14.0861 18.8136 14.2611 18.9052 14.4 19.04L15.86 20.5C16.4935 21.1357 17.3526 21.4952 18.25 21.5C19.0028 21.4919 19.7218 21.1864 20.25 20.65L20.63 20.27C21.1816 19.7211 21.4983 18.9792 21.5132 18.2012C21.5281 17.4231 21.2401 16.6697 20.71 16.1ZM5.41 16.42C5.21222 16.42 5.01888 16.3614 4.85443 16.2515C4.68998 16.1416 4.56181 15.9854 4.48612 15.8027C4.41044 15.62 4.39063 15.4189 4.42922 15.2249C4.4678 15.0309 4.56304 14.8528 4.7029 14.7129C4.84275 14.5731 5.02093 14.4778 5.21491 14.4392C5.40889 14.4006 5.60996 14.4204 5.79269 14.4961C5.97541 14.5718 6.13159 14.7 6.24147 14.8644C6.35135 15.0289 6.41 15.2222 6.41 15.42C6.41 15.6852 6.30465 15.9396 6.11711 16.1271C5.92957 16.3147 5.67522 16.42 5.41 16.42ZM8.51 16.56L8.25 16.36C8.35413 16.0575 8.40817 15.74 8.41 15.42C8.41 14.6244 8.09393 13.8613 7.53132 13.2987C6.96871 12.7361 6.20565 12.42 5.41 12.42C5.28 12.42 5.16 12.42 5.03 12.42L4.94 12.26C4.47488 11.3246 4.31446 10.2669 4.48126 9.23561C4.64806 8.2043 5.13371 7.25115 5.87 6.51001L6.54 5.84001C7.29066 5.12056 8.24693 4.65302 9.27573 4.50246C10.3045 4.35191 11.3547 4.52582 12.28 5.00001C13.9598 5.84023 15.419 7.06302 16.54 8.57001L8.51 16.56ZM19.29 18.93L18.92 19.31C18.5 19.73 17.85 19.65 17.31 19.11L15.85 17.66C15.4201 17.2329 14.8708 16.9459 14.2746 16.8371C13.6784 16.7282 13.0632 16.8024 12.51 17.05C12.1947 17.2045 11.8574 17.3091 11.51 17.36C11.3189 17.3965 11.1245 17.4133 10.93 17.41H10.59H10.49L17.36 10.54C17.43 11.2252 17.3125 11.9165 17.02 12.54C16.7724 13.0932 16.6982 13.7084 16.807 14.3046C16.9159 14.9008 17.2028 15.4501 17.63 15.88L19.27 17.53C19.4559 17.7143 19.5622 17.9642 19.5659 18.2259C19.5696 18.4877 19.4706 18.7405 19.29 18.93Z" fill="black"/>
</svg>
