<svg width="24" height="24" viewBox="0 0 24 24" fill="none" xmlns="http://www.w3.org/2000/svg">
<path d="M8.51003 12.48C8.31225 12.48 8.11891 12.5387 7.95446 12.6485C7.79001 12.7584 7.66184 12.9146 7.58615 13.0973C7.51046 13.2801 7.49066 13.4811 7.52924 13.6751C7.56783 13.8691 7.66307 14.0473 7.80292 14.1871C7.94277 14.327 8.12096 14.4222 8.31494 14.4608C8.50892 14.4994 8.70998 14.4796 8.89271 14.4039C9.07544 14.3282 9.23162 14.2 9.3415 14.0356C9.45138 13.8711 9.51003 13.6778 9.51003 13.48C9.51003 13.2148 9.40467 12.9604 9.21713 12.7729C9.0296 12.5854 8.77524 12.48 8.51003 12.48ZM8.51003 8.00001C8.31225 8.00001 8.11891 8.05866 7.95446 8.16854C7.79001 8.27842 7.66184 8.4346 7.58615 8.61732C7.51046 8.80005 7.49066 9.00112 7.52924 9.1951C7.56783 9.38908 7.66307 9.56726 7.80292 9.70711C7.94277 9.84697 8.12096 9.94221 8.31494 9.98079C8.50892 10.0194 8.70998 9.99957 8.89271 9.92389C9.07544 9.8482 9.23162 9.72003 9.3415 9.55558C9.45138 9.39113 9.51003 9.19779 9.51003 9.00001C9.51003 8.73479 9.40467 8.48044 9.21713 8.2929C9.0296 8.10536 8.77524 8.00001 8.51003 8.00001ZM12 10C11.7348 10 11.4805 10.1054 11.2929 10.2929C11.1054 10.4804 11 10.7348 11 11V12C11 12.2652 11.1054 12.5196 11.2929 12.7071C11.4805 12.8947 11.7348 13 12 13C12.2652 13 12.5196 12.8947 12.7071 12.7071C12.8947 12.5196 13 12.2652 13 12V11C13 10.7348 12.8947 10.4804 12.7071 10.2929C12.5196 10.1054 12.2652 10 12 10ZM20.5 8.57001C20.1551 8.37152 19.774 8.24366 19.3792 8.19387C18.9843 8.14408 18.5835 8.17336 18.2 8.28001C17.801 8.3869 17.4293 8.57783 17.11 8.84001L5.51003 2.13001C5.35801 2.04224 5.18556 1.99603 5.01003 1.99603C4.83449 1.99603 4.66205 2.04224 4.51003 2.13001C4.35556 2.21683 4.22694 2.34314 4.13733 2.49601C4.04772 2.64888 4.00033 2.82281 4.00003 3.00001V16.17C3.40988 16.3691 2.8982 16.7504 2.53875 17.259C2.1793 17.7676 1.99066 18.3773 2.00003 19C1.99975 19.782 2.30481 20.5332 2.85024 21.0935C3.39566 21.6539 4.13832 21.9792 4.92003 22H5.50003C8.77676 21.9923 11.9931 21.1177 14.8225 19.465C17.652 17.8123 19.9937 15.4404 21.61 12.59C21.9833 11.908 22.0773 11.1077 21.8721 10.3578C21.6669 9.60789 21.1786 8.96693 20.51 8.57001H20.5ZM6.00003 4.73001L15.89 10.44C14.7928 12.0772 13.326 13.4335 11.608 14.3993C9.89002 15.3651 7.969 15.9135 6.00003 16V4.73001ZM19.87 11.61C18.3855 14.2257 16.2174 16.3883 13.598 17.8662C10.9786 19.3441 8.00651 20.0817 5.00003 20C4.73481 20 4.48046 19.8947 4.29292 19.7071C4.10538 19.5196 4.00003 19.2652 4.00003 19C3.99924 18.866 4.0254 18.7332 4.07693 18.6096C4.12847 18.4859 4.20434 18.3738 4.30003 18.28C4.48789 18.0989 4.7391 17.9984 5.00003 18H5.51003C8.07774 17.999 10.5991 17.3161 12.8164 16.0212C15.0337 14.7263 16.8674 12.8658 18.13 10.63C18.1907 10.5203 18.2737 10.4245 18.3736 10.3487C18.4734 10.273 18.588 10.2189 18.71 10.19C18.9622 10.1208 19.2314 10.1531 19.46 10.28C19.6895 10.4033 19.8617 10.6113 19.9402 10.8597C20.0186 11.1081 19.997 11.3773 19.88 11.61H19.87Z" fill="black"/>
</svg>
