<svg width="24" height="24" viewBox="0 0 24 24" fill="none" xmlns="http://www.w3.org/2000/svg">
<path d="M21.75 12C21.7494 11.8153 21.6977 11.6344 21.6007 11.4773C21.5036 11.3202 21.3649 11.1931 21.2 11.11L15.08 8.04997V4.04997C15.08 3.2331 14.7555 2.44969 14.1779 1.87208C13.6003 1.29447 12.8168 0.969971 12 0.969971C11.1831 0.969971 10.3997 1.29447 9.82208 1.87208C9.24447 2.44969 8.91997 3.2331 8.91997 4.04997V8.04997L2.79997 11.11C2.63506 11.1931 2.49638 11.3202 2.3993 11.4773C2.30222 11.6344 2.25053 11.8153 2.24997 12V15.33C2.24862 15.4929 2.28708 15.6537 2.36202 15.7983C2.43696 15.943 2.54611 16.0671 2.67997 16.16C2.81307 16.2512 2.96626 16.3088 3.12646 16.328C3.28667 16.3471 3.44913 16.3272 3.59997 16.27L8.91997 14.27V18L7.09997 18.6C6.90135 18.6671 6.72884 18.7949 6.60682 18.9653C6.48479 19.1358 6.41943 19.3403 6.41997 19.55V22C6.42052 22.1323 6.44732 22.2632 6.49882 22.385C6.55032 22.5069 6.62549 22.6174 6.71997 22.71C6.90623 22.8947 7.15763 22.9989 7.41997 23H16.59C16.8552 23 17.1095 22.8946 17.2971 22.7071C17.4846 22.5195 17.59 22.2652 17.59 22V19.5C17.5905 19.2903 17.5252 19.0858 17.4031 18.9153C17.2811 18.7449 17.1086 18.6171 16.91 18.55L15.08 18V14.28L20.4 16.28C20.5508 16.3372 20.7133 16.3571 20.8735 16.338C21.0337 16.3188 21.1869 16.2612 21.32 16.17C21.4538 16.0771 21.563 15.953 21.6379 15.8083C21.7129 15.6637 21.7513 15.5029 21.75 15.34V12ZM14.44 11.9C14.2878 11.841 14.1234 11.8202 13.9613 11.8394C13.7992 11.8586 13.6442 11.9171 13.51 12.01C13.3775 12.1019 13.2692 12.2244 13.1944 12.3672C13.1195 12.51 13.0802 12.6688 13.08 12.83V18.67C13.0801 18.8808 13.1469 19.0863 13.2709 19.2569C13.3948 19.4275 13.5695 19.5546 13.77 19.62L15.58 20.22V21H8.40997V20.22L10.22 19.62C10.4205 19.5546 10.5952 19.4275 10.7191 19.2569C10.843 19.0863 10.9098 18.8808 10.91 18.67V12.83C10.9097 12.6688 10.8705 12.51 10.7956 12.3672C10.7207 12.2244 10.6124 12.1019 10.48 12.01C10.3457 11.9171 10.1908 11.8586 10.0286 11.8394C9.86653 11.8202 9.70219 11.841 9.54997 11.9L4.23997 13.9V12.62L10.35 9.55997C10.5168 9.47826 10.6575 9.35171 10.7564 9.19452C10.8553 9.03732 10.9085 8.85569 10.91 8.66997V4.07997C10.91 3.79354 11.0238 3.51883 11.2263 3.3163C11.4288 3.11376 11.7035 2.99997 11.99 2.99997C12.2764 2.99997 12.5511 3.11376 12.7536 3.3163C12.9562 3.51883 13.07 3.79354 13.07 4.07997V8.66997C13.0715 8.85569 13.1246 9.03732 13.2235 9.19452C13.3225 9.35171 13.4632 9.47826 13.63 9.55997L19.74 12.62V13.89L14.44 11.9Z" fill="black"/>
</svg>
