<svg width="24" height="24" viewBox="0 0 24 24" fill="none" xmlns="http://www.w3.org/2000/svg">
<path d="M19.79 7.13C19.6959 7.01082 19.5758 6.91466 19.4389 6.84882C19.302 6.78298 19.1519 6.74918 19 6.75H8.00004V6.25C8.00129 5.81468 8.14453 5.39165 8.40803 5.04514C8.67153 4.69862 9.04089 4.44754 9.46004 4.33C9.72932 4.58983 10.086 4.73963 10.46 4.75H11.46C11.8579 4.75 12.2394 4.59196 12.5207 4.31066C12.802 4.02936 12.96 3.64782 12.96 3.25C12.96 2.85218 12.802 2.47064 12.5207 2.18934C12.2394 1.90804 11.8579 1.75 11.46 1.75H10.46C10.2346 1.75031 10.0122 1.80177 9.80952 1.9005C9.60686 1.99924 9.42924 2.14267 9.29004 2.32C8.36831 2.48625 7.53414 2.97067 6.93292 3.68884C6.3317 4.40702 6.00156 5.31339 6.00004 6.25V6.75H5.00004C4.84815 6.74918 4.69807 6.78298 4.56118 6.84882C4.4243 6.91466 4.30422 7.01082 4.21004 7.13C4.10987 7.24874 4.03873 7.38918 4.00228 7.5402C3.96583 7.69121 3.96506 7.84864 4.00004 8L4.62004 10.49C4.76808 11.0635 5.08259 11.5804 5.52393 11.9755C5.96527 12.3705 6.51368 12.6261 7.10004 12.71L7.88004 19.71H7.00004C6.73483 19.71 6.48047 19.8154 6.29294 20.0029C6.1054 20.1904 6.00004 20.4448 6.00004 20.71C6.00004 20.9752 6.1054 21.2296 6.29294 21.4171C6.48047 21.6046 6.73483 21.71 7.00004 21.71H17C17.2653 21.71 17.5196 21.6046 17.7072 21.4171C17.8947 21.2296 18 20.9752 18 20.71C18 20.4448 17.8947 20.1904 17.7072 20.0029C17.5196 19.8154 17.2653 19.71 17 19.71H16.12L16.9 12.71C17.4823 12.6199 18.0251 12.3604 18.4608 11.9639C18.8965 11.5673 19.2058 11.0512 19.35 10.48L20 8C20.035 7.84864 20.0343 7.69121 19.9978 7.5402C19.9614 7.38918 19.8902 7.24874 19.79 7.13ZM14.1 19.75H9.90004L9.12004 12.75H14.88L14.1 19.75ZM17.41 10C17.3553 10.2219 17.2262 10.4183 17.0442 10.5566C16.8623 10.6949 16.6385 10.7667 16.41 10.76H7.56004C7.33161 10.7667 7.10779 10.6949 6.92584 10.5566C6.74389 10.4183 6.61479 10.2219 6.56004 10L6.28004 8.75H17.72L17.41 10Z" fill="black"/>
</svg>
