<svg width="24" height="24" viewBox="0 0 24 24" fill="none" xmlns="http://www.w3.org/2000/svg">
<path d="M20.1498 3.86001C19.7678 3.47057 19.2833 3.19723 18.7524 3.07158C18.2215 2.94594 17.6659 2.97313 17.1498 3.15001L2.9998 7.88001C2.42912 8.06681 1.93049 8.42616 1.57276 8.90845C1.21502 9.39073 1.01582 9.97218 1.00265 10.5725C0.989481 11.1728 1.16299 11.7625 1.49923 12.26C1.83547 12.7575 2.31786 13.1384 2.87981 13.35L8.1198 15.35C8.23912 15.3956 8.34776 15.4654 8.43895 15.5548C8.53014 15.6443 8.60191 15.7516 8.6498 15.87L10.6498 21.12C10.8534 21.674 11.2228 22.1518 11.7078 22.4882C12.1927 22.8246 12.7696 23.0033 13.3598 23H13.4298C14.0308 22.9891 14.6134 22.7903 15.0958 22.4317C15.5781 22.073 15.9362 21.5724 16.1198 21L20.8498 6.83001C21.0218 6.31895 21.0474 5.76995 20.9237 5.2451C20.8 4.72024 20.5319 4.24046 20.1498 3.86001ZM18.9998 6.20001L14.2198 20.38C14.1643 20.5595 14.0528 20.7165 13.9017 20.828C13.7505 20.9396 13.5677 20.9999 13.3798 21C13.1931 21.0031 13.0098 20.9492 12.8544 20.8456C12.699 20.742 12.5788 20.5936 12.5098 20.42L10.5098 15.17C10.3648 14.7885 10.1412 14.4418 9.85349 14.1524C9.56578 13.863 9.22041 13.6373 8.83981 13.49L3.58981 11.49C3.4127 11.4251 3.26046 11.3062 3.15459 11.1501C3.04872 10.994 2.99458 10.8086 2.9998 10.62C2.99996 10.4322 3.06022 10.2493 3.17178 10.0981C3.28334 9.94699 3.44034 9.83551 3.6198 9.78001L17.7998 5.05001C17.9626 4.98366 18.1411 4.96588 18.3138 4.99883C18.4865 5.03179 18.646 5.11406 18.7729 5.2357C18.8998 5.35734 18.9888 5.51314 19.0291 5.68427C19.0693 5.8554 19.0592 6.03453 18.9998 6.20001Z" fill="black"/>
</svg>
