<svg width="24" height="24" viewBox="0 0 24 24" fill="none" xmlns="http://www.w3.org/2000/svg">
<path d="M20 20.0001H8C8.65438 19.1373 9.00587 18.0829 9 17.0001V14.0001H15C15.2652 14.0001 15.5196 13.8947 15.7071 13.7072C15.8946 13.5196 16 13.2653 16 13.0001C16 12.7348 15.8946 12.4805 15.7071 12.2929C15.5196 12.1054 15.2652 12.0001 15 12.0001H9V8.89006C8.99914 7.81238 9.3543 6.76461 10.0103 5.90958C10.6663 5.05456 11.5863 4.44018 12.6275 4.16193C13.6686 3.88369 14.7725 3.95717 15.7675 4.37095C16.7626 4.78473 17.5931 5.51563 18.13 6.45006C18.1962 6.56381 18.2841 6.66338 18.3889 6.74307C18.4936 6.82276 18.613 6.881 18.7403 6.91444C18.8675 6.94789 19.0002 6.95588 19.1305 6.93797C19.2609 6.92006 19.3865 6.87659 19.5 6.81006C19.7287 6.67814 19.896 6.46111 19.9653 6.20632C20.0346 5.95153 20.0004 5.67967 19.87 5.45006C19.1097 4.13812 17.9385 3.11314 16.5373 2.53357C15.1362 1.954 13.5831 1.85211 12.1182 2.24366C10.6534 2.6352 9.35824 3.49837 8.4331 4.69974C7.50796 5.9011 7.00431 7.37376 7 8.89006V12.0001H4C3.73478 12.0001 3.48043 12.1054 3.29289 12.2929C3.10536 12.4805 3 12.7348 3 13.0001C3 13.2653 3.10536 13.5196 3.29289 13.7072C3.48043 13.8947 3.73478 14.0001 4 14.0001H7V17.0001C7 17.7957 6.68393 18.5588 6.12132 19.1214C5.55871 19.684 4.79565 20.0001 4 20.0001C3.73478 20.0001 3.48043 20.1054 3.29289 20.2929C3.10536 20.4805 3 20.7348 3 21.0001C3 21.2653 3.10536 21.5196 3.29289 21.7072C3.48043 21.8947 3.73478 22.0001 4 22.0001H20C20.2652 22.0001 20.5196 21.8947 20.7071 21.7072C20.8946 21.5196 21 21.2653 21 21.0001C21 20.7348 20.8946 20.4805 20.7071 20.2929C20.5196 20.1054 20.2652 20.0001 20 20.0001Z" fill="black"/>
</svg>
