<svg width="24" height="24" viewBox="0 0 24 24" fill="none" xmlns="http://www.w3.org/2000/svg">
<path d="M10.21 6.21002L11 5.41002V10C11 10.2652 11.1054 10.5196 11.2929 10.7071C11.4804 10.8947 11.7348 11 12 11C12.2652 11 12.5196 10.8947 12.7071 10.7071C12.8947 10.5196 13 10.2652 13 10V5.41002L13.79 6.21002C13.883 6.30375 13.9936 6.37814 14.1154 6.42891C14.2373 6.47968 14.368 6.50582 14.5 6.50582C14.632 6.50582 14.7627 6.47968 14.8846 6.42891C15.0064 6.37814 15.117 6.30375 15.21 6.21002C15.3037 6.11706 15.3781 6.00645 15.4289 5.8846C15.4797 5.76274 15.5058 5.63203 15.5058 5.50002C15.5058 5.36801 15.4797 5.2373 15.4289 5.11544C15.3781 4.99358 15.3037 4.88298 15.21 4.79002L12.71 2.29002C12.6149 2.19898 12.5028 2.12761 12.38 2.08002C12.1366 1.98 11.8635 1.98 11.62 2.08002C11.4973 2.12761 11.3851 2.19898 11.29 2.29002L8.79001 4.79002C8.60171 4.97832 8.49592 5.23372 8.49592 5.50002C8.49592 5.76632 8.60171 6.02172 8.79001 6.21002C8.97832 6.39832 9.23371 6.50411 9.50001 6.50411C9.76631 6.50411 10.0217 6.39832 10.21 6.21002ZM18 7.56002C17.9055 7.46547 17.7932 7.39046 17.6697 7.33929C17.5461 7.28812 17.4137 7.26179 17.28 7.26179C17.1463 7.26179 17.0139 7.28812 16.8904 7.33929C16.7668 7.39046 16.6546 7.46547 16.56 7.56002C16.4655 7.65457 16.3905 7.76682 16.3393 7.89036C16.2881 8.0139 16.2618 8.1463 16.2618 8.28002C16.2618 8.41373 16.2881 8.54614 16.3393 8.66968C16.3905 8.79322 16.4655 8.90547 16.56 9.00002C17.4623 9.90197 18.0768 11.0512 18.3259 12.3025C18.575 13.5537 18.4474 14.8507 17.9593 16.0295C17.4711 17.2082 16.6444 18.2157 15.5837 18.9245C14.5229 19.6334 13.2758 20.0117 12 20.0117C10.7242 20.0117 9.47709 19.6334 8.41634 18.9245C7.35559 18.2157 6.52888 17.2082 6.04076 16.0295C5.55265 14.8507 5.42505 13.5537 5.67412 12.3025C5.92319 11.0512 6.53773 9.90197 7.44001 9.00002C7.53456 8.90547 7.60957 8.79322 7.66074 8.66968C7.71191 8.54614 7.73825 8.41373 7.73825 8.28002C7.73825 8.1463 7.71191 8.0139 7.66074 7.89036C7.60957 7.76682 7.53456 7.65457 7.44001 7.56002C7.34546 7.46547 7.23321 7.39046 7.10967 7.33929C6.98614 7.28812 6.85373 7.26179 6.72001 7.26179C6.5863 7.26179 6.45389 7.28812 6.33035 7.33929C6.20681 7.39046 6.09456 7.46547 6.00001 7.56002C4.82193 8.74518 4.02122 10.2527 3.69889 11.8924C3.37655 13.5321 3.54704 15.2305 4.18885 16.7734C4.83065 18.3163 5.91501 19.6346 7.30515 20.562C8.69529 21.4893 10.3289 21.9842 12 21.9842C13.6711 21.9842 15.3047 21.4893 16.6949 20.562C18.085 19.6346 19.1694 18.3163 19.8112 16.7734C20.453 15.2305 20.6235 13.5321 20.3011 11.8924C19.9788 10.2527 19.1781 8.74518 18 7.56002Z" fill="black"/>
</svg>
