<svg width="24" height="24" viewBox="0 0 24 24" fill="none" xmlns="http://www.w3.org/2000/svg">
<path d="M22.13 2.36C22.0138 2.26602 21.8781 2.19927 21.7327 2.16466C21.5873 2.13005 21.4361 2.12846 21.29 2.16C20.9111 2.24443 20.5184 2.24615 20.1387 2.16504C19.7591 2.08393 19.4014 1.9219 19.09 1.69C18.9187 1.56485 18.7121 1.4974 18.5 1.4974C18.2879 1.4974 18.0813 1.56485 17.91 1.69C17.5986 1.9219 17.2409 2.08393 16.8613 2.16504C16.4816 2.24615 16.0889 2.24443 15.71 2.16C15.5639 2.12846 15.4127 2.13005 15.2673 2.16466C15.1219 2.19927 14.9862 2.26602 14.87 2.36C14.754 2.45412 14.6605 2.57304 14.5965 2.70802C14.5325 2.843 14.4995 2.99061 14.5 3.14V6.45C14.4992 7.1671 14.665 7.87458 14.9843 8.51666C15.3036 9.15874 15.7677 9.71788 16.34 10.15L17.91 11.31C18.0813 11.4351 18.2879 11.5026 18.5 11.5026C18.7121 11.5026 18.9187 11.4351 19.09 11.31L20.66 10.15C21.2323 9.71788 21.6964 9.15874 22.0157 8.51666C22.335 7.87458 22.5008 7.1671 22.5 6.45V3.14C22.5005 2.99061 22.4675 2.843 22.4035 2.70802C22.3395 2.57304 22.246 2.45412 22.13 2.36ZM20.5 6.45C20.5047 6.85172 20.417 7.24915 20.2436 7.61155C20.0702 7.97395 19.8158 8.29162 19.5 8.54L18.5 9.26L17.5 8.54C17.1842 8.29162 16.9298 7.97395 16.7564 7.61155C16.583 7.24915 16.4953 6.85172 16.5 6.45V4.22C17.198 4.1874 17.8805 4.00313 18.5 3.68C19.1195 4.00313 19.802 4.1874 20.5 4.22V6.45ZM18.5 13.5C18.2348 13.5 17.9804 13.6054 17.7929 13.7929C17.6054 13.9804 17.5 14.2348 17.5 14.5V14.89L16 13.41C15.7426 13.1509 15.4364 12.9452 15.0992 12.8049C14.7619 12.6646 14.4003 12.5924 14.035 12.5924C13.6697 12.5924 13.3081 12.6646 12.9708 12.8049C12.6336 12.9452 12.3274 13.1509 12.07 13.41L11.37 14.11L8.91 11.62C8.38012 11.1156 7.67657 10.8343 6.945 10.8343C6.21343 10.8343 5.50988 11.1156 4.98 11.62L3.5 13.1V7.5C3.5 7.23478 3.60536 6.98043 3.79289 6.79289C3.98043 6.60536 4.23478 6.5 4.5 6.5H11.5C11.7652 6.5 12.0196 6.39464 12.2071 6.20711C12.3946 6.01957 12.5 5.76522 12.5 5.5C12.5 5.23478 12.3946 4.98043 12.2071 4.79289C12.0196 4.60536 11.7652 4.5 11.5 4.5H4.5C3.70435 4.5 2.94129 4.81607 2.37868 5.37868C1.81607 5.94129 1.5 6.70435 1.5 7.5V19.5C1.5 20.2956 1.81607 21.0587 2.37868 21.6213C2.94129 22.1839 3.70435 22.5 4.5 22.5H16.5C17.2956 22.5 18.0587 22.1839 18.6213 21.6213C19.1839 21.0587 19.5 20.2956 19.5 19.5V14.5C19.5 14.2348 19.3946 13.9804 19.2071 13.7929C19.0196 13.6054 18.7652 13.5 18.5 13.5ZM4.5 20.5C4.23478 20.5 3.98043 20.3946 3.79289 20.2071C3.60536 20.0196 3.5 19.7652 3.5 19.5V15.93L6.4 13C6.54691 12.86 6.74206 12.7819 6.945 12.7819C7.14794 12.7819 7.34309 12.86 7.49 13L10.66 16.17L15 20.5H4.5ZM17.5 19.5C17.4917 19.6902 17.4292 19.8741 17.32 20.03L12.81 15.52L13.51 14.82C13.6562 14.6747 13.8539 14.5931 14.06 14.5931C14.2661 14.5931 14.4638 14.6747 14.61 14.82L17.5 17.72V19.5Z" fill="black"/>
</svg>
