<svg width="24" height="24" viewBox="0 0 24 24" fill="none" xmlns="http://www.w3.org/2000/svg">
<path d="M14.4102 16.8672C13.728 17.3674 12.8828 17.5933 12.042 17.5C11.2022 17.5935 10.358 17.368 9.67677 16.8681C9.48898 16.6817 9.23497 16.5772 8.97033 16.5776C8.70569 16.578 8.45197 16.6832 8.26471 16.8702C8.07746 17.0572 7.97191 17.3107 7.97117 17.5754C7.97043 17.84 8.07456 18.0942 8.26077 18.2822C8.77784 18.7273 9.37881 19.0644 10.0282 19.2735C10.6776 19.4827 11.3624 19.5597 12.042 19.5C12.7217 19.5594 13.4064 19.4824 14.056 19.2734C14.7055 19.0645 15.3067 18.7278 15.8242 18.2832C15.9175 18.1904 15.9916 18.0801 16.0423 17.9587C16.0929 17.8372 16.1191 17.707 16.1193 17.5754C16.1196 17.4438 16.0939 17.3135 16.0437 17.1919C15.9935 17.0702 15.9198 16.9597 15.8268 16.8666C15.7338 16.7735 15.6234 16.6996 15.5018 16.6492C15.3802 16.5989 15.2499 16.573 15.1183 16.573C14.9868 16.5731 14.8565 16.5991 14.735 16.6496C14.6134 16.7 14.5031 16.774 14.4102 16.8672L14.4102 16.8672ZM9.2005 15.0016C9.39828 15.0016 9.5916 14.9429 9.75602 14.8329C9.92044 14.723 10.0486 14.5668 10.1242 14.384C10.1998 14.2013 10.2196 14.0002 10.1809 13.8062C10.1423 13.6123 10.047 13.4341 9.90709 13.2943C9.7672 13.1545 9.58899 13.0593 9.395 13.0208C9.201 12.9823 8.99994 13.0021 8.81724 13.0779C8.63454 13.1536 8.4784 13.2818 8.36856 13.4463C8.25873 13.6108 8.20014 13.8041 8.2002 14.0019C8.20049 14.2671 8.30599 14.5213 8.49354 14.7087C8.68108 14.8962 8.93535 15.0015 9.2005 15.0016ZM15.2005 13.0016C15.0027 13.0016 14.8094 13.0602 14.6449 13.17C14.4804 13.2798 14.3522 13.436 14.2764 13.6187C14.2007 13.8014 14.1808 14.0024 14.2194 14.1964C14.2579 14.3904 14.3531 14.5686 14.4929 14.7085C14.6327 14.8484 14.8108 14.9437 15.0048 14.9824C15.1988 15.021 15.3999 15.0013 15.5826 14.9256C15.7654 14.85 15.9216 14.7219 16.0315 14.5574C16.1414 14.393 16.2001 14.1997 16.2002 14.0019C16.1999 13.7368 16.0945 13.4826 15.9071 13.2951C15.7197 13.1076 15.4656 13.0021 15.2005 13.0016ZM23 11.7802C23.0018 10.9872 22.7536 10.2137 22.2906 9.56981C21.8277 8.92591 21.1735 8.44433 20.4211 8.19353C19.6688 7.94274 18.8565 7.93549 18.0998 8.17283C17.343 8.41016 16.6804 8.87999 16.206 9.51554C15.2065 9.26109 14.1854 9.10088 13.1559 9.03703L14.0117 3.33203L16.0993 4.04187C16.1088 4.83599 16.4331 5.59387 17.001 6.14902C17.569 6.70418 18.334 7.01121 19.1281 7.00269C19.9223 6.99416 20.6806 6.67078 21.2364 6.10356C21.7923 5.53635 22.1003 4.77168 22.0928 3.97754V3.95506C22.0737 3.16958 21.7501 2.42226 21.1903 1.87089C20.6306 1.31951 19.8785 1.00723 19.0928 0.999978C18.642 1.00335 18.1978 1.10906 17.7938 1.30914C17.3899 1.50922 17.0366 1.79844 16.7607 2.15498L13.5225 1.05369C13.3839 1.00626 13.2365 0.989894 13.0909 1.00574C12.9453 1.02159 12.805 1.06927 12.6798 1.1454C12.5547 1.22153 12.4478 1.32425 12.3668 1.44628C12.2857 1.56831 12.2325 1.70666 12.2109 1.85154L11.1345 9.02698C10.0073 9.07633 8.88808 9.24002 7.794 9.51554C7.21467 8.73411 6.35555 8.20704 5.39644 8.04464C4.43733 7.88225 3.45259 8.09712 2.6483 8.64428C1.84402 9.19144 1.28254 10.0285 1.08138 10.9802C0.880228 11.9319 1.05499 12.9246 1.56908 13.7504C1.20061 14.4433 1.00536 15.2152 1 16C1 19.9248 5.832 23 12 23C18.168 23 23 19.9248 23 16C22.9947 15.2154 22.7996 14.4439 22.4313 13.7511C22.7988 13.159 22.9955 12.477 23 11.7802ZM19.0928 2.99998C19.2906 2.99998 19.4839 3.05863 19.6483 3.16851C19.8128 3.27839 19.941 3.43457 20.0166 3.61729C20.0923 3.80002 20.1121 4.00109 20.0736 4.19507C20.035 4.38905 19.9397 4.56723 19.7999 4.70708C19.66 4.84694 19.4818 4.94218 19.2879 4.98076C19.0939 5.01935 18.8928 4.99955 18.7101 4.92386C18.5274 4.84817 18.3712 4.72 18.2613 4.55555C18.1514 4.3911 18.0928 4.19776 18.0928 3.99998C18.0971 3.7361 18.2038 3.48424 18.3904 3.29763C18.577 3.11102 18.8289 3.00428 19.0928 2.99998ZM4.78027 9.99998C5.09105 10.0038 5.39528 10.0899 5.66199 10.2495C4.69674 10.6646 3.8031 11.2295 3.0141 11.9234C3.0101 11.8755 3 11.8284 3 11.7802C3.0006 11.3083 3.18836 10.8558 3.5221 10.5221C3.85583 10.1883 4.3083 10.0006 4.78027 9.99998ZM12 21C7.12109 21 3 18.71 3 16C3 13.29 7.12109 11 12 11C16.8789 11 21 13.29 21 16C21 18.71 16.8789 21 12 21ZM20.9859 11.9234C20.1969 11.2295 19.3033 10.6646 18.338 10.2495C18.6047 10.0899 18.9089 10.0038 19.2197 9.99998C19.6917 10.0006 20.1442 10.1883 20.4779 10.5221C20.8116 10.8558 20.9994 11.3083 21 11.7802C21 11.8283 20.9899 11.8756 20.9859 11.9234Z" fill="black"/>
</svg>
