<svg width="24" height="24" viewBox="0 0 24 24" fill="none" xmlns="http://www.w3.org/2000/svg">
<path d="M21 7H20.2C20.0966 6.55129 19.921 6.12237 19.68 5.73L20.24 5.17C20.4038 4.9787 20.4894 4.73262 20.4797 4.48095C20.47 4.22927 20.3657 3.99053 20.1876 3.81244C20.0095 3.63434 19.7707 3.53001 19.5191 3.52029C19.2674 3.51057 19.0213 3.59617 18.83 3.76L18.27 4.32C17.8776 4.07901 17.4487 3.90339 17 3.8V3C17 2.73478 16.8946 2.48043 16.7071 2.29289C16.5196 2.10536 16.2652 2 16 2C15.7348 2 15.4804 2.10536 15.2929 2.29289C15.1054 2.48043 15 2.73478 15 3V3.8C14.5539 3.90181 14.128 4.07758 13.74 4.32L13.17 3.76C12.9787 3.59617 12.7326 3.51057 12.481 3.52029C12.2293 3.53001 11.9905 3.63434 11.8124 3.81244C11.6343 3.99053 11.53 4.22927 11.5203 4.48095C11.5106 4.73262 11.5962 4.9787 11.76 5.17L12.32 5.74C12.23 5.89 12.16 6.06 12.08 6.22C11.5659 6.07486 11.0342 6.00084 10.5 6C9.05886 5.99918 7.66557 6.5171 6.57488 7.45906C5.48419 8.40102 4.76897 9.70409 4.56001 11.13C3.86364 11.3239 3.2444 11.7287 2.78734 12.2887C2.33028 12.8487 2.05784 13.5365 2.00743 14.2576C1.95701 14.9787 2.13111 15.6978 2.5058 16.3159C2.88049 16.9341 3.43739 17.4211 4.10001 17.71C4.22744 17.7605 4.36295 17.7876 4.50001 17.79C4.7312 17.7919 4.95591 17.7136 5.13589 17.5685C5.31586 17.4233 5.43999 17.2203 5.48715 16.994C5.5343 16.7676 5.50157 16.532 5.39452 16.327C5.28747 16.1221 5.11272 15.9606 4.90001 15.87C4.6317 15.7557 4.40314 15.5647 4.24302 15.321C4.0829 15.0772 3.99836 14.7916 4.00001 14.5C4.00001 14.1022 4.15804 13.7206 4.43935 13.4393C4.72065 13.158 5.10218 13 5.50001 13C5.76522 13 6.01958 12.8946 6.20711 12.7071C6.39465 12.5196 6.50001 12.2652 6.50001 12C6.50429 11.0557 6.84253 10.1434 7.45484 9.42447C8.06716 8.70558 8.91406 8.22651 9.84566 8.07204C10.7773 7.91757 11.7335 8.09767 12.545 8.58047C13.3566 9.06326 13.9712 9.81761 14.28 10.71C14.3372 10.8818 14.4399 11.0349 14.5773 11.1529C14.7147 11.2709 14.8815 11.3494 15.06 11.38C15.5245 11.4488 15.9571 11.6569 16.3008 11.9768C16.6445 12.2967 16.883 12.7133 16.9849 13.1717C17.0867 13.63 17.0471 14.1085 16.8713 14.5439C16.6954 14.9792 16.3916 15.351 16 15.61C15.8897 15.6822 15.7947 15.7755 15.7204 15.8844C15.6461 15.9934 15.5941 16.1159 15.5671 16.2449C15.5402 16.374 15.539 16.5071 15.5635 16.6367C15.588 16.7662 15.6378 16.8897 15.71 17C15.7822 17.1103 15.8755 17.2053 15.9844 17.2796C16.0934 17.3539 16.2159 17.4059 16.3449 17.4329C16.474 17.4598 16.6071 17.4611 16.7367 17.4365C16.8662 17.412 16.9897 17.3622 17.1 17.29C17.6897 16.8891 18.1716 16.3491 18.503 15.7177C18.8343 15.0864 19.0051 14.383 19 13.67C18.9991 13.139 18.8973 12.613 18.7 12.12L18.83 12.24C19.0163 12.4247 19.2677 12.5289 19.53 12.53C19.6616 12.5308 19.7921 12.5055 19.9139 12.4558C20.0357 12.406 20.1466 12.3327 20.24 12.24C20.4263 12.0526 20.5308 11.7992 20.5308 11.535C20.5308 11.2708 20.4263 11.0174 20.24 10.83L19.68 10.27C19.921 9.87763 20.0966 9.44871 20.2 9H21C21.2652 9 21.5196 8.89464 21.7071 8.70711C21.8946 8.51957 22 8.26522 22 8C22 7.73478 21.8946 7.48043 21.7071 7.29289C21.5196 7.10536 21.2652 7 21 7ZM17.66 9.65C17.4863 9.82422 17.2832 9.96641 17.06 10.07C16.7337 9.84377 16.3768 9.6653 16 9.54C15.5406 8.53676 14.8184 7.67641 13.91 7.05C14.0215 6.7917 14.1771 6.55482 14.37 6.35C14.8191 5.93464 15.4083 5.70393 16.02 5.70393C16.6317 5.70393 17.2209 5.93464 17.67 6.35C18.0989 6.7922 18.3387 7.384 18.3387 8C18.3387 8.616 18.0989 9.2078 17.67 9.65H17.66ZM8.50001 14C8.23479 14 7.98044 14.1054 7.7929 14.2929C7.60536 14.4804 7.50001 14.7348 7.50001 15V21C7.50001 21.2652 7.60536 21.5196 7.7929 21.7071C7.98044 21.8946 8.23479 22 8.50001 22C8.76522 22 9.01958 21.8946 9.20711 21.7071C9.39465 21.5196 9.50001 21.2652 9.50001 21V15C9.50001 14.7348 9.39465 14.4804 9.20711 14.2929C9.01958 14.1054 8.76522 14 8.50001 14ZM12.5 13C12.2348 13 11.9804 13.1054 11.7929 13.2929C11.6054 13.4804 11.5 13.7348 11.5 14V20C11.5 20.2652 11.6054 20.5196 11.7929 20.7071C11.9804 20.8946 12.2348 21 12.5 21C12.7652 21 13.0196 20.8946 13.2071 20.7071C13.3946 20.5196 13.5 20.2652 13.5 20V14C13.5 13.7348 13.3946 13.4804 13.2071 13.2929C13.0196 13.1054 12.7652 13 12.5 13Z" fill="black"/>
</svg>
