<svg width="24" height="24" viewBox="0 0 24 24" fill="none" xmlns="http://www.w3.org/2000/svg">
<path d="M11.05 14.33C10.8857 14.2204 10.6926 14.1618 10.495 14.1618C10.2975 14.1618 10.1043 14.2204 9.94001 14.33C9.84001 14.41 7.50001 16 7.50001 18.5C7.50001 19.2956 7.81608 20.0587 8.37868 20.6213C8.94129 21.1839 9.70436 21.5 10.5 21.5C11.2957 21.5 12.0587 21.1839 12.6213 20.6213C13.1839 20.0587 13.5 19.2956 13.5 18.5C13.5 16 11.16 14.4 11.05 14.33ZM10.5 19.5C10.2348 19.5 9.98044 19.3946 9.7929 19.2071C9.60536 19.0196 9.50001 18.7652 9.50001 18.5C9.56315 17.7294 9.92139 17.0129 10.5 16.5C11.0786 17.0129 11.4369 17.7294 11.5 18.5C11.5 18.7652 11.3946 19.0196 11.2071 19.2071C11.0196 19.3946 10.7652 19.5 10.5 19.5ZM21 7.5H20.2C20.0966 7.05129 19.921 6.62237 19.68 6.23L20.24 5.67C20.4038 5.4787 20.4894 5.23262 20.4797 4.98095C20.47 4.72927 20.3657 4.49053 20.1876 4.31244C20.0095 4.13434 19.7707 4.03001 19.5191 4.02029C19.2674 4.01057 19.0213 4.09617 18.83 4.26L18.27 4.82C17.8776 4.57901 17.4487 4.40339 17 4.3V3.5C17 3.23478 16.8946 2.98043 16.7071 2.79289C16.5196 2.60536 16.2652 2.5 16 2.5C15.7348 2.5 15.4804 2.60536 15.2929 2.79289C15.1054 2.98043 15 3.23478 15 3.5V4.3C14.5539 4.40181 14.128 4.57758 13.74 4.82L13.17 4.26C12.9787 4.09617 12.7326 4.01057 12.481 4.02029C12.2293 4.03001 11.9905 4.13434 11.8124 4.31244C11.6343 4.49053 11.53 4.72927 11.5203 4.98095C11.5106 5.23262 11.5962 5.4787 11.76 5.67L12.32 6.24C12.23 6.39 12.16 6.56 12.08 6.72C11.5659 6.57486 11.0342 6.50084 10.5 6.5C9.05886 6.49918 7.66557 7.0171 6.57488 7.95906C5.48419 8.90102 4.76897 10.2041 4.56001 11.63C3.86364 11.8239 3.2444 12.2287 2.78734 12.7887C2.33028 13.3487 2.05784 14.0365 2.00743 14.7576C1.95701 15.4787 2.13111 16.1978 2.5058 16.8159C2.88049 17.4341 3.43739 17.9211 4.10001 18.21C4.22744 18.2605 4.36295 18.2876 4.50001 18.29C4.7312 18.2919 4.95591 18.2136 5.13589 18.0685C5.31586 17.9233 5.43999 17.7203 5.48715 17.494C5.5343 17.2676 5.50157 17.032 5.39452 16.827C5.28747 16.6221 5.11272 16.4606 4.90001 16.37C4.6317 16.2557 4.40314 16.0647 4.24302 15.821C4.0829 15.5772 3.99836 15.2916 4.00001 15C4.00001 14.6022 4.15804 14.2206 4.43935 13.9393C4.72065 13.658 5.10218 13.5 5.50001 13.5C5.76522 13.5 6.01958 13.3946 6.20711 13.2071C6.39465 13.0196 6.50001 12.7652 6.50001 12.5C6.50429 11.5557 6.84253 10.6434 7.45484 9.92447C8.06716 9.20558 8.91406 8.72651 9.84566 8.57204C10.7773 8.41757 11.7335 8.59767 12.545 9.08047C13.3566 9.56326 13.9712 10.3176 14.28 11.21C14.3372 11.3818 14.4399 11.5349 14.5773 11.6529C14.7147 11.7709 14.8815 11.8494 15.06 11.88C15.5245 11.9488 15.9571 12.1569 16.3008 12.4768C16.6445 12.7967 16.883 13.2133 16.9849 13.6717C17.0867 14.13 17.0471 14.6085 16.8713 15.0439C16.6954 15.4792 16.3916 15.851 16 16.11C15.7772 16.2559 15.6215 16.4843 15.5671 16.7449C15.5127 17.0056 15.5641 17.2772 15.71 17.5C15.8559 17.7228 16.0843 17.8785 16.3449 17.9329C16.6056 17.9873 16.8772 17.9359 17.1 17.79C17.9296 17.2487 18.5468 16.4377 18.8475 15.4938C19.1481 14.55 19.1137 13.5314 18.75 12.61L18.88 12.74C19.0663 12.9247 19.3177 13.0289 19.58 13.03C19.7116 13.0308 19.8421 13.0055 19.9639 12.9558C20.0858 12.906 20.1966 12.8327 20.29 12.74C20.4763 12.5526 20.5808 12.2992 20.5808 12.035C20.5808 11.7708 20.4763 11.5174 20.29 11.33L19.73 10.77C19.9535 10.3745 20.1122 9.94573 20.2 9.5H21C21.2652 9.5 21.5196 9.39464 21.7071 9.20711C21.8946 9.01957 22 8.76522 22 8.5C22 8.23478 21.8946 7.98043 21.7071 7.79289C21.5196 7.60536 21.2652 7.5 21 7.5ZM17.66 10.15C17.4815 10.3157 17.2793 10.4539 17.06 10.56C16.7355 10.3233 16.3785 10.1346 16 10C15.5406 8.99676 14.8184 8.13641 13.91 7.51C14.0193 7.25349 14.1752 7.01951 14.37 6.82C14.8174 6.40532 15.405 6.17493 16.015 6.17493C16.625 6.17493 17.2126 6.40532 17.66 6.82C18.0889 7.2622 18.3287 7.854 18.3287 8.47C18.3287 9.086 18.0889 9.6778 17.66 10.12V10.15Z" fill="black"/>
</svg>
