<svg width="24" height="24" viewBox="0 0 24 24" fill="none" xmlns="http://www.w3.org/2000/svg">
<path d="M10.5 7.99998C10.5 4.50998 7.2 2.25998 7.06 2.16998C6.89463 2.05821 6.6996 1.99847 6.5 1.99847C6.3004 1.99847 6.10537 2.05821 5.94 2.16998C5.8 2.26998 2.5 4.54998 2.5 7.99998C2.5 9.06085 2.92143 10.0783 3.67157 10.8284C4.42172 11.5786 5.43913 12 6.5 12C7.56087 12 8.57828 11.5786 9.32843 10.8284C10.0786 10.0783 10.5 9.06085 10.5 7.99998ZM6.5 9.99998C5.96957 9.99998 5.46086 9.78927 5.08579 9.41419C4.71071 9.03912 4.5 8.53041 4.5 7.99998C4.56853 7.2779 4.78078 6.57681 5.12425 5.93796C5.46771 5.29911 5.93547 4.7354 6.5 4.27998C7.06664 4.73346 7.53587 5.2967 7.87954 5.93593C8.22321 6.57516 8.43425 7.27721 8.5 7.99998C8.5 8.53041 8.28929 9.03912 7.91421 9.41419C7.53914 9.78927 7.03043 9.99998 6.5 9.99998ZM18.06 2.16998C17.8946 2.05821 17.6996 1.99847 17.5 1.99847C17.3004 1.99847 17.1054 2.05821 16.94 2.16998C16.8 2.26998 13.5 4.54998 13.5 7.99998C13.5 9.06085 13.9214 10.0783 14.6716 10.8284C15.4217 11.5786 16.4391 12 17.5 12C18.5609 12 19.5783 11.5786 20.3284 10.8284C21.0786 10.0783 21.5 9.06085 21.5 7.99998C21.5 4.50998 18.2 2.25998 18.06 2.16998ZM17.5 9.99998C16.9696 9.99998 16.4609 9.78927 16.0858 9.41419C15.7107 9.03912 15.5 8.53041 15.5 7.99998C15.5685 7.2779 15.7808 6.57681 16.1242 5.93796C16.4677 5.29911 16.9355 4.7354 17.5 4.27998C18.0666 4.73346 18.5359 5.2967 18.8795 5.93593C19.2232 6.57516 19.4343 7.27721 19.5 7.99998C19.5 8.53041 19.2893 9.03912 18.9142 9.41419C18.5391 9.78927 18.0304 9.99998 17.5 9.99998ZM13.06 12.17C12.8946 12.0582 12.6996 11.9985 12.5 11.9985C12.3004 11.9985 12.1054 12.0582 11.94 12.17C11.8 12.27 8.5 14.55 8.5 18C8.5 19.0608 8.92143 20.0783 9.67157 20.8284C10.4217 21.5786 11.4391 22 12.5 22C13.5609 22 14.5783 21.5786 15.3284 20.8284C16.0786 20.0783 16.5 19.0608 16.5 18C16.5 14.51 13.2 12.26 13.06 12.17ZM12.5 20C11.9696 20 11.4609 19.7893 11.0858 19.4142C10.7107 19.0391 10.5 18.5304 10.5 18C10.5685 17.2779 10.7808 16.5768 11.1242 15.938C11.4677 15.2991 11.9355 14.7354 12.5 14.28C13.0666 14.7335 13.5359 15.2967 13.8795 15.9359C14.2232 16.5752 14.4343 17.2772 14.5 18C14.5 18.5304 14.2893 19.0391 13.9142 19.4142C13.5391 19.7893 13.0304 20 12.5 20Z" fill="black"/>
</svg>
