<svg width="24" height="24" viewBox="0 0 24 24" fill="none" xmlns="http://www.w3.org/2000/svg">
<path d="M12 19C11.7348 19 11.4804 19.1054 11.2929 19.2929C11.1054 19.4804 11 19.7348 11 20V21C11 21.2652 11.1054 21.5196 11.2929 21.7071C11.4804 21.8947 11.7348 22 12 22C12.2652 22 12.5196 21.8947 12.7071 21.7071C12.8947 21.5196 13 21.2652 13 21V20C13 19.7348 12.8947 19.4804 12.7071 19.2929C12.5196 19.1054 12.2652 19 12 19ZM8.00002 11C7.7348 11 7.48045 11.1054 7.29291 11.2929C7.10538 11.4804 7.00002 11.7348 7.00002 12V13C7.00002 13.2652 7.10538 13.5196 7.29291 13.7071C7.48045 13.8947 7.7348 14 8.00002 14C8.26524 14 8.51959 13.8947 8.70713 13.7071C8.89466 13.5196 9.00002 13.2652 9.00002 13V12C9.00002 11.7348 8.89466 11.4804 8.70713 11.2929C8.51959 11.1054 8.26524 11 8.00002 11ZM8.00002 16C7.7348 16 7.48045 16.1054 7.29291 16.2929C7.10538 16.4804 7.00002 16.7348 7.00002 17V18C7.00002 18.2652 7.10538 18.5196 7.29291 18.7071C7.48045 18.8947 7.7348 19 8.00002 19C8.26524 19 8.51959 18.8947 8.70713 18.7071C8.89466 18.5196 9.00002 18.2652 9.00002 18V17C9.00002 16.7348 8.89466 16.4804 8.70713 16.2929C8.51959 16.1054 8.26524 16 8.00002 16ZM12 14C11.7348 14 11.4804 14.1054 11.2929 14.2929C11.1054 14.4804 11 14.7348 11 15V16C11 16.2652 11.1054 16.5196 11.2929 16.7071C11.4804 16.8947 11.7348 17 12 17C12.2652 17 12.5196 16.8947 12.7071 16.7071C12.8947 16.5196 13 16.2652 13 16V15C13 14.7348 12.8947 14.4804 12.7071 14.2929C12.5196 14.1054 12.2652 14 12 14ZM18.42 6.22002C17.809 4.81602 16.7545 3.65109 15.4181 2.90374C14.0817 2.15639 12.5371 1.86785 11.021 2.08233C9.50489 2.2968 8.10095 3.00247 7.02427 4.09119C5.9476 5.17991 5.25761 6.59163 5.06002 8.11002C4.18743 8.32098 3.41118 8.81934 2.85615 9.52493C2.30111 10.2305 1.99957 11.1023 2.00002 12C1.99823 12.5664 2.11677 13.1268 2.34777 13.644C2.57878 14.1611 2.91699 14.6233 3.34002 15C3.43738 15.0935 3.55266 15.1664 3.67892 15.2141C3.80518 15.2619 3.9398 15.2836 4.07467 15.2779C4.20955 15.2723 4.34188 15.2394 4.46369 15.1812C4.5855 15.123 4.69428 15.0408 4.78346 14.9394C4.87264 14.8381 4.94037 14.7198 4.98259 14.5915C5.0248 14.4633 5.04062 14.3279 5.02909 14.1934C5.01755 14.0589 4.97891 13.9281 4.91548 13.8089C4.85205 13.6898 4.76515 13.5847 4.66002 13.5C4.45032 13.3108 4.28309 13.0793 4.16933 12.8207C4.05557 12.5622 3.99787 12.2825 4.00002 12C4.00002 11.4696 4.21073 10.9609 4.58581 10.5858C4.96088 10.2107 5.46959 10 6.00002 10C6.26524 10 6.51959 9.89466 6.70713 9.70712C6.89466 9.51959 7.00002 9.26523 7.00002 9.00002C7.00257 7.81729 7.42431 6.67377 8.19029 5.7726C8.95627 4.87143 10.0169 4.27097 11.1838 4.07789C12.3506 3.88481 13.5482 4.11162 14.5636 4.71803C15.579 5.32443 16.3466 6.27116 16.73 7.39002C16.7872 7.56186 16.8899 7.71495 17.0273 7.83295C17.1647 7.95095 17.3315 8.02943 17.51 8.06002C18.2042 8.17976 18.8341 8.53995 19.2893 9.07748C19.7446 9.61502 19.9962 10.2956 20 11C20.0153 11.7363 19.7509 12.451 19.26 13C19.1004 13.1988 19.0227 13.4511 19.0429 13.7053C19.063 13.9595 19.1795 14.1963 19.3686 14.3675C19.5576 14.5386 19.8048 14.6311 20.0597 14.626C20.3147 14.6209 20.558 14.5186 20.74 14.34C21.2908 13.7106 21.6749 12.953 21.8572 12.1367C22.0394 11.3204 22.0139 10.4714 21.7831 9.66745C21.5523 8.86352 21.1234 8.13034 20.5359 7.53505C19.9483 6.93975 19.2209 6.50136 18.42 6.26002V6.22002ZM16 11C15.7348 11 15.4804 11.1054 15.2929 11.2929C15.1054 11.4804 15 11.7348 15 12V13C15 13.2652 15.1054 13.5196 15.2929 13.7071C15.4804 13.8947 15.7348 14 16 14C16.2652 14 16.5196 13.8947 16.7071 13.7071C16.8947 13.5196 17 13.2652 17 13V12C17 11.7348 16.8947 11.4804 16.7071 11.2929C16.5196 11.1054 16.2652 11 16 11ZM16 16C15.7348 16 15.4804 16.1054 15.2929 16.2929C15.1054 16.4804 15 16.7348 15 17V18C15 18.2652 15.1054 18.5196 15.2929 18.7071C15.4804 18.8947 15.7348 19 16 19C16.2652 19 16.5196 18.8947 16.7071 18.7071C16.8947 18.5196 17 18.2652 17 18V17C17 16.7348 16.8947 16.4804 16.7071 16.2929C16.5196 16.1054 16.2652 16 16 16ZM12 9.00002C11.7348 9.00002 11.4804 9.10537 11.2929 9.29291C11.1054 9.48045 11 9.7348 11 10V11C11 11.2652 11.1054 11.5196 11.2929 11.7071C11.4804 11.8947 11.7348 12 12 12C12.2652 12 12.5196 11.8947 12.7071 11.7071C12.8947 11.5196 13 11.2652 13 11V10C13 9.7348 12.8947 9.48045 12.7071 9.29291C12.5196 9.10537 12.2652 9.00002 12 9.00002Z" fill="black"/>
</svg>
