<svg width="24" height="24" viewBox="0 0 24 24" fill="none" xmlns="http://www.w3.org/2000/svg">
<path d="M21 11.24C20.9951 11.2136 20.9951 11.1864 21 11.16V10.97C21 10.74 20.94 10.51 20.9 10.28C20.8943 10.2268 20.8943 10.1732 20.9 10.12C20.85 9.87 20.78 9.63 20.71 9.39C20.2824 8.00973 19.5256 6.75416 18.5047 5.73154C17.4838 4.70892 16.2295 3.94992 14.85 3.52H14.77C14.55 3.45 14.32 3.39 14.09 3.34H13.91C13.7282 3.30357 13.5446 3.27686 13.36 3.26H13.12V3C13.12 2.73478 13.0146 2.48043 12.8271 2.29289C12.6396 2.10536 12.3852 2 12.12 2C11.8548 2 11.6004 2.10536 11.4129 2.29289C11.2253 2.48043 11.12 2.73478 11.12 3V3.06C10.7834 3.10047 10.4495 3.16057 10.12 3.24C9.90993 3.27921 9.70278 3.33266 9.49999 3.4H9.36999C9.11999 3.48 8.88999 3.57 8.64999 3.66C7.41518 4.14891 6.30498 4.90708 5.40023 5.8793C4.49549 6.85151 3.81898 8.01328 3.41999 9.28C3.41653 9.30655 3.41653 9.33345 3.41999 9.36C3.34269 9.5961 3.27925 9.83651 3.22999 10.08V10.24C3.17665 10.48 3.13665 10.73 3.10999 10.99C3.10999 10.99 3.10999 11.06 3.10999 11.1C3.10999 11.14 3.10999 11.16 3.10999 11.19C3.10999 11.22 3.10999 11.19 3.10999 11.24C3.10999 11.49 3.10999 11.74 3.10999 12C3.10999 12.2652 3.21534 12.5196 3.40288 12.7071C3.59042 12.8946 3.84477 13 4.10999 13H11.11V19C11.11 19.2652 11.0046 19.5196 10.8171 19.7071C10.6296 19.8946 10.3752 20 10.11 20C9.84477 20 9.59042 19.8946 9.40288 19.7071C9.21534 19.5196 9.10999 19.2652 9.10999 19C9.10999 18.7348 9.00463 18.4804 8.81709 18.2929C8.62956 18.1054 8.3752 18 8.10999 18C7.84477 18 7.59042 18.1054 7.40288 18.2929C7.21534 18.4804 7.10999 18.7348 7.10999 19C7.10999 19.7956 7.42606 20.5587 7.98867 21.1213C8.55127 21.6839 9.31434 22 10.11 22C10.9056 22 11.6687 21.6839 12.2313 21.1213C12.7939 20.5587 13.11 19.7956 13.11 19V13H20.11C20.3752 13 20.6296 12.8946 20.8171 12.7071C21.0046 12.5196 21.11 12.2652 21.11 12C21 11.74 21 11.49 21 11.24ZM7.99999 11H5.07999C5.07999 11 5.07999 10.93 5.07999 10.89C5.07999 10.85 5.07999 10.61 5.15999 10.48C5.23999 10.35 5.15999 10.35 5.15999 10.29C5.15999 10.23 5.23999 9.97 5.28999 9.81V9.73C5.61003 8.82311 6.11351 7.99189 6.76903 7.2882C7.42454 6.58452 8.21803 6.02345 9.09999 5.64C8.42999 7.35076 8.05794 9.16363 7.99999 11ZM9.99999 11C10.19 7.09 11.44 5 12 5C12.56 5 13.79 7.09 14 11H9.99999ZM16 11C15.942 9.16363 15.57 7.35076 14.9 5.64C15.7701 6.03569 16.5499 6.60538 17.1914 7.31396C17.8329 8.02254 18.3225 8.85499 18.63 9.76C18.6905 9.93352 18.7406 10.1105 18.78 10.29C18.7755 10.3399 18.7755 10.3901 18.78 10.44C18.78 10.58 18.84 10.73 18.86 10.87C18.88 11.01 18.86 10.94 18.86 10.98L16 11Z" fill="black"/>
</svg>
