<svg width="24" height="24" viewBox="0 0 24 24" fill="none" xmlns="http://www.w3.org/2000/svg">
<path d="M8.50001 14C8.23479 14 7.98044 14.1053 7.7929 14.2929C7.60536 14.4804 7.50001 14.7348 7.50001 15V16C7.50001 16.2652 7.60536 16.5195 7.7929 16.7071C7.98044 16.8946 8.23479 17 8.50001 17C8.76522 17 9.01958 16.8946 9.20711 16.7071C9.39465 16.5195 9.50001 16.2652 9.50001 16V15C9.50001 14.7348 9.39465 14.4804 9.20711 14.2929C9.01958 14.1053 8.76522 14 8.50001 14ZM8.50001 19C8.23479 19 7.98044 19.1053 7.7929 19.2929C7.60536 19.4804 7.50001 19.7348 7.50001 20V21C7.50001 21.2652 7.60536 21.5195 7.7929 21.7071C7.98044 21.8946 8.23479 22 8.50001 22C8.76522 22 9.01958 21.8946 9.20711 21.7071C9.39465 21.5195 9.50001 21.2652 9.50001 21V20C9.50001 19.7348 9.39465 19.4804 9.20711 19.2929C9.01958 19.1053 8.76522 19 8.50001 19ZM21.7 7.06997C21.5785 6.95 21.4284 6.86312 21.2639 6.81761C21.0993 6.77209 20.9259 6.76947 20.76 6.80997C20.5469 6.86028 20.3289 6.8871 20.11 6.88997C19.3144 6.88997 18.5513 6.5739 17.9887 6.01129C17.4261 5.44868 17.11 4.68562 17.11 3.88997C17.1132 3.66775 17.14 3.44651 17.19 3.22997C17.2287 3.06561 17.2252 2.89413 17.1797 2.73151C17.1342 2.56889 17.0483 2.42043 16.93 2.29997C16.8136 2.17459 16.667 2.08116 16.5041 2.02864C16.3413 1.97611 16.1677 1.96624 16 1.99997C15.0047 2.21971 14.102 2.74253 13.4161 3.49647C12.7302 4.25041 12.2949 5.1984 12.17 6.20997C11.6254 6.06487 11.0636 5.99423 10.5 5.99997C9.05886 5.99915 7.66557 6.51707 6.57488 7.45903C5.48419 8.40099 4.76897 9.70406 4.56001 11.13C3.86364 11.3239 3.2444 11.7287 2.78734 12.2887C2.33028 12.8487 2.05784 13.5365 2.00743 14.2576C1.95701 14.9787 2.13111 15.6977 2.5058 16.3159C2.88049 16.9341 3.43739 17.4211 4.10001 17.71C4.22744 17.7605 4.36295 17.7876 4.50001 17.79C4.7312 17.7919 4.95591 17.7136 5.13589 17.5684C5.31586 17.4233 5.43999 17.2203 5.48715 16.994C5.5343 16.7676 5.50157 16.5319 5.39452 16.327C5.28747 16.1221 5.11272 15.9606 4.90001 15.87C4.6317 15.7557 4.40314 15.5647 4.24302 15.3209C4.0829 15.0772 3.99836 14.7916 4.00001 14.5C4.00001 14.1021 4.15804 13.7206 4.43935 13.4393C4.72065 13.158 5.10218 13 5.50001 13C5.76522 13 6.01958 12.8946 6.20711 12.7071C6.39465 12.5195 6.50001 12.2652 6.50001 12C6.50001 10.9391 6.92143 9.92169 7.67158 9.17154C8.42172 8.4214 9.43914 7.99997 10.5 7.99997C11.2727 8.00073 12.0278 8.2304 12.67 8.65997C13.4 9.13482 13.9521 9.83812 14.24 10.66C14.2972 10.8318 14.3999 10.9849 14.5373 11.1029C14.6747 11.2209 14.8415 11.2994 15.02 11.33C15.5013 11.3803 15.9549 11.5799 16.3172 11.9008C16.6794 12.2217 16.9323 12.6478 17.0403 13.1196C17.1483 13.5913 17.1061 14.085 16.9195 14.5316C16.733 14.9782 16.4115 15.3552 16 15.61C15.8897 15.6822 15.7947 15.7754 15.7204 15.8844C15.6461 15.9933 15.5941 16.1158 15.5671 16.2449C15.5402 16.374 15.539 16.5071 15.5635 16.6367C15.588 16.7662 15.6378 16.8897 15.71 17C15.7822 17.1103 15.8755 17.2053 15.9844 17.2796C16.0934 17.3538 16.2159 17.4059 16.3449 17.4328C16.474 17.4598 16.6071 17.461 16.7367 17.4365C16.8662 17.412 16.9897 17.3622 17.1 17.29C17.691 16.8904 18.1738 16.3506 18.5053 15.719C18.8369 15.0873 19.0068 14.3833 19 13.67C19.0039 12.9731 18.8356 12.2861 18.51 11.67C19.3688 11.4301 20.1467 10.9624 20.7611 10.3162C21.3755 9.6701 21.8036 8.86972 22 7.99997C22.0337 7.83224 22.0239 7.65866 21.9713 7.49583C21.9188 7.333 21.8254 7.18638 21.7 7.06997ZM17.11 9.88997C16.9702 9.9008 16.8298 9.9008 16.69 9.88997C16.4702 9.75414 16.2394 9.63705 16 9.53997C15.5881 8.6431 14.9633 7.86043 14.18 7.25997C14.18 7.13997 14.18 7.00997 14.18 6.88997C14.18 6.45665 14.2738 6.02846 14.4551 5.63487C14.6363 5.24128 14.9007 4.89163 15.23 4.60997C15.3848 5.67683 15.8803 6.66506 16.6426 7.42735C17.4049 8.18963 18.3932 8.68513 19.46 8.83997C19.1707 9.17839 18.8098 9.44819 18.4033 9.6298C17.9969 9.81141 17.5551 9.90029 17.11 9.88997ZM12.5 13C12.2348 13 11.9804 13.1053 11.7929 13.2929C11.6054 13.4804 11.5 13.7348 11.5 14V15C11.5 15.2652 11.6054 15.5195 11.7929 15.7071C11.9804 15.8946 12.2348 16 12.5 16C12.7652 16 13.0196 15.8946 13.2071 15.7071C13.3946 15.5195 13.5 15.2652 13.5 15V14C13.5 13.7348 13.3946 13.4804 13.2071 13.2929C13.0196 13.1053 12.7652 13 12.5 13ZM12.5 18C12.2348 18 11.9804 18.1053 11.7929 18.2929C11.6054 18.4804 11.5 18.7348 11.5 19V20C11.5 20.2652 11.6054 20.5195 11.7929 20.7071C11.9804 20.8946 12.2348 21 12.5 21C12.7652 21 13.0196 20.8946 13.2071 20.7071C13.3946 20.5195 13.5 20.2652 13.5 20V19C13.5 18.7348 13.3946 18.4804 13.2071 18.2929C13.0196 18.1053 12.7652 18 12.5 18Z" fill="black"/>
</svg>
