<svg width="24" height="24" viewBox="0 0 24 24" fill="none" xmlns="http://www.w3.org/2000/svg">
<path d="M12.89 18.06C12.6407 17.97 12.3658 17.9826 12.1258 18.0951C11.8858 18.2076 11.7003 18.4108 11.61 18.66L10.88 20.66C10.79 20.9093 10.8026 21.1842 10.9151 21.4242C11.0276 21.6642 11.2308 21.8498 11.48 21.94C11.589 21.9796 11.7041 21.9999 11.82 22C12.0255 21.9999 12.226 21.9365 12.3942 21.8184C12.5624 21.7003 12.6901 21.5333 12.76 21.34L13.49 19.34C13.5801 19.0907 13.5675 18.8158 13.455 18.5758C13.3425 18.3358 13.1393 18.1503 12.89 18.06ZM8.89002 18.06C8.64071 17.97 8.36584 17.9826 8.12583 18.0951C7.88581 18.2076 7.70028 18.4108 7.61002 18.66L6.88002 20.66C6.78996 20.9093 6.80257 21.1842 6.91507 21.4242C7.02758 21.6642 7.23078 21.8498 7.48002 21.94C7.58902 21.9796 7.70407 21.9999 7.82002 22C8.02553 21.9999 8.22603 21.9365 8.39423 21.8184C8.56242 21.7003 8.69015 21.5333 8.76002 21.34L9.49002 19.34C9.58008 19.0907 9.56747 18.8158 9.45497 18.5758C9.34246 18.3358 9.13926 18.1503 8.89002 18.06ZM8.89002 11.06C8.64071 10.97 8.36584 10.9826 8.12583 11.0951C7.88581 11.2076 7.70028 11.4108 7.61002 11.66L6.51002 14.66C6.45544 14.811 6.438 14.9729 6.4592 15.132C6.48039 15.2912 6.53959 15.4429 6.63179 15.5743C6.72398 15.7057 6.84647 15.813 6.98889 15.8871C7.13131 15.9612 7.28948 15.9999 7.45002 16C7.65553 15.9999 7.85603 15.9365 8.02423 15.8184C8.19242 15.7003 8.32015 15.5333 8.39002 15.34L9.49002 12.34C9.58008 12.0907 9.56747 11.8158 9.45497 11.5758C9.34246 11.3358 9.13926 11.1503 8.89002 11.06ZM12.89 11.06C12.6407 10.97 12.3658 10.9826 12.1258 11.0951C11.8858 11.2076 11.7003 11.4108 11.61 11.66L10.51 14.66C10.4554 14.811 10.438 14.9729 10.4592 15.132C10.4804 15.2912 10.5396 15.4429 10.6318 15.5743C10.724 15.7057 10.8465 15.813 10.9889 15.8871C11.1313 15.9612 11.2895 15.9999 11.45 16C11.6555 15.9999 11.856 15.9365 12.0242 15.8184C12.1924 15.7003 12.3201 15.5333 12.39 15.34L13.49 12.34C13.5801 12.0907 13.5675 11.8158 13.455 11.5758C13.3425 11.3358 13.1393 11.1503 12.89 11.06ZM18.42 6.22002C17.809 4.81602 16.7545 3.65109 15.4181 2.90374C14.0817 2.15639 12.5371 1.86785 11.021 2.08233C9.50489 2.2968 8.10095 3.00247 7.02427 4.09119C5.9476 5.17991 5.25761 6.59163 5.06002 8.11002C4.18743 8.32098 3.41118 8.81934 2.85615 9.52493C2.30111 10.2305 1.99957 11.1023 2.00002 12C1.99823 12.5664 2.11677 13.1268 2.34777 13.644C2.57878 14.1611 2.91699 14.6233 3.34002 15C3.43738 15.0935 3.55266 15.1664 3.67892 15.2141C3.80518 15.2619 3.9398 15.2836 4.07467 15.2779C4.20955 15.2723 4.34188 15.2394 4.46369 15.1812C4.5855 15.123 4.69428 15.0408 4.78346 14.9394C4.87264 14.8381 4.94037 14.7198 4.98259 14.5915C5.0248 14.4633 5.04062 14.3279 5.02909 14.1934C5.01755 14.0589 4.97891 13.9281 4.91548 13.8089C4.85205 13.6898 4.76515 13.5847 4.66002 13.5C4.45032 13.3108 4.28309 13.0793 4.16933 12.8207C4.05557 12.5622 3.99787 12.2825 4.00002 12C4.00002 11.4696 4.21073 10.9609 4.58581 10.5858C4.96088 10.2107 5.46959 10 6.00002 10C6.26524 10 6.51959 9.89466 6.70713 9.70712C6.89466 9.51959 7.00002 9.26523 7.00002 9.00002C7.00257 7.81729 7.42431 6.67377 8.19029 5.7726C8.95627 4.87143 10.0169 4.27097 11.1838 4.07789C12.3506 3.88481 13.5482 4.11162 14.5636 4.71803C15.579 5.32443 16.3466 6.27116 16.73 7.39002C16.7872 7.56186 16.8899 7.71495 17.0273 7.83295C17.1647 7.95095 17.3315 8.02943 17.51 8.06002C18.2042 8.17976 18.8341 8.53995 19.2893 9.07748C19.7446 9.61502 19.9962 10.2956 20 11C20.0153 11.7363 19.7509 12.451 19.26 13C19.1004 13.1988 19.0227 13.4511 19.0429 13.7053C19.063 13.9595 19.1795 14.1963 19.3686 14.3675C19.5576 14.5386 19.8048 14.6311 20.0597 14.626C20.3147 14.6209 20.558 14.5186 20.74 14.34C21.2908 13.7106 21.6749 12.953 21.8572 12.1367C22.0394 11.3204 22.0139 10.4714 21.7831 9.66745C21.5523 8.86352 21.1234 8.13034 20.5359 7.53505C19.9483 6.93975 19.2209 6.50136 18.42 6.26002V6.22002ZM16.89 18.06C16.6407 17.97 16.3658 17.9826 16.1258 18.0951C15.8858 18.2076 15.7003 18.4108 15.61 18.66L14.88 20.66C14.79 20.9093 14.8026 21.1842 14.9151 21.4242C15.0276 21.6642 15.2308 21.8498 15.48 21.94C15.589 21.9796 15.7041 21.9999 15.82 22C16.0255 21.9999 16.226 21.9365 16.3942 21.8184C16.5624 21.7003 16.6901 21.5333 16.76 21.34L17.49 19.34C17.5801 19.0907 17.5675 18.8158 17.455 18.5758C17.3425 18.3358 17.1393 18.1503 16.89 18.06ZM16.89 11.06C16.6407 10.97 16.3658 10.9826 16.1258 11.0951C15.8858 11.2076 15.7003 11.4108 15.61 11.66L14.51 14.66C14.4554 14.811 14.438 14.9729 14.4592 15.132C14.4804 15.2912 14.5396 15.4429 14.6318 15.5743C14.724 15.7057 14.8465 15.813 14.9889 15.8871C15.1313 15.9612 15.2895 15.9999 15.45 16C15.6555 15.9999 15.856 15.9365 16.0242 15.8184C16.1924 15.7003 16.3201 15.5333 16.39 15.34L17.49 12.34C17.5801 12.0907 17.5675 11.8158 17.455 11.5758C17.3425 11.3358 17.1393 11.1503 16.89 11.06Z" fill="black"/>
</svg>
