<svg width="24" height="24" viewBox="0 0 24 24" fill="none" xmlns="http://www.w3.org/2000/svg">
<path d="M20.18 10.19C19.4607 10.0598 18.731 9.99624 18 10C17.58 10 17.17 10 16.76 10.08C16.2496 9.39888 15.5981 8.83605 14.85 8.43C15.4926 7.72825 15.8493 6.81148 15.85 5.86C15.85 4.83626 15.4433 3.85446 14.7194 3.13057C13.9956 2.40668 13.0137 2 11.99 2C10.9663 2 9.98447 2.40668 9.26058 3.13057C8.53669 3.85446 8.13001 4.83626 8.13001 5.86C8.13074 6.81148 8.48747 7.72825 9.13001 8.43C8.38641 8.83816 7.73593 9.39668 7.22001 10.07C6.83001 10 6.42001 10 6.00001 10C5.26843 10.0028 4.53868 10.0731 3.82001 10.21C3.58705 10.2526 3.37677 10.3765 3.22661 10.5596C3.07645 10.7427 2.99615 10.9732 3.00001 11.21V19.46C2.99977 19.6069 3.03191 19.7521 3.09413 19.8852C3.15635 20.0182 3.24713 20.136 3.36001 20.23C3.47218 20.3246 3.60379 20.3933 3.7455 20.4313C3.88722 20.4694 4.03556 20.4757 4.18001 20.45C4.77842 20.3197 5.38778 20.246 6.00001 20.23C7.93711 20.2279 9.83218 20.7947 11.45 21.86L11.58 21.91C11.7127 21.9676 11.8554 21.9982 12 22C12.0955 21.9988 12.1901 21.9819 12.28 21.95H12.35L12.48 21.9C14.1132 20.8073 16.035 20.2259 18 20.23C18.611 20.2328 19.2203 20.2931 19.82 20.41C19.9645 20.4357 20.1128 20.4294 20.2545 20.3913C20.3962 20.3533 20.5278 20.2846 20.64 20.19C20.7529 20.096 20.8437 19.9782 20.9059 19.8452C20.9681 19.7121 21.0002 19.5669 21 19.42V11.17C20.9992 10.9366 20.9167 10.7109 20.767 10.5319C20.6172 10.353 20.4096 10.232 20.18 10.19ZM12 4C12.4685 4.03442 12.9065 4.2448 13.2263 4.58888C13.546 4.93297 13.7237 5.38529 13.7237 5.855C13.7237 6.32471 13.546 6.77703 13.2263 7.12112C12.9065 7.4652 12.4685 7.67558 12 7.71C11.5316 7.67558 11.0935 7.4652 10.7737 7.12112C10.454 6.77703 10.2763 6.32471 10.2763 5.855C10.2763 5.38529 10.454 4.93297 10.7737 4.58888C11.0935 4.2448 11.5316 4.03442 12 4ZM11 19.33C9.43269 18.6055 7.72668 18.2302 6.00001 18.23C5.67001 18.23 5.34001 18.23 5.00001 18.28V12C5.83857 11.9062 6.68583 11.923 7.52001 12.05H7.63001C8.82161 12.269 9.96349 12.7027 11 13.33V19.33ZM12 11.6C11.5553 11.3435 11.0943 11.1163 10.62 10.92H10.56C10.23 10.79 9.90001 10.66 9.56001 10.56C10.2543 10.0074 11.1127 9.70132 12 9.69C12.885 9.69561 13.7431 9.99455 14.44 10.54C13.5911 10.805 12.7731 11.1604 12 11.6ZM19 18.28C16.9467 18.0737 14.8755 18.4189 13 19.28V13.28C14.0384 12.6688 15.181 12.2552 16.37 12.06H16.57C17.374 11.9348 18.1908 11.9146 19 12V18.28Z" fill="black"/>
</svg>
