<svg width="24" height="24" viewBox="0 0 24 24" fill="none" xmlns="http://www.w3.org/2000/svg">
<path d="M15 12.5C14.8065 12.5013 14.6176 12.5586 14.4561 12.6651C14.2946 12.7716 14.1674 12.9227 14.09 13.1C13.4592 12.7108 12.7328 12.5045 11.9916 12.5042C11.2504 12.5038 10.5237 12.7093 9.89255 13.0979C9.2614 13.4865 8.75062 14.0428 8.41719 14.7047C8.08376 15.3666 7.9408 16.1082 8.00426 16.8466C8.06772 17.5851 8.33511 18.2914 8.77658 18.8867C9.21806 19.4821 9.81626 19.9431 10.5045 20.2182C11.1927 20.4934 11.9438 20.572 12.674 20.4452C13.4043 20.3183 14.0849 19.9911 14.64 19.5C14.7451 19.4153 14.832 19.3103 14.8955 19.1911C14.9589 19.0719 14.9975 18.9412 15.0091 18.8067C15.0206 18.6722 15.0048 18.5367 14.9626 18.4085C14.9204 18.2803 14.8526 18.1619 14.7634 18.0606C14.6743 17.9593 14.5655 17.877 14.4437 17.8188C14.3219 17.7607 14.1895 17.7278 14.0547 17.7221C13.9198 17.7164 13.7852 17.7381 13.6589 17.7859C13.5326 17.8337 13.4174 17.9065 13.32 18C12.9554 18.3216 12.4862 18.4993 12 18.5C11.6962 18.4951 11.3975 18.4211 11.1266 18.2835C10.8557 18.1459 10.6197 17.9484 10.4365 17.7059C10.2533 17.4635 10.1278 17.1825 10.0695 16.8843C10.0111 16.5861 10.0215 16.2785 10.0998 15.985C10.1781 15.6914 10.3222 15.4195 10.5213 15.1899C10.7204 14.9604 10.9691 14.7792 11.2487 14.6601C11.5283 14.5411 11.8313 14.4873 12.1347 14.5029C12.4382 14.5185 12.7341 14.603 13 14.75H12.78C12.5148 14.75 12.2604 14.8554 12.0729 15.0429C11.8854 15.2304 11.78 15.4848 11.78 15.75C11.78 16.0152 11.8854 16.2696 12.0729 16.4571C12.2604 16.6447 12.5148 16.75 12.78 16.75H15C15.2652 16.75 15.5196 16.6447 15.7071 16.4571C15.8947 16.2696 16 16.0152 16 15.75V13.5C16 13.2348 15.8947 12.9804 15.7071 12.7929C15.5196 12.6054 15.2652 12.5 15 12.5ZM18.42 7.72002C17.809 6.31602 16.7545 5.15109 15.4181 4.40374C14.0817 3.65639 12.5371 3.36785 11.021 3.58233C9.50489 3.7968 8.10094 4.50247 7.02427 5.59119C5.9476 6.67991 5.2576 8.09163 5.06001 9.61002C4.22223 9.81407 3.47281 10.2834 2.92346 10.948C2.37411 11.6126 2.05423 12.437 2.01151 13.2982C1.96878 14.1594 2.2055 15.0114 2.68638 15.7271C3.16725 16.4429 3.86654 16.984 4.68001 17.27C4.78372 17.302 4.8915 17.3188 5.00001 17.32C5.26523 17.3625 5.53644 17.2978 5.75398 17.1403C5.97152 16.9827 6.11758 16.7452 6.16001 16.48C6.20245 16.2148 6.13778 15.9436 5.98025 15.726C5.82272 15.5085 5.58523 15.3625 5.32001 15.32C4.94292 15.1839 4.61544 14.9376 4.38007 14.6131C4.14469 14.2885 4.01228 13.9007 4.00001 13.5C4.00001 12.9696 4.21072 12.4609 4.5858 12.0858C4.96087 11.7107 5.46958 11.5 6.00001 11.5C6.26523 11.5 6.51958 11.3947 6.70712 11.2071C6.89465 11.0196 7.00001 10.7652 7.00001 10.5C7.00257 9.31729 7.4243 8.17377 8.19028 7.2726C8.95626 6.37143 10.0169 5.77097 11.1838 5.57789C12.3506 5.38481 13.5481 5.61162 14.5636 6.21803C15.579 6.82443 16.3466 7.77116 16.73 8.89002C16.7872 9.06186 16.8899 9.21495 17.0273 9.33295C17.1647 9.45095 17.3315 9.52943 17.51 9.56002C18.1113 9.66886 18.6651 9.95875 19.0972 10.3909C19.5293 10.8231 19.8191 11.3769 19.9278 11.9782C20.0366 12.5796 19.9591 13.1998 19.7057 13.7559C19.4523 14.312 19.0352 14.7775 18.51 15.09C18.2793 15.2226 18.1107 15.4415 18.0413 15.6984C17.9719 15.9553 18.0074 16.2293 18.14 16.46C18.2726 16.6908 18.4915 16.8594 18.7484 16.9288C19.0053 16.9981 19.2793 16.9626 19.51 16.83C20.2682 16.3899 20.8974 15.7582 21.3344 14.9982C21.7715 14.2382 22.001 13.3767 22 12.5C21.997 11.4241 21.647 10.378 21.002 9.51682C20.3571 8.65569 19.4516 8.02556 18.42 7.72002Z" fill="black"/>
</svg>
