<svg width="24" height="24" viewBox="0 0 24 24" fill="none" xmlns="http://www.w3.org/2000/svg">
<path d="M19 14C18.8726 13.9669 18.7399 13.9593 18.6096 13.9776C18.4793 13.996 18.3539 14.0398 18.2405 14.1067C18.1272 14.1736 18.0281 14.2622 17.9491 14.3674C17.8701 14.4727 17.8126 14.5925 17.78 14.72C17.3976 16.2285 16.5234 17.5666 15.2956 18.5228C14.0677 19.479 12.5562 19.9988 11 20H5.40999L6.04999 19.37C6.23624 19.1826 6.34078 18.9292 6.34078 18.665C6.34078 18.4008 6.23624 18.1473 6.04999 17.96C5.17408 17.0876 4.54483 15.9988 4.22624 14.8043C3.90765 13.6098 3.91108 12.3522 4.23619 11.1595C4.5613 9.96674 5.19648 8.88138 6.07714 8.01377C6.95781 7.14616 8.05253 6.52725 9.24999 6.21999C9.37737 6.18716 9.49704 6.12956 9.60216 6.05048C9.70728 5.9714 9.7958 5.87239 9.86266 5.7591C9.92952 5.64582 9.97341 5.52047 9.99182 5.39022C10.0102 5.25997 10.0028 5.12737 9.96999 4.99999C9.90368 4.74273 9.7379 4.52234 9.5091 4.38732C9.39582 4.32046 9.27047 4.27657 9.14022 4.25815C9.00997 4.23974 8.87737 4.24716 8.74999 4.27999C7.29699 4.65883 5.96187 5.3952 4.86625 6.42202C3.77063 7.44884 2.94934 8.73346 2.47718 10.1589C2.00502 11.5843 1.89702 13.1052 2.16299 14.583C2.42897 16.0608 3.06047 17.4486 3.99999 18.62L2.28999 20.29C2.15123 20.4306 2.05723 20.6092 2.01986 20.8032C1.98248 20.9972 2.00341 21.1979 2.07999 21.38C2.15501 21.5626 2.2824 21.7189 2.44613 21.8293C2.60985 21.9396 2.80256 21.999 2.99999 22H11C12.9962 22.0013 14.9363 21.3388 16.5148 20.1169C18.0934 18.8949 19.2209 17.1829 19.72 15.25C19.7576 15.1206 19.7687 14.985 19.7526 14.8512C19.7365 14.7175 19.6936 14.5883 19.6263 14.4716C19.5591 14.3548 19.4689 14.2529 19.3613 14.1718C19.2537 14.0908 19.1308 14.0323 19 14ZM21 1.99999C20.7348 1.99999 20.4804 2.10534 20.2929 2.29288C20.1053 2.48042 20 2.73477 20 2.99999C19.2442 2.43201 18.3429 2.08994 17.4006 2.01346C16.4583 1.93698 15.5136 2.12923 14.6761 2.5679C13.8386 3.00657 13.1427 3.67369 12.669 4.49188C12.1953 5.31006 11.9633 6.24577 11.9998 7.19048C12.0364 8.13518 12.3401 9.05016 12.8756 9.82927C13.4111 10.6084 14.1565 11.2197 15.0254 11.5923C15.8943 11.965 16.851 12.0836 17.7846 11.9345C18.7182 11.7854 19.5904 11.3747 20.3 10.75C20.4176 10.671 20.5171 10.568 20.5919 10.4476C20.6666 10.3273 20.715 10.1925 20.7337 10.0521C20.7525 9.91167 20.7412 9.76887 20.7006 9.63316C20.66 9.49744 20.591 9.3719 20.4982 9.26484C20.4055 9.15779 20.291 9.07167 20.1624 9.01219C20.0338 8.95271 19.8941 8.92123 19.7525 8.91982C19.6108 8.91842 19.4705 8.94713 19.3407 9.00405C19.211 9.06097 19.0949 9.1448 19 9.24999C18.6364 9.5706 18.2006 9.79835 17.7298 9.91372C17.259 10.0291 16.7672 10.0287 16.2966 9.91249C15.826 9.7963 15.3906 9.56781 15.0276 9.24657C14.6646 8.92533 14.3848 8.52091 14.2123 8.06793C14.0397 7.61495 13.9795 7.1269 14.0367 6.64556C14.094 6.16422 14.267 5.70393 14.541 5.30407C14.8151 4.90422 15.1819 4.57672 15.6101 4.3496C16.0384 4.12249 16.5153 4.00253 17 3.99999C17.4211 4.00084 17.8372 4.09032 18.2214 4.26261C18.6056 4.4349 18.9493 4.68614 19.23 4.99999H18C17.7348 4.99999 17.4804 5.10534 17.2929 5.29288C17.1053 5.48042 17 5.73477 17 5.99999C17 6.2652 17.1053 6.51956 17.2929 6.70709C17.4804 6.89463 17.7348 6.99999 18 6.99999H21C21.2652 6.99999 21.5196 6.89463 21.7071 6.70709C21.8946 6.51956 22 6.2652 22 5.99999V2.99999C22 2.73477 21.8946 2.48042 21.7071 2.29288C21.5196 2.10534 21.2652 1.99999 21 1.99999Z" fill="black"/>
</svg>
