<svg width="24" height="24" viewBox="0 0 24 24" fill="none" xmlns="http://www.w3.org/2000/svg">
<path d="M10.3 10.75C10.4176 10.671 10.5171 10.568 10.5919 10.4476C10.6667 10.3273 10.715 10.1925 10.7338 10.0521C10.7525 9.91167 10.7412 9.76887 10.7006 9.63316C10.66 9.49744 10.591 9.3719 10.4982 9.26484C10.4055 9.15779 10.291 9.07167 10.1624 9.01219C10.0339 8.95271 9.89413 8.92123 9.75248 8.91982C9.61082 8.91842 9.47049 8.94713 9.34076 9.00405C9.21104 9.06097 9.09489 9.1448 9.00001 9.24999C8.63645 9.5706 8.20062 9.79835 7.72981 9.91372C7.25901 10.0291 6.76726 10.0287 6.29665 9.91249C5.82605 9.7963 5.39061 9.56781 5.0276 9.24657C4.6646 8.92533 4.38484 8.52091 4.21228 8.06793C4.03971 7.61495 3.97948 7.1269 4.03674 6.64556C4.09401 6.16422 4.26705 5.70393 4.54107 5.30407C4.81508 4.90422 5.18191 4.57672 5.61015 4.3496C6.03838 4.12249 6.51528 4.00253 7.00001 3.99999C7.42107 4.00084 7.83725 4.09032 8.22145 4.26261C8.60566 4.4349 8.9493 4.68614 9.23001 4.99999H8.00001C7.73479 4.99999 7.48044 5.10534 7.2929 5.29288C7.10536 5.48042 7.00001 5.73477 7.00001 5.99999C7.00001 6.2652 7.10536 6.51956 7.2929 6.70709C7.48044 6.89463 7.73479 6.99999 8.00001 6.99999H11C11.2652 6.99999 11.5196 6.89463 11.7071 6.70709C11.8946 6.51956 12 6.2652 12 5.99999V2.99999C12 2.73477 11.8946 2.48042 11.7071 2.29288C11.5196 2.10534 11.2652 1.99999 11 1.99999C10.7348 1.99999 10.4804 2.10534 10.2929 2.29288C10.1054 2.48042 10 2.73477 10 2.99999C9.24423 2.43201 8.34291 2.08994 7.40059 2.01346C6.45828 1.93698 5.51359 2.12923 4.67612 2.5679C3.83864 3.00657 3.14269 3.67369 2.669 4.49188C2.19531 5.31006 1.9633 6.24577 1.99987 7.19048C2.03644 8.13518 2.34009 9.05016 2.87561 9.82927C3.41113 10.6084 4.15657 11.2197 5.02545 11.5923C5.89433 11.965 6.85105 12.0836 7.78463 11.9345C8.71822 11.7854 9.5904 11.3747 10.3 10.75ZM19 5.99999H15C14.7348 5.99999 14.4804 6.10534 14.2929 6.29288C14.1054 6.48042 14 6.73477 14 6.99999C14 7.2652 14.1054 7.51956 14.2929 7.70709C14.4804 7.89463 14.7348 7.99999 15 7.99999H19C19.2652 7.99999 19.5196 8.10534 19.7071 8.29288C19.8947 8.48042 20 8.73477 20 8.99999V18.72L18.43 17.27C18.2456 17.0973 18.0026 17.0009 17.75 17H9.00001C8.73479 17 8.48044 16.8946 8.2929 16.7071C8.10536 16.5196 8.00001 16.2652 8.00001 16V15C8.00001 14.7348 7.89465 14.4804 7.70711 14.2929C7.51958 14.1053 7.26522 14 7.00001 14C6.73479 14 6.48044 14.1053 6.2929 14.2929C6.10536 14.4804 6.00001 14.7348 6.00001 15V16C6.00001 16.7956 6.31608 17.5587 6.87869 18.1213C7.4413 18.6839 8.20436 19 9.00001 19H17.36L20.36 21.73C20.5342 21.8936 20.7613 21.9894 21 22C21.1372 21.9985 21.2728 21.9714 21.4 21.92C21.5789 21.8419 21.731 21.7132 21.8376 21.5497C21.9442 21.3863 22.0007 21.1952 22 21V8.99999C22 8.20434 21.6839 7.44128 21.1213 6.87867C20.5587 6.31606 19.7957 5.99999 19 5.99999Z" fill="black"/>
</svg>
