<svg width="24" height="24" viewBox="0 0 24 24" fill="none" xmlns="http://www.w3.org/2000/svg">
<path d="M14 9.44999H10C9.7348 9.44999 9.48045 9.55534 9.29291 9.74288C9.10537 9.93042 9.00002 10.1848 9.00002 10.45C9.00002 10.7152 9.10537 10.9696 9.29291 11.1571C9.48045 11.3446 9.7348 11.45 10 11.45H14C14.2652 11.45 14.5196 11.3446 14.7071 11.1571C14.8947 10.9696 15 10.7152 15 10.45C15 10.1848 14.8947 9.93042 14.7071 9.74288C14.5196 9.55534 14.2652 9.44999 14 9.44999ZM20.46 9.62999C20.3304 8.27182 19.8757 6.96481 19.1344 5.81941C18.3932 4.67401 17.387 3.72388 16.2011 3.04931C15.0152 2.37474 13.6844 1.99554 12.321 1.94377C10.9576 1.89201 9.60185 2.16918 8.3682 2.75188C7.13455 3.33458 6.05929 4.20568 5.23329 5.29157C4.40728 6.37745 3.85481 7.64622 3.62255 8.99065C3.39029 10.3351 3.48507 11.7157 3.89888 13.0157C4.31269 14.3158 5.03337 15.4972 6.00002 16.46L11.3 21.77C11.393 21.8637 11.5036 21.9381 11.6254 21.9889C11.7473 22.0396 11.878 22.0658 12.01 22.0658C12.142 22.0658 12.2727 22.0396 12.3946 21.9889C12.5165 21.9381 12.6271 21.8637 12.72 21.77L18 16.46C18.8912 15.5754 19.5743 14.5036 19.9998 13.3223C20.4253 12.1409 20.5825 10.8796 20.46 9.62999ZM16.6 15.05L12 19.65L7.40002 15.05C6.72211 14.372 6.20282 13.5523 5.87948 12.6497C5.55615 11.7472 5.4368 10.7842 5.53002 9.82999C5.62383 8.86109 5.93178 7.92515 6.43159 7.08983C6.93139 6.25451 7.61057 5.54069 8.42002 4.99999C9.48096 4.29522 10.7263 3.91928 12 3.91928C13.2737 3.91928 14.5191 4.29522 15.58 4.99999C16.387 5.5386 17.0647 6.24927 17.5644 7.08092C18.0641 7.91258 18.3733 8.84459 18.47 9.80999C18.5663 10.7674 18.4484 11.7343 18.125 12.6405C17.8016 13.5468 17.2807 14.3698 16.6 15.05Z" fill="black"/>
</svg>
