<svg width="24" height="24" viewBox="0 0 24 24" fill="none" xmlns="http://www.w3.org/2000/svg">
<path d="M10.4999 5.49994C10.2347 5.49994 9.98037 5.6053 9.79283 5.79283C9.6053 5.98037 9.49994 6.23472 9.49994 6.49994V8.08994L3.70994 2.28994C3.6167 2.1967 3.50601 2.12274 3.38419 2.07228C3.26237 2.02182 3.1318 1.99585 2.99994 1.99585C2.86808 1.99585 2.73751 2.02182 2.61569 2.07228C2.49387 2.12274 2.38318 2.1967 2.28994 2.28994C2.10164 2.47824 1.99585 2.73364 1.99585 2.99994C1.99585 3.26624 2.10164 3.52164 2.28994 3.70994L8.08994 9.49994H6.49994C6.23472 9.49994 5.98037 9.6053 5.79283 9.79283C5.6053 9.98037 5.49994 10.2347 5.49994 10.4999C5.49994 10.7652 5.6053 11.0195 5.79283 11.207C5.98037 11.3946 6.23472 11.4999 6.49994 11.4999H10.4999C10.6306 11.4984 10.7597 11.4712 10.8799 11.4199C11.1243 11.3185 11.3185 11.1243 11.4199 10.8799C11.4712 10.7597 11.4984 10.6306 11.4999 10.4999V6.49994C11.4999 6.23472 11.3946 5.98037 11.207 5.79283C11.0195 5.6053 10.7652 5.49994 10.4999 5.49994ZM21.7099 20.2899L15.9099 14.4999H17.4999C17.7652 14.4999 18.0195 14.3946 18.207 14.207C18.3946 14.0195 18.4999 13.7652 18.4999 13.4999C18.4999 13.2347 18.3946 12.9804 18.207 12.7928C18.0195 12.6053 17.7652 12.4999 17.4999 12.4999H13.4999C13.3693 12.5015 13.2402 12.5287 13.1199 12.5799C12.8756 12.6814 12.6814 12.8756 12.5799 13.1199C12.5287 13.2402 12.5015 13.3693 12.4999 13.4999V17.4999C12.4999 17.7652 12.6053 18.0195 12.7928 18.207C12.9804 18.3946 13.2347 18.4999 13.4999 18.4999C13.7652 18.4999 14.0195 18.3946 14.207 18.207C14.3946 18.0195 14.4999 17.7652 14.4999 17.4999V15.9099L20.2899 21.7099C20.3829 21.8037 20.4935 21.8781 20.6154 21.9288C20.7372 21.9796 20.8679 22.0057 20.9999 22.0057C21.132 22.0057 21.2627 21.9796 21.3845 21.9288C21.5064 21.8781 21.617 21.8037 21.7099 21.7099C21.8037 21.617 21.8781 21.5064 21.9288 21.3845C21.9796 21.2627 22.0057 21.132 22.0057 20.9999C22.0057 20.8679 21.9796 20.7372 21.9288 20.6154C21.8781 20.4935 21.8037 20.3829 21.7099 20.2899Z" fill="black"/>
</svg>
