<svg width="24" height="24" viewBox="0 0 24 24" fill="none" xmlns="http://www.w3.org/2000/svg">
<path d="M20.6699 5.85C20.2654 5.61167 19.8045 5.48598 19.3349 5.48598C18.8654 5.48598 18.4045 5.61167 17.9999 5.85L13.9999 8.15C13.999 7.68224 13.8753 7.22293 13.641 6.81806C13.4068 6.41318 13.0703 6.07695 12.6652 5.84303C12.2601 5.6091 11.8007 5.4857 11.333 5.48517C10.8652 5.48464 10.4055 5.607 9.99995 5.84L3.32995 9.69C2.92513 9.92465 2.58908 10.2616 2.35547 10.667C2.12186 11.0724 1.9989 11.5321 1.9989 12C1.9989 12.4679 2.12186 12.9276 2.35547 13.333C2.58908 13.7384 2.92513 14.0754 3.32995 14.31L9.99995 18.16C10.4055 18.3953 10.8661 18.5193 11.3349 18.5193C11.8038 18.5193 12.2644 18.3953 12.6699 18.16C13.0759 17.9268 13.4129 17.5902 13.6465 17.1844C13.8801 16.7786 14.0021 16.3182 13.9999 15.85L17.9999 18.16C18.4045 18.3934 18.8629 18.5175 19.3299 18.52C19.8018 18.5201 20.2649 18.3922 20.6699 18.15C21.0758 17.9192 21.413 17.5845 21.6467 17.1803C21.8805 16.7761 22.0024 16.3169 21.9999 15.85V8.15C22.0024 7.68308 21.8805 7.22392 21.6467 6.81971C21.413 6.41549 21.0758 6.0808 20.6699 5.85ZM11.9999 15.85C12.0014 15.9673 11.9716 16.0828 11.9136 16.1848C11.8556 16.2867 11.7715 16.3714 11.6699 16.43C11.5675 16.4869 11.4522 16.5168 11.3349 16.5168C11.2177 16.5168 11.1024 16.4869 10.9999 16.43L4.32995 12.58C4.2282 12.5212 4.14373 12.4366 4.085 12.3348C4.02627 12.233 3.99536 12.1175 3.99536 12C3.99536 11.8825 4.02627 11.767 4.085 11.6652C4.14373 11.5634 4.2282 11.4788 4.32995 11.42L10.9999 7.57C11.1018 7.5112 11.2173 7.48024 11.3349 7.48024C11.4526 7.48024 11.5681 7.5112 11.6699 7.57C11.7715 7.62863 11.8556 7.71328 11.9136 7.81522C11.9716 7.91716 12.0014 8.03272 11.9999 8.15V15.85ZM19.9999 15.85C19.9977 15.966 19.9653 16.0794 19.9061 16.1792C19.8468 16.2789 19.7627 16.3616 19.6619 16.4191C19.5611 16.4765 19.4471 16.5068 19.331 16.507C19.215 16.5071 19.1009 16.4772 18.9999 16.42L13.9999 13.54V10.46L18.9999 7.58C19.1009 7.52283 19.215 7.49286 19.331 7.49302C19.4471 7.49319 19.5611 7.52348 19.6619 7.58094C19.7627 7.6384 19.8468 7.72105 19.9061 7.82081C19.9653 7.92056 19.9977 8.03399 19.9999 8.15V15.85Z" fill="black"/>
</svg>
