<svg width="24" height="24" viewBox="0 0 24 24" fill="none" xmlns="http://www.w3.org/2000/svg">
<path d="M3.64 9.56C3.43578 9.39026 3.1725 9.3086 2.90807 9.33298C2.64365 9.35736 2.39974 9.48578 2.23 9.69C2.06026 9.89422 1.9786 10.1575 2.00298 10.4219C2.02736 10.6863 2.15578 10.9303 2.36 11.1L3.44 12L2.36 12.9C2.25874 12.9839 2.17504 13.087 2.11369 13.2034C2.05233 13.3197 2.01454 13.4471 2.00246 13.578C1.99039 13.709 2.00427 13.8411 2.04331 13.9667C2.08236 14.0923 2.1458 14.209 2.23 14.31C2.31395 14.4113 2.41705 14.495 2.53339 14.5563C2.64974 14.6177 2.77705 14.6555 2.90803 14.6675C3.039 14.6796 3.17108 14.6657 3.29668 14.6267C3.42228 14.5876 3.53895 14.5242 3.64 14.44L5.64 12.77C5.75324 12.6762 5.84439 12.5585 5.90695 12.4254C5.96952 12.2923 6.00195 12.1471 6.00195 12C6.00195 11.8529 5.96952 11.7077 5.90695 11.5746C5.84439 11.4415 5.75324 11.3238 5.64 11.23L3.64 9.56ZM9 5C8.73478 5 8.48043 5.10536 8.29289 5.29289C8.10536 5.48043 8 5.73478 8 6V18C8 18.2652 8.10536 18.5196 8.29289 18.7071C8.48043 18.8946 8.73478 19 9 19C9.26521 19 9.51957 18.8946 9.7071 18.7071C9.89464 18.5196 10 18.2652 10 18V6C10 5.73478 9.89464 5.48043 9.7071 5.29289C9.51957 5.10536 9.26521 5 9 5ZM13 7H21C21.2652 7 21.5196 6.89464 21.7071 6.70711C21.8946 6.51957 22 6.26522 22 6C22 5.73478 21.8946 5.48043 21.7071 5.29289C21.5196 5.10536 21.2652 5 21 5H13C12.7348 5 12.4804 5.10536 12.2929 5.29289C12.1054 5.48043 12 5.73478 12 6C12 6.26522 12.1054 6.51957 12.2929 6.70711C12.4804 6.89464 12.7348 7 13 7ZM21 17H13C12.7348 17 12.4804 17.1054 12.2929 17.2929C12.1054 17.4804 12 17.7348 12 18C12 18.2652 12.1054 18.5196 12.2929 18.7071C12.4804 18.8946 12.7348 19 13 19H21C21.2652 19 21.5196 18.8946 21.7071 18.7071C21.8946 18.5196 22 18.2652 22 18C22 17.7348 21.8946 17.4804 21.7071 17.2929C21.5196 17.1054 21.2652 17 21 17ZM21 9H13C12.7348 9 12.4804 9.10536 12.2929 9.29289C12.1054 9.48043 12 9.73478 12 10C12 10.2652 12.1054 10.5196 12.2929 10.7071C12.4804 10.8946 12.7348 11 13 11H21C21.2652 11 21.5196 10.8946 21.7071 10.7071C21.8946 10.5196 22 10.2652 22 10C22 9.73478 21.8946 9.48043 21.7071 9.29289C21.5196 9.10536 21.2652 9 21 9ZM21 13H13C12.7348 13 12.4804 13.1054 12.2929 13.2929C12.1054 13.4804 12 13.7348 12 14C12 14.2652 12.1054 14.5196 12.2929 14.7071C12.4804 14.8946 12.7348 15 13 15H21C21.2652 15 21.5196 14.8946 21.7071 14.7071C21.8946 14.5196 22 14.2652 22 14C22 13.7348 21.8946 13.4804 21.7071 13.2929C21.5196 13.1054 21.2652 13 21 13Z" fill="black"/>
</svg>
