<svg width="24" height="24" viewBox="0 0 24 24" fill="none" xmlns="http://www.w3.org/2000/svg">
<path d="M2.88 16.88C2.58526 17.1546 2.34885 17.4859 2.18488 17.8538C2.02091 18.2218 1.93274 18.6191 1.92564 19.0219C1.91853 19.4247 1.99263 19.8248 2.14351 20.1984C2.2944 20.5719 2.51898 20.9113 2.80385 21.1962C3.08873 21.481 3.42806 21.7056 3.80161 21.8565C4.17517 22.0074 4.57528 22.0815 4.97809 22.0744C5.38091 22.0673 5.77816 21.9791 6.14616 21.8151C6.51415 21.6512 6.84536 21.4147 7.12 21.12C7.68181 20.5575 7.99736 19.795 7.99736 19C7.99736 18.205 7.68181 17.4425 7.12 16.88C6.54773 16.337 5.7889 16.0343 5 16.0343C4.21111 16.0343 3.45228 16.337 2.88 16.88ZM5.71 19.71C5.61704 19.8037 5.50644 19.8781 5.38458 19.9289C5.26272 19.9797 5.13202 20.0058 5 20.0058C4.86799 20.0058 4.73729 19.9797 4.61543 19.9289C4.49357 19.8781 4.38297 19.8037 4.29 19.71C4.19628 19.617 4.12188 19.5064 4.07111 19.3846C4.02034 19.2627 3.99421 19.132 3.99421 19C3.99421 18.868 4.02034 18.7373 4.07111 18.6154C4.12188 18.4936 4.19628 18.383 4.29 18.29C4.38297 18.1963 4.49357 18.1219 4.61543 18.0711C4.73729 18.0203 4.86799 17.9942 5 17.9942C5.13202 17.9942 5.26272 18.0203 5.38458 18.0711C5.50644 18.1219 5.61704 18.1963 5.71 18.29C5.80373 18.383 5.87813 18.4936 5.9289 18.6154C5.97966 18.7373 6.0058 18.868 6.0058 19C6.0058 19.132 5.97966 19.2627 5.9289 19.3846C5.87813 19.5064 5.80373 19.617 5.71 19.71ZM5 12C4.73479 12 4.48043 12.1054 4.2929 12.2929C4.10536 12.4804 4 12.7348 4 13C4 13.2652 4.10536 13.5196 4.2929 13.7071C4.48043 13.8946 4.73479 14 5 14C6.32609 14 7.59786 14.5268 8.53554 15.4645C9.47322 16.4021 10 17.6739 10 19C10 19.2652 10.1054 19.5196 10.2929 19.7071C10.4804 19.8946 10.7348 20 11 20C11.2652 20 11.5196 19.8946 11.7071 19.7071C11.8946 19.5196 12 19.2652 12 19C12 17.1435 11.2625 15.363 9.94975 14.0503C8.637 12.7375 6.85652 12 5 12ZM5 8C4.73479 8 4.48043 8.10536 4.2929 8.29289C4.10536 8.48043 4 8.73478 4 9C4 9.26522 4.10536 9.51957 4.2929 9.70711C4.48043 9.89464 4.73479 10 5 10C7.38695 10 9.67614 10.9482 11.364 12.636C13.0518 14.3239 14 16.6131 14 19C14 19.2652 14.1054 19.5196 14.2929 19.7071C14.4804 19.8946 14.7348 20 15 20C15.2652 20 15.5196 19.8946 15.7071 19.7071C15.8946 19.5196 16 19.2652 16 19C16 16.0826 14.8411 13.2847 12.7782 11.2218C10.7153 9.15893 7.91739 8 5 8Z" fill="black"/>
</svg>
