<svg width="24" height="24" viewBox="0 0 24 24" fill="none" xmlns="http://www.w3.org/2000/svg">
<path d="M22.61 7.04999L17 1.38999C16.9065 1.29731 16.7957 1.22399 16.6739 1.17422C16.552 1.12446 16.4216 1.09923 16.29 1.09999C16.0276 1.1011 15.7762 1.20525 15.59 1.38999L1.38997 15.54C1.20372 15.7274 1.09918 15.9808 1.09918 16.245C1.09918 16.5092 1.20372 16.7626 1.38997 16.95L7.04997 22.61C7.14341 22.7027 7.25423 22.776 7.37607 22.8258C7.49791 22.8755 7.62837 22.9008 7.75997 22.9C8.02232 22.8989 8.27371 22.7947 8.45997 22.61L11.29 19.78L19.78 11.29L22.61 8.45999C22.7962 8.27263 22.9008 8.01918 22.9008 7.75499C22.9008 7.49081 22.7962 7.23736 22.61 7.04999ZM19.07 9.16999L18.36 8.45999C18.1726 8.27374 17.9192 8.1692 17.655 8.1692C17.3908 8.1692 17.1373 8.27374 16.95 8.45999C16.8562 8.55296 16.7819 8.66356 16.7311 8.78542C16.6803 8.90727 16.6542 9.03798 16.6542 9.16999C16.6542 9.302 16.6803 9.43271 16.7311 9.55457C16.7819 9.67643 16.8562 9.78703 16.95 9.87999L17.66 10.59L16.24 12L14.12 9.87999C13.9287 9.71617 13.6826 9.63056 13.4309 9.64028C13.1792 9.65 12.9405 9.75433 12.7624 9.93243C12.5843 10.1105 12.48 10.3493 12.4703 10.6009C12.4605 10.8526 12.5461 11.0987 12.71 11.29L14.83 13.41L13.41 14.83L12.71 14.12C12.5217 13.9317 12.2663 13.8259 12 13.8259C11.7337 13.8259 11.4783 13.9317 11.29 14.12C11.1017 14.3083 10.9959 14.5637 10.9959 14.83C10.9959 15.0963 11.1017 15.3517 11.29 15.54L12 16.24L10.59 17.66L8.45997 15.54C8.27261 15.3537 8.01916 15.2492 7.75497 15.2492C7.49079 15.2492 7.23734 15.3537 7.04997 15.54C6.86372 15.7274 6.75918 15.9808 6.75918 16.245C6.75918 16.5092 6.86372 16.7626 7.04997 16.95L9.16998 19.07L7.75997 20.49L3.50997 16.24L16.24 3.50999L20.49 7.75999L19.07 9.16999Z" fill="black"/>
</svg>
