<svg width="24" height="24" viewBox="0 0 24 24" fill="none" xmlns="http://www.w3.org/2000/svg">
<path d="M16 2H8C7.20435 2 6.44129 2.31607 5.87868 2.87868C5.31607 3.44129 5 4.20435 5 5V21C4.9993 21.1762 5.04517 21.3495 5.13298 21.5023C5.22078 21.655 5.3474 21.7819 5.5 21.87C5.65202 21.9578 5.82446 22.004 6 22.004C6.17554 22.004 6.34798 21.9578 6.5 21.87L12 18.69L17.5 21.87C17.6524 21.9564 17.8248 22.0012 18 22C18.1752 22.0012 18.3476 21.9564 18.5 21.87C18.6526 21.7819 18.7792 21.655 18.867 21.5023C18.9548 21.3495 19.0007 21.1762 19 21V5C19 4.20435 18.6839 3.44129 18.1213 2.87868C17.5587 2.31607 16.7956 2 16 2ZM17 19.27L12.5 16.67C12.348 16.5822 12.1755 16.536 12 16.536C11.8245 16.536 11.652 16.5822 11.5 16.67L7 19.27V5C7 4.73478 7.10536 4.48043 7.29289 4.29289C7.48043 4.10536 7.73478 4 8 4H16C16.2652 4 16.5196 4.10536 16.7071 4.29289C16.8946 4.48043 17 4.73478 17 5V19.27Z" fill="black"/>
</svg>
