<svg width="24" height="24" viewBox="0 0 24 24" fill="none" xmlns="http://www.w3.org/2000/svg">
<path d="M18 10C18.7911 10 19.5644 9.76541 20.2222 9.32588C20.88 8.88635 21.3927 8.26164 21.6955 7.53074C21.9982 6.79983 22.0774 5.99556 21.9231 5.21964C21.7688 4.44372 21.3878 3.73098 20.8284 3.17157C20.269 2.61216 19.5563 2.2312 18.7803 2.07686C18.0044 1.92252 17.2001 2.00173 16.4692 2.30448C15.7383 2.60723 15.1136 3.11992 14.6741 3.77772C14.2346 4.43552 14 5.20888 14 6C14 7.06087 14.4214 8.07828 15.1715 8.82843C15.9217 9.57857 16.9391 10 18 10ZM18 4C18.3955 4 18.7822 4.1173 19.1111 4.33706C19.44 4.55683 19.6964 4.86918 19.8477 5.23463C19.9991 5.60009 20.0387 6.00222 19.9615 6.39018C19.8844 6.77814 19.6939 7.13451 19.4142 7.41422C19.1345 7.69392 18.7781 7.8844 18.3901 7.96157C18.0022 8.03874 17.6001 7.99914 17.2346 7.84776C16.8691 7.69639 16.5568 7.44004 16.337 7.11114C16.1173 6.78224 16 6.39556 16 6C16 5.46957 16.2107 4.96086 16.5858 4.58579C16.9608 4.21072 17.4695 4 18 4ZM16.85 12.47C16.7603 12.3253 16.6351 12.2059 16.4864 12.1231C16.3376 12.0402 16.1702 11.9968 16 11.9968C15.8297 11.9968 15.6623 12.0402 15.5135 12.1231C15.3648 12.2059 15.2396 12.3253 15.15 12.47L14.15 14.1L10.86 8.5C10.7714 8.35078 10.6456 8.22716 10.4948 8.1413C10.344 8.05544 10.1735 8.0103 9.99997 8.0103C9.82645 8.0103 9.65592 8.05544 9.50514 8.1413C9.35436 8.22716 9.22851 8.35078 9.13997 8.5L2.13997 20.5C2.05245 20.6516 2.00625 20.8235 2.00598 20.9985C2.00572 21.1735 2.05139 21.3456 2.13845 21.4974C2.22551 21.6492 2.35089 21.7756 2.50208 21.8638C2.65326 21.952 2.82494 21.9989 2.99997 22H21C21.1786 22.0004 21.3541 21.9528 21.5082 21.8624C21.6623 21.7719 21.7894 21.6418 21.8761 21.4856C21.9629 21.3295 22.0062 21.1529 22.0016 20.9743C21.997 20.7956 21.9447 20.6215 21.85 20.47L16.85 12.47ZM10.45 20H4.73997L9.99997 11L12.94 16L11.69 18L10.45 20ZM12.8 20L14.29 17.63L15 16.57L16 14.89L19.2 20H12.8Z" fill="black"/>
</svg>
