<svg width="24" height="24" viewBox="0 0 24 24" fill="none" xmlns="http://www.w3.org/2000/svg">
<path d="M9.70994 10.2099L11.9999 7.90994L14.2899 10.2099C14.3829 10.3037 14.4935 10.3781 14.6154 10.4288C14.7372 10.4796 14.8679 10.5057 14.9999 10.5057C15.132 10.5057 15.2627 10.4796 15.3845 10.4288C15.5064 10.3781 15.617 10.3037 15.7099 10.2099C15.8037 10.117 15.8781 10.0064 15.9288 9.88452C15.9796 9.76266 16.0057 9.63195 16.0057 9.49994C16.0057 9.36793 15.9796 9.23722 15.9288 9.11536C15.8781 8.9935 15.8037 8.8829 15.7099 8.78994L12.7099 5.78994C12.617 5.69621 12.5064 5.62182 12.3845 5.57105C12.2627 5.52028 12.132 5.49414 11.9999 5.49414C11.8679 5.49414 11.7372 5.52028 11.6154 5.57105C11.4935 5.62182 11.3829 5.69621 11.2899 5.78994L8.28994 8.78994C8.10164 8.97824 7.99585 9.23364 7.99585 9.49994C7.99585 9.76624 8.10164 10.0216 8.28994 10.2099C8.47825 10.3982 8.73364 10.504 8.99994 10.504C9.26624 10.504 9.52164 10.3982 9.70994 10.2099ZM14.2899 14.7899L11.9999 17.0899L9.70994 14.7899C9.6167 14.6967 9.50601 14.6227 9.38419 14.5723C9.26237 14.5218 9.1318 14.4958 8.99994 14.4958C8.86808 14.4958 8.73751 14.5218 8.61569 14.5723C8.49387 14.6227 8.38318 14.6967 8.28994 14.7899C8.1967 14.8832 8.12274 14.9939 8.07228 15.1157C8.02182 15.2375 7.99585 15.3681 7.99585 15.4999C7.99585 15.6318 8.02182 15.7624 8.07228 15.8842C8.12274 16.006 8.1967 16.1167 8.28994 16.2099L11.2899 19.2099C11.3829 19.3037 11.4935 19.3781 11.6154 19.4288C11.7372 19.4796 11.8679 19.5057 11.9999 19.5057C12.132 19.5057 12.2627 19.4796 12.3845 19.4288C12.5064 19.3781 12.617 19.3037 12.7099 19.2099L15.7099 16.2099C15.8982 16.0216 16.004 15.7662 16.004 15.4999C16.004 15.2336 15.8982 14.9782 15.7099 14.7899C15.5216 14.6016 15.2662 14.4958 14.9999 14.4958C14.7336 14.4958 14.4782 14.6016 14.2899 14.7899Z" fill="black"/>
</svg>
