<svg width="24" height="24" viewBox="0 0 24 24" fill="none" xmlns="http://www.w3.org/2000/svg">
<path d="M21.21 10.29L19.48 8.57C19.8991 7.89021 20.1239 7.10857 20.13 6.31C20.128 5.45842 19.8738 4.62651 19.3995 3.91926C18.9251 3.21202 18.2519 2.66115 17.4648 2.33618C16.6776 2.0112 15.8119 1.9267 14.9767 2.09332C14.1416 2.25994 13.3746 2.67022 12.7724 3.27238C12.1702 3.87454 11.7599 4.64159 11.5933 5.47672C11.4267 6.31184 11.5112 7.17761 11.8362 7.96475C12.1612 8.75189 12.712 9.42512 13.4193 9.89947C14.1265 10.3738 14.9584 10.628 15.81 10.63C16.6068 10.631 17.3886 10.413 18.07 10L19.79 11.73C19.883 11.8237 19.9936 11.8981 20.1154 11.9489C20.2373 11.9997 20.368 12.0258 20.5 12.0258C20.632 12.0258 20.7627 11.9997 20.8846 11.9489C21.0064 11.8981 21.117 11.8237 21.21 11.73C21.3068 11.6367 21.3838 11.5249 21.4364 11.4012C21.4889 11.2775 21.516 11.1444 21.516 11.01C21.516 10.8756 21.4889 10.7425 21.4364 10.6188C21.3838 10.4951 21.3068 10.3833 21.21 10.29ZM17.45 8C17.122 8.32395 16.705 8.54285 16.2521 8.62877C15.7992 8.71469 15.3309 8.66373 14.9071 8.4824C14.4833 8.30106 14.1231 7.99757 13.8724 7.61065C13.6218 7.22373 13.4922 6.77092 13.5 6.31C13.4998 6.00682 13.5598 5.70662 13.6765 5.42681C13.7933 5.147 13.9644 4.89315 14.18 4.68C14.6146 4.24826 15.2024 4.00596 15.815 4.00596C16.4276 4.00596 17.0154 4.24826 17.45 4.68C17.665 4.89456 17.8355 5.14941 17.9519 5.42997C18.0683 5.71052 18.1282 6.01127 18.1282 6.315C18.1282 6.61873 18.0683 6.91948 17.9519 7.20003C17.8355 7.48059 17.665 7.73544 17.45 7.95V8ZM19.5 14C19.3726 13.9669 19.24 13.9593 19.1096 13.9777C18.9793 13.996 18.8539 14.0398 18.7405 14.1067C18.6272 14.1736 18.5282 14.2622 18.4491 14.3675C18.3701 14.4727 18.3126 14.5925 18.28 14.72C17.8976 16.2285 17.0234 17.5666 15.7956 18.5228C14.5677 19.479 13.0563 19.9988 11.5 20H5.91001L6.55001 19.37C6.73626 19.1826 6.8408 18.9292 6.8408 18.665C6.8408 18.4008 6.73626 18.1474 6.55001 17.96C5.90305 17.2999 5.39322 16.5182 5.04995 15.66C4.70668 14.8018 4.53677 13.8842 4.55001 12.96C4.55526 11.5803 4.96813 10.2329 5.73674 9.08712C6.50535 7.94133 7.59542 7.04822 8.87001 6.52C9.11666 6.42187 9.31423 6.22978 9.41925 5.98598C9.52427 5.74218 9.52814 5.46665 9.43001 5.22C9.33188 4.97335 9.13978 4.77578 8.89599 4.67076C8.65219 4.56574 8.37666 4.56187 8.13001 4.66C6.82386 5.18357 5.65868 6.00611 4.72803 7.06159C3.79738 8.11707 3.12719 9.37607 2.77127 10.7375C2.41536 12.0989 2.38364 13.5248 2.67866 14.9007C2.97368 16.2766 3.58721 17.5642 4.47001 18.66L2.79001 20.29C2.65125 20.4306 2.55725 20.6092 2.51988 20.8032C2.48251 20.9972 2.50343 21.1979 2.58001 21.38C2.65503 21.5626 2.78243 21.7189 2.94615 21.8293C3.10987 21.9396 3.30258 21.999 3.50001 22H11.5C13.4963 22.0013 15.4363 21.3388 17.0149 20.1169C18.5934 18.895 19.7209 17.1829 20.22 15.25C20.2576 15.1206 20.2687 14.985 20.2526 14.8512C20.2365 14.7175 20.1936 14.5883 20.1263 14.4716C20.0591 14.3549 19.9689 14.2529 19.8613 14.1719C19.7537 14.0908 19.6308 14.0324 19.5 14Z" fill="black"/>
</svg>
