<svg width="24" height="24" viewBox="0 0 24 24" fill="none" xmlns="http://www.w3.org/2000/svg">
<path d="M19 5.99999H14C13.7348 5.99999 13.4804 6.10534 13.2929 6.29288C13.1054 6.48041 13 6.73477 13 6.99999C13 7.2652 13.1054 7.51956 13.2929 7.70709C13.4804 7.89463 13.7348 7.99999 14 7.99999H19C19.2652 7.99999 19.5196 8.10534 19.7071 8.29288C19.8946 8.48041 20 8.73477 20 8.99999V18.72L18.43 17.27C18.2456 17.0973 18.0026 17.0009 17.75 17H9C8.73478 17 8.48043 16.8946 8.29289 16.7071C8.10536 16.5196 8 16.2652 8 16V14C8 13.7348 7.89464 13.4804 7.70711 13.2929C7.51957 13.1053 7.26522 13 7 13C6.73478 13 6.48043 13.1053 6.29289 13.2929C6.10536 13.4804 6 13.7348 6 14V16C6 16.7956 6.31607 17.5587 6.87868 18.1213C7.44129 18.6839 8.20435 19 9 19H17.36L20.36 21.73C20.5342 21.8936 20.7613 21.9893 21 22C21.1372 21.9985 21.2728 21.9714 21.4 21.92C21.5789 21.8419 21.731 21.7132 21.8376 21.5497C21.9442 21.3863 22.0007 21.1952 22 21V8.99999C22 8.20434 21.6839 7.44127 21.1213 6.87866C20.5587 6.31606 19.7956 5.99999 19 5.99999ZM8.57 9.99999L10.29 11.73C10.383 11.8237 10.4936 11.8981 10.6154 11.9489C10.7373 11.9996 10.868 12.0258 11 12.0258C11.132 12.0258 11.2627 11.9996 11.3846 11.9489C11.5064 11.8981 11.617 11.8237 11.71 11.73C11.8037 11.637 11.8781 11.5264 11.9289 11.4046C11.9797 11.2827 12.0058 11.152 12.0058 11.02C12.0058 10.888 11.9797 10.7573 11.9289 10.6354C11.8781 10.5135 11.8037 10.4029 11.71 10.31L10 8.56998C10.4191 7.8902 10.6439 7.10856 10.65 6.30999C10.65 5.16292 10.1943 4.06284 9.38324 3.25175C8.57214 2.44065 7.47206 1.98499 6.325 1.98499C5.17794 1.98499 4.07786 2.44065 3.26676 3.25175C2.45567 4.06284 2 5.16292 2 6.30999C2 7.45399 2.45377 8.55129 3.26176 9.36116C4.06976 10.171 5.166 10.6273 6.31 10.63C7.10682 10.6309 7.88859 10.413 8.57 9.99999ZM4 6.30999C3.9998 6.0068 4.05981 5.7066 4.17654 5.42679C4.29327 5.14698 4.4644 4.89314 4.68 4.67999C4.8961 4.45865 5.15429 4.28276 5.43937 4.16268C5.72445 4.04259 6.03066 3.98073 6.34 3.98073C6.64934 3.98073 6.95555 4.04259 7.24063 4.16268C7.52571 4.28276 7.7839 4.45865 8 4.67999C8.22258 4.89538 8.39957 5.15333 8.52044 5.43851C8.64132 5.72368 8.70361 6.03025 8.70361 6.33999C8.70361 6.64972 8.64132 6.95629 8.52044 7.24147C8.39957 7.52664 8.22258 7.78459 8 7.99999C7.67506 8.34196 7.25358 8.57674 6.79178 8.67304C6.32998 8.76934 5.8498 8.72258 5.41526 8.53899C4.98072 8.35539 4.61247 8.04369 4.35961 7.64545C4.10676 7.24721 3.98131 6.78135 4 6.30999Z" fill="black"/>
</svg>
