<svg width="24" height="24" viewBox="0 0 24 24" fill="none" xmlns="http://www.w3.org/2000/svg">
<path d="M6.56999 11.9999C6.7784 11.9986 6.98118 11.9322 7.14999 11.8099L8.76999 10.6499C9.35245 10.2341 9.82885 9.68702 10.1607 9.05292C10.4925 8.41883 10.6704 7.71554 10.68 6.99994V3.62994C10.679 3.48224 10.6453 3.33658 10.5814 3.20344C10.5174 3.07031 10.4247 2.953 10.31 2.85994C10.1938 2.76596 10.0581 2.69922 9.91269 2.66461C9.76733 2.62999 9.61605 2.6284 9.46999 2.65994C9.06941 2.74303 8.65607 2.74331 8.25538 2.66077C7.85469 2.57822 7.47511 2.41459 7.13999 2.17994C6.9726 2.06381 6.77373 2.00159 6.56999 2.00159C6.36626 2.00159 6.16739 2.06381 5.99999 2.17994C5.66487 2.41459 5.2853 2.57822 4.8846 2.66077C4.48391 2.74331 4.07057 2.74303 3.66999 2.65994C3.52302 2.62991 3.37117 2.63333 3.22569 2.66994C3.08022 2.70656 2.94485 2.77544 2.8296 2.87147C2.71436 2.96751 2.6222 3.08824 2.55995 3.22473C2.4977 3.36122 2.46696 3.50996 2.46999 3.65994V6.99994C2.46978 7.7233 2.64203 8.43628 2.97246 9.07976C3.30289 9.72323 3.78198 10.2786 4.36999 10.6999L5.99999 11.8099C6.16409 11.9339 6.36432 12.0007 6.56999 11.9999ZM4.45999 6.99994V4.71994C5.19447 4.68901 5.91387 4.50149 6.56999 4.16994C7.22568 4.50265 7.94533 4.69024 8.67999 4.71994V6.99994C8.66654 7.39295 8.56308 7.77764 8.37757 8.12437C8.19207 8.47111 7.92947 8.77065 7.60999 8.99994L6.60999 9.73994L5.52999 8.99994C5.21052 8.77065 4.94792 8.47111 4.76241 8.12437C4.57691 7.77764 4.47345 7.39295 4.45999 6.99994ZM18.54 5.99994H13.54C13.2748 5.99994 13.0204 6.1053 12.8329 6.29284C12.6453 6.48037 12.54 6.73473 12.54 6.99994C12.54 7.26516 12.6453 7.51951 12.8329 7.70705C13.0204 7.89459 13.2748 7.99994 13.54 7.99994H18.54C18.8052 7.99994 19.0596 8.1053 19.2471 8.29284C19.4346 8.48037 19.54 8.73473 19.54 8.99994V18.7199L18 17.2699C17.9104 17.1818 17.8041 17.1124 17.6873 17.0661C17.5705 17.0197 17.4456 16.9972 17.32 16.9999H8.53999C8.27478 16.9999 8.02042 16.8946 7.83289 16.7071C7.64535 16.5195 7.53999 16.2652 7.53999 15.9999V14.9999C7.53999 14.7347 7.43464 14.4804 7.2471 14.2928C7.05956 14.1053 6.80521 13.9999 6.53999 13.9999C6.27478 13.9999 6.02042 14.1053 5.83289 14.2928C5.64535 14.4804 5.53999 14.7347 5.53999 14.9999V15.9999C5.53999 16.7956 5.85606 17.5587 6.41867 18.1213C6.98128 18.6839 7.74434 18.9999 8.53999 18.9999H16.9L19.9 21.7299C20.0819 21.9003 20.3208 21.9966 20.57 21.9999C20.7104 21.9985 20.8494 21.9714 20.98 21.9199C21.157 21.8404 21.307 21.711 21.4118 21.5477C21.5166 21.3843 21.5715 21.194 21.57 20.9999V8.99994C21.57 8.60344 21.4914 8.21087 21.3388 7.84492C21.1862 7.47897 20.9625 7.14692 20.6807 6.86794C20.399 6.58897 20.0647 6.36862 19.6973 6.21964C19.3298 6.07065 18.9365 5.99598 18.54 5.99994Z" fill="black"/>
</svg>
