<svg width="24" height="24" viewBox="0 0 24 24" fill="none" xmlns="http://www.w3.org/2000/svg">
<path d="M14.41 6.53C14.0964 6.59926 13.7716 6.60028 13.4576 6.53299C13.1436 6.4657 12.8477 6.33168 12.59 6.14C12.4187 6.01486 12.2121 5.94741 12 5.94741C11.7879 5.94741 11.5813 6.01486 11.41 6.14C11.1523 6.33168 10.8564 6.4657 10.5424 6.53299C10.2284 6.60028 9.90359 6.59926 9.59 6.53C9.44394 6.49846 9.29267 6.50006 9.1473 6.53467C9.00194 6.56928 8.86618 6.63603 8.75 6.73C8.63398 6.82412 8.54052 6.94304 8.4765 7.07802C8.41247 7.213 8.3795 7.36061 8.38 7.51V10.41C8.373 11.0527 8.51574 11.6882 8.79692 12.2662C9.07811 12.8442 9.49001 13.3488 10 13.74L11.37 14.74C11.5413 14.8652 11.7479 14.9326 11.96 14.9326C12.1721 14.9326 12.3787 14.8652 12.55 14.74L13.92 13.74C14.4374 13.353 14.8569 12.8502 15.1452 12.272C15.4334 11.6938 15.5823 11.0561 15.58 10.41V7.51C15.5805 7.36061 15.5475 7.213 15.4835 7.07802C15.4195 6.94304 15.326 6.82412 15.21 6.73C15.0985 6.6417 14.9695 6.57819 14.8316 6.5437C14.6936 6.50921 14.5499 6.50454 14.41 6.53ZM13.62 10.41C13.6227 10.7446 13.5473 11.0753 13.3997 11.3756C13.2522 11.6759 13.0365 11.9377 12.77 12.14L12 12.71L11.23 12.14C10.9635 11.9377 10.7478 11.6759 10.6003 11.3756C10.4527 11.0753 10.3773 10.7446 10.38 10.41V8.57C10.9447 8.53018 11.4957 8.37715 12 8.12C12.5044 8.37715 13.0553 8.53018 13.62 8.57V10.41ZM20.46 9.63C20.3196 8.16892 19.8032 6.76909 18.9612 5.56682C18.1191 4.36456 16.9801 3.40083 15.655 2.7695C14.3299 2.13816 12.8639 1.86072 11.3997 1.96421C9.93555 2.06769 8.52314 2.54856 7.3 3.36C6.2492 4.06265 5.36706 4.9893 4.71695 6.07339C4.06684 7.15749 3.6649 8.37211 3.54 9.63C3.41749 10.8797 3.57468 12.1409 4.00017 13.3223C4.42567 14.5036 5.1088 15.5755 6 16.46L11.3 21.77C11.393 21.8637 11.5036 21.9381 11.6254 21.9889C11.7473 22.0397 11.878 22.0658 12.01 22.0658C12.142 22.0658 12.2727 22.0397 12.3946 21.9889C12.5164 21.9381 12.627 21.8637 12.72 21.77L18 16.46C18.8912 15.5755 19.5743 14.5036 19.9998 13.3223C20.4253 12.1409 20.5825 10.8797 20.46 9.63ZM16.6 15.05L12 19.65L7.4 15.05C6.72209 14.3721 6.20281 13.5523 5.87947 12.6498C5.55614 11.7472 5.43679 10.7842 5.53 9.83C5.62382 8.86111 5.93177 7.92516 6.43157 7.08985C6.93138 6.25453 7.61056 5.54071 8.42 5C9.48095 4.29524 10.7263 3.9193 12 3.9193C13.2737 3.9193 14.5191 4.29524 15.58 5C16.387 5.53862 17.0647 6.24928 17.5644 7.08094C18.064 7.9126 18.3733 8.84461 18.47 9.81C18.5663 10.7674 18.4484 11.7343 18.125 12.6406C17.8016 13.5468 17.2807 14.3698 16.6 15.05Z" fill="black"/>
</svg>
