<svg width="24" height="24" viewBox="0 0 24 24" fill="none" xmlns="http://www.w3.org/2000/svg">
<path d="M21.7 2.86002C21.5838 2.76604 21.4481 2.69929 21.3027 2.66468C21.1573 2.63007 21.0061 2.62847 20.86 2.66002C20.4594 2.7431 20.0461 2.74338 19.6454 2.66084C19.2447 2.57829 18.8651 2.41467 18.53 2.18002C18.3616 2.06167 18.1608 1.99817 17.955 1.99817C17.7492 1.99817 17.5484 2.06167 17.38 2.18002C17.0449 2.41467 16.6653 2.57829 16.2646 2.66084C15.8639 2.74338 15.4506 2.7431 15.05 2.66002C14.904 2.62847 14.7527 2.63007 14.6073 2.66468C14.4619 2.69929 14.3262 2.76604 14.21 2.86002C14.0953 2.95307 14.0026 3.07038 13.9386 3.20352C13.8747 3.33665 13.841 3.48231 13.84 3.63002V7.00002C13.8418 7.72409 14.0159 8.43735 14.348 9.08075C14.6802 9.72416 15.1608 10.2792 15.75 10.7L17.37 11.86C17.5403 11.9829 17.745 12.049 17.955 12.049C18.165 12.049 18.3697 11.9829 18.54 11.86L20.16 10.7C20.7493 10.2792 21.2299 9.72416 21.562 9.08075C21.8941 8.43735 22.0683 7.72409 22.07 7.00002V3.63002C22.069 3.48231 22.0353 3.33665 21.9714 3.20352C21.9074 3.07038 21.8147 2.95307 21.7 2.86002ZM20.07 7.00002C20.0566 7.39303 19.9531 7.77771 19.7676 8.12445C19.5821 8.47118 19.3195 8.77073 19 9.00002L18 9.74002L16.91 9.00002C16.5905 8.77073 16.3279 8.47118 16.1424 8.12445C15.9569 7.77771 15.8535 7.39303 15.84 7.00002V4.72002C16.5914 4.69591 17.3286 4.50822 18 4.17002C18.6557 4.50273 19.3753 4.69031 20.11 4.72002L20.07 7.00002ZM18.93 14C18.6741 13.9362 18.4034 13.9761 18.1768 14.111C17.9502 14.2458 17.786 14.4647 17.72 14.72C17.3372 16.2302 16.4615 17.5695 15.2316 18.5259C14.0018 19.4823 12.488 20.001 10.93 20H5.35001L6.00001 19.37C6.17439 19.1846 6.27147 18.9396 6.27147 18.685C6.27147 18.4305 6.17439 18.1855 6.00001 18C5.00485 17.025 4.32327 15.7752 4.04252 14.4105C3.76177 13.0459 3.89461 11.6285 4.42405 10.3399C4.95349 9.05116 5.85544 7.94977 7.01445 7.17664C8.17346 6.40351 9.53681 5.99383 10.93 6.00002C11.1952 6.00002 11.4496 5.89466 11.6371 5.70712C11.8247 5.51959 11.93 5.26523 11.93 5.00002C11.93 4.7348 11.8247 4.48045 11.6371 4.29291C11.4496 4.10537 11.1952 4.00002 10.93 4.00002C9.23748 4.00558 7.58081 4.4883 6.1502 5.39275C4.71958 6.29721 3.573 7.58675 2.84208 9.11333C2.11116 10.6399 1.82552 12.3417 2.01796 14.0232C2.21039 15.7048 2.8731 17.298 3.93001 18.62L2.23001 20.29C2.08959 20.4293 1.99362 20.6071 1.95423 20.8009C1.91485 20.9947 1.93382 21.1958 2.00874 21.3789C2.08367 21.5619 2.21119 21.7186 2.37517 21.8292C2.53915 21.9397 2.73224 21.9992 2.93001 22H10.93C12.9263 22.0013 14.8663 21.3389 16.4449 20.1169C18.0234 18.895 19.1509 17.1829 19.65 15.25C19.6876 15.1206 19.6987 14.985 19.6826 14.8513C19.6665 14.7175 19.6236 14.5884 19.5563 14.4716C19.4891 14.3549 19.3989 14.2529 19.2913 14.1719C19.1837 14.0908 19.0608 14.0324 18.93 14Z" fill="black"/>
</svg>
