<svg width="24" height="24" viewBox="0 0 24 24" fill="none" xmlns="http://www.w3.org/2000/svg">
<path d="M19.06 13.51C18.7976 13.4789 18.5335 13.553 18.3255 13.716C18.1175 13.879 17.9825 14.1177 17.95 14.38C17.7357 16.0715 16.9113 17.6267 15.6317 18.7535C14.352 19.8803 12.7051 20.5013 11 20.5H5.41002L6.05002 19.87C6.23627 19.6826 6.34081 19.4292 6.34081 19.165C6.34081 18.9008 6.23627 18.6474 6.05002 18.46C5.17411 17.5876 4.54486 16.4988 4.22627 15.3043C3.90768 14.1098 3.91112 12.8522 4.23622 11.6595C4.56133 10.4668 5.19651 9.3814 6.07717 8.51378C6.95784 7.64617 8.05256 7.02726 9.25002 6.72C9.50728 6.6537 9.72766 6.48791 9.86269 6.25912C9.99771 6.03032 10.0363 5.75726 9.97002 5.5C9.90371 5.24274 9.73793 5.02236 9.50913 4.88733C9.28034 4.7523 9.00728 4.7137 8.75002 4.78C7.29702 5.15885 5.9619 5.89522 4.86628 6.92203C3.77066 7.94885 2.94937 9.23347 2.47721 10.6589C2.00506 12.0843 1.89705 13.6052 2.16302 15.083C2.429 16.5609 3.06051 17.9487 4.00002 19.12L2.29002 20.79C2.15126 20.9306 2.05726 21.1092 2.01989 21.3032C1.98252 21.4972 2.00344 21.6979 2.08002 21.88C2.15504 22.0626 2.28244 22.2189 2.44616 22.3293C2.60988 22.4396 2.80259 22.499 3.00002 22.5H11C13.193 22.5 15.3105 21.6993 16.9548 20.2483C18.5991 18.7973 19.6571 16.7959 19.93 14.62C19.9611 14.3576 19.887 14.0935 19.724 13.8855C19.561 13.6775 19.3223 13.5425 19.06 13.51ZM19 7.5C18.5752 7.5014 18.162 7.63799 17.82 7.89L16.07 7.09L18 6.21C18.3019 6.39326 18.6469 6.49332 19 6.5C19.3956 6.5 19.7823 6.3827 20.1112 6.16294C20.4401 5.94318 20.6964 5.63082 20.8478 5.26537C20.9992 4.89992 21.0388 4.49778 20.9616 4.10982C20.8844 3.72186 20.6939 3.36549 20.4142 3.08579C20.1345 2.80608 19.7782 2.6156 19.3902 2.53843C19.0022 2.46126 18.6001 2.50087 18.2346 2.65224C17.8692 2.80362 17.5568 3.05996 17.3371 3.38886C17.1173 3.71776 17 4.10444 17 4.5L15.1 5.37C14.778 5.14066 14.3952 5.0119 14 5C13.4696 5 12.9609 5.21071 12.5858 5.58579C12.2107 5.96086 12 6.46957 12 7C12 7.53043 12.2107 8.03914 12.5858 8.41421C12.9609 8.78929 13.4696 9 14 9C14.3249 8.99673 14.6441 8.91435 14.93 8.76L17.02 9.76C17.07 10.1413 17.2289 10.5002 17.4776 10.7935C17.7264 11.0868 18.0544 11.3022 18.4224 11.4139C18.7905 11.5255 19.1829 11.5287 19.5527 11.423C19.9225 11.3173 20.2539 11.1072 20.5074 10.818C20.7608 10.5287 20.9255 10.1725 20.9816 9.79198C21.0378 9.41151 20.983 9.02291 20.8239 8.67276C20.6649 8.3226 20.4082 8.02574 20.0847 7.81774C19.7612 7.60974 19.3846 7.49942 19 7.5Z" fill="black"/>
</svg>
