<svg width="24" height="24" viewBox="0 0 24 24" fill="none" xmlns="http://www.w3.org/2000/svg">
<path d="M14.5 15C14.8956 15 15.2823 14.8827 15.6112 14.663C15.94 14.4432 16.1964 14.1308 16.3478 13.7654C16.4991 13.3999 16.5388 12.9978 16.4616 12.6098C16.3844 12.2219 16.1939 11.8655 15.9142 11.5858C15.6345 11.3061 15.2782 11.1156 14.8902 11.0384C14.5022 10.9613 14.1001 11.0009 13.7346 11.1523C13.3692 11.3036 13.0568 11.56 12.8371 11.8889C12.6173 12.2178 12.5 12.6045 12.5 13L10.6 13.87C10.2735 13.6548 9.89105 13.5401 9.50001 13.54C8.96958 13.54 8.46087 13.7507 8.0858 14.1258C7.71072 14.5009 7.50001 15.0096 7.50001 15.54C7.50001 16.0704 7.71072 16.5792 8.0858 16.9542C8.46087 17.3293 8.96958 17.54 9.50001 17.54C9.82218 17.5402 10.139 17.4575 10.42 17.3L12.52 18.3C12.5706 18.737 12.7639 19.1452 13.07 19.4612C13.3761 19.7773 13.7778 19.9836 14.213 20.0482C14.6482 20.1128 15.0925 20.0321 15.4772 19.8187C15.8619 19.6052 16.1654 19.2708 16.3409 18.8673C16.5163 18.4639 16.5538 18.0138 16.4475 17.5869C16.3413 17.16 16.0972 16.78 15.7532 16.5058C15.4091 16.2316 14.9842 16.0785 14.5443 16.0702C14.1045 16.062 13.6741 16.199 13.32 16.46L11.57 15.66L13.48 14.78C13.7946 14.9423 14.1465 15.0182 14.5 15ZM18.42 7.22002C17.809 5.81602 16.7545 4.65109 15.4181 3.90374C14.0817 3.15639 12.5371 2.86785 11.021 3.08233C9.50489 3.2968 8.10094 4.00247 7.02427 5.09119C5.9476 6.17991 5.2576 7.59163 5.06001 9.11002C4.22223 9.31407 3.47281 9.78339 2.92346 10.448C2.37411 11.1126 2.05423 11.937 2.01151 12.7982C1.96878 13.6594 2.2055 14.5114 2.68638 15.2271C3.16725 15.9429 3.86654 16.484 4.68001 16.77C4.78372 16.802 4.8915 16.8188 5.00001 16.82C5.26523 16.8625 5.53644 16.7978 5.75398 16.6403C5.97152 16.4827 6.11758 16.2452 6.16001 15.98C6.20245 15.7148 6.13778 15.4436 5.98025 15.226C5.82272 15.0085 5.58523 14.8625 5.32001 14.82C4.94292 14.6839 4.61544 14.4376 4.38007 14.1131C4.14469 13.7885 4.01228 13.4007 4.00001 13C4.00001 12.4696 4.21072 11.9609 4.5858 11.5858C4.96087 11.2107 5.46958 11 6.00001 11C6.26523 11 6.51958 10.8947 6.70712 10.7071C6.89465 10.5196 7.00001 10.2652 7.00001 10C7.00257 8.81729 7.4243 7.67377 8.19028 6.7726C8.95626 5.87143 10.0169 5.27097 11.1838 5.07789C12.3506 4.88481 13.5481 5.11162 14.5636 5.71803C15.579 6.32443 16.3466 7.27116 16.73 8.39002C16.7872 8.56186 16.8899 8.71495 17.0273 8.83295C17.1647 8.95095 17.3315 9.02943 17.51 9.06002C18.1113 9.16886 18.6651 9.45875 19.0972 9.8909C19.5293 10.3231 19.8191 10.8769 19.9278 11.4782C20.0366 12.0796 19.9591 12.6998 19.7057 13.2559C19.4523 13.812 19.0352 14.2775 18.51 14.59C18.2793 14.7226 18.1107 14.9415 18.0413 15.1984C17.9719 15.4553 18.0074 15.7293 18.14 15.96C18.2726 16.1908 18.4915 16.3594 18.7484 16.4288C19.0053 16.4981 19.2793 16.4626 19.51 16.33C20.2682 15.8899 20.8974 15.2582 21.3344 14.4982C21.7715 13.7382 22.001 12.8767 22 12C21.997 10.9241 21.647 9.87795 21.002 9.01682C20.3571 8.15569 19.4516 7.52556 18.42 7.22002Z" fill="black"/>
</svg>
