<svg width="24" height="24" viewBox="0 0 24 24" fill="none" xmlns="http://www.w3.org/2000/svg">
<path d="M13.5 12.5C13.5 12.2348 13.3946 11.9804 13.2071 11.7929C13.0196 11.6053 12.7652 11.5 12.5 11.5H7.5C7.23478 11.5 6.98043 11.6053 6.79289 11.7929C6.60536 11.9804 6.5 12.2348 6.5 12.5C6.5 12.7652 6.60536 13.0196 6.79289 13.2071C6.98043 13.3946 7.23478 13.5 7.5 13.5H12.5C12.7652 13.5 13.0196 13.3946 13.2071 13.2071C13.3946 13.0196 13.5 12.7652 13.5 12.5ZM18.5 17.5C18.0752 17.5014 17.6619 17.638 17.32 17.89L15.57 17.09L17.48 16.21C17.7819 16.3932 18.1269 16.4933 18.48 16.5C18.8756 16.5 19.2622 16.3827 19.5911 16.1629C19.92 15.9432 20.1764 15.6308 20.3278 15.2654C20.4791 14.8999 20.5187 14.4978 20.4416 14.1098C20.3644 13.7218 20.1739 13.3655 19.8942 13.0858C19.6145 12.8061 19.2581 12.6156 18.8702 12.5384C18.4822 12.4612 18.0801 12.5009 17.7146 12.6522C17.3492 12.8036 17.0368 13.0599 16.8171 13.3888C16.5973 13.7177 16.48 14.1044 16.48 14.5L14.59 15.37C14.331 15.1863 14.0321 15.0668 13.7178 15.0215C13.4035 14.9763 13.083 15.0065 12.7827 15.1097C12.4824 15.2129 12.211 15.3861 11.991 15.615C11.7709 15.8438 11.6085 16.1218 11.5172 16.4259C11.4259 16.73 11.4083 17.0515 11.4658 17.3638C11.5234 17.676 11.6545 17.9701 11.8483 18.2216C12.042 18.4732 12.2929 18.675 12.5801 18.8103C12.8673 18.9457 13.1827 19.0107 13.5 19C13.8222 19.0001 14.139 18.9175 14.42 18.76L16.52 19.76C16.5643 20.1426 16.7182 20.5043 16.9631 20.8016C17.208 21.0989 17.5335 21.3192 17.9006 21.4359C18.2677 21.5526 18.6607 21.5609 19.0323 21.4597C19.4039 21.3584 19.7385 21.152 19.9956 20.8653C20.2528 20.5785 20.4217 20.2236 20.482 19.8432C20.5424 19.4628 20.4916 19.073 20.3357 18.7207C20.1799 18.3685 19.9256 18.0687 19.6035 17.8575C19.2814 17.6463 18.9052 17.5325 18.52 17.53L18.5 17.5ZM10.5 19.5H5.5C5.23478 19.5 4.98043 19.3946 4.79289 19.2071C4.60536 19.0196 4.5 18.7652 4.5 18.5V4.49999C4.5 4.23477 4.60536 3.98042 4.79289 3.79288C4.98043 3.60534 5.23478 3.49999 5.5 3.49999H10.5V6.49999C10.5 7.29564 10.8161 8.0587 11.3787 8.62131C11.9413 9.18392 12.7044 9.49999 13.5 9.49999H16.5C16.5 9.7652 16.6054 10.0196 16.7929 10.2071C16.9804 10.3946 17.2348 10.5 17.5 10.5C17.7652 10.5 18.0196 10.3946 18.2071 10.2071C18.3946 10.0196 18.5 9.7652 18.5 9.49999V8.49999C18.5 8.49999 18.5 8.49999 18.5 8.43999C18.4896 8.34812 18.4695 8.25762 18.44 8.16999V8.07999C18.3919 7.97717 18.3278 7.88265 18.25 7.79999L12.25 1.79999C12.1673 1.7222 12.0728 1.65807 11.97 1.60999C11.9369 1.6042 11.9031 1.6042 11.87 1.60999C11.7861 1.57951 11.6988 1.55936 11.61 1.54999H5.5C4.70435 1.54999 3.94129 1.86606 3.37868 2.42867C2.81607 2.99128 2.5 3.75434 2.5 4.54999V18.55C2.5 19.3456 2.81607 20.1087 3.37868 20.6713C3.94129 21.2339 4.70435 21.55 5.5 21.55H10.5C10.7652 21.55 11.0196 21.4446 11.2071 21.2571C11.3946 21.0696 11.5 20.8152 11.5 20.55C11.5 20.2848 11.3946 20.0304 11.2071 19.8429C11.0196 19.6553 10.7652 19.55 10.5 19.55V19.5ZM12.5 4.90999L15.09 7.49999H13.5C13.2348 7.49999 12.9804 7.39463 12.7929 7.20709C12.6054 7.01956 12.5 6.7652 12.5 6.49999V4.90999ZM7.5 15.5C7.23478 15.5 6.98043 15.6053 6.79289 15.7929C6.60536 15.9804 6.5 16.2348 6.5 16.5C6.5 16.7652 6.60536 17.0196 6.79289 17.2071C6.98043 17.3946 7.23478 17.5 7.5 17.5H8.5C8.76522 17.5 9.01957 17.3946 9.20711 17.2071C9.39464 17.0196 9.5 16.7652 9.5 16.5C9.5 16.2348 9.39464 15.9804 9.20711 15.7929C9.01957 15.6053 8.76522 15.5 8.5 15.5H7.5ZM7.5 9.49999H8.5C8.76522 9.49999 9.01957 9.39463 9.20711 9.20709C9.39464 9.01956 9.5 8.7652 9.5 8.49999C9.5 8.23477 9.39464 7.98042 9.20711 7.79288C9.01957 7.60534 8.76522 7.49999 8.5 7.49999H7.5C7.23478 7.49999 6.98043 7.60534 6.79289 7.79288C6.60536 7.98042 6.5 8.23477 6.5 8.49999C6.5 8.7652 6.60536 9.01956 6.79289 9.20709C6.98043 9.39463 7.23478 9.49999 7.5 9.49999Z" fill="black"/>
</svg>
