<svg width="24" height="24" viewBox="0 0 24 24" fill="none" xmlns="http://www.w3.org/2000/svg">
<path d="M11.29 14.66C11.1053 14.8463 11.0011 15.0977 11 15.36C11.0003 15.494 11.0275 15.6267 11.08 15.75C11.1703 15.9619 11.3309 16.1362 11.5348 16.2433C11.7387 16.3504 11.9733 16.3839 12.1991 16.3381C12.4248 16.2922 12.6278 16.1699 12.7737 15.9917C12.9196 15.8134 12.9996 15.5903 13 15.36C12.9989 15.0977 12.8947 14.8463 12.71 14.66C12.617 14.5663 12.5064 14.4919 12.3846 14.4411C12.2627 14.3903 12.132 14.3642 12 14.3642C11.868 14.3642 11.7373 14.3903 11.6154 14.4411C11.4936 14.4919 11.383 14.5663 11.29 14.66ZM19.63 3.66C19.5138 3.56602 19.3781 3.49927 19.2327 3.46466C19.0873 3.43005 18.9361 3.42846 18.79 3.46C17.7214 3.68394 16.6183 3.68679 15.5486 3.46838C14.4789 3.24997 13.4653 2.81491 12.57 2.19C12.4026 2.07387 12.2037 2.01164 12 2.01164C11.7963 2.01164 11.5974 2.07387 11.43 2.19C10.534 2.8132 9.51998 3.24647 8.45029 3.46316C7.38061 3.67985 6.2779 3.67537 5.21001 3.45C5.06394 3.41846 4.91267 3.42005 4.76731 3.45466C4.62194 3.48927 4.48618 3.55602 4.37001 3.65C4.25399 3.74412 4.16053 3.86303 4.0965 3.99801C4.03247 4.13299 3.9995 4.2806 4.00001 4.43V11.88C3.99912 13.3137 4.34078 14.727 4.99654 16.002C5.6523 17.277 6.60319 18.3768 7.77001 19.21L11.42 21.81C11.5894 21.9306 11.7921 21.9954 12 21.9954C12.2079 21.9954 12.4106 21.9306 12.58 21.81L16.23 19.21C17.3968 18.3768 18.3477 17.277 19.0035 16.002C19.6592 14.727 20.0009 13.3137 20 11.88V4.43C20.0005 4.2806 19.9675 4.13299 19.9035 3.99801C19.8395 3.86303 19.746 3.74412 19.63 3.65V3.66ZM18 11.88C18.0008 12.9948 17.7353 14.0936 17.2257 15.085C16.716 16.0765 15.977 16.9318 15.07 17.58L12 19.77L8.93001 17.58C8.02304 16.9318 7.28399 16.0765 6.77435 15.085C6.26472 14.0936 5.99924 12.9948 6.00001 11.88V5.58C8.09643 5.75943 10.196 5.27302 12 4.19C13.804 5.27302 15.9036 5.75943 18 5.58V11.88ZM12 7.36C11.4731 7.35966 10.9553 7.49812 10.4989 7.76144C10.0425 8.02476 9.66347 8.40366 9.40001 8.86C9.28045 9.08854 9.25383 9.35443 9.32569 9.60214C9.39755 9.84985 9.56234 10.0602 9.78565 10.1893C10.0089 10.3184 10.2735 10.3562 10.524 10.2948C10.7745 10.2334 10.9916 10.0777 11.13 9.86C11.2177 9.70813 11.3438 9.58198 11.4956 9.49423C11.6474 9.40647 11.8197 9.36018 11.995 9.36001C12.1704 9.35983 12.3427 9.40578 12.4947 9.49324C12.6467 9.5807 12.7731 9.70659 12.8611 9.85829C12.949 10.01 12.9956 10.1822 12.996 10.3575C12.9965 10.5329 12.9508 10.7053 12.8635 10.8574C12.7763 11.0096 12.6506 11.1361 12.499 11.2243C12.3475 11.3125 12.1754 11.3593 12 11.36C11.7348 11.36 11.4804 11.4654 11.2929 11.6529C11.1054 11.8404 11 12.0948 11 12.36C11 12.6252 11.1054 12.8796 11.2929 13.0671C11.4804 13.2546 11.7348 13.36 12 13.36C12.7957 13.36 13.5587 13.0439 14.1213 12.4813C14.6839 11.9187 15 11.1556 15 10.36C15 9.56435 14.6839 8.80129 14.1213 8.23868C13.5587 7.67607 12.7957 7.36 12 7.36Z" fill="black"/>
</svg>
