<svg width="24" height="24" viewBox="0 0 24 24" fill="none" xmlns="http://www.w3.org/2000/svg">
<path d="M18.42 7.22002C17.809 5.81602 16.7545 4.65109 15.4181 3.90374C14.0817 3.15639 12.5371 2.86785 11.021 3.08233C9.50489 3.2968 8.10094 4.00247 7.02427 5.09119C5.9476 6.17991 5.2576 7.59163 5.06001 9.11002C4.22223 9.31407 3.47281 9.78339 2.92346 10.448C2.37411 11.1126 2.05423 11.937 2.01151 12.7982C1.96878 13.6594 2.2055 14.5114 2.68638 15.2271C3.16725 15.9429 3.86654 16.484 4.68001 16.77C4.78372 16.802 4.8915 16.8188 5.00001 16.82C5.26523 16.8625 5.53644 16.7978 5.75398 16.6403C5.97152 16.4827 6.11758 16.2452 6.16001 15.98C6.20245 15.7148 6.13778 15.4436 5.98025 15.226C5.82272 15.0085 5.58523 14.8625 5.32001 14.82C4.94292 14.6839 4.61544 14.4376 4.38007 14.1131C4.14469 13.7885 4.01228 13.4007 4.00001 13C4.00001 12.4696 4.21072 11.9609 4.5858 11.5858C4.96087 11.2107 5.46958 11 6.00001 11C6.26523 11 6.51958 10.8947 6.70712 10.7071C6.89465 10.5196 7.00001 10.2652 7.00001 10C7.00257 8.81729 7.4243 7.67377 8.19028 6.7726C8.95626 5.87143 10.0169 5.27097 11.1838 5.07789C12.3506 4.88481 13.5481 5.11162 14.5636 5.71803C15.579 6.32443 16.3466 7.27116 16.73 8.39002C16.7872 8.56186 16.8899 8.71495 17.0273 8.83295C17.1647 8.95095 17.3315 9.02943 17.51 9.06002C18.1113 9.16886 18.6651 9.45875 19.0972 9.8909C19.5293 10.3231 19.8191 10.8769 19.9278 11.4782C20.0366 12.0796 19.9591 12.6998 19.7057 13.2559C19.4523 13.812 19.0352 14.2775 18.51 14.59C18.2793 14.7226 18.1107 14.9415 18.0413 15.1984C17.9719 15.4553 18.0074 15.7293 18.14 15.96C18.2726 16.1908 18.4915 16.3594 18.7484 16.4288C19.0053 16.4981 19.2793 16.4626 19.51 16.33C20.2682 15.8899 20.8974 15.2582 21.3344 14.4982C21.7715 13.7382 22.001 12.8767 22 12C21.997 10.9241 21.647 9.87795 21.002 9.01682C20.3571 8.15569 19.4516 7.52556 18.42 7.22002ZM14.79 11.66C14.411 11.7425 14.0187 11.7432 13.6393 11.6622C13.26 11.5811 12.9023 11.4202 12.59 11.19C12.4187 11.0649 12.2121 10.9974 12 10.9974C11.7879 10.9974 11.5813 11.0649 11.41 11.19C11.098 11.4207 10.7403 11.5821 10.3609 11.6631C9.98143 11.7442 9.58902 11.7431 9.21001 11.66C9.06395 11.6285 8.91268 11.6301 8.76731 11.6647C8.62195 11.6993 8.48619 11.766 8.37001 11.86C8.2553 11.9531 8.16262 12.0704 8.09865 12.2035C8.03467 12.3367 8.00099 12.4823 8.00001 12.63V16C7.99923 16.7171 8.16503 17.4246 8.48434 18.0667C8.80365 18.7088 9.26773 19.2679 9.84001 19.7L11.41 20.85C11.5813 20.9752 11.7879 21.0426 12 21.0426C12.2121 21.0426 12.4187 20.9752 12.59 20.85L14.16 19.69C14.7327 19.2605 15.1972 18.7033 15.5166 18.0627C15.836 17.4221 16.0016 16.7158 16 16V12.63C15.999 12.4823 15.9653 12.3367 15.9014 12.2035C15.8374 12.0704 15.7447 11.9531 15.63 11.86C15.5138 11.766 15.3781 11.6993 15.2327 11.6647C15.0873 11.6301 14.9361 11.6285 14.79 11.66ZM14 16C13.9912 16.3865 13.897 16.7663 13.7241 17.1121C13.5512 17.4578 13.3039 17.7611 13 18L12 18.72L11 18C10.6961 17.7611 10.4488 17.4578 10.2759 17.1121C10.103 16.7663 10.0088 16.3865 10 16V13.72C10.6994 13.6886 11.3829 13.5006 12 13.17C12.6171 13.5006 13.3006 13.6886 14 13.72V16Z" fill="black"/>
</svg>
