<svg width="24" height="24" viewBox="0 0 24 24" fill="none" xmlns="http://www.w3.org/2000/svg">
<path d="M22 7.82C22.0048 7.75676 22.0048 7.69324 22 7.63L20 2.63C19.9219 2.43235 19.7828 2.26473 19.603 2.15145C19.4232 2.03817 19.212 1.98512 19 2H5C4.79972 1.9998 4.604 2.05975 4.43818 2.17208C4.27237 2.2844 4.1441 2.44393 4.07 2.63L2.07 7.63C2.06518 7.69324 2.06518 7.75676 2.07 7.82C2.03677 7.87566 2.01311 7.93651 2 8C2.01113 8.69124 2.20123 9.36779 2.55174 9.96368C2.90226 10.5596 3.40124 11.0544 4 11.4V21C4 21.2652 4.10536 21.5196 4.29289 21.7071C4.48043 21.8946 4.73478 22 5 22H19C19.2652 22 19.5196 21.8946 19.7071 21.7071C19.8946 21.5196 20 21.2652 20 21V11.44C20.6046 11.091 21.1072 10.5898 21.4581 9.98634C21.809 9.38285 21.9958 8.69805 22 8C22.0094 7.94036 22.0094 7.87963 22 7.82ZM13 20H11V16H13V20ZM18 20H15V15C15 14.7348 14.8946 14.4804 14.7071 14.2929C14.5196 14.1054 14.2652 14 14 14H10C9.73478 14 9.48043 14.1054 9.29289 14.2929C9.10536 14.4804 9 14.7348 9 15V20H6V12C6.56947 11.9968 7.13169 11.872 7.64905 11.634C8.16642 11.396 8.627 11.0503 9 10.62C9.37537 11.0456 9.83701 11.3865 10.3542 11.62C10.8715 11.8535 11.4325 11.9742 12 11.9742C12.5675 11.9742 13.1285 11.8535 13.6458 11.62C14.163 11.3865 14.6246 11.0456 15 10.62C15.373 11.0503 15.8336 11.396 16.3509 11.634C16.8683 11.872 17.4305 11.9968 18 12V20ZM18 10C17.4696 10 16.9609 9.78928 16.5858 9.41421C16.2107 9.03914 16 8.53043 16 8C16 7.73478 15.8946 7.48043 15.7071 7.29289C15.5196 7.10535 15.2652 7 15 7C14.7348 7 14.4804 7.10535 14.2929 7.29289C14.1054 7.48043 14 7.73478 14 8C14 8.53043 13.7893 9.03914 13.4142 9.41421C13.0391 9.78928 12.5304 10 12 10C11.4696 10 10.9609 9.78928 10.5858 9.41421C10.2107 9.03914 10 8.53043 10 8C10 7.73478 9.89464 7.48043 9.70711 7.29289C9.51957 7.10535 9.26522 7 9 7C8.73478 7 8.48043 7.10535 8.29289 7.29289C8.10536 7.48043 8 7.73478 8 8C8.00985 8.26264 7.96787 8.52465 7.87646 8.77107C7.78505 9.01749 7.646 9.24349 7.46725 9.43618C7.28849 9.62886 7.07354 9.78445 6.83466 9.89405C6.59578 10.0037 6.33764 10.0651 6.075 10.075C5.54457 10.0949 5.02796 9.90325 4.63882 9.54224C4.44614 9.36349 4.29055 9.14854 4.18094 8.90965C4.07133 8.67077 4.00985 8.41264 4 8.15L5.68 4H18.32L20 8.15C19.9621 8.65401 19.7348 9.12499 19.3637 9.4682C18.9927 9.81142 18.5054 10.0014 18 10Z" fill="black"/>
</svg>
