<svg width="24" height="24" viewBox="0 0 24 24" fill="none" xmlns="http://www.w3.org/2000/svg">
<path d="M21.71 7.28994C21.617 7.19621 21.5064 7.12182 21.3846 7.07105C21.2627 7.02028 21.132 6.99414 21 6.99414C20.868 6.99414 20.7373 7.02028 20.6154 7.07105C20.4936 7.12182 20.383 7.19621 20.29 7.28994L14 13.5899L9.71 9.28994C9.61704 9.19621 9.50644 9.12182 9.38458 9.07105C9.26272 9.02028 9.13201 8.99414 9 8.99414C8.86799 8.99414 8.73728 9.02028 8.61542 9.07105C8.49356 9.12182 8.38296 9.19621 8.29 9.28994L2.29 15.2899C2.19627 15.3829 2.12188 15.4935 2.07111 15.6154C2.02034 15.7372 1.9942 15.8679 1.9942 15.9999C1.9942 16.132 2.02034 16.2627 2.07111 16.3845C2.12188 16.5064 2.19627 16.617 2.29 16.7099C2.38296 16.8037 2.49356 16.8781 2.61542 16.9288C2.73728 16.9796 2.86799 17.0057 3 17.0057C3.13201 17.0057 3.26272 16.9796 3.38458 16.9288C3.50644 16.8781 3.61704 16.8037 3.71 16.7099L9 11.4099L13.29 15.7099C13.383 15.8037 13.4936 15.8781 13.6154 15.9288C13.7373 15.9796 13.868 16.0057 14 16.0057C14.132 16.0057 14.2627 15.9796 14.3846 15.9288C14.5064 15.8781 14.617 15.8037 14.71 15.7099L21.71 8.70994C21.8037 8.61698 21.8781 8.50638 21.9289 8.38452C21.9797 8.26266 22.0058 8.13195 22.0058 7.99994C22.0058 7.86793 21.9797 7.73722 21.9289 7.61536C21.8781 7.4935 21.8037 7.3829 21.71 7.28994Z" fill="black"/>
</svg>
