<svg width="24" height="24" viewBox="0 0 24 24" fill="none" xmlns="http://www.w3.org/2000/svg">
<path d="M12.71 13.29C12.6149 13.199 12.5028 13.1276 12.38 13.08C12.1365 12.98 11.8635 12.98 11.62 13.08C11.4973 13.1276 11.3851 13.199 11.29 13.29L8.79 15.79C8.6017 15.9783 8.49591 16.2337 8.49591 16.5C8.49591 16.7663 8.6017 17.0217 8.79 17.21C8.97831 17.3983 9.2337 17.5041 9.5 17.5041C9.7663 17.5041 10.0217 17.3983 10.21 17.21L11 16.41V21C11 21.2652 11.1054 21.5196 11.2929 21.7071C11.4804 21.8946 11.7348 22 12 22C12.2652 22 12.5196 21.8946 12.7071 21.7071C12.8946 21.5196 13 21.2652 13 21V16.41L13.79 17.21C13.883 17.3037 13.9936 17.3781 14.1154 17.4289C14.2373 17.4797 14.368 17.5058 14.5 17.5058C14.632 17.5058 14.7627 17.4797 14.8846 17.4289C15.0064 17.3781 15.117 17.3037 15.21 17.21C15.3037 17.117 15.3781 17.0064 15.4289 16.8846C15.4797 16.7627 15.5058 16.632 15.5058 16.5C15.5058 16.368 15.4797 16.2373 15.4289 16.1154C15.3781 15.9936 15.3037 15.883 15.21 15.79L12.71 13.29ZM11.29 10.71C11.3851 10.801 11.4973 10.8724 11.62 10.92C11.7397 10.9729 11.8691 11.0002 12 11.0002C12.1309 11.0002 12.2603 10.9729 12.38 10.92C12.5028 10.8724 12.6149 10.801 12.71 10.71L15.21 8.21C15.3032 8.11676 15.3772 8.00607 15.4277 7.88425C15.4781 7.76243 15.5041 7.63186 15.5041 7.5C15.5041 7.36814 15.4781 7.23757 15.4277 7.11575C15.3772 6.99393 15.3032 6.88324 15.21 6.79C15.1168 6.69676 15.0061 6.6228 14.8843 6.57234C14.7624 6.52188 14.6319 6.49591 14.5 6.49591C14.3681 6.49591 14.2376 6.52188 14.1158 6.57234C13.9939 6.6228 13.8832 6.69676 13.79 6.79L13 7.59V3C13 2.73478 12.8946 2.48043 12.7071 2.29289C12.5196 2.10536 12.2652 2 12 2C11.7348 2 11.4804 2.10536 11.2929 2.29289C11.1054 2.48043 11 2.73478 11 3V7.59L10.21 6.79C10.1168 6.69676 10.0061 6.6228 9.88425 6.57234C9.76243 6.52188 9.63186 6.49591 9.5 6.49591C9.2337 6.49591 8.97831 6.6017 8.79 6.79C8.69676 6.88324 8.6228 6.99393 8.57234 7.11575C8.52188 7.23757 8.49591 7.36814 8.49591 7.5C8.49591 7.7663 8.6017 8.0217 8.79 8.21L11.29 10.71Z" fill="black"/>
</svg>
