<svg width="24" height="24" viewBox="0 0 24 24" fill="none" xmlns="http://www.w3.org/2000/svg">
<path d="M3 9.99994C3.26522 9.99994 3.51957 9.89458 3.70711 9.70705C3.89464 9.51951 4 9.26516 4 8.99994V5.40994L8.56 9.99994C8.65328 10.0967 8.76512 10.1737 8.88883 10.2263C9.01254 10.2789 9.14558 10.306 9.28 10.306C9.41442 10.306 9.54746 10.2789 9.67117 10.2263C9.79488 10.1737 9.90672 10.0967 10 9.99994C10.1863 9.81258 10.2908 9.55913 10.2908 9.29494C10.2908 9.03076 10.1863 8.7773 10 8.58994L5.41 3.99994H9C9.26522 3.99994 9.51957 3.89458 9.70711 3.70705C9.89464 3.51951 10 3.26516 10 2.99994C10 2.73472 9.89464 2.48037 9.70711 2.29283C9.51957 2.1053 9.26522 1.99994 9 1.99994H3C2.86932 2.00152 2.74022 2.0287 2.62 2.07994C2.37565 2.18142 2.18147 2.37559 2.08 2.61994C2.02876 2.74016 2.00158 2.86926 2 2.99994V8.99994C2 9.26516 2.10536 9.51951 2.29289 9.70705C2.48043 9.89458 2.73478 9.99994 3 9.99994ZM15.3 13.9999C15.1087 13.8361 14.8626 13.7505 14.6109 13.7602C14.3593 13.7699 14.1205 13.8743 13.9424 14.0524C13.7643 14.2305 13.66 14.4692 13.6503 14.7209C13.6406 14.9726 13.7262 15.2186 13.89 15.4099L20.16 21.6899C20.2534 21.7826 20.3643 21.8559 20.4861 21.9057C20.6079 21.9555 20.7384 21.9807 20.87 21.9799C21.0016 21.9807 21.1321 21.9555 21.2539 21.9057C21.3757 21.8559 21.4866 21.7826 21.58 21.6899C21.6737 21.597 21.7481 21.4864 21.7989 21.3645C21.8497 21.2427 21.8758 21.112 21.8758 20.9799C21.8758 20.8479 21.8497 20.7172 21.7989 20.5954C21.7481 20.4735 21.6737 20.3629 21.58 20.2699L15.3 13.9999ZM9 19.9999H5.41L21.71 3.70994C21.8983 3.52164 22.0041 3.26624 22.0041 2.99994C22.0041 2.73364 21.8983 2.47824 21.71 2.28994C21.5217 2.10164 21.2663 1.99585 21 1.99585C20.7337 1.99585 20.4783 2.10164 20.29 2.28994L4 18.5899V14.9999C4 14.7347 3.89464 14.4804 3.70711 14.2928C3.51957 14.1053 3.26522 13.9999 3 13.9999C2.73478 13.9999 2.48043 14.1053 2.29289 14.2928C2.10536 14.4804 2 14.7347 2 14.9999V20.9999C2.00158 21.1306 2.02876 21.2597 2.08 21.3799C2.18147 21.6243 2.37565 21.8185 2.62 21.9199C2.74022 21.9712 2.86932 21.9984 3 21.9999H9C9.26522 21.9999 9.51957 21.8946 9.70711 21.707C9.89464 21.5195 10 21.2652 10 20.9999C10 20.7347 9.89464 20.4804 9.70711 20.2928C9.51957 20.1053 9.26522 19.9999 9 19.9999Z" fill="black"/>
</svg>
