<svg width="24" height="24" viewBox="0 0 24 24" fill="none" xmlns="http://www.w3.org/2000/svg">
<path d="M8.69994 9.99994C8.8873 10.1862 9.14075 10.2907 9.40494 10.2907C9.66912 10.2907 9.92258 10.1862 10.1099 9.99994C10.2962 9.81258 10.4007 9.55913 10.4007 9.29494C10.4007 9.03076 10.2962 8.7773 10.1099 8.58994L3.83994 2.28994C3.65164 2.10164 3.39624 1.99585 3.12994 1.99585C2.86364 1.99585 2.60824 2.10164 2.41994 2.28994C2.23164 2.47824 2.12585 2.73364 2.12585 2.99994C2.12585 3.26624 2.23164 3.52164 2.41994 3.70994L8.69994 9.99994ZM20.9999 13.9999C20.7347 13.9999 20.4804 14.1053 20.2928 14.2928C20.1053 14.4804 19.9999 14.7347 19.9999 14.9999V18.5899L15.4399 13.9999C15.249 13.809 14.99 13.7017 14.7199 13.7017C14.4499 13.7017 14.1909 13.809 13.9999 13.9999C13.809 14.1909 13.7017 14.4499 13.7017 14.7199C13.7017 14.99 13.809 15.249 13.9999 15.4399L18.5899 19.9999H14.9999C14.7347 19.9999 14.4804 20.1053 14.2928 20.2928C14.1053 20.4804 13.9999 20.7347 13.9999 20.9999C13.9999 21.2652 14.1053 21.5195 14.2928 21.707C14.4804 21.8946 14.7347 21.9999 14.9999 21.9999H20.9999C21.1306 21.9984 21.2597 21.9712 21.3799 21.9199C21.6243 21.8185 21.8185 21.6243 21.9199 21.3799C21.9712 21.2597 21.9984 21.1306 21.9999 20.9999V14.9999C21.9999 14.7347 21.8946 14.4804 21.707 14.2928C21.5195 14.1053 21.2652 13.9999 20.9999 13.9999ZM21.9199 2.61994C21.8185 2.37559 21.6243 2.18142 21.3799 2.07994C21.2597 2.0287 21.1306 2.00152 20.9999 1.99994H14.9999C14.7347 1.99994 14.4804 2.1053 14.2928 2.29283C14.1053 2.48037 13.9999 2.73472 13.9999 2.99994C13.9999 3.26516 14.1053 3.51951 14.2928 3.70705C14.4804 3.89458 14.7347 3.99994 14.9999 3.99994H18.5899L2.28994 20.2899C2.19621 20.3829 2.12182 20.4935 2.07105 20.6154C2.02028 20.7372 1.99414 20.8679 1.99414 20.9999C1.99414 21.132 2.02028 21.2627 2.07105 21.3845C2.12182 21.5064 2.19621 21.617 2.28994 21.7099C2.3829 21.8037 2.4935 21.8781 2.61536 21.9288C2.73722 21.9796 2.86793 22.0057 2.99994 22.0057C3.13195 22.0057 3.26266 21.9796 3.38452 21.9288C3.50637 21.8781 3.61698 21.8037 3.70994 21.7099L19.9999 5.40994V8.99994C19.9999 9.26516 20.1053 9.51951 20.2928 9.70705C20.4804 9.89458 20.7347 9.99994 20.9999 9.99994C21.2652 9.99994 21.5195 9.89458 21.707 9.70705C21.8946 9.51951 21.9999 9.26516 21.9999 8.99994V2.99994C21.9984 2.86926 21.9712 2.74016 21.9199 2.61994Z" fill="black"/>
</svg>
