<svg width="24" height="24" viewBox="0 0 24 24" fill="none" xmlns="http://www.w3.org/2000/svg">
<path d="M21.12 9.87999L14.12 2.87999C13.5477 2.33699 12.7889 2.03427 12 2.03427C11.2111 2.03427 10.4523 2.33699 9.88 2.87999L2.88 9.87999C2.3182 10.4425 2.00264 11.205 2.00264 12C2.00264 12.795 2.3182 13.5575 2.88 14.12L9.88 21.12C10.4425 21.6818 11.205 21.9974 12 21.9974C12.795 21.9974 13.5575 21.6818 14.12 21.12L21.12 14.12C21.6818 13.5575 21.9974 12.795 21.9974 12C21.9974 11.205 21.6818 10.4425 21.12 9.87999ZM19.71 12.71L12.71 19.71C12.617 19.8037 12.5064 19.8781 12.3846 19.9289C12.2627 19.9797 12.132 20.0058 12 20.0058C11.868 20.0058 11.7373 19.9797 11.6154 19.9289C11.4936 19.8781 11.383 19.8037 11.29 19.71L4.29 12.71C4.19627 12.617 4.12188 12.5064 4.07111 12.3846C4.02034 12.2627 3.9942 12.132 3.9942 12C3.9942 11.868 4.02034 11.7373 4.07111 11.6154C4.12188 11.4936 4.19627 11.383 4.29 11.29L11.29 4.28999C11.383 4.19626 11.4936 4.12187 11.6154 4.0711C11.7373 4.02033 11.868 3.99419 12 3.99419C12.132 3.99419 12.2627 4.02033 12.3846 4.0711C12.5064 4.12187 12.617 4.19626 12.71 4.28999L19.71 11.29C19.8037 11.383 19.8781 11.4936 19.9289 11.6154C19.9797 11.7373 20.0058 11.868 20.0058 12C20.0058 12.132 19.9797 12.2627 19.9289 12.3846C19.8781 12.5064 19.8037 12.617 19.71 12.71ZM14.21 9.28999C14.0217 9.10169 13.7663 8.9959 13.5 8.9959C13.2337 8.9959 12.9783 9.10169 12.79 9.28999C12.6017 9.4783 12.4959 9.73369 12.4959 9.99999C12.4959 10.2663 12.6017 10.5217 12.79 10.71L13.09 11H9.5C9.23478 11 8.98043 11.1054 8.79289 11.2929C8.60536 11.4804 8.5 11.7348 8.5 12V14C8.5 14.2652 8.60536 14.5196 8.79289 14.7071C8.98043 14.8946 9.23478 15 9.5 15C9.76522 15 10.0196 14.8946 10.2071 14.7071C10.3946 14.5196 10.5 14.2652 10.5 14V13H13.09L12.79 13.29C12.6963 13.383 12.6219 13.4936 12.5711 13.6154C12.5203 13.7373 12.4942 13.868 12.4942 14C12.4942 14.132 12.5203 14.2627 12.5711 14.3846C12.6219 14.5064 12.6963 14.617 12.79 14.71C12.883 14.8037 12.9936 14.8781 13.1154 14.9289C13.2373 14.9797 13.368 15.0058 13.5 15.0058C13.632 15.0058 13.7627 14.9797 13.8846 14.9289C14.0064 14.8781 14.117 14.8037 14.21 14.71L16.21 12.71C16.3037 12.617 16.3781 12.5064 16.4289 12.3846C16.4797 12.2627 16.5058 12.132 16.5058 12C16.5058 11.868 16.4797 11.7373 16.4289 11.6154C16.3781 11.4936 16.3037 11.383 16.21 11.29L14.21 9.28999Z" fill="black"/>
</svg>
