<svg width="24" height="24" viewBox="0 0 24 24" fill="none" xmlns="http://www.w3.org/2000/svg">
<path d="M19 3C18.2043 3 17.4413 3.31607 16.8786 3.87868C16.316 4.44129 16 5.20435 16 6V8.84L6.99997 3.47C6.50259 3.17318 5.93418 3.01646 5.35497 3.01646C4.77576 3.01646 4.20734 3.17318 3.70997 3.47C3.18905 3.76603 2.75619 4.1952 2.45571 4.71357C2.15524 5.23193 1.99795 5.82085 1.99997 6.42V17.58C1.98998 18.1886 2.14452 18.7886 2.44726 19.3166C2.75 19.8447 3.18971 20.2811 3.71997 20.58C4.21092 20.8578 4.76589 21.0025 5.32997 21C5.91873 20.9961 6.49557 20.8337 6.99997 20.53L16 15.16V18C16 18.7956 16.316 19.5587 16.8786 20.1213C17.4413 20.6839 18.2043 21 19 21C19.7956 21 20.5587 20.6839 21.1213 20.1213C21.6839 19.5587 22 18.7956 22 18V6C22 5.20435 21.6839 4.44129 21.1213 3.87868C20.5587 3.31607 19.7956 3 19 3ZM15.32 13.23L5.99997 18.81C5.80716 18.9275 5.58574 18.9896 5.35997 18.9896C5.13419 18.9896 4.91277 18.9275 4.71997 18.81C4.50082 18.6882 4.31839 18.5098 4.19173 18.2935C4.06508 18.0771 3.99885 17.8307 3.99997 17.58V6.42C3.99425 6.16692 4.05725 5.91703 4.18228 5.69691C4.3073 5.4768 4.48967 5.2947 4.70997 5.17C4.89898 5.06192 5.11227 5.00344 5.32997 5C5.56694 4.99747 5.7996 5.06344 5.99997 5.19L15.33 10.77C15.5387 10.9003 15.7108 11.0816 15.8302 11.2968C15.9495 11.5119 16.0121 11.7539 16.0121 12C16.0121 12.2461 15.9495 12.4881 15.8302 12.7032C15.7108 12.9184 15.5387 13.0997 15.33 13.23H15.32ZM20 18C20 18.2652 19.8946 18.5196 19.7071 18.7071C19.5195 18.8946 19.2652 19 19 19C18.7348 19 18.4804 18.8946 18.2929 18.7071C18.1053 18.5196 18 18.2652 18 18V6C18 5.73478 18.1053 5.48043 18.2929 5.29289C18.4804 5.10536 18.7348 5 19 5C19.2652 5 19.5195 5.10536 19.7071 5.29289C19.8946 5.48043 20 5.73478 20 6V18Z" fill="black"/>
</svg>
