<svg width="24" height="24" viewBox="0 0 24 24" fill="none" xmlns="http://www.w3.org/2000/svg">
<path d="M21.4345 14.1555C21.5768 13.4895 21.6477 12.8102 21.6461 12.1292C21.639 10.8839 21.3865 9.6522 20.9032 8.50452C20.4198 7.35684 19.7149 6.31568 18.8289 5.44059C17.9428 4.56549 16.893 3.87362 15.7394 3.40451C14.5858 2.93541 13.3511 2.69827 12.1058 2.70667C11.561 2.70527 11.0172 2.75272 10.4808 2.84845C9.6482 2.32528 8.69124 2.03336 7.70837 2.00269C6.7255 1.97203 5.7522 2.20374 4.88857 2.67399C4.02495 3.14424 3.30219 3.83605 2.79461 4.67827C2.28703 5.5205 2.01297 6.48273 2.00061 7.466C2.00124 8.43541 2.26143 9.38696 2.75415 10.2218C2.6319 10.8426 2.56873 11.4736 2.56549 12.1063C2.57593 13.343 2.8319 14.5653 3.31856 15.7023C3.80521 16.8393 4.51285 17.8683 5.40039 18.7295C6.28794 19.5908 7.33772 20.2672 8.48879 20.7195C9.63987 21.1718 10.8693 21.3909 12.1058 21.3642C12.6908 21.3686 13.2747 21.313 13.8484 21.1984C14.6402 21.6784 15.5389 21.9539 16.4637 22C17.3967 22.0177 18.3185 21.7947 19.1403 21.3526C19.9621 20.9106 20.6562 20.2643 21.1557 19.476C21.6552 18.6878 21.9432 17.7842 21.9921 16.8523C22.0409 15.9204 21.8489 14.9916 21.4345 14.1555ZM16.4396 15.9931C16.0258 16.5478 15.462 16.9728 14.8148 17.2178C14.0138 17.5367 13.1562 17.6888 12.2944 17.6649C11.2934 17.6974 10.2993 17.4875 9.39679 17.0532C8.86891 16.772 8.41632 16.368 8.07715 15.8754C7.77607 15.4636 7.60413 14.9717 7.58315 14.462C7.58078 14.3325 7.60702 14.204 7.65999 14.0858C7.71296 13.9676 7.79137 13.8626 7.88961 13.7781C8.10133 13.5858 8.38019 13.4843 8.66604 13.4957C8.89726 13.4861 9.12394 13.5618 9.30304 13.7084C9.49953 13.8916 9.65233 14.1167 9.75012 14.367C9.8711 14.6808 10.038 14.9748 10.2453 15.2396C10.4349 15.4884 10.6865 15.6832 10.9748 15.8044C11.3696 15.9708 11.7953 16.0511 12.2236 16.04C12.8294 16.0731 13.4305 15.9169 13.9434 15.5929C14.1415 15.4772 14.3062 15.3122 14.4218 15.1141C14.5374 14.916 14.5999 14.6913 14.6032 14.462C14.61 14.2999 14.582 14.1383 14.521 13.988C14.4601 13.8377 14.3676 13.7022 14.2499 13.5906C13.9905 13.345 13.6748 13.1667 13.3304 13.0714C12.9543 12.9537 12.4351 12.8359 11.7993 12.6953C11.0692 12.5408 10.3526 12.3282 9.65637 12.0595C9.12124 11.845 8.65055 11.4961 8.28986 11.0463C7.94869 10.5927 7.77388 10.0355 7.79474 9.46826C7.79407 8.88912 7.98461 8.32596 8.33679 7.86621C8.73584 7.36889 9.26627 6.99336 9.86792 6.78221C10.6316 6.51301 11.4381 6.38551 12.2476 6.40598C12.8851 6.39782 13.5203 6.48492 14.1321 6.66441C14.608 6.80229 15.0548 7.02589 15.4505 7.3242C15.7658 7.55923 16.0303 7.85563 16.2281 8.19554C16.3793 8.46133 16.4603 8.7612 16.4637 9.06693C16.464 9.19948 16.437 9.33068 16.3843 9.45228C16.3315 9.57389 16.2542 9.68328 16.1572 9.7736C16.0604 9.87509 15.9432 9.95488 15.8133 10.0077C15.6834 10.0605 15.5438 10.0852 15.4036 10.0801C15.1762 10.0935 14.9512 10.0268 14.7679 9.8914C14.5786 9.71446 14.4195 9.50783 14.2968 9.27964C14.1093 8.90586 13.8442 8.57641 13.5192 8.31333C13.0834 8.04072 12.5711 7.91674 12.0589 7.96C11.53 7.93535 11.0056 8.06657 10.5506 8.33738C10.3872 8.42525 10.2493 8.55387 10.1504 8.71077C10.0514 8.86766 9.99467 9.04748 9.98572 9.23277C9.98698 9.43633 10.0531 9.63419 10.1744 9.79765C10.3203 9.97265 10.5062 10.1099 10.7164 10.1979C10.9311 10.315 11.1608 10.4023 11.399 10.4574C11.6346 10.5284 12.0121 10.6221 12.5529 10.7399C13.2127 10.8817 13.8256 11.0464 14.3676 11.211C14.8584 11.3564 15.3262 11.5704 15.757 11.8468C16.1239 12.0879 16.4303 12.4103 16.6523 12.789C16.8793 13.2167 16.9927 13.6955 16.9817 14.1795C17.0097 14.8278 16.8188 15.4666 16.4396 15.9931Z" fill="black"/>
</svg>
