<svg width="24" height="24" viewBox="0 0 24 24" fill="none" xmlns="http://www.w3.org/2000/svg">
<path d="M15.1391 11.8125C14.7387 11.5554 14.3041 11.3559 13.8481 11.2198C13.5684 11.1352 13.2586 11.0524 12.9377 10.9726C12.6586 10.8948 12.3264 10.815 11.9155 10.7246C11.4263 10.6221 10.9461 10.4804 10.4795 10.3008C10.2392 10.2073 10.0271 10.0532 9.86382 9.85356C9.74467 9.69027 9.68818 9.4896 9.70464 9.28813C9.70409 9.07202 9.77595 8.86195 9.90874 8.69145C10.095 8.47294 10.3367 8.30866 10.6084 8.21586C11.0661 8.05865 11.5485 7.98553 12.0322 8.00005C12.4059 7.99406 12.7784 8.04342 13.1377 8.14653C13.3762 8.21331 13.6009 8.32211 13.8013 8.46782C13.9307 8.56008 14.0411 8.67647 14.1264 8.8106C14.1884 8.92664 14.2727 9.02931 14.3744 9.11273C14.4761 9.19614 14.5933 9.25866 14.7192 9.29671C14.8451 9.33475 14.9773 9.34757 15.1082 9.33442C15.2391 9.32128 15.3661 9.28243 15.4819 9.22011C15.5978 9.15778 15.7002 9.07321 15.7833 8.97123C15.8664 8.86925 15.9285 8.75188 15.9662 8.62583C16.0038 8.49979 16.0162 8.36755 16.0027 8.23671C15.9891 8.10586 15.9499 7.97898 15.8872 7.86333C15.6762 7.4903 15.3912 7.1643 15.0498 6.90533C14.6555 6.60244 14.2083 6.37559 13.731 6.23638C13.1797 6.07338 12.6071 5.99372 12.0322 6.00005C11.3018 5.98453 10.5747 6.10336 9.88722 6.35064C9.26519 6.57642 8.7186 6.97147 8.30907 7.49126C7.91715 8.00834 7.70488 8.63931 7.70458 9.28814C7.68838 9.93408 7.89301 10.5662 8.28466 11.0801C8.66273 11.5564 9.15833 11.9259 9.72266 12.1524C10.1491 12.3164 10.5857 12.4527 11.0297 12.5603C11.0381 12.563 11.0437 12.5698 11.0522 12.5723C11.2436 12.6299 11.5498 12.7071 11.9922 12.8028C12.1645 12.8398 12.327 12.8806 12.4893 12.9212C12.5051 12.9259 12.5278 12.9309 12.543 12.9356L12.561 12.9383C12.8094 13.0016 13.0481 13.067 13.2666 13.1338C13.5359 13.2124 13.7929 13.3281 14.0303 13.4776C14.1779 13.5706 14.302 13.6966 14.3926 13.8457C14.4807 14.0276 14.5215 14.2289 14.5112 14.4307C14.5252 14.6921 14.4498 14.9504 14.2974 15.1632C14.0914 15.4311 13.8127 15.6341 13.4946 15.7482C13.0211 15.9309 12.5156 16.0165 12.0083 16C11.4211 16.0228 10.8371 15.9049 10.3047 15.6563C10.059 15.5254 9.84795 15.3379 9.68895 15.1094C9.57746 14.9631 9.50776 14.7893 9.48729 14.6065C9.48729 14.3413 9.38193 14.0869 9.19439 13.8994C9.00686 13.7119 8.7525 13.6065 8.48729 13.6065C8.22207 13.6065 7.96772 13.7119 7.78018 13.8994C7.59264 14.0869 7.48729 14.3413 7.48729 14.6065C7.50406 15.1962 7.69784 15.7671 8.04345 16.2452C8.38889 16.743 8.84912 17.1503 9.38524 17.4327C10.201 17.8308 11.101 18.0255 12.0083 18C12.7793 18.0186 13.546 17.8807 14.2622 17.5948C14.9279 17.3394 15.506 16.8977 15.9272 16.3223C16.3275 15.7613 16.5325 15.0844 16.5107 14.3956C16.52 13.8616 16.3908 13.3344 16.1357 12.8653C15.8894 12.442 15.5483 12.0816 15.1391 11.8125ZM22.3613 13.6915C22.6313 12.0478 22.5059 10.3634 21.9957 8.77774C21.4855 7.19209 20.605 5.75071 19.4272 4.57287C18.2493 3.39502 16.808 2.51457 15.2223 2.00434C13.6366 1.49411 11.9523 1.36878 10.3086 1.63872C9.0952 1.05698 7.73117 0.866226 6.40476 1.09278C5.07834 1.31933 3.85496 1.95202 2.90346 2.90352C1.95196 3.85502 1.31927 5.0784 1.09272 6.40482C0.866165 7.73123 1.05692 9.09526 1.63866 10.3086C1.36872 11.9523 1.49405 13.6367 2.00428 15.2224C2.51451 16.808 3.39496 18.2494 4.57281 19.4272C5.75065 20.6051 7.19203 21.4855 8.77768 21.9958C10.3633 22.506 12.0477 22.6313 13.6914 22.3614C14.9048 22.9431 16.2688 23.1339 17.5952 22.9073C18.9216 22.6808 20.145 22.0481 21.0965 21.0966C22.048 20.1451 22.6807 18.9217 22.9073 17.5953C23.1338 16.2689 22.9431 14.9048 22.3613 13.6915ZM16.5 21C15.7414 20.9998 14.9952 20.808 14.3306 20.4424C14.1243 20.3286 13.8846 20.2909 13.6533 20.336C12.4209 20.5818 11.1492 20.5511 9.93009 20.2459C8.71098 19.9408 7.57478 19.3688 6.60348 18.5714C5.63217 17.7739 4.84996 16.7708 4.31328 15.6345C3.7766 14.4981 3.49882 13.2568 3.49999 12C3.50102 11.4446 3.55596 10.8906 3.66405 10.3457C3.7092 10.1147 3.6717 9.8752 3.5581 9.66905C3.08807 8.81512 2.90807 7.83166 3.04516 6.86661C3.18225 5.90156 3.62902 5.00713 4.31826 4.31788C5.0075 3.62864 5.90192 3.18185 6.86697 3.04475C7.83202 2.90766 8.81549 3.08765 9.66942 3.55767C9.87556 3.67187 10.1154 3.70957 10.3467 3.66411C11.5791 3.41827 12.8508 3.44904 14.0699 3.75419C15.289 4.05934 16.4252 4.63127 17.3965 5.42872C18.3678 6.22617 19.15 7.22926 19.6867 8.36563C20.2234 9.502 20.5012 10.7433 20.5 12C20.499 12.5555 20.444 13.1095 20.3359 13.6543C20.2908 13.8854 20.3283 14.1249 20.4419 14.3311C20.8192 15.0162 21.0114 15.7878 20.9995 16.5698C20.9876 17.3518 20.7721 18.1172 20.3741 18.7905C19.9761 19.4638 19.4095 20.0217 18.7301 20.4091C18.0507 20.7966 17.2821 21.0003 16.5 21Z" fill="black"/>
</svg>
