<svg width="24" height="24" viewBox="0 0 24 24" fill="none" xmlns="http://www.w3.org/2000/svg">
<path d="M21.9733 6.68079C21.972 6.32058 21.939 5.96119 21.8745 5.60679C21.8026 5.17355 21.6659 4.75362 21.4688 4.36113C21.2532 3.94866 20.9724 3.57372 20.6372 3.25077C20.1309 2.75525 19.5056 2.39843 18.8214 2.2147C18.1932 2.0624 17.5477 1.99354 16.9014 2.00987L16.8977 2H7.09904L7.09849 2.00989C6.73092 2.007 6.36344 2.02344 5.9976 2.05914C5.59669 2.10188 5.20205 2.19073 4.82151 2.32391C4.19451 2.56035 3.6321 2.94131 3.17994 3.43586C2.72778 3.93041 2.39861 4.52461 2.21916 5.17023C2.06795 5.79342 1.99908 6.43374 2.01432 7.07483L2.00773 16.913V16.9139C2.00647 17.3594 2.03674 17.8044 2.09831 18.2456C2.16518 18.7125 2.3032 19.1663 2.50755 19.5914C2.79578 20.1586 3.20617 20.655 3.70921 21.0447C4.06852 21.331 4.47556 21.5516 4.9116 21.6964C5.5517 21.8943 6.2185 21.9922 6.88847 21.9869C7.30784 21.9895 7.72691 22 8.14647 21.9982C11.1931 21.9854 14.2398 22.0202 17.2865 21.9794C17.689 21.9706 18.09 21.928 18.4853 21.852C19.2327 21.7205 19.9282 21.3821 20.493 20.8754C21.1583 20.297 21.6228 19.5224 21.8194 18.6631C21.9407 18.0877 21.9986 17.5008 21.9922 16.9129V16.7957C21.9922 16.7502 21.9749 6.81219 21.9733 6.68079ZM19.2972 15.9306C19.1693 16.23 18.5232 16.4782 17.4293 16.6472C17.3266 16.663 17.2834 16.829 17.2242 17.1007C17.1997 17.2128 17.1748 17.3228 17.1408 17.4384C17.1306 17.4871 17.103 17.5304 17.0632 17.5602C17.0234 17.59 16.974 17.6042 16.9245 17.6002H16.9073C16.8026 17.5965 16.6985 17.5833 16.5961 17.5609C16.3263 17.5044 16.0514 17.4753 15.7757 17.474C15.5775 17.4745 15.3796 17.4912 15.1841 17.524C14.7715 17.6285 14.3878 17.8245 14.0613 18.0975C13.5093 18.5688 12.8157 18.8422 12.0906 18.8743C12.0491 18.8743 12.0095 18.8728 11.9794 18.8713C11.9555 18.8734 11.9308 18.8743 11.9061 18.8743C11.1814 18.8424 10.4882 18.5692 9.93663 18.0981C9.60978 17.8248 9.22563 17.6285 8.81263 17.5239C8.61716 17.4911 8.41933 17.4744 8.22114 17.4739C7.94525 17.4768 7.67039 17.5079 7.40083 17.5667C7.29859 17.5905 7.19448 17.6054 7.08967 17.6113C7.03687 17.6174 6.98372 17.6036 6.94053 17.5726C6.89734 17.5416 6.8672 17.4957 6.85597 17.4438C6.82148 17.3267 6.79676 17.2132 6.7729 17.1039C6.71321 16.8308 6.6699 16.6641 6.5677 16.6483C5.47398 16.4795 4.8278 16.231 4.69914 15.93C4.68602 15.8999 4.67833 15.8678 4.67643 15.835C4.674 15.7917 4.68765 15.7491 4.71475 15.7153C4.74184 15.6815 4.78048 15.6589 4.82322 15.6519C5.72767 15.4881 6.54267 15.0035 7.11857 14.2871C7.43556 13.9203 7.69914 13.5106 7.90147 13.0701L7.90547 13.0617C7.96505 12.9641 8.00261 12.8548 8.01554 12.7412C8.02846 12.6277 8.01644 12.5127 7.9803 12.4043C7.83937 12.072 7.37269 11.9239 7.06391 11.8259C6.98713 11.8017 6.9145 11.7787 6.85664 11.7556C6.5829 11.6475 6.13276 11.4191 6.1927 11.1038C6.23862 10.985 6.32053 10.8836 6.42696 10.8136C6.53338 10.7437 6.65901 10.7088 6.78626 10.7138C6.84804 10.7124 6.90938 10.7246 6.96589 10.7497C7.19635 10.8677 7.44961 10.9346 7.70832 10.9457C7.86208 10.9566 8.01444 10.9101 8.13581 10.815C8.12776 10.6691 8.11898 10.5232 8.10945 10.3774C7.96882 9.39162 8.0289 8.38763 8.28608 7.4257C8.58847 6.73525 9.08754 6.14917 9.72098 5.74063C10.3544 5.33208 11.0942 5.11917 11.8479 5.12848L12.1426 5.12573C12.8973 5.11611 13.6383 5.32898 14.2728 5.73777C14.9074 6.14657 15.4075 6.7332 15.7108 7.42444C15.968 8.38725 16.028 9.39209 15.8872 10.3787L15.8842 10.4264C15.8756 10.5621 15.8676 10.6905 15.8609 10.8149C15.9711 10.902 16.1082 10.9479 16.2487 10.9446C16.4924 10.9263 16.73 10.8601 16.9481 10.7498C17.0203 10.7185 17.0985 10.703 17.1772 10.7044C17.2666 10.704 17.3552 10.721 17.4381 10.7543L17.4422 10.7559C17.5361 10.7782 17.6212 10.828 17.6866 10.8989C17.752 10.9698 17.7947 11.0586 17.8094 11.1539C17.8122 11.3067 17.6986 11.5351 17.14 11.7557C17.0829 11.7784 17.0099 11.8015 16.9328 11.826C16.6238 11.9241 16.1574 12.0721 16.0165 12.4042C15.9803 12.5125 15.9682 12.6275 15.9812 12.7411C15.9941 12.8546 16.0317 12.9639 16.0913 13.0614L16.0953 13.07C16.3748 13.7084 16.7981 14.2736 17.3321 14.7215C17.866 15.1693 18.4963 15.4877 19.1736 15.6517C19.2164 15.6588 19.255 15.6814 19.2821 15.7152C19.3091 15.749 19.3228 15.7916 19.3204 15.8348C19.3184 15.8679 19.3105 15.9003 19.2972 15.9306Z" fill="black"/>
</svg>
