<svg width="24" height="24" viewBox="0 0 24 24" fill="none" xmlns="http://www.w3.org/2000/svg">
<path d="M21.9511 15.6142C21.3339 15.4706 20.7518 15.2041 20.2396 14.8309C19.7274 14.4576 19.2955 13.985 18.9697 13.4414C18.821 13.2218 18.5912 13.0702 18.3308 13.02C18.0704 12.9698 17.8007 13.0251 17.581 13.1738C17.3614 13.3225 17.2098 13.5523 17.1596 13.8127C17.1095 14.0731 17.1648 14.3428 17.3135 14.5625C17.933 15.5076 18.7532 16.3045 19.7158 16.8965C19.581 16.9219 19.4345 16.9463 19.2744 16.9717C18.9899 17.0322 18.7322 17.1819 18.5386 17.3989C18.3451 17.616 18.2258 17.8892 18.1982 18.1787C17.5316 18.065 16.8506 18.0637 16.1836 18.1748C15.4643 18.3335 14.7931 18.6613 14.2256 19.1308C13.6417 19.6485 12.901 19.9553 12.122 20.0019H11.8613C11.0815 19.9551 10.34 19.6477 9.75584 19.1289C9.19636 18.6655 8.53563 18.3403 7.82713 18.1797C7.15131 18.0717 6.46253 18.0731 5.78713 18.1836C5.76076 17.8955 5.6437 17.6231 5.45279 17.4057C5.26188 17.1883 5.00694 17.037 4.72463 16.9736C4.5674 16.9492 4.42287 16.9248 4.29006 16.8994C4.96979 16.5062 5.57692 15.9991 6.08498 15.4004C6.31944 15.1284 6.53171 14.8381 6.71975 14.5322C6.86007 14.3074 6.90541 14.0361 6.8458 13.7779C6.78619 13.5197 6.62651 13.2957 6.40184 13.1551C6.17717 13.0146 5.9059 12.969 5.64762 13.0283C5.38935 13.0877 5.1652 13.2471 5.02443 13.4717C4.89121 13.6884 4.74135 13.8944 4.57619 14.0879C3.9371 14.8881 3.03065 15.4308 2.02346 15.6162C1.73113 15.6625 1.46547 15.8132 1.27569 16.0403C1.0859 16.2674 0.984829 16.5556 0.991189 16.8515C0.990853 17.0355 1.03016 17.2174 1.10643 17.3847C1.42186 18.1006 2.2617 18.5527 3.8906 18.8594L3.92186 18.9892C3.95018 19.1074 3.97947 19.2275 4.01365 19.3369C4.09031 19.6147 4.2579 19.8588 4.48964 20.0302C4.72137 20.2016 5.00387 20.2903 5.29197 20.2822C5.49553 20.277 5.69778 20.2478 5.89451 20.1953C6.41762 20.0893 6.95502 20.0738 7.48338 20.1494C7.89771 20.2721 8.28076 20.4826 8.60643 20.7666C9.52575 21.5256 10.6699 21.9598 11.8613 22.002H12.122C13.3209 21.958 14.4716 21.5192 15.3955 20.754C15.7227 20.4692 16.1094 20.261 16.5273 20.1446C16.7333 20.1083 16.9422 20.0907 17.1513 20.0919C17.4727 20.0913 17.7931 20.127 18.1064 20.1983C18.3094 20.2362 18.5152 20.2574 18.7216 20.2618C19.0025 20.2694 19.2778 20.1826 19.5035 20.0153C19.7292 19.848 19.8923 19.6098 19.9667 19.3389C20.0048 19.2169 20.0341 19.0997 20.0615 18.9844L20.0927 18.8604C21.7167 18.5548 22.5595 18.1056 22.8603 17.42C22.9364 17.2711 22.9797 17.1076 22.9873 16.9405C23.012 16.6299 22.9193 16.3212 22.7275 16.0756C22.5356 15.8301 22.2586 15.6654 21.9511 15.6142ZM3.80174 11.1484C4.00634 11.1872 4.21794 11.1614 4.40724 11.0746C4.59654 10.9878 4.75419 10.8443 4.85838 10.664C5.25447 10.8656 5.68885 10.9808 6.13279 11.0019C6.60381 11.0082 7.05839 10.8289 7.39842 10.5029C7.50599 10.4026 7.59011 10.2798 7.6448 10.1432C7.69949 10.0067 7.7234 9.85977 7.71482 9.71293L7.67869 9.11137C7.51489 7.92449 7.56784 6.71774 7.83498 5.54978C8.17245 4.78263 8.72872 4.13209 9.43415 3.67958C10.1396 3.22707 10.9628 2.99271 11.8008 3.00584L12.1885 3.00193C13.0257 2.99075 13.8477 3.22631 14.5519 3.67923C15.2561 4.13214 15.8114 4.78237 16.1485 5.54881C16.4156 6.71774 16.4686 7.92543 16.3047 9.11326L16.295 9.27635L16.2676 9.71971C16.2621 9.86412 16.2871 10.0081 16.3409 10.1422C16.3948 10.2763 16.4763 10.3975 16.5801 10.498C16.9167 10.8225 17.3665 11.003 17.834 11.001C18.268 10.9631 18.69 10.8389 19.0753 10.6357C19.1534 10.8136 19.2816 10.965 19.4442 11.0713C19.6069 11.1776 19.7969 11.2343 19.9913 11.2344H20.0088C20.274 11.2297 20.5265 11.1198 20.7108 10.929C20.895 10.7382 20.9959 10.482 20.9913 10.2168C20.9653 9.88282 20.8378 9.5648 20.6259 9.3054C20.414 9.04601 20.1278 8.85764 19.8057 8.7656C19.5711 8.66954 19.3198 8.62103 19.0664 8.62288C18.8129 8.62472 18.5623 8.67689 18.3291 8.77635C18.5044 7.41922 18.3834 6.04025 17.9747 4.73435C17.4826 3.61128 16.6703 2.65822 15.6394 1.99436C14.6085 1.33049 13.4048 0.98529 12.1788 1.00192L11.7862 1.00583C10.5632 0.990881 9.36301 1.33667 8.33547 1.99997C7.30794 2.66328 6.49866 3.61469 6.00877 4.73533C5.59694 6.05877 5.477 7.45578 5.65721 8.83006C5.62303 8.81443 5.58592 8.79686 5.54588 8.7783C5.30152 8.67942 5.03933 8.63222 4.77583 8.6397C4.51233 8.64717 4.25324 8.70915 4.01488 8.82172C3.77652 8.9343 3.56406 9.09503 3.3909 9.29378C3.21774 9.49253 3.08763 9.725 3.00877 9.97654C2.9588 10.2371 3.01423 10.5068 3.16289 10.7265C3.31156 10.9462 3.54131 11.0979 3.80174 11.1484Z" fill="black"/>
</svg>
