<svg width="24" height="24" viewBox="0 0 24 24" fill="none" xmlns="http://www.w3.org/2000/svg">
<path d="M22 14.44C22.0046 14.3968 22.0046 14.3532 22 14.31C21.9961 14.2701 21.9961 14.2299 22 14.19L21.95 14.07L15.95 3.77997C15.8542 3.61679 15.7141 3.48413 15.546 3.39739C15.3778 3.31065 15.1885 3.27341 15 3.28997H9.00002C8.82484 3.28876 8.65242 3.33359 8.50002 3.41997L8.39002 3.49997C8.35787 3.52412 8.32776 3.55087 8.30002 3.57997C8.26143 3.61528 8.22779 3.65565 8.20002 3.69997C8.20002 3.69997 8.20002 3.69997 8.14002 3.77997L2.14002 14.11C2.05225 14.262 2.00604 14.4344 2.00604 14.61C2.00604 14.7855 2.05225 14.958 2.14002 15.11L5.14002 20.19C5.17095 20.2439 5.20785 20.2943 5.25002 20.34V20.4C5.37424 20.52 5.52497 20.6091 5.69002 20.66C5.76303 20.6697 5.83701 20.6697 5.91002 20.66H18C18.1736 20.6599 18.3441 20.6147 18.4949 20.5288C18.6457 20.4429 18.7715 20.3193 18.86 20.17L21.86 15.03L21.91 14.91C21.9061 14.8701 21.9061 14.8299 21.91 14.79C21.9154 14.7468 21.9154 14.7031 21.91 14.66C21.9156 14.6168 21.9156 14.5731 21.91 14.53C21.9432 14.5033 21.9734 14.4731 22 14.44ZM6.00002 17.73L4.21002 14.63L9.00002 6.26997L9.87002 7.76997L10.87 9.42997L7.00002 15.91L6.00002 17.73ZM12 11.41L13.26 13.57H10.72L12 11.41ZM17.43 18.71H7.70002L9.54002 15.57H19.26L17.43 18.71ZM15.57 13.57L10.74 5.28997H14.43L19.26 13.57H15.57Z" fill="black"/>
</svg>
