<svg width="24" height="24" viewBox="0 0 24 24" fill="none" xmlns="http://www.w3.org/2000/svg">
<path d="M11.06 20.1C10.813 19.9859 10.5918 19.8225 10.41 19.62C10.0872 19.3079 9.8556 18.9138 9.74002 18.48C9.51751 17.6785 9.06148 16.9614 8.43002 16.42C8.55203 15.8333 8.52438 15.2253 8.34961 14.6521C8.17485 14.0788 7.8586 13.5588 7.43002 13.14C6.86412 12.4907 6.06554 12.09 5.20673 12.0245C4.34793 11.9591 3.49783 12.234 2.84002 12.79C2.28344 13.4494 2.00822 14.3012 2.07369 15.1616C2.13916 16.0221 2.54007 16.8223 3.19002 17.39C3.78405 17.9954 4.56053 18.3889 5.40002 18.51H5.76002C6.30147 18.5116 6.83217 18.359 7.29002 18.07C7.53866 18.3299 7.71455 18.6506 7.80002 19C8.01554 19.7613 8.4297 20.4516 9.00002 21C9.34543 21.3613 9.7516 21.6592 10.2 21.88C10.3372 21.9464 10.4877 21.9806 10.64 21.98C10.8667 21.9809 11.087 21.9048 11.2648 21.7641C11.4425 21.6234 11.5672 21.4265 11.6184 21.2056C11.6695 20.9847 11.6441 20.7531 11.5463 20.5485C11.4485 20.344 11.2841 20.1788 11.08 20.08L11.06 20.1ZM6.32002 16.33C6.22423 16.4107 6.11195 16.4696 5.99103 16.5024C5.87012 16.5352 5.7435 16.5412 5.62002 16.52C5.21828 16.4708 4.84484 16.2876 4.56002 16C3.99002 15.44 3.83002 14.61 4.20002 14.23C4.35509 14.0956 4.55491 14.0242 4.76002 14.03C5.22642 14.0393 5.67098 14.2293 6.00002 14.56C6.29864 14.8404 6.49265 15.2144 6.55002 15.62C6.56748 15.748 6.55587 15.8783 6.51606 16.0012C6.47624 16.1242 6.40923 16.2365 6.32002 16.33ZM21.32 10.21C20.9716 10.0935 20.6585 9.89051 20.41 9.61999C20.0872 9.30795 19.8556 8.91382 19.74 8.47999C19.5175 7.67852 19.0615 6.96141 18.43 6.41999C18.5458 5.82908 18.5103 5.21849 18.3267 4.64501C18.1431 4.07153 17.8175 3.5538 17.38 3.13999C16.8141 2.49069 16.0155 2.09003 15.1567 2.02455C14.2979 1.95906 13.4478 2.234 12.79 2.78999C12.2334 3.44944 11.9582 4.30117 12.0237 5.16162C12.0892 6.02207 12.4901 6.82235 13.14 7.38999C13.7471 8.00523 14.5428 8.39952 15.4 8.50999H15.76C16.3015 8.51164 16.8322 8.35902 17.29 8.06999C17.5387 8.32988 17.7146 8.65062 17.8 8.99999C18.019 9.75979 18.4327 10.4492 19 11C19.4746 11.4877 20.0568 11.8576 20.7 12.08C20.8041 12.1105 20.9116 12.1273 21.02 12.13C21.2297 12.1305 21.4342 12.0652 21.6047 11.9432C21.7751 11.8211 21.9029 11.6486 21.97 11.45C22.0455 11.1994 22.0197 10.9291 21.8982 10.6973C21.7767 10.4654 21.5691 10.2905 21.32 10.21ZM16.32 6.32999C16.2242 6.41074 16.1119 6.46958 15.991 6.5024C15.8701 6.53522 15.7435 6.54122 15.62 6.51999C15.2183 6.47077 14.8448 6.28757 14.56 5.99999C13.99 5.43999 13.83 4.60999 14.2 4.22999C14.3551 4.09561 14.5549 4.02424 14.76 4.02999C15.2264 4.03931 15.671 4.22932 16 4.55999C16.2986 4.84044 16.4927 5.21437 16.55 5.61999C16.5675 5.74801 16.5559 5.87832 16.5161 6.00124C16.4762 6.12416 16.4092 6.23653 16.32 6.32999ZM21.71 20.45C21.5138 19.67 21.1098 18.9577 20.5411 18.3889C19.9723 17.8202 19.2601 17.4162 18.48 17.22C17.9539 17.0707 17.4751 16.7883 17.09 16.4C16.7009 16.0228 16.4239 15.5451 16.29 15.02C16.0728 14.2383 15.6548 13.5271 15.0777 12.957C14.5005 12.3869 13.7843 11.9776 13 11.77C12.4747 11.6366 11.9969 11.3596 11.62 10.97C11.2285 10.589 10.9484 10.1084 10.81 9.57999C10.6228 8.8919 10.2807 8.25571 9.81002 7.71999C9.9696 7.23695 10.0341 6.72757 10 6.21999C9.86316 5.15528 9.36968 4.16832 8.60002 3.41999C7.848 2.64091 6.85373 2.14025 5.78002 1.99999C5.27141 1.949 4.75783 2.01232 4.27684 2.18534C3.79585 2.35836 3.35961 2.63669 3.00002 2.99999C2.63672 3.35958 2.35839 3.79582 2.18537 4.27681C2.01235 4.7578 1.94903 5.27138 2.00002 5.77999C2.13689 6.84471 2.63037 7.83167 3.40002 8.57999C4.15205 9.35907 5.14632 9.85973 6.22002 9.99999H6.65002C7.36321 10.0154 8.06309 9.80544 8.65002 9.39999C8.78771 9.62013 8.89217 9.85937 8.96002 10.11C9.1955 10.9701 9.65152 11.7537 10.2829 12.3834C10.9144 13.0131 11.6993 13.4669 12.56 13.7C12.999 13.8205 13.3989 14.0537 13.7199 14.3764C14.0409 14.6992 14.2719 15.1003 14.39 15.54C14.6231 16.4024 15.0781 17.1886 15.7098 17.8202C16.3414 18.4519 17.1276 18.907 17.99 19.14C18.4278 19.2631 18.825 19.5001 19.1413 19.8268C19.4575 20.1536 19.6814 20.5584 19.79 21C19.8299 21.1577 19.8834 21.3116 19.95 21.46C20.0337 21.6215 20.1599 21.7572 20.3149 21.8523C20.47 21.9475 20.6481 21.9985 20.83 22C20.9817 21.9945 21.1309 21.9606 21.27 21.9C21.51 21.7872 21.6954 21.5838 21.7854 21.3344C21.8754 21.085 21.8627 20.81 21.75 20.57C21.75 20.57 21.72 20.47 21.71 20.45ZM7.64002 7.63999C7.00002 8.26999 5.72002 8.04999 4.83002 7.16999C4.38138 6.74104 4.08919 6.17427 4.00002 5.55999C3.96659 5.34654 3.98063 5.12835 4.04112 4.92094C4.10161 4.71353 4.20708 4.522 4.35002 4.35999C4.62251 4.11226 4.98216 3.98279 5.35002 3.99999C6.04385 4.03193 6.69892 4.32904 7.18002 4.82999C7.62499 5.26039 7.91358 5.82699 8.00002 6.43999C8.03212 6.65418 8.0165 6.87282 7.95426 7.08026C7.89203 7.28771 7.78472 7.47884 7.64002 7.63999Z" fill="black"/>
</svg>
