<svg width="24" height="24" viewBox="0 0 24 24" fill="none" xmlns="http://www.w3.org/2000/svg">
<path d="M15.53 14.13C15.437 14.0363 15.3264 13.9619 15.2046 13.9111C15.0827 13.8604 14.952 13.8342 14.82 13.8342C14.688 13.8342 14.5573 13.8604 14.4354 13.9111C14.3136 13.9619 14.203 14.0363 14.11 14.13C13.9238 14.3174 13.8192 14.5708 13.8192 14.835C13.8192 15.0992 13.9238 15.3527 14.11 15.54L20.29 21.72C20.383 21.8138 20.4936 21.8881 20.6154 21.9389C20.7373 21.9897 20.868 22.0158 21 22.0158C21.132 22.0158 21.2627 21.9897 21.3846 21.9389C21.5064 21.8881 21.6171 21.8138 21.71 21.72C21.8963 21.5327 22.0008 21.2792 22.0008 21.015C22.0008 20.7508 21.8963 20.4974 21.71 20.31L15.53 14.13ZM16.76 11.64C17.5554 11.6393 18.3179 11.3228 18.88 10.76L21.71 7.93002C21.8963 7.74266 22.0008 7.48921 22.0008 7.22502C22.0008 6.96084 21.8963 6.70739 21.71 6.52002C21.6171 6.4263 21.5064 6.3519 21.3846 6.30113C21.2627 6.25036 21.132 6.22423 21 6.22423C20.868 6.22423 20.7373 6.25036 20.6154 6.30113C20.4936 6.3519 20.383 6.4263 20.29 6.52002L17.46 9.35003C17.2726 9.53628 17.0192 9.64082 16.755 9.64082C16.4908 9.64082 16.2374 9.53628 16.05 9.35003L19.59 5.81002C19.7763 5.62266 19.8808 5.36921 19.8808 5.10502C19.8808 4.84084 19.7763 4.58739 19.59 4.40002C19.4971 4.3063 19.3864 4.2319 19.2646 4.18113C19.1427 4.13036 19.012 4.10423 18.88 4.10423C18.748 4.10423 18.6173 4.13036 18.4954 4.18113C18.3736 4.2319 18.263 4.3063 18.17 4.40002L14.64 7.93002C14.4538 7.74266 14.3492 7.48921 14.3492 7.22502C14.3492 6.96084 14.4538 6.70739 14.64 6.52002L17.46 3.69002C17.5647 3.60038 17.6497 3.49006 17.7097 3.36599C17.7698 3.24193 17.8035 3.1068 17.8088 2.96908C17.8141 2.83136 17.7909 2.69403 17.7406 2.5657C17.6904 2.43738 17.6141 2.32083 17.5167 2.22337C17.4192 2.12592 17.3027 2.04966 17.1743 1.99939C17.046 1.94911 16.9087 1.92591 16.771 1.93123C16.6332 1.93655 16.4981 1.97028 16.374 2.0303C16.25 2.09032 16.1397 2.17534 16.05 2.28002L13.22 5.11002C12.6582 5.67253 12.3427 6.43502 12.3427 7.23002C12.3427 8.02503 12.6582 8.78752 13.22 9.35003L12 10.59L10.44 9.05002C10.8828 8.25098 11.0502 7.32842 10.9164 6.42475C10.7827 5.52109 10.3552 4.68657 9.70001 4.05002C8.26001 2.61002 4.53001 1.00002 2.77001 2.79002C1.01001 4.58002 2.60001 8.27003 4.00001 9.72003C4.78184 10.5047 5.833 10.9623 6.94001 11H7.08001C7.75613 10.9904 8.418 10.8043 9.00001 10.46L10.57 12L2.29001 20.28C2.19743 20.3733 2.12412 20.4838 2.07427 20.6054C2.02441 20.727 1.99899 20.8572 1.99946 20.9886C1.99992 21.12 2.02626 21.25 2.07697 21.3712C2.12768 21.4924 2.20177 21.6024 2.29501 21.695C2.38825 21.7876 2.49881 21.8609 2.62038 21.9108C2.74195 21.9606 2.87215 21.986 3.00355 21.9856C3.13494 21.9851 3.26496 21.9588 3.38618 21.9081C3.50739 21.8574 3.61743 21.7833 3.71001 21.69L12.71 12.69L14.63 10.77C14.9103 11.0481 15.2428 11.268 15.6083 11.4173C15.9738 11.5666 16.3652 11.6423 16.76 11.64ZM8.43001 8.44002C8.24267 8.62626 8.01909 8.77206 7.77311 8.86838C7.52714 8.96471 7.26401 9.00951 7.00001 9.00002C6.41542 8.97485 5.86337 8.72392 5.46001 8.30002C4.38001 7.22003 3.62001 4.77002 4.19001 4.20002C4.37934 4.05721 4.61326 3.98632 4.85001 4.00002C6.12631 4.10175 7.33435 4.61798 8.29001 5.47002C8.69829 5.84774 8.94177 6.37078 8.96796 6.92637C8.99414 7.48195 8.80095 8.02557 8.43001 8.44002Z" fill="black"/>
</svg>
