<svg width="24" height="24" viewBox="0 0 24 24" fill="none" xmlns="http://www.w3.org/2000/svg">
<path d="M11.5801 16.5H10.3201L11.1801 15C11.2524 14.8862 11.301 14.7589 11.3229 14.6258C11.3448 14.4927 11.3395 14.3566 11.3074 14.2256C11.2753 14.0946 11.2171 13.9714 11.1362 13.8635C11.0553 13.7556 10.9533 13.6652 10.8366 13.5977C10.7198 13.5302 10.5906 13.4871 10.4567 13.4708C10.3228 13.4545 10.187 13.4655 10.0575 13.5031C9.92799 13.5407 9.8074 13.6041 9.70301 13.6895C9.59861 13.7749 9.51257 13.8805 9.45006 14L7.72006 17C7.63254 17.1516 7.58634 17.3235 7.58607 17.4985C7.58581 17.6735 7.63148 17.8455 7.71854 17.9974C7.8056 18.1492 7.93098 18.2756 8.08216 18.3638C8.23335 18.452 8.40503 18.4989 8.58006 18.5H9.85006L9.00006 20C8.86745 20.2307 8.83193 20.5047 8.90132 20.7616C8.97071 21.0185 9.13932 21.2374 9.37006 21.37C9.60079 21.5026 9.87476 21.5381 10.1317 21.4687C10.3886 21.3993 10.6074 21.2307 10.7401 21L12.4701 18C12.5578 17.848 12.604 17.6755 12.604 17.5C12.604 17.3244 12.5578 17.152 12.4701 17C12.3803 16.8444 12.2503 16.7158 12.0937 16.6279C11.9371 16.5399 11.7596 16.4957 11.5801 16.5ZM21.7001 7.56998C21.5796 7.45165 21.4311 7.36575 21.2685 7.32028C21.1059 7.27482 20.9344 7.27128 20.7701 7.30998C20.5534 7.35949 20.3322 7.3863 20.1101 7.38998C19.3144 7.38998 18.5513 7.07391 17.9887 6.5113C17.4261 5.94869 17.1101 5.18563 17.1101 4.38998C17.1129 4.17104 17.1397 3.95308 17.1901 3.73998C17.2298 3.57491 17.2268 3.40244 17.1815 3.23883C17.1361 3.07521 17.0498 2.92584 16.9308 2.80479C16.8117 2.68374 16.6638 2.59499 16.501 2.54691C16.3382 2.49883 16.1658 2.49301 16.0001 2.52998C15.0048 2.74972 14.1021 3.27254 13.4162 4.02648C12.7303 4.78042 12.2949 5.72841 12.1701 6.73998C11.6268 6.58475 11.065 6.50401 10.5001 6.49998C9.05891 6.49916 7.66562 7.01708 6.57493 7.95904C5.48424 8.901 4.76902 10.2041 4.56006 11.63C3.85177 11.8239 3.22271 12.2364 2.76242 12.8086C2.30214 13.3808 2.03408 14.0836 1.99642 14.817C1.95875 15.5504 2.15339 16.277 2.55263 16.8934C2.95187 17.5098 3.53536 17.9845 4.22006 18.25C4.34431 18.309 4.47942 18.3418 4.61691 18.3462C4.75441 18.3507 4.89135 18.3267 5.01916 18.2758C5.14697 18.2249 5.26291 18.1482 5.35971 18.0505C5.45652 17.9527 5.53212 17.836 5.58178 17.7077C5.63145 17.5795 5.6541 17.4423 5.64834 17.3048C5.64257 17.1674 5.60851 17.0326 5.54828 16.9089C5.48804 16.7852 5.40294 16.6753 5.29829 16.586C5.19363 16.4967 5.07168 16.43 4.94006 16.39C4.6179 16.2593 4.35113 16.0208 4.18536 15.7152C4.0196 15.4096 3.96513 15.0559 4.03126 14.7146C4.0974 14.3733 4.28003 14.0656 4.54794 13.844C4.81585 13.6225 5.1524 13.5009 5.50006 13.5C5.76527 13.5 6.01963 13.3946 6.20716 13.2071C6.3947 13.0196 6.50006 12.7652 6.50006 12.5C6.50006 11.4391 6.92148 10.4217 7.67163 9.67155C8.42177 8.92141 9.43919 8.49998 10.5001 8.49998C11.276 8.49936 12.0347 8.72906 12.6801 9.15998C13.407 9.63815 13.9582 10.3403 14.2501 11.16C14.3072 11.3318 14.41 11.4849 14.5473 11.6029C14.6847 11.7209 14.8516 11.7994 15.0301 11.83C15.5475 11.9216 16.0187 12.1854 16.3673 12.5786C16.7159 12.9718 16.9213 13.4712 16.9503 13.9959C16.9793 14.5206 16.83 15.0396 16.5268 15.4688C16.2236 15.8979 15.7842 16.212 15.2801 16.36C15.0148 16.3958 14.7747 16.5355 14.6125 16.7483C14.4503 16.9612 14.3793 17.2298 14.4151 17.495C14.4509 17.7602 14.5906 18.0003 14.8034 18.1625C15.0163 18.3248 15.2848 18.3958 15.5501 18.36C15.6395 18.3745 15.7306 18.3745 15.8201 18.36C16.7366 18.1075 17.5445 17.5604 18.1192 16.8032C18.6939 16.0459 19.0035 15.1206 19.0001 14.17C19.004 13.4731 18.8356 12.7861 18.5101 12.17C19.3688 11.9302 20.1467 11.4624 20.7611 10.8162C21.3756 10.1701 21.8037 9.36973 22.0001 8.49998C22.0338 8.33225 22.0239 8.15867 21.9714 7.99584C21.9189 7.83301 21.8254 7.68639 21.7001 7.56998ZM17.1101 10.39C16.9703 10.4013 16.8298 10.4013 16.6901 10.39C16.4717 10.2404 16.2408 10.1099 16.0001 9.99998C15.5902 9.10182 14.9651 8.31867 14.1801 7.71998C14.1801 7.59998 14.1801 7.46998 14.1801 7.34998C14.18 6.91666 14.2739 6.48847 14.4551 6.09488C14.6364 5.70129 14.9008 5.35164 15.2301 5.06998C15.3849 6.13683 15.8804 7.12507 16.6427 7.88736C17.405 8.64964 18.3932 9.14514 19.4601 9.29998C19.1747 9.6457 18.8154 9.92307 18.4088 10.1117C18.0021 10.3003 17.5583 10.3954 17.1101 10.39Z" fill="black"/>
</svg>
