<svg width="24" height="24" viewBox="0 0 24 24" fill="none" xmlns="http://www.w3.org/2000/svg">
<path d="M11.5801 16.5H10.3201L11.1801 15C11.2524 14.8862 11.301 14.7589 11.3229 14.6258C11.3448 14.4927 11.3395 14.3566 11.3074 14.2256C11.2753 14.0946 11.2171 13.9715 11.1362 13.8636C11.0553 13.7557 10.9533 13.6652 10.8366 13.5978C10.7198 13.5303 10.5906 13.4871 10.4567 13.4708C10.3228 13.4546 10.187 13.4655 10.0575 13.5031C9.92799 13.5407 9.8074 13.6041 9.70301 13.6895C9.59861 13.7749 9.51257 13.8805 9.45006 14L7.72006 17C7.63254 17.1516 7.58634 17.3235 7.58607 17.4985C7.58581 17.6735 7.63148 17.8456 7.71854 17.9974C7.8056 18.1492 7.93098 18.2756 8.08216 18.3638C8.23335 18.452 8.40503 18.4989 8.58006 18.5H9.85006L9.00006 20C8.86745 20.2307 8.83193 20.5047 8.90132 20.7616C8.97071 21.0186 9.13932 21.2374 9.37006 21.37C9.60079 21.5026 9.87476 21.5381 10.1317 21.4687C10.3886 21.3993 10.6074 21.2307 10.7401 21L12.4701 18C12.5578 17.848 12.604 17.6755 12.604 17.5C12.604 17.3245 12.5578 17.152 12.4701 17C12.3803 16.8444 12.2503 16.7159 12.0937 16.6279C11.9371 16.5399 11.7596 16.4957 11.5801 16.5ZM21.0001 7.5H20.2001C20.0967 7.05129 19.921 6.62237 19.6801 6.23L20.2401 5.67C20.4039 5.4787 20.4895 5.23262 20.4798 4.98095C20.47 4.72927 20.3657 4.49053 20.1876 4.31244C20.0095 4.13434 19.7708 4.03001 19.5191 4.02029C19.2674 4.01057 19.0214 4.09617 18.8301 4.26L18.2701 4.82C17.8777 4.57901 17.4488 4.40339 17.0001 4.3V3.5C17.0001 3.23478 16.8947 2.98043 16.7072 2.79289C16.5196 2.60536 16.2653 2.5 16.0001 2.5C15.7348 2.5 15.4805 2.60536 15.2929 2.79289C15.1054 2.98043 15.0001 3.23478 15.0001 3.5V4.3C14.5513 4.40339 14.1224 4.57901 13.7301 4.82L13.1701 4.26C12.9788 4.09617 12.7327 4.01057 12.481 4.02029C12.2293 4.03001 11.9906 4.13434 11.8125 4.31244C11.6344 4.49053 11.5301 4.72927 11.5203 4.98095C11.5106 5.23262 11.5962 5.4787 11.7601 5.67L12.3201 6.24C12.2301 6.39 12.1601 6.56 12.0801 6.72C11.5659 6.57486 11.0343 6.50084 10.5001 6.5C9.05891 6.49918 7.66562 7.0171 6.57493 7.95906C5.48424 8.90102 4.76902 10.2041 4.56006 11.63C3.85177 11.824 3.22271 12.2364 2.76242 12.8086C2.30214 13.3808 2.03408 14.0837 1.99642 14.8171C1.95875 15.5505 2.15339 16.2771 2.55263 16.8934C2.95187 17.5098 3.53536 17.9845 4.22006 18.25C4.34431 18.309 4.47942 18.3418 4.61691 18.3463C4.75441 18.3507 4.89135 18.3267 5.01916 18.2758C5.14697 18.2249 5.26291 18.1482 5.35971 18.0505C5.45652 17.9527 5.53212 17.8361 5.58178 17.7078C5.63145 17.5795 5.6541 17.4423 5.64834 17.3049C5.64257 17.1674 5.60851 17.0326 5.54828 16.9089C5.48804 16.7853 5.40294 16.6753 5.29829 16.586C5.19363 16.4967 5.07168 16.43 4.94006 16.39C4.6179 16.2593 4.35113 16.0208 4.18536 15.7152C4.0196 15.4096 3.96513 15.056 4.03126 14.7146C4.0974 14.3733 4.28003 14.0656 4.54794 13.8441C4.81585 13.6225 5.1524 13.5009 5.50006 13.5C5.76527 13.5 6.01963 13.3946 6.20716 13.2071C6.3947 13.0196 6.50006 12.7652 6.50006 12.5C6.50434 11.5557 6.84258 10.6434 7.45489 9.92447C8.06721 9.20558 8.91411 8.72651 9.84571 8.57204C10.7773 8.41757 11.7335 8.59767 12.5451 9.08047C13.3566 9.56326 13.9712 10.3176 14.2801 11.21C14.3372 11.3818 14.44 11.5349 14.5773 11.6529C14.7147 11.7709 14.8816 11.8494 15.0601 11.88C15.5775 11.9716 16.0487 12.2354 16.3973 12.6286C16.7459 13.0218 16.9513 13.5213 16.9803 14.0459C17.0093 14.5706 16.86 15.0896 16.5568 15.5188C16.2536 15.9479 15.8142 16.262 15.3101 16.41C15.0448 16.4458 14.8047 16.5855 14.6425 16.7984C14.4803 17.0112 14.4093 17.2798 14.4451 17.545C14.4809 17.8102 14.6206 18.0503 14.8334 18.2126C15.0463 18.3748 15.3148 18.4458 15.5801 18.41C15.6695 18.4246 15.7606 18.4246 15.8501 18.41C16.4306 18.2488 16.9709 17.9674 17.4357 17.5839C17.9005 17.2005 18.2796 16.7237 18.5483 16.1844C18.817 15.6451 18.9694 15.0553 18.9955 14.4533C19.0217 13.8513 18.921 13.2506 18.7001 12.69L18.8301 12.82C19.0163 13.0047 19.2677 13.1089 19.5301 13.11C19.6617 13.1108 19.7921 13.0855 19.914 13.0358C20.0358 12.986 20.1466 12.9127 20.2401 12.82C20.4263 12.6326 20.5308 12.3792 20.5308 12.115C20.5308 11.8508 20.4263 11.5974 20.2401 11.41L19.6801 10.85C19.9293 10.433 20.1051 9.97641 20.2001 9.5H21.0001C21.2653 9.5 21.5196 9.39464 21.7072 9.20711C21.8947 9.01957 22.0001 8.76522 22.0001 8.5C22.0001 8.23478 21.8947 7.98043 21.7072 7.79289C21.5196 7.60536 21.2653 7.5 21.0001 7.5ZM17.6601 10.15C17.4833 10.3179 17.2807 10.4563 17.0601 10.56C16.7355 10.3233 16.3785 10.1346 16.0001 10C15.5406 8.99676 14.8185 8.13641 13.9101 7.51C14.0215 7.2517 14.1772 7.01482 14.3701 6.81C14.8191 6.39464 15.4083 6.16393 16.0201 6.16393C16.6318 6.16393 17.221 6.39464 17.6701 6.81C18.0989 7.2522 18.3388 7.844 18.3388 8.46C18.3388 9.076 18.0989 9.6678 17.6701 10.11L17.6601 10.15Z" fill="black"/>
</svg>
