<svg width="24" height="24" viewBox="0 0 24 24" fill="none" xmlns="http://www.w3.org/2000/svg">
<path d="M12.878 5.92846C12.9218 5.92561 12.9657 5.9325 13.0065 5.94864C13.0473 5.96478 13.0841 5.98977 13.1141 6.0218C13.1441 6.05384 13.1666 6.09213 13.18 6.13391C13.1935 6.1757 13.1975 6.21994 13.1918 6.26346C13.1938 6.35538 13.1953 6.4473 13.1954 6.53921C13.196 7.13162 13.193 7.72409 13.1975 8.31644C13.2008 8.74997 13.2769 8.83344 13.6969 8.88553C14.7448 8.982 15.8001 8.96665 16.8448 8.83975C17.386 8.80221 17.9174 8.67591 18.4177 8.46591C18.5409 8.42809 18.6451 8.34477 18.7091 8.23287C18.7732 8.12097 18.7922 7.9889 18.7623 7.86349C18.5634 6.47904 17.9444 5.18899 16.9889 4.16764C16.0333 3.14629 14.7873 2.44288 13.4191 2.15243C12.2043 1.88866 10.9397 1.97289 9.77065 2.39543C8.74433 2.75285 7.82005 3.35391 7.07709 4.14705C5.9334 5.28463 5.27196 6.81912 5.23022 8.43169C5.25161 10.3721 5.77735 12.2736 6.7558 13.9495C6.87542 14.1943 7.06672 14.3969 7.30427 14.5304C7.54182 14.6639 7.81437 14.7219 8.08569 14.6967C8.73901 14.681 9.39301 14.6932 10.0468 14.6932V14.6897C10.7413 14.6897 11.4359 14.6899 12.1304 14.6902C12.3797 14.6907 12.577 14.7503 12.575 15.0624C12.5704 15.7877 12.5757 16.5129 12.5717 17.238C12.5704 17.4582 12.5084 17.67 12.2455 17.6721C11.9816 17.6742 11.9191 17.4632 11.9158 17.2426C11.9107 16.8954 11.916 16.5481 11.9164 16.2009C11.9169 15.7498 11.843 15.6441 11.3933 15.5619C10.6162 15.4353 9.82434 15.4286 9.04525 15.542C8.76974 15.5639 8.49949 15.6296 8.24471 15.7367C8.03286 15.8365 7.94863 15.9818 8.05153 16.204C8.15859 16.4353 8.25845 16.6713 8.38474 16.8919C9.412 18.6203 10.5569 20.2761 11.8112 21.8476C11.9652 22.047 12.0844 22.0512 12.2423 21.8581C12.591 21.4317 12.9572 21.0195 13.3023 20.5902C14.6551 18.9517 15.8524 17.1908 16.8786 15.3303C17.5641 14.1201 18.0676 12.8157 18.3731 11.4588C18.4408 11.2851 18.4671 11.0981 18.4501 10.9124C18.4331 10.7268 18.3731 10.5476 18.275 10.3891C18.1769 10.2306 18.0433 10.097 17.8848 9.99897C17.7263 9.90091 17.5471 9.84103 17.3615 9.82405C16.8132 9.70282 16.2523 9.64854 15.691 9.6624C14.782 9.65563 13.8729 9.65892 12.9638 9.65972C12.719 9.65996 12.537 9.58965 12.5368 9.30242C12.5363 8.29125 12.5349 7.28002 12.5386 6.26891C12.5394 6.05305 12.6435 5.92046 12.878 5.92846Z" fill="black"/>
</svg>
