<svg width="24" height="24" viewBox="0 0 24 24" fill="none" xmlns="http://www.w3.org/2000/svg">
<path d="M18 2.77999C17.9492 2.55441 17.8218 2.35341 17.6394 2.21119C17.4571 2.06898 17.2311 1.99434 17 1.99999H6.99997C6.76881 1.99434 6.54283 2.06898 6.36051 2.21119C6.17818 2.35341 6.05077 2.55441 5.99997 2.77999L3.99997 11.78C3.96685 11.9276 3.96765 12.0807 4.00229 12.228C4.03693 12.3752 4.10452 12.5127 4.19997 12.63C4.29619 12.7487 4.41833 12.8438 4.55701 12.9079C4.69569 12.972 4.84722 13.0035 4.99997 13H8.93997C8.98018 13.3318 9.00022 13.6658 8.99997 14C9.00933 16.3571 8.08537 18.622 6.42997 20.3C6.29236 20.4404 6.19919 20.6182 6.16208 20.8113C6.12498 21.0043 6.14559 21.204 6.22135 21.3854C6.29711 21.5668 6.42465 21.7218 6.58803 21.8311C6.75142 21.9404 6.94339 21.9992 7.13997 22H16.86C17.0565 21.9992 17.2485 21.9404 17.4119 21.8311C17.5753 21.7218 17.7028 21.5668 17.7786 21.3854C17.8544 21.204 17.875 21.0043 17.8379 20.8113C17.8008 20.6182 17.7076 20.4404 17.57 20.3C15.9146 18.622 14.9906 16.3571 15 14C14.9997 13.6658 15.0198 13.3318 15.06 13H16V15C16 15.2652 16.1053 15.5196 16.2929 15.7071C16.4804 15.8946 16.7348 16 17 16C17.2652 16 17.5195 15.8946 17.7071 15.7071C17.8946 15.5196 18 15.2652 18 15V13H19C19.1494 13.0005 19.297 12.9675 19.432 12.9035C19.5669 12.8395 19.6859 12.746 19.78 12.63C19.8754 12.5127 19.943 12.3752 19.9777 12.228C20.0123 12.0807 20.0131 11.9276 19.98 11.78L18 2.77999ZM9.21997 20C10.3871 18.217 11.0059 16.131 11 14C11 13.67 11 13.33 10.95 13H13.05C13.05 13.33 13 13.67 13 14C12.994 16.131 13.6129 18.217 14.78 20H9.21997ZM6.21997 11L7.79997 3.99999H16.2L17.75 11H6.21997Z" fill="black"/>
</svg>
