<svg width="24" height="24" viewBox="0 0 24 24" fill="none" xmlns="http://www.w3.org/2000/svg">
<path d="M15 12C15 12.1978 15.0586 12.3911 15.1685 12.5556C15.2784 12.72 15.4346 12.8482 15.6173 12.9239C15.8 12.9996 16.0011 13.0194 16.1951 12.9808C16.3891 12.9422 16.5673 12.847 16.7071 12.7071C16.847 12.5673 16.9422 12.3891 16.9808 12.1951C17.0194 12.0011 16.9996 11.8 16.9239 11.6173C16.8482 11.4346 16.72 11.2784 16.5556 11.1685C16.3911 11.0587 16.1978 11 16 11C15.7348 11 15.4804 11.1054 15.2929 11.2929C15.1054 11.4804 15 11.7348 15 12ZM21.71 11.29L16.71 6.29C16.6166 6.19732 16.5057 6.12399 16.3839 6.07423C16.2621 6.02447 16.1316 5.99924 16 6H5C4.20435 6 3.44129 6.31607 2.87868 6.87868C2.31607 7.44129 2 8.20435 2 9V15C2 15.7957 2.31607 16.5587 2.87868 17.1213C3.44129 17.6839 4.20435 18 5 18H16C16.1316 18.0008 16.2621 17.9755 16.3839 17.9258C16.5057 17.876 16.6166 17.8027 16.71 17.71L21.71 12.71C21.8037 12.617 21.8781 12.5064 21.9289 12.3846C21.9797 12.2627 22.0058 12.132 22.0058 12C22.0058 11.868 21.9797 11.7373 21.9289 11.6154C21.8781 11.4936 21.8037 11.383 21.71 11.29ZM15.59 16H5C4.73478 16 4.48043 15.8946 4.29289 15.7071C4.10536 15.5196 4 15.2652 4 15V9C4 8.73478 4.10536 8.48043 4.29289 8.29289C4.48043 8.10536 4.73478 8 5 8H15.59L19.59 12L15.59 16Z" fill="black"/>
</svg>
