<svg width="24" height="24" viewBox="0 0 24 24" fill="none" xmlns="http://www.w3.org/2000/svg">
<path d="M19 2.99999C18.7193 2.68615 18.3757 2.43491 17.9915 2.26262C17.6072 2.09033 17.1911 2.00085 16.77 1.99999H7.23C6.80666 1.99742 6.38757 2.08448 6.00028 2.25545C5.61299 2.42641 5.26627 2.67741 4.98291 2.99194C4.69955 3.30647 4.48596 3.67741 4.3562 4.08038C4.22644 4.48335 4.18343 4.90922 4.23 5.32999L5.79 19.33C5.87157 20.0672 6.22331 20.748 6.77732 21.241C7.33134 21.7341 8.04836 22.0045 8.79 22H15.21C15.9516 22.0045 16.6687 21.7341 17.2227 21.241C17.7767 20.748 18.1284 20.0672 18.21 19.33L19.77 5.32999C19.8131 4.90929 19.7668 4.48422 19.6341 4.08266C19.5014 3.68111 19.2853 3.31215 19 2.99999ZM16.2 19.11C16.1728 19.3557 16.0556 19.5827 15.8709 19.747C15.6862 19.9114 15.4472 20.0015 15.2 20H8.79C8.54279 20.0015 8.30378 19.9114 8.11911 19.747C7.93444 19.5827 7.81719 19.3557 7.79 19.11L6.78 9.99999H17.22L16.2 19.11ZM17.44 7.99999H6.56L6.24 5.10999C6.22426 4.9697 6.23839 4.82766 6.28148 4.69322C6.32457 4.55879 6.39564 4.43499 6.49 4.32999C6.5835 4.2264 6.69764 4.14352 6.82508 4.08669C6.95253 4.02986 7.09046 4.00032 7.23 3.99999H16.77C16.9095 4.00032 17.0475 4.02986 17.1749 4.08669C17.3024 4.14352 17.4165 4.2264 17.51 4.32999C17.6044 4.43499 17.6754 4.55879 17.7185 4.69322C17.7616 4.82766 17.7758 4.9697 17.76 5.10999L17.44 7.99999ZM14 18C14.2652 18 14.5196 17.8946 14.7071 17.7071C14.8946 17.5196 15 17.2652 15 17V13C15 12.7348 14.8946 12.4804 14.7071 12.2929C14.5196 12.1054 14.2652 12 14 12C13.7348 12 13.4804 12.1054 13.2929 12.2929C13.1054 12.4804 13 12.7348 13 13V17C13 17.2652 13.1054 17.5196 13.2929 17.7071C13.4804 17.8946 13.7348 18 14 18ZM10 18C10.2652 18 10.5196 17.8946 10.7071 17.7071C10.8946 17.5196 11 17.2652 11 17V13C11 12.7348 10.8946 12.4804 10.7071 12.2929C10.5196 12.1054 10.2652 12 10 12C9.73479 12 9.48043 12.1054 9.2929 12.2929C9.10536 12.4804 9 12.7348 9 13V17C9 17.2652 9.10536 17.5196 9.2929 17.7071C9.48043 17.8946 9.73479 18 10 18Z" fill="black"/>
</svg>
