<svg width="24" height="24" viewBox="0 0 24 24" fill="none" xmlns="http://www.w3.org/2000/svg">
<path d="M22.2646 2.42778C21.9799 2.19091 21.6363 2.03567 21.2704 1.97858C20.9044 1.92149 20.5298 1.96469 20.1865 2.10357L2.2656 9.33892C1.88235 9.4966 1.55612 9.76711 1.3302 10.1145C1.10428 10.462 0.989366 10.8699 1.0007 11.2841C1.01204 11.6984 1.1491 12.0994 1.39368 12.434C1.63826 12.7685 1.9788 13.0208 2.3701 13.1573L5.9951 14.418L8.0156 21.0997C8.04306 21.1889 8.0829 21.2739 8.13398 21.352C8.14173 21.364 8.15266 21.373 8.1609 21.3846C8.2199 21.467 8.29121 21.5397 8.37233 21.6004C8.3954 21.618 8.41749 21.6345 8.44215 21.6501C8.53708 21.7131 8.64222 21.7591 8.75288 21.7862L8.76472 21.7872L8.77143 21.7901C8.83796 21.8036 8.90568 21.8105 8.97358 21.8106C8.98011 21.8106 8.98591 21.8074 8.99238 21.8073C9.09484 21.8055 9.19641 21.7879 9.29347 21.755C9.31605 21.7473 9.3354 21.7345 9.35731 21.7252C9.42969 21.6952 9.49826 21.6567 9.5616 21.6106C9.61232 21.5679 9.66306 21.5251 9.71382 21.4824L12.416 18.4991L16.4462 21.6211C16.8011 21.8974 17.2378 22.0475 17.6875 22.0479C18.1586 22.0473 18.6153 21.8847 18.9808 21.5874C19.3464 21.2901 19.5987 20.8762 19.6953 20.4151L22.958 4.39849C23.0319 4.03801 23.0065 3.66421 22.8843 3.31708C22.7622 2.96995 22.548 2.66255 22.2646 2.42778ZM9.3701 14.7364C9.23144 14.8745 9.13666 15.0505 9.09764 15.2422L8.78813 16.7462L8.00407 14.1532L12.0693 12.0362L9.3701 14.7364ZM17.6719 20.0401L12.9092 16.3506C12.7099 16.1966 12.4599 16.1234 12.2091 16.1455C11.9583 16.1675 11.7249 16.2833 11.5556 16.4697L10.6902 17.4249L10.9961 15.9385L18.0791 8.85549C18.2481 8.68665 18.3511 8.46285 18.3694 8.22461C18.3877 7.98638 18.3201 7.74947 18.1788 7.55681C18.0375 7.36414 17.8318 7.22845 17.5991 7.17433C17.3664 7.1202 17.122 7.15121 16.9101 7.26174L6.74485 12.5544L3.02049 11.1915L20.999 3.99905L17.6719 20.0401Z" fill="black"/>
</svg>
