<svg width="24" height="24" viewBox="0 0 24 24" fill="none" xmlns="http://www.w3.org/2000/svg">
<path d="M16.2899 6.29L9.28994 13.29C9.19621 13.383 9.12182 13.4936 9.07105 13.6154C9.02028 13.7373 8.99414 13.868 8.99414 14C8.99414 14.132 9.02028 14.2627 9.07105 14.3846C9.12182 14.5064 9.19621 14.617 9.28994 14.71C9.3829 14.8037 9.4935 14.8781 9.61536 14.9289C9.73722 14.9797 9.86793 15.0058 9.99994 15.0058C10.132 15.0058 10.2627 14.9797 10.3845 14.9289C10.5064 14.8781 10.617 14.8037 10.7099 14.71L17.7099 7.71C17.8982 7.52169 18.004 7.2663 18.004 7C18.004 6.73369 17.8982 6.4783 17.7099 6.29C17.5216 6.10169 17.2662 5.9959 16.9999 5.9959C16.7336 5.9959 16.4782 6.10169 16.2899 6.29ZM20.5399 3.46C20.0755 2.99436 19.5237 2.62494 18.9163 2.37287C18.3088 2.12081 17.6576 1.99106 16.9999 1.99106C16.3423 1.99106 15.6911 2.12081 15.0836 2.37287C14.4762 2.62494 13.9244 2.99436 13.4599 3.46L5.28994 11.69C5.10519 11.8763 5.00104 12.1277 4.99994 12.39V17.58L2.28994 20.29C2.19621 20.383 2.12182 20.4936 2.07105 20.6154C2.02028 20.7373 1.99414 20.868 1.99414 21C1.99414 21.132 2.02028 21.2627 2.07105 21.3846C2.12182 21.5064 2.19621 21.617 2.28994 21.71C2.3829 21.8037 2.4935 21.8781 2.61536 21.9289C2.73722 21.9797 2.86793 22.0058 2.99994 22.0058C3.13195 22.0058 3.26266 21.9797 3.38452 21.9289C3.50637 21.8781 3.61698 21.8037 3.70994 21.71L6.41994 19H11.6099C11.8723 18.9989 12.1237 18.8947 12.3099 18.71L20.5399 10.54C21.0056 10.0755 21.375 9.52378 21.6271 8.91633C21.8791 8.30888 22.0089 7.65767 22.0089 7C22.0089 6.34232 21.8791 5.69111 21.6271 5.08366C21.375 4.47621 21.0056 3.92445 20.5399 3.46ZM19.1199 9.12L11.1999 17H6.99994V12.8L14.8799 4.88C15.4486 4.35008 16.2008 4.06158 16.978 4.0753C17.7552 4.08901 18.4968 4.40386 19.0464 4.95351C19.5961 5.50316 19.9109 6.2447 19.9246 7.02191C19.9384 7.79911 19.6499 8.5513 19.1199 9.12Z" fill="black"/>
</svg>
