<svg width="24" height="24" viewBox="0 0 24 24" fill="none" xmlns="http://www.w3.org/2000/svg">
<path d="M19 20H5C4.73478 20 4.48043 20.1054 4.29289 20.2929C4.10536 20.4804 4 20.7348 4 21C4 21.2652 4.10536 21.5196 4.29289 21.7071C4.48043 21.8947 4.73478 22 5 22H19C19.2652 22 19.5196 21.8947 19.7071 21.7071C19.8946 21.5196 20 21.2652 20 21C20 20.7348 19.8946 20.4804 19.7071 20.2929C19.5196 20.1054 19.2652 20 19 20ZM8.71 7.71002L11 5.41002V17C11 17.2652 11.1054 17.5196 11.2929 17.7071C11.4804 17.8947 11.7348 18 12 18C12.2652 18 12.5196 17.8947 12.7071 17.7071C12.8946 17.5196 13 17.2652 13 17V5.41002L15.29 7.71002C15.383 7.80375 15.4936 7.87814 15.6154 7.92891C15.7373 7.97968 15.868 8.00582 16 8.00582C16.132 8.00582 16.2627 7.97968 16.3846 7.92891C16.5064 7.87814 16.617 7.80375 16.71 7.71002C16.8037 7.61706 16.8781 7.50645 16.9289 7.3846C16.9797 7.26274 17.0058 7.13203 17.0058 7.00002C17.0058 6.86801 16.9797 6.7373 16.9289 6.61544C16.8781 6.49358 16.8037 6.38298 16.71 6.29002L12.71 2.29002C12.6149 2.19898 12.5028 2.12761 12.38 2.08002C12.1365 1.98 11.8635 1.98 11.62 2.08002C11.4972 2.12761 11.3851 2.19898 11.29 2.29002L7.29 6.29002C7.19676 6.38326 7.1228 6.49395 7.07234 6.61577C7.02188 6.73759 6.99591 6.86816 6.99591 7.00002C6.99591 7.13188 7.02188 7.26245 7.07234 7.38427C7.1228 7.50609 7.19676 7.61678 7.29 7.71002C7.38324 7.80326 7.49393 7.87722 7.61575 7.92768C7.73757 7.97814 7.86814 8.00411 8 8.00411C8.13186 8.00411 8.26243 7.97814 8.38425 7.92768C8.50607 7.87722 8.61676 7.80326 8.71 7.71002Z" fill="black"/>
</svg>
