<svg width="24" height="24" viewBox="0 0 24 24" fill="none" xmlns="http://www.w3.org/2000/svg">
<path d="M15 17H16C16.2652 17 16.5196 16.8946 16.7071 16.7071C16.8946 16.5196 17 16.2652 17 16C17 15.7348 16.8946 15.4804 16.7071 15.2929C16.5196 15.1054 16.2652 15 16 15H15C14.7348 15 14.4804 15.1054 14.2929 15.2929C14.1054 15.4804 14 15.7348 14 16C14 16.2652 14.1054 16.5196 14.2929 16.7071C14.4804 16.8946 14.7348 17 15 17ZM21 17V9C21 8.20435 20.6839 7.44129 20.1213 6.87868C19.5587 6.31607 18.7956 6 18 6H13V4H17C17.2652 4 17.5196 3.89464 17.7071 3.70711C17.8946 3.51957 18 3.26522 18 3C18 2.73478 17.8946 2.48043 17.7071 2.29289C17.5196 2.10536 17.2652 2 17 2H7C6.73478 2 6.48043 2.10536 6.29289 2.29289C6.10536 2.48043 6 2.73478 6 3C6 3.26522 6.10536 3.51957 6.29289 3.70711C6.48043 3.89464 6.73478 4 7 4H11V6H6C5.20435 6 4.44129 6.31607 3.87868 6.87868C3.31607 7.44129 3 8.20435 3 9V17C3.00155 17.464 3.11073 17.9214 3.31895 18.3361C3.52717 18.7508 3.82876 19.1116 4.2 19.39L3.29 20.29C3.19627 20.383 3.12188 20.4936 3.07111 20.6154C3.02034 20.7373 2.9942 20.868 2.9942 21C2.9942 21.132 3.02034 21.2627 3.07111 21.3846C3.12188 21.5064 3.19627 21.617 3.29 21.71C3.38296 21.8037 3.49356 21.8781 3.61542 21.9289C3.73728 21.9797 3.86799 22.0058 4 22.0058C4.13201 22.0058 4.26272 21.9797 4.38458 21.9289C4.50644 21.8781 4.61704 21.8037 4.71 21.71L6.41 20H17.59L19.29 21.71C19.383 21.8037 19.4936 21.8781 19.6154 21.9289C19.7373 21.9797 19.868 22.0058 20 22.0058C20.132 22.0058 20.2627 21.9797 20.3846 21.9289C20.5064 21.8781 20.617 21.8037 20.71 21.71C20.8037 21.617 20.8781 21.5064 20.9289 21.3846C20.9797 21.2627 21.0058 21.132 21.0058 21C21.0058 20.868 20.9797 20.7373 20.9289 20.6154C20.8781 20.4936 20.8037 20.383 20.71 20.29L19.8 19.39C20.1712 19.1116 20.4728 18.7508 20.6811 18.3361C20.8893 17.9214 20.9985 17.464 21 17ZM5 9C5 8.73478 5.10536 8.48043 5.29289 8.29289C5.48043 8.10536 5.73478 8 6 8H11V12H5V9ZM19 17C19 17.2652 18.8946 17.5196 18.7071 17.7071C18.5196 17.8946 18.2652 18 18 18H6C5.73478 18 5.48043 17.8946 5.29289 17.7071C5.10536 17.5196 5 17.2652 5 17V14H19V17ZM19 12H13V8H18C18.2652 8 18.5196 8.10536 18.7071 8.29289C18.8946 8.48043 19 8.73478 19 9V12ZM8 17H9C9.26522 17 9.51957 16.8946 9.70711 16.7071C9.89464 16.5196 10 16.2652 10 16C10 15.7348 9.89464 15.4804 9.70711 15.2929C9.51957 15.1054 9.26522 15 9 15H8C7.73478 15 7.48043 15.1054 7.29289 15.2929C7.10536 15.4804 7 15.7348 7 16C7 16.2652 7.10536 16.5196 7.29289 16.7071C7.48043 16.8946 7.73478 17 8 17Z" fill="black"/>
</svg>
