<svg width="24" height="24" viewBox="0 0 24 24" fill="none" xmlns="http://www.w3.org/2000/svg">
<path d="M16 17C16.2652 17 16.5196 16.8946 16.7071 16.7071C16.8946 16.5196 17 16.2652 17 16C17.0049 15.9334 17.0049 15.8666 17 15.8C16.9891 15.7374 16.9688 15.6767 16.94 15.62C16.9181 15.5563 16.8878 15.4957 16.85 15.44L16.73 15.29C16.6328 15.2017 16.5212 15.1306 16.4 15.08C16.1565 14.98 15.8835 14.98 15.64 15.08C15.5188 15.1306 15.4072 15.2017 15.31 15.29L15.19 15.44C15.1522 15.4957 15.1219 15.5563 15.1 15.62C15.0712 15.6767 15.0509 15.7374 15.04 15.8C15.0351 15.8666 15.0351 15.9334 15.04 16C15.04 16.2652 15.1454 16.5196 15.3329 16.7071C15.5204 16.8946 15.7748 17 16.04 17H16ZM18 2H6C5.20435 2 4.44129 2.31607 3.87868 2.87868C3.31607 3.44129 3 4.20435 3 5V17C3.00155 17.464 3.11073 17.9214 3.31895 18.3361C3.52717 18.7508 3.82876 19.1116 4.2 19.39L3.29 20.29C3.19627 20.383 3.12188 20.4936 3.07111 20.6154C3.02034 20.7373 2.9942 20.868 2.9942 21C2.9942 21.132 3.02034 21.2627 3.07111 21.3846C3.12188 21.5064 3.19627 21.617 3.29 21.71C3.38296 21.8037 3.49356 21.8781 3.61542 21.9289C3.73728 21.9797 3.86799 22.0058 4 22.0058C4.13201 22.0058 4.26272 21.9797 4.38458 21.9289C4.50644 21.8781 4.61704 21.8037 4.71 21.71L6.41 20H17.59L19.29 21.71C19.383 21.8037 19.4936 21.8781 19.6154 21.9289C19.7373 21.9797 19.868 22.0058 20 22.0058C20.132 22.0058 20.2627 21.9797 20.3846 21.9289C20.5064 21.8781 20.617 21.8037 20.71 21.71C20.8037 21.617 20.8781 21.5064 20.9289 21.3846C20.9797 21.2627 21.0058 21.132 21.0058 21C21.0058 20.868 20.9797 20.7373 20.9289 20.6154C20.8781 20.4936 20.8037 20.383 20.71 20.29L19.8 19.39C20.1712 19.1116 20.4728 18.7508 20.6811 18.3361C20.8893 17.9214 20.9985 17.464 21 17V5C21 4.20435 20.6839 3.44129 20.1213 2.87868C19.5587 2.31607 18.7956 2 18 2ZM5 8H11V12H5V8ZM19 17C19 17.2652 18.8946 17.5196 18.7071 17.7071C18.5196 17.8946 18.2652 18 18 18H6C5.73478 18 5.48043 17.8946 5.29289 17.7071C5.10536 17.5196 5 17.2652 5 17V14H19V17ZM19 12H13V8H19V12ZM19 6H5V5C5 4.73478 5.10536 4.48043 5.29289 4.29289C5.48043 4.10536 5.73478 4 6 4H18C18.2652 4 18.5196 4.10536 18.7071 4.29289C18.8946 4.48043 19 4.73478 19 5V6ZM8 17C8.26522 17 8.51957 16.8946 8.70711 16.7071C8.89464 16.5196 9 16.2652 9 16C9.00491 15.9334 9.00491 15.8666 9 15.8C8.98905 15.7374 8.96883 15.6767 8.94 15.62C8.91811 15.5563 8.88785 15.4957 8.85 15.44L8.73 15.29C8.6328 15.2017 8.52118 15.1306 8.4 15.08C8.15654 14.98 7.88346 14.98 7.64 15.08C7.51882 15.1306 7.4072 15.2017 7.31 15.29L7.19 15.44C7.15215 15.4957 7.12189 15.5563 7.1 15.62C7.05717 15.6742 7.0234 15.735 7 15.8C6.99509 15.8666 6.99509 15.9334 7 16C7.0011 16.2623 7.10526 16.5137 7.29 16.7C7.38261 16.7945 7.49306 16.8697 7.61493 16.9212C7.73681 16.9727 7.86769 16.9995 8 17Z" fill="black"/>
</svg>
