<svg width="24" height="24" viewBox="0 0 24 24" fill="none" xmlns="http://www.w3.org/2000/svg">
<path d="M16 6.99998H8.00001C7.7348 6.99998 7.48044 7.10534 7.29291 7.29288C7.10537 7.48041 7.00001 7.73477 7.00001 7.99998V16C7.00001 16.2652 7.10537 16.5196 7.29291 16.7071C7.48044 16.8946 7.7348 17 8.00001 17H16C16.2652 17 16.5196 16.8946 16.7071 16.7071C16.8947 16.5196 17 16.2652 17 16V7.99998C17 7.73477 16.8947 7.48041 16.7071 7.29288C16.5196 7.10534 16.2652 6.99998 16 6.99998ZM15 15H9.00001V8.99998H15V15ZM21 18.28V5.71998C21.2705 5.56955 21.5023 5.3584 21.6773 5.10317C21.8523 4.84793 21.9657 4.55556 22.0086 4.24906C22.0514 3.94257 22.0225 3.63031 21.9242 3.33686C21.8259 3.04342 21.6609 2.77679 21.442 2.55795C21.2232 2.33912 20.9566 2.17406 20.6631 2.07575C20.3697 1.97745 20.0574 1.94858 19.7509 1.99143C19.4444 2.03427 19.1521 2.14766 18.8968 2.32267C18.6416 2.49768 18.4304 2.72953 18.28 2.99998H5.72001C5.56958 2.72953 5.35844 2.49768 5.1032 2.32267C4.84796 2.14766 4.55559 2.03427 4.24909 1.99143C3.9426 1.94858 3.63034 1.97745 3.33689 2.07575C3.04345 2.17406 2.77682 2.33912 2.55799 2.55795C2.33915 2.77679 2.17409 3.04342 2.07578 3.33686C1.97748 3.63031 1.94861 3.94257 1.99146 4.24906C2.0343 4.55556 2.14769 4.84793 2.3227 5.10317C2.49771 5.3584 2.72956 5.56955 3.00001 5.71998V18.28C2.72956 18.4304 2.49771 18.6416 2.3227 18.8968C2.14769 19.152 2.0343 19.4444 1.99146 19.7509C1.94861 20.0574 1.97748 20.3697 2.07578 20.6631C2.17409 20.9566 2.33915 21.2232 2.55799 21.442C2.77682 21.6608 3.04345 21.8259 3.33689 21.9242C3.63034 22.0225 3.9426 22.0514 4.24909 22.0085C4.55559 21.9657 4.84796 21.8523 5.1032 21.6773C5.35844 21.5023 5.56958 21.2704 5.72001 21H18.28C18.4304 21.2704 18.6416 21.5023 18.8968 21.6773C19.1521 21.8523 19.4444 21.9657 19.7509 22.0085C20.0574 22.0514 20.3697 22.0225 20.6631 21.9242C20.9566 21.8259 21.2232 21.6608 21.442 21.442C21.6609 21.2232 21.8259 20.9566 21.9242 20.6631C22.0225 20.3697 22.0514 20.0574 22.0086 19.7509C21.9657 19.4444 21.8523 19.152 21.6773 18.8968C21.5023 18.6416 21.2705 18.4304 21 18.28ZM19 18.28C18.6993 18.4504 18.4504 18.6993 18.28 19H5.72001C5.54959 18.6993 5.30074 18.4504 5.00001 18.28V5.71998C5.30074 5.54956 5.54959 5.30071 5.72001 4.99998H18.28C18.4504 5.30071 18.6993 5.54956 19 5.71998V18.28Z" fill="black"/>
</svg>
