<svg width="24" height="24" viewBox="0 0 24 24" fill="none" xmlns="http://www.w3.org/2000/svg">
<path d="M20 16.18V7.81998C20.4797 7.65287 20.9091 7.3667 21.2479 6.9883C21.5867 6.6099 21.824 6.15166 21.9373 5.65654C22.0507 5.16141 22.0365 4.6456 21.896 4.15747C21.7556 3.66933 21.4935 3.22485 21.1343 2.86568C20.7752 2.50651 20.3307 2.24442 19.8425 2.10397C19.3544 1.96352 18.8386 1.94931 18.3435 2.06267C17.8483 2.17603 17.3901 2.41325 17.0117 2.7521C16.6333 3.09094 16.3471 3.52032 16.18 3.99998H7.82001C7.6529 3.52032 7.36673 3.09094 6.98833 2.7521C6.60993 2.41325 6.15169 2.17603 5.65657 2.06267C5.16144 1.94931 4.64563 1.96352 4.1575 2.10397C3.66936 2.24442 3.22488 2.50651 2.86571 2.86568C2.50654 3.22485 2.24445 3.66933 2.104 4.15747C1.96355 4.6456 1.94934 5.16141 2.0627 5.65654C2.17606 6.15166 2.41328 6.6099 2.75213 6.9883C3.09097 7.3667 3.52035 7.65287 4.00001 7.81998V16.18C3.52035 16.3471 3.09097 16.6333 2.75213 17.0117C2.41328 17.3901 2.17606 17.8483 2.0627 18.3434C1.94934 18.8386 1.96355 19.3544 2.104 19.8425C2.24445 20.3306 2.50654 20.7751 2.86571 21.1343C3.22488 21.4935 3.66936 21.7555 4.1575 21.896C4.64563 22.0365 5.16144 22.0507 5.65657 21.9373C6.15169 21.8239 6.60993 21.5867 6.98833 21.2479C7.36673 20.909 7.6529 20.4796 7.82001 20H16.18C16.3471 20.4796 16.6333 20.909 17.0117 21.2479C17.3901 21.5867 17.8483 21.8239 18.3435 21.9373C18.8386 22.0507 19.3544 22.0365 19.8425 21.896C20.3307 21.7555 20.7752 21.4935 21.1343 21.1343C21.4935 20.7751 21.7556 20.3306 21.896 19.8425C22.0365 19.3544 22.0507 18.8386 21.9373 18.3434C21.824 17.8483 21.5867 17.3901 21.2479 17.0117C20.9091 16.6333 20.4797 16.3471 20 16.18ZM19 3.99998C19.1978 3.99998 19.3911 4.05863 19.5556 4.16851C19.72 4.2784 19.8482 4.43457 19.9239 4.6173C19.9996 4.80003 20.0194 5.00109 19.9808 5.19507C19.9422 5.38906 19.847 5.56724 19.7071 5.70709C19.5673 5.84694 19.3891 5.94218 19.1951 5.98077C19.0011 6.01935 18.8001 5.99955 18.6173 5.92386C18.4346 5.84818 18.2784 5.72 18.1685 5.55555C18.0587 5.3911 18 5.19777 18 4.99998C18 4.73477 18.1054 4.48041 18.2929 4.29288C18.4804 4.10534 18.7348 3.99998 19 3.99998ZM5.00001 3.99998C5.1978 3.99998 5.39114 4.05863 5.55558 4.16851C5.72003 4.2784 5.84821 4.43457 5.92389 4.6173C5.99958 4.80003 6.01938 5.00109 5.9808 5.19507C5.94221 5.38906 5.84697 5.56724 5.70712 5.70709C5.56727 5.84694 5.38909 5.94218 5.1951 5.98077C5.00112 6.01935 4.80006 5.99955 4.61733 5.92386C4.4346 5.84818 4.27843 5.72 4.16854 5.55555C4.05866 5.3911 4.00001 5.19777 4.00001 4.99998C4.00001 4.73477 4.10537 4.48041 4.29291 4.29288C4.48044 4.10534 4.7348 3.99998 5.00001 3.99998ZM5.00001 20C4.80223 20 4.60889 19.9413 4.44444 19.8315C4.27999 19.7216 4.15182 19.5654 4.07613 19.3827C4.00045 19.1999 3.98064 18.9989 4.01923 18.8049C4.05781 18.6109 4.15306 18.4327 4.29291 18.2929C4.43276 18.153 4.61094 18.0578 4.80492 18.0192C4.9989 17.9806 5.19997 18.0004 5.3827 18.0761C5.56542 18.1518 5.7216 18.28 5.83148 18.4444C5.94137 18.6089 6.00001 18.8022 6.00001 19C6.00001 19.2652 5.89466 19.5196 5.70712 19.7071C5.51958 19.8946 5.26523 20 5.00001 20ZM16.18 18H7.82001C7.6707 17.5806 7.42991 17.1997 7.11511 16.8849C6.80032 16.5701 6.41941 16.3293 6.00001 16.18V7.81998C6.41941 7.67067 6.80032 7.42988 7.11511 7.11508C7.42991 6.80029 7.6707 6.41938 7.82001 5.99998H16.18C16.3293 6.41938 16.5701 6.80029 16.8849 7.11508C17.1997 7.42988 17.5806 7.67067 18 7.81998V16.18C17.5806 16.3293 17.1997 16.5701 16.8849 16.8849C16.5701 17.1997 16.3293 17.5806 16.18 18ZM19 20C18.8022 20 18.6089 19.9413 18.4444 19.8315C18.28 19.7216 18.1518 19.5654 18.0761 19.3827C18.0004 19.1999 17.9806 18.9989 18.0192 18.8049C18.0578 18.6109 18.1531 18.4327 18.2929 18.2929C18.4328 18.153 18.6109 18.0578 18.8049 18.0192C18.9989 17.9806 19.2 18.0004 19.3827 18.0761C19.5654 18.1518 19.7216 18.28 19.8315 18.4444C19.9414 18.6089 20 18.8022 20 19C20 19.2652 19.8947 19.5196 19.7071 19.7071C19.5196 19.8946 19.2652 20 19 20Z" fill="black"/>
</svg>
