<svg width="24" height="24" viewBox="0 0 24 24" fill="none" xmlns="http://www.w3.org/2000/svg">
<path d="M17.4336 20.5083L16.4717 17.6548C16.4264 17.5208 16.3532 17.3978 16.257 17.2942C16.1607 17.1905 16.0436 17.1084 15.9133 17.0533C15.783 16.9982 15.6425 16.9714 15.501 16.9746C15.3596 16.9777 15.2205 17.0109 15.0928 17.0718C14.7062 17.2208 14.2977 17.3049 13.8838 17.3208C13.6511 17.3503 13.4159 17.2914 13.2246 17.1558C13.0499 16.9243 12.9649 16.6374 12.9853 16.3482V12.0005H16.002C16.1333 12.0006 16.2634 11.9748 16.3848 11.9245C16.5061 11.8743 16.6164 11.8006 16.7093 11.7078C16.8022 11.6149 16.8758 11.5046 16.926 11.3833C16.9763 11.2619 17.0021 11.1318 17.002 11.0005V7.09522C17.0021 6.96388 16.9763 6.8338 16.926 6.71244C16.8758 6.59108 16.8022 6.48082 16.7093 6.38794C16.6164 6.29507 16.5061 6.22141 16.3848 6.17118C16.2634 6.12096 16.1333 6.09514 16.002 6.09522H13V2.00049C13.0001 1.86914 12.9743 1.73907 12.924 1.61771C12.8738 1.49635 12.8002 1.38609 12.7073 1.29321C12.6144 1.20034 12.5041 1.12668 12.3828 1.07645C12.2614 1.02623 12.1313 1.00041 12 1.00049H9.07031C8.78544 1.0018 8.51124 1.10897 8.30098 1.30117C8.09072 1.49337 7.95943 1.75688 7.93262 2.04049C7.8927 3.03805 7.56049 4.00188 6.97729 4.81219C6.39409 5.6225 5.58561 6.24354 4.65234 6.59814C4.45873 6.66776 4.29133 6.79544 4.173 6.96376C4.05467 7.13208 3.99118 7.33282 3.99121 7.53857V11.1226C3.99114 11.2539 4.01695 11.384 4.06718 11.5053C4.11741 11.6267 4.19106 11.737 4.28394 11.8298C4.37681 11.9227 4.48708 11.9964 4.60844 12.0466C4.7298 12.0968 4.85987 12.1226 4.99121 12.1226H6.01562V16.6577C6.03244 18.3403 6.71008 19.9488 7.90234 21.1362C8.56745 21.7599 9.34948 22.2456 10.2033 22.5654C11.0571 22.8852 11.9659 23.0328 12.877 22.9995C12.9307 22.9995 12.9854 22.9995 13.0401 22.9985C14.586 22.9731 16.6583 22.351 17.3126 21.3911C17.3997 21.2634 17.456 21.1171 17.477 20.9639C17.498 20.8107 17.4832 20.6548 17.4336 20.5083ZM13.0068 20.9985C12.3342 21.052 11.6578 20.9651 11.0204 20.7434C10.3831 20.5217 9.79887 20.1699 9.30469 19.7104C8.49087 18.9016 8.02784 17.8051 8.01562 16.6577V11.1226C8.0157 10.9912 7.98988 10.8611 7.93966 10.7398C7.88943 10.6184 7.81577 10.5082 7.7229 10.4153C7.63002 10.3224 7.51975 10.2488 7.39839 10.1985C7.27703 10.1483 7.14696 10.1225 7.01562 10.1226H5.99121V8.20556C7.00101 7.71123 7.87591 6.97945 8.54093 6.07291C9.20595 5.16638 9.64126 4.11212 9.80957 3.00049H11V7.09522C10.9999 7.22656 11.0257 7.35663 11.076 7.47799C11.1262 7.59935 11.1999 7.70962 11.2927 7.80249C11.3856 7.89537 11.4959 7.96902 11.6172 8.01925C11.7386 8.06948 11.8687 8.09529 12 8.09522H15.002V10.0005H11.9854C11.8541 10.0004 11.724 10.0262 11.6026 10.0765C11.4813 10.1267 11.371 10.2003 11.2781 10.2932C11.1853 10.3861 11.1116 10.4964 11.0614 10.6177C11.0111 10.7391 10.9853 10.8691 10.9854 11.0005V16.3647C10.9716 16.7757 11.0402 17.1852 11.1873 17.5691C11.3344 17.9531 11.557 18.3036 11.8419 18.6001C12.1227 18.8582 12.4538 19.0554 12.8144 19.1794C13.175 19.3034 13.5574 19.3516 13.9376 19.3208C14.2558 19.3086 14.5726 19.2708 14.8848 19.2075L15.3096 20.4663C14.5857 20.797 13.8024 20.978 13.0068 20.9985Z" fill="black"/>
</svg>
