<svg width="24" height="24" viewBox="0 0 24 24" fill="none" xmlns="http://www.w3.org/2000/svg">
<path d="M21.0001 4.31002H11.6301C10.304 4.31002 9.03221 4.8368 8.09453 5.77449C7.15684 6.71217 6.63006 7.98394 6.63006 9.31002V16.31L3.71006 13.35C3.6171 13.2563 3.5065 13.1819 3.38464 13.1311C3.26278 13.0804 3.13207 13.0542 3.00006 13.0542C2.86805 13.0542 2.73734 13.0804 2.61548 13.1311C2.49362 13.1819 2.38302 13.2563 2.29006 13.35C2.10381 13.5374 1.99927 13.7908 1.99927 14.055C1.99927 14.3192 2.10381 14.5727 2.29006 14.76L6.92006 19.39C7.01427 19.4846 7.12647 19.5595 7.25006 19.61C7.36976 19.6629 7.49919 19.6903 7.63006 19.6903C7.76093 19.6903 7.89036 19.6629 8.01006 19.61C8.13159 19.5557 8.24314 19.4813 8.34006 19.39L13.0001 14.76C13.1639 14.5687 13.2495 14.3226 13.2398 14.071C13.2301 13.8193 13.1257 13.5806 12.9476 13.4025C12.7695 13.2244 12.5308 13.12 12.2791 13.1103C12.0274 13.1006 11.7814 13.1862 11.5901 13.35L8.63006 16.27V9.27002C8.63006 8.47437 8.94613 7.71131 9.50874 7.1487C10.0713 6.58609 10.8344 6.27002 11.6301 6.27002H21.0001C21.2653 6.27002 21.5196 6.16466 21.7072 5.97713C21.8947 5.78959 22.0001 5.53524 22.0001 5.27002C22.0001 5.0048 21.8947 4.75045 21.7072 4.56291C21.5196 4.37538 21.2653 4.27002 21.0001 4.27002V4.31002Z" fill="black"/>
</svg>
