<svg width="24" height="24" viewBox="0 0 24 24" fill="none" xmlns="http://www.w3.org/2000/svg">
<path d="M14.69 6.63006H7.68995L10.61 3.71006C10.7037 3.6171 10.7781 3.5065 10.8288 3.38464C10.8796 3.26278 10.9058 3.13207 10.9058 3.00006C10.9058 2.86805 10.8796 2.73734 10.8288 2.61548C10.7781 2.49362 10.7037 2.38302 10.61 2.29006C10.4226 2.10381 10.1691 1.99927 9.90495 1.99927C9.64077 1.99927 9.38732 2.10381 9.19995 2.29006L4.60996 6.92006C4.51532 7.01427 4.44052 7.12647 4.38995 7.25006C4.28994 7.49352 4.28994 7.7666 4.38995 8.01006C4.44431 8.13159 4.51868 8.24314 4.60996 8.34006L9.23995 13.0001C9.42459 13.1885 9.67619 13.2963 9.93995 13.3001C10.1386 13.3012 10.333 13.2432 10.4986 13.1334C10.6641 13.0236 10.7932 12.867 10.8693 12.6835C10.9455 12.5001 10.9653 12.2981 10.9262 12.1034C10.8872 11.9086 10.791 11.7299 10.65 11.5901L7.72995 8.63006H14.73C15.5256 8.63006 16.2887 8.94613 16.8513 9.50874C17.4139 10.0713 17.73 10.8344 17.73 11.6301V21.0001C17.73 21.2653 17.8353 21.5196 18.0228 21.7072C18.2104 21.8947 18.4647 22.0001 18.73 22.0001C18.9952 22.0001 19.2495 21.8947 19.4371 21.7072C19.6246 21.5196 19.73 21.2653 19.73 21.0001V11.6301C19.73 10.9701 19.5993 10.3166 19.3456 9.70736C19.0918 9.09811 18.7199 8.54513 18.2514 8.08031C17.7828 7.61549 17.2269 7.24803 16.6157 6.99912C16.0044 6.75021 15.3499 6.62478 14.69 6.63006Z" fill="black"/>
</svg>
