<svg width="24" height="24" viewBox="0 0 24 24" fill="none" xmlns="http://www.w3.org/2000/svg">
<path d="M11.2899 10.2099C11.3829 10.3037 11.4935 10.3781 11.6154 10.4288C11.7372 10.4796 11.8679 10.5057 11.9999 10.5057C12.132 10.5057 12.2627 10.4796 12.3845 10.4288C12.5064 10.3781 12.617 10.3037 12.7099 10.2099L15.7099 7.20994C15.8982 7.02164 16.004 6.76624 16.004 6.49994C16.004 6.23364 15.8982 5.97825 15.7099 5.78994C15.5216 5.60164 15.2662 5.49585 14.9999 5.49585C14.7336 5.49585 14.4782 5.60164 14.2899 5.78994L11.9999 8.08994L9.70994 5.78994C9.52164 5.60164 9.26624 5.49585 8.99994 5.49585C8.73364 5.49585 8.47825 5.60164 8.28994 5.78994C8.10164 5.97825 7.99585 6.23364 7.99585 6.49994C7.99585 6.76624 8.10164 7.02164 8.28994 7.20994L11.2899 10.2099ZM12.7099 14.7899C12.617 14.6962 12.5064 14.6218 12.3845 14.5711C12.2627 14.5203 12.132 14.4941 11.9999 14.4941C11.8679 14.4941 11.7372 14.5203 11.6154 14.5711C11.4935 14.6218 11.3829 14.6962 11.2899 14.7899L8.28994 17.7899C8.10164 17.9782 7.99585 18.2336 7.99585 18.4999C7.99585 18.7662 8.10164 19.0216 8.28994 19.2099C8.47825 19.3982 8.73364 19.504 8.99994 19.504C9.26624 19.504 9.52164 19.3982 9.70994 19.2099L11.9999 16.9099L14.2899 19.2099C14.3829 19.3037 14.4935 19.3781 14.6154 19.4288C14.7372 19.4796 14.8679 19.5057 14.9999 19.5057C15.132 19.5057 15.2627 19.4796 15.3845 19.4288C15.5064 19.3781 15.617 19.3037 15.7099 19.2099C15.8037 19.117 15.8781 19.0064 15.9288 18.8845C15.9796 18.7627 16.0057 18.632 16.0057 18.4999C16.0057 18.3679 15.9796 18.2372 15.9288 18.1154C15.8781 17.9935 15.8037 17.8829 15.7099 17.7899L12.7099 14.7899Z" fill="black"/>
</svg>
