<svg width="24" height="24" viewBox="0 0 24 24" fill="none" xmlns="http://www.w3.org/2000/svg">
<path d="M17.7099 11.29L12.7099 6.29002C12.6148 6.19898 12.5027 6.12761 12.3799 6.08002C12.1365 5.98 11.8634 5.98 11.6199 6.08002C11.4972 6.12761 11.385 6.19898 11.2899 6.29002L6.28994 11.29C6.1967 11.3833 6.12274 11.4939 6.07228 11.6158C6.02182 11.7376 5.99585 11.8682 5.99585 12C5.99585 12.2663 6.10164 12.5217 6.28994 12.71C6.47825 12.8983 6.73364 13.0041 6.99994 13.0041C7.26624 13.0041 7.52164 12.8983 7.70994 12.71L10.9999 9.41002V17C10.9999 17.2652 11.1053 17.5196 11.2928 17.7071C11.4804 17.8947 11.7347 18 11.9999 18C12.2652 18 12.5195 17.8947 12.707 17.7071C12.8946 17.5196 12.9999 17.2652 12.9999 17V9.41002L16.2899 12.71C16.3829 12.8037 16.4935 12.8781 16.6154 12.9289C16.7372 12.9797 16.8679 13.0058 16.9999 13.0058C17.132 13.0058 17.2627 12.9797 17.3845 12.9289C17.5064 12.8781 17.617 12.8037 17.7099 12.71C17.8037 12.6171 17.8781 12.5065 17.9288 12.3846C17.9796 12.2627 18.0057 12.132 18.0057 12C18.0057 11.868 17.9796 11.7373 17.9288 11.6154C17.8781 11.4936 17.8037 11.383 17.7099 11.29Z" fill="black"/>
</svg>
