<svg width="24" height="24" viewBox="0 0 24 24" fill="none" xmlns="http://www.w3.org/2000/svg">
<path d="M19 14C18.8726 13.9669 18.7399 13.9593 18.6096 13.9776C18.4793 13.996 18.3539 14.0398 18.2405 14.1067C18.1272 14.1736 18.0281 14.2622 17.9491 14.3674C17.8701 14.4727 17.8126 14.5925 17.78 14.72C17.3976 16.2285 16.5234 17.5666 15.2956 18.5228C14.0677 19.479 12.5562 19.9988 11 20H5.40999L6.04999 19.37C6.23624 19.1826 6.34078 18.9292 6.34078 18.665C6.34078 18.4008 6.23624 18.1474 6.04999 17.96C5.06748 16.9815 4.39769 15.7334 4.12557 14.3737C3.85345 13.0141 3.99127 11.6042 4.52153 10.323C5.0518 9.04183 5.95062 7.94698 7.10401 7.17732C8.2574 6.40767 9.61338 5.9979 11 5.99999C11.2652 5.99999 11.5196 5.89463 11.7071 5.7071C11.8946 5.51956 12 5.26521 12 4.99999C12 4.73477 11.8946 4.48042 11.7071 4.29288C11.5196 4.10535 11.2652 3.99999 11 3.99999C9.30745 4.00555 7.65079 4.48827 6.22017 5.39273C4.78956 6.29718 3.64298 7.58672 2.91206 9.1133C2.18113 10.6399 1.8955 12.3416 2.08793 14.0232C2.28037 15.7048 2.94308 17.298 3.99999 18.62L2.28999 20.29C2.15123 20.4306 2.05723 20.6092 2.01986 20.8032C1.98248 20.9972 2.00341 21.1979 2.07999 21.38C2.15501 21.5626 2.2824 21.7189 2.44613 21.8293C2.60985 21.9396 2.80256 21.999 2.99999 22H11C12.9962 22.0013 14.9363 21.3388 16.5148 20.1169C18.0934 18.8949 19.2209 17.1829 19.72 15.25C19.7576 15.1206 19.7687 14.985 19.7526 14.8512C19.7365 14.7175 19.6936 14.5883 19.6263 14.4716C19.5591 14.3548 19.4689 14.2529 19.3613 14.1718C19.2537 14.0908 19.1308 14.0324 19 14ZM21.71 5.25999L18.71 2.25999C18.6149 2.16895 18.5027 2.09758 18.38 2.04999C18.1365 1.94997 17.8634 1.94997 17.62 2.04999C17.4972 2.09758 17.3851 2.16895 17.29 2.25999L14.29 5.25999C14.1017 5.44829 13.9959 5.70369 13.9959 5.96999C13.9959 6.23629 14.1017 6.49168 14.29 6.67999C14.4783 6.86829 14.7337 6.97408 15 6.97408C15.2663 6.97408 15.5217 6.86829 15.71 6.67999L17 5.40999V11C17 11.2652 17.1053 11.5196 17.2929 11.7071C17.4804 11.8946 17.7348 12 18 12C18.2652 12 18.5196 11.8946 18.7071 11.7071C18.8946 11.5196 19 11.2652 19 11V5.40999L20.29 6.70999C20.3829 6.80372 20.4936 6.87811 20.6154 6.92888C20.7373 6.97965 20.868 7.00579 21 7.00579C21.132 7.00579 21.2627 6.97965 21.3846 6.92888C21.5064 6.87811 21.617 6.80372 21.71 6.70999C21.8037 6.61703 21.8781 6.50642 21.9289 6.38457C21.9796 6.26271 22.0058 6.132 22.0058 5.99999C22.0058 5.86798 21.9796 5.73727 21.9289 5.61541C21.8781 5.49355 21.8037 5.38295 21.71 5.28999V5.25999Z" fill="black"/>
</svg>
