<svg width="24" height="24" viewBox="0 0 24 24" fill="none" xmlns="http://www.w3.org/2000/svg">
<path d="M19 13C18.7348 13 18.4804 13.1054 18.2929 13.2929C18.1054 13.4804 18 13.7348 18 14V14.38L16.52 12.9C15.9974 12.3815 15.2911 12.0906 14.555 12.0906C13.8189 12.0906 13.1126 12.3815 12.59 12.9L11.89 13.6L9.41 11.12C8.88012 10.6156 8.17657 10.3343 7.445 10.3343C6.71343 10.3343 6.00988 10.6156 5.48 11.12L4 12.6V7C4 6.73479 4.10536 6.48043 4.29289 6.2929C4.48043 6.10536 4.73478 6 5 6H12C12.2652 6 12.5196 5.89465 12.7071 5.70711C12.8946 5.51957 13 5.26522 13 5C13 4.73479 12.8946 4.48043 12.7071 4.2929C12.5196 4.10536 12.2652 4 12 4H5C4.20435 4 3.44129 4.31607 2.87868 4.87868C2.31607 5.44129 2 6.20435 2 7V19C2 19.7957 2.31607 20.5587 2.87868 21.1213C3.44129 21.6839 4.20435 22 5 22H17C17.7956 22 18.5587 21.6839 19.1213 21.1213C19.6839 20.5587 20 19.7957 20 19V14C20 13.7348 19.8946 13.4804 19.7071 13.2929C19.5196 13.1054 19.2652 13 19 13ZM5 20C4.73478 20 4.48043 19.8946 4.29289 19.7071C4.10536 19.5196 4 19.2652 4 19V15.43L6.9 12.53C7.04691 12.39 7.24206 12.3119 7.445 12.3119C7.64794 12.3119 7.84309 12.39 7.99 12.53L11.16 15.7L15.46 20H5ZM18 19C17.9986 19.1914 17.9354 19.3773 17.82 19.53L13.31 15L14.01 14.3C14.0817 14.2268 14.1673 14.1687 14.2617 14.129C14.3561 14.0893 14.4576 14.0689 14.56 14.0689C14.6624 14.0689 14.7639 14.0893 14.8583 14.129C14.9527 14.1687 15.0383 14.2268 15.11 14.3L18 17.21V19ZM22.71 4.29L19.71 1.29C19.6149 1.19896 19.5028 1.1276 19.38 1.08C19.1365 0.979985 18.8635 0.979985 18.62 1.08C18.4972 1.1276 18.3851 1.19896 18.29 1.29L15.29 4.29C15.1968 4.38324 15.1228 4.49393 15.0723 4.61575C15.0219 4.73758 14.9959 4.86814 14.9959 5C14.9959 5.2663 15.1017 5.5217 15.29 5.71C15.4783 5.89831 15.7337 6.00409 16 6.00409C16.2663 6.00409 16.5217 5.89831 16.71 5.71L18 4.41V10C18 10.2652 18.1054 10.5196 18.2929 10.7071C18.4804 10.8946 18.7348 11 19 11C19.2652 11 19.5196 10.8946 19.7071 10.7071C19.8946 10.5196 20 10.2652 20 10V4.41L21.29 5.71C21.383 5.80373 21.4936 5.87813 21.6154 5.92889C21.7373 5.97966 21.868 6.0058 22 6.0058C22.132 6.0058 22.2627 5.97966 22.3846 5.92889C22.5064 5.87813 22.617 5.80373 22.71 5.71C22.8037 5.61704 22.8781 5.50644 22.9289 5.38458C22.9797 5.26272 23.0058 5.13201 23.0058 5C23.0058 4.86799 22.9797 4.73729 22.9289 4.61543C22.8781 4.49357 22.8037 4.38297 22.71 4.29Z" fill="black"/>
</svg>
