<svg width="24" height="24" viewBox="0 0 24 24" fill="none" xmlns="http://www.w3.org/2000/svg">
<path d="M18.42 8.22002C17.809 6.81602 16.7545 5.65109 15.4181 4.90374C14.0817 4.15639 12.5371 3.86785 11.021 4.08233C9.50489 4.2968 8.10094 5.00247 7.02427 6.09119C5.9476 7.17991 5.2576 8.59163 5.06001 10.11C4.1066 10.3383 3.27023 10.9089 2.70975 11.7132C2.14927 12.5176 1.9037 13.4997 2.01968 14.4732C2.13566 15.4467 2.60511 16.3437 3.33888 16.9939C4.07265 17.644 5.01964 18.0021 6.00001 18C6.26523 18 6.51958 17.8947 6.70712 17.7071C6.89466 17.5196 7.00001 17.2652 7.00001 17C7.00001 16.7348 6.89466 16.4804 6.70712 16.2929C6.51958 16.1054 6.26523 16 6.00001 16C5.46958 16 4.96087 15.7893 4.5858 15.4142C4.21073 15.0392 4.00001 14.5304 4.00001 14C4.00001 13.4696 4.21073 12.9609 4.5858 12.5858C4.96087 12.2107 5.46958 12 6.00001 12C6.26523 12 6.51958 11.8947 6.70712 11.7071C6.89466 11.5196 7.00001 11.2652 7.00001 11C7.00257 9.8173 7.4243 8.67377 8.19028 7.7726C8.95627 6.87143 10.0169 6.27097 11.1838 6.07789C12.3506 5.88481 13.5481 6.11162 14.5636 6.71803C15.579 7.32443 16.3466 8.27116 16.73 9.39002C16.7872 9.56186 16.8899 9.71495 17.0273 9.83295C17.1647 9.95095 17.3315 10.0294 17.51 10.06C18.1761 10.1859 18.7799 10.5336 19.223 11.0466C19.6662 11.5595 19.9226 12.2074 19.9504 12.8847C19.9782 13.5619 19.7759 14.2287 19.3763 14.7762C18.9767 15.3238 18.4035 15.7199 17.75 15.9C17.4928 15.9663 17.2724 16.1321 17.1373 16.3609C17.0023 16.5897 16.9637 16.8628 17.03 17.12C17.0963 17.3773 17.2621 17.5977 17.4909 17.7327C17.7197 17.8677 17.9928 17.9063 18.25 17.84C19.3024 17.5619 20.2353 16.948 20.907 16.0915C21.5787 15.235 21.9526 14.1826 21.9718 13.0943C21.9911 12.0059 21.6546 10.9411 21.0136 10.0613C20.3725 9.18161 19.4619 8.53512 18.42 8.22002ZM12.71 10.29C12.6149 10.199 12.5028 10.1276 12.38 10.08C12.1366 9.98 11.8635 9.98 11.62 10.08C11.4973 10.1276 11.3851 10.199 11.29 10.29L8.29001 13.29C8.10171 13.4783 7.99592 13.7337 7.99592 14C7.99592 14.2663 8.10171 14.5217 8.29001 14.71C8.47832 14.8983 8.73371 15.0041 9.00001 15.0041C9.26631 15.0041 9.52171 14.8983 9.71001 14.71L11 13.41V19C11 19.2652 11.1054 19.5196 11.2929 19.7071C11.4804 19.8947 11.7348 20 12 20C12.2652 20 12.5196 19.8947 12.7071 19.7071C12.8947 19.5196 13 19.2652 13 19V13.41L14.29 14.71C14.383 14.8037 14.4936 14.8781 14.6154 14.9289C14.7373 14.9797 14.868 15.0058 15 15.0058C15.132 15.0058 15.2627 14.9797 15.3846 14.9289C15.5064 14.8781 15.617 14.8037 15.71 14.71C15.8037 14.6171 15.8781 14.5065 15.9289 14.3846C15.9797 14.2627 16.0058 14.132 16.0058 14C16.0058 13.868 15.9797 13.7373 15.9289 13.6154C15.8781 13.4936 15.8037 13.383 15.71 13.29L12.71 10.29Z" fill="black"/>
</svg>
