<svg width="24" height="24" viewBox="0 0 24 24" fill="none" xmlns="http://www.w3.org/2000/svg">
<path d="M5.5 11C5.5 11.2652 5.60536 11.5196 5.7929 11.7071C5.98043 11.8947 6.23479 12 6.5 12C6.76522 12 7.01957 11.8947 7.20711 11.7071C7.39464 11.5196 7.5 11.2652 7.5 11V5.41002L8.79 6.71002C8.88297 6.80375 8.99357 6.87814 9.11543 6.92891C9.23728 6.97968 9.36799 7.00582 9.5 7.00582C9.63201 7.00582 9.76272 6.97968 9.88458 6.92891C10.0064 6.87814 10.117 6.80375 10.21 6.71002C10.3037 6.61706 10.3781 6.50645 10.4289 6.3846C10.4797 6.26274 10.5058 6.13203 10.5058 6.00002C10.5058 5.86801 10.4797 5.7373 10.4289 5.61544C10.3781 5.49358 10.3037 5.38298 10.21 5.29002L7.21 2.29002C7.1149 2.19898 7.00275 2.12761 6.88 2.08002C6.63654 1.98 6.36346 1.98 6.12 2.08002C5.99725 2.12761 5.88511 2.19898 5.79 2.29002L2.79 5.29002C2.6017 5.47832 2.49591 5.73372 2.49591 6.00002C2.49591 6.26632 2.6017 6.52172 2.79 6.71002C2.97831 6.89832 3.2337 7.00411 3.5 7.00411C3.7663 7.00411 4.0217 6.89832 4.21 6.71002L5.5 5.41002V11ZM18.5 6.00002H13.5C13.2348 6.00002 12.9804 6.10538 12.7929 6.29291C12.6054 6.48045 12.5 6.7348 12.5 7.00002C12.5 7.26523 12.6054 7.51959 12.7929 7.70713C12.9804 7.89466 13.2348 8.00002 13.5 8.00002H18.5C18.7652 8.00002 19.0196 8.10538 19.2071 8.29291C19.3946 8.48045 19.5 8.7348 19.5 9.00002V18.72L17.93 17.27C17.7456 17.0974 17.5026 17.0009 17.25 17H8.5C8.23479 17 7.98043 16.8947 7.7929 16.7071C7.60536 16.5196 7.5 16.2652 7.5 16V15C7.5 14.7348 7.39464 14.4804 7.20711 14.2929C7.01957 14.1054 6.76522 14 6.5 14C6.23479 14 5.98043 14.1054 5.7929 14.2929C5.60536 14.4804 5.5 14.7348 5.5 15V16C5.5 16.7957 5.81607 17.5587 6.37868 18.1213C6.94129 18.6839 7.70435 19 8.5 19H16.86L19.86 21.73C20.0444 21.9027 20.2874 21.9991 20.54 22C20.6772 21.9985 20.8128 21.9714 20.94 21.92C21.1189 21.842 21.271 21.7132 21.3776 21.5498C21.4842 21.3863 21.5407 21.1952 21.54 21V9.00002C21.54 8.60266 21.4611 8.20926 21.3079 7.84265C21.1546 7.47604 20.9301 7.14353 20.6472 6.86443C20.3644 6.58533 20.0289 6.36519 19.6603 6.2168C19.2917 6.06841 18.8973 5.99472 18.5 6.00002Z" fill="black"/>
</svg>
