<svg width="24" height="24" viewBox="0 0 24 24" fill="none" xmlns="http://www.w3.org/2000/svg">
<path d="M14.49 10.86C14.8249 10.399 15.0258 9.85429 15.0705 9.2862C15.1152 8.71811 15.0019 8.14873 14.7432 7.641C14.4844 7.13328 14.0904 6.70698 13.6045 6.40925C13.1186 6.11151 12.5598 5.95394 11.99 5.95394C11.4202 5.95394 10.8614 6.11151 10.3755 6.40925C9.88965 6.70698 9.49557 7.13328 9.23685 7.641C8.97812 8.14873 8.86484 8.71811 8.90951 9.2862C8.95419 9.85429 9.15509 10.399 9.49 10.86C9.06518 11.1307 8.68696 11.4684 8.37 11.86C8.28727 11.967 8.22643 12.0893 8.19095 12.2198C8.15547 12.3504 8.14606 12.4866 8.16323 12.6208C8.18041 12.755 8.22385 12.8845 8.29107 13.0019C8.35829 13.1193 8.44798 13.2223 8.555 13.305C8.66203 13.3877 8.78431 13.4486 8.91485 13.4841C9.04539 13.5195 9.18164 13.529 9.31582 13.5118C9.45 13.4946 9.57948 13.4512 9.69687 13.3839C9.81427 13.3167 9.91727 13.227 10 13.12C10.2442 12.8096 10.5555 12.5584 10.9105 12.3852C11.2655 12.212 11.655 12.1214 12.05 12.12C12.445 12.1214 12.8345 12.212 13.1895 12.3852C13.5445 12.5584 13.8558 12.8096 14.1 13.12C14.1941 13.236 14.313 13.3295 14.448 13.3935C14.583 13.4575 14.7306 13.4905 14.88 13.49C15.0675 13.4891 15.2509 13.4356 15.4094 13.3355C15.5679 13.2354 15.6951 13.0927 15.7764 12.9238C15.8577 12.7549 15.8899 12.5666 15.8694 12.3802C15.8488 12.1939 15.7762 12.0171 15.66 11.87C15.3288 11.4707 14.9334 11.1293 14.49 10.86ZM12 10.13C11.7862 10.1299 11.5771 10.0668 11.3988 9.94872C11.2205 9.83063 11.0809 9.6627 10.9974 9.46585C10.9138 9.26899 10.89 9.05192 10.9289 8.84164C10.9679 8.63136 11.0678 8.43718 11.2162 8.28327C11.3647 8.12936 11.5552 8.02251 11.7639 7.97605C11.9726 7.92958 12.1904 7.94554 12.3902 8.02194C12.5899 8.09834 12.7627 8.2318 12.8872 8.40572C13.0116 8.57963 13.0822 8.7863 13.09 9C13.0954 9.14647 13.0712 9.29253 13.0188 9.42942C12.9664 9.56632 12.887 9.69125 12.7852 9.79674C12.6835 9.90223 12.5615 9.98612 12.4266 10.0434C12.2917 10.1006 12.1466 10.1301 12 10.13ZM20.46 9.63C20.3196 8.16892 19.8032 6.76909 18.9612 5.56682C18.1191 4.36456 16.9801 3.40083 15.655 2.7695C14.3299 2.13816 12.8639 1.86072 11.3997 1.96421C9.93555 2.06769 8.52314 2.54856 7.3 3.36C6.2492 4.06265 5.36706 4.9893 4.71695 6.07339C4.06684 7.15749 3.6649 8.37211 3.54 9.63C3.41749 10.8797 3.57468 12.1409 4.00017 13.3223C4.42567 14.5036 5.1088 15.5755 6 16.46L11.3 21.77C11.393 21.8637 11.5036 21.9381 11.6254 21.9889C11.7473 22.0397 11.878 22.0658 12.01 22.0658C12.142 22.0658 12.2727 22.0397 12.3946 21.9889C12.5164 21.9381 12.627 21.8637 12.72 21.77L18 16.46C18.8912 15.5755 19.5743 14.5036 19.9998 13.3223C20.4253 12.1409 20.5825 10.8797 20.46 9.63ZM16.6 15.05L12 19.65L7.4 15.05C6.72209 14.3721 6.20281 13.5523 5.87947 12.6498C5.55614 11.7472 5.43679 10.7842 5.53 9.83C5.62382 8.86111 5.93177 7.92516 6.43157 7.08985C6.93138 6.25453 7.61056 5.54071 8.42 5C9.48095 4.29524 10.7263 3.9193 12 3.9193C13.2737 3.9193 14.5191 4.29524 15.58 5C16.387 5.53862 17.0647 6.24928 17.5644 7.08094C18.064 7.9126 18.3733 8.84461 18.47 9.81C18.5663 10.7674 18.4484 11.7343 18.125 12.6406C17.8016 13.5468 17.2807 14.3698 16.6 15.05Z" fill="black"/>
</svg>
