<svg width="24" height="24" viewBox="0 0 24 24" fill="none" xmlns="http://www.w3.org/2000/svg">
<path d="M15.2899 16.29L12.9999 18.59V5.41002L15.2899 7.71002C15.3829 7.80375 15.4935 7.87814 15.6154 7.92891C15.7372 7.97968 15.8679 8.00582 15.9999 8.00582C16.132 8.00582 16.2627 7.97968 16.3845 7.92891C16.5064 7.87814 16.617 7.80375 16.7099 7.71002C16.8037 7.61706 16.8781 7.50645 16.9288 7.3846C16.9796 7.26274 17.0057 7.13203 17.0057 7.00002C17.0057 6.86801 16.9796 6.7373 16.9288 6.61544C16.8781 6.49358 16.8037 6.38298 16.7099 6.29002L12.7099 2.29002C12.6148 2.19898 12.5027 2.12761 12.3799 2.08002C12.1365 1.98 11.8634 1.98 11.6199 2.08002C11.4972 2.12761 11.385 2.19898 11.2899 2.29002L7.28994 6.29002C7.1967 6.38326 7.12274 6.49395 7.07228 6.61577C7.02182 6.73759 6.99585 6.86816 6.99585 7.00002C6.99585 7.13188 7.02182 7.26245 7.07228 7.38427C7.12274 7.50609 7.1967 7.61678 7.28994 7.71002C7.38318 7.80326 7.49387 7.87722 7.61569 7.92768C7.73751 7.97814 7.86808 8.00411 7.99994 8.00411C8.1318 8.00411 8.26237 7.97814 8.38419 7.92768C8.50601 7.87722 8.6167 7.80326 8.70994 7.71002L10.9999 5.41002V18.59L8.70994 16.29C8.52164 16.1017 8.26624 15.9959 7.99994 15.9959C7.73364 15.9959 7.47825 16.1017 7.28994 16.29C7.10164 16.4783 6.99585 16.7337 6.99585 17C6.99585 17.2663 7.10164 17.5217 7.28994 17.71L11.2899 21.71C11.385 21.8011 11.4972 21.8724 11.6199 21.92C11.7396 21.9729 11.8691 22.0003 11.9999 22.0003C12.1308 22.0003 12.2602 21.9729 12.3799 21.92C12.5027 21.8724 12.6148 21.8011 12.7099 21.71L16.7099 17.71C16.8982 17.5217 17.004 17.2663 17.004 17C17.004 16.7337 16.8982 16.4783 16.7099 16.29C16.6167 16.1968 16.506 16.1228 16.3842 16.0724C16.2624 16.0219 16.1318 15.9959 15.9999 15.9959C15.7336 15.9959 15.4782 16.1017 15.2899 16.29Z" fill="black"/>
</svg>
