<svg width="24" height="24" viewBox="0 0 24 24" fill="none" xmlns="http://www.w3.org/2000/svg">
<path d="M10.2099 6.21002L10.9999 5.41002V10C10.9999 10.2652 11.1053 10.5196 11.2928 10.7071C11.4804 10.8947 11.7347 11 11.9999 11C12.2652 11 12.5195 10.8947 12.707 10.7071C12.8946 10.5196 12.9999 10.2652 12.9999 10V5.41002L13.7899 6.21002C13.8829 6.30375 13.9935 6.37814 14.1154 6.42891C14.2372 6.47968 14.3679 6.50582 14.4999 6.50582C14.632 6.50582 14.7627 6.47968 14.8845 6.42891C15.0064 6.37814 15.117 6.30375 15.2099 6.21002C15.3037 6.11706 15.3781 6.00645 15.4288 5.8846C15.4796 5.76274 15.5057 5.63203 15.5057 5.50002C15.5057 5.36801 15.4796 5.2373 15.4288 5.11544C15.3781 4.99358 15.3037 4.88298 15.2099 4.79002L12.7099 2.29002C12.6148 2.19898 12.5027 2.12761 12.3799 2.08002C12.1365 1.98 11.8634 1.98 11.6199 2.08002C11.4972 2.12761 11.385 2.19898 11.2899 2.29002L8.78994 4.79002C8.60164 4.97832 8.49585 5.23372 8.49585 5.50002C8.49585 5.76632 8.60164 6.02172 8.78994 6.21002C8.97824 6.39832 9.23364 6.50411 9.49994 6.50411C9.76624 6.50411 10.0216 6.39832 10.2099 6.21002ZM13.7899 17.79L12.9999 18.59V14C12.9999 13.7348 12.8946 13.4804 12.707 13.2929C12.5195 13.1054 12.2652 13 11.9999 13C11.7347 13 11.4804 13.1054 11.2928 13.2929C11.1053 13.4804 10.9999 13.7348 10.9999 14V18.59L10.2099 17.79C10.1167 17.6968 10.006 17.6228 9.88419 17.5724C9.76237 17.5219 9.6318 17.4959 9.49994 17.4959C9.36808 17.4959 9.23751 17.5219 9.11569 17.5724C8.99387 17.6228 8.88318 17.6968 8.78994 17.79C8.6967 17.8833 8.62274 17.9939 8.57228 18.1158C8.52182 18.2376 8.49585 18.3682 8.49585 18.5C8.49585 18.6319 8.52182 18.7624 8.57228 18.8843C8.62274 19.0061 8.6967 19.1168 8.78994 19.21L11.2899 21.71C11.385 21.8011 11.4972 21.8724 11.6199 21.92C11.7396 21.9729 11.8691 22.0003 11.9999 22.0003C12.1308 22.0003 12.2602 21.9729 12.3799 21.92C12.5027 21.8724 12.6148 21.8011 12.7099 21.71L15.2099 19.21C15.3982 19.0217 15.504 18.7663 15.504 18.5C15.504 18.2337 15.3982 17.9783 15.2099 17.79C15.0216 17.6017 14.7662 17.4959 14.4999 17.4959C14.2336 17.4959 13.9782 17.6017 13.7899 17.79Z" fill="black"/>
</svg>
