<svg width="24" height="24" viewBox="0 0 24 24" fill="none" xmlns="http://www.w3.org/2000/svg">
<path d="M4.93999 12.24C4.81057 12.209 4.67627 12.2042 4.54496 12.2258C4.41364 12.2473 4.28795 12.2949 4.17526 12.3657C4.06257 12.4365 3.96514 12.529 3.88868 12.638C3.81222 12.7469 3.75827 12.87 3.72999 13L3.23999 14.94C3.18635 15.1971 3.23599 15.4649 3.37819 15.6857C3.52039 15.9065 3.74374 16.0625 3.99999 16.12C4.25724 16.1834 4.52915 16.1422 4.75602 16.0053C4.98288 15.8685 5.14616 15.6472 5.20999 15.39L5.69999 13.45C5.73098 13.3206 5.73582 13.1863 5.71423 13.055C5.69265 12.9237 5.64507 12.798 5.57429 12.6853C5.50351 12.5726 5.41095 12.4752 5.30203 12.3987C5.19311 12.3222 5.07003 12.2683 4.93999 12.24ZM21.94 19.76L17.94 3.76C17.8877 3.5481 17.7675 3.35912 17.5978 3.22189C17.4281 3.08467 17.2181 3.00674 17 3H14C13.7348 3 13.4804 3.10536 13.2929 3.29289C13.1053 3.48043 13 3.73478 13 4V20C13 20.2652 13.1053 20.5196 13.2929 20.7071C13.4804 20.8946 13.7348 21 14 21H21C21.1519 21.0008 21.302 20.967 21.4389 20.9012C21.5757 20.8353 21.6958 20.7392 21.79 20.62C21.8887 20.5024 21.9589 20.3636 21.9953 20.2145C22.0318 20.0654 22.0333 19.9098 22 19.76H21.94ZM15 19V5H16.22L19.72 19H15ZM6.39999 6.42C6.27193 6.3871 6.13862 6.37991 6.00777 6.39887C5.87691 6.41782 5.75112 6.46254 5.63766 6.53042C5.5242 6.59831 5.42534 6.68803 5.34678 6.79438C5.26822 6.90073 5.21153 7.0216 5.17999 7.15L4.69999 9.09C4.63655 9.34725 4.67779 9.61916 4.81466 9.84603C4.95153 10.0729 5.17284 10.2362 5.42999 10.3H5.66999C5.89842 10.3067 6.12225 10.2349 6.3042 10.0966C6.48614 9.95831 6.61524 9.76188 6.66999 9.54L7.14999 7.6C7.20394 7.34432 7.15566 7.07768 7.01549 6.85714C6.87532 6.63661 6.65439 6.4797 6.39999 6.42ZM7.50999 5H9.50999C9.77521 5 10.0296 4.89464 10.2171 4.70711C10.4046 4.51957 10.51 4.26522 10.51 4C10.51 3.73478 10.4046 3.48043 10.2171 3.29289C10.0296 3.10536 9.77521 3 9.50999 3H7.50999C7.24477 3 6.99042 3.10536 6.80288 3.29289C6.61535 3.48043 6.50999 3.73478 6.50999 4C6.50999 4.26522 6.61535 4.51957 6.80288 4.70711C6.99042 4.89464 7.24477 5 7.50999 5ZM4.23999 19C4.27182 18.7348 4.19698 18.4678 4.03195 18.2577C3.86692 18.0477 3.62521 17.9118 3.35999 17.88C3.09477 17.8482 2.82778 17.923 2.61774 18.088C2.4077 18.2531 2.27182 18.4948 2.23999 18.76L1.99999 19.76C1.96254 19.9076 1.95928 20.0618 1.99048 20.2108C2.02167 20.3599 2.08649 20.4998 2.17999 20.62C2.27724 20.7433 2.40215 20.8419 2.54461 20.9079C2.68707 20.9739 2.84307 21.0055 2.99999 21H3.99999C4.26521 21.0318 4.5322 20.957 4.74224 20.792C4.95228 20.6269 5.08816 20.3852 5.11999 20.12C5.15182 19.8548 5.07698 19.5878 4.91195 19.3777C4.74692 19.1677 4.50521 19.0318 4.23999 19ZM9.99999 6.51C9.73477 6.51 9.48042 6.61536 9.29288 6.80289C9.10535 6.99043 8.99999 7.24478 8.99999 7.51V9.51C8.99999 9.77522 9.10535 10.0296 9.29288 10.2171C9.48042 10.4046 9.73477 10.51 9.99999 10.51C10.2652 10.51 10.5196 10.4046 10.7071 10.2171C10.8946 10.0296 11 9.77522 11 9.51V7.51C11 7.24478 10.8946 6.99043 10.7071 6.80289C10.5196 6.61536 10.2652 6.51 9.99999 6.51ZM9.99999 12.51C9.73477 12.51 9.48042 12.6154 9.29288 12.8029C9.10535 12.9904 8.99999 13.2448 8.99999 13.51V15.51C8.99999 15.7752 9.10535 16.0296 9.29288 16.2171C9.48042 16.4046 9.73477 16.51 9.99999 16.51C10.2652 16.51 10.5196 16.4046 10.7071 16.2171C10.8946 16.0296 11 15.7752 11 15.51V13.51C11 13.2448 10.8946 12.9904 10.7071 12.8029C10.5196 12.6154 10.2652 12.51 9.99999 12.51ZM9.99999 18.51C9.82645 18.51 9.6559 18.5552 9.50511 18.6411C9.35433 18.727 9.2285 18.8507 9.13999 19H7.99999C7.73477 19 7.48042 19.1054 7.29288 19.2929C7.10535 19.4804 6.99999 19.7348 6.99999 20C6.99999 20.2652 7.10535 20.5196 7.29288 20.7071C7.48042 20.8946 7.73477 21 7.99999 21H9.99999C10.2652 21 10.5196 20.8946 10.7071 20.7071C10.8946 20.5196 11 20.2652 11 20V19.51C11 19.2448 10.8946 18.9904 10.7071 18.8029C10.5196 18.6154 10.2652 18.51 9.99999 18.51Z" fill="black"/>
</svg>
