<svg width="24" height="24" viewBox="0 0 24 24" fill="none" xmlns="http://www.w3.org/2000/svg">
<path d="M17.27 12C17.2125 9.05695 17.7711 6.13439 18.91 3.42001C18.9874 3.26191 19.0217 3.08619 19.0094 2.91061C18.9971 2.73502 18.9387 2.56579 18.84 2.42001C18.7451 2.28658 18.6189 2.1785 18.4724 2.10527C18.3259 2.03204 18.1637 1.99589 18 2.00001H6.00001C5.8327 2.00029 5.66812 2.04255 5.52137 2.12291C5.37461 2.20328 5.25037 2.31918 5.16001 2.46001C5.06137 2.60579 5.00295 2.77502 4.99066 2.95061C4.97837 3.12619 5.01264 3.30191 5.09001 3.46001C6.22344 6.16201 6.78195 9.07038 6.73001 12C6.78753 14.9431 6.22891 17.8656 5.09001 20.58C5.01264 20.7381 4.97837 20.9138 4.99066 21.0894C5.00295 21.265 5.06137 21.4342 5.16001 21.58C5.25494 21.7134 5.38118 21.8215 5.52764 21.8948C5.67411 21.968 5.83631 22.0041 6.00001 22H18C18.1673 21.9997 18.3319 21.9575 18.4787 21.8771C18.6254 21.7967 18.7497 21.6808 18.84 21.54C18.9387 21.3942 18.9971 21.225 19.0094 21.0494C19.0217 20.8738 18.9874 20.6981 18.91 20.54C17.7766 17.838 17.2181 14.9296 17.27 12ZM16.52 20H7.52001C8.37266 17.42 8.79497 14.7172 8.77002 12C8.78208 9.28061 8.34625 6.57779 7.48001 4.00001H16.48C15.6274 6.58006 15.2051 9.28283 15.23 12C15.2179 14.7194 15.6538 17.4222 16.52 20Z" fill="black"/>
</svg>
