<svg width="24" height="24" viewBox="0 0 24 24" fill="none" xmlns="http://www.w3.org/2000/svg">
<path d="M10.21 6.21002L11 5.41002V8.00002C11 8.26523 11.1054 8.51959 11.2929 8.70713C11.4804 8.89466 11.7348 9.00002 12 9.00002C12.2652 9.00002 12.5196 8.89466 12.7071 8.70713C12.8946 8.51959 13 8.26523 13 8.00002V5.41002L13.79 6.21002C13.883 6.30375 13.9936 6.37814 14.1154 6.42891C14.2373 6.47968 14.368 6.50582 14.5 6.50582C14.632 6.50582 14.7627 6.47968 14.8846 6.42891C15.0064 6.37814 15.117 6.30375 15.21 6.21002C15.3037 6.11706 15.3781 6.00645 15.4289 5.8846C15.4797 5.76274 15.5058 5.63203 15.5058 5.50002C15.5058 5.36801 15.4797 5.2373 15.4289 5.11544C15.3781 4.99358 15.3037 4.88298 15.21 4.79002L12.71 2.29002C12.6149 2.19898 12.5028 2.12761 12.38 2.08002C12.1365 1.98 11.8635 1.98 11.62 2.08002C11.4972 2.12761 11.3851 2.19898 11.29 2.29002L8.79 4.79002C8.6017 4.97832 8.49591 5.23372 8.49591 5.50002C8.49591 5.76632 8.6017 6.02172 8.79 6.21002C8.9783 6.39832 9.2337 6.50411 9.5 6.50411C9.7663 6.50411 10.0217 6.39832 10.21 6.21002ZM16 11H8C7.73478 11 7.48043 11.1054 7.29289 11.2929C7.10536 11.4804 7 11.7348 7 12C7 12.2652 7.10536 12.5196 7.29289 12.7071C7.48043 12.8947 7.73478 13 8 13H16C16.2652 13 16.5196 12.8947 16.7071 12.7071C16.8946 12.5196 17 12.2652 17 12C17 11.7348 16.8946 11.4804 16.7071 11.2929C16.5196 11.1054 16.2652 11 16 11ZM13.79 17.79L13 18.59V16C13 15.7348 12.8946 15.4804 12.7071 15.2929C12.5196 15.1054 12.2652 15 12 15C11.7348 15 11.4804 15.1054 11.2929 15.2929C11.1054 15.4804 11 15.7348 11 16V18.59L10.21 17.79C10.1168 17.6968 10.0061 17.6228 9.88425 17.5724C9.76243 17.5219 9.63186 17.4959 9.5 17.4959C9.36814 17.4959 9.23757 17.5219 9.11575 17.5724C8.99393 17.6228 8.88324 17.6968 8.79 17.79C8.69676 17.8833 8.6228 17.9939 8.57234 18.1158C8.52188 18.2376 8.49591 18.3682 8.49591 18.5C8.49591 18.6319 8.52188 18.7624 8.57234 18.8843C8.6228 19.0061 8.69676 19.1168 8.79 19.21L11.29 21.71C11.3851 21.8011 11.4972 21.8724 11.62 21.92C11.7397 21.9729 11.8691 22.0003 12 22.0003C12.1309 22.0003 12.2603 21.9729 12.38 21.92C12.5028 21.8724 12.6149 21.8011 12.71 21.71L15.21 19.21C15.3983 19.0217 15.5041 18.7663 15.5041 18.5C15.5041 18.2337 15.3983 17.9783 15.21 17.79C15.0217 17.6017 14.7663 17.4959 14.5 17.4959C14.2337 17.4959 13.9783 17.6017 13.79 17.79Z" fill="black"/>
</svg>
