<svg width="24" height="24" viewBox="0 0 24 24" fill="none" xmlns="http://www.w3.org/2000/svg">
<path d="M7.6 15.18C7.41169 14.9917 7.1563 14.8859 6.89 14.8859C6.62369 14.8859 6.3683 14.9917 6.18 15.18C5.99169 15.3683 5.88591 15.6237 5.88591 15.89C5.88591 16.1563 5.99169 16.4117 6.18 16.6L7.24 17.66C7.33296 17.7537 7.44356 17.8281 7.56542 17.8789C7.68728 17.9297 7.81798 17.9558 7.95 17.9558C8.08201 17.9558 8.21271 17.9297 8.33457 17.8789C8.45643 17.8281 8.56703 17.7537 8.66 17.66C8.75373 17.567 8.82812 17.4564 8.87889 17.3346C8.92966 17.2127 8.95579 17.082 8.95579 16.95C8.95579 16.818 8.92966 16.6873 8.87889 16.5654C8.82812 16.4436 8.75373 16.333 8.66 16.24L7.6 15.18ZM3.81 9.78L2.75 10.84C2.67171 10.9147 2.60737 11.0027 2.56 11.1C2.41599 11.1695 2.29076 11.2726 2.19481 11.4005C2.09885 11.5284 2.03497 11.6775 2.00852 11.8352C1.98208 11.9929 1.99383 12.1546 2.04281 12.3068C2.09179 12.459 2.17655 12.5973 2.29 12.71L3.35 13.77C3.44296 13.8637 3.55356 13.9381 3.67542 13.9889C3.79728 14.0397 3.92798 14.0658 4.06 14.0658C4.19201 14.0658 4.32271 14.0397 4.44457 13.9889C4.56643 13.9381 4.67703 13.8637 4.77 13.77C4.86372 13.677 4.93812 13.5664 4.98889 13.4446C5.03966 13.3227 5.06579 13.192 5.06579 13.06C5.06579 12.928 5.03966 12.7973 4.98889 12.6754C4.93812 12.5536 4.86372 12.443 4.77 12.35L4.41 12L5.22 11.19C5.38382 10.9987 5.46943 10.7526 5.45971 10.5009C5.44999 10.2493 5.34565 10.0105 5.16756 9.83244C4.98947 9.65434 4.75073 9.55001 4.49905 9.54029C4.24737 9.53057 4.0013 9.61617 3.81 9.78ZM8 10.57C7.73478 10.57 7.48043 10.6754 7.29289 10.8629C7.10535 11.0504 7 11.3048 7 11.57V13.07C7 13.3352 7.10535 13.5896 7.29289 13.7771C7.48043 13.9646 7.73478 14.07 8 14.07C8.26521 14.07 8.51957 13.9646 8.7071 13.7771C8.89464 13.5896 9 13.3352 9 13.07V11.57C9 11.3048 8.89464 11.0504 8.7071 10.8629C8.51957 10.6754 8.26521 10.57 8 10.57ZM21.71 11.29L16.71 6.29C16.5694 6.15124 16.3908 6.05725 16.1968 6.01987C16.0028 5.9825 15.8021 6.00342 15.62 6.08C15.4374 6.15502 15.2811 6.28242 15.1707 6.44614C15.0604 6.60986 15.001 6.80257 15 7V17C15.001 17.1974 15.0604 17.3901 15.1707 17.5539C15.2811 17.7176 15.4374 17.845 15.62 17.92C15.7387 17.976 15.8688 18.0034 16 18C16.1316 18.0008 16.2621 17.9755 16.3839 17.9258C16.5057 17.876 16.6166 17.8027 16.71 17.71L21.71 12.71C21.8037 12.617 21.8781 12.5064 21.9289 12.3846C21.9797 12.2627 22.0058 12.132 22.0058 12C22.0058 11.868 21.9797 11.7373 21.9289 11.6154C21.8781 11.4936 21.8037 11.383 21.71 11.29ZM17 14.59V9.41L19.59 12L17 14.59ZM12 2C11.7348 2 11.4804 2.10536 11.2929 2.29289C11.1054 2.48043 11 2.73478 11 3V21C11 21.2652 11.1054 21.5196 11.2929 21.7071C11.4804 21.8946 11.7348 22 12 22C12.2652 22 12.5196 21.8946 12.7071 21.7071C12.8946 21.5196 13 21.2652 13 21V3C13 2.73478 12.8946 2.48043 12.7071 2.29289C12.5196 2.10536 12.2652 2 12 2ZM8.38 6.08C8.19789 6.00342 7.99717 5.9825 7.80318 6.01987C7.60919 6.05725 7.43062 6.15124 7.29 6.29L6.64 7C6.45375 7.18736 6.3492 7.44081 6.3492 7.705C6.3492 7.96919 6.45375 8.22264 6.64 8.41C6.82463 8.59841 7.07623 8.70624 7.34 8.71C7.49654 8.70906 7.65067 8.67138 7.79 8.6C7.94023 8.63249 8.09594 8.62991 8.24501 8.59246C8.39409 8.55502 8.53253 8.4837 8.64958 8.38407C8.76662 8.28444 8.85913 8.15916 8.9199 8.01798C8.98067 7.87679 9.00808 7.7235 9 7.57V7C8.99901 6.80257 8.93961 6.60986 8.82928 6.44614C8.71894 6.28242 8.56262 6.15502 8.38 6.08Z" fill="black"/>
</svg>
