<svg width="24" height="24" viewBox="0 0 24 24" fill="none" xmlns="http://www.w3.org/2000/svg">
<path d="M9.87996 14.12L9.72996 14L9.54996 13.9L9.36996 13.85C9.2093 13.8179 9.0432 13.8256 8.88627 13.8727C8.72934 13.9198 8.58638 14.0047 8.46996 14.12C8.37104 14.2106 8.29555 14.3239 8.24996 14.45C8.19705 14.5697 8.16973 14.6991 8.16973 14.83C8.16973 14.9609 8.19705 15.0903 8.24996 15.21C8.35741 15.4503 8.54966 15.6426 8.78996 15.75C8.91018 15.8013 9.03928 15.8284 9.16996 15.83C9.30377 15.8275 9.43597 15.8004 9.55996 15.75C9.68184 15.7017 9.79123 15.6265 9.87996 15.53C9.9735 15.4388 10.0482 15.33 10.1 15.21C10.1478 15.0891 10.1716 14.96 10.17 14.83C10.1733 14.6988 10.1459 14.5687 10.09 14.45C10.0441 14.3264 9.97256 14.2139 9.87996 14.12ZM3.50996 8.76002C3.64226 8.75947 3.77315 8.73267 3.89502 8.68117C4.0169 8.62968 4.12734 8.55451 4.21996 8.46002L8.45996 4.22002C8.64621 4.03266 8.75075 3.7792 8.75075 3.51502C8.75075 3.25083 8.64621 2.99738 8.45996 2.81002C8.2726 2.62377 8.01914 2.51923 7.75496 2.51923C7.49077 2.51923 7.23732 2.62377 7.04996 2.81002L2.80996 7.05002C2.62371 7.23738 2.51917 7.49083 2.51917 7.75502C2.51917 8.01921 2.62371 8.27266 2.80996 8.46002C2.99459 8.64843 3.24619 8.75626 3.50996 8.76002ZM21.19 15.54C21.0026 15.3538 20.7491 15.2492 20.485 15.2492C20.2208 15.2492 19.9673 15.3538 19.78 15.54L15.54 19.78C15.3995 19.9193 15.3036 20.0971 15.2642 20.2909C15.2248 20.4847 15.2438 20.6858 15.3187 20.8689C15.3936 21.0519 15.5211 21.2086 15.6851 21.3192C15.8491 21.4297 16.0422 21.4892 16.24 21.49C16.3723 21.4895 16.5031 21.4627 16.625 21.4112C16.7469 21.3597 16.8573 21.2845 16.95 21.19L21.19 17C21.2899 16.9065 21.3695 16.7934 21.424 16.6679C21.4784 16.5423 21.5065 16.4069 21.5065 16.27C21.5065 16.1332 21.4784 15.9977 21.424 15.8722C21.3695 15.7466 21.2899 15.6336 21.19 15.54ZM21.36 9.88002C21.3619 9.08607 21.0491 8.32372 20.49 7.76002L16.24 3.51002C15.6677 2.96701 14.9089 2.6643 14.12 2.6643C13.3311 2.6643 12.5722 2.96701 12 3.51002L3.50996 12C2.94816 12.5625 2.6326 13.325 2.6326 14.12C2.6326 14.915 2.94816 15.6775 3.50996 16.24L7.75996 20.49C8.32246 21.0518 9.08496 21.3674 9.87996 21.3674C10.675 21.3674 11.4375 21.0518 12 20.49L20.49 12C21.0491 11.4363 21.3619 10.674 21.36 9.88002ZM19.07 10.59L10.59 19.07C10.497 19.1637 10.3864 19.2381 10.2645 19.2889C10.1427 19.3397 10.012 19.3658 9.87996 19.3658C9.74795 19.3658 9.61724 19.3397 9.49538 19.2889C9.37352 19.2381 9.26292 19.1637 9.16996 19.07L4.92996 14.83C4.83623 14.7371 4.76184 14.6265 4.71107 14.5046C4.6603 14.3827 4.63416 14.252 4.63416 14.12C4.63416 13.988 4.6603 13.8573 4.71107 13.7354C4.76184 13.6136 4.83623 13.503 4.92996 13.41L13.41 4.93002C13.5029 4.83629 13.6135 4.7619 13.7354 4.71113C13.8572 4.66036 13.9879 4.63422 14.12 4.63422C14.252 4.63422 14.3827 4.66036 14.5045 4.71113C14.6264 4.7619 14.737 4.83629 14.83 4.93002L19.07 9.17002C19.1637 9.26298 19.2381 9.37358 19.2888 9.49544C19.3396 9.6173 19.3658 9.74801 19.3658 9.88002C19.3658 10.012 19.3396 10.1427 19.2888 10.2646C19.2381 10.3865 19.1637 10.4971 19.07 10.59Z" fill="black"/>
</svg>
