<svg width="24" height="24" viewBox="0 0 24 24" fill="none" xmlns="http://www.w3.org/2000/svg">
<path d="M16.93 4.09997C16.7676 4.02971 16.5895 4.0038 16.4138 4.02488C16.2381 4.04597 16.0712 4.11329 15.93 4.21997L11.15 7.99997H7.5C7.23478 7.99997 6.98043 8.10533 6.79289 8.29286C6.60536 8.4804 6.5 8.73475 6.5 8.99997V15C6.5 15.2652 6.60536 15.5195 6.79289 15.7071C6.98043 15.8946 7.23478 16 7.5 16H11.15L15.88 19.78C16.0559 19.9211 16.2744 19.9987 16.5 20C16.6494 20.0024 16.797 19.9681 16.93 19.9C17.1002 19.8189 17.244 19.6914 17.3448 19.5322C17.4457 19.373 17.4995 19.1885 17.5 19V4.99997C17.4995 4.81148 17.4457 4.62699 17.3448 4.46775C17.244 4.30851 17.1002 4.18102 16.93 4.09997ZM15.5 16.92L12.12 14.22C11.9441 14.0788 11.7256 14.0013 11.5 14H8.5V9.99997H11.5C11.7256 9.99866 11.9441 9.92113 12.12 9.77997L15.5 7.07997V16.92Z" fill="black"/>
</svg>
