<svg width="24" height="24" viewBox="0 0 24 24" fill="none" xmlns="http://www.w3.org/2000/svg">
<path d="M12.43 4.09997C12.2676 4.02971 12.0895 4.0038 11.9138 4.02488C11.7381 4.04597 11.5712 4.11329 11.43 4.21997L6.65 7.99997H3C2.73478 7.99997 2.48043 8.10533 2.29289 8.29286C2.10536 8.4804 2 8.73475 2 8.99997V15C2 15.2652 2.10536 15.5195 2.29289 15.7071C2.48043 15.8946 2.73478 16 3 16H6.65L11.38 19.78C11.5559 19.9211 11.7744 19.9987 12 20C12.1494 20.0024 12.297 19.9681 12.43 19.9C12.6002 19.8189 12.744 19.6914 12.8448 19.5322C12.9457 19.373 12.9995 19.1885 13 19V4.99997C12.9995 4.81148 12.9457 4.62699 12.8448 4.46775C12.744 4.30851 12.6002 4.18102 12.43 4.09997ZM11 16.92L7.62 14.22C7.44406 14.0788 7.22556 14.0013 7 14H4V9.99997H7C7.22556 9.99866 7.44406 9.92113 7.62 9.77997L11 7.07997V16.92ZM15.14 4.08997C15.0087 4.07159 14.875 4.07925 14.7467 4.11252C14.6183 4.14579 14.4977 4.20401 14.3919 4.28387C14.286 4.36373 14.1969 4.46365 14.1297 4.57794C14.0625 4.69223 14.0184 4.81865 14 4.94997C13.9816 5.08129 13.9893 5.21495 14.0225 5.34331C14.0558 5.47167 14.114 5.59222 14.1939 5.69808C14.3552 5.91187 14.5948 6.05284 14.86 6.08997C16.2762 6.30822 17.5676 7.0261 18.5004 8.11376C19.4333 9.20142 19.9462 10.587 19.9462 12.02C19.9462 13.4529 19.4333 14.8385 18.5004 15.9262C17.5676 17.0138 16.2762 17.7317 14.86 17.95C14.5948 17.9685 14.3478 18.0917 14.1734 18.2924C13.999 18.493 13.9114 18.7548 13.93 19.02C13.9486 19.2852 14.0717 19.5322 14.2724 19.7066C14.4731 19.881 14.7348 19.9685 15 19.95H15.14C17.0328 19.6636 18.7602 18.708 20.0086 17.2566C21.2569 15.8053 21.9434 13.9543 21.9434 12.04C21.9434 10.1256 21.2569 8.27469 20.0086 6.82331C18.7602 5.37193 17.0328 4.41632 15.14 4.12997V4.08997ZM14.68 13.87C14.4148 13.9124 14.1773 14.0585 14.0198 14.276C13.8622 14.4935 13.7976 14.7648 13.84 15.03C13.8824 15.2952 14.0285 15.5327 14.246 15.6902C14.4636 15.8477 14.7348 15.9124 15 15.87C15.1085 15.8688 15.2163 15.8519 15.32 15.82C16.099 15.5437 16.7733 15.033 17.2502 14.3579C17.7271 13.6828 17.9832 12.8765 17.9832 12.05C17.9832 11.2234 17.7271 10.4172 17.2502 9.74208C16.7733 9.06699 16.099 8.55621 15.32 8.27997C15.068 8.1951 14.7927 8.2138 14.5545 8.33194C14.3164 8.45009 14.1349 8.65802 14.05 8.90997C13.9651 9.16193 13.9838 9.43728 14.102 9.67545C14.2201 9.91362 14.428 10.0951 14.68 10.18C15.0595 10.3239 15.3862 10.5799 15.6167 10.9139C15.8472 11.2479 15.9707 11.6441 15.9707 12.05C15.9707 12.4558 15.8472 12.8521 15.6167 13.1861C15.3862 13.5201 15.0595 13.776 14.68 13.92V13.87Z" fill="black"/>
</svg>
