<svg width="24" height="24" viewBox="0 0 24 24" fill="none" xmlns="http://www.w3.org/2000/svg">
<path d="M22.8672 3.37405C22.7797 3.22157 22.6536 3.09487 22.5015 3.00674C22.3494 2.91861 22.1768 2.87217 22.001 2.8721L17.0303 2.86819L17.023 2.86719L13.3794 2.86819C13.219 2.86835 13.061 2.90703 12.9187 2.98095C12.7764 3.05487 12.6539 3.16189 12.5615 3.293L12.0029 4.0889L11.4385 3.29105C11.3463 3.16036 11.2241 3.05374 11.0821 2.98015C10.9401 2.90656 10.7825 2.86816 10.6226 2.86819L6.97658 2.86719H6.97609L6.97463 2.86737L6.97316 2.86719H6.96779L1.99465 2.89453C1.81897 2.89541 1.64661 2.94256 1.49495 3.03123C1.34329 3.11991 1.21767 3.24699 1.13074 3.39966C1.04381 3.55233 0.998637 3.72521 0.999777 3.90089C1.00092 4.07658 1.04833 4.24886 1.13723 4.40039L11.1568 21.5059C11.245 21.6563 11.3711 21.781 11.5224 21.8677C11.6738 21.9544 11.8451 22 12.0196 22H12.0205C12.1952 21.9999 12.3668 21.954 12.5183 21.867C12.6697 21.78 12.7958 21.6548 12.8838 21.504L22.8643 4.37605C22.9527 4.22398 22.9995 4.05133 23 3.87544C23.0005 3.69955 22.9547 3.52663 22.8672 3.37405ZM10.1045 4.86821L11.1895 6.40142C11.2818 6.53215 11.4041 6.63881 11.5462 6.71239C11.6882 6.78598 11.8459 6.82435 12.0059 6.82427H12.0074C12.1676 6.82388 12.3254 6.78511 12.4675 6.71119C12.6096 6.63728 12.732 6.53038 12.8243 6.39946L13.8995 4.86821L15.2621 4.86721L12.0181 10.3209L8.74318 4.86724L10.1045 4.86821ZM12.0171 19.0176L3.73928 4.88482L6.4092 4.87017L11.1626 12.7882C11.2515 12.9362 11.3772 13.0586 11.5275 13.1437C11.6777 13.2287 11.8474 13.2734 12.02 13.2735H12.022L12.023 13.2734L12.024 13.2735H12.026C12.199 13.2731 12.369 13.2278 12.5193 13.1421C12.6696 13.0563 12.795 12.933 12.8834 12.7843L17.5914 4.86826L20.2609 4.87119L12.0171 19.0176Z" fill="black"/>
</svg>
