<svg width="24" height="24" viewBox="0 0 24 24" fill="none" xmlns="http://www.w3.org/2000/svg">
<path d="M18.08 6.99998C17.9486 6.98905 17.8163 7.00421 17.6908 7.04459C17.5653 7.08498 17.449 7.14979 17.3486 7.23529C17.2482 7.3208 17.1658 7.42531 17.1059 7.54282C17.0461 7.66033 17.0101 7.78851 17 7.91998L16.65 12.47C16.1876 12.3268 15.7728 12.0607 15.45 11.7C15.3562 11.5936 15.2408 11.5084 15.1115 11.45C14.9822 11.3916 14.8419 11.3614 14.7 11.3614C14.5582 11.3614 14.4179 11.3916 14.2886 11.45C14.1593 11.5084 14.0439 11.5936 13.95 11.7C13.7018 11.9697 13.4004 12.185 13.0647 12.3322C12.7291 12.4795 12.3666 12.5555 12 12.5555C11.6335 12.5555 11.271 12.4795 10.9353 12.3322C10.5997 12.185 10.2982 11.9697 10.05 11.7C9.95619 11.5936 9.84078 11.5084 9.71147 11.45C9.58215 11.3916 9.4419 11.3614 9.30003 11.3614C9.15815 11.3614 9.0179 11.3916 8.88859 11.45C8.75928 11.5084 8.64387 11.5936 8.55003 11.7C8.22625 12.0595 7.81179 12.3255 7.35003 12.47L7.00003 7.91998C6.98993 7.78851 6.95394 7.66033 6.89411 7.54282C6.83428 7.42531 6.75181 7.3208 6.65143 7.23529C6.55105 7.14979 6.43475 7.08498 6.30923 7.04459C6.1837 7.00421 6.05143 6.98905 5.92003 6.99998C5.78855 7.01008 5.66037 7.04607 5.54287 7.1059C5.42536 7.16573 5.32085 7.2482 5.23534 7.34858C5.14983 7.44896 5.08502 7.56526 5.04464 7.69078C5.00425 7.8163 4.98909 7.94858 5.00003 8.07998L5.86003 19.23C5.91809 19.9851 6.25961 20.6903 6.81605 21.2041C7.37249 21.7179 8.10267 22.0022 8.86003 22H15.16C15.9174 22.0022 16.6476 21.7179 17.204 21.2041C17.7604 20.6903 18.102 19.9851 18.16 19.23L19 8.07998C19.011 7.94858 18.9958 7.8163 18.9554 7.69078C18.915 7.56526 18.8502 7.44896 18.7647 7.34858C18.6792 7.2482 18.5747 7.16573 18.4572 7.1059C18.3397 7.04607 18.2115 7.01008 18.08 6.99998ZM16.14 19.08C16.1199 19.3311 16.0057 19.5654 15.8203 19.7359C15.6349 19.9065 15.3919 20.0008 15.14 20H8.85003C8.59811 20.0008 8.35516 19.9065 8.16977 19.7359C7.98437 19.5654 7.87018 19.3311 7.85003 19.08L7.50003 14.5C8.14837 14.3645 8.76138 14.0954 9.30003 13.71C10.0887 14.2706 11.0324 14.5719 12 14.5719C12.9677 14.5719 13.9113 14.2706 14.7 13.71C15.2387 14.0954 15.8517 14.3645 16.5 14.5L16.14 19.08ZM12 9.99998C12.8612 9.99734 13.6863 9.65409 14.2952 9.04516C14.9041 8.43624 15.2474 7.61112 15.25 6.74998C15.25 3.99998 12.67 2.23998 12.56 2.16998C12.3947 2.05821 12.1996 1.99847 12 1.99847C11.8004 1.99847 11.6054 2.05821 11.44 2.16998C11.33 2.24998 8.75003 3.99998 8.75003 6.74998C8.75266 7.61112 9.09592 8.43624 9.70484 9.04516C10.3138 9.65409 11.1389 9.99734 12 9.99998ZM12 4.29998C12.7237 4.9197 13.173 5.80036 13.25 6.74998C13.25 7.0815 13.1183 7.39944 12.8839 7.63386C12.6495 7.86829 12.3315 7.99998 12 7.99998C11.6685 7.99998 11.3506 7.86829 11.1161 7.63386C10.8817 7.39944 10.75 7.0815 10.75 6.74998C10.8323 5.80186 11.2807 4.92307 12 4.29998Z" fill="black"/>
</svg>
