<svg width="24" height="24" viewBox="0 0 24 24" fill="none" xmlns="http://www.w3.org/2000/svg">
<path d="M12 15C11.4066 15 10.8266 15.176 10.3333 15.5056C9.83992 15.8353 9.4554 16.3038 9.22834 16.852C9.00128 17.4002 8.94187 18.0034 9.05762 18.5853C9.17338 19.1672 9.4591 19.7018 9.87866 20.1213C10.2982 20.5409 10.8328 20.8266 11.4147 20.9424C11.9967 21.0581 12.5998 20.9987 13.148 20.7717C13.6962 20.5446 14.1647 20.1601 14.4944 19.6667C14.824 19.1734 15 18.5934 15 18C15 17.2044 14.6839 16.4413 14.1213 15.8787C13.5587 15.3161 12.7956 15 12 15ZM12 19C11.8022 19 11.6089 18.9414 11.4444 18.8315C11.28 18.7216 11.1518 18.5654 11.0761 18.3827C11.0004 18.2 10.9806 17.9989 11.0192 17.8049C11.0578 17.611 11.153 17.4328 11.2929 17.2929C11.4327 17.1531 11.6109 17.0578 11.8049 17.0192C11.9989 16.9807 12.1999 17.0005 12.3827 17.0761C12.5654 17.1518 12.7216 17.28 12.8314 17.4445C12.9413 17.6089 13 17.8022 13 18C13 18.2652 12.8946 18.5196 12.7071 18.7071C12.5195 18.8947 12.2652 19 12 19ZM12 11C10.1447 11.0064 8.36653 11.7428 7.04998 13.05C6.86373 13.2374 6.75918 13.4908 6.75918 13.755C6.75918 14.0192 6.86373 14.2727 7.04998 14.46C7.23734 14.6463 7.49079 14.7508 7.75498 14.7508C8.01916 14.7508 8.27262 14.6463 8.45998 14.46C8.92443 13.9944 9.47619 13.625 10.0836 13.3729C10.6911 13.1208 11.3423 12.9911 12 12.9911C12.6577 12.9911 13.3089 13.1208 13.9163 13.3729C14.5238 13.625 15.0755 13.9944 15.54 14.46C15.7246 14.6484 15.9762 14.7563 16.24 14.76C16.4429 14.7717 16.6445 14.7213 16.818 14.6155C16.9916 14.5097 17.1287 14.3535 17.2113 14.1678C17.2938 13.9821 17.3178 13.7756 17.28 13.5759C17.2423 13.3763 17.1446 13.1928 17 13.05C16.342 12.3967 15.5618 11.8794 14.7039 11.5277C13.846 11.176 12.9272 10.9967 12 11ZM12 7.00002C9.08396 7.00777 6.28856 8.16474 4.21998 10.22C4.12674 10.3133 4.05278 10.424 4.00232 10.5458C3.95186 10.6676 3.92589 10.7982 3.92589 10.93C3.92589 11.1963 4.03167 11.4517 4.21998 11.64C4.40828 11.8283 4.66368 11.9341 4.92998 11.9341C5.19628 11.9341 5.45167 11.8283 5.63998 11.64C7.32748 9.95462 9.61497 9.00794 12 9.00794C14.385 9.00794 16.6725 9.95462 18.36 11.64C18.4534 11.7327 18.5642 11.806 18.6861 11.8558C18.8079 11.9056 18.9384 11.9308 19.07 11.93C19.2016 11.9308 19.332 11.9056 19.4539 11.8558C19.5757 11.806 19.6865 11.7327 19.78 11.64C19.8737 11.5471 19.9481 11.4365 19.9989 11.3146C20.0496 11.1927 20.0758 11.062 20.0758 10.93C20.0758 10.798 20.0496 10.6673 19.9989 10.5454C19.9481 10.4236 19.8737 10.313 19.78 10.22C17.7114 8.16474 14.916 7.00777 12 7.00002ZM22.61 7.39002C21.217 5.99613 19.563 4.89037 17.7424 4.13595C15.9219 3.38153 13.9706 2.99323 12 2.99323C10.0293 2.99323 8.07802 3.38153 6.25751 4.13595C4.437 4.89037 2.78298 5.99613 1.38998 7.39002C1.20167 7.57833 1.09589 7.83372 1.09589 8.10002C1.09589 8.36632 1.20167 8.62172 1.38998 8.81002C1.57828 8.99833 1.83368 9.10411 2.09998 9.10411C2.36628 9.10411 2.62167 8.99833 2.80998 8.81002C5.24776 6.37351 8.55333 5.0048 12 5.0048C15.4466 5.0048 18.7522 6.37351 21.19 8.81002C21.2829 8.90375 21.3935 8.97815 21.5154 9.02891C21.6373 9.07968 21.768 9.10582 21.9 9.10582C22.032 9.10582 22.1627 9.07968 22.2846 9.02891C22.4064 8.97815 22.517 8.90375 22.61 8.81002C22.7037 8.71706 22.7781 8.60646 22.8289 8.4846C22.8796 8.36274 22.9058 8.23204 22.9058 8.10002C22.9058 7.96801 22.8796 7.83731 22.8289 7.71545C22.7781 7.59359 22.7037 7.48299 22.61 7.39002Z" fill="black"/>
</svg>
