<svg width="24" height="24" viewBox="0 0 24 24" fill="none" xmlns="http://www.w3.org/2000/svg">
<path d="M6.91998 5.51L3.70998 2.29C3.61675 2.19676 3.50606 2.1228 3.38423 2.07234C3.26241 2.02188 3.13184 1.99591 2.99998 1.99591C2.86813 1.99591 2.73756 2.02188 2.61574 2.07234C2.49391 2.1228 2.38322 2.19676 2.28998 2.29C2.10168 2.47831 1.99589 2.7337 1.99589 3C1.99589 3.2663 2.10168 3.5217 2.28998 3.71L4.55998 6C3.40695 6.65548 2.34461 7.45897 1.39998 8.39C1.21373 8.57737 1.10919 8.83082 1.10919 9.095C1.10919 9.35919 1.21373 9.61264 1.39998 9.8C1.4926 9.89449 1.60304 9.96966 1.72492 10.0212C1.84679 10.0727 1.97768 10.0995 2.10998 10.1C2.37232 10.0989 2.62372 9.99475 2.80998 9.81C3.76293 8.86497 4.85574 8.07234 6.04998 7.46L7.53998 9C6.30072 9.5417 5.17445 10.3118 4.21998 11.27C4.11599 11.3604 4.0318 11.4713 3.9727 11.5958C3.9136 11.7203 3.88087 11.8556 3.87655 11.9934C3.87223 12.1311 3.89642 12.2682 3.9476 12.3961C3.99879 12.5241 4.07586 12.6401 4.17398 12.7368C4.27211 12.8335 4.38917 12.909 4.51781 12.9583C4.64646 13.0077 4.78393 13.0299 4.92158 13.0237C5.05923 13.0174 5.1941 12.9827 5.31773 12.9219C5.44135 12.861 5.55107 12.7753 5.63998 12.67C6.60955 11.7048 7.79082 10.9789 9.08998 10.55L10.71 12.16C9.32366 12.4267 8.04893 13.1024 7.04998 14.1C6.94599 14.1904 6.8618 14.3013 6.8027 14.4258C6.7436 14.5503 6.71087 14.6856 6.70655 14.8234C6.70223 14.9611 6.72642 15.0982 6.7776 15.2261C6.82879 15.3541 6.90586 15.4701 7.00398 15.5668C7.10211 15.6635 7.21917 15.739 7.34781 15.7883C7.47646 15.8377 7.61393 15.8599 7.75158 15.8537C7.88923 15.8474 8.0241 15.8127 8.14773 15.7519C8.27135 15.691 8.38107 15.6053 8.46999 15.5C8.93069 15.0299 9.47967 14.6555 10.0854 14.3981C10.6912 14.1407 11.3418 14.0054 12 14C12.211 14.0006 12.4216 14.0173 12.63 14.05L20.29 21.71C20.3829 21.8037 20.4935 21.8781 20.6154 21.9289C20.7373 21.9797 20.868 22.0058 21 22.0058C21.132 22.0058 21.2627 21.9797 21.3846 21.9289C21.5064 21.8781 21.617 21.8037 21.71 21.71C21.8037 21.617 21.8781 21.5064 21.9289 21.3846C21.9796 21.2627 22.0058 21.132 22.0058 21C22.0058 20.868 21.9796 20.7373 21.9289 20.6154C21.8781 20.4936 21.8037 20.383 21.71 20.29L6.91998 5.51ZM12 16C11.4066 16 10.8266 16.1759 10.3333 16.5056C9.83993 16.8352 9.45541 17.3038 9.22835 17.852C9.00128 18.4001 8.94187 19.0033 9.05763 19.5853C9.17338 20.1672 9.45911 20.7018 9.87866 21.1213C10.2982 21.5409 10.8328 21.8266 11.4147 21.9424C11.9967 22.0581 12.5999 21.9987 13.148 21.7716C13.6962 21.5446 14.1647 21.1601 14.4944 20.6667C14.824 20.1734 15 19.5933 15 19C15 18.2044 14.6839 17.4413 14.1213 16.8787C13.5587 16.3161 12.7956 16 12 16ZM12 20C11.8022 20 11.6089 19.9414 11.4444 19.8315C11.28 19.7216 11.1518 19.5654 11.0761 19.3827C11.0004 19.2 10.9806 18.9989 11.0192 18.8049C11.0578 18.6109 11.153 18.4327 11.2929 18.2929C11.4327 18.153 11.6109 18.0578 11.8049 18.0192C11.9989 17.9806 12.1999 18.0004 12.3827 18.0761C12.5654 18.1518 12.7216 18.28 12.8315 18.4444C12.9413 18.6089 13 18.8022 13 19C13 19.2652 12.8946 19.5196 12.7071 19.7071C12.5196 19.8946 12.2652 20 12 20ZM22.61 8.39C21.012 6.79342 19.074 5.57837 16.9408 4.83554C14.8075 4.09271 12.534 3.84127 10.29 4.1C10.1587 4.11445 10.0315 4.15462 9.91567 4.21822C9.79988 4.28182 9.69774 4.3676 9.6151 4.47068C9.44819 4.67884 9.37081 4.94479 9.39998 5.21C9.42916 5.47522 9.56249 5.71798 9.77066 5.88489C9.97882 6.0518 10.2448 6.12918 10.51 6.1C12.456 5.87791 14.427 6.09601 16.2773 6.73817C18.1276 7.38034 19.81 8.43015 21.2 9.81C21.3883 9.99698 21.6432 10.1015 21.9085 10.1006C22.1739 10.0996 22.428 9.99331 22.615 9.805C22.802 9.6167 22.9065 9.36183 22.9055 9.09647C22.9046 8.8311 22.7983 8.57698 22.61 8.39ZM18.36 12.63C18.5501 12.7953 18.7956 12.8827 19.0474 12.8748C19.2992 12.8669 19.5387 12.7643 19.7181 12.5874C19.8975 12.4105 20.0036 12.1725 20.015 11.9208C20.0265 11.6692 19.9426 11.4225 19.78 11.23C18.4442 9.8788 16.7742 8.90576 14.94 8.41C14.8093 8.35953 14.6695 8.33707 14.5296 8.34409C14.3897 8.35111 14.2528 8.38745 14.1278 8.45075C14.0028 8.51405 13.8926 8.6029 13.8041 8.71155C13.7157 8.82019 13.6511 8.9462 13.6144 9.08142C13.5778 9.21664 13.57 9.35804 13.5915 9.49646C13.6131 9.63489 13.6634 9.76725 13.7394 9.88496C13.8153 10.0027 13.9152 10.1031 14.0324 10.1798C14.1496 10.2565 14.2817 10.3076 14.42 10.33C15.9101 10.743 17.2677 11.5355 18.36 12.63Z" fill="black"/>
</svg>
