<svg width="24" height="24" viewBox="0 0 24 24" fill="none" xmlns="http://www.w3.org/2000/svg">
<path d="M5.00001 18C4.80223 18 4.60889 18.0586 4.44444 18.1685C4.27999 18.2784 4.15182 18.4346 4.07613 18.6173C4.00045 18.8 3.98064 19.0011 4.01923 19.1951C4.05781 19.3891 4.15305 19.5672 4.29291 19.7071C4.43276 19.8469 4.61094 19.9422 4.80492 19.9808C4.9989 20.0194 5.19997 19.9995 5.3827 19.9239C5.56542 19.8482 5.7216 19.72 5.83148 19.5556C5.94136 19.3911 6.00001 19.1978 6.00001 19C6.00001 18.7348 5.89466 18.4804 5.70712 18.2929C5.51958 18.1053 5.26523 18 5.00001 18ZM19 14H12C11.7348 14 11.4804 14.1053 11.2929 14.2929C11.1054 14.4804 11 14.7348 11 15C11 15.2652 11.1054 15.5196 11.2929 15.7071C11.4804 15.8946 11.7348 16 12 16H19C19.2652 16 19.5196 16.1053 19.7071 16.2929C19.8947 16.4804 20 16.7348 20 17C20 17.2652 19.8947 17.5196 19.7071 17.7071C19.5196 17.8946 19.2652 18 19 18C18.7348 18 18.4804 18.1053 18.2929 18.2929C18.1054 18.4804 18 18.7348 18 19C18 19.2652 18.1054 19.5196 18.2929 19.7071C18.4804 19.8946 18.7348 20 19 20C19.7957 20 20.5587 19.6839 21.1213 19.1213C21.6839 18.5587 22 17.7956 22 17C22 16.2043 21.6839 15.4413 21.1213 14.8787C20.5587 14.3161 19.7957 14 19 14ZM14 11C14 11.2652 14.1054 11.5196 14.2929 11.7071C14.4804 11.8946 14.7348 12 15 12H19C19.7957 12 20.5587 11.6839 21.1213 11.1213C21.6839 10.5587 22 9.79563 22 8.99998C22 8.73477 21.8947 8.48041 21.7071 8.29288C21.5196 8.10534 21.2652 7.99998 21 7.99998C20.7348 7.99998 20.4804 8.10534 20.2929 8.29288C20.1054 8.48041 20 8.73477 20 8.99998C20 9.2652 19.8947 9.51955 19.7071 9.70709C19.5196 9.89462 19.2652 9.99998 19 9.99998H15C14.7348 9.99998 14.4804 10.1053 14.2929 10.2929C14.1054 10.4804 14 10.7348 14 11ZM10 15C10 14.7348 9.89466 14.4804 9.70712 14.2929C9.51958 14.1053 9.26523 14 9.00001 14H6.00001C5.46958 14 4.96087 13.7893 4.5858 13.4142C4.21073 13.0391 4.00001 12.5304 4.00001 12C4.00001 11.4695 4.21073 10.9608 4.5858 10.5858C4.96087 10.2107 5.46958 9.99998 6.00001 9.99998C6.26523 9.99998 6.51958 9.89462 6.70712 9.70709C6.89466 9.51955 7.00001 9.2652 7.00001 8.99998C7.00257 7.81726 7.4243 6.67374 8.19028 5.77257C8.95627 4.8714 10.0169 4.27093 11.1838 4.07786C12.3506 3.88478 13.5481 4.11159 14.5636 4.71799C15.579 5.32439 16.3466 6.27112 16.73 7.38998C16.8149 7.64194 16.9964 7.84986 17.2345 7.96801C17.4727 8.08616 17.7481 8.10485 18 8.01998C18.252 7.93511 18.4599 7.75363 18.578 7.51546C18.6962 7.27729 18.7149 7.00194 18.63 6.74998C18.1208 5.25261 17.1195 3.9718 15.7893 3.11625C14.4591 2.26071 12.8784 1.88085 11.3047 2.03856C9.73098 2.19628 8.25706 2.88228 7.12309 3.98479C5.98912 5.0873 5.26193 6.54134 5.06001 8.10998C4.1066 8.3383 3.27023 8.90882 2.70975 9.71317C2.14927 10.5175 1.9037 11.4997 2.01968 12.4732C2.13566 13.4467 2.60511 14.3437 3.33888 14.9938C4.07265 15.644 5.01964 16.002 6.00001 16H9.00001C9.26523 16 9.51958 15.8946 9.70712 15.7071C9.89466 15.5196 10 15.2652 10 15ZM10 11C10 11.1978 10.0587 11.3911 10.1685 11.5556C10.2784 11.72 10.4346 11.8482 10.6173 11.9239C10.8001 11.9995 11.0011 12.0194 11.1951 11.9808C11.3891 11.9422 11.5673 11.8469 11.7071 11.7071C11.847 11.5672 11.9422 11.3891 11.9808 11.1951C12.0194 11.0011 11.9996 10.8 11.9239 10.6173C11.8482 10.4346 11.72 10.2784 11.5556 10.1685C11.3911 10.0586 11.1978 9.99998 11 9.99998C10.7348 9.99998 10.4804 10.1053 10.2929 10.2929C10.1054 10.4804 10 10.7348 10 11ZM14 18H9.00001C8.7348 18 8.48044 18.1053 8.29291 18.2929C8.10537 18.4804 8.00001 18.7348 8.00001 19C8.00001 19.2652 8.10537 19.5196 8.29291 19.7071C8.48044 19.8946 8.7348 20 9.00001 20H14C14.2652 20 14.5196 20.1053 14.7071 20.2929C14.8947 20.4804 15 20.7348 15 21C15 21.2652 15.1054 21.5196 15.2929 21.7071C15.4804 21.8946 15.7348 22 16 22C16.2652 22 16.5196 21.8946 16.7071 21.7071C16.8947 21.5196 17 21.2652 17 21C17 20.2043 16.6839 19.4413 16.1213 18.8787C15.5587 18.3161 14.7957 18 14 18Z" fill="black"/>
</svg>
