<svg width="24" height="24" viewBox="0 0 24 24" fill="none" xmlns="http://www.w3.org/2000/svg">
<path d="M18.55 2.17003C18.3295 2.02529 18.0608 1.97351 17.8024 2.02595C17.5439 2.0784 17.3166 2.23081 17.17 2.45003L12 10.2L6.83 2.45003C6.6737 2.25598 6.45059 2.12728 6.20437 2.08913C5.95814 2.05097 5.70654 2.10611 5.49884 2.24374C5.29115 2.38137 5.14231 2.59158 5.08148 2.83321C5.02065 3.07483 5.05222 3.33046 5.17 3.55003L10.17 11H7C6.73478 11 6.48043 11.1054 6.29289 11.2929C6.10536 11.4805 6 11.7348 6 12C6 12.2652 6.10536 12.5196 6.29289 12.7071C6.48043 12.8947 6.73478 13 7 13H11V15H7C6.73478 15 6.48043 15.1054 6.29289 15.2929C6.10536 15.4805 6 15.7348 6 16C6 16.2652 6.10536 16.5196 6.29289 16.7071C6.48043 16.8947 6.73478 17 7 17H11V21C11 21.2652 11.1054 21.5196 11.2929 21.7071C11.4804 21.8947 11.7348 22 12 22C12.2652 22 12.5196 21.8947 12.7071 21.7071C12.8946 21.5196 13 21.2652 13 21V17H17C17.2652 17 17.5196 16.8947 17.7071 16.7071C17.8946 16.5196 18 16.2652 18 16C18 15.7348 17.8946 15.4805 17.7071 15.2929C17.5196 15.1054 17.2652 15 17 15H13V13H17C17.2652 13 17.5196 12.8947 17.7071 12.7071C17.8946 12.5196 18 12.2652 18 12C18 11.7348 17.8946 11.4805 17.7071 11.2929C17.5196 11.1054 17.2652 11 17 11H13.87L18.87 3.55003C18.9398 3.43847 18.9869 3.31422 19.0086 3.18442C19.0304 3.05461 19.0262 2.9218 18.9965 2.79359C18.9668 2.66539 18.912 2.54431 18.8354 2.4373C18.7588 2.3303 18.6618 2.23947 18.55 2.17003Z" fill="black"/>
</svg>
