<svg width="24" height="24" viewBox="0 0 24 24" fill="none" xmlns="http://www.w3.org/2000/svg">
<path d="M12 15.5C11.8022 15.5 11.6089 15.5587 11.4444 15.6685C11.28 15.7784 11.1518 15.9346 11.0761 16.1173C11.0004 16.3 10.9806 16.5011 11.0192 16.6951C11.0578 16.8891 11.153 17.0673 11.2929 17.2071C11.4327 17.347 11.6109 17.4422 11.8049 17.4808C11.9989 17.5194 12.1999 17.4996 12.3827 17.4239C12.5654 17.3482 12.7216 17.22 12.8315 17.0556C12.9413 16.8911 13 16.6978 13 16.5C13 16.2348 12.8946 15.9804 12.7071 15.7929C12.5196 15.6054 12.2652 15.5 12 15.5ZM12 2C11.8124 2 11.6249 2.00951 11.4383 2.0285C8.83946 2.17313 6.39957 3.32602 4.63767 5.24194C2.87577 7.15786 1.9309 9.6856 2.00408 12.2875C2.07725 14.8893 3.16268 17.36 5.02947 19.1738C6.89626 20.9877 9.39709 22.0017 12 22C12.1876 22 12.375 21.9905 12.5616 21.9715C15.1605 21.8269 17.6004 20.674 19.3623 18.7581C21.1242 16.8421 22.0691 14.3144 21.9959 11.7125C21.9227 9.11068 20.8373 6.64003 18.9705 4.82616C17.1037 3.01229 14.6029 1.99834 12 2ZM12 20C10.3758 20.0023 8.7895 19.5094 7.45256 18.5872C6.11561 17.6649 5.09153 16.357 4.51682 14.8379C3.94211 13.3188 3.84408 11.6606 4.2358 10.0844C4.62751 8.50815 5.49036 7.08874 6.70933 6.01538C6.47679 6.8326 6.43733 7.69268 6.59406 8.52776C6.75079 9.36284 7.09942 10.1501 7.61245 10.8274C8.12547 11.5047 8.78887 12.0535 9.55029 12.4305C10.3117 12.8076 11.1503 13.0025 12 13C12.9282 13 13.8185 13.3688 14.4749 14.0251C15.1312 14.6815 15.5 15.5717 15.5 16.5C15.5 17.4283 15.1312 18.3185 14.4749 18.9749C13.8185 19.6313 12.9282 20 12 20ZM17.2906 17.9846C17.5232 17.1674 17.5626 16.3073 17.4059 15.4722C17.2492 14.6372 16.9005 13.8499 16.3875 13.1726C15.8745 12.4953 15.2111 11.9465 14.4497 11.5695C13.6883 11.1924 12.8496 10.9975 12 11C11.0717 11 10.1815 10.6313 9.52511 9.97488C8.86873 9.3185 8.49998 8.42826 8.49998 7.5C8.49998 6.57174 8.86873 5.68151 9.52511 5.02513C10.1815 4.36875 11.0717 4 12 4C13.6242 3.99774 15.2105 4.49059 16.5474 5.41285C17.8844 6.3351 18.9084 7.64296 19.4831 9.16207C20.0578 10.6812 20.1559 12.3394 19.7642 13.9156C19.3724 15.4919 18.5096 16.9113 17.2906 17.9846ZM12 6.5C11.8022 6.5 11.6089 6.55865 11.4444 6.66853C11.28 6.77841 11.1518 6.93459 11.0761 7.11732C11.0004 7.30004 10.9806 7.50111 11.0192 7.69509C11.0578 7.88907 11.153 8.06726 11.2929 8.20711C11.4327 8.34696 11.6109 8.4422 11.8049 8.48079C11.9989 8.51937 12.1999 8.49957 12.3827 8.42388C12.5654 8.34819 12.7216 8.22002 12.8315 8.05557C12.9413 7.89112 13 7.69778 13 7.5C13 7.23479 12.8946 6.98043 12.7071 6.7929C12.5196 6.60536 12.2652 6.5 12 6.5Z" fill="black"/>
</svg>
