<svg width="24" height="24" viewBox="0 0 24 24" fill="none" xmlns="http://www.w3.org/2000/svg">
<path d="M17.0009 11H9.41087L12.7109 7.71C12.8992 7.5217 13.005 7.2663 13.005 7C13.005 6.7337 12.8992 6.47831 12.7109 6.29C12.5226 6.1017 12.2672 5.99591 12.0009 5.99591C11.7346 5.99591 11.4792 6.1017 11.2909 6.29L6.29087 11.29C6.19983 11.3851 6.12847 11.4973 6.08087 11.62C5.98085 11.8635 5.98085 12.1365 6.08087 12.38C6.12847 12.5028 6.19983 12.6149 6.29087 12.71L11.2909 17.71C11.3838 17.8037 11.4944 17.8781 11.6163 17.9289C11.7382 17.9797 11.8689 18.0058 12.0009 18.0058C12.1329 18.0058 12.2636 17.9797 12.3854 17.9289C12.5073 17.8781 12.6179 17.8037 12.7109 17.71C12.8046 17.617 12.879 17.5064 12.9298 17.3846C12.9805 17.2627 13.0067 17.132 13.0067 17C13.0067 16.868 12.9805 16.7373 12.9298 16.6154C12.879 16.4936 12.8046 16.383 12.7109 16.29L9.41087 13H17.0009C17.2661 13 17.5204 12.8946 17.708 12.7071C17.8955 12.5196 18.0009 12.2652 18.0009 12C18.0009 11.7348 17.8955 11.4804 17.708 11.2929C17.5204 11.1054 17.2661 11 17.0009 11Z" fill="black"/>
</svg>
